<svg xmlns="http://www.w3.org/2000/svg" viewBox="0 0 64 64"><title>Restrict Content Pro icon - Uncanny Automator</title><g id="Layer_2" data-name="Layer 2"><rect width="64" height="64" style="fill:none"/></g><g id="Layer_1" data-name="Layer 1"><path id="Compound_Path" data-name="Compound Path" d="M9.7,61c0,1.45.37,3,2.43,3H23.48c2.13,0,2.62-1.43,2.62-3V47.37c0-2.21,0-3.92,2.25-3.92a3.35,3.35,0,0,1,3,1.77L42.4,61.57A5.17,5.17,0,0,0,47.27,64H58.6a2.36,2.36,0,0,0,2-3.7l-10.49-15a4.1,4.1,0,0,1,.84-5.55c8.78-6.88,9-14.07,9-16.81v-.08A23,23,0,0,0,54.31,9.23c-4.15-4.79-10.22-7.92-17.55-9A16.6,16.6,0,0,0,34.24,0H5.68C3.27,0,2.09,2.88,3.86,5.19A11,11,0,0,0,7.62,8.32c.36.21.69.4,1,.6A2.12,2.12,0,0,1,9.7,11.21V61ZM47.8,22.39c0,4.83-6,8.75-13.51,8.75s-13.51-3.92-13.51-8.75,6-8.75,13.51-8.75S47.8,17.56,47.8,22.39Z" style="fill:#222;fill-rule:evenodd"/><ellipse cx="34" cy="22.5" rx="14" ry="9.5" style="fill:#fff"/><path id="Path" d="M34.29,28.49c4,0,7.23-2.73,7.23-6.1s-3.24-6.11-7.23-6.11S27.06,19,27.06,22.39,30.3,28.49,34.29,28.49Z" style="fill:#222"/></g></svg>