<?xml version="1.0" encoding="UTF-8"?><svg id="Layer_1" xmlns="http://www.w3.org/2000/svg" viewBox="0 0 64 64"><defs><style>.cls-1{fill:#fff;fill-rule:evenodd;}.cls-2{fill:#635bff;}</style></defs><title>Stripe icon - Uncanny Automator</title><rect class="cls-2" width="64" height="64" rx="14" ry="14"/><path class="cls-1" d="M29.45,24.73c0-1.54,1.27-2.14,3.36-2.14,3.01,0,6.81.91,9.82,2.54v-9.31c-3.29-1.31-6.52-1.83-9.82-1.83-8.04,0-13.38,4.19-13.38,11.2,0,10.93,15.05,9.17,15.05,13.89,0,1.83-1.58,2.4-3.81,2.4-3.29,0-7.48-1.34-10.8-3.16v9.42c3.67,1.58,7.39,2.25,10.8,2.25,8.24,0,13.89-4.07,13.89-11.15-.04-11.8-15.12-9.71-15.12-14.14h0v.02Z"/></svg>