<svg xmlns="http://www.w3.org/2000/svg" viewBox="0 0 64 64"><title>Advanced A icon - Uncanny Automator</title><g id="Layer_2" data-name="Layer 2"><rect width="64" height="64" style="fill:none"/></g><g id="Layer_1" data-name="Layer 1"><path d="M59.87,63.93c-16.68-.14-33.51.26-50.13-.14C4.42,63,1.29,59.38,0,54.41V4.06c12.23,0,24.47-.07,36.7,0-1.55,4.36-2,8.81-.18,13.2.27.69.19.83-.57.83-7,0-14,0-21,0-.69,0-.9.14-.9.88q0,15,0,30c0,.72.17.89.89.89q15,0,30,0c.79,0,.9-.25.9-1,0-7,0-13.94,0-20.91,0-.9,0-.89.86-.57a17.27,17.27,0,0,0,12.32,0c.87-.32.87-.32.87.57C59.88,39.93,60,51.93,59.87,63.93Z" style="fill:#1b1a3a"/><path d="M64,11c-.21,14.69-22.12,14.66-22.33,0C41.89-3.64,63.75-3.64,64,11Z" style="fill:#1375a3"/></g></svg>