<svg xmlns="http://www.w3.org/2000/svg" viewBox="0 0 64 64"><defs><style>.a{fill:none;}.b{fill:#0f1031;}</style></defs><title>The Events Calendar icon - Uncanny Automator</title><rect class="a" width="64" height="64"/><path class="b" d="M34.47,41.76A14.12,14.12,0,0,1,29,43c-1.85-.1-2.64-.9-2.64-1.2s.69-.89,2.82-1h1.05a7.87,7.87,0,0,1,4.29,1.06m4,18.41c-7.79,2.11-16,.17-21-5C14,51.59,12.8,47,14.25,42.78,17.18,34.16,31.2,29,40.17,29h.29c3.34,0,5.65.84,6,2.07.22.69-.29,1.9-1.36,3.23a25.2,25.2,0,0,1-7.64,6.05c-1.85-2-4.8-2.88-8.58-2.61-4.21.3-5.7,2.3-5.68,4.07,0,1.94,1.93,4,5.55,4.2a17.32,17.32,0,0,0,7.45-1.67,11.61,11.61,0,0,1-.36,5.76A1.5,1.5,0,0,0,37,51.94h0a1.53,1.53,0,0,0,1.88-1.07c.86-3.16.93-5.81.2-7.92a29.81,29.81,0,0,0,8.52-6.79c1.79-2.24,2.42-4.25,1.88-6a5,5,0,0,0-2.7-3C46.85,15.86,48.9,8,50.75,8h0a1.51,1.51,0,0,1,1.09.5c1.5,1.46,3.29,6.27,3.29,20.85,0,14.39-1.26,26.64-16.69,30.82M23.74,26.61v-.28c-.22-3.1.16-5.55,1.12-6.86a2.66,2.66,0,0,1,1.89-1.1,3.35,3.35,0,0,1,2.83.89c1.49,1.41,2.37,4.46,2.29,7.8a43.37,43.37,0,0,0-7.69,2.64q-.29-1.53-.42-3.09M37,21.34a2.91,2.91,0,0,1,2.21-.9,3.14,3.14,0,0,1,2.46.83c.84.85,1.3,2.49,1.36,4.88A21.86,21.86,0,0,0,40.46,26h-.28a33.55,33.55,0,0,0-4.49.34,7.14,7.14,0,0,1,1.33-5m17-15A4.61,4.61,0,0,0,50.76,5h0C46.7,5,45.3,11,44.6,15.46c-.21,1.31-.37,2.65-.49,3.94l-.18-.19a6.35,6.35,0,0,0-4.67-1.74,6,6,0,0,0-4.48,1.88,7.11,7.11,0,0,0-.87,1.19,9,9,0,0,0-2.19-3.41,6.46,6.46,0,0,0-5.33-1.71,5.79,5.79,0,0,0-4,2.33h0C20.64,9.46,17.43-.52,11.83,0A5,5,0,0,0,8.31,2.16C4,7.92,6,25,7.9,34.27a1.52,1.52,0,0,0,1.5,1.22h.31a1.53,1.53,0,0,0,1.21-1.78C7.77,18.25,8.47,7,10.79,4A1.9,1.9,0,0,1,12.15,3c3.1-.32,6.91,10.28,8.51,23.66a36.29,36.29,0,0,0,.63,4.41h0c-4.63,2.62-8.45,6.2-10,10.67-1.83,5.38-.4,11,3.91,15.48A23.51,23.51,0,0,0,32.2,64,27.32,27.32,0,0,0,39.28,63c17.5-4.74,19-18.67,19-33.74,0-12.89-1.33-20.2-4.2-23"/></svg>