<?xml version="1.0" encoding="UTF-8"?><svg id="a" xmlns="http://www.w3.org/2000/svg" viewBox="0 0 64 64"><title>WS Form icon - Uncanny Automator</title><path d="M9.2,40.92l-1.89-8.48c-.02-.06-.03-.13-.04-.2s-.15-.81-.4-2.21h-.03l-.18,.98-.29,1.43-1.96,8.48h-1.44L0,28.41H1.2l1.71,7.29,.8,3.81h.08c.15-1.1,.4-2.38,.73-3.83l1.71-7.27h1.27l1.72,7.29c.13,.55,.38,1.82,.72,3.81h.08c.03-.25,.15-.89,.37-1.92s.94-4.08,2.14-9.18h1.19l-3.08,12.52h-1.42Z" style="fill:#002d5d;"/><path d="M21.16,37.79c0,1.06-.3,1.88-.91,2.48-.61,.59-1.48,.89-2.63,.89-.62,0-1.17-.07-1.64-.22s-.84-.31-1.1-.48l.53-.91c.35,.22,.25,.15,.71,.32,.51,.18,1.04,.26,1.58,.26,.71,0,1.27-.21,1.67-.63,.41-.42,.61-.99,.61-1.7,0-.56-.15-1.02-.44-1.4-.29-.38-.85-.81-1.66-1.3-.94-.54-1.57-.97-1.92-1.29-.34-.32-.61-.68-.8-1.09s-.28-.88-.28-1.43c0-.9,.33-1.65,1-2.23,.67-.59,1.51-.88,2.54-.88,1.1,0,1.93,.29,2.68,.76l-.53,.91c-.69-.42-1.42-.63-2.2-.63-.71,0-1.27,.19-1.69,.57-.42,.38-.63,.88-.63,1.5,0,.56,.14,1.02,.43,1.39s.89,.83,1.82,1.36c.91,.55,1.53,.98,1.87,1.31,.34,.32,.59,.69,.75,1.09,.17,.39,.25,.85,.25,1.36Z" style="fill:#002d5d;"/><path d="M27.52,29.38h-2.15v11.55h-1.19v-11.55h-1.74v-.95h1.73v-1.09c.01-1.59,.17-2.6,.59-3.3,.44-.73,1.17-1.19,2.19-1.19h1.24v1.01c-.27,0-.81,0-1.17,.02-.59,0-.86,.19-1.07,.41-.21,.22-.32,.49-.42,.99-.1,.5-.15,1.19-.15,2.08v1.05h2.15v.97h0Z" style="fill:#aca199;"/><path d="M36.64,34.64c0,2.11-.36,3.72-1.09,4.84-.73,1.12-1.77,1.68-3.12,1.68s-2.36-.56-3.08-1.68c-.71-1.12-1.07-2.73-1.07-4.84,0-4.31,1.4-6.47,4.19-6.47,1.31,0,2.34,.56,3.07,1.7,.74,1.13,1.1,2.72,1.1,4.78Zm-7.11,0c0,1.81,.24,3.17,.71,4.1,.47,.92,1.21,1.39,2.21,1.39,1.96,0,2.95-1.83,2.95-5.48s-.98-5.43-2.95-5.43c-1.03,0-1.77,.45-2.23,1.36-.46,.91-.69,2.27-.69,4.07Z" style="fill:#aca199;"/><path d="M38.55,31.25c0-1.52,1.83-3.07,3.78-3.08,1.32-.01,1.8,.37,2.27,.59l-.59,.92c-.41-.22-.8-.39-1.71-.42-.57-.02-1.03,.06-1.53,.4-.41,.27-.87,.55-1.01,1.74-.09,.81-.03,1.96-.03,2.9v6.63h-1.2" style="fill:#aca199;"/><path d="M44.78,31.03c.24-2.06,2.13-2.87,3.45-2.87,.76,0,1.69,.27,2.15,.62,.41,.31,.63,.57,.87,1.38,.33-.77,.59-1,1.07-1.34,.48-.34,1.1-.64,1.87-.64,1.03,0,2.07,.32,2.69,1.22,.5,.71,.72,1.75,.72,3.35v8.18h-1.19v-8.53c.03-2.43-.61-3.21-2.22-3.21-.8,0-1.38,.2-1.8,.94-.42,.73-.61,2.05-.61,3.48v7.33h-1.19v-8.52c0-1.06-.16-1.85-.49-2.37s-1.14-.8-1.83-.8c-.91,0-1.52,.44-1.94,1.2-.41,.75-.37,1.93-.37,3.62v6.88h-1.2" style="fill:#aca199;"/><circle cx="60.39" cy="29.23" r="1.08" style="fill:#aca199;"/><circle cx="60.39" cy="34.52" r="1.08" style="fill:#aca199;"/><circle cx="60.39" cy="39.73" r="1.08" style="fill:#aca199;"/><path d="M61.97,26.5c0-.09,.01-.18,.04-.27,.03-.09,.06-.17,.1-.24,.04-.08,.1-.15,.16-.21,.06-.06,.13-.12,.21-.16,.08-.04,.16-.08,.24-.1,.09-.03,.18-.04,.27-.04s.18,.01,.27,.04c.09,.03,.17,.06,.24,.1,.08,.04,.15,.1,.21,.16,.06,.06,.12,.13,.16,.21,.04,.08,.08,.16,.1,.24s.03,.18,.03,.27-.01,.18-.03,.27c-.03,.09-.06,.17-.1,.24-.04,.08-.1,.15-.16,.21-.06,.06-.13,.12-.21,.16-.08,.04-.16,.08-.24,.1-.09,.03-.18,.04-.27,.04s-.18-.01-.27-.04-.17-.06-.24-.1c-.08-.04-.15-.1-.21-.16-.06-.06-.12-.13-.16-.21-.04-.08-.08-.16-.1-.24s-.04-.18-.04-.27Zm.14,0c0,.08,0,.16,.03,.24,.02,.08,.05,.15,.09,.21,.04,.07,.09,.13,.14,.18,.05,.06,.11,.1,.18,.14,.06,.04,.14,.07,.21,.09,.08,.02,.15,.03,.24,.03,.12,0,.24-.02,.35-.07s.2-.11,.28-.19,.14-.18,.19-.28,.07-.23,.07-.35c0-.08,0-.16-.03-.24-.02-.08-.05-.15-.09-.22s-.09-.13-.14-.18c-.06-.06-.11-.1-.18-.14-.06-.04-.14-.07-.21-.09s-.15-.03-.24-.03c-.12,0-.24,.03-.35,.07s-.2,.11-.28,.19c-.08,.08-.14,.18-.19,.29-.04,.11-.07,.23-.07,.35Zm.74,.11v.34h-.15v-.85h.27c.11,0,.19,.02,.24,.06,.05,.04,.08,.1,.08,.18,0,.06-.02,.11-.05,.15-.03,.04-.09,.07-.15,.09,.01,0,.02,.01,.03,.03,0,0,.02,.02,.02,.03l.22,.32h-.14s-.04,0-.05-.03l-.19-.29s-.01-.01-.02-.02-.02,0-.04,0c0,0-.07,0-.07,0Zm0-.11h.11s.06,0,.09,0c.03,0,.04-.02,.06-.03,.01-.01,.03-.03,.03-.05,0-.02,0-.04,0-.06,0-.02,0-.04,0-.06s-.02-.03-.03-.04c-.01-.01-.03-.02-.06-.03-.02,0-.05,0-.08,0h-.12v.29h0Z" style="fill:#aca199;"/><rect width="64" height="64" style="fill:none;"/></svg>