<?xml version="1.0" encoding="UTF-8"?><svg id="Layer_1" xmlns="http://www.w3.org/2000/svg" viewBox="0 0 64 64"><defs><style>.cls-1{fill:none;}.cls-2{fill:#0059ed;}.cls-3{fill:#f54eac;}.cls-4{fill:#005aee;}</style></defs><path class="cls-3" d="M30.69,16.82c4.02.26,8.51-3.68,8.25-8.57-.21-4.57-3.71-8.25-8.2-8.25-4.64.05-8.25,3.73-8.25,8.52s3.76,8.31,8.2,8.31Z"/><path class="cls-4" d="M10.05,39.39s.15.1.15.11c0,0,0,0,0,0,11.99-13.77,21.32-7.43,27.22.84,1.24.05,2.35.15,3.28.25-5.76-11.6-17.27-20.67-30.66-1.19Z"/><path class="cls-4" d="M44.63,54.6s0,0,0,0c-.06-2.19-.55-4.86-1.4-7.66l-1.99-.23c2.16,4.23,3.32,7.73,3.39,7.89Z"/><path class="cls-2" d="M43.74,41.06c.15.04,2.27.62,4.58,1.55-.48-3.3-1.38-7.52-3.03-10.72-1.07-2.07-2.17-4.26-3.71-6.05-1.75-2-3.71-3.78-6.08-4.99-1.91-.95-3.87-1.52-5.93-1.63-3.3-.11-6.34.79-9.12,2.47-3.45,2.1-6.13,5.1-8.4,8.52-2.01,3.05-3.51,6.36-4.69,9.88-.21.63-.36,1.26-.57,1.89.07.04.12.05.15.05.1-.05,1.49-2.68,2.17-3.84,1.8-2.94,3.92-5.57,6.6-7.73,2.84-2.26,5.93-3.68,9.59-3.84,3.25-.16,6.22.68,8.87,2.58,3.96,2.84,6.67,7.33,8.49,11.64.57.09.95.17,1.09.21h0Z"/><path class="cls-2" d="M46.06,52.82c.28,1.65.48,3.29.62,4.94.1,1.63.1,3.26.15,4.84v1.4c1.73-5.77,2.36-9.9,2.03-15.93-1.31-.36-2.66-.66-4.04-.89.82,2.99,1.16,5.22,1.24,5.64Z"/><path class="cls-3" d="M52.11,46.12c-2.7-2.15-8.7-3.78-8.7-3.78-.47-.13-3.68-.73-7.92-.73-4.54,0-10.27.69-15.08,3.39-.75.42-1.5.84-2.24,1.32-1.33.91-2.67,1.88-4.02,2.91-.75.53-1.45,1.24-2.15,1.83,0,.04,0,.08,0,.11.25-.12.5-.24.75-.36,1.12-.6,2.25-1.2,3.37-1.75,1.38-.61,2.71-1.22,4.09-1.59,2.09-.63,4.19-1.14,6.25-1.54,1.9-.32,3.8-.52,5.68-.61,1.06-.06,2.11-.07,3.16-.07s2.17.02,3.25.02l.59-.02h.02c.26,0,1.54.07,1.54.07l2.83.33c4.61.62,9.16,1.93,13.69,4.33-.09-.17-3.66-2.88-5.12-3.87Z"/><rect class="cls-1" width="64" height="64"/></svg>