<?xml version="1.0" encoding="UTF-8"?><svg id="a" xmlns="http://www.w3.org/2000/svg" viewBox="0 0 64 64"><title>ARMember icon - Uncanny Automator</title><rect width="64" height="64" style="fill:#1a2538;"/><path d="m16.28,32.23c1.46-1.11,3.06-1.95,4.69-2.75,2.8-1.37,5.7-2.47,8.76-3.05,2.85-.53,5.75-.6,8.51.52,2.76,1.11,4.64,3.1,5.63,5.95.78,2.25,1.07,4.56,1.03,6.91-.05,2.57-.68,5.02-1.69,7.38-.04.09-.07.22-.27.21-.26-1.49-.45-3-.84-4.48-.94-3.51-2.47-6.68-5.19-9.17-1.96-1.8-4.31-2.85-6.92-3.3-4-.69-7.87-.05-11.69,1.13-.68.21-1.34.43-2.02.65Z" style="fill:#005aed;"/><path d="m43.11,26.12c-2.29.08-5.11-2.1-4.67-5.61.27-2.13,2.08-4.23,5-4.12,2.75.1,4.74,2.17,4.71,5.07-.03,2.56-2.37,4.71-5.05,4.66Z" style="fill:#f447af;"/></svg>