<?xml version="1.0" encoding="UTF-8"?><svg id="a" xmlns="http://www.w3.org/2000/svg" viewBox="0 0 64 64"><title>ARMember icon - Uncanny Automator</title><rect x="0" width="64" height="64" rx="10" ry="10" style="fill:#172031;"/><path d="m43.13,39.77c-.45-1.92-.82-3.92-1.4-5.86-.8-2.68-2.15-5.09-4.16-7.08-3.42-3.37-7.63-4.26-12.24-3.83-2.74.26-5.37.97-8,1.85.32-.2.64-.41.97-.6.35-.21.71-.41,1.06-.61,3.44-1.91,7.01-3.49,10.9-4.25,3.03-.59,6.04-.66,8.88.79,3.07,1.58,4.71,4.2,5.32,7.55.74,4.05.4,7.99-1.21,11.8-.05.12-.12.23-.13.24Z" style="fill:#034fd0;"/><path d="m42.99,9.57c3.03.02,5.45,2.45,5.43,5.46-.02,3.03-2.51,5.54-5.5,5.54-3.06,0-5.54-2.53-5.5-5.59.04-3.05,2.49-5.43,5.57-5.41Z" style="fill:#d63e99;"/><path d="m11.25,52.65h-.32c-.33,0-.62-.17-.88-.51-.43.34-.95.51-1.56.51h-.02c-.67,0-1.12-.26-1.36-.79-.07-.23-.1-.45-.1-.64,0-.97.69-1.56,2.07-1.77l.84-.05v-.41c0-.8-.29-1.2-.87-1.2-.44.04-.66.16-.66.38v.05l.15.46c0,.3-.21.49-.64.59h-.08c-.3,0-.51-.14-.64-.41l-.03-.18v-.26c0-.41.33-.79,1-1.13.33-.14.7-.2,1.1-.2.9,0,1.5.31,1.82.92.12.25.18.52.18.82v3.81Zm-2.86-1.56c.03.43.2.64.51.64.44,0,.78-.14,1.02-.41v-1.26c-1.02.14-1.53.48-1.53,1.02Zm4.19-1.05c0-1.27-.08-1.91-.23-1.91l-.67-.15-.1-.26c0-.24.2-.36.6-.36l1.34-.18c.2,0,.31.16.31.49.33-.38.78-.57,1.35-.57.67.05,1.01.35,1.01.88,0,.42-.22.67-.65.74-.43,0-.64-.16-.64-.49l-.05-.2-.13-.03c-.33,0-.58.33-.77.98v2.19c.05.93-.3,1.42-1.05,1.48h-.94c-.14-.06-.2-.17-.2-.34,0-.21.21-.34.64-.39.14-.09.21-.21.21-.36v-1.52Zm8.16-.23c0-.91-.15-1.46-.44-1.65-.16-.07-.31-.1-.44-.1-.68.04-1.1.34-1.26.89v2.24c.04.93-.31,1.42-1.06,1.48h-.94c-.14-.06-.2-.17-.2-.34,0-.21.21-.34.64-.39.14-.09.21-.21.21-.36v-2.61c0-.6-.15-.9-.44-.9s-.44-.11-.44-.34v-.07c0-.19.22-.28.65-.28l1.26-.18c.21.05.31.15.31.31v.26c.46-.43,1-.65,1.6-.65.79,0,1.32.32,1.6.95.55-.64,1.18-.95,1.89-.95h.08c.96,0,1.54.45,1.73,1.34.06.27.1.56.11.87v3.35h-.72c-.44.04-.66-.3-.65-1.02v-2.91c-.13-.45-.41-.68-.83-.68-.49,0-.88.28-1.16.85-.11.19-.16.45-.16.78v2.98s-.69,0-.69,0c-.44.04-.66-.3-.65-1.02v-1.84Zm8.35-2.71h.03c1.16,0,1.88.62,2.18,1.87l.02.41c-.03.24-.12.36-.28.36h-3.1c0,.97.33,1.58.99,1.82.16.07.37.1.64.1.56,0,.99-.12,1.3-.36l.11-.02c.14,0,.25.12.33.36-.36.68-1.03,1.02-2.02,1.02h-.05c-1.28,0-2.13-.53-2.56-1.59-.14-.41-.2-.81-.2-1.2,0-1.13.52-1.98,1.56-2.56.38-.14.73-.2,1.05-.2Zm-1.1,1.92v.02h1.92v-.23c-.08-.68-.37-1.02-.87-1.02s-.84.28-.99.84l-.05.39Zm7.95.78c0-.91-.15-1.46-.44-1.65-.16-.07-.31-.1-.44-.1-.68.04-1.1.34-1.26.89v2.24c.04.93-.31,1.42-1.06,1.48h-.94c-.14-.06-.2-.17-.2-.34,0-.21.21-.34.64-.39.14-.09.21-.21.21-.36v-2.61c0-.6-.15-.9-.44-.9s-.44-.11-.44-.34v-.07c0-.19.22-.28.65-.28l1.26-.18c.21.05.31.15.31.31v.26c.46-.43,1-.65,1.6-.65.79,0,1.32.32,1.6.95.55-.64,1.18-.95,1.89-.95h.08c.96,0,1.54.45,1.73,1.34.06.27.1.56.11.87v3.35h-.72c-.44.04-.66-.3-.65-1.02v-2.91c-.13-.45-.41-.68-.83-.68-.49,0-.88.28-1.16.85-.11.19-.16.45-.16.78v2.98s-.69,0-.69,0c-.44.04-.66-.3-.65-1.02v-1.84Zm7.42-5.21c.24,0,.36.09.36.28v2.79h.03c.39-.38.85-.56,1.38-.56h.05c1.06,0,1.74.67,2.05,2.02l.03.41v.28c0,1.19-.52,2.05-1.56,2.56-.41.19-.87.28-1.36.28-1.31-.05-1.97-.21-1.97-.48v-6.07c0-.39-.16-.59-.49-.59-.24,0-.36-.1-.36-.31v-.15c0-.17.19-.26.56-.26.72-.14,1.15-.2,1.28-.2Zm.36,4.4v2.28c0,.24.24.44.72.61l.18.03c.78,0,1.18-.67,1.18-2v-.23c0-1.08-.31-1.61-.92-1.61h-.03c-.38,0-.72.2-1.02.61-.07.12-.1.22-.1.31Zm6.5-1.89h.03c1.16,0,1.88.62,2.18,1.87l.02.41c-.03.24-.12.36-.28.36h-3.1c0,.97.33,1.58.99,1.82.16.07.37.1.64.1.56,0,.99-.12,1.3-.36l.11-.02c.14,0,.25.12.33.36-.36.68-1.03,1.02-2.02,1.02h-.05c-1.28,0-2.13-.53-2.56-1.59-.14-.41-.2-.81-.2-1.2,0-1.13.52-1.98,1.56-2.56.38-.14.73-.2,1.05-.2Zm-1.1,1.92v.02h1.92v-.23c-.08-.68-.37-1.02-.87-1.02s-.84.28-.99.84l-.05.39Zm4.62,1.02c0-1.27-.08-1.91-.23-1.91l-.67-.15-.1-.26c0-.24.2-.36.6-.36l1.34-.18c.2,0,.31.16.31.49.33-.38.78-.57,1.35-.57.67.05,1.01.35,1.01.88,0,.42-.22.67-.65.74-.43,0-.64-.16-.64-.49l-.05-.2-.13-.03c-.33,0-.58.33-.77.98v2.19c.05.93-.3,1.42-1.05,1.48h-.94c-.14-.06-.2-.17-.2-.34,0-.21.21-.34.64-.39.14-.09.21-.21.21-.36v-1.52Z" style="fill:#fff;"/></svg>