<?xml version="1.0" encoding="UTF-8"?><svg id="Layer_1" xmlns="http://www.w3.org/2000/svg" xmlns:xlink="http://www.w3.org/1999/xlink" viewBox="0 0 64 64"><defs><style>.cls-1{fill:none;}.cls-2{fill:#d18ee2;}.cls-2,.cls-3{fill-rule:evenodd;}.cls-3{fill:#355146;}.cls-4{fill:#ff7759;}.cls-5{clip-path:url(#clippath);}</style><clipPath id="clippath"><rect class="cls-1" width="64" height="64"/></clipPath></defs><g class="cls-5"><path class="cls-3" d="M20.73,38.11c1.72,0,5.15-.09,9.89-2.04,5.52-2.27,16.5-6.4,24.42-10.64,5.54-2.96,7.97-6.88,7.97-12.16,0-7.33-5.94-13.26-13.26-13.26h-30.69C8.53,0,0,8.53,0,19.05s7.99,19.05,20.73,19.05Z"/><path class="cls-2" d="M25.93,51.23c0-5.16,3.11-9.81,7.87-11.79l9.67-4.01c9.78-4.06,20.54,3.13,20.54,13.71,0,8.2-6.65,14.85-14.85,14.85h-10.47c-7.05,0-12.76-5.72-12.76-12.76Z"/><path class="cls-4" d="M10.98,40.61h0c-6.07,0-10.98,4.92-10.98,10.98v1.42c0,6.07,4.92,10.98,10.98,10.98h0c6.07,0,10.98-4.92,10.98-10.98v-1.42c0-6.07-4.92-10.98-10.98-10.98Z"/></g></svg>