<svg xmlns="http://www.w3.org/2000/svg" viewBox="0 0 64 64"><title>WordPress Download Manager icon - Uncanny Automator</title><g id="Layer_2" data-name="Layer 2"><rect width="64" height="64" style="fill:none"/></g><g id="Layer_1" data-name="Layer 1"><path id="arrow" d="M28.15,36.62,2.68,11.26a5.56,5.56,0,0,1,0-7.86h0L4.24,1.81a5.6,5.6,0,0,1,7.89,0L32.06,21.63l19.78-20a5.59,5.59,0,0,1,7.89,0l1.59,1.56a5.58,5.58,0,0,1,0,7.88L36,36.59a5.55,5.55,0,0,1-7.89,0Z" style="fill:#239cef"/><path id="circle" d="M38.41,43a8.94,8.94,0,0,1-12.63,0h0L13.58,30.82a21.74,21.74,0,1,0,36.9-.11Z" style="fill:#094168"/></g></svg>