<?xml version="1.0" encoding="UTF-8"?><svg xmlns="http://www.w3.org/2000/svg" viewBox="0 0 64 64"><title>Thrive Theme Builder icon - Uncanny Automator</title><g id="a"><path d="M30.87.01c8.89,0,17.78,0,26.67-.01.6,0,.76.17.76.76-.02,4.54-.02,9.09,0,13.63,0,.55-.17.7-.7.7-17.84-.01-35.68-.01-53.53,0-.53,0-.67-.18-.67-.68.01-4.58.01-9.17,0-13.75C3.41.17,3.56,0,4.08,0c8.93.02,17.86.01,26.79.01ZM30.87,5.07c-7.21,0-14.41,0-21.62,0-.8,0-.8,0-.8.76,0,1.17.02,2.35,0,3.52-.01.54.18.7.72.7,3.74-.02,7.48-.01,11.22-.01,10.71,0,21.42,0,32.13,0,.55,0,.76-.14.74-.72-.04-1.15-.01-2.31-.01-3.47q0-.8-.82-.8c-7.19,0-14.37,0-21.56,0Z" style="fill:#464646; stroke-width:0px;"/><path d="M46.77,40.38c-1.41.3-2.59.8-3.79,1.24-1.7.63-3.4,1.27-5.06,2-5.26,2.29-10.24,5.04-14.26,9.23-2.65,2.76-4.68,5.94-6.02,9.54-.19.51-.37,1.01-.59,1.61-.17-.55-.33-1.02-.35-1.52-.21-5.35,1.52-10.02,4.95-14.08,2.17-2.58,4.76-4.67,7.61-6.45,2.74-1.72,5.65-3.05,8.77-3.95,2.87-.82,5.77-1.51,8.71-2.05,2.73-.51,5.47-.91,8.21-1.33,1.57-.24,3.16.03,4.74.17.06,0,.12.03.16.06.26.17.75.2.74.49,0,.33-.48.22-.74.26-1.23.2-2.05,1-2.82,1.87-1.2,1.36-2.42,2.71-3.44,4.22-.84,1.26-1.31,2.7-2.08,3.99-2.09,3.46-4.2,6.92-7.18,9.72-1.81,1.7-3.95,2.84-6.27,3.67-2.12.76-4.3,1.26-6.52,1.63-2.11.34-4.21.33-6.32.2-1.26-.08-1.33-.25-.76-1.34,1.2-2.31,2.54-4.52,4.11-6.6,1.81-2.38,3.95-4.42,6.44-6.08,2.98-1.99,6.13-3.65,9.33-5.25.77-.39,1.56-.75,2.44-1.24Z" style="fill:#5aa024; stroke-width:0px;"/><path d="M30.86,32.49c-3.07,0-6.15-.01-9.22.01-.56,0-.74-.16-.74-.73.02-4.47.01-8.93.01-13.4,0-.76.04-.8.79-.8,6.11,0,12.22,0,18.33,0,.75,0,.78.03.78.81,0,4.47,0,8.93.01,13.4,0,.57-.18.73-.74.73-3.07-.02-6.15-.01-9.22-.01ZM30.81,22.54c-1.49,0-2.97,0-4.46,0-.36,0-.52.09-.52.5.02,1.29.03,2.58,0,3.87,0,.5.2.64.67.63,2.88-.01,5.75-.01,8.63,0,.48,0,.67-.14.66-.64-.02-1.27-.02-2.54,0-3.82,0-.45-.16-.56-.58-.56-1.47.02-2.94,0-4.4,0Z" style="fill:#464646; stroke-width:0px;"/><path d="M39.93,35.13c-1.86.56-3.66,1.1-5.38,1.88-1.64.73-3.24,1.55-4.73,2.57-.45.31-.92.48-1.48.45-.64-.04-1.29,0-1.94-.01-.38,0-.63.1-.55.53.22,1.24-.25,2.04-1.37,2.68-1.14.65-2.12,1.6-3.08,2.52-.12.12-.25.3-.44.23-.23-.08-.13-.3-.13-.46,0-3.29,0-6.58-.01-9.86,0-.49.16-.65.64-.65,5.89.01,11.78,0,17.67.01.25,0,.5-.02.79.12Z" style="fill:#464646; stroke-width:0px;"/></g><g id="b"><rect y="0" width="64" height="64" style="fill:none; stroke-width:0px;"/></g></svg>