<svg xmlns="http://www.w3.org/2000/svg" viewBox="0 0 64.02 64"><defs><style>.a{fill:none;}.b{fill:#43d4d2;}.c{fill:#3ad3e2;}.d{fill:#184da8;}.e{fill:#298dcf;}.f{fill:#2fb1b9;}.g{fill:#2077b7;}.h{fill:#1a60a5;}.i{fill:#2695a7;}.j{fill:#2eb2ad;}</style></defs><title>Uncanny Automator - Memberpress</title><rect class="a" width="64" height="64"/><path class="b" d="M49.62,14.29c.6.17,1.23.18,1.85.3A15.53,15.53,0,0,1,63.74,27,15.86,15.86,0,0,1,64,30V44.58l-.06-.17a4.47,4.47,0,0,0-5.23-3.53,4.42,4.42,0,0,0-2.5,1.44,4.91,4.91,0,0,0-1.08,2.19V29.67a6.57,6.57,0,0,0-13.05-1,.18.18,0,0,1-.06.13c-.1-.64-.18-1.28-.3-1.91a15.29,15.29,0,0,0-1.48-4.26A14.58,14.58,0,0,0,37.53,19h0a15.18,15.18,0,0,1,7.86-4.28c.68-.14,1.38-.23,2.07-.35Z"/><path class="c" d="M37.54,18.92h0a6.24,6.24,0,0,0-.88.9,15.27,15.27,0,0,0-3.61,9.34,7.17,7.17,0,0,0-1.07-3,6.64,6.64,0,0,0-9.17-1.83,6.55,6.55,0,0,0-2.91,4.74v.14a12.2,12.2,0,0,0-.19-2,15.14,15.14,0,0,0-2.22-5.75A10.44,10.44,0,0,0,15.31,19V19l.77-.69a15.41,15.41,0,0,1,7.39-3.63l1.83-.3h2.24a.48.48,0,0,0,.31.08,15.73,15.73,0,0,1,5.74,1.68A17.27,17.27,0,0,1,37.54,18.92Z"/><path class="d" d="M5,23.19a4.5,4.5,0,0,1-3.72-1.34,4.26,4.26,0,0,1-1.1-4.26,4.34,4.34,0,0,1,3.15-3.15.48.48,0,0,0,.43-.15h1.7c.06.23.28.17.42.22A4.47,4.47,0,0,1,5,23.19Z"/><path class="e" d="M5,23.19a4.47,4.47,0,0,0,.88-8.68c-.14,0-.36,0-.42-.22h.22a9.32,9.32,0,0,0,1.48.24,15.41,15.41,0,0,1,8.31,4.38V19a15.43,15.43,0,0,0-4.24,8.48,9.5,9.5,0,0,1-.23,1.4c-.07-.27-.13-.54-.21-.81a6.51,6.51,0,0,0-5.63-4.83Z"/><path class="f" d="M33.07,29.2a15.31,15.31,0,0,1,3.59-9.34,6.17,6.17,0,0,1,.87-.9,14.94,14.94,0,0,1,2.67,3.68,15.29,15.29,0,0,1,1.48,4.26c.12.63.2,1.27.3,1.91V44.29H41.9a7,7,0,0,0-.76-1.62,4.43,4.43,0,0,0-4-1.85A4.31,4.31,0,0,0,34,42.46a6.48,6.48,0,0,0-.94,1.9v-.15Q33.08,36.71,33.07,29.2Z"/><path class="g" d="M11,28.88a8.77,8.77,0,0,0,.21-1.44A15.4,15.4,0,0,1,15.46,19a10.72,10.72,0,0,1,2.07,2.53,15.27,15.27,0,0,1,2.2,5.75,12.2,12.2,0,0,1,.19,2V44.46c-.09-.06-.07-.15-.09-.24a4.44,4.44,0,0,0-3.92-3.38,4.52,4.52,0,0,0-4.6,2.88c0,.12,0,.32-.25.3V29.47A2.11,2.11,0,0,1,11,28.88Z"/><path class="h" d="M11,44c.22,0,.21-.18.25-.3a4.52,4.52,0,0,1,4.6-2.88,4.44,4.44,0,0,1,3.92,3.38.25.25,0,0,0,.09.24A4.86,4.86,0,0,1,19,48a4.46,4.46,0,0,1-7.88-2A6.13,6.13,0,0,1,11,44.79a.38.38,0,0,0,0-.43Z"/><path class="i" d="M33.09,44.36a6.48,6.48,0,0,1,.94-1.9,4.34,4.34,0,0,1,3.1-1.65,4.43,4.43,0,0,1,4,1.85,7,7,0,0,1,.76,1.62.78.78,0,0,0,.06.37v.15h0a.86.86,0,0,0-.06.5,4.31,4.31,0,0,1-3.46,4.24,4.47,4.47,0,0,1-5.31-3.41.5.5,0,0,0,0-.12A5.37,5.37,0,0,1,33.09,44.36Z"/><path class="j" d="M55.11,44.51a4.91,4.91,0,0,1,1.08-2.19,4.42,4.42,0,0,1,2.5-1.44,4.47,4.47,0,0,1,5.23,3.53l.06.17a4.73,4.73,0,0,1-1,3.55,4.48,4.48,0,0,1-6.08.68A4.54,4.54,0,0,1,55.11,44.51Z"/><path class="e" d="M11,44.36a.38.38,0,0,1,0,.43Z"/><path class="b" d="M42,44.65c-.09-.11,0-.25-.06-.37H42Z"/><path class="b" d="M42,44.87Z"/></svg>