<svg xmlns="http://www.w3.org/2000/svg" xmlns:xlink="http://www.w3.org/1999/xlink" viewBox="0 0 64 64"><defs><style>.cls-1{fill:none;}.cls-2{fill:#1693a7;}.cls-2,.cls-4,.cls-7{fill-rule:evenodd;}.cls-3{clip-path:url(#clip-path);}.cls-4{fill:#025d6b;}.cls-5{fill:url(#linear-gradient);}.cls-6{clip-path:url(#clip-path-2);}.cls-7{fill:url(#linear-gradient-2);}.cls-8{fill:url(#linear-gradient-3);}</style><clipPath id="clip-path"><polygon class="cls-1" points="0 60.63 23.11 3.38 32.79 7.48 32.82 7.58 36.11 15.75 27.32 37.3 12.34 30.07 20.09 55.06 17.82 60.63 0 60.63"/></clipPath><linearGradient id="linear-gradient" x1="67.98" y1="9.41" x2="18.98" y2="58.41" gradientTransform="matrix(1, 0, 0, -1, 0, 66)" gradientUnits="userSpaceOnUse"><stop offset="0" stop-color="#1294aa"/><stop offset="0.12" stop-color="#1595a8"/><stop offset="0.22" stop-color="#2098a1"/><stop offset="0.32" stop-color="#319e96"/><stop offset="0.41" stop-color="#4aa586"/><stop offset="0.49" stop-color="#6aaf72"/><stop offset="0.58" stop-color="#90bb59"/><stop offset="0.66" stop-color="#bcc93d"/></linearGradient><clipPath id="clip-path-2"><polygon class="cls-1" points="40.7 3.4 63.94 60.63 46.12 60.63 23.2 3.37 40.7 3.4"/></clipPath><linearGradient id="linear-gradient-2" x1="47.57" y1="28.05" x2="41.2" y2="34.42" xlink:href="#linear-gradient"/><linearGradient id="linear-gradient-3" x1="17.14" y1="16.03" x2="64.16" y2="43.18" gradientTransform="matrix(1, 0, 0, -1, 0, 66)" gradientUnits="userSpaceOnUse"><stop offset="0" stop-color="#cfd100"/><stop offset="0.21" stop-color="#a2be2a"/><stop offset="0.47" stop-color="#71aa59"/><stop offset="0.7" stop-color="#4d9b7a"/><stop offset="0.88" stop-color="#37928f"/><stop offset="1" stop-color="#2f8f96"/></linearGradient></defs><title>Advanced Coupons icon - Uncanny Automator</title><g id="Layer_1" data-name="Layer 1"><rect class="cls-1" width="64" height="64"/></g><g id="Layer_2" data-name="Layer 2"><polygon class="cls-2" points="0 60.63 23.11 3.38 32.79 7.48 32.82 7.58 36.11 15.75 27.32 37.3 12.34 30.07 20.09 55.06 17.82 60.63 0 60.63"/><g class="cls-3"><path class="cls-4" d="M30.56,34,23,4c-.86-3.4,21.06,9.13,21.06,9.13Z"/></g><polygon class="cls-5" points="40.7 3.4 63.94 60.63 46.12 60.63 23.2 3.37 40.7 3.4"/><g class="cls-6"><polygon class="cls-7" points="53.84 29.21 40.06 45.46 35.91 36.87 53.84 29.21"/></g><polygon class="cls-8" points="20.08 55.07 27.32 37.3 64 22.54 20.08 55.07"/></g></svg>