<?xml version="1.0" encoding="UTF-8"?><svg id="Layer_1" xmlns="http://www.w3.org/2000/svg" viewBox="0 0 64 64"><defs><style>.cls-1{fill:#4a5fe0;}.cls-2{fill:#fff;}</style></defs><path id="rect2" class="cls-1" d="M10,0h43.99C59.52,0,64,4.48,64,10v43.99c0,5.52-4.48,10-10,10H10C4.48,64,0,59.52,0,54V10C0,4.48,4.48,0,10,0Z"/><path id="path4" class="cls-2" d="M24.56,38.44l20.95-12.09c1.94-1.12,4.41-.45,5.53,1.48l2.02,3.51-17.44,10.07c-3.87,2.24-8.83.91-11.06-2.97h0Z"/><path id="path6" class="cls-2" d="M39.74,24.86l-20.95,12.09c-1.94,1.12-4.41.45-5.53-1.48l-2.02-3.51,17.44-10.07c3.87-2.24,8.83-.91,11.06,2.97h0Z"/></svg>