<?xml version="1.0" encoding="UTF-8"?><svg xmlns="http://www.w3.org/2000/svg" viewBox="0 0 64 64"><title>Notion icon - Uncanny Automator</title><g id="a"><rect width="64" height="64" style="fill:none; stroke-width:0px;"/></g><g id="b"><polygon points="5 5 44 2 60 12 60 59.74 13 61 5 5" style="fill:#fff; fill-rule:evenodd; stroke-width:0px;"/></g><g id="c"><path d="m11.89,11.22c1.99,1.62,2.74,1.49,6.48,1.24l35.24-2.12c.75,0,.13-.75-.12-.87l-5.85-4.23c-1.12-.87-2.62-1.87-5.48-1.62L8.03,6.12c-1.24.12-1.49.75-1,1.24l4.86,3.86Zm2.12,8.21v37.08c0,1.99,1,2.74,3.24,2.61l38.73-2.24c2.24-.12,2.49-1.49,2.49-3.11V16.94c0-1.62-.62-2.49-1.99-2.36l-40.47,2.36c-1.49.13-1.99.87-1.99,2.49h0Zm38.23,1.99c.25,1.12,0,2.24-1.12,2.37l-1.87.37v27.37c-1.62.87-3.11,1.37-4.36,1.37-1.99,0-2.49-.62-3.99-2.49l-12.21-19.16v18.54l3.86.87s0,2.24-3.12,2.24l-8.59.5c-.25-.5,0-1.74.87-1.99l2.24-.62v-24.51l-3.11-.25c-.25-1.12.37-2.74,2.12-2.86l9.22-.62,12.7,19.41v-17.17l-3.24-.37c-.25-1.37.75-2.37,1.99-2.49l8.6-.5ZM5.16,2.76L40.66.15c4.36-.37,5.48-.12,8.22,1.87l11.33,7.96c1.87,1.37,2.49,1.74,2.49,3.23v43.67c0,2.74-1,4.36-4.48,4.6l-41.22,2.49c-2.62.12-3.86-.25-5.23-1.99l-8.34-10.83c-1.49-1.99-2.12-3.48-2.12-5.23V7.11c0-2.24,1-4.11,3.86-4.35Z" style="fill-rule:evenodd; stroke-width:0px;"/></g></svg>