<?xml version="1.0" encoding="UTF-8"?><svg id="Layer_1" xmlns="http://www.w3.org/2000/svg" viewBox="0 0 64 64"><defs><style>.cls-1{fill:#1285ff;}.cls-1,.cls-2{stroke-width:0px;}.cls-2{fill:#fff;}</style></defs><title>Ontraport icon - Uncanny Automator</title><rect class="cls-1" width="64" height="64"/><g id="Layer_1-2"><path class="cls-2" d="M57,43.38v-12.39c0-6.63-3.3-10.37-9.41-10.37-3.71,0-6.51,1.48-8.14,3.96h-.09v-1.91h-3.13l.02,18.99c0,.18-.03,1.57,0,1.73h3.09c.03-.16.03-1.55.03-1.73v-9.62c0-5.25,2.94-8.56,7.55-8.56s6.92,2.63,6.92,7.64l-.02,12.27"/><path class="cls-2" d="M18.47,20.62c6.82,0,11.5,4.6,11.5,11.38s-4.69,11.38-11.5,11.38-11.47-4.64-11.47-11.38,4.69-11.38,11.47-11.38ZM18.47,40.56c4.96,0,8.33-3.45,8.33-8.56s-3.37-8.56-8.33-8.56-8.28,3.45-8.28,8.56,3.37,8.56,8.28,8.56Z"/></g></svg>