<?xml version="1.0" encoding="UTF-8"?><svg xmlns="http://www.w3.org/2000/svg" viewBox="0 0 64 64"><title>Thrive Ovation icon - Uncanny Automator</title><g id="a"><rect width="64" height="64" style="fill:none;"/></g><g id="b"><path d="m31.59,55.11c-9.45-9.44-19.09-18.63-28.19-28.33C-.5,22.61-.92,17.11,1.5,11.67,3.89,6.26,7.9,3.46,13.92,2.91c7.04-.65,11.88,2.66,16.01,7.65,1.48,1.78,2.47,1.76,4.08.04,2.94-3.12,5.79-6.25,10.43-7.32,8.15-1.88,16.48,1.8,18.81,9.73,1.7,5.81.6,11.54-4.21,16.08-4.78,4.52-9.2,9.44-14.13,13.79-2.35,2.08-5.73,2.86-8.12,5.13-2.14,2.03-3.82,4.35-5.2,7.1Zm.95-36.04c-2.21-2.09-3.99-3.93-5.92-5.57-3.4-2.89-6.26-6.49-11.69-5.99-4.08.38-7.17,1.68-8.93,5.31-2.16,4.45-1.44,8.7,1.76,11.91,6.44,6.47,12.91,12.92,19.38,19.37,4.63,4.62,4.57,4.52,9.52.16,6.89-6.07,13.14-12.8,19.74-19.17,2.16-2.08,3.25-4.93,3.11-7.51-.23-4.02-2.05-7.85-6.35-9.24-4.49-1.45-8.99-1.55-12.63,2.29-2.65,2.79-5.29,5.58-7.99,8.44Z" style="fill:#444;"/><path id="c" d="m62.1,42.16c-.54,0-.72.09-1.07.22-.4.13-.81.45-1.16.76l-.81.76c-.04.09-.09.09-.13.18-1.52,1.88-1.83,2.19-3.04,4.56-.58,1.12-1.21,2.15-1.92,3.18-.45.72-.9,1.43-1.43,2.1l-.09.09s-.04.04-.09.09c-.31.4-.76.76-1.12,1.12-.27.22-.58.45-.9.67-.27.13-.54.31-.76.49l-.45.22c-.09.04-.13.09-.22.13-.04.04-.13.09-.22.09-.09.04-.13.09-.22.09-1.66.81-3.85,1.34-5.73,1.57l-1.07.09c-.31.04-1.25.09-2.1.09-.72,0-1.39-.04-1.57-.09l.13-.31c.27-.63.58-1.25.94-1.83.04-.09.09-.18.13-.27l.72-1.16,1.75-2.42,1.57-1.61s.09-.09.09-.13q.09-.04.13-.09l.36-.31s.09-.04.13-.09c.09-.09.13-.13.22-.22l1.66-1.12c.54-.36,1.12-.72,1.7-1.03l1.79-.98c.67-.31,1.83-.94,2.46-1.16l1.88-.9c-.27.04-.63.18-.9.27-.27.09-.54.18-.85.27l-1.7.58c-.81.27-1.66.63-2.46.98l-1.57.72c-.58.22-1.48.72-2.1,1.03-.67.4-1.3.81-1.92,1.16l-2.19,1.57s-.09.09-.13.09l-1.25,1.07c-.36.4-.81.76-1.12,1.16q-.04.09-.13.13c-.31.31-.63.72-.9,1.07-.4.54-.76,1.12-1.12,1.75l-.58,1.07c-.22.45-1.16,2.69-1.25,3.31h-.04c0-.09-.27-1.12-.31-1.97v-.81c.09-.49.09-.81.13-1.39.27-1.66.98-3.31,1.92-4.7l.94-1.34c.27-.36,1.25-1.48,1.57-1.75.27-.22.58-.58.9-.81.13-.09.27-.22.4-.36.13-.09.27-.22.45-.31l.9-.67c.9-.63,1.88-1.25,2.86-1.75,1.07-.54,2.15-.98,3.27-1.39,1.43-.58,3.4-.98,4.88-1.3,1.57-.31,5.55-1.03,7.43-1.03h.4c1.07-.04,2.6,0,2.95.54h0Z" style="fill:#4f9543; fill-rule:evenodd;"/><path d="m15.32,13.31c-1.59,2.13-1.24,3.61-.09,4.87,1.16,1.27,1.26,2.44.09,3.74-1.05,1.16-2.47,1.25-3.6.63-1.27-.71-1.92-2.2-1.53-3.67.61-2.29,1.51-4.49,5.12-5.56Z" style="fill:#4f9543;"/><path d="m22.2,13.48c-1.59,2.13-1.24,3.61-.09,4.87,1.16,1.27,1.26,2.44.09,3.74-1.05,1.16-2.47,1.25-3.6.63-1.27-.71-1.92-2.2-1.53-3.67.61-2.29,1.51-4.49,5.12-5.56Z" style="fill:#4f9543;"/></g></svg>