<svg id="Layer_1" data-name="Layer 1" xmlns="http://www.w3.org/2000/svg" viewBox="0 0 64 64"><defs><style>.cls-1{fill:#17be7c;}.cls-2{fill:#fcfdfd;}</style></defs><title>Fluent Support icon - Uncanny Automator</title><rect class="cls-1" width="64" height="64" rx="7"/><path class="cls-2" d="M52.55,27.71a10.25,10.25,0,0,0-2.5-2.78,7.19,7.19,0,0,0-6.15-1.17c-3,.77-6,1.58-9,2.38-3.92,1.05-7.83,2.13-11.75,3.18-2.74.74-5.5,1.42-8.23,2.19a2.57,2.57,0,0,1-3.44-2.27,30.08,30.08,0,0,1,0-4.84c.19-1.79,1.21-2.7,3.09-3.19,3-.76,5.89-1.56,8.84-2.35s5.94-1.57,8.9-2.37L42,13.89c2-.55,4-1.16,6.08-1.61s3.68.13,4.39,2.31a2.29,2.29,0,0,1,.11.74c0,4,0,8.07,0,12.1A2.46,2.46,0,0,1,52.55,27.71Z"/><path class="cls-2" d="M11.47,45.41v-5.5c0-2.17.92-3.26,3-3.79,2.91-.73,5.79-1.55,8.68-2.32L33.58,31c3.16-.84,6.29-1.76,9.47-2.52,4-1,6.93,1.79,6.6,5.31a5,5,0,0,1-4.09,4.38C42,39.06,38.5,40.05,35,41c-3.94,1.06-7.89,2.09-11.83,3.16A20.58,20.58,0,0,0,17,46.36a15.66,15.66,0,0,0-5,5.09c-.11.18-.17.46-.43.4s-.18-.35-.18-.54C11.46,49.34,11.47,47.37,11.47,45.41Z"/></svg>