<svg xmlns="http://www.w3.org/2000/svg" viewBox="0 0 64 64.05"><defs><style>.a{fill:none;}.b{fill:#1551ae;}.b,.c,.d,.e,.f{fill-rule:evenodd;}.c{fill:#e5e5e5;}.d{fill:#ff1f59;}.e{fill:#bbb;}.f{fill:#1059ca;}</style></defs><title>MasterStudy LMS icon - Uncanny Automator</title><rect class="a" width="64" height="64"/><path class="b" d="M1.16,25.39V54.67A7.3,7.3,0,0,0,8.42,62H55.58a7.3,7.3,0,0,0,7.26-7.32h0V25.39Z"/><path class="c" d="M1.78,21.59V50.74A7.23,7.23,0,0,0,8.92,58H55.34a7.23,7.23,0,0,0,7.14-7.29V32.52h0V21.59Z"/><polygon class="d" points="42.54 51.92 42.54 64.05 47.42 61.91 52.3 64.05 52.3 51.92 42.54 51.92"/><path class="e" d="M1.34,17.57V46.72A7.27,7.27,0,0,0,8.56,54H55.44a7.27,7.27,0,0,0,7.22-7.29V28.5h0V17.57Z"/><path class="c" d="M1.34,15.1V44.25a7.27,7.27,0,0,0,7.22,7.29H55.44a7.27,7.27,0,0,0,7.22-7.29V26h0V15.1Z"/><path class="b" d="M8.43.05c-4,0-7.26,4-7.26,8.06V53.92c0,4,4,8.07,8,8.07h3.4V58.34H10.24C6,58.34,4,55.89,4,52.88s2.15-5.61,6.38-5.61H55.9c4,0,6.94-3.71,6.94-7.74V21.91h0V7.33A7.27,7.27,0,0,0,55.58.05H8.43Z"/><path class="f" d="M9.64.05V47.27h46.1A7.18,7.18,0,0,0,62.84,40V21.84h0V7.31A7.18,7.18,0,0,0,55.74.05Z"/><path class="c" d="M44.74,35.79H39.09c.1,0-5,2.7-5,2.75s-4.89-2.75-5-2.75H23.35a2.52,2.52,0,0,1-2.62-2.38V11.11H47.36v22.3a2.52,2.52,0,0,1-2.62,2.38Zm-1.58-8.43a2.52,2.52,0,0,0-.9-.72A8.47,8.47,0,0,0,41,26.19c-.44-.13-.89-.24-1.33-.35s-.85-.22-1.22-.34a2.74,2.74,0,0,1-.9-.5,1,1,0,0,1-.35-.76,1.19,1.19,0,0,1,.56-1,2.5,2.5,0,0,1,1.48-.39,2.89,2.89,0,0,1,1.87.52,1.42,1.42,0,0,1,.64,1.05v.35a.14.14,0,0,0,.12.15h.92A.14.14,0,0,0,43,24.8s0,0,0,0V22a.13.13,0,0,0-.12-.15h-.82a.13.13,0,0,0-.17.11.06.06,0,0,0,0,0l0,.78a3.48,3.48,0,0,0-2.75-1,3.74,3.74,0,0,0-2.36.69A2.1,2.1,0,0,0,35.93,24H34.85V16.83h1.07a.14.14,0,0,0,.16-.11.06.06,0,0,0,0,0V16a.14.14,0,0,0-.13-.15H33.8a.67.67,0,0,0-.67.42l-2.07,4.55c-.17.39-.38.91-.64,1.56h-.06l-.65-1.58-2.06-4.53a.65.65,0,0,0-.66-.42H24.86a.15.15,0,0,0-.18.11v.68a.15.15,0,0,0,.14.15h1.09V24H24.86a.15.15,0,0,0-.18.11v.68a.15.15,0,0,0,.14.16h3.23a.13.13,0,0,0,.17-.11s0,0,0,0v-.64a.15.15,0,0,0-.14-.15h-1V17.71h0l2.63,5.93a.69.69,0,0,0,.92.3.72.72,0,0,0,.3-.3l2.63-5.93h0V24h-.93a.15.15,0,0,0-.17.12v.67a.15.15,0,0,0,.13.16H36a1.59,1.59,0,0,0,.24.49,2.36,2.36,0,0,0,.88.75,7.65,7.65,0,0,0,1.2.47c.44.13.88.24,1.32.34s.83.21,1.19.33a2.49,2.49,0,0,1,.88.47.89.89,0,0,1,.34.71,1.25,1.25,0,0,1-.6,1.12,3,3,0,0,1-1.67.4,3.85,3.85,0,0,1-1.16-.18,3.09,3.09,0,0,1-.85-.43,4.91,4.91,0,0,1-.64-.65,1.17,1.17,0,0,1-.31-.64v-.26a.15.15,0,0,0-.13-.16h-.91a.15.15,0,0,0-.18.12s0,0,0,0v2.94a.14.14,0,0,0,.14.15h.81a.16.16,0,0,0,.17-.11v0l0-1.23a3.65,3.65,0,0,0,1.21,1A4.19,4.19,0,0,0,40,31a4,4,0,0,0,2.6-.72,2.26,2.26,0,0,0,.88-1.82,1.79,1.79,0,0,0-.35-1.09Z"/></svg>