<?xml version="1.0" encoding="UTF-8"?><svg id="a" xmlns="http://www.w3.org/2000/svg" xmlns:xlink="http://www.w3.org/1999/xlink" viewBox="0 0 64 64"><defs><clipPath id="b"><circle cx="32" cy="32" r="32" style="fill:none;"/></clipPath><clipPath id="c"><circle cx="32" cy="32" r="32" style="fill:none;"/></clipPath><clipPath id="d"><circle cx="32" cy="32" r="32" style="fill:none;"/></clipPath><clipPath id="e"><circle cx="32" cy="32" r="32" style="fill:none;"/></clipPath><clipPath id="f"><circle cx="32" cy="32" r="32" style="fill:none;"/></clipPath><clipPath id="g"><circle cx="32" cy="32" r="32" style="fill:none;"/></clipPath><clipPath id="h"><circle cx="32" cy="32" r="32" style="fill:none;"/></clipPath><clipPath id="i"><circle cx="32" cy="32" r="32" style="fill:none;"/></clipPath><clipPath id="j"><circle cx="32" cy="32" r="32" style="fill:none;"/></clipPath></defs><title>Wholesale Suite icon - Uncanny Automator</title><path d="M32,0c17.67,0,32,14.32,32,32s-14.32,32-32,32S0,49.67,0,32,14.32,0,32,0Z" style="fill:#46bf93; fill-rule:evenodd;"/><path d="M34.2,63.92c16.65-1.13,29.8-14.99,29.8-31.92,0-5.25-1.27-10.2-3.52-14.58l-11.88-6.86-2.59,7.57-.95,22.2L10.67,50.33l23.53,13.59Z" style="fill:#23996e; fill-rule:evenodd;"/><g style="clip-path:url(#b);"><path d="M38.8,11.16l8.74-.12s2.01,.71,1.89,2.01,.12,4.96,.12,4.96h-4.49l.24,19.01s-.71,5.32-2.13,6.97-3.78,2.24-3.78,2.24h-5.79s0,2.48-1.77,2.72-21.02,.47-21.02,.47c0,0,2.36-1.42,2.48-4.02s-.12-4.14-.12-4.14c0,0-.12-2.48,1.65-2.36s9.69,.24,9.69,.24l-.24-19.97,.24-5.2s.35-2.36,2.01-2.48c1.65-.12,4.14-.59,4.14-.59l8.15,.25Z" style="fill:#46bf93; fill-rule:evenodd;"/></g><g style="clip-path:url(#c);"><path d="M34.56,45.25h2.17c-.36-.83-.35-1.82-.34-2.82v-.65c-.01-.7-.04-1.76-.9-1.75-.42,0-.66,.26-.78,.67-.07,.34-.1,.76-.1,1.16,0,1.17-.01,2.15-.04,3.02v.36Zm11.73-28.39h2v-3.94c0-.23-.1-.43-.24-.59-.16-.16-.36-.24-.59-.24h-.32c-.23,0-.43,.1-.59,.24-.16,.16-.24,.36-.24,.59v3.94h-.01Zm2.95,1.89h-2.95v15.8c-.13,3.51-.61,6.78-1.65,9.05-.99,2.18-2.47,3.53-4.59,3.53h-.34c-1.46,.02-3.15,.01-4.72,.01h-.64c-.06,.37-.14,.7-.24,.97-.54,1.59-1.49,2.08-3.25,2.08H10.28v-1.89s0,0,0,0h.1c1.71-.08,1.9-1.52,1.85-4.13-.01-.48-.02-1.05-.05-1.65l-.04-.99c-.04-1.1,.14-1.89,.63-2.48,.52-.64,1.28-.91,2.35-.91,4.99,0,2.31,0,8.5,.01V16.76c0-6.56,1.83-6.56,6.43-6.56h16.7c.13-.02,.26-.02,.4-.02h.32c.76,0,1.43,.31,1.94,.81,.49,.49,.81,1.18,.81,1.94v5.84h-.95Zm-4.85-.01v-5.84c0-.28,.05-.55,.12-.81h-14.48c-3.24,0-4.53,0-4.53,4.67v21.37h8.7c.3,0,.64,0,.94,.06,.19-.02,.4-.04,.61-.02,.83,.02,1.48,.47,1.93,1.2,.37,.63,.58,1.47,.59,2.38v.69c-.01,1.2-.02,2.37,1.17,2.74,.02,.01,.16,.01,.29,.02h.18s.14,.01,.14,.01c1.25,0,2.18-.91,2.85-2.41,.93-2.03,1.36-5.03,1.49-8.3v-15.78h-.01Zm-20,21.3c-.7,0,1.53,0-9.29,0-.48,0-.76,.07-.88,.22-.16,.19-.22,.6-.2,1.23l.04,.97c.02,.59,.04,1.13,.05,1.68,.04,1.76-.04,3.15-.43,4.15H30.9c.82,0,1.25-.19,1.46-.79,.19-.58,.29-1.46,.34-2.7v-3.3c.01-.48,.07-.99,.23-1.47h-8.52Z" style="fill:#fff;"/></g><g style="clip-path:url(#d);"><path d="M28.05,16.58h6.32v1.48h-6.32v-1.48Z" style="fill:#fff; fill-rule:evenodd;"/></g><g style="clip-path:url(#e);"><path d="M28.05,19.65h14.12v1.48h-14.12v-1.48Z" style="fill:#fff; fill-rule:evenodd;"/></g><g style="clip-path:url(#f);"><path d="M28.05,22.61h11.88v1.48h-11.88v-1.48Z" style="fill:#fff; fill-rule:evenodd;"/></g><g style="clip-path:url(#g);"><path d="M28.05,25.56h13.18v1.48h-13.18v-1.48Z" style="fill:#fff; fill-rule:evenodd;"/></g><g style="clip-path:url(#h);"><path d="M28.05,28.52h7.68v1.47h-7.68v-1.47Z" style="fill:#fff; fill-rule:evenodd;"/></g><g style="clip-path:url(#i);"><path d="M28.05,31.47h13.65v1.48h-13.65v-1.48Z" style="fill:#fff; fill-rule:evenodd;"/></g><g style="clip-path:url(#j);"><path d="M28.05,34.42h11.11v1.48h-11.11v-1.48Z" style="fill:#fff; fill-rule:evenodd;"/></g></svg>