<?xml version="1.0" encoding="utf-8"?><svg id="Layer_1" data-name="Layer 1" xmlns="http://www.w3.org/2000/svg" viewBox="0 0 64 57.9"><defs><style>.cls-1{fill:#7cb342;}.cls-2{fill:#689f38;}.cls-3{fill:#fff;}.cls-4{fill:#0091ea;}.cls-5{fill:#558b2f;}.cls-6{fill:#cfd8dc;}.cls-7{fill:#90a4ae;}.cls-8{fill:#fff9c4;}.cls-9{fill:#263238;}.cls-10{fill:#8bc34a;}.cls-11{fill:#1b5e20;}.cls-12{fill:#9e9d24;}</style></defs><title>OptinMonster icon - Uncanny Automator</title><path class="cls-1" d="M29.41,8.69c-7.47,0-11.28,1.21-11.28,1.21a37.65,37.65,0,0,1,6.71,2C14.48,13.26,9.45,19.81,9.45,19.81s3.81-.76,5.18-.46a14.15,14.15,0,0,0-5.33,5A24,24,0,0,1,13.1,23c-2,3.5-2.43,9.14-2.43,9.14s-.46,6,.15,7.32c1.22.3,4.88-3.81,6.4-4H48.3s3.51,6,5.19,5.34c.91-1.37.15-8.84.15-8.84S54.4,8.69,29.41,8.69Z" transform="translate(0 -3.05)"/><path class="cls-2" d="M27.28,7.47A7.25,7.25,0,0,1,34,3.05c7.62,0,7.77,7.31,7.77,7.31S38.4,5.94,32.91,5.94A10.61,10.61,0,0,0,27.28,7.47ZM32,32A10.67,10.67,0,1,0,21.33,21.33,10.6,10.6,0,0,0,32,32Z" transform="translate(0 -3.05)"/><circle class="cls-3" cx="32" cy="16.76" r="9.14"/><path class="cls-4" d="M32,16.76a7.31,7.31,0,0,0-1.83.31A3,3,0,0,1,32,19.81,3.06,3.06,0,0,1,29,22.86,3,3,0,0,1,26.21,21a7.79,7.79,0,0,0-.31,1.83,6.1,6.1,0,1,0,6.1-6.1Z" transform="translate(0 -3.05)"/><path class="cls-5" d="M47.24,30.48H16.76A1.52,1.52,0,0,0,15.24,32v3c7-1.37,20.57-1.07,33.52,0V32A1.44,1.44,0,0,0,47.24,30.48ZM22.4,36.11c0,.61-.15,2-.15,2.14s-.15.76-.61.76-3.35-.91-3.35-5a12.46,12.46,0,0,1,.15-1.68l3.66-.15h.76C22.7,32.15,22.55,35.5,22.4,36.11Zm8.84,1.38c0,.76.3,1.21-3.35,1.21-3.81,0-3.81-.15-3.81-3a10.51,10.51,0,0,1,.3-3.51h6.71c0,.46.15,2,.15,3.66Zm8.23-1.38c0,.46-.16,1.07-1.22,1.07-1.37,0-1.07.15-2,.15s-3.2,0-3.36-1.22-.3-3.65-.3-4.11h6.7c0,.3.16,1.37.16,2.44Zm3,3c-.76,0-.76-2.89-.91-4.26a17.69,17.69,0,0,0-.46-2.9h2.29a21.09,21.09,0,0,1,2.13.15C45.56,33.52,44.8,39.16,42.51,39.16Z" transform="translate(0 -3.05)"/><polygon class="cls-3" points="32 30.48 10.06 32 10.06 53.33 32 54.09 32 30.48"/><polygon class="cls-6" points="32 30.48 54.09 32 54.09 53.33 32 54.09 32 30.48"/><path class="cls-7" d="M9.3,42.82H11V51.2l-1.67-4Zm44,0v9.6L55,47.24V42.82Zm-9,2.13a42,42,0,0,1-5.94,3.81c2.29.76,11.43,4,14.93,6.55.16,2-1.06,2.14-1.06,2.14s-14.17.45-20.42.45S12,57.45,12,57.45l-.76-2.14a83.87,83.87,0,0,1,14.17-6.7A32.69,32.69,0,0,1,19.81,45c-2.29-2-6.71-6.25-6.71-6.25L13,36.11a102.28,102.28,0,0,0,7.77,7.47c3.81,3.2,10.52,5.94,11.13,6.1A35.76,35.76,0,0,0,45,42.36c2.44-2.13,6.71-6.25,6.71-6.25l.76,1.53C52.27,37.64,47.85,42.21,44.34,45Zm-7.62,4.57a29.62,29.62,0,0,1-5,2,20.57,20.57,0,0,1-4.42-1.82c-1.68.61-9.15,3.5-13,6.09,0,0,10.06.46,17.83.46s18-.31,18-.31-4.26-2.59-6.4-3.5A51.65,51.65,0,0,0,36.72,49.52ZM53.49,34s-7.47-.46-7.78-.46.77,1.53.77,1.53,2.74.3,4,.3C53.33,35.35,53.49,34,53.49,34Zm-36,1.07-.61-1.53-7.46.61,4,1.37Z" transform="translate(0 -3.05)"/><path class="cls-8" d="M61,23.92c0,4.12-.76,7.78-7.46,7.93A28.17,28.17,0,0,0,51.2,21.18a5.16,5.16,0,0,0,1.52,0C54.4,21,55,21,55.16,19.35c.15-1.83.46-2.74,2-2.74C58.82,16.76,61,20.42,61,23.92ZM13.1,23c-1.06.3-3.8,1.37-3.8,1.37a15.62,15.62,0,0,1,2.43-3.05h-.45C9.6,21.18,9,21.18,8.84,19.5s-.46-2.74-2-2.74S3.2,20.42,3.2,23.92C3.2,28,4,31.7,10.67,32,10.82,30.78,11.28,26.06,13.1,23Zm3.81,9a12.34,12.34,0,0,0,.31,3.66c.76,3.35,3.5,4.72,4.57,4.72,1.22,0,1.37-1.07,1.37-1.83.76,1.22,2.9,1.37,4.27,1.37,5.33,0,5.18-1.22,5.33-1.82a8.06,8.06,0,0,0,3.2.45c4.57,0,4.73-1.06,4.73-1.06s.45,3,1.82,3c2.9,0,4.12-4.87,4.12-4.87L47.24,32Z" transform="translate(0 -3.05)"/><path class="cls-9" d="M32,19.81A3.06,3.06,0,0,1,29,22.86,3.05,3.05,0,1,0,32,19.81Z" transform="translate(0 -3.05)"/><path class="cls-10" d="M.3,51.81A5.53,5.53,0,0,0,0,53.33C0,56.23,4.27,61,8.69,61c.61,0,5-.76,5-5.18,0-5.33-3.2-10.06-5.18-10.06C8.23,45.71,3.05,45.71.3,51.81Zm55.17-6.1c-2,0-5.18,4.88-5.18,10.06,0,4.42,4.41,5.18,5,5.18C59.73,61,64,56.23,64,53.33a6.85,6.85,0,0,0-.3-1.52C61.1,45.71,55.92,45.71,55.47,45.71ZM5.18,34S1.37,35.05,1.37,38.4c0,4,4.12,5.79,6.4,5.79S10.51,43,10.51,43s3.2-4.57,1.07-8.38a2.87,2.87,0,0,0-2.89-1.37A18.11,18.11,0,0,0,5.18,34ZM55,33.37a3,3,0,0,0-2.9,1.37c-2.13,3.81,1.07,8.38,1.07,8.38a3.19,3.19,0,0,0,2.74,1.22c2.29,0,6.4-1.83,6.4-5.79,0-3.35-3.81-4.42-3.81-4.42A9.56,9.56,0,0,0,55,33.37Z" transform="translate(0 -3.05)"/><path class="cls-2" d="M2,55.47c0-2.9,3.51-6.1,6.4-6.1,2.74,0,4.27,5.49,4.27,6.86,0,2.44-2.44,3.81-4.27,3.81C5.94,60,2,56.69,2,55.47ZM55.77,60c-1.67,0-4.27-1.37-4.27-3.81,0-1.22,1.53-6.86,4.27-6.86,2.9,0,6.4,3.2,6.4,6.1C62.17,56.69,58.21,60,55.77,60Z" transform="translate(0 -3.05)"/><path class="cls-11" d="M5.64,45c-.76.31-.61,1.68-.31,2.59a1.09,1.09,0,0,0,1.37.76l.77-.15a1,1,0,0,0,.61-1.37C7.31,45.71,6.4,44.65,5.64,45ZM1.83,47.39c-.61.46,0,1.52.46,2.29a.88.88,0,0,0,1.37.3l.61-.46a.79.79,0,0,0,0-1.37C3.5,47.7,2.44,46.93,1.83,47.39ZM.15,50.9c-.3.45.15,1.21.76,1.67a.73.73,0,0,0,1.07,0l.31-.46a.64.64,0,0,0-.16-1.06C1.52,50.74.46,50.44.15,50.9Zm55.93-4.27A.88.88,0,0,0,56.69,48l.76.15a1.09,1.09,0,0,0,1.37-.76c.3-.91.46-2.29-.31-2.59C57.75,44.65,56.69,45.71,56.08,46.63Zm3.65,1.52a.86.86,0,0,0,0,1.37l.61.46a1.13,1.13,0,0,0,1.37-.15c.46-.76,1.07-1.83.46-2.29S60.65,47.7,59.73,48.15Zm2.14,2.9a.64.64,0,0,0-.16,1.06l.31.46a.73.73,0,0,0,1.07,0c.45-.46,1.06-1.22.76-1.67S62.63,50.74,61.87,51.05ZM12,43.28c-.31.45-1.22.3-1.83.15h0l.46-.46a7.92,7.92,0,0,0,.61-1.22C11.73,42.36,12.34,42.82,12,43.28Zm-6.1-9.45.31-.61c.61-.92,1.52-2,2.28-1.68s.61.92.61,1.83H9A8.44,8.44,0,0,0,5.94,33.83Zm8.38,6.4C14.17,41,13,41,12,40.84c-.15,0-.15,0-.31-.15a11.17,11.17,0,0,0,.61-2.44h.16C13.41,38.86,14.48,39.62,14.32,40.23Zm40.54-6.86a1.8,1.8,0,0,1,.45-1.83c.77-.3,1.68.76,2.29,1.68.15.15.15.3.3.61a10.56,10.56,0,0,0-3-.46ZM14.78,35.66c.15.76-1.22,1.22-2.13,1.52h-.31a7.87,7.87,0,0,0-.61-2.59v-.15c.16-.15.46-.31.61-.15C13.41,34.59,14.78,34.9,14.78,35.66Zm37,5.33c-.91.15-2.13,0-2.29-.61-.15-.76.92-1.37,1.83-1.83h.15A10,10,0,0,0,52.11,41Zm1.83,2.44h0c-.76.15-1.68.46-1.83-.15s.3-1.07.76-1.53A7.92,7.92,0,0,0,53.18,43,1.1,1.1,0,0,0,53.64,43.43ZM51.2,37.18c-.91-.3-2.29-.76-2.13-1.52s1.52-1.22,2.59-1.37c.3,0,.45,0,.61.15v.15a5,5,0,0,0-.61,2.59Z" transform="translate(0 -3.05)"/><path class="cls-12" d="M8.84,30.32S5.64,29.87,5,28c.15-2.9,1.22-5.34,3.5-6.1a1.92,1.92,0,0,0,1.68.61,5.46,5.46,0,0,0-.76,1.68,26.32,26.32,0,0,1,2.28-2.9h-.45C9.6,21.18,9,21.18,8.84,19.5s-.46-2.74-2-2.74S3.2,20.42,3.2,23.92C3.2,28,4,31.7,10.67,32a5.34,5.34,0,0,1,.15-1.37L9.6,30.48a13.14,13.14,0,0,1-.3-3.2,6.28,6.28,0,0,1,1.06-3.36,2.61,2.61,0,0,1-1.06.46,9.85,9.85,0,0,0-.61,3.2C8.69,30.32,8.84,30.32,8.84,30.32ZM4.42,25.6c-.15-5.94,2.13-7,2.74-7s.46,1.07.61,1.52a3,3,0,0,0,.31.92A8.2,8.2,0,0,0,4.42,25.6Z" transform="translate(0 -3.05)"/><path class="cls-12" d="M57.3,16.76c-1.53,0-1.83,1.07-2,2.74-.15,1.83-.76,1.68-2.43,1.83H51.35c.15.46.46.92.61,1.37H53a8.74,8.74,0,0,1,1.83,4.58,11.35,11.35,0,0,1-.31,3.2H53.49v1.37c6.7-.31,7.46-4,7.46-7.93C61,20.42,58.82,16.76,57.3,16.76ZM55.47,30.32s.15,0,.15-2.74a10.18,10.18,0,0,0-1.52-5,3.61,3.61,0,0,0,1.67-.61c2.29.76,3.2,3.2,3.51,6.1C58.36,29.87,55.47,30.32,55.47,30.32Zm.61-9.44c.15.15.3-.46.3-.92,0-.3,0-1.52.61-1.52s2.74,1.06,2.74,7C59.28,24.69,58.82,22.25,56.08,20.88Z" transform="translate(0 -3.05)"/><path class="cls-12" d="M42.67,38.7c-.77,0-.77-3-.92-4.26-.15-.92-.3-1.83-.45-2.44H39.62c0,.46.15,1.22.15,2v1.83c0,.61-.15,1.07-1.22,1.07-1.37,0-1.06.15-2,.15s-3.2,0-3.35-1.22-.31-3.05-.31-3.81H31.24c0,.61.15,2,.15,3.35a6.37,6.37,0,0,1-.15,1.83c-.15.76.3,1.22-3.35,1.22-3.81,0-3.81-.15-3.81-3a10.18,10.18,0,0,1,.3-3.35H22.86c0,.61-.31,3.35-.31,4s-.15,2-.15,2.14-.15.76-.61.76-3.35-.92-3.35-5A7.54,7.54,0,0,1,18.59,32H16.91a12.34,12.34,0,0,0,.31,3.66,5.65,5.65,0,0,0,4.57,4.72c1.07,0,1.22-1.22,1.37-1.83.76,1.22,2.9,1.37,4.27,1.37,5.33,0,5.18-1.22,5.33-1.82a8.06,8.06,0,0,0,3.2.45c4.57,0,4.73-1.06,4.73-1.06s.45,3,1.82,3c2.9,0,4.12-4.87,4.12-4.87L47.24,32H45.56C45.56,33.68,44.8,39.16,42.67,38.7Z" transform="translate(0 -3.05)"/><path class="cls-12" d="M12.8,23.62c0-.15.15-.31.3-.61H13Z" transform="translate(0 -3.05)"/><path class="cls-12" d="M9.3,24.38h0l.15-.15A.15.15,0,0,0,9.3,24.38Z" transform="translate(0 -3.05)"/></svg>