<?xml version="1.0" encoding="UTF-8"?><svg xmlns="http://www.w3.org/2000/svg" viewBox="0 0 64 64"><defs><style>.cls-1{fill:none;}.cls-2{fill:#873eff;fill-rule:evenodd;}</style></defs><title>Woo icon - Uncanny Automator</title><g id="Layer_2"><rect class="cls-1" width="64" height="64"/></g><g id="Layer_1"><path class="cls-2" d="M26.98,23.72c-1.5,0-2.47.49-3.35,2.13l-3.97,7.49v-6.66c0-1.99-.94-2.96-2.68-2.96s-2.47.59-3.35,2.27l-3.76,7.36v-6.59c0-2.13-.87-3.03-3-3.03H2.54c-1.64,0-2.54.77-2.54,2.16s.87,2.23,2.47,2.23h1.78v8.4c0,2.37,1.6,3.76,3.9,3.76s3.35-.91,4.5-3.03l2.51-4.71v3.97c0,2.34,1.53,3.76,3.87,3.76s3.21-.8,4.53-3.03l5.79-9.76c1.25-2.13.38-3.76-2.41-3.76h.03Z"/><path class="cls-2" d="M37.86,23.72c-4.74,0-8.33,3.52-8.33,8.3s3.63,8.26,8.33,8.26,8.3-3.52,8.33-8.26c0-4.78-3.63-8.3-8.33-8.3ZM37.86,35.19c-1.78,0-3-1.32-3-3.17s1.22-3.21,3-3.21,3,1.36,3,3.21-1.19,3.17-3,3.17Z"/><path class="cls-2" d="M55.67,23.72c-4.71,0-8.33,3.52-8.33,8.3s3.63,8.26,8.33,8.26,8.33-3.52,8.33-8.26-3.63-8.3-8.33-8.3ZM55.67,35.19c-1.81,0-2.96-1.32-2.96-3.17s1.19-3.21,2.96-3.21,3,1.36,3,3.21-1.19,3.17-3,3.17Z"/></g></svg>