<?xml version="1.0" encoding="UTF-8"?><svg xmlns="http://www.w3.org/2000/svg" viewBox="0 0 64 64"><defs><style>.cls-1{fill:#b999ff;}.cls-2{fill:#3c087e;}.cls-3{fill:#873eff;}.cls-4{fill:#f2edff;}</style></defs><g id="Layer_1"><rect class="cls-2" width="64" height="64" rx="3" ry="3"/></g><g id="Layer_2"><path class="cls-3" d="M16.16,14.52h31.69c1.66,0,3,1.34,3,3v4.89H13.16v-4.89c0-1.66,1.34-3,3-3Z"/><path class="cls-4" d="M13.16,22.41h37.69v24.07c0,1.66-1.34,3-3,3h-31.69c-1.66,0-3-1.34-3-3v-24.07h0Z"/><rect class="cls-2" x="18.09" y="27.97" width="6" height="6"/><rect class="cls-1" x="29.05" y="27.97" width="6" height="6"/><rect class="cls-1" x="39.95" y="27.97" width="6" height="6"/><rect class="cls-1" x="29.05" y="38.3" width="6" height="6"/><rect class="cls-1" x="39.95" y="38.3" width="6" height="6"/><rect class="cls-1" x="18.14" y="38.3" width="6" height="6"/></g></svg>
