<?xml version="1.0" encoding="UTF-8"?><svg id="a" xmlns="http://www.w3.org/2000/svg" viewBox="0 0 64 64"><title>Heroic Knowledge Base icon - Uncanny Automator</title><rect width="64" height="64" rx="13" ry="13" style="fill:#2358a1; stroke-width:0px;"/><path d="m32.01,21.02c-3.41,0-6.81,0-10.22,0-.83,0-1.76-.09-1.8-1.09-.04-1.11.99-1.06,1.76-1.06,7.04-.02,14.08-.02,21.12,0,.84,0,2.07-.21,1.94,1.18-.09.99-1.07.98-1.89.98-3.63,0-7.27,0-10.9,0Z" style="fill:#fff; stroke-width:0px;"/><path d="m32.47,13.37c3.75,0,7.5-.03,11.24.02.94.01,2.43-.37,2.45,1.04.02,1.41-1.44,1.1-2.4,1.1-7.27.02-14.54,0-21.81.02-3.74.01-5.7,1.51-5.75,4.28-.05,2.74,2,4.41,5.67,4.43,7.16.05,14.31.07,21.47-.02,2.02-.03,3.09.55,3.6,2.6.75,3.06,1.77,6.06,2.77,9.05.74,2.2-.05,3.46-2.29,3.29-2.52-.19-2.69,1.05-2.7,3.02-.04,8.39-.09,8.39-8.45,8.39-4.54,0-9.09.07-13.63-.02-5.58-.1-8.59-3.13-8.63-8.69-.06-7.01-.05-14.01,0-21.02.03-5.05,2.43-7.43,7.54-7.5,3.63-.05,7.27-.01,10.9-.01Z" style="fill:#fff; stroke-width:0px;"/></svg>