<?xml version="1.0" encoding="UTF-8"?><svg xmlns="http://www.w3.org/2000/svg" viewBox="0 0 64 64"><title>SureMembers icon - Uncanny Automator</title><g id="a"><rect width="64" height="64" style="fill:none; stroke-width:0px;"/><circle cx="32" cy="32" r="26" style="fill:#fff; stroke-width:0px;"/></g><g id="b"><path d="m32,63.9c17.67,0,32-14.28,32-31.9S49.67.1,32,.1,0,14.38,0,32s14.33,31.9,32,31.9Zm.14-47.84c-2.57,0-6.13,1.46-7.94,3.27l-4.93,4.91h24.6l8.22-8.18h-19.94Zm7.63,28.62c-1.82,1.81-5.37,3.27-7.94,3.27H11.88l8.22-8.18h24.6l-4.93,4.91Zm7.99-16.36H15.16l-1.54,1.53c-3.65,3.27-2.56,5.83,2.54,5.83h32.69l1.54-1.53c3.61-3.25,2.48-5.83-2.63-5.83Z" style="fill:#4338ca; fill-rule:evenodd; stroke-width:0px;"/></g></svg>