<svg xmlns="http://www.w3.org/2000/svg" viewBox="0 0 64 64"><defs><style>.a{isolation:isolate;}.b{fill:#e2e1e1;}.c{fill:#ffe3b2;}.d{fill:#d8bb90;}.e{fill:#ffb599;}.f{fill:#fff;}.g{fill:#f1eeed;}.h{fill:#393434;}.i{mix-blend-mode:multiply;}.j{fill:#d9d5cc;}</style></defs><title>Automator Core icon - Uncanny Automator</title><g class="a"><path class="b" d="M32.78,56.24h-.3a1.83,1.83,0,0,1-1.82-1.82V36.89a1.82,1.82,0,0,1,1.82-1.82h.3a1.83,1.83,0,0,1,1.83,1.82V54.42A1.85,1.85,0,0,1,32.78,56.24Z" transform="translate(0)"/><path d="M32.78,55.2c-1.29,0-1.1-1-1.1-2V38.76a6.32,6.32,0,0,1,.06-2.17c.42-.9,1.69-.49,1.85.32a3.47,3.47,0,0,1,0,.72V52.41c0,.76.32,2.7-.81,2.79-1.31.12-1.33,2.2,0,2.08,2-.16,2.86-1.66,2.86-3.51V37.6c0-1.75-.71-3.43-2.72-3.57a3,3,0,0,0-3.32,3.2c-.05,3.6,0,7.2,0,10.82v5.63c0,2,.95,3.6,3.18,3.6A1,1,0,0,0,32.78,55.2Z" transform="translate(0)"/><path class="c" d="M17.48,48.79H47.72a5.68,5.68,0,0,1,5.68,5.68V64a0,0,0,0,1,0,0H11.79a0,0,0,0,1,0,0V54.47a5.68,5.68,0,0,1,5.68-5.68Z"/><path class="d" d="M39.77,48.79s4.14.78,5.94,3.46a8,8,0,0,1,1.58,4.89V64h6.12l.37-10.4-2.11-3.31-2.77-2Z" transform="translate(0)"/><path d="M30.22,46.74c-3.37,0-6.73,0-10.08,0A10.3,10.3,0,0,0,9.83,57c0,1.89,0,3.8,0,5.7,0,.44,0,.89,0,1.34h2.06V60.49a31.28,31.28,0,0,1,.1-4.94,8.17,8.17,0,0,1,5.62-6.44,12.33,12.33,0,0,1,3.63-.34h22.6A14.79,14.79,0,0,1,47,49a8.21,8.21,0,0,1,6.09,6,22,22,0,0,1,.23,5.19V64h2.1V58.18A12.26,12.26,0,0,0,54,51.68a10.24,10.24,0,0,0-7.75-4.9c-1-.09-2,0-3,0Z" transform="translate(0)"/><path class="e" d="M33.18,55.81H32.07a6.63,6.63,0,0,0-6.6,6.6V63h14.3v-.55A6.62,6.62,0,0,0,33.18,55.81Z" transform="translate(0)"/><path d="M33.18,54.77a8.69,8.69,0,0,0-6.07,1.85A7.94,7.94,0,0,0,24.43,63a1.07,1.07,0,0,0,1,1h14.3a1.06,1.06,0,0,0,1-1c0-4.43-3.07-8.07-7.63-8.19a1,1,0,0,0,0,2.08c3.43.09,5.55,2.84,5.55,6.11l1-1H25.47l1,1a6,6,0,0,1,2.07-4.89,6.75,6.75,0,0,1,4.6-1.22A1,1,0,0,0,33.18,54.77Z" transform="translate(0)"/><path d="M33.47,62.72c.05-1.06.12-2.12.17-3.2.07-1.34-2-1.34-2.08,0,0,1.06-.11,2.12-.16,3.2-.07,1.34,2,1.34,2.07,0Z" transform="translate(0)"/><circle class="f" cx="7.69" cy="55.32" r="3.07"/><path d="M9.72,55.32c-.14,2.58-4.06,2.63-4.06,0s3.92-2.58,4.06,0c.06,1.34,2.14,1.34,2.07,0a4.19,4.19,0,0,0-4.1-4.11,4.11,4.11,0,1,0,0,8.22,4.17,4.17,0,0,0,4.1-4.11C11.86,54,9.78,54,9.72,55.32Z" transform="translate(0)"/><path class="g" d="M7.25,21.41A26.87,26.87,0,0,1,31.38,6.19H33.5A26.84,26.84,0,0,1,60.26,32.94h0a8.54,8.54,0,0,1-8.52,8.52H13.13a8.54,8.54,0,0,1-8.51-8.52h0a27,27,0,0,1,.48-5.12" transform="translate(0)"/><path d="M8.15,21.92A26.4,26.4,0,0,1,21,9.44a29.84,29.84,0,0,1,15.75-2A26,26,0,0,1,59.08,30.22c.3,2.93.14,5.79-2,8a7.57,7.57,0,0,1-5.42,2.19c-2.06,0-4.11,0-6.16,0H13.82A9.51,9.51,0,0,1,10.73,40a7.59,7.59,0,0,1-5.07-6.44,19.86,19.86,0,0,1,.43-5.49c.26-1.31-1.75-1.87-2-.55-.63,3.34-1,7,.71,10.12a9.67,9.67,0,0,0,7.31,4.78,57.17,57.17,0,0,0,6,0H51.35a9.7,9.7,0,0,0,9.83-8.42,23.11,23.11,0,0,0-1.13-9.18A27.84,27.84,0,0,0,56,16.75,28.39,28.39,0,0,0,41.5,6.35,32.64,32.64,0,0,0,24.62,6a28.07,28.07,0,0,0-15.8,10.7,27,27,0,0,0-2.52,4.2c-.53,1.2,1.27,2.24,1.85,1Z" transform="translate(0)"/><path d="M28.61,33.59a1,1,0,0,0,0-2.08,1,1,0,0,0,0,2.08Z" transform="translate(0)"/><path d="M31,35.11A1,1,0,0,0,31,33a1,1,0,0,0,0,2.07Z" transform="translate(0)"/><path d="M34,35.11A1,1,0,0,0,34,33a1,1,0,0,0,0,2.07Z" transform="translate(0)"/><path d="M36.43,33.59a1,1,0,0,0,0-2.08,1,1,0,0,0,0,2.08Z" transform="translate(0)"/><circle class="f" cx="40.98" cy="23.83" r="4.73"/><path class="h" d="M41,25.56a1.73,1.73,0,0,0,0-3.46,1.73,1.73,0,0,0,0,3.46Z" transform="translate(0)"/><circle class="f" cx="24.28" cy="23.83" r="4.73"/><path class="h" d="M24.28,25.56a1.73,1.73,0,0,0,0-3.46,1.73,1.73,0,0,0,0,3.46Z" transform="translate(0)"/><path d="M4.73,3.76c-1-1-2-2-2.95-2.93A1,1,0,0,0,.3,2.31c1,1,2,2,3,2.93s2.42-.53,1.47-1.48Z" transform="translate(0)"/><path d="M13.52,12.48,7.13,6.12A1,1,0,0,0,5.66,7.59C7.78,9.72,9.92,11.84,12.05,14c.94.95,2.42-.53,1.47-1.48Z" transform="translate(0)"/><path d="M60.74,4.71c1-1,2-2,2.95-2.93A1,1,0,0,0,62.22.3c-1,1-2,2-3,2.93a1,1,0,0,0,1.48,1.48Z" transform="translate(0)"/><path d="M52,13.43c2.12-2.12,4.27-4.24,6.39-6.37a1,1,0,0,0-1.47-1.47L50.48,12c-.95,1,.53,2.43,1.47,1.48Z" transform="translate(0)"/><path class="f" d="M23.28,9.83a15.87,15.87,0,0,0-6.69,3.48c-1,.88.41,2.4,1.41,1.53a13.26,13.26,0,0,1,5.76-3A1,1,0,0,0,23.28,9.83Z" transform="translate(0)"/><path class="f" d="M13.8,16a26.3,26.3,0,0,0-3.14,3.62,1,1,0,0,0,1.71,1.18,24.34,24.34,0,0,1,2.77-3.23C16.11,16.68,14.77,15.09,13.8,16Z" transform="translate(0)"/><g class="i"><path class="j" d="M59.26,32.48A8.19,8.19,0,0,1,57,38.37a7.92,7.92,0,0,1-5.77,2.05l-6.07,0a7.81,7.81,0,0,0,8.17-7.92A25.5,25.5,0,0,0,29.55,7.25c.65,0,1.66-.07,2.33-.07h1.76C47.73,7.18,58.92,19.1,59.26,32.48Z" transform="translate(0)"/></g><path class="f" d="M16.34,51.24A5,5,0,0,0,13.71,56c.13,1.48,2.44,1.48,2.3,0a2.75,2.75,0,0,1,1.48-2.79C18.83,52.53,17.65,50.54,16.34,51.24Z" transform="translate(0)"/><path class="f" d="M13.68,59.49v2.77a1.16,1.16,0,0,0,2.31,0V59.49A1.16,1.16,0,0,0,13.68,59.49Z" transform="translate(0)"/><circle class="f" cx="57.32" cy="55.66" r="3.07"/><path d="M59.35,55.66c-.14,2.58-4.06,2.63-4.06,0s3.92-2.58,4.06,0c.07,1.34,2.15,1.34,2.08,0a4.2,4.2,0,0,0-4.11-4.11,4.11,4.11,0,1,0,4.11,4.11C61.5,54.32,59.42,54.32,59.35,55.66Z" transform="translate(0)"/><path d="M7.69,57.55h0a1,1,0,0,1,1,1V64a0,0,0,0,1,0,0H6.65a0,0,0,0,1,0,0V58.58A1,1,0,0,1,7.69,57.55Z"/><path d="M57.33,57.89h0a1,1,0,0,1,1,1V64a0,0,0,0,1,0,0H56.29a0,0,0,0,1,0,0V58.92A1,1,0,0,1,57.33,57.89Z"/></g></svg>