<?xml version="1.0" encoding="UTF-8"?><svg id="Layer_1" xmlns="http://www.w3.org/2000/svg" viewBox="0 0 64 64"><defs><style>.cls-1{fill:#fff;}.cls-1,.cls-2{fill-rule:evenodd;}</style></defs><path class="cls-2" d="M14.45,0h35.1c7.95,0,14.45,6.53,14.45,14.52v34.96c0,7.99-6.5,14.52-14.45,14.52H14.45c-7.95,0-14.45-6.53-14.45-14.52V14.52C0,6.53,6.5,0,14.45,0Z"/><path class="cls-1" d="M26.65,38.43l22.37-22.6v.02l6.46-6.5c-.12.17-.23.33-.35.49-4.91,6.8-7.31,10.13-5.38,18.45h-.01c1.33,5.65-.09,11.93-4.67,16.54-5.78,5.82-15.02,7.11-22.63,1.87l5.31-2.47c4.86,1.92,10.17,1.08,13.99-2.77,3.82-3.84,4.68-9.44,2.76-14.1-.37-.88-1.46-1.1-2.22-.54l-15.62,11.6h0ZM23.43,41.25h0s-14.92,13.41-14.92,13.41c.95-1.31,2.12-2.55,3.29-3.79,3.3-3.49,6.58-6.95,4.58-11.84-2.68-6.54-1.12-14.21,3.84-19.2,5.16-5.18,12.75-6.49,19.09-3.86,1.4.52,2.63,1.27,3.58,1.96l-5.29,2.46c-4.93-2.08-10.58-.67-14.03,2.8-4.66,4.69-5.6,12.81-.14,18.06h0Z"/></svg>