<?xml version="1.0" encoding="UTF-8"?><svg id="Layer_1" xmlns="http://www.w3.org/2000/svg" viewBox="0 0 64 64"><defs><style>.cls-1{fill:none;}.cls-2{fill:#1185fe;}</style></defs><title>Bluesky icon - Uncanny Automator</title><path class="cls-2" d="M13.87,7.62c7.34,5.51,15.23,16.68,18.13,22.67,2.9-5.99,10.79-17.16,18.13-22.67,5.29-3.97,13.87-7.05,13.87,2.74,0,1.95-1.12,16.42-1.78,18.77-2.28,8.16-10.61,10.25-18.01,8.99,12.94,2.2,16.24,9.5,9.13,16.8-13.51,13.86-19.41-3.48-20.92-7.92-.28-.81-.41-1.2-.41-.87,0-.32-.13.06-.41.87-1.51,4.44-7.42,21.78-20.92,7.92-7.11-7.3-3.82-14.59,9.13-16.8-7.41,1.26-15.73-.82-18.01-8.99-.66-2.35-1.78-16.81-1.78-18.77C0,.57,8.58,3.64,13.87,7.62Z"/><rect class="cls-1" width="64" height="64"/></svg>