<svg xmlns="http://www.w3.org/2000/svg" viewBox="0 0 59.54 64"><defs><style>.a{fill:none;}.b{fill:#466dd8;}.b,.c,.d{fill-rule:evenodd;}.c{fill:#2295ff;}.d{fill:#f8954f;}</style></defs><title>LifterLMS icon - Uncanny Automator</title><rect class="a" width="59.54" height="64"/><path class="b" d="M19.66,40.06l-2.15-1.23-5.78,10A25,25,0,0,1,9.52,23.34l.06-.06c.25-.55.56-1,.8-1.53A24.88,24.88,0,0,1,29.31,9.46a34.31,34.31,0,0,1,4.49-5A29.78,29.78,0,0,0,13.7,57.7l5.78-17.15a4.37,4.37,0,0,0,.18-.49M54.81,24.14A25,25,0,0,1,53.58,46.7a16,16,0,0,1-.86,1.47l-.06.06A25,25,0,0,1,29.49,59.05l5.78-10-2.15-1.23c-.12.13-.25.25-.37.37L20.83,61.81a29.78,29.78,0,0,0,36-44,32.2,32.2,0,0,1-2,6.33" transform="translate(-2.23)"/><path class="c" d="M34.84,39.69A9.18,9.18,0,0,1,28.21,43,2,2,0,0,1,26.3,41.9a8.88,8.88,0,0,1-.43-7.37l-12-7a1.87,1.87,0,0,1-.92-2.15A1.84,1.84,0,0,1,14.69,24l12.22-.43A33.66,33.66,0,0,1,31.58,12.9,30.78,30.78,0,0,1,45.9,1.47,37.68,37.68,0,0,1,50.14.05a1.94,1.94,0,0,1,2.34,1.36,33.57,33.57,0,0,1,1,4.36A31.91,31.91,0,0,1,50.7,24a33.38,33.38,0,0,1-6.89,9.34l5.72,10.75a1.87,1.87,0,0,1-.37,2.34,1.86,1.86,0,0,1-2.27.24l-12-6.94Zm9.1-25.75a3.87,3.87,0,1,1-5.29,1.42,3.92,3.92,0,0,1,5.29-1.42" transform="translate(-2.23)"/><path class="d" d="M16.84,60.52l13-14.81-1.47.19a4.77,4.77,0,0,1-4.67-2.77,9.26,9.26,0,0,1-.62-1.35L16.84,60.52Z" transform="translate(-2.23)"/></svg>