<?xml version="1.0" encoding="UTF-8"?><svg id="Layer_1" xmlns="http://www.w3.org/2000/svg" viewBox="0 0 64 64"><defs><style>.cls-1{fill:#1f1f1f;fill-rule:evenodd;}.cls-2{fill:#fff;}</style></defs><path class="cls-1" d="M14.45,0h35.1c7.95,0,14.45,6.53,14.45,14.52v34.96c0,7.99-6.5,14.52-14.45,14.52H14.45c-7.95,0-14.45-6.53-14.45-14.52V14.52C0,6.53,6.5,0,14.45,0Z"/><path class="cls-2" d="M43.61,16.08l-8.62,7.32h8.62v-7.32ZM33.12,22.2l12.62-10.72v11.92h4.03v18.01h-4.84v11.3l-11.81-10.88v10.54h-2.13v-10.54l-12.07,10.83v-11.26h-4.68v-18.01h4.84v-12l11.91,10.67v-10.44h2.13v10.57ZM29.47,25.54c-4.37,0-8.74,0-13.1,0v13.74h2.55v-3.41l10.55-10.33h0ZM34.65,25.54l10.28,10.34v3.4h2.71v-13.74c-4.33,0-8.66,0-12.99,0ZM29.29,23.4l-8.08-7.24v7.24h8.08ZM30.99,38.98v-11.96l-9.95,9.73v11.14l9.95-8.92h0ZM33.15,27.05v11.91l9.65,8.89c0-3.7,0-7.4,0-11.1l-9.65-9.7Z"/></svg>