<svg xmlns="http://www.w3.org/2000/svg" viewBox="0 0 64 64"><defs><style>.cls-1{fill:none;}.cls-2{fill:#0a66c2;}.cls-3{fill:#fff;}</style></defs><title>LinkedIn icon - Uncanny Automator</title><g id="Layer_2" data-name="Layer 2"><rect class="cls-1" width="64" height="64"/></g><g id="Layer_1" data-name="Layer 1"><path class="cls-2" d="M59.26,0H4.72A4.7,4.7,0,0,0,0,4.62V59.38A4.69,4.69,0,0,0,4.72,64H59.26A4.7,4.7,0,0,0,64,59.38V4.61A4.7,4.7,0,0,0,59.26,0"/><path class="cls-3" d="M54.53,54.53H45.05V39.68c0-3.54-.06-8.1-4.93-8.1s-5.7,3.86-5.7,7.84V54.53H24.94V24H34v4.18h.13a10,10,0,0,1,9-4.94c9.61,0,11.39,6.32,11.39,14.55Z"/><path class="cls-3" d="M14.24,19.82h0a5.51,5.51,0,1,1,5.5-5.51h0a5.53,5.53,0,0,1-5.5,5.51"/><rect class="cls-3" x="9.49" y="23.99" width="9.49" height="30.54"/></g></svg>