<svg xmlns="http://www.w3.org/2000/svg" xmlns:xlink="http://www.w3.org/1999/xlink" viewBox="0 0 64 64"><defs><style>.cls-1{fill:none;}.cls-2{fill:url(#linear-gradient);}.cls-3{fill:url(#linear-gradient-2);}.cls-4{fill:url(#linear-gradient-3);}</style><linearGradient id="linear-gradient" x1="36.42" y1="27.08" x2="66.34" y2="37.95" gradientTransform="matrix(1, 0, 0, -1, 0, 66)" gradientUnits="userSpaceOnUse"><stop offset="0.02" stop-color="#b02de9"/><stop offset="0.8" stop-color="#6d00cc"/></linearGradient><linearGradient id="linear-gradient-2" x1="9.87" y1="31.99" x2="42.07" y2="46.01" gradientTransform="matrix(1, 0, 0, -1, 0, 66)" gradientUnits="userSpaceOnUse"><stop offset="0" stop-color="#f0f"/><stop offset="0.18" stop-color="#e80df9"/><stop offset="0.54" stop-color="#c024ed"/><stop offset="0.73" stop-color="#b02de9"/></linearGradient><linearGradient id="linear-gradient-3" x1="4.12" y1="22.51" x2="67.42" y2="44.35" gradientTransform="matrix(1, 0, 0, -1, 0, 66)" gradientUnits="userSpaceOnUse"><stop offset="0.02" stop-color="#f0f"/><stop offset="0.09" stop-color="#e80df9"/><stop offset="0.23" stop-color="#c024ed"/><stop offset="0.3" stop-color="#b02de9"/><stop offset="0.42" stop-color="#a42be3"/><stop offset="0.63" stop-color="#8527d5"/><stop offset="0.85" stop-color="#6021c3"/></linearGradient></defs><title>Make icon - Uncanny Automator</title><g id="Layer_2" data-name="Layer 2"><rect class="cls-1" width="64" height="64"/></g><g id="Layer_1" data-name="Layer 1"><path class="cls-2" d="M62.47,53.69h-11a1.49,1.49,0,0,1-1.07-.45,1.54,1.54,0,0,1-.45-1.09V10.77a1.56,1.56,0,0,1,.45-1.1,1.49,1.49,0,0,1,1.07-.45h11a1.5,1.5,0,0,1,1.08.45,1.56,1.56,0,0,1,.45,1.1V52.15a1.54,1.54,0,0,1-.45,1.09A1.5,1.5,0,0,1,62.47,53.69Z"/><path class="cls-3" d="M10.79,53.53l-9.94-5a1.51,1.51,0,0,1-.77-.89,1.47,1.47,0,0,1,.09-1.16L18.61,10.06a1.54,1.54,0,0,1,2.06-.68l9.94,5a1.6,1.6,0,0,1,.77.89,1.49,1.49,0,0,1-.09,1.17L12.85,52.85A1.53,1.53,0,0,1,10.79,53.53Z"/><path class="cls-4" d="M40.27,53.53,47.7,13.28a1.59,1.59,0,0,0-.22-1.16,1.41,1.41,0,0,0-.91-.65L36.28,9.25a1.37,1.37,0,0,0-1.09.23,1.64,1.64,0,0,0-.4.43,1.58,1.58,0,0,0-.21.56L27.15,50.72a1.63,1.63,0,0,0,.21,1.16,1.51,1.51,0,0,0,.92.66l10.29,2.21a1.32,1.32,0,0,0,.56,0,1.44,1.44,0,0,0,.92-.66A1.6,1.6,0,0,0,40.27,53.53Z"/></g></svg>