<?xml version="1.0" encoding="UTF-8"?><svg xmlns="http://www.w3.org/2000/svg" xmlns:xlink="http://www.w3.org/1999/xlink" viewBox="0 0 64 64"><defs><style>.cls-1{fill:none;}.cls-2{fill:url(#linear-gradient-2);}.cls-2,.cls-3,.cls-4,.cls-5{fill-rule:evenodd;}.cls-3{fill:url(#linear-gradient-3);}.cls-4{fill:#f56f46;}.cls-5{fill:url(#linear-gradient);}</style><linearGradient id="linear-gradient" x1="19.3" y1="1.76" x2="19.55" y2="36.82" gradientTransform="translate(0 66) scale(1 -1)" gradientUnits="userSpaceOnUse"><stop offset="0" stop-color="#dd5f29"/><stop offset=".26" stop-color="#f26b32"/><stop offset="1" stop-color="#fac932"/></linearGradient><linearGradient id="linear-gradient-2" x1="19.44" y1="13.78" x2="19.59" y2="37.68" xlink:href="#linear-gradient"/><linearGradient id="linear-gradient-3" x1="19.48" y1="20.94" x2="19.68" y2="47.33" xlink:href="#linear-gradient"/></defs><g id="Layer_1"><path class="cls-5" d="M28.18,33.03c-1.22-.01-2.32-.7-2.86-1.79l-.94-2.11h-9.4l-.94,2.11c-.54,1.09-1.65,1.78-2.86,1.79h-.5l4.01,30.54c.21.57.59.57.81,0l3.96-9.77,3.47,9.74c.21.57.59.57.81,0l4.63-30.49s-.18-.03-.18-.03Z"/><path class="cls-2" d="M24,28.27h-8.61l-1.32,2.97c-.45.89-1.28,1.53-2.26,1.72l3.03,18.84c.21.34.59.34.81,0l3.88-5.9,3.55,5.87c.23.35.59.35.81,0l3.44-18.87c-.87-.25-1.59-.85-2-1.66,0,0-1.32-2.97-1.32-2.97Z"/><path class="cls-3" d="M25.32,31.23l-5.65-12.63-5.62,12.63c-.19.36-.44.69-.73.97l2.33,12.53c.12.16.44.22.68,0l3.13-4.16,3.14,4.11c.19.26.54.21.68,0l2.58-12.66c-.2-.24-.38-.51-.53-.79Z"/><path class="cls-4" d="M1.65,1.45c-.18-.6.18-1.03.78-1.03h4.95c.35,0,.68.29.78.59l3.63,14.32h.18L18.51.47C18.64.19,18.91,0,19.22,0h.76C20.37,0,20.62.21,20.72.47l6.53,14.86h.18l3.64-14.3c.11-.34.41-.58.76-.6h4.95c.6,0,.93.43.78,1.03l-7.99,28.34c-.09.36-.41.61-.78.6h-.66c-.31,0-.6-.19-.73-.47l-7.74-17.25h-.12l-7.69,17.27c-.14.28-.42.45-.73.47h-.66c-.35-.01-.66-.25-.76-.59L1.65,1.44h0ZM41.97,1.22c0-.43.35-.79.79-.79h10.18c5.18,0,9.39,4.15,9.46,9.32,0,5.23-4.26,9.52-9.4,9.52h-4.43v9.93c-.02.43-.36.78-.79.79h-4.99c-.43,0-.78-.36-.78-.79V1.22s-.03,0-.03,0ZM52.57,13.08c1.83,0,3.33-1.47,3.33-3.3,0,0,0-.02,0-.03,0-1.76-1.51-3.13-3.33-3.13h-4.01v6.46h4.01Z"/></g><g id="Layer_2"><rect class="cls-1" width="64" height="64"/></g></svg>