<?xml version="1.0" encoding="UTF-8"?><svg id="a" xmlns="http://www.w3.org/2000/svg" viewBox="0 0 64 64"><title>Telegram icon - Uncanny Automator</title><circle cx="32" cy="32" r="32" style="fill:#25a3e3;"/><path id="b" d="m14.49,31.66c9.33-4.06,15.55-6.74,18.66-8.04,8.89-3.7,10.73-4.34,11.94-4.36.26,0,.86.06,1.24.37.32.26.41.62.46.87s.1.82.05,1.26c-.48,5.06-2.57,17.34-3.63,23.01-.45,2.4-1.33,3.2-2.19,3.28-1.86.17-3.27-1.23-5.07-2.41-2.82-1.85-4.41-3-7.14-4.8-3.16-2.08-1.11-3.23.69-5.1.47-.49,8.66-7.94,8.82-8.61.02-.08.04-.4-.15-.57s-.46-.11-.66-.06c-.28.06-4.78,3.04-13.5,8.92-1.28.88-2.43,1.3-3.47,1.28-1.14-.02-3.34-.65-4.97-1.18-2-.65-3.6-1-3.46-2.1.07-.58.87-1.17,2.38-1.77Z" style="fill:#fff; fill-rule:evenodd;"/></svg>