<svg xmlns="http://www.w3.org/2000/svg" viewBox="0 0 64 49.86"><defs><style>.a{fill:#7eaaba;}.b{fill:#d3e8ef;}.c{fill:#fff;}.d{fill:#7f3e13;}.e{fill:#b85a1b;}.f{fill:#e1762f;}.g{fill:#63300f;}.h{fill:#4f2800;}.i{fill:#e5895b;}.j{fill:#fad395;}.k{fill:#ad6151;}.l{fill:#1b1d23;}.m{fill:#036aab;}.n{fill:#0399ed;}</style></defs><title>WPForms icon - Uncanny Automator</title><path class="a" d="M7.24,37.88a10.92,10.92,0,0,0,9.2-2.6l4.22.23-2.3,6.79C15.8,46.36,12.08,47.23,8.27,47Z" transform="translate(0 -7.07)"/><path class="b" d="M8.81,39.41l.71,6.22a8.42,8.42,0,0,0,7.59-3.94l1.66-4.87-1.85-.1a11.74,11.74,0,0,1-8.11,2.69Z" transform="translate(0 -7.07)"/><path class="c" d="M8.81,39.41l.42,3.69c4.36-.52,7.75-2.31,9.51-6.28l-1.86-.1a11.64,11.64,0,0,1-8.07,2.69" transform="translate(0 -7.07)"/><path class="a" d="M8.27,32.56a7.21,7.21,0,1,1-7.21,7.21,7.23,7.23,0,0,1,7.21-7.21" transform="translate(0 -7.07)"/><path class="b" d="M8.27,34A5.77,5.77,0,1,0,14,39.73,5.76,5.76,0,0,0,8.27,34" transform="translate(0 -7.07)"/><path class="c" d="M8.27,34a5.71,5.71,0,0,0-4.74,2.47,5.8,5.8,0,0,0,5.76,5.41A5.7,5.7,0,0,0,14,39.38,5.78,5.78,0,0,0,8.27,34" transform="translate(0 -7.07)"/><path class="a" d="M7.53,33.62A5.38,5.38,0,1,1,2.15,39a5.37,5.37,0,0,1,5.38-5.35" transform="translate(0 -7.07)"/><path class="d" d="M7.15,32.18a5.4,5.4,0,1,1-5.41,5.38,5.41,5.41,0,0,1,5.41-5.38" transform="translate(0 -7.07)"/><path class="e" d="M7.66,34.23A4.29,4.29,0,1,0,12,38.52a4.29,4.29,0,0,0-4.29-4.29" transform="translate(0 -7.07)"/><path class="d" d="M4.43,27.82a2.35,2.35,0,0,1,4.7,0c1.32-2.21,5.45-1,4.17,2.47a7.6,7.6,0,0,1,.16.83c2.24.13,3,3.62-.1,4.71a6.39,6.39,0,0,1-1.22,2.46c-2.62,2.28-3.49.42-4.9-1.12-1.37,0-5.12-.93-4.06,2.6C.78,38.23-.76,35.12.39,30.57c-1.6-3.68,2.66-5.06,4-2.75Z" transform="translate(0 -7.07)"/><path class="e" d="M1.83,31.09c-.54,2.21-.57,4.71,1,6.5a5.25,5.25,0,0,0,8.43-.77,8.7,8.7,0,0,0,.48-5.76,25,25,0,0,0-9.9,0Z" transform="translate(0 -7.07)"/><path class="f" d="M1.83,31.09c-.54,2.21-.57,4.71,1,6.5a5.41,5.41,0,0,0,4,1.76V30.57a26.21,26.21,0,0,0-5,.52" transform="translate(0 -7.07)"/><path class="d" d="M4,32.78a3.84,3.84,0,0,0,.58,3.62A2.89,2.89,0,0,0,9.26,36a4.84,4.84,0,0,0,.26-3.21,14,14,0,0,0-5.51,0" transform="translate(0 -7.07)"/><path class="e" d="M6.76,29.39a1.25,1.25,0,0,0,0-2.5Zm4.52-1.57A1.25,1.25,0,1,1,10,29.07a1.26,1.26,0,0,1,1.25-1.25" transform="translate(0 -7.07)"/><path class="f" d="M2.5,28a1.25,1.25,0,0,1,0,2.5A1.27,1.27,0,0,1,1.26,29.2,1.25,1.25,0,0,1,2.5,28m4.26,1.44V26.92a1.27,1.27,0,0,0-1.24,1.25A1.22,1.22,0,0,0,6.76,29.39Z" transform="translate(0 -7.07)"/><path class="e" d="M12.69,32.34a1.25,1.25,0,1,1-1.25,1.25,1.23,1.23,0,0,1,1.25-1.25" transform="translate(0 -7.07)"/><path class="a" d="M55.54,47.07c-.29-3.75-2-6.44-5.32-7.88l.68-2.59,5.38-1.45c4.67,1.41,6.53,4.42,7.43,8.17Z" transform="translate(0 -7.07)"/><path class="c" d="M56.66,45,62,42.52c-.93-3.14-2.5-5.16-5.8-6L52,37.68l-.2.71A10,10,0,0,1,56.66,45Z" transform="translate(0 -7.07)"/><path class="a" d="M50.35,47.71a7,7,0,1,1,8.84,4.45,7,7,0,0,1-8.84-4.45" transform="translate(0 -7.07)"/><path class="b" d="M51.5,47.32A5.78,5.78,0,1,0,55.19,40a5.78,5.78,0,0,0-3.69,7.3" transform="translate(0 -7.07)"/><path class="c" d="M62.71,44.73a5.32,5.32,0,0,0-.22-1A5.77,5.77,0,0,0,55.19,40a6.2,6.2,0,0,0-2.37,1.48,6.2,6.2,0,0,0,.22,1,5.78,5.78,0,0,0,7.3,3.68,5.37,5.37,0,0,0,2.37-1.47" transform="translate(0 -7.07)"/><path class="d" d="M49,49.5a6.59,6.59,0,1,1,8.32,4.2A6.56,6.56,0,0,1,49,49.5" transform="translate(0 -7.07)"/><path class="e" d="M50.38,49.09A5.2,5.2,0,1,1,57,52.38a5.21,5.21,0,0,1-6.57-3.29" transform="translate(0 -7.07)"/><path class="f" d="M50.16,46.62a5.26,5.26,0,0,1,3.52-4.13,5.2,5.2,0,0,1,6.57,3.3,5.68,5.68,0,0,1,.25,1.28A9.06,9.06,0,0,1,50.16,46.62Z" transform="translate(0 -7.07)"/><path class="d" d="M26.2,7.07a4.93,4.93,0,0,1,4.78,5,4.78,4.78,0,1,1-9.55,0,4.93,4.93,0,0,1,4.77-5" transform="translate(0 -7.07)"/><path class="e" d="M26.2,8.44a3.51,3.51,0,0,0-3.36,3.66,3.53,3.53,0,0,0,3.36,3.65,3.51,3.51,0,0,0,3.37-3.65A3.56,3.56,0,0,0,26.2,8.44" transform="translate(0 -7.07)"/><path class="g" d="M26.2,9.85a2.13,2.13,0,0,0-2,2.28,2.17,2.17,0,0,0,2,2.27,2.13,2.13,0,0,0,2-2.27,2.18,2.18,0,0,0-2-2.28" transform="translate(0 -7.07)"/><path class="d" d="M46.44,7.07a4.93,4.93,0,0,1,4.78,5,4.78,4.78,0,1,1-9.55,0,4.93,4.93,0,0,1,4.77-5" transform="translate(0 -7.07)"/><path class="e" d="M46.44,8.44a3.51,3.51,0,0,0-3.36,3.66,3.38,3.38,0,1,0,6.73,0,3.56,3.56,0,0,0-3.37-3.66" transform="translate(0 -7.07)"/><path class="h" d="M46.44,9.85a2.13,2.13,0,0,0-2,2.28,2.17,2.17,0,0,0,2,2.27,2.13,2.13,0,0,0,2-2.27,2.18,2.18,0,0,0-2-2.28" transform="translate(0 -7.07)"/><path class="d" d="M38.25,9.44a1.51,1.51,0,1,1-1.51,1.5,1.5,1.5,0,0,1,1.51-1.5m-3.85,0a1.51,1.51,0,1,1-1.5,1.5,1.5,1.5,0,0,1,1.5-1.5" transform="translate(0 -7.07)"/><path class="d" d="M53.91,15.71V25.1l.09,0a3.45,3.45,0,0,1,2.24,3.27v6.72L36.32,41.69,16.4,35.28V28.4a3.46,3.46,0,0,1,2.25-3.27l.09,0V15.68c0-6.47,35.17-6.47,35.17,0Z" transform="translate(0 -7.07)"/><path class="e" d="M20.34,16.07V26.19l-.83.32A2.27,2.27,0,0,0,18,28.69V35.8l18.32,5.89,18.31-6v-7a2.28,2.28,0,0,0-1.47-2.18l-.83-.32V16.07c0-4.81-32-4.81-32,0Z" transform="translate(0 -7.07)"/><path class="f" d="M20.34,16.07V26.19l-.83.32A2.27,2.27,0,0,0,18,28.69V35.8l18.32,5.89V37.84c-6.35,0-12.69-4.13-11-12.36h11v-13c-8,0-16,1.22-16,3.59Z" transform="translate(0 -7.07)"/><path class="i" d="M24.47,23.34h23.8c3.36,17.87-27.45,17.74-23.8,0" transform="translate(0 -7.07)"/><path class="i" d="M25.63,24.75a8.77,8.77,0,0,0,2.3,7.49,11.84,11.84,0,0,0,8.46,3.07,12,12,0,0,0,8.13-3,8.87,8.87,0,0,0,2.53-7.59Z" transform="translate(0 -7.07)"/><path class="j" d="M40.33,33.07c1.6,2.08,6.27,1.22,4.87-3.17Z" transform="translate(0 -7.07)"/><path class="h" d="M38.85,32.62c1.8,2.31,7.63.93,6.28-4.06Z" transform="translate(0 -7.07)"/><path class="c" d="M44.23,28.78a.7.7,0,0,1,.84.51.71.71,0,0,1-.45.87.69.69,0,0,1-.83-.51.71.71,0,0,1,.44-.87m-3.81,2.66a.72.72,0,0,1,.39,1.38A.72.72,0,0,1,40,32.3a.7.7,0,0,1,.45-.86" transform="translate(0 -7.07)"/><path class="k" d="M42.76,33.52a3.6,3.6,0,0,0,2.56-3.07c-1-.16-2.82,1.37-2.56,3.07" transform="translate(0 -7.07)"/><path class="j" d="M26.91,23.34H45.77C48.46,36.12,24,36,26.91,23.34" transform="translate(0 -7.07)"/><path class="h" d="M36.32,30.61a4.81,4.81,0,0,1,.9-2.12,4.09,4.09,0,0,0,3.62-5.15,13.4,13.4,0,0,0-4.48-.77l-.93,2.91Z" transform="translate(0 -7.07)"/><path class="g" d="M36.32,30.61a4.68,4.68,0,0,0-.89-2.12,4.09,4.09,0,0,1-3.62-5.15,13.4,13.4,0,0,1,4.48-.77Z" transform="translate(0 -7.07)"/><path class="k" d="M33,23.79a13.12,13.12,0,0,1,6.7,0c.93,2.33-7.72,2.3-6.7,0" transform="translate(0 -7.07)"/><path class="c" d="M32.74,17.28a2.53,2.53,0,1,1-2.53,2.53,2.54,2.54,0,0,1,2.53-2.53" transform="translate(0 -7.07)"/><path class="l" d="M32.93,18.18A1.89,1.89,0,1,1,31,20.07a1.87,1.87,0,0,1,1.89-1.89" transform="translate(0 -7.07)"/><path class="c" d="M40,17.28a2.53,2.53,0,1,0,2.53,2.53A2.54,2.54,0,0,0,40,17.28" transform="translate(0 -7.07)"/><path class="l" d="M39.81,18.18a1.89,1.89,0,1,0,1.89,1.89,1.91,1.91,0,0,0-1.89-1.89" transform="translate(0 -7.07)"/><path class="g" d="M34.56,16.48a6.91,6.91,0,0,0-5.22.93c-.54-3.1,4.68-4,5.22-.93" transform="translate(0 -7.07)"/><path class="h" d="M37.64,14.91a6.92,6.92,0,0,1,5.22.93c.54-3.1-4.65-4-5.22-.93" transform="translate(0 -7.07)"/><path class="a" d="M56.21,35.15V54.56a2.38,2.38,0,0,1-2.37,2.37H18.74a2.38,2.38,0,0,1-2.37-2.37V35.35l19.92,4.77Z" transform="translate(0 -7.07)"/><path class="b" d="M54.64,37.17,36.32,41.69,18,37.33V54.15a1.16,1.16,0,0,0,1.18,1.18h34.3a1.16,1.16,0,0,0,1.18-1.18v-17Z" transform="translate(0 -7.07)"/><path class="c" d="M36.32,41.72,18,37.33V54.15a1.16,1.16,0,0,0,1.18,1.18H36.36V41.72Z" transform="translate(0 -7.07)"/><path class="m" d="M36.32,50.72H51.7v2.05H36.32Zm0-4.26H51.7v2H36.32Z" transform="translate(0 -7.07)"/><path class="n" d="M36.32,52.8V50.72H21v2.05H36.32ZM21,46.46H36.32v2.08H21Z" transform="translate(0 -7.07)"/><polygon class="c" points="29.12 47.46 27.2 47.46 27.2 38.05 29.12 38.05 29.12 47.46"/><path class="a" d="M21.78,36.6c4.87,1.15,9.71,2.33,14.54,3.49L31.14,45c-3.37-2-6.7-4.17-9.36-8.39" transform="translate(0 -7.07)"/><path class="c" d="M25.88,39.22a26,26,0,0,0,5,3.78l2.18-2.08c-2.37-.55-4.8-1.15-7.21-1.7" transform="translate(0 -7.07)"/><path class="a" d="M50.86,36.6c-4.86,1.15-9.7,2.33-14.54,3.49L41.51,45c3.36-2,6.7-4.17,9.35-8.39" transform="translate(0 -7.07)"/><path class="c" d="M46.76,39.22a25.59,25.59,0,0,1-5,3.78l-2.18-2.08c2.4-.55,4.8-1.15,7.2-1.7" transform="translate(0 -7.07)"/></svg>