<?xml version="1.0" encoding="UTF-8"?><svg xmlns="http://www.w3.org/2000/svg" xmlns:xlink="http://www.w3.org/1999/xlink" viewBox="0 0 64 64"><defs><style>.cls-1{fill:none;}.cls-2{mask:url(#mask);}.cls-3{fill:#009954;}.cls-4{fill:url(#linear-gradient);}.cls-5{fill:#fff;}.cls-6{fill:#0ebc5f;}</style><mask id="mask" x="0" y="8.73" width="64" height="46.55" maskUnits="userSpaceOnUse"><g id="a"><rect class="cls-6" x="5.82" y="8.73" width="58.18" height="46.55" rx="20" ry="20"/></g></mask><linearGradient id="linear-gradient" x1="36.45" y1="-51" x2="-.45" y2="-51" gradientTransform="translate(8 83)" gradientUnits="userSpaceOnUse"><stop offset="0" stop-color="#0ebc5f"/><stop offset=".95" stop-color="#78c9ff"/></linearGradient></defs><g id="Layer_2"><rect class="cls-1" width="64" height="64"/></g><g id="Layer_1"><path class="cls-3" d="M0,24.22c0-3.25,0-4.88.51-6.17.74-1.87,2.22-3.35,4.09-4.08,1.29-.51,2.92-.51,6.17-.51h22.11c3.25,0,4.88,0,6.17.51,1.87.74,3.35,2.22,4.09,4.09.51,1.29.51,2.92.51,6.17v15.56c0,3.25,0,4.88-.51,6.17-.74,1.87-2.22,3.35-4.09,4.09-1.29.51-2.92.51-6.17.51H10.76c-3.25,0-4.88,0-6.17-.51-1.87-.74-3.35-2.22-4.08-4.09-.51-1.29-.51-2.92-.51-6.17v-15.56Z"/><g class="cls-2"><path class="cls-6" d="M5.82,8.73h58.18v46.55H5.82V8.73Z"/><rect class="cls-4" y="13.45" width="52.36" height="37.09" rx="18.55" ry="18.55"/></g><path class="cls-5" d="M49.45,50.18c-1.2,0-2.18-.98-2.18-2.18v-4.73h-21.09c-1.2,0-2.18-.98-2.18-2.18s.98-2.18,2.18-2.18h21.09v-14.18c0-1.2.98-2.18,2.18-2.18s2.18.98,2.18,2.18v14.18h5.09c1.2,0,2.18.98,2.18,2.18s-.98,2.18-2.18,2.18h-5.09v4.73c0,1.2-.98,2.18-2.18,2.18Z"/></g></svg>