<svg xmlns="http://www.w3.org/2000/svg" viewBox="0 0 64 64"><defs><style>.a{fill:none;}.b{fill:#235af3;}.c{fill:#ffb000;}.d{fill:#0d9dff;}</style></defs><title>LearnDash icon - Uncanny Automator</title><rect class="a" width="64" height="64"/><path class="b" d="M52,0h0A6.76,6.76,0,0,0,45.2,6.78v56A1.29,1.29,0,0,0,46.45,64h0A12.33,12.33,0,0,0,58.76,51.69V6.78A6.76,6.76,0,0,0,52,0Z"/><path class="c" d="M32,16.74h0a6.76,6.76,0,0,0-6.78,6.78V62.75A1.29,1.29,0,0,0,26.47,64h0A12.33,12.33,0,0,0,38.78,51.69V23.52A6.76,6.76,0,0,0,32,16.74Z"/><path class="d" d="M12,35.17h0A6.76,6.76,0,0,0,5.24,42v20.8A1.28,1.28,0,0,0,6.49,64h0A12.33,12.33,0,0,0,18.8,51.69V42A6.76,6.76,0,0,0,12,35.17Z"/></svg>