<?xml version="1.0" encoding="UTF-8"?><svg xmlns="http://www.w3.org/2000/svg" viewBox="0 0 64 64"><defs><style>.cls-1{fill:none;}.cls-2{fill:#211fa6;}</style></defs><g id="Layer_2"><rect class="cls-1" x="0" width="64" height="64"/></g><g id="Layer_1"><path class="cls-2" d="M18.82,47.39c.42-.22.89-.34,1.37-.34h23.62c.48,0,.95.12,1.37.34,2.63,1.4,1.63,5.35-1.37,5.35h-23.62c-2.99,0-4-3.95-1.37-5.35ZM10.03,37.44c.41-.22.87-.34,1.34-.34h41.26c.47,0,.93.12,1.34.34,2.59,1.4,1.6,5.35-1.34,5.35H11.37c-2.94,0-3.94-3.95-1.34-5.35h0ZM7.24,12.86c-.46.43-.85.93-1.16,1.48L.75,23.98c-2.2,3.97.68,8.85,5.22,8.85h52.05c4.54,0,7.42-4.87,5.22-8.85l-5.33-9.65c-.33-.6-.76-1.14-1.28-1.59-5.13,3.21-17.94,10.79-24.78,10.79S12.48,16.13,7.24,12.86Z"/><path class="cls-2" d="M9.47,11.55c5.65,3.43,16.44,9.47,22.37,9.47s16.86-6.11,22.48-9.53c-.53-.15-1.08-.23-1.63-.23H11.31c-.63,0-1.25.1-1.83.29Z"/></g></svg>