<?xml version="1.0" encoding="UTF-8"?><svg id="Layer_1" xmlns="http://www.w3.org/2000/svg" viewBox="0 0 64 64"><defs><style>.cls-1{fill:none;}.cls-2{fill:#015adc;}.cls-3{fill:#fdfefe;}</style></defs><path class="cls-2" d="M55.12,54.14c-11.76,12.3-31.17,13.21-44.06,2.07C-1.39,45.47-3.65,26.84,5.94,13.42,16.54-1.42,37.45-4.48,51.84,6.88s16.33,33.62,3.28,47.26ZM24.22,29.5h2.47v-5.1s.16-.36.19-.42c.5-.76,1.66-.7,2.06.12.03.06.13.32.13.36v5.04h6.23v-5.1s.16-.36.19-.42c.46-.72,1.53-.72,2,0,.03.05.19.39.19.42v5.1h2.47c.21,0,.55.47.52.7-.12,2.8.4,5.73-.72,8.38s-3.38,4.39-6.12,5.07v5c.1,1.2,1.12,2.02,1.99,2.71s2.02,1.59,3.16,1.39c.49-.08,2.68-1.06,3.02-1.41,1.22-1.28-.56-3.84-.04-5.38.25-.74,1.71-1.85,2.32-2.5.5-.53.81-1.18,1.53-1.47,1.55-.61,4.19,1.35,5.4-.09.31-.37,1.22-2.55,1.3-3.04.41-2.62-3.81-2.56-3.9-4.99-.02-.48.12-1.09.13-1.59.02-.84-.18-1.79-.13-2.57.16-2.26,4.22-2.4,3.9-4.82-.07-.5-1.01-2.73-1.34-3.12-1.2-1.43-3.76.43-5.32-.05-.74-.23-1.29-1.17-1.82-1.72-.64-.68-1.86-1.47-2.14-2.32-.5-1.53,1.29-4.11,0-5.38-.36-.36-2.89-1.43-3.39-1.44-1.92-.03-2.32,3.4-4,3.94-.71.23-1.77-.04-2.53-.03-.63,0-1.45.18-2.08.13-2.23-.17-2.33-4.16-4.58-3.97-.55.05-2.51.89-3,1.21-1.76,1.16.26,3.95-.23,5.57-.24.8-1.5,1.64-2.11,2.29-.47.5-1.02,1.39-1.62,1.67-1.71.82-4.41-1.52-5.69.35-.27.4-1.06,2.3-1.14,2.77-.49,2.69,3.74,2.59,3.88,5.04.03.51-.12,1.18-.13,1.71-.02.93.29,2.26-.03,3.09-.64,1.67-4.09,2.01-3.74,4.23.08.52.97,2.64,1.3,3.04,1.4,1.71,4.23-.88,5.89.39.37.28.63.74.94,1.07.62.65,2.24,1.94,2.48,2.65.53,1.6-1.43,4.32.16,5.52.44.33,2.65,1.29,3.17,1.3.71.01,1.63-.59,2.19-.99.94-.68,2.41-1.85,2.55-3.07v-5.25c-2.61-.65-4.84-2.6-5.83-5.1s-.52-5.47-.64-8.21c0-.29.23-.64.52-.7Z"/><path class="cls-3" d="M24.22,29.5c-.29.06-.51.42-.52.7.12,2.74-.39,5.61.64,8.21s3.22,4.45,5.83,5.1v5.25c-.14,1.23-1.61,2.39-2.55,3.07-.56.41-1.47,1.01-2.19.99-.51-.01-2.72-.97-3.17-1.3-1.59-1.2.37-3.92-.16-5.52-.24-.72-1.86-2.01-2.48-2.65-.31-.33-.58-.79-.94-1.07-1.66-1.28-4.5,1.32-5.89-.39-.33-.4-1.22-2.52-1.3-3.04-.35-2.22,3.1-2.56,3.74-4.23.32-.82.01-2.15.03-3.09,0-.53.16-1.19.13-1.71-.14-2.45-4.38-2.35-3.88-5.04.09-.46.87-2.37,1.14-2.77,1.28-1.87,3.98.46,5.69-.35.6-.29,1.15-1.17,1.62-1.67.61-.65,1.86-1.49,2.11-2.29.49-1.61-1.53-4.4.23-5.57.49-.33,2.45-1.17,3-1.21,2.25-.19,2.35,3.8,4.58,3.97.63.05,1.44-.13,2.08-.13.76,0,1.82.26,2.53.03,1.68-.54,2.08-3.97,4-3.94.5,0,3.03,1.08,3.39,1.44,1.28,1.26-.5,3.85,0,5.38.28.84,1.5,1.64,2.14,2.32.52.55,1.07,1.5,1.82,1.72,1.57.48,4.13-1.38,5.32.05.33.39,1.27,2.62,1.34,3.12.32,2.41-3.75,2.55-3.9,4.82-.05.78.15,1.73.13,2.57-.01.49-.14,1.1-.13,1.59.08,2.43,4.31,2.37,3.9,4.99-.08.49-.98,2.67-1.3,3.04-1.22,1.44-3.85-.52-5.4.09-.71.28-1.03.94-1.53,1.47-.61.65-2.08,1.76-2.32,2.5-.52,1.55,1.26,4.1.04,5.38-.33.35-2.52,1.33-3.02,1.41-1.14.19-2.32-.72-3.16-1.39s-1.88-1.52-1.99-2.71v-5c2.74-.68,5.01-2.45,6.12-5.07s.61-5.57.72-8.38c.03-.23-.31-.7-.52-.7h-2.47v-5.1s-.16-.36-.19-.42c-.46-.72-1.53-.72-2,0-.03.05-.19.39-.19.42v5.1h-6.23v-5.04s-.1-.3-.13-.36c-.4-.83-1.56-.89-2.06-.12-.03.05-.19.39-.19.42v5.1h-2.47Z"/><rect class="cls-1" width="64" height="64"/></svg>