<?xml version="1.0" encoding="UTF-8"?><svg id="Layer_1" xmlns="http://www.w3.org/2000/svg" viewBox="0 0 64 64"><defs><style>.cls-1{fill:none;}.cls-2{fill:#232639;}.cls-3{fill:#e6f0fc;}</style></defs><path class="cls-2" d="M58.73,60.31c-.02-.05-.06-.1-.11-.13l-16.99-13.34h0L29.35.91V.39C29.35.17,29.17,0,28.96,0c-.2,0-.37.15-.39.35l-.07.82h0l-10.69,44.82-12.41,8.96s-.05.04-.07.07c-.01.02-.03.04-.03.06,0,0,0,.02,0,.03-.02.02-.03.05-.03.08,0,.03,0,.05,0,.08v.03s0,.06,0,.09c0,0,0,.02,0,.03.02.05.05.1.1.14l.04.03s.02.02.04.03l7.5,3.8-2.02,2.96c-.06.09-.08.19-.06.3,0,.03.01.06.03.09.06.12.18.21.31.22l11.93,1.01h.07s.08-.01.12-.03l.05-.02h0l.05-.05.03-.03,4.66-4.61,1.46,2.62h0s.04.05.07.07h0s.03.04.05.05l.02.02c.06.03.13.05.19.05h.07s.08-.03.12-.05h0l.05-.04h0s.05-.05.07-.08l2.01-3.5,9.18,4.31c.06.03.13.04.2.03l16.71-1.84h.07l.07-.03s.07-.05.1-.09c.02-.02.04-.04.05-.07,0-.01.02-.02.02-.04,0-.01.01-.03.02-.04.06-.1.08-.22.05-.33Z"/><polygon class="cls-3" points="30.4 56.61 30.4 56.6 29.42 5.17 41.12 61.62 30.4 56.61"/><polygon class="cls-3" points="57.38 60.2 41.97 61.9 38.51 45.4 57.38 60.2"/><polygon class="cls-3" points="6.36 55.22 6.37 55.21 17.58 47.12 16.02 54.9 13.38 58.78 6.36 55.22"/><polygon class="cls-3" points="24.62 43.65 22.83 63.18 22.83 63.18 11.95 62.26 11.95 62.25 24.62 43.65"/><path class="cls-3" d="M27.99,6.63l-3.22,35.41h0l-7.62,11.2,1.39-6.95v-.03L27.99,6.63Z"/><rect class="cls-1" width="64" height="64"/></svg>
