<svg xmlns="http://www.w3.org/2000/svg" viewBox="0 0 64 64"><defs><style>.cls-1{fill:none;}.cls-2{fill:#f5d10e;}.cls-3{fill:#fff;}</style></defs><title>Easy Affiliate icon - Uncanny Automator</title><g id="Layer_2" data-name="Layer 2"><rect class="cls-1" width="64" height="64"/></g><g id="Layer_1" data-name="Layer 1"><path class="cls-2" d="M37.68,34.51c10.56,3.81,17.34,12.25,15,18.7s-12.55,7.12-23.12,3.15-17.67-10.43-15.35-17S27.11,30.7,37.68,34.51Z"/><path class="cls-3" d="M60.3,18.29c-1.49-3.81-7.1-4.14-10.57-3.48-4.79,1-8.92,4-12.38,7.45a7.27,7.27,0,0,0,.33-1.82A33.47,33.47,0,0,0,38,16.63c.16-4.47-.83-13.9-6.61-14.73-4-.66-7.1,4.14-8.26,7.45-1.65,4.63-1,9.93.33,14.57,1.16,4.63,3.14,8.93,7.27,11.75l.33.5c.17-.34.83.66,1,.33,5.29.49,10.24-1.33,15.19-3.15,1.16-.5,2.48-1,3.64-1.49C54.85,29.21,62.45,23.75,60.3,18.29Z"/><path d="M58.81,61l-5.94-2.48a14.35,14.35,0,0,0-2.81-10.93,6.74,6.74,0,0,0-3.3-2.31,8.31,8.31,0,0,0-3.47-.17,17.92,17.92,0,0,0-7.6-7.28,48,48,0,0,0,12.06-3.15A36.71,36.71,0,0,0,51.55,33c1.32-.66,13.37-7.12,10.24-15.23-1.82-5.3-8.92-5.3-12.23-4.64A23.43,23.43,0,0,0,39.82,18,3.56,3.56,0,0,1,40,16.63C40,15.14,40.32,1.4,31.9.08,26.61-.75,23,5.21,21.82,8.52,20.34,12.82,20.5,18,22,24.08a28.49,28.49,0,0,0,2.47,6.45,6.32,6.32,0,0,0-1.81-.16,9.65,9.65,0,0,0-3.14.66c-.66-2.48-3-4.3-5.61-5.13a7.59,7.59,0,0,0-6.28.83A14.39,14.39,0,0,0,4,31.86V32c0,.17,0,.17-.17.34a17.57,17.57,0,0,1,2-4.31c.66-1-1-2-1.65-1C1.84,30.87.68,35.5,2.83,39.64a9.38,9.38,0,0,0,5,4.47,8.38,8.38,0,0,0,6.27-.66c3.3-1.66,5.12-5,5.78-8.45a7.08,7.08,0,0,1,3.63-1,2.75,2.75,0,0,1,1.16.17c.16,0,.33.16.49.16a8.07,8.07,0,0,1,3,2.82c-4.13,1.32-7.6,4.8-9.58,8.6-1.82,3.81-2.64,10.1,1.82,12.58,3.79,2,7.26-2.31,8.91-5.13A20.91,20.91,0,0,0,32.39,40.3,11.59,11.59,0,0,1,38,43.61a8.83,8.83,0,0,1,2,2.32,12,12,0,0,0-5.45,4A13.51,13.51,0,0,0,32.23,59c.49,3,2.64,5.29,5.78,4.46s5.44-4.3,6.6-7.11a12,12,0,0,0,.17-8,4.94,4.94,0,0,1,1.48.33l.33.17c.17.16.5.33.66.5a4.34,4.34,0,0,1,1.16,1.32,9.62,9.62,0,0,1,1.32,3,13.29,13.29,0,0,1,.33,5.13v.5a1.8,1.8,0,0,0,1.16,2c2.31,1,4.62,1.82,6.93,2.65C59.31,64.3,60.46,61.65,58.81,61ZM25,34.18Zm2.64,13.9a21.54,21.54,0,0,1-2.48,4.8,5.25,5.25,0,0,1-.49.66l-.83.83-.33.33a.16.16,0,0,0-.16.17c-.17,0-.17.16-.33.16a.49.49,0,0,0-.33.17l-.5.16H22l-.17-.16s-.33-.17-.33-.33l-.33-.33a3.73,3.73,0,0,1-.82-1.82V50.56a14,14,0,0,1,6.27-9.27,6.47,6.47,0,0,1,2.15-1v2.15A23,23,0,0,1,27.6,48.08Zm4.79-13.74-.16-.16-.33-.33c-3.14-2-5.12-5.3-6.45-10.76S24,13.15,25.12,9.51C26,6.7,28.59,2.89,31.4,3.22c4.29.67,5.45,8.11,5.28,13.08a26.33,26.33,0,0,1-.33,3.64c-.16.66-.16,1.16-.33,1.82L34.7,27.39l4.13-4c4-4,7.76-6.29,11.56-7C53.36,16,58,16.3,59,19c1.48,4-4.3,8.77-8.75,11.09-1.16.49-2.15,1-3.31,1.49C41.64,33.18,37,34.67,32.39,34.34Zm8.09,22.18a12.27,12.27,0,0,1-2.31,2.82A4.29,4.29,0,0,1,37,60h-.66s-.33-.17-.16-.17a2.48,2.48,0,0,0-.33-.49,11,11,0,0,1-.33-1.16,9.11,9.11,0,0,1,4.79-8.94l1-.5A9.31,9.31,0,0,1,40.48,56.52Z"/></g></svg>