<svg id="Layer_2" data-name="Layer 2" xmlns="http://www.w3.org/2000/svg" viewBox="0 0 64 64"><title>SureCart icon - Uncanny Automator</title><circle cx="32" cy="32" r="32" style="fill:#08ba4f"/><path d="M31.81,35.71H16.33c-2.14.12-6-.74-4.52-3.62.75-1.48,2.09-2.46,3.22-3.62.3-.3.71-.17,1.07-.17q15.93,0,31.85,0c1.91-.09,5.43.78,4.33,3.35-.68,1.69-2.16,2.71-3.39,3.93-.31.3-.81.12-1.22.12Z" style="fill:#fff"/><path d="M52.05,16,44.14,24a1.18,1.18,0,0,1-.92.29H19.65c0-.12-.09-.24-.07-.26,2.83-2.65,5.06-6,9-7.28a13.49,13.49,0,0,1,4-.7c6,0,12,0,18,0Z" style="fill:#fff"/><path d="M11.92,47.94c2.71-2.7,5.22-5.19,7.71-7.7a1.43,1.43,0,0,1,1.08-.49l23.48,0c.06,0,.12.07.31.17-3.33,3.29-6.16,7.19-11.27,7.9a8.82,8.82,0,0,1-1.36.13H12.77C12.57,48,12.38,48,11.92,47.94Z" style="fill:#fff"/></svg>