<?xml version="1.0" encoding="UTF-8"?><svg id="a" xmlns="http://www.w3.org/2000/svg" viewBox="0 0 64 64"><title>Duplicator icon - Uncanny Automator</title><path d="m48.63,11.62l-2.78,2.82L6.28,54.46l5.74-19.77v8.97l31.22-30.99C27.67,2.84,7.05,16.64,9.71,34.89l-2.59,8.31-5.89-.26-1.23-4.39,5.64-3.97.08.27c-.21-1.93-.21-3.96.01-5.89l-.21.18L.01,25.55l1.22-4.25,6.71-.55.04.13c.69-1.5,1.53-2.93,2.48-4.27l-3-5.96,3.22-3.23,6.05,2.92c1.34-.95,2.78-1.79,4.29-2.48l.53-6.79,4.42-1.08,3.64,5.6c1.81-.16,3.7-.13,5.49.09l3.48-5.43,4.4,1.14.57,6.8c1.89.93,3.46,2.07,5.06,3.41,0,0,0,0,.01,0Z" style="fill:#ac0b0f;"/><path d="m58.16,34.8l5.72,3.92-1.22,4.4-7.06.53c-.64,1.29-1.37,2.53-2.21,3.69h.04s2.91,6.19,2.91,6.19l-3.3,3.14-5.94-3.07c-1.27.9-2.63,1.69-4.06,2.35l-.23,6.67-4.37,1.27-3.99-5.6c-1.64.16-3.34.16-4.98,0h.01s-3.8,5.7-3.8,5.7l-4.38-1.22-.44-6.81c-1.72-.8-3.33-1.78-4.82-2.92,0,0,0,0,0,0-.04-.02-.06-.03-.06-.03L58.32,10.35l-5.74,19.77v-8.97l-30.88,30.82c15.07,8.05,33.9-4.21,32.64-21.35l2.76-9.23,5.78.39,1.13,4.42-5.74,3.84h-.01c.11,1.56.09,3.19-.08,4.75Z" style="fill:#504e50;"/></svg>