<?xml version="1.0" encoding="UTF-8"?><svg id="Layer_1" xmlns="http://www.w3.org/2000/svg" viewBox="0 0 64 64"><path fill="#fe4715" class="cls-1" d="M61.55,26.75h-1.79c-.16,0-.33-.05-.54-.05-.71-.16-1.36-.43-2.01-.76-.16-.11-.33-.16-.44-.27-.05-.05-.16-.11-.22-.16-.11-.05-.16-.11-.27-.22-.27-.22-.49-.43-.76-.71l-.05-.05c-.16-.16-.27-.33-.38-.49-.16-.22-.27-.43-.43-.65-.16-.33-.33-.65-.49-1.03-.05-.22-.16-.43-.22-.65-.05-.16-.05-.33-.11-.43.05-.16,0-.38,0-.6v-.16c0-.65.05-1.25.22-1.85.27-.92.71-1.79,1.2-2.61.11-.11.22-.22.27-.38l.98-1.03c.82-.82.87-2.18.11-3.05-.98-1.2-2.07-2.34-3.26-3.37L20.39,40.73c-.54.49-1.41.16-1.41-.6.05-5.71.16-15.44.22-20.34,0-.82,1.09-1.09,1.52-.38l3.43,5.98c.27.49.92.54,1.31.16l15.28-15.28s-.05,0-.05-.05c-.22-.11-.38-.22-.6-.33-.11-.11-.27-.16-.38-.27-.16-.11-.33-.27-.49-.38q-.05-.05-.11-.11c-.49-.49-.82-.98-1.14-1.52-.49-.92-.82-1.9-.98-2.88-.05-.16-.05-.38-.11-.54v-1.74c0-1.25-.92-2.23-2.12-2.34-.92-.05-1.85-.11-2.77-.11-.87,0-1.79.05-2.66.11-1.2.11-2.12,1.09-2.12,2.28,0,.71-.05,1.52-.22,2.34-.16.98-.49,1.96-.98,2.88-.27.54-.65,1.03-1.14,1.47q-.05.05-.11.11c-.16.16-.33.27-.49.38-.11.11-.27.16-.38.27-.22.11-.38.22-.6.33-.33.16-.71.33-1.03.38-.27.11-.49.16-.76.16-.22.05-.38.05-.6.05h-1.09c-.11,0-.22,0-.33-.05-.11,0-.22-.05-.27-.05-.16-.05-.33-.05-.49-.11-.71-.22-1.36-.49-1.96-.82-.33-.16-.6-.38-.87-.6-.11-.11-.22-.16-.33-.27l-1.09-1.14c-.82-.87-2.23-.98-3.15-.22-1.47,1.25-2.83,2.61-4.02,4.08-.76.92-.65,2.23.11,3.05l.98,1.03c.11.11.22.22.27.38.49.76.98,1.69,1.2,2.61.16.6.22,1.2.22,1.85v.16c0,.22-.05.38-.05.6,0,.16-.05.33-.11.43-.05.22-.11.43-.22.65-.11.38-.27.71-.49,1.03-.11.22-.27.44-.44.65-.11.16-.27.33-.38.49l-.05.05c-.22.27-.49.49-.76.71-.11.05-.16.16-.27.22-.05.05-.16.11-.22.16-.16.11-.33.16-.44.27-.65.33-1.31.6-2.01.76-.16,0-.33.05-.54.05h-1.79c-1.14,0-2.18.87-2.28,2.07.05,1.03,0,2.12,0,3.15,0,.87.05,1.74.11,2.61.11,1.2,1.03,2.12,2.23,2.12l1.63.05c.16,0,.33,0,.49.05.65.16,1.25.38,1.85.65.54.27,1.03.65,1.52,1.09q.05.05.11.11c.16.16.27.33.38.43.11.11.22.22.27.38.11.22.27.38.38.6.16.33.33.65.44,1.03.11.27.16.49.22.76.05.22.05.38.11.6v.05c.05.33.05.71,0,1.03v.33c0,.11,0,.22-.05.27-.05.16-.05.33-.11.49-.16.71-.44,1.36-.76,1.96-.11.22-.22.43-.38.6-.11.11-.16.27-.33.38l-1.03,1.14c-.82.82-.92,2.12-.22,3.05,1.14,1.47,2.45,2.83,3.81,4.02L44.15,22.89c.54-.49,1.41-.16,1.41.6-.05,5.71-.16,15.44-.22,20.34,0,.82-1.09,1.09-1.52.38l-3.43-5.98c-.27-.49-.92-.54-1.31-.16l-15.93,15.93s.05,0,.05.05c.16.11.33.22.49.38l.05.05c.27.22.49.43.71.71.05.11.16.16.22.27.05.05.11.16.16.22.11.16.16.27.27.43.38.6.65,1.25.82,1.96.33,1.2.43,2.39.43,3.43,0,1.2.92,2.17,2.07,2.28,1.14.11,2.34.22,3.53.22s2.34-.05,3.53-.22c1.14-.11,2.07-1.09,2.07-2.28,0-1.03.11-2.28.43-3.43.16-.65.43-1.31.82-1.96.11-.16.16-.27.27-.43.05-.05.11-.16.16-.22.05-.11.16-.16.22-.27.22-.27.43-.49.71-.71l.05-.05c.16-.11.33-.27.49-.38.22-.16.44-.27.71-.38.33-.16.65-.33,1.03-.43.22-.05.44-.11.65-.16.16-.05.33-.05.49-.05.22,0,.38-.05.6-.05h.16c.65,0,1.25.11,1.85.27.82.27,1.58.65,2.28,1.14.11.11.27.22.38.33l1.14,1.2c.87.87,2.23.92,3.15.16,1.47-1.31,2.77-2.66,3.97-4.19.71-.92.6-2.23-.22-3.05l-1.03-1.03c-.11-.11-.22-.22-.33-.38-.11-.22-.27-.38-.38-.6-.33-.6-.6-1.25-.76-1.96-.05-.16-.11-.33-.11-.49,0-.11-.05-.22-.05-.27v-1.41c0-.22.05-.38.11-.6.05-.27.11-.49.22-.76.11-.33.27-.71.43-1.03.11-.22.22-.38.38-.6.11-.11.16-.27.27-.38.11-.16.27-.33.38-.43q.05-.05.11-.11c.43-.43.98-.82,1.52-1.09.6-.33,1.2-.54,1.85-.65.16-.05.33-.05.49-.05l1.63-.05c1.2-.05,2.12-.98,2.23-2.12.05-.87.11-1.74.11-2.61,0-1.09-.05-2.12-.16-3.15-.16-1.36-1.14-2.23-2.28-2.28Z"/></svg>