<?xml version="1.0" encoding="UTF-8"?><svg id="a" xmlns="http://www.w3.org/2000/svg" xmlns:xlink="http://www.w3.org/1999/xlink" viewBox="0 0 64 64"><title>Kadence icon - Uncanny Automator</title><defs><linearGradient id="b" x1=".98" y1="64.19" x2="1.02" y2="64.19" gradientTransform="translate(-56798.46 -1111.2) rotate(90) scale(1142.5 -885.4)" gradientUnits="userSpaceOnUse"><stop offset="0" stop-color="#0073e6"/><stop offset="1" stop-color="#005ab3"/></linearGradient></defs><rect width="64" height="64" style="fill:none; stroke-width:0px;"/><path id="c" d="M47.62,56.8h-14.06c-1.52,0-2.76-1.24-2.76-2.76s1.24-2.76,2.76-2.76h9.19c1.43-.1,2.57-1.29,2.57-2.75s-1.24-2.76-2.76-2.76h-14.37c-1.52,0-2.75-1.23-2.75-2.75s1.24-2.76,2.75-2.76h1.74,0s2.58,0,2.58,0c1.52,0,2.75-1.23,2.75-2.75s-1.23-2.75-2.75-2.75h-6.49s-13.61,0-13.61,0c-1.52,0-2.75-1.23-2.75-2.75s1.23-2.75,2.75-2.75h13.61s5.33,0,5.33,0c1.52,0,2.75-1.23,2.75-2.75s-1.23-2.75-2.75-2.75h-1.21,0-5.66c-1.52,0-2.75-1.23-2.75-2.75s1.23-2.76,2.75-2.76h13.06c.06,0,.13,0,.19,0h4.67c1.52,0,2.76-1.24,2.76-2.76s-1.24-2.76-2.76-2.76h-6.86c-1.43-.1-2.56-1.3-2.56-2.75s1.24-2.76,2.76-2.76h10.81s.02,0,.03,0h12.75l-22.34,24.4,27.02,25.21h-16.31s-.05,0-.06,0h0ZM21.16,51.28c1.52,0,2.75,1.23,2.75,2.75s-1.23,2.75-2.75,2.75h-10.09c-1.52,0-2.75-1.23-2.75-2.75s1.23-2.75,2.75-2.75h10.09ZM17.16,40.26c1.52,0,2.76,1.24,2.76,2.76s-1.24,2.76-2.76,2.76-2.76-1.24-2.76-2.76,1.24-2.76,2.76-2.76h0ZM2.76,29.24c1.52,0,2.76,1.24,2.76,2.76s-1.24,2.76-2.76,2.76-2.76-1.24-2.76-2.76,1.24-2.76,2.76-2.76ZM13.44,18.22c1.52,0,2.76,1.24,2.76,2.76s-1.24,2.76-2.76,2.76-2.76-1.24-2.76-2.76,1.24-2.76,2.76-2.76h0ZM23.33,7.2c1.52,0,2.75,1.23,2.75,2.75s-1.23,2.75-2.75,2.75h-6.38c-1.52,0-2.75-1.23-2.75-2.75s1.23-2.75,2.75-2.75h6.38Z" style="fill:url(#b); fill-rule:evenodd; stroke-width:0px;"/></svg>