<?xml version="1.0" encoding="UTF-8"?><svg id="a" xmlns="http://www.w3.org/2000/svg" viewBox="0 0 64 64"><title>Brevo icon - Uncanny Automator</title><circle cx="32" cy="32" r="32" style="fill:#0b996e;"/><path d="m43.83,28.07c2.05-2.05,3.01-4.41,3.01-7.29,0-5.95-4.29-9.91-10.74-9.91h-15.86v42.28h12.79c9.72,0,17.01-6.08,17.01-14.14,0-4.41-2.24-8.38-6.2-10.94h0Zm-17.85-11.71h9.47c3.2,0,5.31,1.85,5.31,4.67,0,3.2-2.75,5.63-8.38,7.48-3.84,1.22-5.56,2.24-6.2,3.45h-.19v-15.61Zm6.52,31.28h-6.52v-6.52c0-2.88,2.43-5.69,5.82-6.78,3.01-1.02,5.5-2.05,7.61-3.13,2.81,1.67,4.54,4.54,4.54,7.55,0,5.12-4.86,8.89-11.45,8.89h0Z" style="fill:#fff;"/></svg>