<svg xmlns="http://www.w3.org/2000/svg" viewBox="0 0 64 64"><defs><style>.cls-1{fill:none;}.cls-2{fill:#d24842;}</style></defs><title>PeepSo icon - Uncanny Automator</title><g id="Layer_2" data-name="Layer 2"><rect class="cls-1" width="64" height="64"/></g><g id="Layer_1" data-name="Layer 1"><path class="cls-2" d="M43.94,4.91c4.73,1.07,5.59,8.1.81,9.71C36.83,17,35.94,4.07,43.94,4.91Z"/><path class="cls-2" d="M21.67,4.91c4.66,1,5.7,7.86,1,9.63C14.82,17.32,13.54,4.1,21.67,4.91Z"/><path class="cls-2" d="M32.33,37a33.85,33.85,0,0,1,4.14.68A3.26,3.26,0,0,1,39,41.86a58.65,58.65,0,0,0-1.62,13.2,3.48,3.48,0,0,1-1.23,2.36c-3,2.34-5.5,2.24-8.4-.07A3.46,3.46,0,0,1,26.59,55a59.94,59.94,0,0,0-1.51-12.8c-.59-2.65.53-4.28,3.18-4.75C29.5,37.19,30.77,37.13,32.33,37Z"/><path class="cls-2" d="M14,34.24c-.38,2.28-.86,4.67-1.17,7.08a55,55,0,0,0-.41,5.74,5.25,5.25,0,0,1-6.29,5c-3.54-.88-4.73-2.36-4.77-5.71A63.37,63.37,0,0,0,.17,35.94c-.65-3.61.5-5.45,4.21-5.59a36.18,36.18,0,0,1,7,.34C13.27,31,14,32.27,14,34.24Z"/><path class="cls-2" d="M64,34.49c-.29,1.58-.73,3.45-1,5.35-.29,2.37-.48,4.75-.55,7.14a5.34,5.34,0,0,1-6.24,5.11,11,11,0,0,1-3.19-1.39,3.27,3.27,0,0,1-1.5-2.83c-.4-4.14-.86-8.28-1.49-12.39-.44-2.8.33-4.6,3.11-4.93a36,36,0,0,1,8.23.16C63.26,30.93,64.05,32.34,64,34.49Z"/><path class="cls-2" d="M37.85,35.47C40.06,33,41.07,30.22,40,27.18a11.69,11.69,0,0,0-2.78-4.27c-1.92-1.91-1.66-5.19,1-5.89a29.33,29.33,0,0,1,7.21-.6,9.19,9.19,0,0,1,3.21.89,1.17,1.17,0,0,1,.65,1.81C48.4,21,48.67,23,48.88,25a27.73,27.73,0,0,1-.48,6.06c-.16,1.37-.4,2.72-.63,4.07-.07.44-.06,1-.33,1.27-1.89,1.78-5.23,2.84-7.73.54C39.16,36.47,38.56,36,37.85,35.47Z"/><path class="cls-2" d="M26.1,35.51a19.52,19.52,0,0,1-2.89,2.21c-2.44,1.23-4.67.39-6.61-1.19-.3-.25-.33-.89-.37-1.35-.08-.88,0-1.77-.14-2.63-.27-1.64-.75-3.24-1-4.88-.14-1.08.11-2.21.05-3.32a32.28,32.28,0,0,0-.53-5.21c-.21-.93-.11-1.5.66-1.81a9,9,0,0,1,3.2-.89,47,47,0,0,1,6.81.39,2.79,2.79,0,0,1,2.51,2.5A3.54,3.54,0,0,1,26.55,23a8.19,8.19,0,0,0-1.39,11.23C25.43,34.65,25.72,35,26.1,35.51Z"/><path class="cls-2" d="M6.91,28.54A6,6,0,0,1,.85,22.36a6.15,6.15,0,1,1,12.29.15A6.07,6.07,0,0,1,6.91,28.54Z"/><path class="cls-2" d="M63.08,22.42A5.92,5.92,0,0,1,57,28.54a6.06,6.06,0,0,1-6.2-6.08A6.24,6.24,0,0,1,57,16.27,6.05,6.05,0,0,1,63.08,22.42Z"/><path class="cls-2" d="M32,23.26a6,6,0,0,1,6.09,6.16,6,6,0,0,1-6.16,6.12,6.08,6.08,0,0,1-6.05-6.12A6,6,0,0,1,32,23.26Z"/></g></svg>