<svg xmlns="http://www.w3.org/2000/svg" viewBox="0 0 64 64.01"><defs><style>.a{fill:none;}.b{fill:#ff7a59;}</style></defs><title>HubSpot icon - Uncanny Automator</title><rect class="a" width="64" height="64"/><path class="b" d="M48.36,21.08V13.46a5.84,5.84,0,0,0,3.39-5.29V8a5.87,5.87,0,0,0-5.87-5.87H45.7A5.87,5.87,0,0,0,39.83,8v.17a5.88,5.88,0,0,0,3.39,5.29v7.62a16.82,16.82,0,0,0-7.91,3.48L14.41,8.28a6.44,6.44,0,0,0,.24-1.64A6.62,6.62,0,1,0,8,13.23H8a6.37,6.37,0,0,0,3.25-.88l20.59,16a16.66,16.66,0,0,0,.25,18.78l-6.26,6.26a5.85,5.85,0,0,0-1.56-.25,5.43,5.43,0,1,0,5.43,5.43A5.19,5.19,0,0,0,29.48,57l6.19-6.2A16.7,16.7,0,1,0,48.36,21.08M45.79,46.15A8.57,8.57,0,1,1,45.33,29h.46a8.57,8.57,0,0,1,0,17.12" transform="translate(0 0)"/></svg>