<?xml version="1.0" encoding="utf-8"?><svg xmlns="http://www.w3.org/2000/svg" viewBox="0 0 61.13 64"><defs><style>.cls-1{fill:#ff7a59;}</style></defs><title>Hubspot icon - Uncanny Automator</title><g id="Layer_2" data-name="Layer 2"><path class="cls-1" d="M48.37,21.07V13.45a5.87,5.87,0,0,0,3.39-5.29V8a5.87,5.87,0,0,0-5.87-5.87h-.18A5.87,5.87,0,0,0,39.84,8v.17a5.87,5.87,0,0,0,3.39,5.29v7.62a16.78,16.78,0,0,0-7.91,3.48L14.42,8.27a6.57,6.57,0,0,0,.24-1.64A6.62,6.62,0,1,0,8,13.22H8a6.52,6.52,0,0,0,3.25-.88l20.59,16a16.66,16.66,0,0,0,.25,18.78l-6.26,6.26a5.53,5.53,0,0,0-1.56-.25,5.43,5.43,0,1,0,5.43,5.43A5.53,5.53,0,0,0,29.49,57l6.19-6.2A16.7,16.7,0,1,0,48.37,21.07M45.8,46.14A8.57,8.57,0,0,1,45.34,29h.46a8.57,8.57,0,0,1,0,17.12" transform="translate(-1.43 0)"/></g></svg>