<svg xmlns="http://www.w3.org/2000/svg" viewBox="0 0 52.48 64"><defs><style>.a{fill:#0f1031;}</style></defs><title>The Events Calendar icon - Uncanny Automator</title><path class="a" d="M34.49,41.73A14.17,14.17,0,0,1,29,43c-1.85-.1-2.64-.9-2.64-1.2s.69-.89,2.82-1c.33,0,.69,0,1.05,0a7.81,7.81,0,0,1,4.29,1.06m4,18.41c-7.79,2.11-16,.17-21-5C14,51.56,12.82,47,14.27,42.75,17.2,34.13,31.22,29,40.19,29h.29c3.34.05,5.65.84,6,2.07.22.69-.29,1.9-1.36,3.23a25.34,25.34,0,0,1-7.64,6.05c-1.85-2-4.8-2.88-8.58-2.61-4.21.3-5.7,2.3-5.68,4.07,0,1.94,1.93,4,5.55,4.2a17.39,17.39,0,0,0,7.45-1.67,11.53,11.53,0,0,1-.36,5.76A1.51,1.51,0,0,0,37,51.91a1.53,1.53,0,0,0,1.88-1.07c.86-3.16.93-5.81.2-7.92a29.74,29.74,0,0,0,8.52-6.79c1.79-2.24,2.42-4.25,1.88-6a5,5,0,0,0-2.7-3C46.87,15.83,48.92,8,50.77,8h0a1.47,1.47,0,0,1,1.09.5c1.5,1.46,3.29,6.27,3.29,20.85,0,14.39-1.26,26.64-16.69,30.82M23.76,26.58a.41.41,0,0,0,0-.11c0-.06,0-.11,0-.17-.22-3.1.16-5.55,1.12-6.86a2.61,2.61,0,0,1,1.89-1.1,3.32,3.32,0,0,1,2.83.89c1.49,1.41,2.37,4.46,2.29,7.8a42.65,42.65,0,0,0-7.69,2.64,31.13,31.13,0,0,1-.42-3.09M37,21.31a2.89,2.89,0,0,1,2.21-.9,3.12,3.12,0,0,1,2.46.83c.84.85,1.3,2.49,1.36,4.88a20.13,20.13,0,0,0-2.55-.18H40.2a33.08,33.08,0,0,0-4.49.34c-.07-2.19.4-4,1.33-5m17-15A4.6,4.6,0,0,0,50.78,5h0c-4.06,0-5.46,6-6.16,10.43-.21,1.31-.37,2.65-.49,3.94l-.18-.19a6.3,6.3,0,0,0-4.67-1.74,6,6,0,0,0-4.48,1.88,7,7,0,0,0-.87,1.19,8.94,8.94,0,0,0-2.19-3.41,6.43,6.43,0,0,0-5.33-1.71,5.76,5.76,0,0,0-4,2.33v0C20.66,9.43,17.45-.55,11.85,0A5,5,0,0,0,8.33,2.13C4,7.89,6,25,7.92,34.24a1.53,1.53,0,0,0,1.5,1.22,1.63,1.63,0,0,0,.31,0,1.53,1.53,0,0,0,1.21-1.78C7.79,18.22,8.49,7,10.81,3.92A1.88,1.88,0,0,1,12.17,3c3.1-.32,6.91,10.28,8.51,23.66a37.85,37.85,0,0,0,.63,4.41v0c-4.63,2.62-8.45,6.2-10,10.67-1.83,5.38-.4,11,3.91,15.48a23.54,23.54,0,0,0,17,6.73,27.4,27.4,0,0,0,7.08-.94c17.5-4.74,19-18.67,19-33.74,0-12.89-1.33-20.2-4.2-23" transform="translate(-5.76 0)"/></svg>