<svg xmlns="http://www.w3.org/2000/svg" xmlns:xlink="http://www.w3.org/1999/xlink" viewBox="0 0 300.99 290.61"><defs><style>.a{fill:none;}.b{isolation:isolate;}.c{fill:#f2eeed;}.d{fill:#010101;}.e{clip-path:url(#a);}.f{mix-blend-mode:multiply;}.g{fill:#d9d5cc;}.h{fill:#3b8bcb;}.i{fill:#fab399;}.j{fill:#fff;}.k{fill:#fcc49a;}.l,.m{fill:#977c6a;}.m{stroke:#010101;stroke-linecap:round;stroke-linejoin:round;stroke-width:4.5px;}.n{opacity:0.5;}.o{fill:#bce5ed;}.p{fill:#ffe3b2;}</style><clipPath id="a" transform="translate(0.99 -4.25)"><circle class="a" cx="139.91" cy="207.49" r="82.92"/></clipPath></defs><title>user-selector-existing-user</title><g class="b"><circle class="c" cx="140.9" cy="203.24" r="84.59"/><path class="d" d="M139.91,124.82a82.67,82.67,0,1,1-82.67,82.67,82.76,82.76,0,0,1,82.67-82.67m0-3.84a86.51,86.51,0,1,0,86.51,86.51A86.61,86.61,0,0,0,139.91,121Z" transform="translate(0.99 -4.25)"/><g class="e"><g class="f"><path class="g" d="M157.11,126.36A82.93,82.93,0,0,1,101,280.72a82.93,82.93,0,1,0,56.12-154.36Z" transform="translate(0.99 -4.25)"/></g><g class="f"><circle class="g" cx="93.02" cy="188.43" r="14.81"/></g><g class="f"><circle class="g" cx="163.85" cy="132.9" r="21.97"/></g><g class="f"><circle class="g" cx="157.68" cy="190.41" r="14.81"/></g><g class="f"><circle class="g" cx="55.01" cy="226.44" r="14.81"/></g><g class="f"><circle class="g" cx="129.05" cy="157.34" r="4.94"/></g><g class="f"><circle class="g" cx="100.91" cy="209.16" r="4.94"/></g><g class="f"><circle class="g" cx="117.2" cy="260" r="4.94"/></g><g class="f"><circle class="g" cx="83.15" cy="147.46" r="4.94"/></g><g class="f"><circle class="g" cx="95.98" cy="274.81" r="15.8"/></g><g class="f"><circle class="g" cx="155.7" cy="252.6" r="23.69"/></g><g class="f"><circle class="g" cx="198.65" cy="200.77" r="9.38"/></g></g><line class="h" x1="80.95" y1="87.05" x2="103.43" y2="141.85"/><path class="d" d="M102.44,148a1.91,1.91,0,0,1-1.77-1.19L78.19,92a1.92,1.92,0,1,1,3.55-1.45l22.48,54.8a1.93,1.93,0,0,1-1,2.51A2.06,2.06,0,0,1,102.44,148Z" transform="translate(0.99 -4.25)"/><path class="h" d="M22.93,125.55a1.92,1.92,0,0,1-1.33-3.31L72.06,73.83a1.9,1.9,0,0,1,1.33-.53,1.81,1.81,0,0,1,.4,0,1.91,1.91,0,0,1,1.38,1.15l19.45,47.43a1.9,1.9,0,0,1-.17,1.79,1.92,1.92,0,0,1-1.58.86Z" transform="translate(0.99 -4.25)"/><path class="d" d="M73.39,75.22l19.46,47.43-69.92,1,50.46-48.4m0-3.85a3.86,3.86,0,0,0-2.66,1.07L20.27,120.85a3.84,3.84,0,0,0,2.66,6.62H23l69.92-1a3.84,3.84,0,0,0,3.5-5.3L77,73.76a3.85,3.85,0,0,0-2.76-2.3,3.63,3.63,0,0,0-.8-.09Z" transform="translate(0.99 -4.25)"/><g class="f"><path class="g" d="M92.85,122.65,84,101,73,99.29s-7.12,12.3-7.77,12.94-18.13-2.91-18.13-2.91l-10,10L24.59,123.6Z" transform="translate(0.99 -4.25)"/></g><g class="f"><path class="g" d="M173.36,184.27a5,5,0,0,1-5-4.38c-8.32-63.95,19.26-87.13,20.43-88.09a5,5,0,0,1,6.37,7.8C195,99.74,189,104.93,184,117c-4.74,11.35-9.56,31.25-5.62,61.61a5,5,0,0,1-4.34,5.64A4.82,4.82,0,0,1,173.36,184.27Z" transform="translate(0.99 -4.25)"/></g><path class="h" d="M238.58,217.76a7.17,7.17,0,0,1-7.16-7.16V180.9l-1.39-.56V210.6a7.16,7.16,0,1,1-14.31,0V180.9l-33.19-13.37a7.13,7.13,0,0,1-4.48-6.53v-9.53a1.92,1.92,0,0,1,1.92-1.92h31.39a1.92,1.92,0,0,1,1.93,1.92v6.7l28,11.26a7.13,7.13,0,0,1,4.48,6.64V210.6A7.16,7.16,0,0,1,238.58,217.76Z" transform="translate(0.99 -4.25)"/><path class="d" d="M211.36,151.47v8l29.17,11.75a5.24,5.24,0,0,1,3.28,4.86V210.6a5.24,5.24,0,0,1-10.47,0v-31l-5.23-2.11V210.6a5.24,5.24,0,0,1-10.47,0v-31l-34.39-13.86a5.23,5.23,0,0,1-3.28-4.85h0v-9.42h31.39m0-3.84H180a3.84,3.84,0,0,0-3.85,3.84v9.42c0,.06,0,.12,0,.18a9,9,0,0,0,5.68,8.24l32,12.88V210.6a9.08,9.08,0,0,0,16.93,4.56,9.07,9.07,0,0,0,16.92-4.56V176.07a9,9,0,0,0-5.68-8.42l-26.76-10.78v-5.4a3.84,3.84,0,0,0-3.85-3.84Z" transform="translate(0.99 -4.25)"/><g class="f"><path class="g" d="M240.53,171.21l-29.17-11.75v-8h-8.63v10.78L227.2,172l2.65,6.12,3.47,1.22v.21h0v28.53h10.47V176.07A5.24,5.24,0,0,0,240.53,171.21Z" transform="translate(0.99 -4.25)"/></g><path class="d" d="M229.16,180.25a1,1,0,0,1-1-1v-3.14a4.18,4.18,0,0,0-2.62-3.89l-21.68-8.73a1,1,0,0,1,.78-1.94l21.68,8.73a6.25,6.25,0,0,1,3.93,5.83v3.14A1,1,0,0,1,229.16,180.25Z" transform="translate(0.99 -4.25)"/><path class="g" d="M179.07,131.06a13.26,13.26,0,0,1-13.24-13.24V97.35a13.25,13.25,0,0,1,13.24-13.24h11.52A1.92,1.92,0,0,1,192.51,86v43.11a1.92,1.92,0,0,1-1.92,1.92Z" transform="translate(0.99 -4.25)"/><path class="d" d="M190.59,86v43.11H179.07a11.32,11.32,0,0,1-11.32-11.32V97.35A11.32,11.32,0,0,1,179.07,86h11.52m0-3.85H179.07a15.18,15.18,0,0,0-15.16,15.17v20.47A15.18,15.18,0,0,0,179.07,133h11.52a3.85,3.85,0,0,0,3.85-3.84V86a3.85,3.85,0,0,0-3.85-3.85Z" transform="translate(0.99 -4.25)"/><path class="g" d="M197.28,131.06a1.92,1.92,0,0,1-1.93-1.92V86a1.92,1.92,0,0,1,1.93-1.92h11.51A13.25,13.25,0,0,1,222,97.35v20.47a13.26,13.26,0,0,1-13.24,13.24Z" transform="translate(0.99 -4.25)"/><path class="d" d="M208.79,86a11.32,11.32,0,0,1,11.32,11.32v20.47a11.32,11.32,0,0,1-11.32,11.32H197.28V86h11.51m0-3.85H197.28A3.85,3.85,0,0,0,193.43,86v43.11a3.84,3.84,0,0,0,3.85,3.84h11.51A15.18,15.18,0,0,0,224,117.82V97.35a15.19,15.19,0,0,0-15.17-15.17Z" transform="translate(0.99 -4.25)"/><path class="h" d="M226.12,142.27a22,22,0,0,1-6.47-1c-7.67-2.36-13.19-10.66-16.87-25.38a130.64,130.64,0,0,1-3.17-18.8,6.71,6.71,0,0,1,6.13-7.24l.56,0A6.75,6.75,0,0,1,213,96a121.46,121.46,0,0,0,2.85,16.76c3.58,14.26,7.6,15.65,7.77,15.7a8.7,8.7,0,0,0,2.58.38c6.35,0,13.65-6.21,15.93-8.6a6.71,6.71,0,0,1,9.81,9.15C251.43,129.93,239.78,142.27,226.12,142.27Z" transform="translate(0.99 -4.25)"/><path class="d" d="M206.3,91.78a4.79,4.79,0,0,1,4.77,4.39A119.84,119.84,0,0,0,214,113.23c3.61,14.37,7.86,16.71,9.07,17.08a10.63,10.63,0,0,0,3.15.46c8.49,0,17.23-9.1,17.33-9.21a4.79,4.79,0,1,1,7,6.53c-.53.57-11.58,12.26-24.4,12.26a20.07,20.07,0,0,1-5.91-.88c-7-2.15-12.07-10-15.57-24A129.8,129.8,0,0,1,201.52,97a4.79,4.79,0,0,1,4.38-5.17h.4m0-3.85q-.36,0-.72,0a8.65,8.65,0,0,0-7.89,9.32,133.77,133.77,0,0,0,3.22,19.1c3.86,15.43,9.8,24.19,18.17,26.76a23.82,23.82,0,0,0,7,1.05c14.25,0,25.93-12.1,27.21-13.48A8.63,8.63,0,0,0,240.69,119c-2.11,2.2-8.88,8-14.51,8a6.74,6.74,0,0,1-1.94-.27c-.32-.18-3.52-2.31-6.55-14.36a116.64,116.64,0,0,1-2.79-16.46,8.69,8.69,0,0,0-8.6-7.91Z" transform="translate(0.99 -4.25)"/><g class="f"><path class="g" d="M226.12,140.35a20.07,20.07,0,0,1-5.91-.88c-7-2.15-12.07-10-15.57-24A129.8,129.8,0,0,1,201.52,97a4.79,4.79,0,0,1,9.55-.79h0A119.84,119.84,0,0,0,214,113.23c3.61,14.37,7.86,16.71,9.07,17.08,9.33,2.87,20.37-8.63,20.48-8.75a4.79,4.79,0,1,1,7,6.53C250,128.66,238.94,140.35,226.12,140.35Z" transform="translate(0.99 -4.25)"/></g><path class="h" d="M165.09,183.28a6.73,6.73,0,0,1-6.65-5.85c-8.05-61.92,19-84.66,20.15-85.6a6.8,6.8,0,0,1,4.23-1.5,6.72,6.72,0,0,1,4.27,11.9S181.56,107,177,118c-4.43,10.58-8.92,29.18-5.22,57.66a6.7,6.7,0,0,1-5.79,7.52A6.15,6.15,0,0,1,165.09,183.28Z" transform="translate(0.99 -4.25)"/><path class="d" d="M182.82,92.25a4.8,4.8,0,0,1,3,8.5c-.15.13-5.87,5.07-10.67,16.55-4.51,10.8-9.1,29.74-5.34,58.65a4.79,4.79,0,0,1-4.13,5.36,4.46,4.46,0,0,1-.63.05,4.79,4.79,0,0,1-4.74-4.18c-7.92-60.87,18.33-82.94,19.45-83.85a4.8,4.8,0,0,1,3-1.08m0-3.84h0a8.71,8.71,0,0,0-5.44,1.93c-.82.67-8.18,6.9-14.22,20.9-7.78,18-10,40.39-6.62,66.44a8.64,8.64,0,0,0,8.55,7.52,10.55,10.55,0,0,0,1.13-.07,8.64,8.64,0,0,0,7.44-9.68c-3.65-28.06.75-46.31,5.08-56.67s9.33-14.86,9.61-15.1a8.64,8.64,0,0,0-5.53-15.27Z" transform="translate(0.99 -4.25)"/><rect class="c" x="216.12" y="204.41" width="16.3" height="44.56" rx="2.88" ry="2.88"/><path class="d" d="M228.55,210.58a1,1,0,0,1,1,.95v38.81a1,1,0,0,1-1,.95H218a1,1,0,0,1-.95-.95V211.53a1,1,0,0,1,.95-.95h10.54m0-3.85H218a4.81,4.81,0,0,0-4.8,4.8v38.81a4.81,4.81,0,0,0,4.8,4.8h10.54a4.81,4.81,0,0,0,4.8-4.8V211.53a4.81,4.81,0,0,0-4.8-4.8Z" transform="translate(0.99 -4.25)"/><rect class="c" x="232.89" y="204.41" width="15.34" height="44.56" rx="2.88" ry="2.88"/><path class="d" d="M244.36,210.58a1,1,0,0,1,1,.95v38.81a1,1,0,0,1-1,.95h-9.58a1,1,0,0,1-1-.95V211.53a1,1,0,0,1,1-.95h9.58m0-3.85h-9.58a4.81,4.81,0,0,0-4.8,4.8v38.81a4.81,4.81,0,0,0,4.8,4.8h9.58a4.81,4.81,0,0,0,4.8-4.8V211.53a4.81,4.81,0,0,0-4.8-4.8Z" transform="translate(0.99 -4.25)"/><path class="h" d="M178,156.45a2.88,2.88,0,0,1-2.88-2.88V101.12a18,18,0,0,1,18-18h2.4a18,18,0,0,1,18,18v52.45a2.89,2.89,0,0,1-2.88,2.88Z" transform="translate(0.99 -4.25)"/><path class="d" d="M195.52,85.07a16,16,0,0,1,16,16.05v52.45a1,1,0,0,1-.95,1H178a1,1,0,0,1-1-1V101.12a16,16,0,0,1,16.05-16.05h2.4m0-3.84h-2.4a19.91,19.91,0,0,0-19.89,19.89v52.45a4.8,4.8,0,0,0,4.8,4.8h32.58a4.81,4.81,0,0,0,4.8-4.8V101.12a19.92,19.92,0,0,0-19.89-19.89Z" transform="translate(0.99 -4.25)"/><g class="f"><path class="g" d="M210.63,95.73h0a15.85,15.85,0,0,0-3.17-5.32h0c-.17-.19-.34-.37-.52-.55h0c-.18-.18-.36-.36-.55-.53h0l-.56-.5h0l-.59-.47h0c-.2-.15-.4-.3-.61-.44h0c-.21-.15-.42-.28-.63-.42h0l-.66-.38h0a16.06,16.06,0,0,0-7.71-2h-2.4a15.61,15.61,0,0,0-2.17.15,15.87,15.87,0,0,1,6.16,2.18c-.46,0-.91,0-1.38,0a30.85,30.85,0,0,1-8.59-1.22,16.13,16.13,0,0,0-8.74,8.5,42,42,0,0,0,17.33,3.74,41.55,41.55,0,0,0,8.7-.92,16.23,16.23,0,0,1,.4,3.58v52.45a1,1,0,0,1-1,1h6.73a1,1,0,0,0,.95-1V101.12A16,16,0,0,0,210.63,95.73Z" transform="translate(0.99 -4.25)"/></g><path class="c" d="M177.07,151.18v2.39a1,1,0,0,0,1,1h32.58a1,1,0,0,0,.95-1v-2.39Z" transform="translate(0.99 -4.25)"/><path class="i" d="M234.82,254.17a2.89,2.89,0,0,1-2.88-2.88v-9.1a2.89,2.89,0,0,1,2.88-2.88h17.73a12,12,0,0,1,12,12,2.87,2.87,0,0,1-2.88,2.86Z" transform="translate(0.99 -4.25)"/><path class="d" d="M252.55,241.23a10.07,10.07,0,0,1,10.06,10.08,1,1,0,0,1-1,.94H234.82a1,1,0,0,1-.95-1v-9.1a1,1,0,0,1,.95-1h17.73m0-3.84H234.82a4.81,4.81,0,0,0-4.8,4.8v9.1a4.81,4.81,0,0,0,4.8,4.8h26.83a4.8,4.8,0,0,0,4.8-4.78,13.91,13.91,0,0,0-13.9-13.92Z" transform="translate(0.99 -4.25)"/><path class="j" d="M235.54,259.71a4.07,4.07,0,0,1-4-4.91,4.14,4.14,0,0,1,4.08-3.25h25.22a4.13,4.13,0,0,1,4.07,3.25,4.07,4.07,0,0,1-4,4.91Z" transform="translate(0.99 -4.25)"/><path class="d" d="M260.85,253.47a2.22,2.22,0,0,1,2.19,1.71,2.16,2.16,0,0,1-2.11,2.61H235.54a2.17,2.17,0,0,1-2.11-2.61,2.23,2.23,0,0,1,2.2-1.71h25.22m0-3.84H235.63a6.05,6.05,0,0,0-6,4.78,6,6,0,0,0,5.87,7.22h25.39a6,6,0,0,0,5.88-7.22,6.06,6.06,0,0,0-6-4.78Z" transform="translate(0.99 -4.25)"/><path class="j" d="M235.3,240.49a4.28,4.28,0,0,1-3.34-1.58,4.32,4.32,0,0,1-.88-3.62,4.37,4.37,0,0,1,4.32-3.43h10.35a4.32,4.32,0,0,1,3.44,7,4.31,4.31,0,0,1-3.35,1.58Z" transform="translate(0.99 -4.25)"/><path class="d" d="M245.75,233.78a2.46,2.46,0,0,1,2.44,1.9,2.4,2.4,0,0,1-2.35,2.89H235.3a2.4,2.4,0,0,1-2.34-2.89,2.46,2.46,0,0,1,2.44-1.9h10.35m0-3.84H235.4a6.23,6.23,0,0,0-4.93,10.18,6.21,6.21,0,0,0,4.83,2.3h10.54a6.24,6.24,0,1,0-.09-12.48Z" transform="translate(0.99 -4.25)"/><path class="i" d="M217.56,254.17a2.88,2.88,0,0,1-2.88-2.88v-9.1a2.88,2.88,0,0,1,2.88-2.88h17.72a12,12,0,0,1,12,12,2.87,2.87,0,0,1-2.88,2.86Z" transform="translate(0.99 -4.25)"/><path class="d" d="M235.28,241.23a10.07,10.07,0,0,1,10.06,10.08,1,1,0,0,1-1,.94H217.56a1,1,0,0,1-1-1v-9.1a1,1,0,0,1,1-1h17.72m0-3.84H217.56a4.81,4.81,0,0,0-4.81,4.8v9.1a4.81,4.81,0,0,0,4.81,4.8h26.82a4.79,4.79,0,0,0,4.8-4.78,13.9,13.9,0,0,0-13.9-13.92Z" transform="translate(0.99 -4.25)"/><path class="j" d="M218.28,259.71a4.09,4.09,0,0,1-4-4.91,4.15,4.15,0,0,1,4.08-3.25h25.22a4.08,4.08,0,0,1,3.24,6.66,4.08,4.08,0,0,1-3.16,1.5Z" transform="translate(0.99 -4.25)"/><path class="d" d="M243.58,253.47a2.21,2.21,0,0,1,2.19,1.71,2.16,2.16,0,0,1-2.11,2.61H218.27a2.16,2.16,0,0,1-2.1-2.61,2.21,2.21,0,0,1,2.19-1.71h25.22m0-3.84H218.36a6.05,6.05,0,0,0-6,4.78,6,6,0,0,0,5.87,7.22h25.39a6,6,0,0,0,5.88-7.22,6.06,6.06,0,0,0-6-4.78Z" transform="translate(0.99 -4.25)"/><path class="j" d="M218,240.49a4.3,4.3,0,0,1-3.35-1.58,4.32,4.32,0,0,1,3.44-7h10.35a4.32,4.32,0,0,1,3.44,7,4.3,4.3,0,0,1-3.35,1.58Z" transform="translate(0.99 -4.25)"/><path class="d" d="M228.48,233.78a2.46,2.46,0,0,1,2.44,1.9,2.4,2.4,0,0,1-2.35,2.89H218a2.4,2.4,0,0,1-2.35-2.89,2.46,2.46,0,0,1,2.44-1.9h10.35m0-3.84H218.13a6.29,6.29,0,0,0-6.2,5,6.24,6.24,0,0,0,6.11,7.51h10.53a6.24,6.24,0,0,0,6.11-7.51,6.29,6.29,0,0,0-6.2-5Z" transform="translate(0.99 -4.25)"/><polygon class="c" points="195.78 100.04 198.1 107.17 205.6 107.17 199.53 111.58 201.85 118.71 195.78 114.3 189.72 118.71 192.04 111.58 185.97 107.17 193.47 107.17 195.78 100.04"/><path class="k" d="M165.09,183.28a6.73,6.73,0,0,1-6.65-5.85c-.34-2.61-.63-5.26-.85-7.88a1.91,1.91,0,0,1,1.61-2.06l9.49-1.49.3,0a1.91,1.91,0,0,1,1.19.41,2,2,0,0,1,.73,1.35c.21,2.62.5,5.3.84,8a6.7,6.7,0,0,1-5.79,7.52A6.15,6.15,0,0,1,165.09,183.28Z" transform="translate(0.99 -4.25)"/><path class="d" d="M169,167.9q.31,3.89.86,8a4.79,4.79,0,0,1-4.13,5.36,4.46,4.46,0,0,1-.63.05,4.79,4.79,0,0,1-4.74-4.18q-.53-4-.85-7.79L169,167.9m0-3.84a3.81,3.81,0,0,0-.59,0l-9.49,1.49a3.84,3.84,0,0,0-3.24,4.13c.23,2.65.52,5.33.87,8a8.64,8.64,0,0,0,8.55,7.52,10.55,10.55,0,0,0,1.13-.07,8.64,8.64,0,0,0,7.44-9.68c-.34-2.63-.63-5.28-.84-7.86a3.84,3.84,0,0,0-1.45-2.71,3.9,3.9,0,0,0-2.38-.82Z" transform="translate(0.99 -4.25)"/><circle class="k" cx="174.85" cy="51.99" r="7.81"/><path class="d" d="M173.86,50.35A5.89,5.89,0,1,1,168,56.24a5.89,5.89,0,0,1,5.89-5.89m0-3.84a9.73,9.73,0,1,0,9.73,9.73,9.73,9.73,0,0,0-9.73-9.73Z" transform="translate(0.99 -4.25)"/><path class="k" d="M217.61,64.05a7.81,7.81,0,1,1,7.81-7.81A7.82,7.82,0,0,1,217.61,64.05Z" transform="translate(0.99 -4.25)"/><path class="d" d="M217.61,50.35a5.89,5.89,0,1,1-5.89,5.89,5.89,5.89,0,0,1,5.89-5.89m0-3.84a9.73,9.73,0,1,0,9.73,9.73,9.73,9.73,0,0,0-9.73-9.73Z" transform="translate(0.99 -4.25)"/><path class="k" d="M195.73,87.3c-.57,0-1.16,0-1.73-.07-11.59-.94-20.67-11.63-20.67-24.35V37.7a3.47,3.47,0,0,1,3.41-3.52h38a3.47,3.47,0,0,1,3.41,3.52V63.33C218.14,76.55,208.09,87.3,195.73,87.3Z" transform="translate(0.99 -4.25)"/><path class="d" d="M214.73,36.1a1.54,1.54,0,0,1,1.48,1.6V63.33c0,12.16-9.18,22-20.48,22-.52,0-1,0-1.58-.06-10.74-.87-18.9-10.84-18.9-22.44V37.7a1.55,1.55,0,0,1,1.49-1.6h38m0-3.84h-38a5.39,5.39,0,0,0-5.33,5.44V62.88c0,13.71,9.85,25.25,22.43,26.27.63,0,1.27.08,1.89.08,13.42,0,24.33-11.62,24.33-25.9V37.7a5.39,5.39,0,0,0-5.33-5.44Z" transform="translate(0.99 -4.25)"/><circle class="k" cx="206.67" cy="51.73" r="5.89"/><g class="f"><rect class="g" x="195.58" y="53.82" width="5.43" height="11.29" rx="2.71" ry="2.71"/></g><circle class="j" cx="186.99" cy="51.73" r="5.89"/><path class="d" d="M186,58.13c2.79,0,2.79-4.3,0-4.3s-2.78,4.3,0,4.3Z" transform="translate(0.99 -4.25)"/><path class="k" d="M205.68,58.13c2.78,0,2.78-4.3,0-4.3s-2.79,4.3,0,4.3Z" transform="translate(0.99 -4.25)"/><rect class="d" x="202.43" y="50.24" width="8.53" height="2.84" rx="1.42" ry="1.42"/><path class="d" d="M191.51,47.86l-11.23,1.9h0a3.63,3.63,0,0,1,3-4.18l4.09-.69a3.62,3.62,0,0,1,4.17,3Z" transform="translate(0.99 -4.25)"/><path class="d" d="M211.22,49.5l-11.3-1.36h0A3.62,3.62,0,0,1,204,45l4.11.5a3.62,3.62,0,0,1,3.16,4Z" transform="translate(0.99 -4.25)"/><rect class="i" x="194.15" y="52.74" width="5.43" height="11.29" rx="2.71" ry="2.71"/><path class="d" d="M195.73,76.52a6.4,6.4,0,0,1-6.39-6.39,1.6,1.6,0,0,1,3.2,0,3.19,3.19,0,1,0,6.38,0,1.6,1.6,0,0,1,3.2,0A6.4,6.4,0,0,1,195.73,76.52Z" transform="translate(0.99 -4.25)"/><path class="l" d="M218.15,53.92a2,2,0,0,1-.59-.09,1.93,1.93,0,0,1-1.33-1.74l-.63-12.75H175.88l-.61,11a1.91,1.91,0,0,1-1.55,1.78,1.5,1.5,0,0,1-.37,0,1.91,1.91,0,0,1-1.73-1.1l-6.05-12.8a2,2,0,0,1-.06-1.5l6.76-18a1.91,1.91,0,0,1,1.4-1.2L200,12.08a1.72,1.72,0,0,1,.39,0l16.75.35A1.92,1.92,0,0,1,219,14.27l.34,13.91,9.18,11.22a1.92,1.92,0,0,1,0,2.4l-8.89,11.38A1.93,1.93,0,0,1,218.15,53.92Z" transform="translate(0.99 -4.25)"/><path class="d" d="M200.37,14l16.71.35.35,14.58L227,40.62,218.15,52l-.72-14.58H174.06l-.71,12.8-6-12.8,6.75-18L200.37,14m0-3.85a3.55,3.55,0,0,0-.79.09l-26.3,5.51a3.81,3.81,0,0,0-2.81,2.4l-6.76,18a3.88,3.88,0,0,0,.12,3l6,12.8a3.84,3.84,0,0,0,3.47,2.2,3.71,3.71,0,0,0,.74-.07,3.84,3.84,0,0,0,3.1-3.56l.51-9.17h36.07l.54,10.92A3.83,3.83,0,0,0,217,55.66a4,4,0,0,0,1.17.18,3.83,3.83,0,0,0,3-1.48L230.06,43a3.84,3.84,0,0,0-.05-4.8l-8.76-10.71-.33-13.26a3.84,3.84,0,0,0-3.76-3.75l-16.71-.36Z" transform="translate(0.99 -4.25)"/><path class="m" d="M190.6,34" transform="translate(0.99 -4.25)"/><path class="k" d="M253.74,133.9a14.51,14.51,0,0,1-7.44-1.59,7.4,7.4,0,0,1-3.62-6.77V113.31a1.93,1.93,0,0,1,.69-1.47,2,2,0,0,1,1.24-.45l.34,0,9.14,1.66a1.9,1.9,0,0,1,1.58,1.89v17a1.93,1.93,0,0,1-1.93,1.92Z" transform="translate(0.99 -4.25)"/><path class="d" d="M244.61,113.31l9.14,1.66v17c-5.05,0-9.14-1.38-9.14-6.43V113.31m0-3.84a3.84,3.84,0,0,0-3.85,3.84v12.24a9.35,9.35,0,0,0,4.56,8.42,16.45,16.45,0,0,0,8.42,1.85h0a3.84,3.84,0,0,0,3.85-3.84V115a3.84,3.84,0,0,0-3.16-3.78l-9.15-1.66a4,4,0,0,0-.68-.06Z" transform="translate(0.99 -4.25)"/><path class="k" d="M246.62,113a3.94,3.94,0,0,1-3.94-3.94V106a3.94,3.94,0,1,1,7.88,0v3.08a4,4,0,0,1-3.94,3.94Z" transform="translate(0.99 -4.25)"/><path class="d" d="M246.63,104h0a2,2,0,0,1,2,2v3.09a2,2,0,0,1-2,2h0a2,2,0,0,1-2-2V106a2,2,0,0,1,2-2m0-3.84h0a5.88,5.88,0,0,0-5.87,5.86v3.09a5.87,5.87,0,0,0,11.73,0V106a5.87,5.87,0,0,0-5.86-5.87Z" transform="translate(0.99 -4.25)"/><path class="k" d="M252.92,120.93a3.95,3.95,0,1,1,0-7.89h5.58a3.94,3.94,0,0,1,0,7.88Z" transform="translate(0.99 -4.25)"/><path class="d" d="M252.92,115h5.59a2,2,0,0,1,0,4h-5.59a2,2,0,0,1,0-4m0-3.84h0a5.86,5.86,0,0,0-4.14,10,5.78,5.78,0,0,0,4.14,1.72h5.58a5.86,5.86,0,1,0,0-11.72Z" transform="translate(0.99 -4.25)"/><path class="k" d="M252.92,128.64a4,4,0,0,1-2.79-1.16,3.95,3.95,0,0,1,2.79-6.73h6.42a3.94,3.94,0,1,1,0,7.88Z" transform="translate(0.99 -4.25)"/><path class="d" d="M252.92,122.67h6.42a2,2,0,1,1,0,4h-6.42a2,2,0,1,1,0-4m0-3.84h0a5.87,5.87,0,0,0,0,11.73h6.41a5.86,5.86,0,1,0,0-11.72Z" transform="translate(0.99 -4.25)"/><path class="k" d="M252.92,135.73a3.94,3.94,0,0,1,0-7.88h5.59a4,4,0,0,1,2.78,1.16,3.87,3.87,0,0,1,1.15,2.79,3.94,3.94,0,0,1-3.94,3.94Z" transform="translate(0.99 -4.25)"/><path class="d" d="M252.92,129.77h5.58a2,2,0,0,1,0,4h-5.58a2,2,0,1,1,0-4m0-3.84h0a5.87,5.87,0,1,0,0,11.73h5.58a5.88,5.88,0,0,0,5.87-5.86,5.87,5.87,0,0,0-5.86-5.87Z" transform="translate(0.99 -4.25)"/><path class="c" d="M195.73,94.27a44.05,44.05,0,1,1,44.05-44A44.1,44.1,0,0,1,195.73,94.27Zm0-73.24a29.19,29.19,0,1,0,29.19,29.19A29.22,29.22,0,0,0,195.73,21Z" transform="translate(0.99 -4.25)"/><path class="d" d="M195.73,8.09a42.13,42.13,0,1,1-42.12,42.13A42.18,42.18,0,0,1,195.73,8.09m0,73.23a31.11,31.11,0,1,0-31.1-31.1,31.14,31.14,0,0,0,31.1,31.1m0-77.07a46,46,0,1,0,46,46,46,46,0,0,0-46-46Zm0,73.23A27.26,27.26,0,1,1,223,50.22a27.29,27.29,0,0,1-27.27,27.26Z" transform="translate(0.99 -4.25)"/><path class="g" d="M223.76,18.8a42,42,0,0,1,3,34.19,31.14,31.14,0,0,1-31,28.33,32.38,32.38,0,0,1-4.08-.27,43.43,43.43,0,0,1-4.74.27,41.91,41.91,0,0,1-28-10.71A42.11,42.11,0,1,0,223.76,18.8Z" transform="translate(0.99 -4.25)"/><path class="h" d="M236.79,65a1.93,1.93,0,0,1-1.16-.39,17.57,17.57,0,0,1,0-28,2,2,0,0,1,1.16-.38,2,2,0,0,1,1.16.38,17.56,17.56,0,0,1,0,28A1.91,1.91,0,0,1,236.79,65Z" transform="translate(0.99 -4.25)"/><path class="d" d="M236.79,38.09a15.64,15.64,0,0,1,0,25,15.64,15.64,0,0,1,0-25m0-3.85a3.81,3.81,0,0,0-2.31.78,19.49,19.49,0,0,0,0,31.11,3.87,3.87,0,0,0,4.63,0,19.49,19.49,0,0,0,0-31.11,3.84,3.84,0,0,0-2.32-.78Z" transform="translate(0.99 -4.25)"/><path class="h" d="M154.67,65a1.9,1.9,0,0,1-1.15-.39,17.56,17.56,0,0,1,0-28,1.95,1.95,0,0,1,2.31,0,17.56,17.56,0,0,1,0,28A1.91,1.91,0,0,1,154.67,65Z" transform="translate(0.99 -4.25)"/><path class="d" d="M154.67,38.09a15.64,15.64,0,0,1,0,25,15.64,15.64,0,0,1,0-25m0-3.85a3.81,3.81,0,0,0-2.31.78,19.49,19.49,0,0,0,0,31.11,3.87,3.87,0,0,0,4.63,0A19.49,19.49,0,0,0,157,35a3.82,3.82,0,0,0-2.32-.78Z" transform="translate(0.99 -4.25)"/><line class="i" x1="244" y1="46.33" x2="258.93" y2="46.33"/><path class="d" d="M257.94,52.49H243a1.92,1.92,0,1,1,0-3.84h14.93a1.92,1.92,0,1,1,0,3.84Z" transform="translate(0.99 -4.25)"/><path class="h" d="M258.3,57.12a6.55,6.55,0,1,1,6.54-6.55A6.55,6.55,0,0,1,258.3,57.12Z" transform="translate(0.99 -4.25)"/><path class="d" d="M258.3,46a4.62,4.62,0,1,1-4.62,4.62A4.62,4.62,0,0,1,258.3,46m0-3.84a8.47,8.47,0,1,0,8.47,8.46,8.48,8.48,0,0,0-8.47-8.46Z" transform="translate(0.99 -4.25)"/><line class="i" x1="149.44" y1="46.33" x2="134.51" y2="46.33"/><path class="d" d="M148.45,52.49H133.52a1.92,1.92,0,0,1,0-3.84h14.93a1.92,1.92,0,1,1,0,3.84Z" transform="translate(0.99 -4.25)"/><path class="h" d="M133.17,57.12a6.55,6.55,0,1,1,6.54-6.55A6.56,6.56,0,0,1,133.17,57.12Z" transform="translate(0.99 -4.25)"/><path class="d" d="M133.17,46a4.62,4.62,0,1,1-4.62,4.62A4.62,4.62,0,0,1,133.17,46m0-3.84a8.47,8.47,0,1,0,8.46,8.46,8.48,8.48,0,0,0-8.46-8.46Z" transform="translate(0.99 -4.25)"/><g class="n"><circle class="j" cx="204.9" cy="18.95" r="6.75"/></g><g class="n"><circle class="j" cx="214.14" cy="28.19" r="3.2"/></g><polygon class="o" points="26.51 37.83 30.45 49.97 43.22 49.97 32.89 57.47 36.84 69.61 26.51 62.11 16.18 69.61 20.13 57.47 9.8 49.97 22.57 49.97 26.51 37.83"/><polygon class="p" points="20.53 249.44 25.38 264.36 41.06 264.36 28.38 273.58 33.22 288.5 20.53 279.28 7.84 288.5 12.69 273.58 0 264.36 15.69 264.36 20.53 249.44"/><polygon class="p" points="122.18 72.43 124.59 79.86 132.41 79.86 126.09 84.46 128.5 91.9 122.18 87.3 115.85 91.9 118.27 84.46 111.94 79.86 119.76 79.86 122.18 72.43"/><polygon class="o" points="284.46 144.73 288.37 156.74 300.99 156.74 290.78 164.16 294.68 176.16 284.46 168.74 274.25 176.16 278.15 164.16 267.94 156.74 280.56 156.74 284.46 144.73"/><polygon class="o" points="66.66 273.47 68.69 279.74 75.28 279.74 69.95 283.61 71.99 289.87 66.66 286 61.33 289.87 63.36 283.61 58.03 279.74 64.62 279.74 66.66 273.47"/></g></svg>