<?xml version="1.0" encoding="UTF-8"?><svg xmlns="http://www.w3.org/2000/svg" xmlns:xlink="http://www.w3.org/1999/xlink" viewBox="0 0 64 64"><defs><linearGradient id="c" x1="1.28" y1="65.49" x2="60.92" y2="6.75" gradientTransform="translate(0 66) scale(1 -1)" gradientUnits="userSpaceOnUse"><stop offset=".11" stop-color="#ffb800"/><stop offset=".51" stop-color="#eb5500"/><stop offset="1" stop-color="#6712d2"/></linearGradient></defs><title>Seedprod icon - Uncanny Automator</title><g id="a"><rect width="64" height="64" style="fill:none; stroke-width:0px;"/></g><g id="b"><path d="m1.78,0s1.41.1,30.38,3.89c28.97,3.8,38.99,33.25,21.26,58.96,2.74-22.97-2.28-46.8-22.45-49.58-20.17-2.79-18.41-2.36-18.41-2.36,0,0,.33,5.06,2.23,18.66,1.89,13.6,12.48,20.27,21.75,23.7,0,0,.54-15.92-4.63-22.92-5.17-7.01-11.6-11.66-11.6-11.66,0,0,15.12,1.82,20.83,12.39,5.71,10.57,5.15,32.92,5.15,32.92l-6.16-.32c-16.57-2-32.05-12-34.68-32.99C2.81,9.7,1.78,0,1.78,0Z" style="fill:url(#c); fill-rule:evenodd; stroke-width:0px;"/></g></svg>