<?xml version="1.0" encoding="utf-8"?><svg xmlns="http://www.w3.org/2000/svg" viewBox="0 0 64 64"><defs><style>.cls-1{fill:none;}.cls-2,.cls-3,.cls-4,.cls-5,.cls-6,.cls-7{fill:#016afe;}.cls-2,.cls-3,.cls-5,.cls-6{fill-rule:evenodd;}.cls-3{opacity:0.4;}.cls-3,.cls-4,.cls-5,.cls-6{isolation:isolate;}.cls-4{opacity:0.4;}.cls-5{opacity:0.1;}.cls-6{opacity:0.4;}</style></defs><title>WP User Manager icon - Uncanny Automator</title><g id="Layer_1" data-name="Layer 1"><rect class="cls-1" width="64" height="64"/></g><g id="Layer_3" data-name="Layer 3"><g id="Page-1"><g id="logo-copy"><path class="cls-2" d="M57.85,45l-6.6,5.52-.69,1.84c-.68,1.84-1.37,3.85-2.11,5.92l-6.3,4.65-.24-.4-.25-.41c-.94-1.6-1.87-3.27-2.81-4.88l-.25-.4-.25-.4-.43.17c-3.43,1.49-6.85,3-10.34,4.54l-.63.28-.62.29-.62.29-.63.29-.62.28-.62.29-.62.29-.63.29-.68.28-.69.29L21,63.48C16.49,54,11.75,44.53,7,35.1l-.44-.86-.43-.92,1.43-8.73H34.43l-.87,1.67H11.13c2.24,4.48,4.55,9.13,7,14,2.49,5,5.11,10.22,7.78,15.62q5.15-2.23,9.35-4.13c2.55-1.15,4.92-2.19,7-3.11,1.18,2.07,2.37,4.14,3.61,6.27.63-1.78,1.25-3.45,1.81-5.06s1.06-2.93,1.49-4.25c.88-.35,1.69-.75,2.43-1.09s1.5-.63,2.18-1c-1.93-3-3.8-6-5.66-9-1.19-1.9-2.43-3.79-3.62-5.69l1.37-2.58c1.68,2.64,3.37,5.4,5.11,8.15,2.37,3.51,4.61,7,6.85,10.57Z"/><polygon class="cls-2" points="33.88 40.98 29.93 38.23 42.34 12.61 47.17 16 33.88 40.98"/><path class="cls-3" d="M49,3.21a9.18,9.18,0,0,1,3.87,1.36,7.13,7.13,0,0,1,1.79,5.76c-.59,4.18-4.77,7.17-9.36,6.63a9.23,9.23,0,0,1-3.88-1.36,7.18,7.18,0,0,1-1.79-5.76C40.25,5.65,44.42,2.72,49,3.21Z"/><ellipse class="cls-4" cx="33.03" cy="38.46" rx="3.1" ry="3.15"/><path class="cls-5" d="M45.14,18l-3,6.08-1,2-5,10a2.63,2.63,0,0,1,1.27,1.85l5.81-11.59,1-2,3-5.85a.72.72,0,0,1-.35-.06A13.78,13.78,0,0,1,45.14,18Z"/><path class="cls-2" d="M35.45,43a4.05,4.05,0,0,1-1.4.46,4.1,4.1,0,0,1-1.47.06,4.64,4.64,0,0,1-3-1.57,4.17,4.17,0,0,1-1-3.08A4.28,4.28,0,0,1,29.34,37a4.75,4.75,0,0,1,1.59-1.33l.19.34a3.47,3.47,0,0,0-1.4,1.22,3.82,3.82,0,0,0-.7,1.69,3.63,3.63,0,0,0,.83,2.79,4.32,4.32,0,0,0,2.8,1.45A3.32,3.32,0,0,0,34,43.06a3.45,3.45,0,0,0,1.28-.46Z"/><path class="cls-2" d="M36.14,8.28a11.89,11.89,0,0,1,2-4.4A11.37,11.37,0,0,1,41.86.63l.48.81a10.42,10.42,0,0,0-3.37,3A10.26,10.26,0,0,0,37.1,8.51Z"/><path class="cls-2" d="M33,5.38a13.92,13.92,0,0,1,1.5-2.86,16.11,16.11,0,0,1,2-2.52l.63.64A15.08,15.08,0,0,0,35.27,3,12,12,0,0,0,33.9,5.67Z"/><path class="cls-6" d="M41.65,34.59C44.17,40,46.74,47.07,46.55,53l1-2.75L49.07,46l2.45-1.09,2.2-1L48,35l-3.65-5.67Z"/><ellipse class="cls-7" cx="47.51" cy="11.03" rx="8.62" ry="7.88"/></g></g></g></svg>