<svg id="dc4b11dd-ec97-40b1-ad1f-36506d91f93a" data-name="Layer 1" xmlns="http://www.w3.org/2000/svg" viewBox="0 0 619.82 99.68"><defs><style>.a1dd3366-cdeb-45c6-8bbd-11df525cea9d{fill:#0790e8;}</style></defs><title>Uncanny Automator - Final</title><g id="cd6ded34-e0ab-40d9-bac9-aadfb5ccc232" data-name="Layer 1 copy 4 Clipping Path"><path class="a1dd3366-cdeb-45c6-8bbd-11df525cea9d" d="M266.59,0s20.51,25.93-.35,47.79C240.85,74.4,272,99.68,272,99.68S255,74.46,274.5,53.8C300.59,26.17,266.59,0,266.59,0Z" transform="translate(0 0)"/></g><path d="M27.6,54.46a20.82,20.82,0,0,1-.75,5.65,13,13,0,0,1-2.38,4.69A11.51,11.51,0,0,1,20.21,68a15.35,15.35,0,0,1-6.41,1.21A15.34,15.34,0,0,1,7.39,68,11.51,11.51,0,0,1,3.13,64.8,13,13,0,0,1,.75,60.11,20.82,20.82,0,0,1,0,54.46V32H4.34V53.85a19.19,19.19,0,0,0,.47,4.26,10.46,10.46,0,0,0,1.55,3.64A7.83,7.83,0,0,0,9.25,64.3a9.77,9.77,0,0,0,4.55.95,9.78,9.78,0,0,0,4.55-.95,7.87,7.87,0,0,0,2.89-2.54,10.5,10.5,0,0,0,1.55-3.64,19.37,19.37,0,0,0,.47-4.26V32H27.6Z" transform="translate(0 0)"/><path d="M36.54,32H42L63.2,62.16h.1V32h4.34V68.32H62.17L41,38.14h-.1V68.32H36.54Z" transform="translate(0 0)"/><path d="M102.37,39.47a10.45,10.45,0,0,0-4.08-3.31,12.07,12.07,0,0,0-5.06-1.11,12.73,12.73,0,0,0-5.61,1.23,14,14,0,0,0-4.42,3.31,15.14,15.14,0,0,0-2.9,4.82,16.1,16.1,0,0,0-1,5.72,16.71,16.71,0,0,0,1,5.93,14.8,14.8,0,0,0,2.87,4.77,13.94,13.94,0,0,0,16,3.08,13.62,13.62,0,0,0,4.6-3.77l3.26,2.72a15,15,0,0,1-6,4.82,19.31,19.31,0,0,1-7.88,1.54,18.68,18.68,0,0,1-7.34-1.44A17.93,17.93,0,0,1,76,57.8a20.06,20.06,0,0,1-1.42-7.65A20.32,20.32,0,0,1,76,42.66a17.94,17.94,0,0,1,9.74-10.11,18.56,18.56,0,0,1,7.49-1.49,19.58,19.58,0,0,1,7.16,1.34,13.19,13.19,0,0,1,5.76,4.36Z" transform="translate(0 0)"/><path d="M125,32h4.08l15.55,36.34h-5.06l-3.72-8.93H117.57l-3.77,8.93h-4.91Zm2,5.55h-.1l-7.6,17.86h14.93Z" transform="translate(0 0)"/><path d="M149.5,32H155l21.19,30.18h.1V32h4.34V68.32h-5.48L153.95,38.14h-.1V68.32H149.5Z" transform="translate(0 0)"/><path d="M189.71,32h5.48l21.19,30.18h.1V32h4.34V68.32h-5.48L194.15,38.14H194V68.32h-4.34Z" transform="translate(0 0)"/><path d="M238.54,52.67,224.9,32h5.53L240.72,48.4,251.31,32h5.22L242.89,52.67V68.32h-4.34Z" transform="translate(0 0)"/><path class="a1dd3366-cdeb-45c6-8bbd-11df525cea9d" d="M300.26,32h6.63L322.7,68.34h-9l-3.13-7.7H296.4l-3,7.7h-8.83Zm3.08,10.58-4.42,11.3h8.89Z" transform="translate(0 0)"/><path class="a1dd3366-cdeb-45c6-8bbd-11df525cea9d" d="M357,54.32c0,8.58-5.24,14.95-15.31,14.95s-15.36-6.37-15.36-14.95V32h8V54c0,4.47,3.08,7.86,7.34,7.86S349,58.48,349,54V32h8Z" transform="translate(0 0)"/><path class="a1dd3366-cdeb-45c6-8bbd-11df525cea9d" d="M371.44,39.06H361.07V32h28.76v7.09H379.46V68.34h-8Z" transform="translate(0 0)"/><path class="a1dd3366-cdeb-45c6-8bbd-11df525cea9d" d="M411.55,31c11.35,0,19.62,7.45,19.62,19.11s-8.27,19.11-19.62,19.11-19.62-7.45-19.62-19.11S400.2,31,411.55,31Zm0,30.82c6.83,0,11.3-4.93,11.3-11.71s-4.47-11.71-11.3-11.71-11.3,4.93-11.3,11.71S404.72,61.87,411.55,61.87Z" transform="translate(0 0)"/><path class="a1dd3366-cdeb-45c6-8bbd-11df525cea9d" d="M436.62,32h12.12l8.37,23.73h.1L465.64,32h12.07V68.34h-8V40.45h-.1L460,68.34h-6.11l-9.19-27.89h-.1V68.34h-8Z" transform="translate(0 0)"/><path class="a1dd3366-cdeb-45c6-8bbd-11df525cea9d" d="M497.07,32h6.63l15.82,36.36h-9l-3.13-7.7H493.22l-3,7.7h-8.83Zm3.08,10.58-4.42,11.3h8.88Z" transform="translate(0 0)"/><path class="a1dd3366-cdeb-45c6-8bbd-11df525cea9d" d="M525.47,39.06H515.1V32h28.76v7.09H533.48V68.34h-8Z" transform="translate(0 0)"/><path class="a1dd3366-cdeb-45c6-8bbd-11df525cea9d" d="M565.58,31c11.35,0,19.62,7.45,19.62,19.11s-8.27,19.11-19.62,19.11S546,61.81,546,50.16,554.23,31,565.58,31Zm0,30.82c6.83,0,11.3-4.93,11.3-11.71s-4.47-11.71-11.3-11.71-11.3,4.93-11.3,11.71S558.75,61.87,565.58,61.87Z" transform="translate(0 0)"/><path class="a1dd3366-cdeb-45c6-8bbd-11df525cea9d" d="M590.65,32h14.07c7.45,0,13.71,2.57,13.71,11,0,5.08-2.72,9-7.86,10l9.25,15.36h-9.6l-7.6-14.54h-4V68.34h-8Zm8,15h4.73c2.93,0,6.73-.1,6.73-4.06,0-3.65-3.29-4.21-6.21-4.21h-5.24Z" transform="translate(0 0)"/><path class="a1dd3366-cdeb-45c6-8bbd-11df525cea9d" d="M84.44,77.08H88l2.39,9.59h0l3.13-9.59h3.06l3.11,9.85h0l2.51-9.85h3.34l-4.37,15H98.35l-3.3-10.36h0L91.71,92H88.88Z" transform="translate(0 0)"/><path class="a1dd3366-cdeb-45c6-8bbd-11df525cea9d" d="M118.63,76.7c4.67,0,8.07,3.06,8.07,7.86s-3.4,7.86-8.07,7.86-8.07-3.06-8.07-7.86S114,76.7,118.63,76.7Zm0,12.68A4.82,4.82,0,1,0,114,84.56,4.52,4.52,0,0,0,118.63,89.38Z" transform="translate(0 0)"/><path class="a1dd3366-cdeb-45c6-8bbd-11df525cea9d" d="M133.17,77.08H139c3.06,0,5.64,1.06,5.64,4.54a3.85,3.85,0,0,1-3.23,4.1l3.8,6.32h-4l-3.13-6h-1.63v6h-3.3Zm3.3,6.19h1.94c1.2,0,2.77,0,2.77-1.67s-1.35-1.73-2.56-1.73h-2.16Z" transform="translate(0 0)"/><path class="a1dd3366-cdeb-45c6-8bbd-11df525cea9d" d="M151.08,77.08H156c4.82,0,8.85,2,8.85,7.52,0,4.84-4,7.44-8.41,7.44h-5.39ZM154.38,89h1.71c3.06,0,5.37-1.16,5.37-4.57,0-2.94-2.35-4.31-5.14-4.31h-1.94Z" transform="translate(0 0)"/><path class="a1dd3366-cdeb-45c6-8bbd-11df525cea9d" d="M171.35,77.08h5.56c3.11,0,5.69,1,5.69,4.54s-2.39,4.59-5.54,4.59h-2.41V92h-3.3Zm3.3,6.34h2.2c1.16,0,2.32-.4,2.32-1.8s-1.56-1.75-2.83-1.75h-1.69Z" transform="translate(0 0)"/><path class="a1dd3366-cdeb-45c6-8bbd-11df525cea9d" d="M188.89,77.08h5.79c3.06,0,5.64,1.06,5.64,4.54a3.85,3.85,0,0,1-3.23,4.1l3.8,6.32h-4l-3.13-6h-1.63v6h-3.3Zm3.3,6.19h1.94c1.2,0,2.77,0,2.77-1.67s-1.35-1.73-2.56-1.73h-2.16Z" transform="translate(0 0)"/><path class="a1dd3366-cdeb-45c6-8bbd-11df525cea9d" d="M206.93,77.08H217.1v3h-6.87v2.79h6.49v3h-6.49v3h7.25v3H206.93Z" transform="translate(0 0)"/><path class="a1dd3366-cdeb-45c6-8bbd-11df525cea9d" d="M231.74,80.74a3.19,3.19,0,0,0-2.39-1c-.93,0-2.22.42-2.22,1.54,0,2.73,6.89,1,6.89,6.21,0,3.34-2.68,4.92-5.77,4.92a7.11,7.11,0,0,1-5-1.88L225.57,88a3.66,3.66,0,0,0,2.87,1.42c1.08,0,2.28-.51,2.28-1.56,0-2.75-7-1.27-7-6.26,0-3.19,2.77-4.86,5.71-4.86A6.76,6.76,0,0,1,234,78.26Z" transform="translate(0 0)"/><path class="a1dd3366-cdeb-45c6-8bbd-11df525cea9d" d="M248.09,80.74a3.19,3.19,0,0,0-2.39-1c-.93,0-2.22.42-2.22,1.54,0,2.73,6.89,1,6.89,6.21,0,3.34-2.68,4.92-5.77,4.92a7.11,7.11,0,0,1-5-1.88L241.92,88a3.66,3.66,0,0,0,2.87,1.42c1.08,0,2.28-.51,2.28-1.56,0-2.75-7-1.27-7-6.26,0-3.19,2.77-4.86,5.71-4.86a6.76,6.76,0,0,1,4.59,1.56Z" transform="translate(0 0)"/><path class="a1dd3366-cdeb-45c6-8bbd-11df525cea9d" d="M278,77.08h5.56c3.11,0,5.69,1,5.69,4.54s-2.39,4.59-5.54,4.59h-2.41V92H278Zm3.3,6.34h2.2c1.16,0,2.32-.4,2.32-1.8s-1.56-1.75-2.83-1.75h-1.69Z" transform="translate(0 0)"/><path class="a1dd3366-cdeb-45c6-8bbd-11df525cea9d" d="M295.67,77.08H299V89h6.11v3h-9.4Z" transform="translate(0 0)"/><path class="a1dd3366-cdeb-45c6-8bbd-11df525cea9d" d="M323.74,86.27c0,3.53-2.16,6.15-6.3,6.15s-6.32-2.62-6.32-6.15V77.08h3.3v9.07a3,3,0,1,0,6,0V77.08h3.3Z" transform="translate(0 0)"/><path class="a1dd3366-cdeb-45c6-8bbd-11df525cea9d" d="M344.55,91a13.41,13.41,0,0,1-6.28,1.44c-4.67,0-8.07-3.06-8.07-7.86s3.4-7.86,8.07-7.86a8.48,8.48,0,0,1,6,1.92l-2.32,2.54a4.6,4.6,0,0,0-3.63-1.42,4.82,4.82,0,0,0,0,9.64,6.46,6.46,0,0,0,3.11-.74V86.21h-2.68v-3h5.85Z" transform="translate(0 0)"/><path class="a1dd3366-cdeb-45c6-8bbd-11df525cea9d" d="M351.62,77.08h3.3V92h-3.3Z" transform="translate(0 0)"/><path class="a1dd3366-cdeb-45c6-8bbd-11df525cea9d" d="M362.15,77.08h4.48L373,87.48h0V77.08h3.3V92H372l-6.53-10.65h0V92h-3.3Z" transform="translate(0 0)"/></svg>