<?xml version="1.0" encoding="UTF-8"?><svg id="a" xmlns="http://www.w3.org/2000/svg" viewBox="0 0 64 64"><title>GitHub icon - Uncanny Automator</title><path d="M32,0C14.33,0,0,14.33,0,32s14.33,32,32,32,32-14.33,32-32S49.67,0,32,0ZM40.43,58.09h-.25c-.38.02-.75-.11-1.02-.37-.25-.27-.39-.62-.37-.99v-3.75c.02-1.25.03-2.51.03-3.78,0-.93-.14-1.85-.4-2.74-.25-.9-.75-1.71-1.45-2.33,1.86-.18,3.69-.6,5.43-1.26,1.48-.56,2.81-1.44,3.91-2.57,1.09-1.14,1.89-2.51,2.36-4.02.57-1.84.84-3.76.8-5.68.01-1.34-.22-2.68-.69-3.94-.48-1.27-1.2-2.43-2.12-3.42.2-.5.34-1.02.43-1.55.09-.53.13-1.07.13-1.61,0-.69-.08-1.39-.24-2.06-.15-.69-.34-1.37-.59-2.03-.09-.04-.19-.05-.3-.05h-.29c-.61,0-1.22.11-1.8.3-.64.19-1.27.42-1.87.69-.6.27-1.19.58-1.76.91-.57.34-1.08.66-1.53.97-4.49-1.25-9.23-1.25-13.71,0-.5-.33-1.01-.66-1.53-.97-.58-.34-1.18-.65-1.79-.91-.61-.28-1.24-.52-1.88-.7-.57-.19-1.17-.29-1.77-.3h-.29c-.1,0-.2.02-.29.05-.25.66-.46,1.34-.61,2.03-.14.68-.21,1.37-.22,2.06,0,.54.05,1.08.14,1.61.09.53.23,1.05.43,1.55-.92.99-1.64,2.16-2.11,3.43-.47,1.26-.71,2.59-.7,3.94-.04,1.91.23,3.82.78,5.65.48,1.5,1.29,2.88,2.36,4.04,1.11,1.13,2.44,2,3.91,2.57,1.74.67,3.57,1.09,5.42,1.27-.52.47-.93,1.05-1.21,1.69-.26.64-.44,1.3-.53,1.98-.98.47-2.05.71-3.13.72-1.01.04-2-.24-2.84-.8-.8-.6-1.49-1.34-2.01-2.2-.23-.36-.49-.7-.78-1.02-.3-.34-.63-.64-.99-.91-.35-.26-.74-.48-1.15-.64-.4-.18-.84-.27-1.28-.27-.11,0-.21.01-.32.03-.15,0-.29.02-.43.05-.12.03-.24.09-.35.16-.1.05-.16.16-.16.27.02.26.16.5.37.65.25.2.45.35.62.46l.08.06c.35.27.7.57,1.02.89.3.26.57.56.8.88.24.32.45.66.62,1.02.19.36.4.77.62,1.23.5,1.26,1.39,2.33,2.54,3.05,1.21.65,2.56.97,3.94.94.46,0,.93-.03,1.39-.08.46-.07.91-.15,1.37-.24v4.65c.03.74-.54,1.36-1.27,1.39-.05,0-.1,0-.15,0h-.17C9.16,53.42,1.24,37.96,5.9,23.54,10.56,9.13,26.02,1.22,40.43,5.88c14.42,4.66,22.33,20.12,17.67,34.53-2.71,8.39-9.28,14.96-17.67,17.67h0s0,.01,0,.01Z" style="stroke-width:0px;"/></svg>
