<?xml version="1.0" encoding="UTF-8"?><svg xmlns="http://www.w3.org/2000/svg" viewBox="0 0 64 64"><title>Charitable icon - Uncanny Automator</title><g id="a"><rect width="64" height="64" style="fill:none;"/></g><g id="b"><path d="m63.81,36.61c-.29-3.48-1.07-6.85-2.14-10.16-2.03-6.33-4.79-12.27-9.14-17.37-2.21-2.59-4.71-4.78-8.22-5.43l-.08.02-.08-.03c-.12-.01-.24-.01-.36-.02h-.36c-.18.01-.36.02-.54.02-1.01.22-1.99.58-2.8,1.23-1.99,1.6-3.95,3.25-5.91,4.88-7,5.85-13.99,11.71-20.99,17.56-3.56,2.97-7.12,5.92-10.68,8.89-2.38,1.98-3.04,4.12-2.09,6.82.62,1.75,1.23,3.5,1.93,5.22.89,2.16,2.49,3.53,4.89,3.57,4.19.08,8.38.03,12.57.03,1.35,0,1.35-.01,1.49,1.25.01.15.07.29.11.43,1.34,4.57,4.86,6.32,8.59,6.78,2.84.35,5.53-.43,7.84-2.23,1.48-1.16,2.63-2.54,2.95-4.5.28-1.72.34-1.69,2.15-1.69,3.74,0,7.49-.02,11.23-.04.04-.02.08-.02.12.01.37.01.75.02,1.12.03h.71c.11,0,.21-.01.31-.01.8-.03,1.58.02,2.36-.31,2.73-1.17,3.92-3.49,4.65-6.15.21-.76.23-1.58.34-2.38.07-.64.17-1.27.2-1.91.07-1.51-.05-3.01-.17-4.51Zm-15.68-13.55c3.35-.34,5.83,1.88,5.83,5.32.23,1.91-.9,3.2-2.35,4.3-.65.5-.96.4-1.25-.38-.78-2.11-1.53-4.23-2.3-6.35-.2-.55-.44-1.1-.66-1.65-.33-.84-.15-1.15.73-1.24Zm4.62,26.63c-2.79-1.01-5.11-2.7-7.07-4.88-1.7-1.9-3.23-3.93-4.45-6.18-1.02-1.9-1.97-3.83-2.69-5.86-.21-.59-.52-.69-1.09-.48-2.03.77-4.06,1.54-6.12,2.23-1.63.53-3.18,1.23-4.86,1.65-.85.22-1.69.75-2.57,1.07-2.29.85-4.59,1.7-6.88,2.54-3.07,1.13-6.15,2.26-9.22,3.39-.82.3-1.72.42-2.45.98-.27.21-.49-.08-.55-.24-.4-.97-.83-1.94-1.08-2.95-.22-.88.56-1.38,1.13-1.85,1.75-1.46,3.57-2.83,5.29-4.32,2.56-2.2,5.17-4.35,7.75-6.52,1.89-1.59,3.69-3.3,5.7-4.76,2.39-1.74,4.55-3.78,6.82-5.68,2.58-2.16,5.21-4.26,7.66-6.57.43-.14.55.04.48.44-.85,4.93-.04,9.75,1.19,14.51.96,3.73,2.36,7.31,4.04,10.79,1.84,3.82,4.21,7.27,7.28,10.22,1.32,1.26,2.83,2.2,4.57,2.78.26.09.52.11.54.46-1.21.03-2.31-.37-3.42-.77Z" style="fill:#fb9d1f;"/><path d="m56.17,50.46c-1.21.03-2.31-.37-3.42-.78-2.79-1-5.11-2.7-7.07-4.88-1.7-1.9-3.23-3.92-4.45-6.18-1.02-1.9-1.97-3.83-2.69-5.86-.21-.59-.52-.69-1.09-.47-2.03.77-4.07,1.54-6.13,2.22-1.62.54-3.18,1.23-4.86,1.65-.85.21-1.69.75-2.57,1.07-2.3.84-4.59,1.7-6.89,2.54-3.07,1.13-6.14,2.26-9.21,3.38-.83.3-1.72.42-2.45.98-.27.21-.49-.08-.56-.25-.39-.97-.83-1.94-1.08-2.95-.22-.88.56-1.38,1.13-1.85,1.75-1.46,3.57-2.83,5.29-4.31,2.56-2.2,5.17-4.35,7.75-6.52,1.89-1.59,3.69-3.3,5.7-4.76,2.4-1.74,4.56-3.78,6.82-5.68,2.58-2.16,5.21-4.27,7.67-6.57.42-.15.55.04.48.43-.85,4.94-.04,9.76,1.19,14.51.96,3.73,2.36,7.32,4.04,10.79,1.85,3.82,4.21,7.28,7.28,10.22,1.32,1.26,2.83,2.21,4.57,2.79.27.09.52.11.54.46Z" style="fill:#fefefe;"/><path d="m53.96,28.38c.23,1.91-.9,3.2-2.35,4.3-.66.5-.96.4-1.25-.39-.78-2.11-1.53-4.23-2.3-6.34-.2-.56-.44-1.1-.66-1.65-.33-.84-.15-1.15.72-1.24,3.36-.34,5.83,1.88,5.84,5.32Z" style="fill:#fefefe;"/><path d="m25.12,51.81c.74-.28,1.5.11,2.24-.05,3,.01,5.99.02,8.99.03,1.08,0,1.15.1.82,1.11-.62,1.91-2.79,3.63-4.92,3.67-1.32.03-2.63.08-3.9-.34-1.82-.61-3.41-2.77-3.23-4.42Z" style="fill:#fefefe;"/></g></svg>