<svg xmlns="http://www.w3.org/2000/svg" viewBox="0 0 64 64"><defs><style>.cls-1{fill:none;}.cls-2{fill:#2c3344;}.cls-3,.cls-4{fill:#fff;}.cls-4{fill-rule:evenodd;}.cls-5{fill:#f7c545;}</style></defs><title>KonnectzIT icon - Uncanny Automator</title><g id="Layer_2" data-name="Layer 2"><rect class="cls-1" width="64" height="64"/></g><g id="Layer_1" data-name="Layer 1"><path class="cls-2" d="M8,63.17H56a7.9,7.9,0,0,0,8-7.79V8.62A7.9,7.9,0,0,0,56,.83H8A7.9,7.9,0,0,0,0,8.62V55.38A7.9,7.9,0,0,0,8,63.17Z"/><path class="cls-3" d="M50,46.12a3,3,0,0,1-3,2.93H38.31L50,37.37Z"/><path class="cls-3" d="M50,17.9A3,3,0,0,0,47,15l-8.66.08L50,26.76Z"/><path class="cls-4" d="M24.23,49.05a8.1,8.1,0,0,0,5.65-2.28L41.69,35.29l2-1.9a1.93,1.93,0,0,0,0-2.78l-2-1.9L29.88,17.23A8.1,8.1,0,0,0,24.23,15H14L29.9,30.41c.71.77,1.26,1.74,0,3.23L14,49.05Z"/><path class="cls-5" d="M14.06,30.78A1.22,1.22,0,1,0,15.29,32,1.22,1.22,0,0,0,14.06,30.78Zm0-1.21A2.44,2.44,0,1,0,16.51,32,2.44,2.44,0,0,0,14.06,29.57Zm0,4.38a2,2,0,1,1,2-2A2,2,0,0,1,14.06,34Z"/></g></svg>