<svg xmlns="http://www.w3.org/2000/svg" viewBox="0 0 63.98 64"><defs><style>.a{fill:#66bb6a;}</style></defs><title>GiveWP icon - Uncanny Automator</title><path class="a" d="M58.8,33.59C58,37.5,53.87,53.21,37.42,53.21,17.8,53.21,8.84,32,8.84,32,15.36,28,26.51,10.79,37,10.79s14.21,13,14.21,13l-.9,1.42s-3.46-4.36-11.4-4.36S25.5,30.45,22.16,33.38c0,0,8.3,13.07,19.09,13.07,5.74,0,12-5,15.51-12.54-6.1.82-14.12,1.59-19.78.9a1.76,1.76,0,0,1-.41-.53,1.49,1.49,0,0,1-.16-.77,78.93,78.93,0,0,0,27.39-5.1A32,32,0,1,0,64,32.74C62.81,32.94,61,33.26,58.8,33.59Z" transform="translate(-0.01)"/></svg>