<?xml version="1.0" encoding="UTF-8"?><svg xmlns="http://www.w3.org/2000/svg" xmlns:xlink="http://www.w3.org/1999/xlink" viewBox="0 0 64 64"><defs><style>.cls-1{fill:none;}.cls-2{fill:url(#linear-gradient-3);}.cls-3{fill:url(#linear-gradient-2);}.cls-4{fill:url(#linear-gradient);}</style><linearGradient id="linear-gradient" x1="21.91" y1="9.93" x2="21.91" y2="57.27" gradientTransform="translate(0 66) scale(1 -1)" gradientUnits="userSpaceOnUse"><stop offset="0" stop-color="#570732"/><stop offset=".02" stop-color="#5d0936"/><stop offset=".16" stop-color="#771549"/><stop offset=".3" stop-color="#8b1d58"/><stop offset=".47" stop-color="#992362"/><stop offset=".67" stop-color="#a12768"/><stop offset="1" stop-color="#a4286a"/></linearGradient><linearGradient id="linear-gradient-2" x1="46.19" y1="9.93" x2="46.19" y2="57.17" xlink:href="#linear-gradient"/><linearGradient id="linear-gradient-3" x1="34.24" y1="66" x2="34.24" y2="2" gradientTransform="translate(0 66) scale(1 -1)" gradientUnits="userSpaceOnUse"><stop offset="0" stop-color="#77b227"/><stop offset=".47" stop-color="#75b027"/><stop offset=".64" stop-color="#6eab27"/><stop offset=".75" stop-color="#63a027"/><stop offset=".85" stop-color="#529228"/><stop offset=".93" stop-color="#3c8028"/><stop offset="1" stop-color="#246b29"/></linearGradient></defs><g id="Layer_1"><path class="cls-4" d="M24.69,15.31h-11.27l11.03,28.31c.83,2.12.83,4.48,0,6.6-.97,2.48-2.61,5.13-7.29,5.75l-.69.09h-2.18c-5.43-.02-9.83-4.41-9.85-9.84v-27.64c.01-5.44,4.42-9.84,9.85-9.86h25.11l-8.91,24.74-5.8-18.16Z"/><path class="cls-3" d="M59.57,18.59v37.48h-26.77c1.66-2.95,3.04-6.05,4.14-9.25l14.16-37.98c4.84.72,8.44,4.86,8.47,9.75Z"/><path class="cls-2" d="M52.64,0l-17.25,46.23c-1.46,4.09-2.94,7.33-4.52,9.82-.83,1.36-1.81,2.62-2.93,3.76-2.67,2.69-5.82,4.03-9.85,4.19v-6.5c1.37-.23,2.69-.71,3.88-1.43,2.24-1.4,3.32-3.45,4.03-5.25.98-2.51.98-5.29,0-7.8l-10.16-26.06h7.64l6.9,21.66L44.3,0h8.34Z"/></g><g id="Layer_2"><rect class="cls-1" width="64" height="64"/></g></svg>