<?xml version="1.0" encoding="UTF-8"?> <svg xmlns="http://www.w3.org/2000/svg" viewBox="0 0 64 64"><defs><style>.cls-1{fill:none;}.cls-2{fill:#e6b43d;}</style></defs><g id="Layer_1"><path class="cls-2" d="M29.87,52.51c9.46,0,17.12-7.66,17.12-17.1s-7.67-17.1-17.12-17.1-17.12,7.66-17.12,17.1,7.67,17.1,17.12,17.1Z"></path><path d="M33.26,28.42c0-.87.25-1.69.66-2.39-1.23-.53-2.6-.83-4.03-.83-5.63,0-10.21,4.56-10.21,10.19s4.56,10.19,10.21,10.19,10.21-4.56,10.21-10.19c0-.91-.13-1.79-.36-2.64-.55.22-1.14.35-1.78.35-2.59,0-4.69-2.1-4.69-4.69Z"></path><path d="M62.54,0l-28.69,5.77s-6.81,1.13-7.97,1.3c-.45.06-.9.16-1.31.23C11.3,9.79,1.24,21.44,1.24,35.4c0,15.77,12.85,28.6,28.63,28.6s28.63-12.83,28.63-28.6c0-8.3-3.56-15.78-9.23-21l4.25-.86c6.23-1.26,10.27-7.31,9.01-13.55,0,0,.01,0,.01,0ZM29.87,52.51c-9.44,0-17.12-7.68-17.12-17.1s7.68-17.1,17.12-17.1,17.12,7.68,17.12,17.1-7.68,17.1-17.12,17.1Z"></path></g><g id="Layer_2"><rect class="cls-1" width="64" height="64"></rect></g></svg> 