<?xml version="1.0" encoding="UTF-8"?><svg xmlns="http://www.w3.org/2000/svg" viewBox="0 0 64 64"><title>Google Contacts icon - Uncanny Automator</title><g id="a"><rect width="64" height="64" style="fill:none;"/></g><g id="b"><path d="m25.44,31.18c-11.34,0-20.51,9.17-20.51,20.51v8.62c0,2.04,1.65,3.69,3.69,3.69h9.85l9.85-32.82h-2.87Z" style="fill:#86a9ff;"/><path d="m59.08,44.72c0-7.48-6.06-13.54-13.54-13.54h-9.85v32.82h9.85c7.48,0,13.54-6.06,13.54-13.54" style="fill:#578cff;"/><path d="m14.77,44.72c0-7.48,6.06-13.54,13.54-13.54h7.38c7.48,0,13.54,6.06,13.54,13.54v5.74c0,7.48-6.06,13.54-13.54,13.54h-17.23c-2.04,0-3.69-1.65-3.69-3.69v-15.59Z" style="fill:#0057cc;"/><circle cx="32" cy="12.72" r="12.72" style="fill:#0057cc;"/></g></svg>