<?xml version="1.0" encoding="UTF-8"?><svg xmlns="http://www.w3.org/2000/svg" viewBox="0 0 64 64"><title>Thrive Ultimatum icon - Uncanny Automator</title><g id="a"><rect width="64" height="64" style="fill:none; stroke-width:0px;"/></g><g id="b"><path d="m27.08,0c3.37,2.52,6.54,4.89,9.71,7.26.32.24.43.42.02.72-3.13,2.32-6.24,4.65-9.36,6.98-.07.05-.18.05-.37.1,0-1.5-.03-2.94.01-4.39.02-.66-.16-.81-.82-.7-12.12,1.92-20.45,13.24-18.65,25.37.74,5.01,2.88,9.32,6.49,12.88.46.45.46.71.04,1.16-.73.78-1.42,1.61-2.07,2.45-.37.47-.61.48-1.04.06-4.52-4.46-7.29-9.83-8.1-16.12-1.45-11.42,3.92-22.04,13.84-27.56,2.89-1.61,5.99-2.63,9.29-3,.75-.08,1.07-.3,1.02-1.12-.08-1.28-.02-2.57-.02-4.08Z" style="fill:#434343; stroke-width:0px;"/><path d="m52.6,49.24c-6.27,1.96-12.11,4.64-16.18,10.12-.93,1.25-1.61,2.66-2.13,4.14-.07.2-.09.51-.37.5-.37-.01-.31-.39-.32-.61-.16-2.44.48-4.69,1.73-6.77,2.28-3.78,5.6-6.35,9.62-8.02,4.63-1.93,9.51-2.76,14.52-2.86.36,0,.71.03,1.07.07.22.03.43.12.76.21-3.1,1.46-4.5,4.21-5.97,6.95-1.05,1.97-2.13,3.95-3.71,5.56-1.97,2.03-4.52,2.98-7.23,3.52-1.75.35-3.53.46-5.33.43-.72-.01-.81-.18-.5-.82,2.05-4.32,5.04-7.74,9.36-9.93,1.58-.8,3.12-1.66,4.68-2.49.04-.02.07-.03.11-.05,0,.02-.01.04-.02.05-.02,0-.05,0-.08,0Z" style="fill:#5cb022; stroke-width:0px;"/><path d="m40.79,25c.04.79-.38,1.14-.75,1.49-2.08,2-4.16,4-6.26,5.99-.72.68-1.04,1.42-.74,2.45.18.61-.61.81-.92,1.23-.14.19-.3.3-.57.1-.64-.47-1.26-.27-1.85.12-.96.65-1.37.52-2.55-.84-.6-.69-.56-1.31.07-1.97.76-.79.74-1.16-.01-1.95-2.21-2.33-4.38-4.7-6.64-6.97-.86-.86-.02-1.08.34-1.55.53-.71.84-.2,1.2.18,2.14,2.26,4.27,4.53,6.41,6.79.83.88,1.44.89,2.35.02,2.23-2.13,4.44-4.26,6.66-6.41.49-.48,1.07-.93,1.71-.5.71.47,1.4,1.06,1.56,1.8Z" style="fill:#434343; stroke-width:0px;"/><path d="m28.71,59.29c-5.35-.17-10.22-1.79-14.61-4.88-.55-.38-.68-.64-.17-1.17.73-.78,1.4-1.61,2.07-2.45.31-.39.55-.51,1.02-.18,4.44,3.07,9.36,4.33,14.72,3.8.46-.04.56.08.71.51.56,1.59-.54,2.78-.91,4.15-.08.28-.37.22-.59.22-.74,0-1.49,0-2.24,0Z" style="fill:#434343; stroke-width:0px;"/><path d="m53.59,34.19c.13,0,.26.02.39.03,2.22.12,2.24.13,1.9,2.28-.38,2.38-1.07,4.67-2.04,6.88-.21.48-.5.68-.99.79-1.2.25-2.41.5-3.59.86-.53.16-.89.06-1.21-.31-.35-.4.1-.65.26-.92,1.53-2.61,2.54-5.38,2.96-8.38.19-1.38.2-1.38,1.55-1.28.26.02.52.04.78.06Z" style="fill:#434343; stroke-width:0px;"/><path d="m54.41,22.38c.06.23-.23.28-.47.35-1.14.36-2.29.7-3.43,1.08-.41.14-.56.01-.71-.36-.6-1.44-1.32-2.82-2.23-4.08-.28-.39-.19-.6.15-.86.93-.71,1.83-1.44,2.74-2.17.27-.21.48-.43.78,0,1.25,1.79,2.28,3.69,3.08,5.71.02.06.03.12.09.34Z" style="fill:#434343; stroke-width:0px;"/><path d="m56.16,30.28c.13,1.68.13,1.69-1.41,1.61-.87-.05-1.74-.15-2.61-.16-.52,0-.65-.22-.66-.7-.02-1.43-.25-2.83-.59-4.22-.11-.46-.03-.7.47-.84,1.09-.29,2.18-.62,3.24-1,.59-.21.72.05.83.53.38,1.61.65,3.23.73,4.77Z" style="fill:#434343; stroke-width:0px;"/><path d="m49.37,13.73c.02.51-.18.61-.31.71-.95.77-1.93,1.51-2.88,2.29-.34.28-.55.22-.79-.1-.13-.18-.33-.31-.47-.48-.48-.59-1.55-.92-1.5-1.62.05-.66.81-1.26,1.27-1.88q1.42-1.91,3.16-.25c.54.51,1.11.98,1.51,1.34Z" style="fill:#434343; stroke-width:0px;"/><path d="m44.03,9.59c-.06.08-.13.18-.21.28-.71.96-1.43,1.91-2.11,2.89-.26.37-.46.42-.86.2-2.02-1.09-2.03-1.08-1.12-3.21q1.01-2.39,3.26-1.08c1.06.62,1.08.64,1.05.92Z" style="fill:#434343; stroke-width:0px;"/></g></svg>