<?xml version="1.0" encoding="UTF-8"?><svg id="Layer_1" xmlns="http://www.w3.org/2000/svg" viewBox="0 0 64 64"><defs><style>.cls-1{fill:none;}.cls-1,.cls-2,.cls-3{stroke-width:0px;}.cls-2{fill:#1a191b;}.cls-3{fill:#1dbe61;fill-rule:evenodd;}</style></defs><title>Popup maker icon - Uncanny Automator</title><path class="cls-2" d="M44.19,42.31c.81-.93,1.33-2.09,1.48-3.32.15-1.23-.06-2.47-.61-3.58l-7.04-14.08c-.52-1.04-1.32-1.91-2.31-2.52-.99-.61-2.13-.93-3.29-.93s-2.3.32-3.29.93c-.99.61-1.79,1.48-2.31,2.52l-7.04,14.08c-.55,1.11-.77,2.35-.61,3.58.15,1.23.67,2.38,1.48,3.32.81.94,1.88,1.61,3.08,1.94,1.19.33,2.46.29,3.63-.1l5.09-1.69,5.06,1.68c1.17.38,2.43.42,3.61.09,1.19-.33,2.25-.99,3.06-1.92h0ZM32.45,24.13l7.04,14.08-5.31-1.77c-1.12-.37-2.34-.37-3.46,0l-5.31,1.77,7.04-14.08Z"/><path class="cls-3" d="M20.78,8.73c-6.89,0-12.47,5.58-12.47,12.47v1.66c0,2.3-1.86,4.16-4.16,4.16s-4.16-1.86-4.16-4.16v-1.66C0,9.72,9.3.42,20.78.42h2.49c2.3,0,4.16,1.86,4.16,4.16s-1.86,4.16-4.16,4.16h-2.49Z"/><path class="cls-3" d="M20.78,55.27c-6.89,0-12.47-5.58-12.47-12.47v-1.66c0-2.3-1.86-4.16-4.16-4.16s-4.16,1.86-4.16,4.16v1.66c0,11.48,9.3,20.78,20.78,20.78h2.49c2.3,0,4.16-1.86,4.16-4.16s-1.86-4.16-4.16-4.16h-2.49Z"/><path class="cls-3" d="M43.22,8.73c6.89,0,12.47,5.58,12.47,12.47v1.66c0,2.3,1.86,4.16,4.16,4.16s4.16-1.86,4.16-4.16v-1.66C64,9.72,54.7.42,43.22.42h-2.49c-2.3,0-4.16,1.86-4.16,4.16s1.86,4.16,4.16,4.16h2.49Z"/><path class="cls-3" d="M43.22,55.27c6.89,0,12.47-5.58,12.47-12.47v-1.66c0-2.3,1.86-4.16,4.16-4.16s4.16,1.86,4.16,4.16v1.66c0,11.48-9.3,20.78-20.78,20.78h-2.49c-2.3,0-4.16-1.86-4.16-4.16s1.86-4.16,4.16-4.16h2.49Z"/><rect class="cls-1" width="64" height="64"/></svg>