<?xml version="1.0" encoding="UTF-8"?><svg xmlns="http://www.w3.org/2000/svg" xmlns:xlink="http://www.w3.org/1999/xlink" viewBox="0 0 64 64"><defs><style>.cls-1{fill:none;}.cls-2{mask:url(#mask);}.cls-3{fill:url(#linear-gradient-2);}.cls-4{fill:#bbe2ff;}.cls-5{fill:url(#linear-gradient);}.cls-6{mask:url(#mask-1);}.cls-7{fill:#fff;}.cls-8{fill:#3c90ff;}.cls-9{fill:#3186ff;}</style><mask id="mask" x="0" y="5.01" width="64" height="58.6" maskUnits="userSpaceOnUse"><g id="a"><path class="cls-8" d="M2.65,16.34c-.79-6,3.88-11.33,9.94-11.33h38.83c6.06,0,10.73,5.33,9.94,11.33l-2.36,17.97,2.36,17.97c.79,6-3.88,11.33-9.94,11.33H12.59c-6.06,0-10.73-5.33-9.94-11.33l2.36-17.97-2.36-17.97Z"/></g></mask><linearGradient id="linear-gradient" x1="19" y1="-73.69" x2="19" y2="-44.39" gradientTransform="translate(13 108)" gradientUnits="userSpaceOnUse"><stop offset="0" stop-color="#4fa0ff"/><stop offset="1" stop-color="#3186ff"/></linearGradient><mask id="mask-1" x="2.56" y=".39" width="58.88" height="63.23" maskUnits="userSpaceOnUse"><g id="c"><path class="cls-9" d="M2.65,16.34c-.79-6,3.88-11.33,9.94-11.33h38.83c6.06,0,10.73,5.33,9.94,11.33l-2.36,17.97,2.36,17.97c.79,6-3.88,11.33-9.94,11.33H12.59c-6.06,0-10.73-5.33-9.94-11.33l2.36-17.97-2.36-17.97Z"/></g></mask><linearGradient id="linear-gradient-2" x1="32" y1="60.31" x2="32" y2="31.54" gradientTransform="translate(0 66) scale(1 -1)" gradientUnits="userSpaceOnUse"><stop offset="0" stop-color="#a9a8ff"/><stop offset=".8" stop-color="#3c90ff"/></linearGradient></defs><g id="Layer_2"><rect class="cls-1" width="64" height="64"/></g><g id="Layer_1"><path class="cls-4" d="M7.33,11.49C7.33,5.36,12.3.39,18.43.39h27.14c6.13,0,11.1,4.97,11.1,11.1v11.72c0,6.13-4.97,11.1-11.1,11.1h-27.14c-6.13,0-11.1-4.97-11.1-11.1v-11.72Z"/><path class="cls-8" d="M2.65,16.34c-.79-6,3.88-11.33,9.94-11.33h38.83c6.06,0,10.73,5.33,9.94,11.33l-2.36,17.97,2.36,17.97c.79,6-3.88,11.33-9.94,11.33H12.59c-6.06,0-10.73-5.33-9.94-11.33l2.36-17.97-2.36-17.97Z"/><g class="cls-2"><path class="cls-5" d="M0,63.61h64v-29.3H0v29.3Z"/></g><g class="cls-6"><path class="cls-3" d="M7.33,7.79C7.33,3.7,10.64.39,14.73.39h34.54c4.09,0,7.4,3.31,7.4,7.4v26.53H7.33V7.79Z"/></g><path class="cls-7" d="M24.04,48.71c-1.61,0-3-.26-4.15-.79-1.16-.53-2.13-1.23-2.93-2.11-.79-.89-1.35-1.77-1.67-2.62s-.46-1.37-.39-1.56c.07-.19.21-.34.39-.43l2.19-.87c.18-.09.37-.1.55-.04.18.05.4.35.65.91.26.55.63,1.14,1.1,1.75.47.59,1.06,1.08,1.73,1.44.67.34,1.5.51,2.48.51,1.59,0,2.85-.46,3.78-1.38.95-.92,1.42-2.09,1.42-3.5,0-1.54-.5-2.72-1.5-3.54-1-.84-2.32-1.26-3.96-1.26h-2.07c-.19,0-.37-.07-.51-.2-.13-.14-.2-.31-.2-.49v-2.11c0-.2.07-.36.2-.49.13-.14.32-.22.51-.22h1.79c1.47,0,2.65-.4,3.54-1.2.89-.8,1.34-1.84,1.34-3.11s-.4-2.28-1.2-3.05-1.9-1.16-3.31-1.16c-.79,0-1.47.13-2.05.39-.57.26-1.08.63-1.5,1.1-.41.45-.77.94-1.08,1.46-.3.5-.54.77-.73.83-.18.04-.36,0-.53-.1l-2.07-1c-.17-.09-.28-.24-.33-.43s.11-.66.47-1.38c.38-.74.96-1.48,1.73-2.25.78-.77,1.7-1.37,2.72-1.77,1.04-.42,2.24-.63,3.62-.63,2.56,0,4.59.68,6.08,2.03,1.5,1.34,2.25,3.11,2.25,5.32,0,1.52-.37,2.84-1.1,3.96-.72,1.12-1.75,1.9-3.07,2.36v.08c1.6.47,2.86,1.34,3.78,2.6.93,1.25,1.4,2.74,1.4,4.47,0,2.48-.87,4.52-2.6,6.1-1.73,1.59-3.99,2.38-6.77,2.38h0ZM43.8,48.25c-.22,0-.42-.09-.59-.26-.16-.16-.24-.38-.24-.61v-21.9l-4.43,3.19c-.16.12-.34.16-.55.12-.19-.03-.36-.14-.47-.3l-1.28-1.81c-.12-.16-.16-.36-.14-.55.04-.21.14-.37.31-.49l7.86-5.61c.07-.05.14-.09.22-.12.08-.04.17-.06.28-.06h1.65c.22,0,.4.08.53.24.14.14.22.33.22.55v26.74c0,.24-.09.44-.26.61-.15.17-.37.26-.59.26h-2.52Z"/></g></svg>