<svg xmlns="http://www.w3.org/2000/svg" viewBox="0 0 64 64"><defs><style>.a{fill:none;}.b{fill:#9b5c8f;fill-rule:evenodd;}.c{fill:#fff;}</style></defs><title>WooCommerce icon - Uncanny Automator</title><rect class="a" width="64" height="64"/><path class="b" d="M5.94,13H58a6,6,0,0,1,6,6V38.8a6,6,0,0,1-6,6H39.35l2.57,6.28L30.64,44.77H6a6,6,0,0,1-6-6V18.92a5.94,5.94,0,0,1,5.88-6h.06Z" transform="translate(0)"/><path class="c" d="M3.48,18.37a2.1,2.1,0,0,1,1.65-.81,1.92,1.92,0,0,1,2.25,1.5,2.43,2.43,0,0,1,0,.38c.81,5.47,1.7,10.1,2.64,13.89l5.73-10.91a2.51,2.51,0,0,1,2-1.57c1.16-.07,1.86.66,2.15,2.2a48.42,48.42,0,0,0,2.49,9c.68-6.65,1.83-11.43,3.45-14.39a2,2,0,0,1,1.73-1.15,2.29,2.29,0,0,1,1.65.52A2.11,2.11,0,0,1,30,18.47a2.3,2.3,0,0,1-.27,1.26c-1,1.88-1.85,5.05-2.53,9.44a49.28,49.28,0,0,0-.74,10,3,3,0,0,1-.31,1.73,1.67,1.67,0,0,1-1.39.94,2.64,2.64,0,0,1-2.06-1Q19,37.12,16.93,29.7q-2.55,5-3.76,7.53c-1.55,3-2.86,4.48-4,4.56-.7.05-1.3-.55-1.83-1.81Q5.35,34.83,3,20.12a2.38,2.38,0,0,1,.41-1.75Zm56.26,4.11a6,6,0,0,0-4.19-3,7.34,7.34,0,0,0-1.41-.16c-2.51,0-4.55,1.31-6.15,3.93a13.88,13.88,0,0,0-2,7.38,10.17,10.17,0,0,0,1.26,5.18,6,6,0,0,0,4.18,3,6.79,6.79,0,0,0,1.42.16c2.53,0,4.57-1.31,6.14-3.92a13.92,13.92,0,0,0,2-7.41A9.8,9.8,0,0,0,59.74,22.48Zm-3.3,7.24a6.88,6.88,0,0,1-2,3.88,2.48,2.48,0,0,1-2.11.83c-.63-.13-1.16-.68-1.55-1.7a6.68,6.68,0,0,1-.47-2.38,10.21,10.21,0,0,1,.18-1.91,8.48,8.48,0,0,1,1.39-3.11c.86-1.28,1.78-1.81,2.72-1.62.63.13,1.15.68,1.55,1.7a6.68,6.68,0,0,1,.47,2.38,10.43,10.43,0,0,1-.19,1.93ZM43.33,22.48a6.07,6.07,0,0,0-4.18-3,7.44,7.44,0,0,0-1.42-.16c-2.51,0-4.55,1.31-6.14,3.93a13.88,13.88,0,0,0-2,7.38,10.16,10.16,0,0,0,1.25,5.18,6,6,0,0,0,4.19,3,6.77,6.77,0,0,0,1.41.16c2.5,0,4.58-1.32,6.11-4a14,14,0,0,0,2-7.41A9.81,9.81,0,0,0,43.33,22.48ZM40,29.72a6.94,6.94,0,0,1-2,3.88,2.5,2.5,0,0,1-2.12.83c-.63-.13-1.15-.68-1.54-1.7a6.48,6.48,0,0,1-.48-2.38,9.45,9.45,0,0,1,.19-1.91,8.63,8.63,0,0,1,1.38-3.11c.87-1.28,1.78-1.81,2.73-1.62.62.13,1.15.68,1.54,1.7a6.68,6.68,0,0,1,.47,2.38A8.94,8.94,0,0,1,40,29.72Z" transform="translate(0)"/></svg>