<svg xmlns="http://www.w3.org/2000/svg" viewBox="0 0 64 64"><defs><style>.a{fill:#7742e6;}.a,.b{fill-rule:evenodd;}.b{fill:#fff;}</style></defs><title>Fluent CRM icon - Uncanny Automator</title><path class="a" d="M64,6.4A6.41,6.41,0,0,0,57.6,0H6.4A6.41,6.41,0,0,0,0,6.4V57.6A6.41,6.41,0,0,0,6.4,64H57.6A6.41,6.41,0,0,0,64,57.6Z"/><path class="b" d="M53.54,15.17,14.92,25.52a6,6,0,0,0-4.46,5.81v4.05l34.71-9.3a11.3,11.3,0,0,0,8.37-10.91Z"/><path class="b" d="M37,33.05,14.92,39a6,6,0,0,0-4.46,5.81v4L28.64,44A11.29,11.29,0,0,0,37,33.05Z"/></svg>