<?xml version="1.0" encoding="UTF-8"?><svg id="b" xmlns="http://www.w3.org/2000/svg" viewBox="0 0 64 64"><title>SliceWP icon - Uncanny Automator</title><g id="c"><path id="d" d="M57.86,37.11c-.92,15.01-13.71,26.87-28.98,26.87-15.95,0-28.87-12.93-28.87-28.87S12.1,7.09,27.32,6.28c1.04.08,1.7.59,1.79,1.59.02,17.71.03,23.78.28,25.72.29.62.37.66,1.11,1.05,2.41.48,22.49-.18,24.79.05,1.45.33,2.59.82,2.56,2.41h0Z" style="fill:#2d3f50; fill-rule:evenodd; stroke-width:0px;"/><path id="e" d="M61.49,29.34h-23.86c-2.16,0-2.74-1.05-2.74-2.1,0-15.7-.11-18.26-.03-24.37-.16-1.08.53-2.61,2.33-2.86,15.93,1.13,26.83,14.56,26.81,27.02-.06,1.27-1.12,2.27-2.51,2.3Z" style="fill:#f6538e; fill-rule:evenodd; stroke-width:0px;"/></g><rect x="0" width="64" height="64" style="fill:none; stroke-width:0px;"/></svg>