<?xml version="1.0" encoding="UTF-8"?><svg xmlns="http://www.w3.org/2000/svg" viewBox="0 0 64 64"><title>Bitly icon - Uncanny Automator</title><g id="a"><rect width="64" height="64" style="fill:none;"/></g><g id="b"><path d="m34.81,56.7c-3.58.05-6.2-1.09-6.36-4.23-.06-1.18-.04-2.43,0-3.18.36-4.58,3.55-7.88,6.74-8.51,3.96-.78,6.55,1.01,6.55,6.16,0,3.48-.96,9.66-6.91,9.76h-.04,0ZM31.79,0C14.19,0,0,14.13,0,32.6c0,9.58,5.13,18.83,12.32,24.39,1.4,1.06,3.04.98,4,.05.79-.76.72-2.63-.76-3.94-5.76-5.02-9.74-12.69-9.74-20.35,0-13.73,12.21-25.31,25.97-25.31,16.75,0,25.7,13.61,25.7,25.15,0,7.06-3.44,15.57-9.67,20.99.04,0,1.31-2.51,1.31-7.42,0-8.35-5.27-12.9-11.42-12.9-4.43,0-7.1,1.59-8.91,3.07,0-3.4.13-9.74.13-9.74,0-4.2-1.44-7.55-6.58-7.64-2.97-.03-5.16,1.32-6.51,4.4-.48,1.17-.32,2.45.68,3,.8.48,2.16.13,2.79-.76.44-.55.68-.68,1.07-.64.65.08.69,1.08.69,1.76.03.51.51,7.74.23,26.3-.02,5.09,4.01,10.97,13.64,10.97,4.16,0,7.34-1.16,11.98-3.79,7.06-4,17.08-12.85,17.08-27.86C63.87,13.46,48.71,0,31.82,0h-.03Z" style="fill:#ee6123;"/></g></svg>