<svg xmlns="http://www.w3.org/2000/svg" viewBox="0 0 504.05 504.47">
  <defs>
    <style>
      .c{fill:#666}.d{fill:#393434}.e{fill:#bbe5ed}.f{fill:#a0c0be}.g{fill:#ffc499}.h{fill:#fff}.i{mix-blend-mode:multiply}.j{fill:#d9d5cc}
    </style>
  </defs>
  <g style="isolation:isolate">
    <path fill="none" d="M-.48-.27v505H148.1c2.93-3.7 5.73-7.52 8.36-11.47a172.72 172.72 0 0 0 26.19-65.38 70 70 0 0 1 1.86-15.5c.08-1.47.09-2.29.09-2.34a27.1 27.1 0 0 1 7.82-19.42 26.65 26.65 0 0 1 3.48-3A69.28 69.28 0 0 1 252 359h9.76a69 69 0 0 1 45 16.63 3.74 3.74 0 0 1 1.24 1.07 70.29 70.29 0 0 1 8.92 9.65h23.5a29.84 29.84 0 0 1 29.8 29.8v88.61h134.31V-.27z"/>
    <path d="M340.42 394.15h-18.33a68.81 68.81 0 0 1 9 30.85 198.59 198.59 0 0 1 .09 61.39v18.35h31.22v-88.61a22 22 0 0 0-21.98-21.98z" class="c"/>
    <path d="M340.42 386.33h-23.5a69.58 69.58 0 0 1 5.17 7.82h18.33a22 22 0 0 1 22 22v88.61h7.82v-88.63a29.84 29.84 0 0 0-29.82-29.8z" class="d"/>
    <path d="M163 497.61c-1.62 2.43-3.32 4.79-5 7.13h24.71v-46.33a180 180 0 0 1-19.71 39.2z" class="e"/>
    <path d="M192.42 390.63a27.1 27.1 0 0 0-7.82 19.42c0 .05 0 .87-.09 2.34a69.16 69.16 0 0 1 11.39-24.76 26.65 26.65 0 0 0-3.48 3zM182.64 458.41v-30.07-.45a172.72 172.72 0 0 1-26.19 65.38c-2.63 4-5.43 7.77-8.36 11.47h9.83c1.72-2.34 3.42-4.7 5-7.13a180 180 0 0 0 19.72-39.2z" class="d"/>
    <path d="M285.48 371.53l1.56.69zM293.33 375.49l1.61 1zM304.25 383.82zM288.17 372.73c.53.25 1.05.52 1.58.79-.53-.27-1.05-.52-1.58-.79zM290.79 374.05c.54.29 1.07.6 1.59.9-.53-.3-1.05-.61-1.59-.9zM295.79 377.05zM304.78 384.33zM274.06 368l1.42.32zM271.06 367.49l1.36.24zM277 368.69l1.48.41zM282.71 370.45l1.54.59zM279.89 369.5c.51.16 1 .34 1.51.51-.5-.17-1-.35-1.51-.51zM264.91 366.87l1.09.13zM248.06 366.93l1.12-.07zM245 367.2c.47-.06.94-.1 1.42-.15-.42.05-.92.09-1.42.15zM268 367.1l1.28.16zM282.08 391.93a61.51 61.51 0 0 0-39.84-24.36l1.58-.22a61.54 61.54 0 0 0-53.36 61v76.4H262a84 84 0 0 1-9-38c0-36.7 15.34-60.69 29.08-74.82zM316.69 400.56zM315.32 398zM313.83 395.52zM313.65 395.23zM318.63 404.8a.58.58 0 0 1 0-.14c-.21-.49-.44-1-.66-1.47.21.53.43 1.07.66 1.61z" class="e"/>
    <path d="M285.21 435.23a3.9 3.9 0 0 1 6.73-3.19l2.07-1.92v-1.78a61.16 61.16 0 0 0-7.77-29.93c-12.28 13-25.56 34.83-25.56 68.3a75.77 75.77 0 0 0 10.29 38h6.64c10.93-26.62 9.76-53.77 7.6-69.48zM306.8 386.39c.53.57 1 1.15 1.55 1.74-.51-.59-1.02-1.13-1.55-1.74zM308.71 388.55c.52.61 1 1.23 1.52 1.86-.5-.63-1-1.25-1.52-1.86zM312 392.78c-.47-.67-1-1.34-1.47-2 .47.66.99 1.33 1.47 2z" class="e"/>
    <path d="M306.6 382.53c-.23.12-1.06.54-2.35 1.29l.51.49c.54.53 1.07 1.06 1.59 1.61l.43.45c.53.57 1 1.15 1.55 1.74l.36.42c.52.61 1 1.23 1.52 1.86.1.13.2.25.29.38.51.65 1 1.32 1.47 2l.24.33c.49.7 1 1.4 1.42 2.12l.18.29c.47.73.91 1.48 1.35 2.24 0 .08.09.16.14.24.44.77.86 1.56 1.27 2.35l.1.21c.41.81.8 1.63 1.18 2.46 0 .06.05.11.07.17l.66 1.47a3.88 3.88 0 0 1 2.6-4.56 3.92 3.92 0 0 1 4.92 2.53 160.58 160.58 0 0 1 4.95 22.38 68.81 68.81 0 0 0-9-30.85 69.58 69.58 0 0 0-5.17-7.82 70.29 70.29 0 0 0-8.92-9.65 3.62 3.62 0 0 1 .4.66 3.91 3.91 0 0 1-1.76 5.19zM327.13 504.74h4v-18.35a168.66 168.66 0 0 1-4 18.35zM190.46 428.34a61.54 61.54 0 0 1 53.36-61l1.21-.15c.47-.06.94-.1 1.42-.15s1.07-.08 1.61-.12l1.12-.07c.93 0 1.88-.07 2.83-.07h9.76c1.06 0 2.1 0 3.14.08l1.09.14 2 .15 1.28.16c.59.08 1.18.14 1.77.23l1.36.24c.55.09 1.1.18 1.64.29l1.42.32 1.52.35 1.48.41 1.41.4c.51.16 1 .34 1.51.51s.88.28 1.31.44l1.54.59 1.23.49 1.56.69 1.13.51c.53.25 1.05.52 1.58.79l1 .53c.54.29 1.06.6 1.59.9l.95.54 1.61 1 .85.55c.55.36 1.09.74 1.62 1.13l.64.44a58.4 58.4 0 0 1 5.21-3.11 3.79 3.79 0 0 1 3.5.1 69 69 0 0 0-45-16.63H252a69.52 69.52 0 0 0-67.5 53.41 70 70 0 0 0-1.86 15.5V504.78h7.82z" class="d"/>
    <path d="M295.79 377.05l-.85-.55-1.61-1-.95-.54c-.52-.3-1.05-.61-1.59-.9l-1-.53c-.53-.27-1.05-.54-1.58-.79l-1.13-.51-1.56-.69-1.23-.49-1.54-.59c-.43-.16-.87-.3-1.31-.44s-1-.35-1.51-.51l-1.41-.4-1.48-.41-1.52-.35-1.42-.32c-.54-.11-1.09-.2-1.64-.29l-1.36-.24c-.59-.09-1.18-.15-1.77-.23l-1.33-.17-2-.15-1.07-.08c-1-.05-2.08-.08-3.14-.08H252c-.95 0-1.9 0-2.83.07l-1.12.07c-.54 0-1.08.07-1.61.12s-.95.09-1.42.15l-1.21.15-1.58.22a61.51 61.51 0 0 1 39.84 24.36 97.24 97.24 0 0 1 16-13.31l-.64-.44c-.55-.39-1.09-.77-1.64-1.13zM317.87 403c-.38-.83-.77-1.65-1.18-2.46l-.1-.21c-.41-.79-.83-1.58-1.27-2.35-.05-.08-.1-.16-.14-.24-.44-.76-.88-1.51-1.35-2.24l-.18-.29a60.2 60.2 0 0 0-1.42-2.12l-.24-.33c-.47-.67-1-1.34-1.47-2-.09-.13-.19-.25-.29-.38-.5-.63-1-1.25-1.52-1.86l-.36-.42c-.51-.59-1-1.17-1.55-1.74l-.43-.45c-.52-.55-1.05-1.08-1.59-1.61l-.51-.49a83.68 83.68 0 0 0-18 14.59 61.16 61.16 0 0 1 7.73 29.94v1.78l25.19-23.34c-.27-.93-.46-1.54-.53-1.77a1.55 1.55 0 0 1 0-.21c-.23-.54-.45-1.08-.69-1.61a.435.435 0 0 1-.1-.19z" class="f"/>
    <path d="M286.24 398.41a83.68 83.68 0 0 1 18-14.59c1.29-.75 2.12-1.17 2.35-1.29a3.91 3.91 0 0 0 1.8-5.19 3.62 3.62 0 0 0-.4-.66 3.74 3.74 0 0 0-1.24-1.07 3.79 3.79 0 0 0-3.5-.1 58.4 58.4 0 0 0-5.21 3.11 97.24 97.24 0 0 0-16 13.31c-13.74 14.13-29.1 38.12-29.1 74.78a84 84 0 0 0 9 38h9a75.77 75.77 0 0 1-10.29-38c.03-33.47 13.35-55.28 25.59-68.3z" class="d"/>
    <path d="M319.2 406.78L294 430.12l-2.06 1.88a3.87 3.87 0 0 1 1 2.12c2.2 16 3.4 43.26-6.94 70.58h33c13.55-45.94 2.87-88.63.2-97.92z" class="e"/>
    <path d="M331.14 486.39a198.59 198.59 0 0 0-.09-61.39 160.58 160.58 0 0 0-4.93-22.37 3.92 3.92 0 0 0-4.92-2.53 3.88 3.88 0 0 0-2.6 4.56.58.58 0 0 0 0 .14 1.55 1.55 0 0 0 0 .21c.07.23.26.84.53 1.77 2.67 9.29 13.35 52-.17 98h8.1a168.66 168.66 0 0 0 4.08-18.39zM293 434.16a3.92 3.92 0 0 0-4.4-3.34 3.91 3.91 0 0 0-3.34 4.41c2.16 15.71 3.33 42.86-7.6 69.51H286c10.35-27.32 9.15-54.58 7-70.58z" class="d"/>
    <rect width="52.75" height="58.62" x="231.49" y="310.13" class="g" rx="3.91" ry="3.91"/>
    <path d="M280.34 314v50.8H235.4V314h44.94m0-7.82H235.4a7.82 7.82 0 0 0-7.82 7.82v50.8a7.82 7.82 0 0 0 7.82 7.81h44.94a7.81 7.81 0 0 0 7.81-7.81V314a7.82 7.82 0 0 0-7.81-7.82z" class="d"/>
    <circle cx="177.43" cy="241.08" r="21.86" class="g"/>
    <path d="M177.43 266.85a25.77 25.77 0 1 1 25.76-25.77 25.8 25.8 0 0 1-25.76 25.77zm0-43.71a17.95 17.95 0 1 0 17.95 17.94 18 18 0 0 0-17.95-17.94z" class="d"/>
    <circle cx="339.86" cy="241.08" r="21.86" class="g"/>
    <path d="M339.86 266.85a25.77 25.77 0 1 1 25.77-25.77 25.8 25.8 0 0 1-25.77 25.77zm0-43.71a17.95 17.95 0 1 0 17.95 17.94 18 18 0 0 0-17.95-17.94z" class="d"/>
    <path d="M258.65 347.25a79.92 79.92 0 0 1-79.84-79.84v-95.15a3.9 3.9 0 0 1 3.91-3.9h151.86a3.9 3.9 0 0 1 3.91 3.9v95.15a79.93 79.93 0 0 1-79.84 79.84z" class="g"/>
    <path d="M334.58 172.26v95.15a75.93 75.93 0 0 1-151.86 0v-95.15h151.86m0-7.81H182.72a7.82 7.82 0 0 0-7.82 7.81v95.15a83.75 83.75 0 1 0 167.49 0v-95.15a7.81 7.81 0 0 0-7.81-7.81z" class="d"/>
    <circle cx="295.58" cy="240.12" r="21.86" class="h"/>
    <g class="i">
      <rect width="20.15" height="63.44" x="254.4" y="226.35" class="j" rx="1.11" ry="1.11"/>
    </g>
    <g class="i">
      <path d="M182.72 172.26v16.11h126v74.24a75.94 75.94 0 0 1-75.93 75.93h-.8a75.73 75.73 0 0 0 26.66 4.82 75.93 75.93 0 0 0 75.93-75.93v-95.17z" class="j"/>
    </g>
    <circle cx="222.53" cy="240.12" r="21.86" class="h"/>
    <path d="M222.53 248.12c10.34 0 10.34-16 0-16s-10.34 16 0 16zM295.58 248.12c10.34 0 10.34-16 0-16s-10.35 16 0 16zM202.03 203.54l38.937-6.685a1.487 1.487 0 0 1 1.717 1.213l2.04 11.88-41.867 7.19-2.04-11.88a1.487 1.487 0 0 1 1.213-1.717zM277.265 197.815l39.045 4.725a1.48 1.48 0 0 1 1.291 1.648L316.16 216.1l-41.984-5.081 1.442-11.913a1.48 1.48 0 0 1 1.647-1.292z" class="d"/>
    <rect width="20.15" height="63.44" x="249.08" y="220.25" fill="#ffb599" rx="1.11" ry="1.11"/>
    <path d="M258.65 314.34a21.73 21.73 0 0 1-21.7-21.7 3.91 3.91 0 0 1 7.82 0 13.88 13.88 0 1 0 27.75 0 3.91 3.91 0 1 1 7.82 0 21.72 21.72 0 0 1-21.69 21.7z" class="d"/>
    <path d="M339.88 230c-2.64 0-62 13.2-137.27-60.71l-25.07 50.15s-33-10.56-33-62S193.38 61 259.37 61c80.51 0 108.23 19.8 108.23 19.8l-14.52 22.43s25.08 29 18.48 72.6S339.88 230 339.88 230z" class="c"/>
    <path d="M326.87 234.72c-25.06 0-70.31-8.74-123.14-59L181 221.14a3.9 3.9 0 0 1-4.68 2c-1.46-.46-35.72-12-35.72-65.75 0-26.49 12.09-51.51 34-70.44C196.94 67.69 227 57.1 259.37 57.1c80.83 0 109.32 19.69 110.5 20.53a3.91 3.91 0 0 1 1 5.3l-13 20.09a99.66 99.66 0 0 1 17.54 73.4c-6.85 45.2-32.92 56.66-34 57.13a3.89 3.89 0 0 1-1.38.3l-.72.1a96.13 96.13 0 0 1-12.44.77zm-124.26-69.39a3.87 3.87 0 0 1 2.74 1.12c62.57 61.47 113.8 62.26 132.93 59.75l.54-.07c3.44-1.71 23.14-13.08 28.87-50.88 6.24-41.14-17.33-69.18-17.57-69.46a3.91 3.91 0 0 1-.32-4.67l12.28-19c-9.31-4.79-39.56-17.22-102.71-17.22-61.16 0-110.92 41.46-110.92 92.44 0 38.86 19.59 52.93 27.26 56.95l23.41-46.82a3.92 3.92 0 0 1 2.85-2.11 4.6 4.6 0 0 1 .64-.03z" class="d"/>
    <path d="M139.66 89.34l17.58 17.58" class="c"/>
    <path d="M157.24 110.83a3.89 3.89 0 0 1-2.76-1.14L136.89 92.1a3.91 3.91 0 1 1 5.53-5.52L160 104.16a3.91 3.91 0 0 1-2.76 6.67z" class="d"/>
    <path d="M137.7 112.79l16.12 5.37" class="c"/>
    <path d="M153.82 122.07a4.06 4.06 0 0 1-1.23-.2l-16.12-5.38a3.91 3.91 0 1 1 2.47-7.41l16.12 5.37a3.91 3.91 0 0 1-1.24 7.62z" class="d"/>
  </g>
</svg>
