<svg xmlns="http://www.w3.org/2000/svg" viewBox="0 0 294.3 219.7"><defs><style>.a{isolation:isolate;}.b{fill:none;}.c{fill:#010101;}.d{fill:#393434;}.e{fill:#e2e1e1;}.f{fill:#ffe3b2;}.g{fill:#fff;}.h{fill:#a3bdc2;}.i{fill:#f2eeed;}.j{fill:#bce5ed;}.k{fill:#fab399;}.l{mix-blend-mode:multiply;}.m{fill:#d9d5cc;}.n{fill:#3b8bcb;}.o{fill:#fcc49a;}.p,.q{fill:#977c6a;}.q{stroke:#010101;stroke-linecap:round;stroke-linejoin:round;stroke-width:9px;}.r{opacity:0.5;}.s{fill:#ccc7c7;}.t{fill:#b87a63;}</style></defs><title>user-selector-new-user</title><g class="a"><line class="b" x1="38.79" y1="208.18" x2="38.79" y2="181.75"/><path class="c" d="M44.69,247.83V221.4a1.54,1.54,0,0,0-3.07,0v26.43a1.54,1.54,0,0,0,3.07,0Z" transform="translate(-4.37 -39.65)"/><line class="b" x1="26.55" y1="120.88" x2="38.27" y2="123.15"/><path class="d" d="M30.62,162l11.72,2.27a1.54,1.54,0,0,0,.59-3L31.21,159a1.53,1.53,0,0,0-.59,3Z" transform="translate(-4.37 -39.65)"/><rect class="e" x="42.89" y="176.72" width="17.6" height="8.19" transform="translate(-140.02 157.54) rotate(-79.04)"/><path class="c" d="M54.32,188.76l-8-1.55L47.5,189l3.35-17.28-1.8,1.22,8,1.55-1.22-1.79L52.52,190a1.54,1.54,0,0,0,3,.58l3.34-17.28a1.58,1.58,0,0,0-1.21-1.8l-8-1.56a1.59,1.59,0,0,0-1.8,1.22l-3.34,17.28a1.58,1.58,0,0,0,1.21,1.8l8,1.56A1.54,1.54,0,0,0,54.32,188.76Z" transform="translate(-4.37 -39.65)"/><path class="f" d="M72.48,211.63l-.34,1.74-51.57-10,.33-1.75A26.25,26.25,0,0,1,68.44,192,26.08,26.08,0,0,1,72.48,211.63Z" transform="translate(-4.37 -39.65)"/><path class="c" d="M71,211.34l-.33,1.74,1.79-1.21-45.21-8.76-6.39-1.24,1.21,1.8a27.88,27.88,0,0,1,4.88-11.94,25.35,25.35,0,0,1,11.57-8.43,24.79,24.79,0,0,1,32.48,28,1.54,1.54,0,0,0,3,.58,28.22,28.22,0,0,0-16.66-31,28,28,0,0,0-31.07,6.87c-4,4.33-6.09,9.56-7.2,15.28a1.56,1.56,0,0,0,1.21,1.8l45.22,8.76,6.39,1.24a1.57,1.57,0,0,0,1.8-1.22l.34-1.74A1.55,1.55,0,0,0,71,211.34Z" transform="translate(-4.37 -39.65)"/><path class="g" d="M56.25,199.8l-.1.54-15.71-3,.1-.54a8.07,8.07,0,0,1,9.4-6.35,8,8,0,0,1,5.11,3.39A8.08,8.08,0,0,1,56.25,199.8Z" transform="translate(-4.37 -39.65)"/><path class="c" d="M54.74,199.51l-.1.54,1.8-1.22-15.71-3,1.22,1.8c.59-3.08,2.77-5.54,6-5.75a6.54,6.54,0,0,1,6.75,7.67c-.31,2,2.71,2.54,3,.58a9.7,9.7,0,0,0-9.13-11.35c-5-.17-8.82,3.54-9.72,8.22a1.56,1.56,0,0,0,1.21,1.8l15.71,3.05a1.59,1.59,0,0,0,1.8-1.22l.1-.54C58.13,198.15,55.12,197.57,54.74,199.51Z" transform="translate(-4.37 -39.65)"/><path class="h" d="M85,154.18l-2.65-.51,1.45-7.47,2.65.51a3.78,3.78,0,0,1,3,4.44h0A3.8,3.8,0,0,1,85,154.18Z" transform="translate(-4.37 -39.65)"/><path class="c" d="M85.25,152.67l-2.64-.51,1.21,1.8,1.45-7.47-1.8,1.22c1.07.2,2.63.23,3.54.92,2,1.43.51,4.34-1.76,4-2-.27-2.54,2.74-.58,3a5.4,5.4,0,0,0,6.11-6.81c-1-3.15-3.92-3.64-6.73-4.19a1.58,1.58,0,0,0-1.8,1.22l-1.44,7.47A1.56,1.56,0,0,0,82,155.17l2.65.52A1.54,1.54,0,0,0,85.25,152.67Z" transform="translate(-4.37 -39.65)"/><path class="i" d="M45,123a24.17,24.17,0,0,1,18.61-4h0a24.11,24.11,0,0,1,19.16,28.1l-5.15,26.62a3.76,3.76,0,0,1-4.39,2.94l-40-7.75a3.72,3.72,0,0,1-3-4.36l5.15-26.63a23.7,23.7,0,0,1,5.41-11.08" transform="translate(-4.37 -39.65)"/><path class="c" d="M45.87,124.23a23,23,0,0,1,26.06-.2,22.64,22.64,0,0,1,9.46,22c-1.45,8.93-3.32,17.85-5.17,26.7-.34,1.6-1.3,2.59-3,2.29-1.34-.23-2.71-.53-4-.79l-16.48-3.19L36.9,168c-1.1-.22-2.26-.34-3.35-.65-2.11-.59-1.93-2.22-1.61-3.89l3-15.64c.84-4.32,1.3-9.06,2.87-13.21A22.69,22.69,0,0,1,42,127.78a1.54,1.54,0,0,0-2.32-2,25.69,25.69,0,0,0-5.8,12l-1.08,5.56-3.48,18c-.33,1.67-.94,3.57-.47,5.26.68,2.42,2.7,3.51,5,3.95l14.5,2.81,18.52,3.59c3.78.73,9.44,2.9,11.79-1.51a17.46,17.46,0,0,0,1.15-4.67l1.7-8.78c.94-4.85,1.91-9.7,2.82-14.57A25.68,25.68,0,0,0,51,118.24a26.82,26.82,0,0,0-6.82,3.44,1.53,1.53,0,0,0,1.7,2.55Z" transform="translate(-4.37 -39.65)"/><circle class="g" cx="54.56" cy="105.6" r="6.92"/><path class="d" d="M58.44,147.76c3.25.63,4.22-4.4,1-5s-4.22,4.39-1,5Z" transform="translate(-4.37 -39.65)"/><path class="c" d="M46.58,157.87,46,160.71a1.53,1.53,0,0,0,3,.59l.55-2.85a1.53,1.53,0,0,0-3-.58Z" transform="translate(-4.37 -39.65)"/><path class="c" d="M62.64,161.08l-.55,2.85a1.53,1.53,0,0,0,3,.58l.55-2.85a1.53,1.53,0,0,0-3-.58Z" transform="translate(-4.37 -39.65)"/><path class="c" d="M57.5,160,57,162.83a1.53,1.53,0,0,0,3,.58l.55-2.85a1.53,1.53,0,0,0-3-.58Z" transform="translate(-4.37 -39.65)"/><path class="c" d="M52,158.92l-.55,2.85a1.53,1.53,0,0,0,3,.58l.55-2.84a1.53,1.53,0,0,0-3-.59Z" transform="translate(-4.37 -39.65)"/><path class="j" d="M31.17,143.76l2.65.52,1.45-7.47-2.65-.51a3.77,3.77,0,0,0-4.44,3h0A3.77,3.77,0,0,0,31.17,143.76Z" transform="translate(-4.37 -39.65)"/><path class="c" d="M30.88,145.27l2.65.51a1.58,1.58,0,0,0,1.8-1.21l1.44-7.47a1.58,1.58,0,0,0-1.21-1.8c-2.82-.54-5.68-1.2-7.81,1.37-2.62,3.14-.64,7.63,3.13,8.6,1.92.48,2.51-2.54.59-3-2.22-.57-2.5-3.82-.13-4.4,1.1-.28,2.56.25,3.63.46l-1.21-1.8L32.31,144l1.8-1.22-2.64-.51A1.53,1.53,0,0,0,30.88,145.27Z" transform="translate(-4.37 -39.65)"/><path class="c" d="M65.77,118l1.61-8.31a1.54,1.54,0,0,0-3-.58l-1.6,8.3a1.53,1.53,0,0,0,3,.59Z" transform="translate(-4.37 -39.65)"/><path class="k" d="M59.61,211.88l.18-.93-27.53-5.33-.18.93A14.06,14.06,0,0,0,43.18,223a13.86,13.86,0,0,0,10.5-2.17A14.06,14.06,0,0,0,59.61,211.88Z" transform="translate(-4.37 -39.65)"/><path class="c" d="M61.12,212.18l.18-.94a1.58,1.58,0,0,0-1.22-1.8l-27.53-5.33a1.58,1.58,0,0,0-1.8,1.21c-1.49,7.71,2,15.65,9.7,18.46a15.71,15.71,0,0,0,20.67-11.6c.41-1.94-2.61-2.52-3-.59-1.6,7.58-9.88,12.27-17.16,9.12-5.93-2.57-8.35-8.71-7.18-14.77L32,207.16l27.53,5.33-1.21-1.8-.18.94A1.54,1.54,0,0,0,61.12,212.18Z" transform="translate(-4.37 -39.65)"/><path class="j" d="M54,256.84v.72H32.34v-.72a10.82,10.82,0,0,1,21.63,0Z" transform="translate(-4.37 -39.65)"/><path class="c" d="M52.43,256.84v.72L54,256H32.34l1.54,1.54c0-4.54,2.52-8.63,7.13-9.76a9.41,9.41,0,0,1,11.42,9c0,2,3.11,2,3.07,0a12.52,12.52,0,0,0-14.43-12.18c-6.38,1-10.3,6.72-10.3,12.9a1.57,1.57,0,0,0,1.54,1.53H53.93a1.57,1.57,0,0,0,1.54-1.53v-.72A1.52,1.52,0,0,0,52.43,256.84Z" transform="translate(-4.37 -39.65)"/><line class="b" x1="49.6" y1="217.94" x2="57.86" y2="217.94"/><path class="c" d="M54,259.13h8.25a1.54,1.54,0,0,0,0-3.07H54a1.54,1.54,0,0,0,0,3.07Z" transform="translate(-4.37 -39.65)"/><line class="b" x1="27.97" y1="217.94" x2="14.91" y2="217.94"/><path class="c" d="M32.34,256.06H19.28a1.54,1.54,0,0,0,0,3.07H32.34a1.54,1.54,0,0,0,0-3.07Z" transform="translate(-4.37 -39.65)"/><line class="b" x1="64.03" y1="217.94" x2="72.19" y2="217.94"/><path class="c" d="M68.4,259.13h8.19a1.54,1.54,0,0,0,0-3.07H68.4a1.54,1.54,0,0,0,0,3.07Z" transform="translate(-4.37 -39.65)"/><line class="b" x1="8.12" y1="217.94" x2="4.88" y2="217.94"/><path class="c" d="M12.49,256.06H9.25a1.54,1.54,0,0,0,0,3.07h3.24a1.54,1.54,0,0,0,0-3.07Z" transform="translate(-4.37 -39.65)"/><line class="b" x1="80.37" y1="217.94" x2="82.42" y2="217.94"/><path class="c" d="M84.74,259.13h2a1.54,1.54,0,1,0,0-3.07h-2a1.55,1.55,0,0,0-1.54,1.53,1.59,1.59,0,0,0,1.54,1.54Z" transform="translate(-4.37 -39.65)"/><path class="c" d="M37.5,181.24q-9.72-9.44-19.45-18.83c-.95-.91-1.9-1.82-2.81-2.74-1.43-1.39-3.6.81-2.18,2.17,6.47,6.29,13,12.57,19.45,18.83,1,.91,1.9,1.82,2.81,2.74,1.43,1.39,3.61-.78,2.18-2.17Z" transform="translate(-4.37 -39.65)"/><path class="c" d="M64.41,189.26c6.72,6,13.43,12.08,20.12,18.1,1,.89,2,1.77,2.93,2.62,1.48,1.33,3.5-1,2-2.32-6.73-6-13.44-12.09-20.13-18.11-1-.88-1.95-1.76-2.93-2.62-1.48-1.32-3.49,1-2,2.33Z" transform="translate(-4.37 -39.65)"/><circle class="g" cx="7.02" cy="118.15" r="5.49"/><path class="c" d="M12.4,161.62c-5,1.11-7-6.33-2-7.65s6.89,6.15,2,7.65c-1.89.58-1.1,3.54.79,3A7,7,0,1,0,9.58,151a7,7,0,1,0,3.61,13.58C15.12,164.15,14.33,161.18,12.4,161.62Z" transform="translate(-4.37 -39.65)"/><circle class="g" cx="86.57" cy="171.59" r="5.49"/><path class="c" d="M94.82,212c-1.17,4.95-8.74,3.52-7.77-1.51S95.59,207,94.82,212c-.31,1.95,2.71,2.54,3,.58a7,7,0,1,0-8.23,5.56,7.16,7.16,0,0,0,8.23-5.56C98.31,210.66,95.3,210.07,94.82,212Z" transform="translate(-4.37 -39.65)"/><path class="c" d="M70.59,103.66l-1.24,6.39,1.8-1.21-10.21-2,1.21,1.8,1.24-6.4a1.53,1.53,0,0,0-3-.58l-1.24,6.4a1.56,1.56,0,0,0,1.22,1.79l10.21,2a1.58,1.58,0,0,0,1.8-1.21l1.24-6.4a1.54,1.54,0,0,0-3-.58Z" transform="translate(-4.37 -39.65)"/><circle class="g" cx="38.78" cy="194.96" r="3.14"/><path class="c" d="M44.55,235.38c-1.12,1.74-3.82.21-2.76-1.57s3.68-.23,2.76,1.57,1.74,3.31,2.66,1.54a4.67,4.67,0,1,0-8.08-4.67,4.67,4.67,0,0,0,8.08,4.67C48.27,235.28,45.61,233.75,44.55,235.38Z" transform="translate(-4.37 -39.65)"/><g class="l"><path class="m" d="M52.43,256.12H48.27c0-2.35-.37-4.53-1.91-6.07a8.84,8.84,0,0,0-4.5-2.39,5,5,0,0,1,1.6-.13,9.24,9.24,0,0,1,6.14,2.69A9.72,9.72,0,0,1,52.43,256.12Z" transform="translate(-4.37 -39.65)"/></g><g class="l"><path class="m" d="M81.34,147.22l-4.85,25.06c-.37,1.9-1.34,3.32-4.15,2.77l-7.57-1.47a3.53,3.53,0,0,0,4.15-2.77l4.85-25.05a22.34,22.34,0,0,0-3.54-16.91,23,23,0,0,0-10.74-8.79,24,24,0,0,1,3.81.46A23.21,23.21,0,0,1,78,130.06,22.88,22.88,0,0,1,81.34,147.22Z" transform="translate(-4.37 -39.65)"/></g><g class="l"><path class="m" d="M71.23,210l-.3,1.57-5.76-1.11.3-1.58a23.54,23.54,0,0,0-3.67-17.8,23.2,23.2,0,0,0-12.38-8.93,25.91,25.91,0,0,1,3.1.49,23,23,0,0,1,14.71,10.18A24.57,24.57,0,0,1,71.23,210Z" transform="translate(-4.37 -39.65)"/></g><g class="l"><path class="m" d="M58,212.2l-.5,1.32c-1.27,3.65-3.33,4.95-5.68,6.55a11.77,11.77,0,0,1-8.64,1.35c-.47-.09-.9-.21-1.33-.33a11.16,11.16,0,0,0,11.68-9l.14-.74,4.32.84Z" transform="translate(-4.37 -39.65)"/></g><path class="g" d="M50.26,124.32a11.88,11.88,0,0,0-8.5,6.59,1.7,1.7,0,0,0,3.09,1.43,8.2,8.2,0,0,1,5.77-4.65C52.75,127.27,52.43,123.87,50.26,124.32Z" transform="translate(-4.37 -39.65)"/><path class="g" d="M41.4,183.72A15.26,15.26,0,0,0,33,188c-1.59,1.54,1.1,3.66,2.64,2.15a11.31,11.31,0,0,1,6.14-3C44,186.76,43.59,183.38,41.4,183.72Z" transform="translate(-4.37 -39.65)"/><path class="g" d="M41.21,250.26a1.54,1.54,0,0,0,0,3.07A1.54,1.54,0,0,0,41.21,250.26Z" transform="translate(-4.37 -39.65)"/><path class="n" d="M248.17,129.86l-4.64-12.78a9,9,0,0,0-11.57-5.4l-2.83,1L236.85,134l.94,2.6a9.29,9.29,0,0,0,11.89,5.56l2.6-.95,19-6.89L267.15,123Z" transform="translate(-4.37 -39.65)"/><path class="c" d="M246.51,144.28a10.91,10.91,0,0,1-10.22-7.17l-8.66-23.86a1.58,1.58,0,0,1,1-2l2.83-1A10.62,10.62,0,0,1,245,116.54l4.1,11.29,17.49-6.36a1.61,1.61,0,0,1,1.22.06,1.58,1.58,0,0,1,.82.9l4.11,11.32a1.59,1.59,0,0,1-.95,2l-21.58,7.83A10.89,10.89,0,0,1,246.51,144.28Zm-15.34-30.62L239.29,136a7.68,7.68,0,0,0,9.85,4.6l20.08-7.29-3-8.33-17.49,6.35a1.59,1.59,0,0,1-2-1L242,117.63a7.45,7.45,0,0,0-9.53-4.46Z" transform="translate(-4.37 -39.65)"/><circle class="n" cx="212.06" cy="84.55" r="21.93"/><path class="c" d="M216.43,147.73A23.53,23.53,0,1,1,240,124.2,23.56,23.56,0,0,1,216.43,147.73Zm0-43.87a20.35,20.35,0,1,0,20.34,20.34A20.36,20.36,0,0,0,216.43,103.86Z" transform="translate(-4.37 -39.65)"/><g class="l"><path class="m" d="M221.21,102.8A21.93,21.93,0,0,1,209,143a22.16,22.16,0,0,1-4.78-.52,21.94,21.94,0,1,0,17-39.63Z" transform="translate(-4.37 -39.65)"/></g><circle class="o" cx="204.08" cy="49.51" r="5.86"/><path class="c" d="M208.44,96.61a7.45,7.45,0,1,1,7.45-7.45A7.46,7.46,0,0,1,208.44,96.61Zm0-11.72a4.27,4.27,0,1,0,4.27,4.27A4.27,4.27,0,0,0,208.44,84.89Z" transform="translate(-4.37 -39.65)"/><circle class="o" cx="247.62" cy="49.51" r="5.86"/><path class="c" d="M252,96.61a7.45,7.45,0,1,1,7.45-7.45A7.46,7.46,0,0,1,252,96.61Zm0-11.72a4.27,4.27,0,1,0,4.27,4.27A4.27,4.27,0,0,0,252,84.89Z" transform="translate(-4.37 -39.65)"/><path class="o" d="M230.21,118.16a22,22,0,0,1-21.94-21.94V70.71a1.59,1.59,0,0,1,1.59-1.59h40.7a1.6,1.6,0,0,1,1.6,1.59V96.22A22,22,0,0,1,230.21,118.16Z" transform="translate(-4.37 -39.65)"/><path class="c" d="M250.56,70.71V96.22a20.35,20.35,0,0,1-20.35,20.35h0a20.35,20.35,0,0,1-20.35-20.35V70.71h40.7m0-3.18h-40.7a3.18,3.18,0,0,0-3.19,3.18V96.22a23.54,23.54,0,0,0,47.08,0V70.71a3.18,3.18,0,0,0-3.19-3.18Z" transform="translate(-4.37 -39.65)"/><circle class="o" cx="235.74" cy="49.25" r="5.86"/><g class="l"><rect class="m" x="224.71" y="51.33" width="5.4" height="11.23" rx="2.7" ry="2.7"/></g><g class="l"><path class="m" d="M209.86,70.71V80.5h33.77V94.93a20.35,20.35,0,0,1-20.35,20.35h-.21a20.15,20.15,0,0,0,7.14,1.3h0a20.35,20.35,0,0,0,20.35-20.35V70.71Z" transform="translate(-4.37 -39.65)"/></g><circle class="g" cx="216.16" cy="49.25" r="5.86"/><path class="c" d="M220.53,91c2.77,0,2.77-4.28,0-4.28s-2.77,4.28,0,4.28Z" transform="translate(-4.37 -39.65)"/><path class="o" d="M240.11,91c2.77,0,2.77-4.28,0-4.28s-2.77,4.28,0,4.28Z" transform="translate(-4.37 -39.65)"/><rect class="c" x="231.52" y="47.76" width="8.49" height="2.83" rx="1.42" ry="1.42"/><path class="c" d="M218.06,78.18h4.12a3.61,3.61,0,0,1,3.61,3.61v0a0,0,0,0,1,0,0H214.45a0,0,0,0,1,0,0v0a3.61,3.61,0,0,1,3.61-3.61Z" transform="translate(-14.6 -1.93) rotate(-9.57)"/><path class="c" d="M238.16,78.18h4.12a3.61,3.61,0,0,1,3.61,3.61v0a0,0,0,0,1,0,0H234.55a0,0,0,0,1,0,0v0a3.61,3.61,0,0,1,3.61-3.61Z" transform="translate(6.99 -67.94) rotate(6.9)"/><rect class="k" x="223.28" y="50.25" width="5.4" height="11.23" rx="2.7" ry="2.7"/><path class="c" d="M230.21,109.34a6.38,6.38,0,0,1-6.36-6.36,1.6,1.6,0,0,1,3.19,0,3.18,3.18,0,0,0,6.35,0,1.59,1.59,0,1,1,3.18,0A6.37,6.37,0,0,1,230.21,109.34Z" transform="translate(-4.37 -39.65)"/><polygon class="p" points="197.56 30.78 204.28 12.91 230.46 7.43 247.09 7.78 247.44 22.29 257 33.96 248.15 45.28 247.44 30.78 204.28 30.78 203.57 43.52 197.56 30.78"/><path class="c" d="M252.52,86.53a1.56,1.56,0,0,1-.48-.08A1.58,1.58,0,0,1,250.93,85l-.64-13H210.15l-.62,11.23a1.59,1.59,0,0,1-3,.6l-6-12.74a1.53,1.53,0,0,1-.05-1.24L207.16,52a1.58,1.58,0,0,1,1.16-1l26.18-5.49a1.46,1.46,0,0,1,.36,0l16.63.35a1.59,1.59,0,0,1,1.56,1.55l.34,14,9.2,11.26a1.59,1.59,0,0,1,0,2l-8.85,11.32A1.58,1.58,0,0,1,252.52,86.53ZM208.65,68.84h43.16a1.59,1.59,0,0,1,1.59,1.51l.5,10.23,5.42-6.94L250.58,63a1.59,1.59,0,0,1-.36-1l-.32-13L235,48.68l-25.15,5.26-6.18,16.42,3,6.45.36-6.47A1.58,1.58,0,0,1,208.65,68.84Z" transform="translate(-4.37 -39.65)"/><path class="q" d="M225.1,67.07" transform="translate(-4.37 -39.65)"/><path class="o" d="M267.68,116.18H281.3a0,0,0,0,1,0,0v18a0,0,0,0,1,0,0h0a13.62,13.62,0,0,1-13.62-13.62v-4.42A0,0,0,0,1,267.68,116.18Z" transform="translate(-25.88 27.26) rotate(-13.38)"/><path class="c" d="M274.41,135.91a7.62,7.62,0,0,1-7.4-5.84l-2.78-11.7a1.6,1.6,0,0,1,.19-1.21,1.57,1.57,0,0,1,1-.71l13.25-3.15a1.58,1.58,0,0,1,1.91,1.18L284.75,132a1.58,1.58,0,0,1-.19,1.2,1.64,1.64,0,0,1-1,.72l-7.4,1.76A7.61,7.61,0,0,1,274.41,135.91Zm-6.72-16.73,2.42,10.15a4.43,4.43,0,0,0,5.32,3.28l5.85-1.39-3.44-14.46Z" transform="translate(-4.37 -39.65)"/><g class="l"><path class="m" d="M267.68,116.18H281.3a0,0,0,0,1,0,0v18a0,0,0,0,1,0,0h0a13.62,13.62,0,0,1-13.62-13.62v-4.42A0,0,0,0,1,267.68,116.18Z" transform="translate(-25.88 27.26) rotate(-13.38)"/></g><rect class="o" x="265.04" y="109.24" width="6.01" height="10.61" rx="3.01" ry="3.01" transform="translate(-23.6 25.48) rotate(-13.38)"/><path class="c" d="M268.58,121.38a4.61,4.61,0,0,1-4.48-3.53L263,113.37a4.59,4.59,0,0,1,3.41-5.53,4.54,4.54,0,0,1,3.47.55,4.6,4.6,0,0,1,2.07,2.86l1.06,4.47a4.53,4.53,0,0,1-.56,3.48,4.58,4.58,0,0,1-2.85,2.06A4.85,4.85,0,0,1,268.58,121.38Zm-1.06-10.49a1.75,1.75,0,0,0-.33,0,1.42,1.42,0,0,0-1.05,1.71l1.06,4.47a1.41,1.41,0,0,0,1.7,1h0a1.42,1.42,0,0,0,.88-.63,1.39,1.39,0,0,0,.17-1.07L268.89,112a1.46,1.46,0,0,0-1.37-1.09Z" transform="translate(-4.37 -39.65)"/><g class="l"><path class="m" d="M268.33,109.42a3,3,0,0,1,.32.8l1.07,4.48a3,3,0,0,1-3.75,3.58,3,3,0,0,0,5.53-2.19l-1.06-4.48A3,3,0,0,0,268.33,109.42Z" transform="translate(-4.37 -39.65)"/></g><rect class="o" x="273.36" y="111.4" width="6.01" height="14.33" rx="3.01" ry="3.01" transform="translate(220.59 375.22) rotate(-103.38)"/><path class="c" d="M272.32,124.13a4.6,4.6,0,0,1-1.06-9.07l8.09-1.93a4.61,4.61,0,0,1,5.53,3.41h0a4.6,4.6,0,0,1-3.41,5.54L273.38,124A4.79,4.79,0,0,1,272.32,124.13Zm8.09-7.94a1.24,1.24,0,0,0-.33,0L272,118.15a1.42,1.42,0,0,0,.66,2.76l8.09-1.93a1.41,1.41,0,0,0,1.05-1.7A1.43,1.43,0,0,0,280.41,116.19Z" transform="translate(-4.37 -39.65)"/><rect class="o" x="275.35" y="116.49" width="6.01" height="15.57" rx="3.01" ry="3.01" transform="translate(217.49 384.19) rotate(-103.38)"/><path class="c" d="M273.7,130a4.59,4.59,0,0,1-4.46-3.53,4.6,4.6,0,0,1,3.41-5.54l9.29-2.21a4.6,4.6,0,0,1,5.54,3.41h0a4.61,4.61,0,0,1-3.41,5.54l-9.29,2.21A5,5,0,0,1,273.7,130Zm9.31-8.22a1.24,1.24,0,0,0-.33,0l-9.3,2.21a1.41,1.41,0,1,0,.66,2.75l9.29-2.21a1.41,1.41,0,0,0-.32-2.79Z" transform="translate(-4.37 -39.65)"/><rect class="o" x="276.14" y="123.11" width="6.01" height="14.33" rx="3.01" ry="3.01" transform="translate(212.63 392.34) rotate(-103.38)"/><path class="c" d="M275.1,135.83a4.6,4.6,0,0,1-1.06-9.07l8.09-1.93a4.6,4.6,0,0,1,2.13,9l-8.09,1.93A4.94,4.94,0,0,1,275.1,135.83Zm8.09-7.94a1.86,1.86,0,0,0-.33,0l-8.08,1.93a1.41,1.41,0,1,0,.65,2.75l8.09-1.92a1.43,1.43,0,0,0,.88-.64,1.38,1.38,0,0,0,.17-1.07h0a1.4,1.4,0,0,0-.64-.88A1.48,1.48,0,0,0,283.19,127.89Z" transform="translate(-4.37 -39.65)"/><g class="l"><path class="m" d="M280.7,118.81l-8.09,1.93a3,3,0,0,1-3.29-1.4,2.71,2.71,0,0,0,.08.89h0a3,3,0,0,0,3.62,2.23l8.08-1.93a3,3,0,0,0,2.23-3.62h0a2.88,2.88,0,0,0-.33-.83A3,3,0,0,1,280.7,118.81Z" transform="translate(-4.37 -39.65)"/></g><g class="l"><path class="m" d="M283.29,124.38,274,126.59a3,3,0,0,1-3.29-1.4,3,3,0,0,0,.08.89h0a3,3,0,0,0,3.62,2.23l9.29-2.21a3,3,0,0,0,2.23-3.62h0a2.88,2.88,0,0,0-.33-.83A3,3,0,0,1,283.29,124.38Z" transform="translate(-4.37 -39.65)"/></g><g class="l"><path class="m" d="M283.48,130.51l-8.09,1.93a3,3,0,0,1-3.29-1.4,3,3,0,0,0,.08.89h0a3,3,0,0,0,3.62,2.23l8.09-1.93a3,3,0,0,0,2.23-3.62h0a3,3,0,0,0-.34-.83A3,3,0,0,1,283.48,130.51Z" transform="translate(-4.37 -39.65)"/></g><path class="i" d="M98.44,256.29a1.58,1.58,0,0,1-1.46-1,1.6,1.6,0,0,1,.34-1.75l41-41a1.56,1.56,0,0,1,1.12-.47,1.62,1.62,0,0,1,.61.12,1.59,1.59,0,0,1,1,1.47v40.56a1.59,1.59,0,0,1-1.57,1.59Z" transform="translate(-4.37 -39.65)"/><path class="c" d="M139.48,213.66v40.56l-41,.48,41-41m0-3.18a3.17,3.17,0,0,0-2.25.93l-41,41a3.18,3.18,0,0,0,2.25,5.43h0l41-.48a3.19,3.19,0,0,0,3.15-3.18V213.66a3.18,3.18,0,0,0-2-2.94,3.23,3.23,0,0,0-1.22-.24Z" transform="translate(-4.37 -39.65)"/><path class="i" d="M147.09,226.63A33.18,33.18,0,0,1,123.64,170c1.87-1.87,63.92-51.51,71-57.16a1.6,1.6,0,0,1,2.12.11L227.6,143.8a1.58,1.58,0,0,1,.12,2.12c-5.65,7.07-55.29,69.12-57.17,71A32.92,32.92,0,0,1,147.09,226.63Z" transform="translate(-4.37 -39.65)"/><path class="c" d="M195.62,114.07l30.86,30.86s-55.19,69-57,70.85a31.58,31.58,0,0,1-44.67-44.66c1.87-1.87,70.86-57.05,70.86-57.05m0-3.18a3.21,3.21,0,0,0-2,.69c-11.54,9.24-69.22,55.39-71.12,57.29A34.77,34.77,0,0,0,171.68,218c1.89-1.9,48-59.58,57.28-71.12a3.18,3.18,0,0,0-.23-4.24l-30.86-30.86a3.16,3.16,0,0,0-2.25-.93Z" transform="translate(-4.37 -39.65)"/><path class="i" d="M230.8,148.73a5.06,5.06,0,0,1-3.58-1.48L194.4,114.43a5.06,5.06,0,1,1,7.16-7.16l32.82,32.82a5.06,5.06,0,0,1-3.58,8.64Z" transform="translate(-4.37 -39.65)"/><path class="c" d="M198,107.38a3.48,3.48,0,0,1,2.45,1l32.82,32.83a3.46,3.46,0,1,1-4.9,4.9L195.52,113.3a3.47,3.47,0,0,1,2.46-5.92m0-3.19a6.66,6.66,0,0,0-4.71,11.36l32.83,32.82a6.65,6.65,0,0,0,9.4-9.41l-32.82-32.82a6.63,6.63,0,0,0-4.7-2Z" transform="translate(-4.37 -39.65)"/><path class="n" d="M136.9,202.88c-10.13-10.13-14.33-23.16-11.33-32.46-.44.36-.71.6-.81.7a31.58,31.58,0,0,0,44.67,44.66c.18-.18.89-1,2-2.38C162.08,217.83,147.81,213.8,136.9,202.88Z" transform="translate(-4.37 -39.65)"/><g class="l"><path class="m" d="M226.48,144.93l-7.11-7.11s-55.18,69-57.05,70.86A31.6,31.6,0,0,1,121.49,212a31,31,0,0,0,3.27,3.83,31.58,31.58,0,0,0,44.67,0C171.29,213.92,226.48,144.93,226.48,144.93Z" transform="translate(-4.37 -39.65)"/></g><circle class="n" cx="142.72" cy="186.8" r="31.31"/><path class="c" d="M147.09,196.73a29.72,29.72,0,1,1-29.72,29.72,29.72,29.72,0,0,1,29.72-29.72m0-3.18a32.9,32.9,0,1,0,32.9,32.9,32.94,32.94,0,0,0-32.9-32.9Z" transform="translate(-4.37 -39.65)"/><circle class="i" cx="142.72" cy="186.8" r="22.82"/><path class="c" d="M147.09,205.22a21.23,21.23,0,1,1-21.23,21.23,21.23,21.23,0,0,1,21.23-21.23m0-3.18a24.41,24.41,0,1,0,24.41,24.41A24.44,24.44,0,0,0,147.09,202Z" transform="translate(-4.37 -39.65)"/><g class="l"><circle class="m" cx="142.9" cy="188.74" r="7.61"/></g><g class="l"><path class="m" d="M147.09,210.17a21.24,21.24,0,0,1,21.08,18.75,22.29,22.29,0,0,0,.15-2.47,21.23,21.23,0,1,0-42.46,0,22.29,22.29,0,0,0,.15,2.47A21.23,21.23,0,0,1,147.09,210.17Z" transform="translate(-4.37 -39.65)"/></g><circle class="k" cx="142.72" cy="186.8" r="5.84"/><path class="c" d="M147.09,222.2a4.25,4.25,0,1,1-4.25,4.25,4.24,4.24,0,0,1,4.25-4.25m0-3.18a7.43,7.43,0,1,0,7.43,7.43,7.43,7.43,0,0,0-7.43-7.43Z" transform="translate(-4.37 -39.65)"/><path class="n" d="M114.51,185.66a1.6,1.6,0,0,1-.53-.09l-5.34-1.88a1.6,1.6,0,0,1-1-2l1.88-5.34a1.58,1.58,0,0,1,2-1l5.35,1.87a1.59,1.59,0,0,1,1,2L116,184.59A1.59,1.59,0,0,1,114.51,185.66Z" transform="translate(-4.37 -39.65)"/><path class="c" d="M111,176.85l5.34,1.87-1.87,5.34-5.35-1.87,1.88-5.34m0-3.19a3.14,3.14,0,0,0-1.38.32A3.18,3.18,0,0,0,108,175.8l-1.87,5.34a3.19,3.19,0,0,0,2,4.06l5.34,1.87a3.19,3.19,0,0,0,4.06-1.95l1.87-5.34a3.18,3.18,0,0,0-1.95-4.06l-5.34-1.88a3.18,3.18,0,0,0-1-.18Z" transform="translate(-4.37 -39.65)"/><path class="c" d="M99,206.81a1.57,1.57,0,0,1-1.31-.68,1.59,1.59,0,0,1,.39-2.21c.1-.08,2.8-2.11,2.51-6.74-.17-2.64-2-5-3.81-7.26-1.66-2.1-3.22-4.08-3.6-6.37a10.09,10.09,0,0,1,1.77-8.19,7.34,7.34,0,0,1,5.81-2.51,10.7,10.7,0,0,1,8.81,5,1.59,1.59,0,0,1-2.75,1.61,7.44,7.44,0,0,0-6.06-3.47,4.21,4.21,0,0,0-3.38,1.39A6.92,6.92,0,0,0,96.3,183c.25,1.49,1.56,3.16,3,4.92,2,2.54,4.26,5.41,4.49,9,.4,6.48-3.69,9.42-3.86,9.55A1.62,1.62,0,0,1,99,206.81Z" transform="translate(-4.37 -39.65)"/><polygon class="f" points="162.18 112.02 166.25 124.53 179.41 124.53 168.76 132.27 172.83 144.78 162.18 137.05 151.54 144.78 155.6 132.27 144.96 124.53 158.12 124.53 162.18 112.02"/><path class="c" d="M269.15,257.05a1.59,1.59,0,0,1-1.35-.74l-56.61-89.15a1.59,1.59,0,0,1,2.69-1.71l56.61,89.15a1.6,1.6,0,0,1-1.34,2.45Z" transform="translate(-4.37 -39.65)"/><path class="i" d="M230.21,125.09a41.93,41.93,0,1,1,41.92-41.92A42,42,0,0,1,230.21,125.09Zm0-72.88a31,31,0,1,0,31,31A31,31,0,0,0,230.21,52.21Z" transform="translate(-4.37 -39.65)"/><path class="c" d="M230.21,42.83a40.34,40.34,0,1,1-40.33,40.34,40.33,40.33,0,0,1,40.33-40.34m0,72.88a32.55,32.55,0,1,0-32.55-32.54,32.54,32.54,0,0,0,32.55,32.54m0-76.06A43.53,43.53,0,1,0,261,52.4a43.24,43.24,0,0,0-30.77-12.75Zm0,72.88a29.37,29.37,0,1,1,29.37-29.36,29.39,29.39,0,0,1-29.37,29.36Z" transform="translate(-4.37 -39.65)"/><g class="l"><path class="m" d="M249.73,47.86A40.37,40.37,0,0,1,255.78,63a32.55,32.55,0,0,1-43.68,47.19,39.92,39.92,0,0,1-15.55-4.83,40.33,40.33,0,1,0,53.18-57.52Z" transform="translate(-4.37 -39.65)"/></g><ellipse class="n" cx="266.71" cy="43.87" rx="6.19" ry="12.43"/><path class="c" d="M271.07,97.54a1.65,1.65,0,0,1-1-.32,17.17,17.17,0,0,1,0-27.4,1.59,1.59,0,0,1,1.92,0,17.16,17.16,0,0,1,0,27.4A1.61,1.61,0,0,1,271.07,97.54Zm0-24.38a14,14,0,0,0,0,20.72,14,14,0,0,0,0-20.72Z" transform="translate(-4.37 -39.65)"/><ellipse class="n" cx="184.98" cy="43.87" rx="6.19" ry="12.43"/><path class="c" d="M189.35,97.54a1.61,1.61,0,0,1-1-.32,17.17,17.17,0,0,1,0-27.4,1.59,1.59,0,0,1,1.92,0,17.17,17.17,0,0,1,0,27.4A1.61,1.61,0,0,1,189.35,97.54Zm0-24.38a14,14,0,0,0,0,20.72,14,14,0,0,0,0-20.72Z" transform="translate(-4.37 -39.65)"/><line class="k" x1="272.9" y1="43.87" x2="287.76" y2="43.87"/><path class="c" d="M292.12,85.11H277.27a1.59,1.59,0,1,1,0-3.18h14.85a1.59,1.59,0,1,1,0,3.18Z" transform="translate(-4.37 -39.65)"/><circle class="n" cx="288.11" cy="43.87" r="4.6"/><path class="c" d="M292.48,89.71a6.19,6.19,0,1,1,6.19-6.19A6.19,6.19,0,0,1,292.48,89.71Zm0-9.2a3,3,0,1,0,3,3A3,3,0,0,0,292.48,80.51Z" transform="translate(-4.37 -39.65)"/><line class="k" x1="178.79" y1="43.87" x2="163.93" y2="43.87"/><path class="c" d="M183.16,85.11H168.3a1.59,1.59,0,1,1,0-3.18h14.86a1.59,1.59,0,1,1,0,3.18Z" transform="translate(-4.37 -39.65)"/><circle class="n" cx="163.58" cy="43.87" r="4.6"/><path class="c" d="M168,89.71a6.19,6.19,0,1,1,6.19-6.19A6.2,6.2,0,0,1,168,89.71Zm0-9.2a3,3,0,1,0,3,3A3,3,0,0,0,168,80.51Z" transform="translate(-4.37 -39.65)"/><g class="r"><circle class="g" cx="233.98" cy="16.63" r="6.72"/></g><g class="r"><circle class="g" cx="243.18" cy="25.83" r="3.18"/></g><path class="s" d="M205.94,257.23a1.6,1.6,0,0,1-1.38-2.39l7.25-12.56a1.6,1.6,0,0,1,1.38-.8h39.12a1.6,1.6,0,0,1,1.31.69l8.7,12.56a1.6,1.6,0,0,1-1.31,2.5Z" transform="translate(-4.37 -39.65)"/><path class="c" d="M252.31,243.08l8.7,12.56H205.94l7.25-12.56h39.12m0-3.19H213.19a3.2,3.2,0,0,0-2.76,1.59L203.18,254a3.19,3.19,0,0,0,2.76,4.78H261a3.19,3.19,0,0,0,2.62-5l-8.7-12.56a3.17,3.17,0,0,0-2.62-1.37Z" transform="translate(-4.37 -39.65)"/><polygon class="t" points="220.48 215.99 256.64 215.99 253.68 211.71 220.48 211.71 220.48 215.99"/><path class="i" d="M188.27,257.23a1.6,1.6,0,0,1-1.38-2.39l7.25-12.56a1.6,1.6,0,0,1,1.38-.8h39.13a1.6,1.6,0,0,1,1.31.69l8.69,12.56a1.57,1.57,0,0,1,.1,1.64,1.58,1.58,0,0,1-1.41.86Z" transform="translate(-4.37 -39.65)"/><path class="c" d="M234.65,243.08l8.69,12.56H188.27l7.25-12.56h39.13m0-3.19H195.52a3.2,3.2,0,0,0-2.76,1.59L185.52,254a3.19,3.19,0,0,0,2.75,4.78h55.07a3.19,3.19,0,0,0,2.62-5l-8.7-12.56a3.17,3.17,0,0,0-2.61-1.37Z" transform="translate(-4.37 -39.65)"/><polygon class="k" points="186.38 211.71 183.91 215.99 238.98 215.99 236.01 211.71 186.38 211.71"/><path class="c" d="M105.87,216.54a.89.89,0,0,1-.79-.49l-2.47-5a.88.88,0,1,1,1.58-.79l2.47,4.95a.88.88,0,0,1-.39,1.19A.93.93,0,0,1,105.87,216.54Z" transform="translate(-4.37 -39.65)"/><path class="c" d="M111,208.05h-.16l-3.73-.71a.89.89,0,1,1,.33-1.74l3.73.71a.88.88,0,0,1-.17,1.75Z" transform="translate(-4.37 -39.65)"/><path class="c" d="M92.78,200.8a.9.9,0,0,1-.58-.21l-4.59-3.89a.89.89,0,0,1,1.15-1.35l4.59,3.89a.89.89,0,0,1-.57,1.56Z" transform="translate(-4.37 -39.65)"/><path class="c" d="M91.77,203.81h-.12l-2.58-.36a.88.88,0,1,1,.24-1.75l2.58.36a.88.88,0,0,1,.76,1A.89.89,0,0,1,91.77,203.81Z" transform="translate(-4.37 -39.65)"/><path class="c" d="M94.07,198.15a.9.9,0,0,1-.85-.63l-.86-2.83a.88.88,0,1,1,1.69-.52l.86,2.83a.89.89,0,0,1-.58,1.11A1.27,1.27,0,0,1,94.07,198.15Z" transform="translate(-4.37 -39.65)"/></g></svg>