<?xml version="1.0" encoding="UTF-8"?><svg id="a" xmlns="http://www.w3.org/2000/svg" viewBox="0 0 64 64"><title>JetFormBuilder icon - Uncanny Automator</title><rect width="64" height="64" rx="4" ry="4" style="fill:#4272f9;"/><path d="M58,18.5c.84-.05,1.32,1.04,.76,1.73l-4.96,6.18c-.58,.72-1.66,.26-1.65-.71l.03-2.51c0-.33-.13-.64-.37-.84l-1.8-1.53c-.69-.59-.35-1.81,.52-1.87l7.47-.46ZM18.5,34.72c0,5.92-4.84,10.71-10.8,10.71-1.49,0-2.7-1.2-2.7-2.68s1.21-2.67,2.7-2.67c2.98,0,5.4-2.4,5.4-5.36v-8.03c0-1.48,1.21-2.68,2.7-2.68s2.7,1.2,2.7,2.68v8.03Zm29.1,0c0,2.96,2.42,5.36,5.4,5.36,1.49,0,2.7,1.19,2.7,2.67s-1.21,2.68-2.7,2.68c-5.96,0-10.8-4.79-10.8-10.71v-8.03c0-1.48,1.21-2.68,2.7-2.68s2.7,1.2,2.7,2.68v2.4h2.14c1.49,0,2.71,1.2,2.71,2.69s-1.21,2.69-2.71,2.69h-2.14v.26Zm-6.95-3.75s.01,0,.01,0c-.85-2.22-2.44-4.16-4.66-5.44-5.15-2.97-11.73-1.21-14.69,3.92-2.97,5.12-1.21,11.67,3.94,14.63,3.79,2.18,8.35,1.8,11.68-.6l-.02-.03c.77-.47,1.27-1.31,1.27-2.27,0-1.48-1.21-2.67-2.69-2.67-.72,0-1.38,.28-1.86,.74-1.62,1.08-3.77,1.25-5.58,.26l10.87-5.01c.63-.19,1.19-.61,1.54-1.22,.42-.73,.47-1.56,.18-2.29Zm-7.34-.82c.32,.18,.61,.39,.88,.63l-8.95,4.11c-.02-.95,.21-1.9,.72-2.78,1.49-2.56,4.77-3.43,7.35-1.96Z" style="fill:#fff; fill-rule:evenodd;"/></svg>