<?xml version="1.0" encoding="UTF-8"?><svg xmlns="http://www.w3.org/2000/svg" viewBox="0 0 64 64"><title>Thrive Apprentice icon - Uncanny Automator</title><g id="a"><rect width="64" height="64" style="fill:none;"/></g><g id="b"><path id="c" d="m60.41,35.96c-2.07,0-6.44.78-8.14,1.15-1.61.32-3.77.78-5.33,1.38-1.24.46-2.39.97-3.54,1.52-1.1.55-2.16,1.2-3.13,1.89l-.97.74c-.18.14-.28.23-.46.37s-.32.28-.46.37c-.32.28-.64.64-.97.87s-1.43,1.52-1.7,1.89l-1.06,1.47c-1.01,1.52-1.79,3.36-2.07,5.15-.09.64-.09,1.01-.18,1.52v.87c.09.97.32,2.07.32,2.16h.09c.05-.69,1.1-3.13,1.33-3.63l.64-1.2c.37-.64.78-1.29,1.24-1.89.28-.41.6-.83.97-1.15q.09-.09.14-.18c.37-.46.83-.83,1.24-1.24l1.33-1.15s.09-.09.18-.14l2.39-1.66c.74-.41,1.38-.87,2.11-1.29.64-.37,1.66-.87,2.3-1.15l1.7-.78c.87-.37,1.79-.78,2.71-1.06l1.84-.64c.32-.09.6-.18.92-.32.28-.09.69-.28.97-.28l-2.02.92c-.69.28-1.98.97-2.71,1.33l-1.98,1.06c-.64.37-1.29.74-1.89,1.15l-1.79,1.24c-.09.09-.18.14-.28.23-.05.05-.09.05-.14.09l-.41.32s-.09.05-.14.09l-.14.14-1.7,1.79-1.89,2.62-.78,1.29c-.05.09-.09.18-.18.32-.37.64-.74,1.33-1.01,2.02l-.14.37c.51.14,3.31.09,4,0l1.24-.14c2.07-.23,4.46-.78,6.25-1.7.09-.05.18-.09.28-.09.09-.05.14-.09.23-.09.09-.05.14-.09.23-.14l.46-.23c.32-.18.6-.37.87-.55.32-.23.69-.46.97-.74.41-.37.87-.78,1.24-1.24.05-.09.09-.09.14-.18.6-.74,1.06-1.52,1.56-2.25.74-1.1,1.47-2.25,2.07-3.49,1.33-2.62,1.7-2.94,3.31-5.01q.05-.09.14-.18l.87-.83c.37-.32.83-.64,1.29-.83.41-.14.6-.23,1.2-.23-.37-.6-2.07-.64-3.13-.64h-.46Z" style="fill:#4f9543; fill-rule:evenodd;"/><path id="d" d="m57.24,6.72c-4.37.41-18.99,2.53-27.08,12.14-.46.55-1.33.55-1.79,0C20.28,9.25,5.7,7.13,1.29,6.72c-.69-.05-1.29.46-1.29,1.15v29.56c0,.6.46,1.1,1.06,1.15,4.09.37,19.08,2.39,27.26,12.14.46.55,1.33.55,1.79,0,.09-.14.18-.23.32-.32.87-3.22,5.66-15.4,28.05-17.15V7.87c0-.69-.55-1.24-1.24-1.15Zm-33.79,30.85c0,.97-1.1,1.52-1.89.92-7.26-5.33-13.33-6.34-15.68-6.57-.6-.05-1.06-.55-1.06-1.15v-3.91c0-.69.6-1.24,1.29-1.15,9.66.92,15.54,5.7,17.01,7.08.23.23.37.55.37.87v3.91h-.05Zm.09-10.71c0,.97-1.1,1.52-1.89.92-7.26-5.33-13.33-6.34-15.68-6.57-.6-.05-1.06-.55-1.06-1.15v-3.91c0-.69.6-1.24,1.29-1.15,9.66.92,15.54,5.7,17.01,7.08.23.23.37.55.37.87v3.91h-.05Z" style="fill:#434343;"/></g></svg>