<?xml version="1.0" encoding="UTF-8"?><svg xmlns="http://www.w3.org/2000/svg" viewBox="0 0 64 64"><defs><style>.cls-1{fill:none;}.cls-2{fill:#1f8dec;}</style></defs><title>MemberMouse icon - Uncanny Automator</title><g id="Layer_2"><rect class="cls-1" width="64" height="64"/></g><g id="Layer_1"><path class="cls-2" d="M.02,33.31c0-6.58,0-13.16,0-19.74,0-.8-.04-1.51.95-1.84,8.73-2.93,17.65-3.9,26.55-1.43,3.12.87,5.68.93,8.64-.1,5.53-1.93,11.19-1.58,16.72.07,5.97,1.78,10.63,8.08,10.73,14.27.16,9.45.23,18.9.39,28.34.02,1.27-.17,1.83-1.67,1.95-3.88.32-7.74.37-11.62-.03-1.29-.13-1.52-.71-1.53-1.85-.07-7.06-.17-14.11-.31-21.17-.04-1.85-.16-3.7-.35-5.54-.3-2.8-2.82-4.58-6.17-4.45-.18,0-.36.03-.54.05-3.13.35-3.01.34-2.73,3.55.22,2.55.13,5.14.14,7.71.02,6.46-.02,12.92.05,19.38.02,1.48-.2,2.28-1.95,2.4-3.94.26-7.86.34-11.8-.12-1.29-.15-1-.95-1-1.65-.03-6.64-.06-13.28-.06-19.92,0-2.27-.1-4.54-.34-6.8-.38-3.55-5.71-6.2-8.69-4.28-.62.4-.59,1.15-.6,1.79-.03,2.75-.04,5.5-.05,8.25,0,6.94-.03,13.88.02,20.81,0,1.22-.18,1.71-1.59,1.85-3.94.37-7.86.39-11.8-.02C.22,54.67,0,54.12,0,53.05c.03-6.58.02-13.16.02-19.74Z"/></g></svg>