<?xml version="1.0" encoding="UTF-8"?><svg xmlns="http://www.w3.org/2000/svg" viewBox="0 0 64 64"><title>Constant Contact icon - Uncanny Automator</title><g id="a"><path d="m29.6,64C11.98,64,0,49.63,0,34.36S12.21,5.46,28.47,4.83c.63-.04,1.18.51,1.18,1.14v4.75c0,.59-.47,1.1-1.1,1.14-11.94.55-21.56,10.33-21.56,22.54s9.42,22.62,22.62,22.62,21.95-10.25,22.5-21.56c.04-.59.51-1.1,1.14-1.1h4.75c.63,0,1.14.51,1.14,1.18-.55,15.08-12.68,28.47-29.53,28.47Z" style="fill:#1856ed; stroke-width:0px;"/><path d="m29.64,48.29c-7.85,0-13.94-6.24-13.94-13.94,0-7.19,5.54-13.19,12.72-13.78.67-.04,1.22.47,1.22,1.14v4.75c0,.55-.39,1.06-.98,1.14-3.46.47-5.97,3.42-5.97,6.79,0,3.77,2.94,6.95,6.95,6.95,3.34,0,6.32-2.51,6.79-5.97.08-.55.59-.98,1.14-.98h4.75c.67,0,1.18.55,1.14,1.22-.63,7.03-6.52,12.68-13.82,12.68Z" style="fill:#1856ed; stroke-width:0px;"/><path d="m57.01,28.54c-.55-11.5-9.74-21.01-21.56-21.56-.59-.04-1.1-.51-1.1-1.14V1.14C34.35.51,34.87,0,35.53,0c15.35.59,27.88,12.88,28.47,28.47.04.63-.51,1.18-1.14,1.18h-4.75c-.55,0-1.06-.47-1.1-1.1Z" style="fill:#ff9e1a; stroke-width:0px;"/><path d="m35.65,22.81c-.71-.12-1.22-.71-1.22-1.3v-4.63c0-.67.55-1.18,1.22-1.14,6.83.59,12.09,6.05,12.68,12.64.04.67-.47,1.22-1.14,1.22h-4.99c-.47,0-.82-.31-.9-.79-.35-2.79-2.47-5.46-5.65-6.01Z" style="fill:#ff9e1a; stroke-width:0px;"/></g><g id="b"><rect width="64" height="64" style="fill:none; stroke-width:0px;"/></g></svg>