<svg xmlns="http://www.w3.org/2000/svg" viewBox="0 0 64 50.58"><defs><style>.a,.d{fill:#9fd24c;}.a,.b{fill-rule:evenodd;}.b,.c{fill:#66c1f9;}</style></defs><title>WP Courseware icon - Uncanny Automator</title><path class="a" d="M23.33,15.44l-5-5.83-4.66,2.64,2.65,7.13a25.86,25.86,0,0,0-3.45,3.41L5.64,20.18,3,24.76l5.93,4.87a24.27,24.27,0,0,0-1.26,4.64L0,35.58v5.29l7.61,1.31a24.73,24.73,0,0,0,1.27,4.63L3,51.69l2.69,4.58L14.19,53l-.72-.93L6.12,55,4.33,51.83l6.09-4.93a22.5,22.5,0,0,1-1.58-5.79L1.26,40V36.62s5.86-.95,7.55-1.2a22.15,22.15,0,0,1,1.61-6.07L4.33,24.57s1.23-2,1.79-2.92c3.06,1,6.23,2.14,7.35,2.53a21.42,21.42,0,0,1,4.42-4.3c-.41-1-2.9-7.2-2.9-7.2l3.21-1.82S22,15.78,23,17a23.77,23.77,0,0,1,6.13-1.62l1.1-7.29H32V6.71h-2.6l-1.34,7.48A48.27,48.27,0,0,0,23.33,15.44Z" transform="translate(0 -6.71)"/><path class="b" d="M40.67,15.44l5-5.83,4.66,2.64-2.65,7.13a25.86,25.86,0,0,1,3.45,3.41l7.27-2.61,2.69,4.58-5.93,4.87a24.27,24.27,0,0,1,1.26,4.64L64,35.58v5.29l-7.61,1.31a24.73,24.73,0,0,1-1.27,4.63l5.93,4.88-2.69,4.58L49.81,53l.72-.93L57.88,55l1.79-3.16L53.58,46.9a22.5,22.5,0,0,0,1.58-5.79L62.74,40V36.62s-5.86-.95-7.55-1.2a22.15,22.15,0,0,0-1.61-6.07l6.09-4.78s-1.23-2-1.79-2.92c-3.06,1-6.23,2.14-7.35,2.53a21.42,21.42,0,0,0-4.42-4.3c.41-1,2.9-7.2,2.9-7.2L45.8,10.86S42,15.78,41,17a23.77,23.77,0,0,0-6.13-1.62l-1.1-7.29H32V6.71h2.6L36,14.19a48.27,48.27,0,0,1,4.72,1.25Z" transform="translate(0 -6.71)"/><path class="b" d="M34,40.45c3.36-2.71,4.63-2.91,5.41-4.11,1.73-2.7.21-9.25.21-9.25s2,6.38,4,7.6c3.56,2.17,9.79-2,9.79-2s-6.59,4.55-8,7.69.76,11.94.76,11.94S43.66,42.54,40.5,41,29.32,44.8,29.32,44.8A34.2,34.2,0,0,1,34,40.45Z" transform="translate(0 -6.71)"/><circle class="c" cx="45.47" cy="26.21" r="2.06"/><path class="b" d="M48.77,27.14l-6.29-.65,1.72,1.59-.67.76-1.19.58.83.69L43.73,29l.69-.78,1,.53-.89,1.59a3,3,0,0,1,2.1.29A3.1,3.1,0,0,1,48,32.14,7.16,7.16,0,0,1,49,31.57a6,6,0,0,1,.92-.22l-.13-.85,3.93.34Z" transform="translate(0 -6.71)"/><path class="a" d="M23.48,42.58c1.19-4.15,2.12-5,2.07-6.47-.12-3.2-5.13-7.69-5.13-7.69s5.35,4,7.67,3.9c4.16-.26,6.87-7.25,6.87-7.25S32.17,32.57,32.8,36c.65,3.55,7.47,9.35,7.47,9.35s-7.68-6.56-11.16-6-7,9.53-7,9.53A34.64,34.64,0,0,1,23.48,42.58Z" transform="translate(0 -6.71)"/><circle class="d" cx="28.55" cy="23.13" r="2.06"/><path class="a" d="M27.94,23.21l-5.52,3.07,2.31.32-.11,1L24,28.76l1.08.1-.16-1.21.12-1,1.14-.14.17,1.81a3,3,0,0,1,3.82-.51,6.37,6.37,0,0,1,.55-1.08,6.31,6.31,0,0,1,.63-.71l-.59-.62,3.4-2Z" transform="translate(0 -6.71)"/><path class="b" d="M15.28,44.41c-1.57-2.8-8.07-4.53-8.07-4.53s6.6,1.18,8.6,0c3.6-2.12,2.84-9.59,2.84-9.59s.92,8,3,10.7,10.9,4.94,10.9,4.94-9.83-2.36-12.68-.3S18,57.29,18,57.29a34.49,34.49,0,0,1-1.64-6.18C15.55,46.87,16,45.65,15.28,44.41Z" transform="translate(0 -6.71)"/><circle class="c" cx="15.1" cy="30.74" r="2.06"/><path class="b" d="M11.54,31.82,8,37.07l2.21-.76.36.94-.05,1.32,1-.4-.69-1-.36-1,.95-.65,1,1.53a3.12,3.12,0,0,1,1.25-1.72,3,3,0,0,1,1.92-.46,7.13,7.13,0,0,1,0-1.21,6.58,6.58,0,0,1,.24-.93L15,32.47l2.14-3.31Z" transform="translate(0 -6.71)"/></svg>