<?xml version="1.0" encoding="UTF-8"?><svg xmlns="http://www.w3.org/2000/svg" viewBox="0 0 64 64"><defs><style>.cls-1{fill:none;}.cls-2{fill:#fff;}.cls-3{fill:#ff7b01;}.cls-4{fill:#cfa756;}</style></defs><title>Groundhogg icon - Uncanny Automator</title><g id="Layer_2"><rect class="cls-1" width="64" height="64"/></g><g id="Layer_1"><path class="cls-3" d="M60.33,45.78v-27.56c0-1.52-.81-2.92-2.12-3.68L34.34.76C33.03,0,31.41,0,30.1.76L6.23,14.55c-1.31.76-2.12,2.16-2.12,3.68v27.56c0,1.52.81,2.92,2.12,3.68l23.87,13.78c1.31.76,2.93.76,4.25,0l23.86-13.78c1.31-.76,2.12-2.16,2.12-3.68h0"/><path class="cls-2" d="M12.78,45.58c-.11-.24-.24-.48-.4-.69,0,0-1.84,1.15-3.5-1.32-1.66-2.47-1.15-10.45-1.15-10.45,0,0-3.21-.11-3.96-3.27-.75-3.16,2.76-6.03,4.08-6.72.35-2.87.86-4.19.86-4.19,0,0-3.62-1.72-2.81-6.95.8-5.22,6.66-7.98,10.62-4.99C24.95.79,35.81.39,43.67,5.16c2.53-1.72,6.08-2.12,9.07,1.21,2.99,3.33.92,7.52-.29,8.55.98,1.44,1.55,3.33,1.55,3.33,0,0,3.33,1.72,4.31,4.48.98,2.76-1.84,4.25-1.84,4.25,0,0,1.69,4.55,1.49,8.44-.23,4.54-1.9,6.14-3.33,5.97-.54,1.84-1.46,3.54-2.7,4.99,1.28,1.34,2.45,3.49,3.14,4.89l-20.73,11.97c-1.31.76-2.93.76-4.25,0l-22.89-13.22c1.37-1.28,4.02-3.68,5.57-4.45Z"/><path class="cls-4" d="M17.66,46c-1.54-1.85-2.88-3.85-4.02-5.97,0,0-2.62,2.81-2.86-1.92-.24-4.73-.12-7.6-.12-7.6,0,0-4.82-.11-4.13-2.07.69-1.95,4.48-4.71,4.48-4.71,0,0,.23-4.25,1.26-6.54-2.87-1.15-3.9-2.99-2.64-5.97,1.26-2.99,5.17-3.67,7.01-1.03,8.5-6.78,21.24-6.66,27.44-1.38,2.3-2.87,5.17-3.22,7.12-.35,1.95,2.87-1.95,5.74-1.95,5.74l2.3,5.17s3.86,2.32,3.94,4.09c.08,1.77-1.99.97-1.99.97,0,0,2.3,7,2.07,10.79-.23,3.79-2.41,2.41-2.41,2.41-.94,3.14-2.55,6.04-4.71,8.5,2.12,2.83,3.31,5.18,3.94,6.72l-18.03,10.41c-1.31.76-2.93.76-4.25,0l-20.46-11.81c2.45-2.11,5.14-3.93,8.02-5.43ZM36.87,9.27c-3.48-2.01-7.84.5-7.84,4.52,0,1.87,1,3.59,2.61,4.52,3.48,2.01,7.84-.5,7.84-4.52,0-1.87-1-3.59-2.61-4.52ZM45.98,24.86c-2.72-1.65-6.21.27-6.28,3.45-.03,1.54.79,2.97,2.14,3.71,2.79,1.53,6.19-.53,6.12-3.71-.03-1.41-.78-2.72-1.99-3.45ZM26.89,26.52c-2.67-1.62-6.09.26-6.15,3.38-.03,1.51.78,2.91,2.1,3.64,2.74,1.5,6.07-.52,6.01-3.64-.03-1.39-.77-2.66-1.95-3.38ZM33.51,44.05l4.94-.69.34-3.56-2.99-1.03-3.21,1.84.92,3.45Z"/><path class="cls-3" d="M34.43,22.15c-12.93,1.22-20.36,3.75-27.25,7.35-1.53-.54,1.3-3.75,3.83-5.78-.03-2.24.4-4.47,1.26-6.54,0,0,1.95.08,3.64-.61.61-2.07,2.37-3.83,2.37-3.83-.35-.87-.82-1.7-1.38-2.45,2.37-3.37,11.64-6.74,21.13-4.52,9.49,2.22,13.24,13.7,13.24,13.7,0,0,4.44,1.99,4.21,4.59-3.22-1.53-12.19-2.75-21.05-1.91h0ZM36.87,9.27c-3.48-2.01-7.84.5-7.84,4.52,0,1.87,1,3.59,2.61,4.52,3.48,2.01,7.84-.5,7.84-4.52,0-1.87-1-3.59-2.61-4.52Z"/><path d="M45.2,30.83c-1.77,0-2.88-1.92-1.99-3.45.76-1.31,2.54-1.55,3.61-.48-.05-.12-.11-.23-.17-.35-1.28-2.22-4.49-2.22-5.77,0-1.28,2.22.32,4.99,2.88,4.99.82,0,1.61-.3,2.22-.85-.25.09-.52.14-.78.14ZM29.42,30.07c0,.84-.22,1.67-.64,2.4-.19.34-.43.65-.7.93-1.83,2.04-3.91,2.03-3.75,1.93.15-.09.51-.28.9-.51-1.92.25-3.8-.68-4.76-2.36-1.85-3.2.46-7.2,4.16-7.2,2.65,0,4.8,2.15,4.8,4.8ZM27.66,28.32c-1.35-2.34-4.72-2.34-6.08,0-1.35,2.34.34,5.26,3.04,5.26,1.01,0,1.93-.43,2.57-1.12-1.69.85-3.66-.44-3.56-2.33.1-1.89,2.21-2.95,3.79-1.92.11.07.21.15.31.24l-.07-.13ZM44.64,33.15c-.87.1-2.79-.44-3.78-1.39-.43-.35-.79-.78-1.06-1.26-1.76-3.05.44-6.86,3.96-6.86,3.52,0,5.72,3.81,3.96,6.86,0,0,0,0,0,0-.8,1.41-2.3,2.28-3.92,2.29.51.2,1.13.33.83.36ZM16.38,14.44c.32-.53.72-1.01,1.17-1.43-.29-.68-1.29-2.65-3.43-3.28-2.6-.77-4.64,2.85-3.48,5.03.98,1.84,3.82,1.53,4.96,1.34.19-.58.45-1.14.78-1.66h0ZM19.79,11.94c.25.14-1.2.9-2.46,2.92-.74,1.14-1.35,2.37-1.8,3.66-.09.21-.26-.19-.22-.95-.61.24-1.25.42-1.9.52-.43,1.27-.76,2.58-.99,3.9.23-.13.45-.25.68-.37,7.2-3.86,12.25-5.09,15.59-5.62-1.57-3.81,1.21-8.18,5.5-8.18,4.12,0,6.98,4.09,5.58,7.96,3.91.44,7.41,1.34,10.03,2.28-.82-2.02-2.93-6.18-7.24-9.26-6.05-4.33-17.07-3.2-22.52.46-.65.43-1.27.91-1.85,1.44.25.47.45.96.6,1.46.51-.24.89-.28,1-.22ZM8.81,16.76c-2.53-2.75-.85-7.67,2.39-8.87,1.99-.73,3.98-.37,5.49.92,4.02-3.34,9.92-5.24,15.45-5.21,3.68.02,8.02.92,11.91,3.62.46-.68,1.1-1.21,1.85-1.54,2.01-.93,5.85.26,6.72,3.79.62,2.53-1.14,4.33-2.07,5.08.83,1.51,1.52,3.08,2.06,4.71.3.15.57.3.8.44,3.9,2.3,3.76,4.37,3,5.16-.17.18-.75.52-1.7.96.4,1.12.88,2.78,1.37,5.19,1.27,6.19-.7,9.34-2.3,8.3-.7,2.72-2.14,5.2-4.18,7.14,1.7,1.61,3.03,3.57,3.9,5.73l-2.09,1.2c-1.41-2.77-3.06-4.62-3.79-5.36-1.31.86-2.4,1.2-2.77,1.04-.98-.42.89-.56,3.99-5.16,3.1-4.6,3.19-8.49,3.19-8.49,0,0,1.13,1.27,1.55,1.08.42-.19,1.22-2.21,0-6.95-.92-3.58-1.92-5.42-2.36-6.11-.76-.17-1.67-.35-2.73-.49.19.52-.53.61-1.06.22-.28-.19-.59-.34-.9-.45-1.47-.14-2.94-.22-4.42-.24-.76.28-1.47.61-1.85.55-.35-.05-.28-.33-.17-.57-1.7.02-3.58.09-5.65.24-2.21.15-4.27.39-6.19.69.39.52.3,1.1,0,1.1-.24,0-.89-.56-2.13-.74-1.52.28-3.02.61-4.51.98-1.05.66-1.21,1.31-1.67,1.21-.32-.07-.37-.37-.34-.67-2.4.69-4.75,1.52-7.05,2.49-.16,1.01-.44,3.08-.63,6.11-.28,4.41.05,7.09,1.97,3.71,2.11,5.07,4.03,8.33,8.21,10.89.55.34-1.15.82-3.94-1.03-3.27,1.55-5.61,3.38-7.14,4.81l-2.09-1.21c2.06-2.13,4.46-3.94,7.09-5.34-1.1-1.06-2.09-2.23-2.98-3.47-.8,1.27-3.28,1.74-3.66-3.38-.18-2.51-.06-5.11.11-7.1-1.71-.18-2.52-.49-3.16-1.01-1.51-1.24-1.36-3.74,3.26-6.98.07-1.02.32-3.12,1.21-5.75-.77-.21-1.47-.64-2.01-1.23ZM48.2,7.4c-1.31-.14-2.14.56-2.55,1.04,1.43,1.23,2.69,2.65,3.75,4.22,2.72-1.73.67-5.07-1.2-5.27h0ZM51.58,20.77c-3.79-1.95-8.5-2.98-12.72-3.34-2.28,2.92-6.7,3.01-9.11.27-3.49.48-8.11,1.54-12.75,3.87-4.98,2.5-8.98,5.21-9.15,6.88,1.74-1.06,6.55-3.5,16.75-5.71,12.6-2.72,23.64-1.59,29.7.3-.17-.69-1.08-1.43-2.71-2.27ZM38.35,13.76c0-.73-.19-1.45-.56-2.08-1.6-2.77-5.59-2.77-7.19,0-1.6,2.77.4,6.23,3.6,6.23,2.29,0,4.15-1.86,4.15-4.15ZM42.38,41.28c-1.22,2.25-3.33,5.87-6.85,6.15-3.52.28-6.16-2.4-9.71-6.76-1.03-1.27.57-1,.98-.89,1.21.3,2.46.44,3.71.42,2.35-.07,4.41-2.21,5.16-2.21s2.35,1.08,3.33,1.08,3.71-.7,4.27-.94c.57-.23.33.89-.89,3.14ZM37.88,40.02c-.95-.28-1.58-.77-2.01-.7-.42.07-2.22,1.27-2.22,1.27,0,0,.53,2.25.84,2.39.32.14,2.39-.07,2.61-.21.21-.14.7-1.41.77-2.75ZM19.95,53.8c-.27.67-.66,1.84-1.03,2.98l-1.63-.94c1.76-2.53,3.13-3.2,2.66-2.04ZM44.73,55.59c-.46-.86.01-1.3,1.73.65l-1.09.63c-.23-.48-.46-.93-.65-1.28h0ZM35.67,36.91c-1.35.24-2.24-.49-2.75-1.31-1.64-.16-2.42-.77-2.55-1.51-.19-1.03,1.64-2.21,4.6-2.49,3.37-.32,4.64.66,4.64,1.55,0,.61-.43,1.32-1.76,1.83-.27,1-.99,1.71-2.18,1.92Z"/><path class="cls-1" d="M60.33,46.51v-29.02c0-1.06-.3-12.93-1.22-13.47L33.71.4c-.92-.53-2.06-.53-2.98,0L4.92,3.14c-.92.53-.81,13.28-.81,14.35v29.02c0,1.06.57,2.05,1.49,2.58l25.13,14.51c.92.53,2.06.53,2.98,0l25.13-14.51c.92-.53,1.49-1.52,1.49-2.58Z"/></g></svg>