<?xml version="1.0" encoding="UTF-8"?><svg xmlns="http://www.w3.org/2000/svg" viewBox="0 0 64 64"><title>RafflePress icon - Uncanny Automator</title><g id="a"><rect width="64" height="64" style="fill:none;"/></g><g id="b"><polygon points="59.98 47 32 64 32 0 57.98 14 59.98 47" style="fill:#ecf5f8;"/><path d="m62.39,19.42c0-.73-.05-2.01-.75-3.36-.56-1.08-1.43-1.99-2.63-2.76-6.76-4.37-13.9-8.02-21.09-11.63C35.86.64,33.95.02,31.99,0v4.52c.4,0,.81.05,1.12.19,7.99,3.57,15.73,7.61,23.1,12.35,1.11.71,1.59,1.55,1.58,2.87-.04,7.8-.06,15.6,0,23.4,0,1.66-.52,2.73-1.95,3.55-2.95,1.69-5.84,3.5-8.85,5.32,0-2.57.02-4.9,0-7.23-.02-1-.13-1.99-.24-2.98-.33-2.82-1.51-5.1-4.31-6.29.93-1.7,1.89-3.29,2.69-4.96,1.41-2.95,2.33-6.04,2.6-9.33.31-3.73-3.92-7.34-8.1-6.55-1.14.21-1.72,1.15-1.86,2.47-.54,5.17-1.14,10.34-1.69,15.52-.08.78-.37,1.05-1.18,1.03-.96-.03-1.93-.05-2.89-.04v30.15c1.05.03,2.1-.2,3.15-.72,1.64-.81,3.31-1.57,4.96-2.36,6.7-3.2,13.19-6.75,19.38-10.86,1.17-.78,2.07-1.75,2.51-2.97.26-.73.28-1.35.28-1.64.04-1.96.1-6.94.13-13.63.02-1.35.1-6.69,0-12.38l-.03-.02Zm-24.82,29.43c-1.42-.02-2.77-1.39-2.81-2.84-.04-1.49,1.35-2.95,2.81-2.96,1.52-.02,2.89,1.33,2.92,2.84.03,1.6-1.33,2.98-2.92,2.96Z" style="fill:#f04923;"/><polygon points="3.98 47 31.98 64 31.98 0 5.98 14 3.98 47" style="fill:#fff;"/><path d="m1.63,31.81c.03,6.69.09,11.67.13,13.63,0,.29.02.91.28,1.64.43,1.22,1.33,2.19,2.51,2.97,6.18,4.11,12.68,7.67,19.37,10.86,1.65.79,3.32,1.55,4.96,2.36,1.05.52,2.1.75,3.15.72v-30.16c-.97,0-1.93.01-2.89.04-.81.03-1.1-.24-1.18-1.03-.55-5.17-1.15-10.34-1.69-15.52-.14-1.32-.72-2.26-1.86-2.47-4.19-.78-8.42,2.82-8.1,6.55.28,3.29,1.19,6.38,2.6,9.33.8,1.67,1.76,3.25,2.69,4.96-2.81,1.19-3.98,3.47-4.31,6.29-.12.99-.23,1.99-.24,2.98-.04,2.33-.01,4.65-.01,7.23-3.01-1.82-5.9-3.63-8.85-5.32-1.43-.82-1.97-1.89-1.95-3.55.07-7.8.05-15.6.01-23.4,0-1.31.47-2.15,1.58-2.87,7.37-4.74,15.11-8.78,23.1-12.35.32-.14.72-.2,1.12-.19V0c-1.96.01-3.87.63-5.93,1.66-7.19,3.61-14.33,7.26-21.09,11.63-1.2.77-2.07,1.69-2.63,2.76-.73,1.37-.76,2.64-.77,3.37-.09,5.69-.02,11.03,0,12.38Zm21.89,14.1c.03-1.52,1.4-2.86,2.92-2.84,1.47.01,2.85,1.47,2.81,2.96-.04,1.45-1.39,2.82-2.81,2.84-1.59.02-2.95-1.35-2.92-2.96Z" style="fill:#f26537;"/></g></svg>