<?xml version="1.0" encoding="UTF-8"?><svg xmlns="http://www.w3.org/2000/svg" viewBox="0 0 64 64"><defs><style>.cls-1{fill:#36a635;}.cls-1,.cls-2{stroke-width:0px;}.cls-2{fill:none;}</style></defs><title>Keap icon - Uncanny Automator</title><g id="Layer_2"><rect class="cls-2" y="0" width="64" height="64"/></g><g id="Layer_1"><path class="cls-1" d="M52.41,57.39l-5.72,5.92c-.82,1.02-2.04.82-3.06,0l-20.22-20.62v19.19c0,1.23-.82,2.04-2.25,2.04h-8.15c-1.06.07-1.98-.74-2.04-1.81,0-.08,0-.16,0-.24V2.05C10.91.98,11.72.07,12.78,0c.08,0,.16,0,.24,0h8.15c1.43,0,2.25.82,2.25,2.04v19.6h27.6c1.07-.05,1.97.78,2.02,1.85,0,.07,0,.13,0,.2v8.37c.06,1.07-.75,1.98-1.82,2.04-.07,0-.13,0-.2,0h-18.81l20.22,20.42c.82.82.82,1.84,0,2.86Z"/></g></svg>