<?xml version="1.0" encoding="UTF-8"?><svg xmlns="http://www.w3.org/2000/svg" viewBox="0 0 64 64"><title>Thrive Leads icon - Uncanny Automator</title><g id="a"><rect width="64" height="64" style="fill:none;"/></g><g id="b"><path d="m16.77,29.49S27.88,9.94,58.31,7.2c-1.62.92-5.8,4.18-7.84,11.15-2.04,6.97-4.37,12.46-4.37,12.46l-13.94,10.58-7.74-5.7s2.75-9.27,19.64-20.25c-1.83.71-13.43,6.41-22.9,17.6l-4.4-3.57v.02Z" style="fill:#4f961b;"/><path d="m56.28,14.01h.03l-.27.51-1.32,2.73,5.35,2.87-27.88,21.26L4.3,20.13l27.74-14.95,6.66,3.66,4.55-2.06h0L31.86.48.21,18.3s-.21,36.02-.21,39.59,5.59,5.59,5.59,5.59c0,0,48.23.1,52.71,0s5.7-5.8,5.7-5.8V18.3l-7.76-4.29h.03ZM4.29,56.97v-31.75l17.81,14.15S4.29,56.97,4.29,56.97Zm3.36,2.75l18.02-18.32,6.36,4.67,6.36-4.67,18.42,18.32H7.64Zm52.4-2.75l-17.91-17.6,17.91-14.15v31.75Z" style="fill:#424242;"/></g></svg>