<?xml version="1.0" encoding="UTF-8"?><svg id="a" xmlns="http://www.w3.org/2000/svg" viewBox="0 0 64 64"><title>Help Scout icon - Uncanny Automator</title><path d="M27.95,18.91L9.44,37.82c-2.31-2.36-3.76-5.61-4.05-9.45,0-3.55,1.74-7.09,4.05-9.45L28.24,0c2.31,2.36,3.76,5.91,3.76,9.45s-1.74,7.09-4.05,9.45h0Zm8.14,26.18l18.71-18.91c2.34,2.66,3.8,5.91,3.8,9.45s-1.76,7.09-4.09,9.45l-18.72,18.91c-2.34-2.36-3.8-5.91-3.8-9.45s1.75-7.09,4.09-9.45h0Zm-.46-26.18l5.53-5.53L54.83,0c2.33,2.33,3.78,5.82,3.78,9.31s-1.74,6.98-4.07,9.31l-13.38,13.38-5.53,5.53-7.85,7.85-5.53,5.53-13.09,13.09c-2.33-2.33-3.78-5.82-3.78-9.31s1.75-6.98,4.07-9.31l13.09-13.09,5.23-5.53,7.85-7.85Z" style="fill:#1292ee; fill-rule:evenodd;"/><rect width="64" height="64" style="fill:none;"/></svg>