<?xml version="1.0" encoding="UTF-8"?><svg id="a" xmlns="http://www.w3.org/2000/svg" xmlns:xlink="http://www.w3.org/1999/xlink" viewBox="0 0 64 64"><defs><linearGradient id="b" x1="32" y1="2" x2="32" y2="66" gradientTransform="translate(0 66) scale(1 -1)" gradientUnits="userSpaceOnUse"><stop offset="0" stop-color="#0052cc"/><stop offset="1" stop-color="#2684ff"/></linearGradient></defs><title>Trello icon - Uncanny Automator</title><path d="M56.39,0H7.61C3.41,0,0,3.41,0,7.61V56.39c0,4.2,3.41,7.61,7.61,7.61H56.39c4.2,0,7.61-3.41,7.61-7.61V7.61c0-4.2-3.41-7.61-7.61-7.61ZM27.57,46.09c0,1.4-1.13,2.53-2.53,2.53H14.35c-1.4,0-2.53-1.13-2.53-2.53V14.35c0-1.4,1.13-2.53,2.53-2.53h10.69c1.4,0,2.53,1.13,2.53,2.53v31.75Zm24.62-14.58c.03,1.4-1.08,2.55-2.48,2.58-.02,0-.04,0-.05,0h-10.69c-1.4,0-2.53-1.13-2.53-2.53V14.35c0-1.4,1.13-2.53,2.53-2.53h10.69c1.4,0,2.53,1.13,2.53,2.53V31.52Z" style="fill:url(#b); fill-rule:evenodd;"/></svg>