<?xml version="1.0" encoding="UTF-8"?><svg xmlns="http://www.w3.org/2000/svg" viewBox="0 0 64 64"><defs><style>.cls-1{fill:none;}.cls-1,.cls-2,.cls-3{stroke-width:0px;}.cls-2{fill:#fff;}.cls-3{fill:#00baff;}</style></defs><title>GetResponse icon - Uncanny Automator</title><g id="Layer_2"><rect class="cls-1" width="64" height="64"/></g><g id="Layer_1"><path class="cls-3" d="M64,49.64c0,1.53-1.24,2.7-2.7,2.7H2.7c-1.46.07-2.7-1.17-2.7-2.7V14.35c0-1.46,1.24-2.7,2.7-2.7h58.52c1.53,0,2.7,1.24,2.7,2.7v35.29h.07Z"/><path class="cls-2" d="M63.42,12.67c-7.6,11.76-19.36,22.58-31.49,22.28-4.46-.07-9.57-1.39-13.88-4.89-3.21-2.63-6.43-6.72-7.67-12.57h-1.32c-1.97,0-3.14,1.75-2.92,3.36.07.37.15.8.22,1.24.95,5.7,4.31,12.13,9.94,16.29,4.38,3.21,9.79,5.33,15.71,5.33,10.67,0,22.06-6.79,32-24.26v-5.11c0-.58-.22-1.24-.58-1.68Z"/></g></svg>