<?xml version="1.0" encoding="utf-8"?><svg xmlns="http://www.w3.org/2000/svg" viewBox="0 0 64 64"><defs><style>.a{fill:#1877f2;}.b{fill:#fff;}</style></defs><title>Facebook icon - Uncanny Automator</title><path class="a" d="M64,32A32,32,0,1,0,27,63.61V41.25H18.88V32H27V25c0-8,4.78-12.45,12.09-12.45a49.54,49.54,0,0,1,7.16.62V21h-4c-4,0-5.21,2.47-5.21,5v6h8.88l-1.42,9.25H37V63.61A32,32,0,0,0,64,32Z"/><path class="b" d="M44.46,41.25,45.88,32H37V26c0-2.53,1.24-5,5.21-5h4V13.12a49.54,49.54,0,0,0-7.16-.62C31.78,12.5,27,16.93,27,25V32H18.88v9.25H27V63.61a32.25,32.25,0,0,0,10,0V41.25Z"/></svg>