<svg xmlns="http://www.w3.org/2000/svg" viewBox="0 0 64 64"><defs><style>.a{fill:none;}.b{fill:#e01e5a;}.c{fill:#36c5f0;}.d{fill:#2eb67d;}.e{fill:#ecb22e;}</style></defs><title>Slack icon - Uncanny Automator</title><rect class="a" width="64" height="64"/><path class="b" d="M13.45,40.44a6.73,6.73,0,1,1-6.73-6.72h6.73Z"/><path class="b" d="M16.83,40.44a6.73,6.73,0,0,1,13.45,0V57.28a6.73,6.73,0,0,1-13.45,0Z"/><path class="c" d="M23.56,13.45a6.73,6.73,0,1,1,6.72-6.73v6.73Z"/><path class="c" d="M23.56,16.83a6.73,6.73,0,0,1,0,13.45H6.72a6.73,6.73,0,0,1,0-13.45Z"/><path class="d" d="M50.55,23.56a6.73,6.73,0,1,1,6.73,6.72H50.55Z"/><path class="d" d="M47.17,23.56a6.73,6.73,0,0,1-13.45,0V6.72a6.73,6.73,0,0,1,13.45,0Z"/><path class="e" d="M40.44,50.55a6.73,6.73,0,1,1-6.72,6.73V50.55Z"/><path class="e" d="M40.44,47.17a6.73,6.73,0,0,1,0-13.45H57.28a6.73,6.73,0,0,1,0,13.45Z"/></svg>