<?xml version="1.0" encoding="utf-8"?><svg xmlns="http://www.w3.org/2000/svg" viewBox="0 0 64 64"><defs><style>.cls-1{fill:none;}.cls-2{fill:#004cff;}</style></defs><title>ActiveCampaign icon - Uncanny Automator</title><g id="Layer_2" data-name="Layer 2"><rect class="cls-1" width="64" height="64"/></g><g id="Layer_1" data-name="Layer 1"><g id="Layer_1-2" data-name="Layer 1"><path class="cls-2" d="M28,34.57a5.15,5.15,0,0,0,3.11-1.21c1.29-.89,2.42-1.63,2.42-1.63l.39-.28-.39-.27c-.16-.11-17.09-11.87-18.85-13a2.48,2.48,0,0,0-2.49-.35,2.11,2.11,0,0,0-1.09,2v4l.16.08c.12.08,11.76,8.18,14,9.7A4.69,4.69,0,0,0,28,34.57Z"/><path class="cls-2" d="M50.72,27.52c-1-.74-37.33-26.08-38.89-27.17L11.33,0V6.23c0,2,1.05,2.72,2.33,3.66,0,0,27.88,19.42,31.34,21.8C41.54,34.1,15.3,52.28,13.62,53.33c-2,1.33-2.18,2.18-2.18,4V64S49.87,36.52,50.69,35.89h0a5.07,5.07,0,0,0,2.18-4v-.7A4.37,4.37,0,0,0,50.72,27.52Z"/></g></g></svg>