<svg xmlns="http://www.w3.org/2000/svg" viewBox="0 0 64 64"><defs><style>.a{fill:none;}.b{fill:#006838;}.c{fill:#39b54a;}</style></defs><title>Upsell Plugin icon - Uncanny Automator</title><rect class="a" width="64" height="64"/><path class="b" d="M51.85,33.75A7.81,7.81,0,0,1,49.7,39.6q-2.36,2.31-7,2.31H38.2V36.47h4.23a6.57,6.57,0,0,0,3-.46,2.43,2.43,0,0,0,1-2.27c0-1.75-1.24-2.63-3.74-2.63H38.24V25.62h4.15a11.11,11.11,0,0,1,7,1.95Q51.85,29.57,51.85,33.75Z"/><path class="b" d="M21.41,45.23a11.64,11.64,0,0,1-.65-4.63v-15H15.24V41.14c0,3.73.87,6.64,2.63,8.72a10.17,10.17,0,0,0,6.55,3.41l1.28.18v-5.6l-.65-.15a6.19,6.19,0,0,1-1.46-.52A4.47,4.47,0,0,1,21.41,45.23Z"/><path class="c" d="M38.18,9.87l.11,2a25.51,25.51,0,1,1-7.69-.74l.1-2a27.44,27.44,0,1,0,7.48.68Z"/><path class="b" d="M36.51,4.57H32.34l-.66,36A10.67,10.67,0,0,1,31,45.27,4.57,4.57,0,0,1,28.8,47.2a6.55,6.55,0,0,1-1.41.49l-.69.16v5.6L28,53.27a10.38,10.38,0,0,0,6.79-3.93,13.3,13.3,0,0,0,2.39-8.2Z"/><polygon class="b" points="29.38 5.04 34.42 0 39.47 5.04 29.38 5.04"/></svg>