<?xml version="1.0" encoding="UTF-8"?><svg xmlns="http://www.w3.org/2000/svg" viewBox="0 0 64 64"><defs><style>.cls-1{fill:none;}.cls-2{fill:#093071;}.cls-3{fill:#f5cd21;}.cls-4{fill:#fddd75;}.cls-5{fill:#fff;}.cls-6{fill:#5e8cda;}</style></defs><g id="Layer_1"><path class="cls-6" d="M56.21,31.08l-14.72-14.72-6.27,7.96,6.76,6.76c.62.62.62,1.64,0,2.27l-1.96,1.96s1.32,1.97,1.38,2.09c.3.61.38,2.04-.49,2.7l-15.38,11.8c0,3.96,0,12.11,0,12.11,0,0,30.67-30.66,30.67-30.66.62-.63.62-1.64,0-2.27Z"/><path class="cls-2" d="M22.02,32.93c-.62-.62-.62-1.64,0-2.26l1.96-1.96-1.34-1.92c-.64-.9-.44-2.19.44-2.86l15.38-11.8V.02s0,0,0,0h0S7.79,30.67,7.79,30.67c-.62.63-.62,1.64,0,2.27l14.72,14.72,6.27-7.96-6.76-6.76Z"/><polygon class="cls-5" points="32.26 42.65 32.26 42.65 25.14 49.76 32.26 42.65"/><path class="cls-6" d="M46.21,7.39c.21,0,.41.13.5.31.16.33-.05.65-.26.92l-13.47,17.1c-.19.25-.21.73-.03.98,0,0,7.27,10.55,7.52,10.91.28.4.29,1.58-.34,2.06l-21.66,16.63c-.31.24-.48.31-.7.32-.19-.01-.39-.15-.48-.31-.16-.33.05-.65.26-.92l13.47-17.1c.2-.26.21-.72.03-.98l-7.52-10.82c-.48-.68-.33-1.64.33-2.15L45.54,7.7c.35-.27.53-.31.67-.31M46.21,7.11c-.26,0-.5.11-.84.37l-21.67,16.63c-.78.6-.95,1.73-.39,2.53l7.52,10.81c.11.17.1.5-.03.66l-13.47,17.1c-.18.23-.55.7-.29,1.22.13.25.42.45.71.47.34,0,.58-.14.88-.37l21.66-16.63c.75-.57.75-1.92.4-2.43-.25-.36-7.52-10.91-7.52-10.91-.11-.16-.1-.5.02-.66l13.47-17.1c.18-.22.55-.69.3-1.21-.14-.28-.44-.47-.75-.47h0Z"/><path class="cls-3" d="M39.92,37.66c.18.26.33,1.26-.11,1.6l-21.67,16.63c-.18.14-.3.21-.35.21-.07,0-.02-.13.18-.38l13.47-17.09c.34-.44.36-1.16.05-1.61l-7.52-10.82s15.77,11.21,15.95,11.48Z"/><path class="cls-4" d="M39.92,37.66l-7.4-10.65c-.31-.45-.29-1.18.05-1.61l13.47-17.1c.2-.25.25-.38.18-.38-.05,0-.17.06-.35.21l-21.67,16.63c-.44.33-.54.98-.22,1.43l15.95,11.47Z"/></g><g id="Layer_2"><rect class="cls-1" y="0" width="64" height="64"/></g></svg>
