<?xml version="1.0" encoding="UTF-8"?><svg xmlns="http://www.w3.org/2000/svg" viewBox="0 0 64 64"><defs><style>.cls-1{fill:none;}.cls-2{fill:#4d6bfe;}</style></defs><g id="Layer_2"><rect class="cls-1" width="64" height="64"/></g><g id="Layer_1"><path class="cls-2" d="M63.33,12.4c-.68-.33-.97.3-1.37.62-.14.1-.25.24-.36.36-.99,1.06-2.15,1.75-3.66,1.67-2.21-.12-4.1.57-5.77,2.26-.35-2.09-1.53-3.33-3.33-4.13-.94-.41-1.89-.83-2.54-1.73-.46-.64-.58-1.36-.81-2.06-.15-.43-.29-.86-.78-.93-.53-.08-.74.36-.95.74-.83,1.53-1.16,3.21-1.13,4.91.07,3.83,1.69,6.88,4.9,9.05.36.25.46.5.34.86-.22.75-.48,1.47-.71,2.22-.15.48-.37.58-.88.37-1.76-.74-3.29-1.83-4.63-3.14-2.28-2.21-4.35-4.65-6.93-6.56-.6-.44-1.21-.86-1.84-1.26-2.63-2.55.34-4.65,1.03-4.9.72-.26.25-1.15-2.08-1.14-2.33.01-4.45.79-7.17,1.83-.4.16-.81.27-1.24.36-2.46-.47-5.02-.57-7.69-.27-5.03.56-9.04,2.94-11.99,6.99C.22,23.4-.62,28.94.41,34.72c1.07,6.09,4.18,11.13,8.96,15.08,4.95,4.09,10.66,6.09,17.17,5.71,3.95-.23,8.35-.76,13.32-4.96,1.25.62,2.57.87,4.75,1.06,1.68.16,3.3-.08,4.55-.34,1.96-.41,1.83-2.23,1.12-2.56-5.75-2.68-4.48-1.59-5.63-2.47,2.92-3.45,7.32-7.04,9.04-18.68.14-.92.02-1.5,0-2.25-.01-.46.09-.63.62-.68,1.44-.17,2.84-.56,4.12-1.27,3.72-2.03,5.23-5.37,5.58-9.38.05-.61-.01-1.25-.66-1.57h0s0,0,0,0ZM30.88,48.45c-5.57-4.38-8.27-5.82-9.39-5.76-1.04.06-.86,1.26-.63,2.03.24.77.55,1.3.99,1.97.3.45.51,1.11-.3,1.61-1.79,1.11-4.91-.37-5.06-.45-3.63-2.14-6.66-4.96-8.8-8.82-2.06-3.71-3.26-7.7-3.46-11.95-.05-1.03.25-1.39,1.27-1.58,1.35-.25,2.73-.3,4.08-.1,5.68.83,10.52,3.37,14.58,7.4,2.32,2.29,4.07,5.03,5.87,7.71,1.92,2.84,3.98,5.55,6.61,7.77.93.78,1.67,1.37,2.38,1.81-2.14.24-5.71.29-8.15-1.64h0ZM41.57,35.64c-.44.17-.88.3-1.31.32-.79.04-1.66-.28-2.13-.67-.73-.61-1.25-.95-1.47-2.02-.09-.46-.04-1.16.04-1.57.19-.87-.02-1.43-.64-1.94-.5-.41-1.14-.53-1.84-.53-.26,0-.5-.11-.68-.21-.29-.15-.53-.51-.3-.95.07-.15.43-.5.51-.56.95-.54,2.04-.36,3.06.04.94.38,1.65,1.09,2.67,2.09,1.04,1.2,1.23,1.54,1.83,2.44.47.71.9,1.43,1.19,2.26.15.43.01.8-.4,1.06-.17.11-.36.18-.54.25h0ZM35.58,31.16c0,.61-.5,1.11-1.11,1.11s-1.11-.5-1.11-1.11.5-1.11,1.11-1.11,1.11.5,1.11,1.11Z"/></g></svg>