<svg xmlns="http://www.w3.org/2000/svg" viewBox="0 0 64 64"><defs><style>.cls-1{fill:none;}.cls-2{fill:#0790e8;}.cls-3{fill:#fff;}</style></defs><title>Webhooks icon - Uncanny Automator</title><g id="Layer_1" data-name="Layer 1"><rect class="cls-1" width="64" height="64"/></g><g id="Layer_2" data-name="Layer 2"><rect class="cls-2" width="64" height="64" rx="8"/></g><g id="Layer_3" data-name="Layer 3"><rect class="cls-1" width="64" height="64"/><path class="cls-3" d="M27.6,39.7H40.54A3.23,3.23,0,0,1,43,38.6a3.3,3.3,0,1,1-2.46,5.5H31.78a11,11,0,1,1-13-13v4.55a6.6,6.6,0,1,0,8.8,6.23Zm5.5-24.2a6.62,6.62,0,0,1,6.6,6.6h4.4a11,11,0,0,0-11-11h0a11,11,0,0,0-7.59,19l-5.17,8.58A3.33,3.33,0,0,0,17.7,41.9a3.3,3.3,0,0,0,6.6,0,2.93,2.93,0,0,0-.15-1l7.43-12.39a6.6,6.6,0,0,1,1.52-13ZM43,35.3a6.55,6.55,0,0,0-3.78,1.19L32.51,25.33A3.29,3.29,0,1,1,36.4,22.1a3.35,3.35,0,0,1-.13.95l4.82,8A10.76,10.76,0,0,1,43,30.9h0a11,11,0,1,1-9.53,16.5h5.88A6.6,6.6,0,1,0,43,35.3Z"/></g></svg>