<?xml version="1.0" encoding="UTF-8"?><svg id="Layer_1" xmlns="http://www.w3.org/2000/svg" viewBox="0 0 512 512"><defs><style>.cls-1{fill:none;}.cls-2{isolation:isolate;opacity:.4;}.cls-2,.cls-3{fill:#0790e8;}</style></defs><rect class="cls-1" width="512" height="512"/><path class="cls-2" d="M99.57,369.74c0,7.85,6.37,14.22,14.22,14.22s14.22-6.37,14.22-14.22-6.37-14.22-14.22-14.22-14.22,6.37-14.22,14.22ZM241.79,142.2c0,7.85,6.37,14.22,14.22,14.22s14.22-6.37,14.22-14.22-6.37-14.22-14.22-14.22-14.22,6.37-14.22,14.22ZM384.01,369.74c0,7.85,6.37,14.22,14.22,14.22s14.22-6.37,14.22-14.22-6.37-14.22-14.22-14.22-14.22,6.37-14.22,14.22Z"/><path class="cls-3" d="M272.01,72.95c36.53,8.44,60,43.73,54.31,80.17-1.87,11.64,6.13,22.58,17.78,24.35,11.64,1.78,22.58-6.13,24.35-17.78,9.16-58.4-28.35-114.84-86.84-128.35-61.24-14.13-122.31,24-136.44,85.24-9.51,41.15,4.62,82.31,33.51,109.06l-63.38,101.42h-1.51c-23.55,0-42.66,19.11-42.66,42.66s19.11,42.66,42.66,42.66,42.66-19.11,42.66-42.66c0-7.2-1.78-14.04-4.98-20l73.6-117.77c3.02-4.8,4-10.58,2.67-16.09s-4.71-10.31-9.51-13.33c-25.07-15.64-38.58-45.95-31.55-76.35,8.89-38.22,47.02-62.13,85.33-53.24ZM256.01,127.97c7.85,0,14.22,6.37,14.22,14.22s-6.37,14.22-14.22,14.22-14.22-6.37-14.22-14.22,6.37-14.22,14.22-14.22ZM293.7,162.2c3.2-5.96,4.98-12.8,4.98-20,0-23.55-19.11-42.66-42.66-42.66s-42.66,19.11-42.66,42.66,19.11,42.66,42.66,42.66h1.51l73.6,117.77c3.02,4.8,7.82,8.18,13.33,9.51s11.29.27,16.09-2.67c27.47-17.15,64.09-13.78,88,10.04,27.73,27.73,27.73,72.8,0,100.53-23.82,23.82-60.53,27.2-88,10.04-9.96-6.22-23.11-3.2-29.42,6.76s-3.2,23.11,6.76,29.42c43.91,27.55,102.57,22.22,140.79-16,44.44-44.44,44.44-116.44,0-160.88-32.89-32.89-80.89-41.42-121.6-25.69l-63.38-101.51ZM99.57,369.74c0-7.85,6.37-14.22,14.22-14.22s14.22,6.37,14.22,14.22-6.37,14.22-14.22,14.22-14.22-6.37-14.22-14.22ZM384.01,369.74c0-7.85,6.37-14.22,14.22-14.22s14.22,6.37,14.22,14.22-6.37,14.22-14.22,14.22-14.22-6.37-14.22-14.22ZM440.89,369.74c0-23.55-19.11-42.66-42.66-42.66-15.82,0-29.6,8.62-36.98,21.33h-155.02c-5.69,0-11.11,2.22-15.11,6.22s-6.22,9.42-6.22,15.11c0,32.35-22.22,61.69-55.11,69.24-38.31,8.8-76.44-15.02-85.24-53.33-7.91-34.31,10.4-68.53,41.87-81.6,10.84-4.53,16-16.98,11.47-27.91-4.53-10.93-16.98-16-27.91-11.47C19.66,285.66-9.76,340.41,2.95,395.34c14.13,61.24,75.2,99.37,136.44,85.24,45.33-10.49,77.95-46.66,86.22-89.51h135.73c7.38,12.71,21.15,21.33,36.98,21.33,23.55,0,42.66-19.11,42.66-42.66h-.09Z"/></svg>