<svg xmlns="http://www.w3.org/2000/svg" xmlns:xlink="http://www.w3.org/1999/xlink" viewBox="0 0 64 64"><defs><style>.a{fill:url(#a);}</style><linearGradient id="a" x1="0.93" y1="2.93" x2="63.07" y2="65.07" gradientTransform="matrix(1, 0, 0, -1, 0, 66)" gradientUnits="userSpaceOnUse"><stop offset="0" stop-color="#2e2975"/><stop offset="1" stop-color="#f2295b"/></linearGradient></defs><title>Elementor icon - Uncanny Automator</title><path class="a" d="M60.81,0H3.19A3.19,3.19,0,0,0,0,3.19V60.81A3.19,3.19,0,0,0,3.19,64H60.81A3.19,3.19,0,0,0,64,60.81V3.19A3.19,3.19,0,0,0,60.81,0ZM23.47,46.22H17.78V17.78h5.69Zm22.75,0H29.16V40.53H46.22v5.69Zm0-11.37H29.16V29.16H46.22v5.69Zm0-11.38H29.16V17.78H46.22v5.69Z"/></svg>