<?xml version="1.0" encoding="UTF-8"?><svg xmlns="http://www.w3.org/2000/svg" viewBox="0 0 64 64"><defs><style>.cls-1{fill:none;}.cls-2{fill:#fff;}.cls-3{fill:#0790e8;}</style></defs><title>URL icon - Uncanny Automator</title><g id="Transparent_layer"><rect class="cls-1" width="64" height="64"/></g><g id="Background"><g id="Layer_2"><rect class="cls-3" width="64" height="64" rx="8" ry="8"/></g></g><g id="URL"><path class="cls-2" d="M50.91,32.85c4.11-4.11,4.11-10.78,0-14.89-3.64-3.64-9.38-4.11-13.56-1.12l-.12.08c-1.05.75-1.29,2.21-.54,3.25s2.21,1.29,3.25.54l.12-.08c2.34-1.67,5.53-1.41,7.56.63,2.29,2.29,2.29,6.01,0,8.3l-8.17,8.18c-2.29,2.29-6.01,2.29-8.3,0-2.03-2.03-2.29-5.23-.63-7.56l.08-.12c.75-1.05.5-2.5-.54-3.25s-2.5-.5-3.25.54l-.08.12c-3,4.18-2.53,9.92,1.11,13.56,4.11,4.11,10.78,4.11,14.89,0l8.18-8.18ZM13.09,31.15c-4.11,4.11-4.11,10.78,0,14.89,3.64,3.64,9.38,4.11,13.56,1.12l.12-.08c1.05-.75,1.29-2.21.54-3.25s-2.21-1.29-3.25-.54l-.12.08c-2.34,1.67-5.53,1.41-7.56-.63-2.29-2.3-2.29-6.01,0-8.31l8.17-8.18c2.29-2.29,6.01-2.29,8.3,0,2.03,2.03,2.29,5.23.63,7.56l-.08.12c-.75,1.05-.5,2.5.54,3.25s2.5.5,3.25-.54l.08-.12c3-4.19,2.53-9.92-1.11-13.56-4.11-4.11-10.78-4.11-14.89,0l-8.18,8.18Z"/></g></svg>