<?xml version="1.0" encoding="utf-8"?><svg xmlns="http://www.w3.org/2000/svg" viewBox="0 0 63.75 63.75"><defs><style>.cls-1{fill:none;stroke:#ffa300;stroke-miterlimit:10;stroke-width:0.75px;}.cls-2{fill:#ffa300;}</style></defs><title>Integrately icon - Uncanny Automator</title><g id="Layer_2" data-name="Layer 2"><path class="cls-1" d="M32,63.5h0A31.6,31.6,0,0,1,.5,32h0A31.6,31.6,0,0,1,32,.5h0A31.6,31.6,0,0,1,63.5,32h0A31.6,31.6,0,0,1,32,63.5Z" transform="translate(-0.13 -0.13)"/><path class="cls-2" d="M46.6,38.93A14.73,14.73,0,0,1,33.37,50.55C26.6,51,20.28,47.46,17.9,40.88A18.7,18.7,0,0,1,17,34.77c0-2,0-4.06,0-6.08,0-1.85.63-2.52,2.48-2.52,3.53,0,7.07,0,10.59,0v-.06H40.41c1.58,0,3.16.06,4.73.1a1.66,1.66,0,0,1,1.75,1.57C47,31.49,47.33,35.24,46.6,38.93Z" transform="translate(-0.13 -0.13)"/><path class="cls-2" d="M25.55,24.14c2.21.1,3-.23,3.08-1.62.11-2.5.05-5,0-7.48A1.63,1.63,0,0,0,27,13.44c-.52,0-1,0-1.55,0a1.67,1.67,0,0,0-1.74,1.78c0,1.19,0,2.37,0,3.56s0,2.42,0,3.62A1.72,1.72,0,0,0,25.55,24.14Z" transform="translate(-0.13 -0.13)"/><path class="cls-2" d="M37.22,24.13c2.18,0,3-.38,3-1.64,0-2.5,0-5,0-7.48a1.63,1.63,0,0,0-1.64-1.58,14.61,14.61,0,0,0-1.48,0,1.68,1.68,0,0,0-1.8,1.81c0,1.16,0,2.32,0,3.48s0,2.46,0,3.69A1.7,1.7,0,0,0,37.22,24.13Z" transform="translate(-0.13 -0.13)"/></g></svg>