<?xml version="1.0" encoding="UTF-8"?><svg xmlns="http://www.w3.org/2000/svg" viewBox="0 0 64 64"><defs><style>.cls-1{fill:none;}.cls-2{fill:#5865f2;}</style></defs><title>Discord icon - Uncanny Automator</title><g id="Layer_2"><rect class="cls-1" width="64" height="64"/></g><g id="Layer_1"><path class="cls-2" d="M54.21,11.81c-4.2-1.93-8.64-3.29-13.2-4.06-.62,1.12-1.19,2.26-1.69,3.44-4.86-.73-9.8-.73-14.65,0-.5-1.17-1.07-2.32-1.69-3.44-4.56.78-9,2.15-13.21,4.07C1.4,24.18-.86,36.24.27,48.12H.27c4.89,3.62,10.37,6.37,16.19,8.13,1.31-1.76,2.47-3.63,3.47-5.59-1.89-.71-3.72-1.58-5.46-2.61.46-.33.91-.67,1.34-1.01,10.25,4.82,22.12,4.82,32.38,0,.44.36.89.7,1.34,1.01-1.74,1.03-3.57,1.9-5.47,2.61,1,1.96,2.16,3.83,3.47,5.59,5.83-1.76,11.31-4.51,16.2-8.12h0c1.33-13.78-2.27-25.73-9.51-36.32ZM21.37,40.81c-3.16,0-5.76-2.86-5.76-6.39s2.52-6.41,5.75-6.41,5.82,2.89,5.77,6.41-2.54,6.39-5.76,6.39ZM42.63,40.81c-3.16,0-5.76-2.86-5.76-6.39s2.52-6.41,5.76-6.41,5.81,2.89,5.75,6.41-2.54,6.39-5.75,6.39Z"/></g></svg>
