<?xml version="1.0" encoding="UTF-8"?><svg xmlns="http://www.w3.org/2000/svg" viewBox="0 0 64 64"><title>Date and time icon - Uncanny Automator</title><g id="a"><rect width="64" height="64" style="fill:none;"/></g><g id="b"><g id="c"><rect width="64" height="64" rx="8" ry="8" style="fill:#0790e8;"/></g></g><g id="d"><path d="M32,54c-12.15,0-22-9.85-22-22S19.85,10,32,10s22,9.85,22,22-9.85,22-22,22Zm-2.06-33.69v11.69c0,.69,.34,1.33,.92,1.72l8.25,5.5c.95,.64,2.23,.38,2.86-.58s.38-2.23-.58-2.86l-7.33-4.88v-10.59c0-1.14-.92-2.06-2.06-2.06s-2.06,.92-2.06,2.06Z" style="fill:#fff;"/></g></svg>