<svg xmlns="http://www.w3.org/2000/svg" viewBox="0 0 64 64"><defs><style>.a{fill:#35495c;}</style></defs><title>Easy Digital Downloads icon - Uncanny Automator</title><path class="a" d="M54.63,9.37A32,32,0,1,0,64,32,31.9,31.9,0,0,0,54.63,9.37Zm-1.06,44.2A30.52,30.52,0,1,1,62.5,32,30.42,30.42,0,0,1,53.57,53.57Z" transform="translate(0)"/><path class="a" d="M59.53,31.73a27.53,27.53,0,0,0-55.06,0L17.1,19.11l4.23,4.23-9.24,9.24H51.91l-9.24-9.24,4.24-4.23ZM32,27,20.27,14.69h7.8V8.63c0-1.58,1.77-2.87,3.93-2.87s3.93,1.29,3.93,2.87v6.06h7.8Z" transform="translate(0)"/><path class="a" d="M35.42,47.49a10.75,10.75,0,0,0-2.37-1.09,15.93,15.93,0,0,1-1.8-.72,2.88,2.88,0,0,1-1-.74,1.43,1.43,0,0,1-.33-1,1.41,1.41,0,0,1,.28-.84,2,2,0,0,1,.88-.66,4.2,4.2,0,0,1,1.56-.27,8.33,8.33,0,0,1,2.52.39c.32.11.58.22.79.31l.71-2.14A7.13,7.13,0,0,0,35,40.22,11.42,11.42,0,0,0,33.1,40V37.79h-2v2.32a6.09,6.09,0,0,0-.89.21,5.59,5.59,0,0,0-1.85.89,4,4,0,0,0-1.17,1.34,3.7,3.7,0,0,0-.41,1.69,3.28,3.28,0,0,0,.55,1.86,5,5,0,0,0,1.56,1.4,11,11,0,0,0,2.38,1,11,11,0,0,1,1.68.69,2.81,2.81,0,0,1,.94.78,1.7,1.7,0,0,1,.3,1A1.63,1.63,0,0,1,33.87,52a2.08,2.08,0,0,1-1,.7,4.8,4.8,0,0,1-1.63.26,10.73,10.73,0,0,1-1.51-.13,10.38,10.38,0,0,1-1.36-.35,7,7,0,0,1-1.12-.46l-.69,2.23a6.07,6.07,0,0,0,1.17.46,11,11,0,0,0,1.57.35,14.41,14.41,0,0,0,1.75.13h.1v2.29h2V55a5.11,5.11,0,0,0,.7-.17,5.57,5.57,0,0,0,2-1,3.84,3.84,0,0,0,1.54-3.11,3.64,3.64,0,0,0-.46-1.86,4.26,4.26,0,0,0-1.41-1.43Z" transform="translate(0)"/></svg>