<?xml version="1.0" encoding="UTF-8"?><svg xmlns="http://www.w3.org/2000/svg" viewBox="0 0 64 64"><defs><style>.cls-1{fill:none;}.cls-2{fill:#01b7ff;}</style></defs><g id="Layer_2"><rect class="cls-1" width="64" height="64"/></g><g id="Layer_1"><path class="cls-2" d="M49.16,4.09l-11.07,32.93c-.23.69-.88,1.15-1.6,1.15h-18.77c-.77,0-1.44-.52-1.64-1.26l-.24-.92c-.28-1.07.53-2.12,1.64-2.12h4.64c.73,0,1.37-.46,1.6-1.15l2.03-6.04c.37-1.1-.45-2.23-1.6-2.23h-10.05c-.77,0-1.44-.52-1.64-1.26l-.18-.68c-.28-1.07.53-2.12,1.64-2.12h16.7c.72,0,1.37-.46,1.6-1.15l2.04-6.04c.37-1.1-.44-2.23-1.6-2.23H1.69c-1.11,0-1.92,1.05-1.64,2.12l8.76,33.26c.2.74.87,1.26,1.64,1.26h32.81c.73,0,1.37-.46,1.6-1.15l11.07-32.93c.23-.69.88-1.15,1.6-1.15h2.74c.72,0,1.37-.46,1.6-1.15l2.03-6.04c.37-1.1-.45-2.23-1.6-2.23h-11.54c-.73,0-1.37.46-1.6,1.15h0Z"/><path class="cls-2" d="M36.44,60.83c3.26,0,5.9-2.64,5.9-5.89s-2.64-5.9-5.9-5.9-5.89,2.64-5.89,5.9,2.64,5.89,5.89,5.89Z"/><path class="cls-2" d="M17.4,61.06c3.26,0,5.89-2.64,5.89-5.89s-2.64-5.9-5.89-5.9-5.9,2.64-5.9,5.9,2.64,5.89,5.9,5.89Z"/></g></svg>