<?xml version="1.0" encoding="utf-8"?><svg xmlns="http://www.w3.org/2000/svg" viewBox="0 0 64 64"><defs><style>.cls-1{fill:none;}.cls-2{fill:#1d9bf0;}</style></defs><title>Twitter icon - Uncanny Automator</title><g id="Layer_1" data-name="Layer 1"><rect class="cls-1" width="64" height="64"/></g><g id="Layer_2" data-name="Layer 2"><g id="Logo"><path id="white_background" data-name="white background" class="cls-2" d="M57.45,18.94c0,.57,0,1.13,0,1.7C57.49,38,44.28,58,20.13,58h0A37.2,37.2,0,0,1,0,52.11a27.24,27.24,0,0,0,3.13.18,26.27,26.27,0,0,0,16.3-5.63A13.13,13.13,0,0,1,7.17,37.54a13,13,0,0,0,5.92-.22A13.14,13.14,0,0,1,2.56,24.45v-.17a13.13,13.13,0,0,0,6,1.65A13.15,13.15,0,0,1,4.46,8.39,37.24,37.24,0,0,0,31.52,22.11a13.14,13.14,0,0,1,22.37-12A26.35,26.35,0,0,0,62.23,7a13.17,13.17,0,0,1-5.77,7.26A26,26,0,0,0,64,12.14,26.47,26.47,0,0,1,57.45,18.94Z"/></g></g></svg>