<?xml version="1.0" encoding="UTF-8"?><svg id="Layer_1" xmlns="http://www.w3.org/2000/svg" viewBox="0 0 64 64"><defs><style>.cls-1{fill:none;}</style></defs><title>Threads icon - Uncanny Automator</title><rect class="cls-1" width="64" height="64"/><path d="M32.5,64h-.02c-9.55-.06-16.89-3.21-21.82-9.36-4.38-5.47-6.65-13.08-6.73-22.62v-.04c.08-9.54,2.34-17.15,6.73-22.62C15.59,3.21,22.93.06,32.48,0h.04c7.32.05,13.45,1.93,18.2,5.59,4.47,3.44,7.62,8.35,9.36,14.58l-5.44,1.52c-2.94-10.56-10.39-15.96-22.14-16.04-7.76.06-13.63,2.5-17.44,7.24-3.56,4.45-5.41,10.87-5.48,19.1.07,8.23,1.91,14.66,5.48,19.1,3.81,4.76,9.68,7.19,17.44,7.24,7-.05,11.62-1.68,15.47-5.45,4.39-4.3,4.31-9.58,2.91-12.79-.83-1.89-2.33-3.47-4.36-4.67-.51,3.6-1.66,6.52-3.42,8.72-2.36,2.94-5.71,4.54-9.95,4.77-3.21.17-6.3-.58-8.69-2.14-2.84-1.84-4.49-4.64-4.67-7.9-.17-3.17,1.09-6.09,3.55-8.22,2.35-2.03,5.65-3.22,9.56-3.44,2.87-.16,5.57-.03,8.05.38-.33-1.98-1-3.55-2-4.68-1.37-1.56-3.49-2.36-6.29-2.37h-.08c-2.25,0-5.31.62-7.26,3.52l-4.68-3.14c2.61-3.88,6.85-6.02,11.94-6.02h.12c8.52.05,13.59,5.27,14.1,14.37.29.12.58.25.86.38,3.97,1.87,6.88,4.7,8.41,8.19,2.12,4.86,2.32,12.77-4.13,19.09-4.93,4.83-10.92,7.01-19.4,7.07h-.02ZM35.17,32.83c-.65,0-1.3.02-1.97.06-4.9.28-7.95,2.52-7.78,5.72.18,3.35,3.87,4.9,7.42,4.71,3.26-.17,7.51-1.45,8.23-9.89-1.8-.39-3.78-.59-5.91-.59Z"/></svg>