<?xml version="1.0" encoding="UTF-8"?><svg xmlns="http://www.w3.org/2000/svg" viewBox="0 0 64 64"><title>UserFeedback icon - Uncanny Automator</title><g id="a"><rect y="0" width="64" height="64" style="fill:none;"/></g><g id="b"><path d="m7.22,0h49.56c3.89,0,7.05,3.17,7.05,7.08v38.58c0,3.91-3.16,7.39-7.05,7.39h-20.75c-1.79,0-3.51-.12-4.82,1.11l-8.49,8.18c-3.72,3.5-10.61,1.15-10.61-3.98,0-3.23-2.03-5.3-5.25-5.3h-.43c-3.45,0-6.26-2.82-6.26-6.29V7.09C.17,3.17,3.33,0,7.22,0Zm22.91,8.86c-1.95,0-3.53,1.59-3.52,3.54v24.8c0,1.95,1.57,3.54,3.52,3.54h3.52c1.95,0,3.53-1.59,3.52-3.54h0V12.4c0-1.95-1.57-3.54-3.52-3.54,0,0-3.52,0-3.52,0Zm-14.09,10.63c-1.95,0-3.53,1.59-3.53,3.54h0v14.17c0,1.95,1.57,3.54,3.52,3.54h3.52c1.95,0,3.53-1.59,3.52-3.54h0v-14.17c0-1.95-1.57-3.54-3.52-3.54h-3.52,0Zm24.67,10.63c0-1.95,1.57-3.54,3.52-3.54h3.52c1.95,0,3.53,1.59,3.52,3.54v7.09c0,1.95-1.57,3.54-3.52,3.54h-3.52c-1.95,0-3.53-1.59-3.52-3.54h0v-7.08h0Z" style="fill:#2d87f1; fill-rule:evenodd;"/></g></svg>