<?xml version="1.0" encoding="UTF-8"?><svg xmlns="http://www.w3.org/2000/svg" viewBox="0 0 64 64"><title>Zoho Campaigns icon - Uncanny Automator</title><g id="a"><rect width="64" height="64" style="fill:none;"/></g><g id="b"><path d="m63.91,41.5l-6.24-35.39c-.4-2.29-2.14-4.07-4.42-4.54-2.28-.47-4.57.49-5.85,2.44-.57.87-.32,2.03.55,2.6.87.57,2.03.32,2.6-.55.65-.99,1.66-.87,1.95-.81s1.27.35,1.47,1.51l6.24,35.38c.13.75-.2,1.28-.41,1.53s-.68.67-1.44.67H22.08c-1.04,0-1.88.84-1.88,1.88s.84,1.88,1.88,1.88h4.84l-3.42,9.45c-.27.74-.98,1.24-1.77,1.24h-1.53c-.91,0-1.69-.65-1.85-1.55l-6.56-37,29.13-13.75c.94-.44,1.34-1.56.9-2.5-.44-.94-1.56-1.34-2.5-.9L3.23,20.13C.94,21.21-.35,23.71.09,26.2l3.04,17.26c.48,2.7,2.81,4.65,5.55,4.65h4.24l1.74,9.78c.48,2.69,2.81,4.65,5.55,4.65h1.53c2.36,0,4.49-1.49,5.3-3.72l3.88-10.72h27.46c1.67,0,3.24-.73,4.31-2.01,1.07-1.28,1.52-2.95,1.23-4.6Zm-55.24,2.86c-.91,0-1.69-.65-1.85-1.55l-3.04-17.26c-.15-.83.28-1.66,1.05-2.02l3.44-1.62,3.98,22.46h-3.58Z" style="fill:#e42527;"/><path d="m31.03,31.31c-.85,0-1.72-.19-2.53-.6l-8.65-4.34c-.93-.47-1.3-1.59-.84-2.52.47-.93,1.59-1.3,2.52-.84l8.65,4.34c.85.43,1.89.15,2.41-.65l14.8-22.69c.57-.87,1.73-1.11,2.6-.55.87.57,1.11,1.73.55,2.6l-14.8,22.69c-1.07,1.64-2.87,2.56-4.72,2.56Z" style="fill:#226db4;"/></g></svg>