<?xml version="1.0" encoding="UTF-8"?><svg xmlns="http://www.w3.org/2000/svg" viewBox="0 0 64 64"><defs><style>.cls-1{fill:none;}.cls-2,.cls-3{fill:#ff9908;}.cls-4{fill:#fff;}.cls-3{isolation:isolate;opacity:.15;}</style></defs><g id="Layer_2"><rect class="cls-1" width="64" height="64"/></g><g id="Layer_1"><g id="Document"><path class="cls-3" d="M42.52,13.11c-1.46,0-2.85-.58-3.88-1.61-1.03-1.03-1.61-2.42-1.61-3.88V0H12.5C10.6,0,8.78.75,7.44,2.1c-1.35,1.34-2.1,3.16-2.1,5.06v43.18c0,1.9.76,3.72,2.1,5.06,1.34,1.34,3.16,2.09,5.06,2.09h29.44c.94,0,1.87-.18,2.74-.54.87-.36,1.66-.89,2.32-1.55s1.19-1.45,1.55-2.32.55-1.8.55-2.74V13.1h-6.59.01Z"/><path class="cls-2" d="M49.11,13.11h-6.59c-1.46,0-2.85-.58-3.88-1.61-1.03-1.03-1.61-2.42-1.61-3.88V0s12.08,13.11,12.08,13.11Z"/><path class="cls-2" d="M54.36,45.5H21.04c-2.36,0-4.28,1.92-4.28,4.28v9.94c0,2.36,1.92,4.28,4.28,4.28h33.33c2.36,0,4.28-1.92,4.28-4.28v-9.94c0-2.36-1.92-4.28-4.28-4.28h-.01Z"/></g><g id="File"><path class="cls-2" d="M23.48,31.77c.21-.21.29-.52.39-.8.05-.15.14-.29.25-.4.1-.1.22-.18.35-.23s.27-.08.41-.08.28.03.41.08.25.13.35.23.18.22.23.35.08.27.08.41-.03.28-.08.41-.13.25-.23.35c-.11.11-.25.2-.4.25-.28.1-.59.17-.8.38l-7.42,7.42c-.87.87.14,2.28,1.25,1.74l12.16-5.96c.28-.14.49-.39.58-.69.44-1.51,1.89-6.3,3.61-8.77.34-.49.34-1.18-.08-1.61l-3.17-3.17c-.42-.42-1.11-.42-1.61-.08-2.47,1.72-7.26,3.18-8.77,3.61-.3.09-.55.29-.69.58l-5.97,12.17c-.54,1.1.88,2.11,1.74,1.25l7.43-7.42-.02-.02Z"/><path class="cls-2" d="M39.87,22.09l-5.77-5.77c-.42-.42-1.11-.42-1.54,0l-2.05,2.05c-.42.42-.42,1.11,0,1.54l5.77,5.77c.42.42,1.11.42,1.54,0l2.05-2.05c.42-.42.42-1.11,0-1.54h0Z"/><path class="cls-4" d="M32.55,59.58c-.36-.14-.47-.39-.33-.75l3.26-8.02c.14-.3.35-.45.64-.45h.03c.3,0,.5.16.6.45l3.31,8.02c.15.36.04.61-.31.75-.36.14-.61.04-.75-.31l-.74-1.79h-4.26l-.7,1.79c-.14.36-.39.46-.74.31h0ZM34.44,56.32h3.34l-1.7-4.15s-1.64,4.15-1.64,4.15Z"/><path class="cls-4" d="M42.68,59.63c-.2,0-.34-.05-.44-.14-.09-.1-.14-.24-.14-.44v-8.11c0-.2.05-.35.14-.44.1-.09.24-.14.44-.14s.35.05.44.14.14.24.14.44v8.11c0,.2-.05.34-.14.44-.09.09-.24.14-.44.14Z"/></g></g></svg>