<?xml version="1.0" encoding="UTF-8"?><svg xmlns="http://www.w3.org/2000/svg" viewBox="0 0 64 64"><defs><style>.cls-1{fill:none;}.cls-2,.cls-3{fill:#ff9908;}.cls-4{fill:#fff;}.cls-3{isolation:isolate;opacity:.15;}</style></defs><g id="Layer_2"><rect class="cls-1" width="64" height="64"/></g><g id="Layer_1"><g id="Document"><path class="cls-3" d="M42.52,13.11c-1.46,0-2.85-.58-3.88-1.61-1.03-1.03-1.61-2.42-1.61-3.88V0H12.5C10.6,0,8.78.75,7.44,2.1c-1.35,1.34-2.1,3.16-2.1,5.06v43.18c0,1.9.76,3.72,2.1,5.06,1.34,1.34,3.16,2.09,5.06,2.09h29.44c.94,0,1.87-.18,2.74-.54.87-.36,1.66-.89,2.32-1.55s1.19-1.45,1.55-2.32.55-1.8.55-2.74V13.1h-6.59.01Z"/><path class="cls-2" d="M49.11,13.11h-6.59c-1.46,0-2.85-.58-3.88-1.61-1.03-1.03-1.61-2.42-1.61-3.88V0s12.08,13.11,12.08,13.11Z"/><path class="cls-2" d="M54.36,45.5H21.04c-2.36,0-4.28,1.92-4.28,4.28v9.94c0,2.36,1.92,4.28,4.28,4.28h33.33c2.36,0,4.28-1.92,4.28-4.28v-9.94c0-2.36-1.92-4.28-4.28-4.28h-.01Z"/></g><g id="File"><path class="cls-2" d="M27.19,42c-3.45,0-6.75-1.38-9.19-3.81s-3.81-5.74-3.81-9.19,1.38-6.75,3.81-9.19c2.44-2.44,5.74-3.81,9.19-3.81s6.75,1.38,9.19,3.81c2.44,2.44,3.81,5.74,3.81,9.19s-1.38,6.75-3.81,9.19-5.74,3.81-9.19,3.81ZM27.19,18.28c-2.84,0-5.57,1.14-7.58,3.15s-3.14,4.73-3.15,7.58c0,2.85,1.13,5.57,3.14,7.59,2.01,2.01,4.74,3.15,7.58,3.15s5.57-1.14,7.58-3.15c2.01-2.01,3.14-4.74,3.14-7.59s-1.14-5.57-3.15-7.58-4.73-3.14-7.58-3.15h.02Z"/><path class="cls-2" d="M30.92,28.11l-3.02-1.74c-.16-.09-.33-.14-.51-.14s-.36.05-.51.14-.29.22-.38.38c-.09.16-.14.33-.14.51v3.49c0,.18.05.36.14.51.09.16.22.29.38.38s.33.14.51.14.36-.05.51-.14l3.02-1.75c.16-.09.29-.22.38-.38s.14-.33.14-.51-.05-.36-.14-.51-.22-.29-.38-.38h0Z"/><path class="cls-2" d="M24.8,26.09h-1.11c-.41,0-.75.33-.75.75v4.32c0,.41.33.75.75.75h1.11c.41,0,.75-.33.75-.75v-4.32c0-.41-.33-.75-.75-.75Z"/><path class="cls-4" d="M28.45,59.54c-.36-.14-.47-.39-.33-.75l3.22-7.94c.14-.3.35-.45.64-.45h.03c.29,0,.49.16.6.45l3.28,7.94c.14.36.04.61-.31.75-.36.14-.61.04-.75-.31l-.73-1.77h-4.22l-.7,1.77c-.14.35-.38.46-.73.31h0ZM30.33,56.32h3.31l-1.69-4.11s-1.62,4.11-1.62,4.11Z"/><path class="cls-4" d="M40.39,59.6c-.23,0-.42-.15-.56-.45l-3.35-7.93c-.07-.16-.09-.3-.05-.42.03-.13.14-.23.31-.31.37-.19.63-.09.79.28l3.16,7.49h-.39l3.08-7.49c.15-.37.41-.47.79-.28.16.08.26.19.29.31.04.12.03.26-.03.42l-3.37,7.93c-.14.3-.34.45-.61.45h-.06Z"/><path class="cls-4" d="M46.77,59.6c-.19,0-.34-.05-.43-.14s-.14-.24-.14-.43v-8.03c0-.2.05-.34.14-.43s.24-.14.43-.14.34.05.43.14.14.23.14.43v8.03c0,.19-.05.34-.14.43s-.23.14-.43.14Z"/></g></g></svg>