<?xml version="1.0" encoding="UTF-8"?><svg xmlns="http://www.w3.org/2000/svg" viewBox="0 0 64 64"><defs><style>.cls-1{fill:none;}.cls-2,.cls-3{fill:#a140ff;}.cls-4{fill:#fff;}.cls-3{isolation:isolate;opacity:.15;}</style></defs><g id="Layer_2"><rect class="cls-1" width="64" height="64"/></g><g id="Layer_1"><g id="Document"><path class="cls-3" d="M42.52,13.11c-1.46,0-2.85-.58-3.88-1.61-1.03-1.03-1.61-2.42-1.61-3.88V0H12.5C10.6,0,8.78.75,7.44,2.1c-1.35,1.34-2.1,3.16-2.1,5.06v43.18c0,1.9.76,3.72,2.1,5.06,1.34,1.34,3.16,2.09,5.06,2.09h29.44c.94,0,1.87-.18,2.74-.54.87-.36,1.66-.89,2.32-1.55s1.19-1.45,1.55-2.32.55-1.8.55-2.74V13.1h-6.59.01Z"/><path class="cls-2" d="M49.11,13.11h-6.59c-1.46,0-2.85-.58-3.88-1.61-1.03-1.03-1.61-2.42-1.61-3.88V0s12.08,13.11,12.08,13.11Z"/><path class="cls-2" d="M54.36,45.5H21.04c-2.36,0-4.28,1.92-4.28,4.28v9.94c0,2.36,1.92,4.28,4.28,4.28h33.33c2.36,0,4.28-1.92,4.28-4.28v-9.94c0-2.36-1.92-4.28-4.28-4.28h-.01Z"/></g><g id="File"><path class="cls-2" d="M34.67,42h-14.95c-1.46,0-2.87-.58-3.9-1.62-1.04-1.04-1.62-2.44-1.62-3.9v-14.96c0-1.46.58-2.87,1.62-3.9,1.04-1.04,2.44-1.62,3.9-1.62h14.96c1.46,0,2.87.58,3.9,1.62,1.03,1.04,1.62,2.44,1.62,3.9v14.96c0,1.46-.58,2.87-1.62,3.9s-2.44,1.62-3.9,1.62h-.01ZM19.72,18.44c-.82,0-1.6.33-2.18.9s-.9,1.36-.9,2.18v14.96c0,.82.33,1.6.9,2.18s1.36.9,2.18.9h14.96c.82,0,1.6-.33,2.18-.9.58-.57.9-1.36.9-2.18v-14.96c0-.82-.33-1.6-.9-2.18-.58-.58-1.36-.9-2.18-.9h-14.96Z"/><path class="cls-2" d="M38.98,33.63v2.84c0,1.14-.45,2.23-1.26,3.04-.81.81-1.9,1.26-3.04,1.26h-14.95c-1.14,0-2.23-.45-3.04-1.26-.81-.81-1.26-1.9-1.26-3.04v-4.77c2.32-.5,5.82-.67,10.06.93.25.09.53.04.72-.14l1.7-1.62c.35-.33.92-.21,1.1.24l.77,1.95c.24.6,1.4.62,2.01.42.24-.08.52-.11.84-.06,1.62.25,4.24,1.12,5.36.38.3-.17.65-.23,1-.17h-.01Z"/><path class="cls-2" d="M33.73,24.58c.92,0,1.66-.74,1.66-1.66s-.74-1.66-1.66-1.66-1.66.74-1.66,1.66.74,1.66,1.66,1.66Z"/><path class="cls-4" d="M24.89,59.6c-.38,0-.57-.19-.57-.57v-8.06c0-.38.19-.57.57-.57h3.54c.72,0,1.27.19,1.65.57.39.38.58.92.58,1.63v.37c0,.61-.19,1.08-.58,1.42.72.4,1.08,1.14,1.08,2.2v.46c0,.83-.22,1.46-.66,1.9-.44.43-1.07.65-1.9.65h-3.72,0ZM25.45,58.46h3.15c.51,0,.87-.11,1.09-.33s.33-.58.33-1.09v-.46c0-.5-.11-.86-.32-1.07-.21-.22-.58-.33-1.11-.33h-3.15v3.27h.01ZM25.45,54.05h3.21c.33,0,.55-.1.67-.31.12-.2.18-.46.18-.78v-.37c0-.39-.08-.67-.24-.82-.16-.16-.45-.24-.85-.24h-2.97v2.51h0Z"/><path class="cls-4" d="M34,59.6c-.38,0-.57-.19-.57-.57v-8.06c0-.38.19-.57.57-.57.25,0,.46.12.62.37l3.2,4.82-.24.04,3.23-4.86c.15-.24.38-.37.69-.37s.46.19.46.57v8.06c0,.38-.19.57-.57.57s-.57-.19-.57-.57v-6.92l.35.12-2.85,4.19c-.17.24-.4.37-.69.37-.2,0-.39-.12-.56-.37l-2.85-4.19.34.09v6.7c0,.38-.19.57-.57.57h.01Z"/><path class="cls-4" d="M45.36,59.6c-.38,0-.57-.19-.57-.57v-8.06c0-.38.19-.57.57-.57h3.17c.83,0,1.46.22,1.9.66.44.44.66,1.07.66,1.9v.41c0,.83-.22,1.46-.66,1.91s-1.07.66-1.9.66h-2.6v3.09c0,.38-.19.57-.57.57h0ZM45.93,54.8h2.6c.52,0,.88-.11,1.1-.33s.33-.58.33-1.1v-.41c0-.51-.11-.88-.33-1.09-.22-.22-.58-.33-1.1-.33h-2.6v3.26Z"/></g></g></svg>