<?xml version="1.0" encoding="UTF-8"?><svg id="a" xmlns="http://www.w3.org/2000/svg" viewBox="0 0 64 64"><g id="b"><rect y="0" width="64" height="64" style="fill:none;"/></g><g id="c"><g id="d"><path d="m31.17,14.58c13.65,0,24.71,11.06,24.71,24.71s-11.06,24.71-24.71,24.71S6.46,52.94,6.46,39.29c0-13.64,11.05-24.7,24.69-24.71,0,0,.01,0,.02,0Z" style="fill:#008bf6; fill-rule:evenodd;"/><path d="m19.88,60.35c.59-.08,1.19,0,1.75.2,9.16,3.74,19.68,1.44,26.46-5.77.5-.47,1.16-.73,1.85-.72-4.53,5.76-11.45,9.12-18.78,9.12-3.94.01-7.81-.96-11.28-2.83Z" style="fill:#57b6ff; fill-rule:evenodd;"/><path d="m31.21,14.58c.75,0,1.5.05,2.25.11-.59.12-1.2.12-1.79,0-.16-.02-.31-.06-.46-.11Zm-14.44,44.79c-4.13-2.96-7.25-7.12-8.93-11.92h.51c.26-.02.52-.02.78,0,.04-.91.4-1.78,1-2.46.32-.25.7-.43,1.09-.53-.8-.77-1.31-1.79-1.42-2.9,0-.39-.05-.79-.06-1.21l-2.53-1.35c-.28-.13-.53-.32-.73-.56.12-3.73,1.09-7.37,2.83-10.67l2.21-.19c.48-1.85,1.09-3.66,1.84-5.41,1.55-1.62,3.32-3.02,5.25-4.17.61-.11,1.2-.18,1.73-.23,2.47-.18,4.95-.16,7.41.08.9.07,1.79.18,2.68.28.11-.3.24-.6.39-.88.61-1.17,3.89-.76,5.44-.48-.07-.61-.21-1.2-.43-1.77.56.1,1.1.23,1.65.36.14.56.23,1.13.26,1.71,1.64.4,4.23,1.19,4.36,2.36v1c.87.23,1.73.48,2.58.75,1.73.51,3.43,1.12,5.09,1.82,6.17,7.05,7.82,16.97,4.28,25.64l-1.15.1c-.16.38-.35.76-.51,1.1-.91,1.86-3.24,2.61-5.14,2.95-2.62.39-5.28.49-7.92.27-3.16-.21-6.3-.63-9.4-1.24-3.11-.6-6.18-1.39-9.19-2.38-1.78-.57-3.53-1.28-5.21-2.1v4.31c.77.49,1.39,1.18,1.8,2,1.48-.12,2.88-.71,4-1.68.61-.5,2.34.24,1.63,2.31-.79,2.83-3.26,4.86-6.19,5.09Z" style="fill:#006cbf; fill-rule:evenodd;"/><path d="m31.17,19.78c10.77,0,19.5,8.74,19.49,19.51,0,10.77-8.74,19.5-19.51,19.49-10.77,0-19.49-8.73-19.49-19.5,0-10.77,8.74-19.5,19.51-19.5Z" style="fill:#fff; fill-rule:evenodd;"/></g><g id="e"><path d="m22.18,48.65c-2.26,2.2-5.67,2.72-8.48,1.29l-2.78,5.55c3.97,2.19,11.08,2.51,13.08-4.49.69-2.23-1.2-2.91-1.82-2.35Z" style="fill:#385661; fill-rule:evenodd;"/><path d="m22.72,49.34c-2.29,2.19-5.64,2.86-8.6,1.71l-2,4.05c1.42.62,2.96.92,4.51.89,3.15.04,5.91-2.13,6.6-5.21.17-.41.12-.88-.11-1.25-.1-.12-.25-.19-.4-.19Z" style="fill:#385661; fill-rule:evenodd;"/><path d="m20.06,51c-1.91.74-4.04.74-5.95,0l-.83,1.68c2.24.96,4.81.7,6.81-.68.52-.42.4-1-.03-1Z" style="fill:#598291; fill-rule:evenodd;"/></g><g id="f"><path d="m37.09,52c1.78,1.43,3.01,3.44,3.48,5.68l4.72-1.29c-1.22-3.54-4.75-7-8.19-7.32v2.93Z" style="fill:#385661; fill-rule:evenodd;"/><path d="m38,51.57c1.53,1.33,2.65,3.06,3.23,5l2.92-.79c-1.15-2.7-3.3-4.85-6-6l-.15,1.79Z" style="fill:#385661; fill-rule:evenodd;"/><path d="m42.75,56.15l1.36-.37c-.88-1.89-2.21-3.53-3.88-4.78-.19.16-.1.55.11.78,1.16,1.23,1.99,2.73,2.41,4.37Z" style="fill:#598291; fill-rule:evenodd;"/></g><path d="m24.09,57.46c0-.4-.07-.81-.1-1.22-.11-.66.19-1.33.76-1.69,1.23-.61,2.54-1.04,3.9-1.27l1-.22h.32l1,.22c1.35.23,2.66.66,3.89,1.27.57.36.87,1.03.76,1.69,0,.47-.06.94-.11,1.41,0,.21,0,.43-.06.65-1.43.33-2.9.49-4.37.49-2.39,0-4.76-.46-6.99-1.33Z" style="fill:#598291; fill-rule:evenodd;"/><path d="m24.91,57.76c-.06-.51-.09-1-.13-1.58-.1-.38.07-.79.4-1,1.49-.67,3.07-1.13,4.69-1.38,1.62.25,3.19.71,4.68,1.38.33.22.48.62.39,1,0,.81-.1,1.51-.2,2.28-1.17.22-2.37.33-3.56.33-2.13,0-4.25-.34-6.27-1.03Z" style="fill:#d3e8ef; fill-rule:evenodd;"/><path d="m26,54.82c1.26-.42,2.54-.75,3.84-1v4.93c-1.21-.08-2.4-.27-3.57-.58-.09-1.12-.18-2.24-.27-3.35Z" style="fill:#fff; fill-rule:evenodd;"/><path d="m21.64,56.32c-.19-1-.35-2.09-.46-3.15-.06-.71-.11-1.42-.16-2.13-.16-1,.29-2.01,1.15-2.55,1.84-.91,3.81-1.54,5.83-1.9l1.58-.34h.49l1.57.34c2.04.36,4.01,1,5.87,1.9.86.53,1.32,1.51,1.17,2.51,0,.71-.09,1.42-.16,2.13-.15,1.51-.39,3-.73,4.48-5.32,1.92-11.21,1.44-16.15-1.33v.04Z" style="fill:#598291; fill-rule:evenodd;"/><path d="m23,57c-.43-1.97-.69-3.98-.78-6-.12-.57.12-1.15.61-1.47,1.36-.86,4.38-1.54,7.06-2.11,2.66.57,5.69,1.25,7.06,2.11.49.32.73.9.6,1.47-.1,2.34-.43,4.66-1,6.93,0,0,0,.1-.07.19-4.48,1.24-9.26.84-13.48-1.12Z" style="fill:#598291; fill-rule:evenodd;"/><path d="m24.65,57.67c-.41-2.2-.65-4.43-.72-6.67-.11-.54.06-1.1.45-1.48,1.05-.85,3.4-1.53,5.48-2.1,2.07.57,4.41,1.25,5.46,2.1.4.38.58.94.46,1.48-.09,2.31-.35,4.6-.78,6.87-.04.21-.13.41-.26.59-1.19.22-2.39.33-3.6.33-2.21,0-4.41-.38-6.49-1.12Z" style="fill:#7eaaba; fill-rule:evenodd;"/><path d="m22.52,54.45c-.16-1.19-.24-2.24-.32-3.49-.12-.57.12-1.15.61-1.47,1.36-.86,4.38-1.54,7.06-2.11,2.66.57,5.69,1.25,7.06,2.11.49.32.73.9.6,1.47-.08,1.25-.16,2.31-.32,3.49-1.23.27-2.47.46-3.72.57-.12.01-.22.11-.25.23-.08.65-.42,1.25-.93,1.66-.7.51-1.56.77-2.43.72-.88.05-1.75-.21-2.46-.72-.51-.41-.84-1.01-.92-1.66-.01-.13-.12-.23-.25-.23-1.25-.11-2.5-.3-3.73-.57Z" style="fill:#d3e8ef; fill-rule:evenodd;"/><path d="m29.86,47.38h0c2.07.57,4.41,1.25,5.46,2.11.42.38.59.96.46,1.51-.07,1.37-.13,2.49-.28,3.81-.64.1-1.31.19-2,.25-.13.01-.23.11-.25.23-.25,1.72-1.73,2.4-3.36,2.4s-3.12-.67-3.39-2.4c-.01-.13-.12-.23-.25-.23-.71-.07-1.39-.15-2-.25-.25-1.36-.25-2.49-.34-3.81-.11-.54.07-1.09.46-1.47,1.08-.9,3.42-1.53,5.49-2.15Z" style="fill:#fff; fill-rule:evenodd;"/><path d="m27.55,51.94h1.2c.15,0,.27.13.27.28v2.36c-.02.24.05.48.2.67.18.15.42.21.65.19.23.02.45-.04.63-.19.14-.19.21-.43.19-.67v-2.36c0-.15.13-.27.28-.28h1.2c.15,0,.27.12.27.27,0,0,0,0,0,.01v2.5c.04.6-.21,1.18-.66,1.57-.56.39-1.23.58-1.91.54-.67.04-1.33-.15-1.87-.54-.46-.39-.7-.97-.66-1.57v-2.5c-.01-.13.08-.25.21-.28Z" style="fill:#0b87e8; fill-rule:evenodd;"/><path d="m27.55,52.08c-.08,0-.14.06-.14.14v2.5c-.05.55.17,1.09.59,1.45.54.37,1.19.56,1.84.52v-1.1c-.27.02-.54-.06-.74-.24-.18-.21-.26-.49-.23-.76v-2.36c0-.08-.06-.14-.14-.14h-1.18Z" style="fill:#57b6ff; fill-rule:evenodd;"/><g id="g"><path d="m30.5,47.19l-.61,2.42c.52.87,2.58,2,3.59,2.41.35.23.81.19,1.12-.1.73-.77,1.34-2.89,1.49-4.73h-5.59Z" style="fill:#3c942c; fill-rule:evenodd;"/><path d="m35.42,47.19c0,.38-.08.75-.13,1.1-.14,1.13-.54,2.22-1.16,3.18-.01.03-.04.05-.07.05-.12-.01-.23-.04-.34-.08-1.14-.47-2.2-1.13-3.13-1.95l.57-2.3h4.26Z" style="fill:#3c942c; fill-rule:evenodd;"/><path d="m35,49.41c-.15.74-.45,1.45-.9,2.06-.01.03-.04.05-.07.05-.12-.01-.23-.04-.34-.08-1.09-.45-2.1-1.06-3-1.81h.45c.5.33,1.06.56,1.64.69-.25-.23-.48-.47-.7-.72,1-.05,1.98-.1,2.92-.19Z" style="fill:#82e371; fill-rule:evenodd;"/><path d="m29.14,47.19l.6,2.42c-.51.87-2.58,2-3.59,2.41-.35.23-.81.19-1.12-.1-.73-.77-1.33-2.89-1.48-4.73h5.59Z" style="fill:#3c942c; fill-rule:evenodd;"/><path d="m24.21,47.19c0,.38.08.75.14,1.1.14,1.13.53,2.22,1.15,3.18.02.02.04.04.07.05.12-.01.23-.04.34-.08,1.15-.47,2.21-1.13,3.14-1.95l-.58-2.3h-4.26Z" style="fill:#3c942c; fill-rule:evenodd;"/><path d="m24.59,49.41c.15.74.45,1.45.9,2.06.02.02.04.04.07.05.12-.01.23-.04.34-.08,1.09-.45,2.1-1.06,3-1.81h-.46c-.5.32-1.06.56-1.64.69.25-.22.48-.46.69-.72-.95-.05-1.93-.1-2.9-.19Z" style="fill:#82e371; fill-rule:evenodd;"/><path d="m31.88,47.19c-.04,1.06-.19,2.11-.46,3.13-.96.69-2.26.69-3.22,0-.27-1.02-.42-2.07-.46-3.13h4.14Z" style="fill:#3c942c; fill-rule:evenodd;"/><path d="m28.29,47.42c.05.89.17,1.77.38,2.63.71.4,1.59.4,2.3,0,.2-.86.33-1.74.37-2.63h-3.05Z" style="fill:#3c942c; fill-rule:evenodd;"/><path d="m28.53,49.41c0,.21.08.42.14.64.71.4,1.59.4,2.3,0,.05-.22.1-.44.14-.67h-1.65l-.93.03Z" style="fill:#82e371; fill-rule:evenodd;"/></g><g id="h"><path d="m8.17,24.29l5.83-.63-2,15.08-5.51-2.68c-.61-.25-1.05-.78-1.19-1.42-.57-3.21-.1-6.52,1.32-9.46.28-.52.59-.78,1.55-.89Z" style="fill:#598291; fill-rule:evenodd;"/><path d="m11.05,36.9l1.54-11.81c-.51,0-4.59.43-4.77.57,0,0-.06.11-.09.15-1.29,2.68-1.72,5.7-1.22,8.63.05.26.24.48.49.56l4.05,1.9Z" style="fill:#d3e8ef; fill-rule:evenodd;"/><path d="m11.05,36.9l.1-.83-4.15-1.7c-.31-.14-.54-1.28-.68-2.54-.03.87.05,1.74.22,2.59.06.24.24.44.48.52l4.03,1.96Zm.64-5l.89-6.83c-.52,0-4.6.43-4.77.57-.03.05-.06.1-.09.15-.62,1.3-1.05,2.68-1.27,4.1l5.24,2.01Z" style="fill:#fff; fill-rule:evenodd;"/><path d="m6.9,28l1.61,1.39c.22.19.34.49.31.78-.17,1.67-.37,3.27-.42,5.49-.24-1.88-.33-3.77-.26-5.66.01-.06,0-.12-.05-.16l-1.09-1-.14-.58c0-.09.02-.17.04-.26Z" style="fill:#d3e8ef; fill-rule:evenodd;"/><path d="m6.82,28.26l1.39,1.23c.22.19.34.48.31.77-.17,1.55-.22,3.11-.16,4.67,0,.23,0,.47.05.69l-.71-.34v-.35c-.06-1.59-.01-3.19.16-4.77.01-.06-.02-.13-.07-.16l-1.13-1c.04-.25.09-.5.16-.74Z" style="fill:#7eaaba; fill-rule:evenodd;"/><path d="m33.77,5c4,3.6,4.25,8.19,2.43,13l-1.43-.55c1.59-4.22,1.49-8.16-2-11.33l1-1.12Z" style="fill:#598291; fill-rule:evenodd;"/><path d="m32.5.07c2.55.45,4.25,2.87,3.8,5.42-.45,2.55-2.87,4.25-5.42,3.8-2.55-.45-4.25-2.87-3.8-5.42.45-2.55,2.87-4.25,5.42-3.8,0,0,0,0,0,0Z" style="fill:#3c942c; fill-rule:evenodd;"/><path d="m32.33,1c2.02.37,3.36,2.31,2.99,4.33s-2.31,3.36-4.33,2.99c-2.02-.37-3.36-2.3-2.99-4.32.36-2.02,2.28-3.36,4.3-3.01,0,0,.02,0,.03,0Z" style="fill:#3c942c; fill-rule:evenodd;"/><path d="m35,2.91c1,1.8.35,4.06-1.45,5.06-1.8,1-4.06.35-5.06-1.45-.13-.24-.24-.49-.31-.75.97,1.81,3.23,2.49,5.04,1.51,1-.54,1.7-1.51,1.9-2.63.09-.58.05-1.18-.12-1.74Zm-3.57-1.59c1.3-.06,2.19.75,2,1.8-.35,1.18-1.43,1.99-2.66,2-1.29.07-2.18-.74-2-1.79.35-1.18,1.43-1.99,2.66-2.01Z" style="fill:#82e371; fill-rule:evenodd;"/><path d="m34.58,20.64c-1.28-.23-5.52-1.11-5.67-2.78-.1-2.01.28-4.02,1.09-5.86.68-1.39,5-.73,6.19-.52s5.46,1.08,5.63,2.61c.14,2.02-.21,4.05-1,5.91-.68,1.48-4.97.86-6.24.64Z" style="fill:#006cbf; fill-rule:evenodd;"/><path d="m40.75,14.22c-.44-.78-3.86-1.53-4.74-1.68-.93-.17-1.86-.27-2.8-.32-.76-.06-1.52.03-2.24.27-.73,1.65-1.08,3.45-1,5.26.08.38,1.65,1,2,1.11,1.81.62,5.31,1.26,7.2.87.22-.04.43-.12.63-.23.72-1.66,1.04-3.47.95-5.28Z" style="fill:#006cbf; fill-rule:evenodd;"/><path d="m36,12.54c-.93-.17-1.86-.27-2.8-.32-.76-.06-1.52.03-2.24.27-.73,1.66-1.07,3.45-1,5.26.05.14.4.38.52.46,1.33.67,2.77,1.12,4.25,1.33l1.27-7Z" style="fill:#57b6ff; fill-rule:evenodd;"/><path d="m58.13,33.1l-5.29-2.58-3.3,14.85,6.13-.62c.65-.03,1.25-.37,1.6-.92,1.64-2.83,2.34-6.1,2-9.35-.06-.59-.27-.95-1.14-1.38Z" style="fill:#598291; fill-rule:evenodd;"/><path d="m51.13,44l2.58-11.64c.46.22,4.18,2,4.28,2.16,0,.06,0,.12,0,.18.3,2.96-.32,5.93-1.8,8.51-.13.21-.37.34-.62.33l-4.44.46Z" style="fill:#d3e8ef; fill-rule:evenodd;"/><path d="m51.13,44l.18-.81,4.51-.19c.35,0,.94-1,1.51-2.15-.26.83-.63,1.62-1.1,2.35-.13.21-.37.34-.62.33l-4.48.47Zm1.08-4.92l1.49-6.73c.45.22,4.18,2,4.28,2.16s0,.14,0,.17c.14,1.43.07,2.87-.22,4.28l-5.55.12Z" style="fill:#fff; fill-rule:evenodd;"/><path d="m58.06,37l-2,.77c-.28.1-.48.34-.54.63-.42,1.63-.78,3.19-1.49,5.3.86-1.67,1.59-3.41,2.17-5.2,0-.06.05-.11.1-.13l1.41-.57.32-.5c.02-.1.03-.2.03-.3Z" style="fill:#d3e8ef; fill-rule:evenodd;"/><path d="m58,37.3l-1.67.7c-.28.1-.49.34-.55.63-.38,1.49-.86,2.95-1.45,4.37-.1.22-.19.42-.28.64l.78-.08c0-.1.1-.22.14-.33.6-1.48,1.1-2.99,1.48-4.54.01-.06.05-.11.1-.14l1.45-.55v-.7Z" style="fill:#7eaaba; fill-rule:evenodd;"/><path d="m29.59,48.86c-3.13-.54-6.21-1.29-9.24-2.24-2.55-.76-4.99-1.84-7.28-3.19-1.65-1-3.55-2.61-3.71-4.78-.48-6.33,1.29-16.33,4.06-22,1.07-2.16,4.13-2.8,6.21-3.07,2.47-.26,4.96-.3,7.43-.1,2.88.19,5.75.54,8.59,1.05,2.85.51,5.67,1.17,8.45,2,2.39.67,4.72,1.55,6.95,2.64,1.86,1,4.52,2.6,4.77,5,.67,6.32-1.09,16.32-3.71,22.12-.89,2-3.22,2.81-5.12,3.21-2.64.49-5.32.66-8,.49-3.15-.17-6.29-.55-9.4-1.13Z" style="fill:#598291; fill-rule:evenodd;"/><path d="m29.86,47.38c-6.32-1.11-12.5-3-16-5.22-1.81-1.14-3-2.38-3-3.63-.44-5.87,1.2-15.65,3.92-21.25.59-1.19,2.46-1.91,5.08-2.24,4-.5,9.88-.08,15.62.93s11.37,2.61,15,4.47c2.36,1.21,3.87,2.51,4,3.84.65,6.18-1.17,15.95-3.59,21.3-.52,1.15-2,1.92-4.11,2.37-4.16.88-10.61.55-16.92-.57Z" style="fill:#bdd6de; fill-rule:evenodd;"/><path d="m11.13,30.4c.53-4.53,1.73-8.95,3.56-13.12.59-1.19,2.46-1.91,5.08-2.24,4-.5,9.88-.08,15.62.93s11.37,2.61,15,4.47c2.36,1.21,3.87,2.51,4,3.84.29,4.55-.1,9.12-1.15,13.55-.88.26-1.78.42-2.69.49-.37,0-.76.07-1.16.08,1.07-3.17,1.7-6.48,1.86-9.82,0-.62-.4-.81-1-1-3.06-1.16-6.2-2.1-9.39-2.82-.24-.05-.48.07-.59.28-.63,1.44-1.39,2.82-2.27,4.12-1,1.09-8.93-.3-9.51-1.68-.39-1.54-.65-3.11-.77-4.69-.03-.24-.22-.42-.46-.45-3.24-.43-6.51-.62-9.78-.58-.63,0-1.1,0-1.29.63-.98,3.2-1.52,6.52-1.6,9.87l-1.05-.48c-.85-.37-1.66-.83-2.41-1.38Zm18.73,17c-6.32-1.11-12.5-3-16-5.22-1.81-1.14-3-2.38-3-3.63v-.7c.11.32.27.62.47.89.65,1.07,1.57,1.95,2.67,2.56,3.56,2.19,9.74,4.05,16.06,5.16,6.32,1.11,12.76,1.47,16.86.64,1.27-.18,2.47-.7,3.48-1.49.28-.19.54-.41.76-.67-.11.21-.2.43-.29.64-.51,1.15-2,1.92-4.1,2.37-4.15.88-10.6.55-16.91-.57v.02Z" style="fill:#fff; fill-rule:evenodd;"/><path d="m26.18,14.88c.4,1.02.9,1.99,1.48,2.92,2.23,1.01,4.58,1.7,7,2.06,2.41.5,4.88.67,7.34.48.75-.6,1.67-1.5,2.4-2.22-.49,1.18-1.24,2.22-2.21,3.05-2.56.22-5.14.06-7.66-.46-2.55-.36-5.03-1.1-7.36-2.19-.53-1.15-.86-2.38-.99-3.64Z" style="fill:#bdd6de; fill-rule:evenodd;"/><path d="m26.18,14.88c.22,1.15.62,2.26,1.19,3.29,2.31,1.04,4.75,1.75,7.26,2.12,2.49.51,5.03.68,7.56.49.89-.77,1.64-1.67,2.25-2.68l.82.26c-.6,1-1.95,2.89-2.87,3.25-2.64.22-5.3.06-7.9-.48-2.63-.38-5.19-1.14-7.6-2.25-.72-.66-1.34-2.94-1.58-4,.28-.02.57,0,.87,0Z" style="fill:#7eaaba; fill-rule:evenodd;"/><path d="m32.81,30.65c1.94.35,4.68.46,5.2-.33.9-1.76,1.66-3.59,2.26-5.47.07-.25.32-.41.58-.36,3.49.8,6.91,1.9,10.21,3.29.6.26,1.06.47,1,1.28-.34,5.34-1.52,10.6-3.48,15.58-.29.65-2.12,1.17-2.69,1.3-2.29.46-4.62.62-6.95.49-2.94-.12-5.87-.46-8.77-1-2.9-.5-5.76-1.2-8.56-2.1-2.24-.67-4.38-1.62-6.37-2.83-.48-.32-2-1.43-2.07-2.14-.13-5.35.57-10.69,2.06-15.83.22-.77.72-.82,1.38-.85,3.57-.19,7.16-.05,10.71.4.26.03.46.26.44.52-.09,1.99-.01,3.98.24,5.96.25.92,2.86,1.75,4.81,2.09Z" style="fill:#1e2432; fill-rule:evenodd;"/><path d="m51.3,28.52c-.17,2.86-.6,5.7-1.3,8.48-.43,1.62-1.25,1.51-3,1.73-7.28.9-23.71-2-30.24-5.34-1.58-.81-2.41-1.45-2.24-2.65.36-2.85.93-5.68,1.68-8.45,0-.19.31-.27.48-.28,3.56-.17,7.12-.04,10.66.4.08.02.14.09.14.18-.05.6-.05,1.2-.05,1.8.03,1.41.13,2.81.31,4.21.3,1.33,3.82,2.13,5,2.33,1.18.2,4.8.66,5.53-.48.1-.15.18-.31.25-.47.8-1.64,1.47-3.34,2-5.08.02-.08.1-.14.19-.13,3.47.79,6.87,1.89,10.15,3.28.22.1.45.29.44.47Zm-37.81,9.16v.69c0,.52,1.48,1.6,1.92,1.88,6.4,4.17,22.94,7.1,30.38,5.36.52-.11,2.24-.63,2.46-1.11.09-.2.18-.42.28-.62-.69.35-1.42.61-2.18.77-7.63,1.74-24.53-1.24-31.11-5.48-.65-.41-1.24-.91-1.75-1.49Z" style="fill:#2d3956; fill-rule:evenodd;"/><path d="m20.46,29.72c-.54,1.52-.82,3.13-.83,4.74,0,2.36,4.26,3.14,4.92.87.47-1.54.75-3.14.84-4.75.14-2.36-4.14-3.1-4.93-.86Zm24.27,4.28c-.02,1.61-.31,3.22-.84,4.74-.79,2.24-5.07,1.5-4.92-.87.09-1.61.37-3.2.83-4.74.67-2.28,4.95-1.51,4.93.87Z" style="fill:#82e371; fill-rule:evenodd;"/><path d="m34.69,40.07c-.89,4-7,2.89-6.46-1.13,2.02.92,4.25,1.31,6.46,1.13Z" style="fill:#82e371; fill-rule:evenodd;"/></g><g id="i"><path d="m12.92,47.66c2.98,0,5.4,2.41,5.41,5.39,0,2.98-2.41,5.4-5.39,5.41-2.98,0-5.4-2.41-5.41-5.39,0,0,0-.01,0-.02,0-2.97,2.42-5.38,5.39-5.39Z" style="fill:#598291; fill-rule:evenodd;"/><path d="m12.92,48.56c2.48,0,4.49,2.01,4.49,4.49s-2.01,4.49-4.49,4.49-4.49-2.01-4.49-4.49,2.01-4.49,4.49-4.49h0Z" style="fill:#d3e8ef; fill-rule:evenodd;"/><path d="m12.92,48.56c2.48,0,4.49,2.01,4.49,4.49h0c0,.51-.08,1.02-.25,1.51-.87.32-1.79.48-2.71.47-2.76,0-5.09-1.37-5.84-3.24.56-1.91,2.32-3.23,4.31-3.23Z" style="fill:#fff; fill-rule:evenodd;"/><path d="m9,44c.07-.97.46-1.89,1.12-2.61.7-.49,1.54-.75,2.4-.74,1.32,0,3.25.51,3.28,2.13.07,3.47,0,7,0,10.42.04.63-.11,1.26-.43,1.8-1.6,2.45-6.53,2.58-8.89,1.33-.43-.17-.79-.49-1-.91-.73-2.65-.99-5.4-.76-8.14.1-1,.34-2.65,1.51-3,.64-.17,1.3-.26,1.97-.28h.8Z" style="fill:#598291; fill-rule:evenodd;"/><path d="m9.64,49.42c-.71-1.83-.75-6.7.66-7.81s5.19-.82,5.25,1.17c.07,3.48,0,6.95,0,10.43.08,3.81-6.2,4.36-9,2.9-.36-.14-.65-.41-.83-.75l3.92-5.94Z" style="fill:#598291; fill-rule:evenodd;"/><path d="m10.6,49.51c-.94-1.56-.74-6.5.22-7.25,1.13-.88,3.87-.57,3.9.55.06,2.93,0,6.78,0,10.42.07,3.1-6.12,3.5-8.22,1.9l4.1-5.62Z" style="fill:#d3e8ef; fill-rule:evenodd;"/><path d="m10,45.62c.06-1.48.34-2.84.81-3.22.97-.58,2.15-.67,3.2-.25.06,1.09.05,2.18-.05,3.26-.17.91-2.8.76-3.96.21Z" style="fill:#fff; fill-rule:evenodd;"/><path d="m6.32,44.58c.61-.18,1.24-.27,1.88-.29,1.29-.06,4.74.2,5,1.89.41,2.43.41,4.9,0,7.33-.32,2-5.07,2-5.82,1.12l-.86.51-.79.24c-.36-1.24-.6-2.51-.71-3.8-.13-1.41-.13-2.82,0-4.23.06-.9.27-2.47,1.3-2.77Z" style="fill:#598291; fill-rule:evenodd;"/><path d="m6.54,45.37c2.37-.68,5.72.06,5.88,1,.38,2.32.38,4.68,0,7-.17,1.08-4.22,2.18-5.88,1.76-1.02-3.37-1.08-9.44,0-9.76Z" style="fill:#d3e8ef; fill-rule:evenodd;"/><path d="m6.54,45.37c1.61-.41,3.3-.35,4.87.17.33,2.26.3,4.56-.07,6.81-.14,1-3.13,1.94-5,1.92-.82-3.44-.79-8.6.2-8.9Z" style="fill:#fff; fill-rule:evenodd;"/><path d="m5.36,49.89c2.59-.71,5.33-.71,7.92,0l-.19.74c-2.46-.67-5.06-.67-7.52,0l-.21-.74Z" style="fill:#598291; fill-rule:evenodd;"/></g><g id="j"><path d="m42.44,53.93c2.35,0,4.25,1.91,4.24,4.26,0,2.35-1.91,4.25-4.26,4.24-2.34,0-4.24-1.91-4.24-4.25,0-2.35,1.9-4.25,4.25-4.25,0,0,0,0,.01,0Z" style="fill:#598291; fill-rule:evenodd;"/><path d="m42.44,54.64c1.96,0,3.55,1.58,3.56,3.54s-1.58,3.55-3.54,3.56-3.55-1.58-3.56-3.54c0,0,0-.01,0-.02,0-1.95,1.59-3.53,3.54-3.54Z" style="fill:#d3e8ef; fill-rule:evenodd;"/><path d="m42.44,54.64c1.96,0,3.55,1.58,3.56,3.54h0c0,.24-.02.48-.07.72-.55.34-1.19.52-1.84.52-1.96,0-3.54-1.59-3.54-3.55,0-.24.02-.48.07-.72.55-.33,1.18-.51,1.82-.51Z" style="fill:#fff; fill-rule:evenodd;"/><path d="m36.29,59.91c-.66-.1-1.3-.37-1.43-1-.2-1.25-.27-2.52-.18-3.78,0-.85,1-1.19,1.81-1.36.65-.77,1.53-1.32,2.51-1.55,1.53-.06,3.06.21,4.48.77,1.41.5,1.37,3.18,1.32,4.39,0,1-.22,3.34-1.06,4-1.51,1.28-6.84,1.39-7.21-.46-.1-.33-.18-.67-.24-1.01Z" style="fill:#598291; fill-rule:evenodd;"/><path d="m39.22,54.55c.26,1.42.26,2.88,0,4.3-.21.77-1.38.84-2,.84s-1.91,0-2-.87c-.21-1.22-.28-2.47-.19-3.71.06-.82,1.34-1.08,2-1.18s1.97-.27,2.19.62Z" style="fill:#598291; fill-rule:evenodd;"/><path d="m38.58,54.71c-.14-.52-2.95-.05-3,.42-.08,1.19-.02,2.39.18,3.57.08.44,2.67.47,2.81,0,.23-1.32.24-2.67,0-3.99Z" style="fill:#d3e8ef; fill-rule:evenodd;"/><path d="m43.33,53.26c1.25.42,1.19,3.09,1.14,4.12s-.2,3.21-1,3.84c-.9.57-1.94.86-3,.85-.9,0-3.48,0-3.72-1.17-.42-2.09-.55-4.23-.37-6.36.07-.91,1.81-1.92,2.62-2.07,1.48-.03,2.95.24,4.33.79Z" style="fill:#598291; fill-rule:evenodd;"/><path d="m43.09,53.86c-1.27-.51-2.63-.76-4-.73-.86.2-1.61.73-2.09,1.48-.17,2.07-.05,4.15.36,6.18.16.75,4.47,1,5.71-.06.82-.67,1.21-6.54.02-6.87Z" style="fill:#d3e8ef; fill-rule:evenodd;"/><path d="m43.09,53.86c-1.24-.48-2.55-.74-3.88-.75v7.15c1.44.2,2.92.05,4.29-.44.5-1.82.5-5.69-.41-5.96Zm-5.77.31c-.13.11-.23.26-.29.42-.17,2.07-.05,4.15.36,6.19.16.75,4.47,1,5.71-.06.08-.08.15-.17.2-.27-1.33,1-5.51.75-5.66,0-.4-2.03-.52-4.11-.35-6.17,0-.04.01-.08.03-.11Z" style="fill:#fff; fill-rule:evenodd;"/><path d="m36.6,57.26c.93-.38,1.92-.59,2.93-.62.21,0,.18.7,0,.7-.94.03-1.87.23-2.75.58l-.18-.66Z" style="fill:#598291; fill-rule:evenodd;"/><path d="m43.5,59.82c-.34-.14-.69-.3-1.07-.48-.08-.04-.12-.13-.12-.22.15-1.33.15-2.67,0-4-.01-.09.04-.18.13-.22.38-.18.75-.34,1.11-.47.1.11.14.26.12.41-.34.12-.66.26-1,.39.14,1.26.14,2.53,0,3.79l.9.4c.03.14,0,.28-.07.4Z" style="fill:#7eaaba; fill-rule:evenodd;"/></g></g></svg>