<?xml version="1.0" encoding="UTF-8"?><svg xmlns="http://www.w3.org/2000/svg" viewBox="0 0 64 64"><defs><style>.cls-1{fill:none;}.cls-2,.cls-3{fill:#0072ff;}.cls-4{fill:#fff;}.cls-3{isolation:isolate;opacity:.15;}</style></defs><g id="Layer_2"><rect class="cls-1" width="64" height="64"/></g><g id="Layer_1"><g id="Document"><path class="cls-3" d="M42.52,13.11c-1.46,0-2.85-.58-3.88-1.61-1.03-1.03-1.61-2.42-1.61-3.88V0H12.5C10.6,0,8.78.75,7.44,2.1c-1.35,1.34-2.1,3.16-2.1,5.06v43.18c0,1.9.76,3.72,2.1,5.06,1.34,1.34,3.16,2.09,5.06,2.09h29.44c.94,0,1.87-.18,2.74-.54.87-.36,1.66-.89,2.32-1.55s1.19-1.45,1.55-2.32.55-1.8.55-2.74V13.1h-6.59.01Z"/><path class="cls-2" d="M49.11,13.11h-6.59c-1.46,0-2.85-.58-3.88-1.61-1.03-1.03-1.61-2.42-1.61-3.88V0s12.08,13.11,12.08,13.11Z"/><path class="cls-2" d="M54.36,45.5H21.04c-2.36,0-4.28,1.92-4.28,4.28v9.94c0,2.36,1.92,4.28,4.28,4.28h33.33c2.36,0,4.28-1.92,4.28-4.28v-9.94c0-2.36-1.92-4.28-4.28-4.28h-.01Z"/></g><g id="File"><path class="cls-2" d="M27.19,42c-.43,0-.83-.17-1.14-.47-.3-.3-.47-.71-.47-1.14v-2.47c0-.21.04-.42.12-.61.08-.19.2-.37.35-.52s.33-.27.52-.35c.19-.08.4-.12.61-.12.43,0,.83.17,1.13.47.3.3.47.71.47,1.13v2.47c0,.43-.17.83-.47,1.13s-.71.47-1.13.47h0Z"/><path class="cls-2" d="M27.19,22.09c-.43,0-.83-.17-1.14-.47s-.47-.71-.47-1.14v-2.87c0-.43.17-.83.47-1.14s.71-.47,1.14-.47.83.17,1.13.47.47.71.47,1.13v2.87c0,.43-.17.83-.47,1.13s-.71.47-1.13.47h0v.02Z"/><path class="cls-2" d="M32.89,40.47c-.28,0-.56-.07-.8-.21s-.45-.34-.59-.59l-1.2-2.08c-.21-.37-.27-.81-.16-1.22s.38-.76.75-.97c.18-.11.38-.17.59-.2.21-.03.42,0,.63.04.2.05.39.15.56.28.17.13.31.29.41.47l1.2,2.07c.21.37.27.81.16,1.22s-.38.76-.75.98c-.24.14-.52.22-.8.22h0Z"/><path class="cls-2" d="M22.97,23.29c-.28,0-.56-.07-.8-.21s-.45-.34-.59-.59l-1.47-2.54c-.21-.37-.27-.81-.16-1.22.11-.41.38-.76.75-.97s.81-.27,1.22-.16.76.38.98.75l1.47,2.55c.21.37.27.81.16,1.22s-.38.76-.75.98c-.24.14-.52.21-.8.21h0v-.02Z"/><path class="cls-2" d="M37.05,36.3c-.28,0-.56-.07-.8-.21l-2.08-1.2c-.37-.21-.64-.56-.75-.98-.11-.41-.05-.85.16-1.22.21-.37.56-.64.97-.75s.85-.05,1.22.16l2.08,1.2c.37.21.64.56.75.98.11.41.05.85-.16,1.22-.14.24-.34.45-.59.59-.24.14-.52.22-.8.21h0Z"/><path class="cls-2" d="M19.87,26.38c-.28,0-.56-.08-.8-.22l-2.55-1.47c-.37-.21-.64-.56-.75-.98-.11-.41-.05-.85.16-1.22.11-.18.25-.34.41-.47.17-.13.36-.22.56-.28.2-.05.42-.07.63-.04.21.03.41.1.59.2l2.55,1.47c.37.21.64.56.75.98.11.41.05.85-.16,1.22-.14.24-.34.45-.59.59-.24.14-.52.22-.8.21h0Z"/><path class="cls-2" d="M38.59,30.61h-2.47c-.43,0-.83-.17-1.14-.47-.3-.3-.47-.71-.47-1.14s.17-.83.47-1.13.71-.47,1.13-.47h2.47c.43,0,.83.17,1.13.47s.47.71.47,1.13-.17.83-.47,1.14c-.3.3-.71.47-1.14.47h.02Z"/><path class="cls-2" d="M18.67,30.61h-2.87c-.43,0-.83-.17-1.14-.47-.3-.3-.47-.71-.47-1.14s.17-.83.47-1.13.71-.47,1.13-.47h2.87c.21,0,.42.04.61.12s.37.2.52.35.27.33.35.52.12.4.12.61-.04.42-.12.61-.2.37-.35.52-.33.27-.52.35c-.19.08-.4.12-.61.12h.01Z"/><path class="cls-2" d="M34.81,26.21c-.28,0-.56-.07-.8-.21s-.45-.34-.59-.59c-.21-.37-.27-.81-.16-1.22s.38-.76.75-.97l2.24-1.3c.37-.21.81-.27,1.22-.16.41.11.76.38.98.75.21.37.27.81.16,1.22s-.38.76-.75.98l-2.24,1.3c-.24.14-.52.21-.8.21h-.01Z"/><path class="cls-2" d="M17.33,36.3c-.28,0-.56-.07-.8-.21s-.45-.34-.59-.59c-.21-.37-.27-.81-.16-1.22.11-.41.38-.76.75-.98l2.38-1.37c.37-.21.81-.27,1.22-.16s.76.38.98.75c.21.37.27.81.16,1.22-.11.41-.38.76-.75.97l-2.37,1.37c-.24.14-.52.22-.8.22h-.02Z"/><path class="cls-2" d="M27.39,39.53h-.26c-1.84-.04-3.63-.58-5.19-1.55-1.54-.95-2.8-2.3-3.66-3.89-.8-1.5-1.22-3.18-1.23-4.88v-.26c.04-1.76.54-3.47,1.43-4.98s2.15-2.77,3.66-3.66c1.52-.89,3.24-1.38,5-1.42h.24c1.71,0,3.38.42,4.89,1.23,1.59.86,2.94,2.12,3.89,3.65.97,1.57,1.51,3.36,1.55,5.21v.24c0,1.78-.46,3.54-1.34,5.09-.92,1.63-2.26,2.98-3.89,3.9-1.55.88-3.3,1.34-5.08,1.34h0v-.02ZM27.34,22.09h-.1c-1.22.03-2.41.36-3.47.98-1.04.61-1.91,1.48-2.53,2.52-.61,1.05-.94,2.23-.96,3.44v.16c0,1.17.29,2.33.84,3.36.59,1.1,1.46,2.03,2.53,2.69,1.08.67,2.32,1.04,3.59,1.06h.16c1.23,0,2.44-.32,3.51-.92,1.12-.64,2.05-1.57,2.69-2.69.61-1.07.92-2.28.92-3.5v-.14c-.03-1.28-.4-2.52-1.07-3.61-.66-1.06-1.58-1.93-2.68-2.52-1.05-.56-2.23-.85-3.42-.84h-.01Z"/><path class="cls-2" d="M31.51,23.12c-.28,0-.56-.07-.8-.21-.18-.11-.34-.25-.47-.41-.13-.17-.22-.36-.28-.56-.05-.2-.07-.42-.04-.63s.1-.41.2-.59l1.37-2.38c.11-.18.25-.34.41-.47s.36-.22.56-.28c.2-.05.42-.07.63-.04.21.03.41.1.59.2.18.11.34.25.47.41.13.17.22.36.28.56s.07.42.04.63c-.03.21-.1.41-.2.59l-1.37,2.38c-.14.24-.34.45-.59.59-.24.14-.52.22-.8.21h0Z"/><path class="cls-2" d="M21.5,40.47c-.28,0-.56-.08-.8-.22-.37-.21-.64-.56-.75-.97s-.05-.85.16-1.22l1.3-2.24c.21-.37.56-.64.98-.75.41-.11.85-.05,1.22.16.37.21.64.56.75.98.11.41.05.85-.16,1.22l-1.3,2.24c-.14.24-.34.45-.59.59-.24.14-.52.22-.8.21h-.01Z"/><path class="cls-4" d="M26.94,59.6c-.38,0-.57-.19-.57-.57v-8.05c0-.38.19-.57.57-.57h4.86c.38,0,.57.19.57.57s-.19.57-.57.57h-4.29v2.85h2.7c.38,0,.57.19.57.57s-.19.57-.57.57h-2.7v2.93h4.29c.38,0,.57.19.57.57s-.19.57-.57.57h-4.86Z"/><path class="cls-4" d="M34.3,59.47c-.3-.21-.35-.47-.14-.8l2.48-3.66-2.61-3.69c-.2-.3-.15-.56.15-.8.31-.21.57-.16.79.15l2.43,3.4,2.44-3.4c.23-.3.5-.34.79-.12.31.23.35.49.14.79l-2.67,3.71,2.56,3.6c.21.31.16.58-.15.81-.31.21-.57.16-.79-.15l-2.36-3.32-2.25,3.33c-.21.29-.47.34-.8.14h0Z"/><path class="cls-4" d="M43.59,59.6c-.38,0-.57-.19-.57-.57v-8.05c0-.38.19-.57.57-.57h4.86c.38,0,.57.19.57.57s-.19.57-.57.57h-4.29v2.85h2.7c.38,0,.57.19.57.57s-.19.57-.57.57h-2.7v2.93h4.29c.38,0,.57.19.57.57s-.19.57-.57.57h-4.86Z"/></g></g></svg>