<?xml version="1.0" encoding="UTF-8"?><svg xmlns="http://www.w3.org/2000/svg" viewBox="0 0 64 64"><g id="a"><rect x="0" width="64" height="64" style="fill:none; stroke-width:0px;"/></g><g id="b"><g id="c"><path id="d" d="m64,32C64,14.33,49.67,0,32,0S0,14.33,0,32c0,15.01,10.33,27.6,24.27,31.06v-21.28h-6.6v-9.78h6.6v-4.21c0-10.89,4.93-15.94,15.62-15.94,2.03,0,5.53.4,6.96.8v8.86c-.76-.08-2.07-.12-3.7-.12-5.25,0-7.27,1.99-7.27,7.16v3.46h10.45l-1.8,9.78h-8.66v21.99c15.84-1.91,28.12-15.4,28.12-31.77h.01Z" style="fill:#0866ff; stroke-width:0px;"/><path id="e" d="m44.53,41.78l1.8-9.78h-10.45v-3.46c0-5.17,2.03-7.16,7.27-7.16,1.63,0,2.94.04,3.7.12v-8.86c-1.43-.4-4.93-.8-6.96-.8-10.69,0-15.62,5.05-15.62,15.94v4.21h-6.6v9.78h6.6v21.28c2.48.61,5.06.94,7.73.94,1.31,0,2.61-.08,3.88-.23v-21.99h8.66-.01Z" style="fill:#fff; stroke-width:0px;"/></g></g></svg>