<svg id="Layer_1" data-name="Layer 1" xmlns="http://www.w3.org/2000/svg" viewBox="0 0 64 64"><defs><style>.cls-1{fill:#4285f4;}.cls-2{fill:#34a853;}.cls-3{fill:#fbbc05;}.cls-4{fill:#ea4335;}.cls-5{fill:none;}</style></defs><path class="cls-1" d="M63.32,32.72a36.93,36.93,0,0,0-.51-6H32.68v12H49.93a14.85,14.85,0,0,1-6.4,9.55v8h10.3C59.85,50.67,63.32,42.45,63.32,32.72Z"/><path class="cls-2" d="M32.68,64c8.64,0,15.87-2.88,21.15-7.76l-10.3-8a19.3,19.3,0,0,1-28.8-10.13H4.12v8.24A32,32,0,0,0,32.68,64Z"/><path class="cls-3" d="M14.73,38.11a18.78,18.78,0,0,1-1-6.11,19.33,19.33,0,0,1,1-6.11V17.65H4.12a31.65,31.65,0,0,0,0,28.7Z"/><path class="cls-4" d="M32.68,12.67A17.35,17.35,0,0,1,45,17.47l9.12-9.12A30.58,30.58,0,0,0,32.68,0,32,32,0,0,0,4.12,17.65l10.61,8.24A19.11,19.11,0,0,1,32.68,12.67Z"/><rect class="cls-5" width="64" height="64"/></svg>