<svg version="1.1" xmlns="http://www.w3.org/2000/svg" x="0" y="0" viewBox="0 0 198.9 193.5" xml:space="preserve"><style>.st0,.st1,.st2,.st3,.st5,.st6,.st7,.st8{fill-rule:evenodd;clip-rule:evenodd;fill:#598291}.st1,.st2,.st3,.st5,.st6,.st7,.st8{fill:#3c942c}.st2,.st3,.st5,.st6,.st7,.st8{fill:#82e371}.st3,.st5,.st6,.st7,.st8{fill:#006cbf}.st5,.st6,.st7,.st8{fill:#d3e8ef}.st6,.st7,.st8{fill:#fff}.st7,.st8{fill:#7eaaba}.st8{fill:#bdd6de}</style><g id="Antenna"><path class="st0" d="M114.6 16.6C98 27 94.1 43.3 97.6 61.8l5.4-1.1c-3-16.1-.1-30.2 14.5-39.3l-2.9-4.8z"/><path class="st1" d="M122.2 0a17 17 0 1 0 .1 34 17 17 0 0 0-.1-34z"/><path class="st1" d="M122.2 3.5a13.5 13.5 0 1 0 0 27 13.5 13.5 0 0 0 0-27z"/><path class="st2" d="M111.6 8.6c-1.8 2.3-3 5.3-3 8.4a13.5 13.5 0 0 0 25.6 6.1 13.1 13.1 0 0 1-10.6 5.1 13.4 13.4 0 0 1-12-19.6zm13.6-3.5c-4.5-1-8.3 1.3-8.3 5.2s3.7 7.9 8.3 8.9c4.6 1.1 8.3-1.2 8.3-5.2 0-3.8-3.7-7.8-8.3-8.9z"/><path class="st3" d="M99.4 72.4c-4.8 0-20.5-.5-22-6.4-1.7-6-1.7-15.8.1-21.7 1.7-5.4 17.4-5.8 21.9-5.8s20.2.4 21.9 5.8c1.8 5.9 1.8 15.8.2 21.7-1.5 5.9-17.3 6.4-22.1 6.4z"/><path class="st3" d="M117.5 45.5c-2-2.5-14.8-3-18.1-3a69 69 0 0 0-10.2.6c-1.5.2-6.8 1.2-7.8 2.4a43.8 43.8 0 0 0-.1 19.4c.5 1.3 6.6 2.5 7.9 2.7a63.4 63.4 0 0 0 26.4-1.4c.5-.1 1.9-.8 2.2-1.2a45.8 45.8 0 0 0-.3-19.5z"/><path d="M99.4 42.5a69 69 0 0 0-10.2.6c-1.5.2-6.8 1.2-7.8 2.4a43.8 43.8 0 0 0-.1 19.4c.3.5 1.7 1.2 2.2 1.3a51 51 0 0 0 16.1 2.2V42.5z" fill-rule="evenodd" clip-rule="evenodd" fill="#57b6ff"/></g><g id="Head_4_"><path class="st1" d="m131.8 159-25.1-5.8-6.8 27.1c2.7 4.5 13.5 10.4 18.6 12.5 2.3.9 4.2 1.1 5.8-.6 5-5.1 8.9-23 7.5-33.2z"/><path class="st1" d="M128.7 161.7c.2 3.9-.2 8.1-.8 11.7-.8 4.4-2.9 13.4-6 16.6l-.4.3c-.4.1-1.4-.3-1.8-.4-3.7-1.5-13-6.4-16.3-10.2l5.7-22.4 19.6 4.4z"/><path class="st2" d="M126.6 179.2a26.6 26.6 0 0 1-4.8 10.7l-.4.3c-.4.1-1.4-.3-1.8-.4a63.6 63.6 0 0 1-15.5-9.4l2.4-.1c2.7 1.8 5.5 2.9 8.4 3.6-1.2-.9-2.2-2.2-3.6-3.7 5.1-.1 10.2-.5 15.3-1z"/><path class="st1" d="m67.1 159 25.1-5.8 6.8 27.1c-2.7 4.5-13.5 10.4-18.6 12.5-2.3.9-4.2 1.1-5.8-.6-5-5.1-8.9-23-7.5-33.2z"/><path class="st1" d="M70.2 161.7c-.2 3.9.2 8.1.8 11.7.8 4.4 2.9 13.4 6 16.6l.4.3c.4.1 1.4-.3 1.8-.4 3.7-1.5 13-6.4 16.3-10.2l-5.7-22.4-19.6 4.4z"/><path class="st2" d="M72.3 179.2c1.1 4.1 2.7 8.6 4.8 10.7l.4.3c.4.1 1.4-.3 1.8-.4a63.6 63.6 0 0 0 15.5-9.4l-2.3-.1a25.3 25.3 0 0 1-8.5 3.6c1.2-.9 2.2-2.2 3.6-3.7-5.2-.1-10.3-.5-15.3-1z"/><path class="st1" d="M88.7 166.4h21.4c-.2 6.2-.9 12.1-2.4 17.6-4 3.6-12.7 3.6-16.7 0a82.2 82.2 0 0 1-2.3-17.6z"/><path class="st1" d="M91.5 168.9c.3 4.6.8 9.2 1.9 13.7 3 2 8.9 2 12 0 1.2-4.5 1.7-9.1 1.9-13.7H91.5z"/><path class="st2" d="m92.7 179.2.7 3.4c3 2 8.9 2 12 0l.7-3.5-8.6.1h-4.8z"/><path class="st0" d="m191.7 104-20.6-5.9-2.4 55.3 21.7-6.1a7.2 7.2 0 0 0 5.1-4.2 56 56 0 0 0 1.2-34.8c-.6-2.1-1.6-3.3-5-4.3z"/><path class="st5" d="m173.5 147.5 1.9-43.3c1.8.5 16.3 4.5 16.8 5l.2.6a52 52 0 0 1-1.1 31.7c-.4 1-1.1 1.3-2 1.6l-15.8 4.4z"/><path class="st6" d="m173.5 147.5.1-3 16.1-3.5c1.2-.2 2.7-4.2 4-8.6-.5 3.3-1.3 6.4-2.4 9.1-.4 1-1.1 1.3-2 1.6l-15.8 4.4zm.8-18.3 1.1-25.1c1.8.5 16.3 4.5 16.8 5l.2.6c1.4 4.5 2 10 1.9 15.5l-20 4z"/><path class="st5" d="m194 117.9-6.6 4c-.9.6-1.5 1.5-1.6 2.6-.4 5.9-1.2 11.6-2.4 16.8l-.9 3.5 2.8-.7.5-2.3a115 115 0 0 0 2.4-17.2l.3-.6 5.7-3.4-.2-2.7z"/><path class="st7" d="m194.1 119.2-5.8 3.5c-.9.6-1.5 1.5-1.6 2.6a106.1 106.1 0 0 1-3 19.2l2.7-.7.3-1.3a115 115 0 0 0 2.4-17.2c0-.2.1-.4.3-.5l4.7-2.9c.2-.9.1-1.8 0-2.7z"/><path class="st0" d="m7.1 104 20.6-5.9 2.4 55.3-21.7-6.1a7.2 7.2 0 0 1-5.1-4.2 56 56 0 0 1-1.2-34.8c.7-2.1 1.7-3.3 5-4.3z"/><path class="st5" d="m25.4 147.5-1.9-43.3c-1.8.5-16.3 4.5-16.8 5l-.2.6a52 52 0 0 0 1.1 31.7c.4 1 1.1 1.3 2 1.6l15.8 4.4z"/><path class="st6" d="m25.4 147.5-.1-3L9.2 141c-1.2-.2-2.7-4.2-4-8.6.5 3.3 1.3 6.4 2.4 9.1.4 1 1.1 1.3 2 1.6l15.8 4.4zm-.8-18.3-1.1-25.1c-1.8.5-16.3 4.5-16.8 5l-.2.6c-1.4 4.5-2 10-1.9 15.5l20 4z"/><path class="st5" d="m4.9 117.9 6.6 4c.9.6 1.5 1.5 1.6 2.6.4 5.9 1.2 11.6 2.4 16.8l.9 3.5-2.7-.7-.6-2.3a115 115 0 0 1-2.4-17.2l-.3-.6-5.7-3.4.2-2.7z"/><path class="st7" d="m4.8 119.2 5.8 3.5c.9.6 1.5 1.5 1.6 2.6.4 6 1.2 11.6 2.4 16.8l.6 2.5-2.7-.8-.3-1.3a115 115 0 0 1-2.4-17.2c0-.2-.1-.4-.3-.5l-4.7-2.9c-.2-.9-.1-1.8 0-2.7z"/><path class="st0" d="M99.4 178.6c-11.5 0-23.1-.6-34.6-2.2a115 115 0 0 1-28.2-6.8c-6.6-2.7-14.3-7.1-16.3-14.8-5.8-22.4-5.7-59.3.7-81.6 2.4-8.4 13-12.7 20.2-14.9 8.6-2.7 17.8-4.1 26.6-5.1a275.8 275.8 0 0 1 63 0c8.9 1 18.1 2.4 26.6 5.1 7.3 2.2 17.9 6.5 20.3 14.9 6.3 22.2 6.4 59.2.6 81.6-1.9 7.6-9.8 12.1-16.3 14.8-8.8 3.6-18.9 5.5-28.2 6.8a260.4 260.4 0 0 1-34.4 2.2z"/><path class="st8" d="M99.4 173.1c-23.3 0-46.7-2.8-60.8-8.6-7.2-3-12-6.6-13.2-11.1-5.3-20.7-5.6-56.9.6-78.7 1.3-4.6 7.6-8.4 16.8-11.2C57 59.2 78.2 57 99.4 57s42.4 2.2 56.6 6.5c9.2 2.9 15.5 6.6 16.8 11.2 6.3 21.8 6 58 .6 78.7-1.2 4.5-6 8.1-13.2 11.1-14.1 5.8-37.4 8.6-60.8 8.6z"/><path class="st6" d="M21.6 124.1c-.7-17.3.6-36 4.5-49.3 1.3-4.6 7.6-8.4 16.8-11.2C57 59.2 78.2 57 99.4 57s42.4 2.2 56.6 6.5c9.2 2.9 15.5 6.6 16.8 11.2a169 169 0 0 1 4.5 49.3 49.3 49.3 0 0 1-9.4 3.5l-4 1.1c1.8-11.1 2-24.7.5-36.4-.3-2.2-2-2.7-4.2-3a244.4 244.4 0 0 0-35.4-4.1c-.9-.1-1.7.5-1.9 1.3-1.5 4.8-3.5 12.9-5.8 16.3-3 4.6-32.2 4.6-35.1 0-2.2-3.5-4.2-11.6-5.8-16.3a2.2 2.2 0 0 0-2-1.4c-13.8.7-23.7 1.9-35.4 4.1-2.2.4-4 .8-4.2 3-1.5 11.7-1.3 25.3.5 36.4l-4-1.1c-3.9-.9-7-2-9.5-3.3zm77.8 49c-23.3 0-46.7-2.8-60.8-8.6-7.2-3-12-6.6-13.2-11.1l-.6-2.5a26.7 26.7 0 0 0 13.7 10.4c14.2 5.6 37.5 8.4 60.8 8.4s46.7-2.7 60.8-8.4a26.7 26.7 0 0 0 13.7-10.4c-.1.9-.4 1.7-.6 2.5-1.2 4.5-6 8.1-13.2 11.1-13.9 5.8-37.2 8.6-60.6 8.6z"/><path class="st8" d="m67.3 58.8.3.8c1.7 3.6 3.5 6.8 5.3 8.9 7.8 2.4 18.4 3 26.6 3 8.2 0 18.7-.5 26.6-3 1.9-2.1 3.7-5.3 5.3-8.9l.4-.8 3 .4-.8 1.7c-1.2 2.7-4.2 8.8-6.7 10.4-8.1 2.7-19.3 3.2-27.8 3.2s-19.7-.6-27.8-3.2c-2.5-1.6-5.4-7.6-6.7-10.4l-.8-1.7 3.1-.4z"/><path class="st7" d="m65.7 59 .9 1.9c1.7 3.7 3.5 7 5.4 9.1 8.1 2.5 19 3 27.4 3s19.3-.4 27.4-3a41 41 0 0 0 5.5-9.1l.9-1.9 3.1.4-1.3 2.9a30.9 30.9 0 0 1-6.9 10.6c-8.4 2.7-19.9 3.2-28.7 3.2s-20.2-.5-28.7-3.2a30.9 30.9 0 0 1-6.9-10.6l-1.3-2.9 3.2-.4z"/><path d="M99.4 111.2c7.2 0 17.1-1.3 18.4-4.5.5-1.3 3.7-12.6 4.6-21 .1-.9.9-1.7 1.9-1.6 15.3.9 25.9 2.4 38.7 5.3 2.3.5 4.1 1 4.4 3.9 2 19.4 1.1 42.8-2.7 58.1-.6 2.4-6.8 5.5-8.7 6.3-7.6 3.2-16.6 5-24.6 6.1a229.5 229.5 0 0 1-64 0c-8-1.2-17-2.9-24.6-6.1-1.9-.9-8.1-3.9-8.7-6.3a192.3 192.3 0 0 1-2.7-58.1c.3-2.9 2.1-3.4 4.5-3.9 12.7-2.9 23.3-4.5 38.7-5.3.9-.1 1.7.6 1.9 1.6.9 8.4 4.1 19.7 4.6 21 1.3 3.2 11.1 4.5 18.3 4.5z" fill-rule="evenodd" clip-rule="evenodd" fill="#1e2432"/><path d="M163.3 89.5c.6.5.9 1.3 1.1 2.4a182 182 0 0 1 .6 31.4c-.3 1.2-.6 2.4-1.1 3.6-.6 1.7-6.8 3.9-8.6 4.5-25.5 7.8-86.3 7.8-111.7 0-1.9-.6-8.1-2.7-8.6-4.5l-1.1-3.6c-.6-10.4-.4-21.5.6-31.4.1-1.1.6-2.3 1.4-2.4 12.7-2.9 23.3-4.5 38.7-5.3.9-.1 1.7.6 1.9 1.6.9 8.4 4.1 19.7 4.6 21 2.5 5.9 34.3 5.9 36.9 0 .5-1.3 3.7-12.6 4.6-21 .1-.9.9-1.7 1.9-1.6 15.2.8 26.1 2.5 38.8 5.3zm2.7 56.7c-.4 1.9-.7 3.6-1.2 5.3-.6 2.5-6.8 5.5-8.7 6.3-25.9 11.1-87.4 11.1-113.3 0-1.9-.8-8.1-3.8-8.7-6.3l-1.2-5.3.1.4c.6 2.4 7 5.5 8.9 6.3 26.3 11 88.8 11 115.1 0 1.9-.9 8.3-3.9 8.9-6.3l.1-.4z" fill-rule="evenodd" clip-rule="evenodd" fill="#2d3956"/></g><g id="Face"><path class="st2" d="M71.5 122.5c-4.1-5.8-10.7-5.5-15.1-1.4-4 3.8-8-2.1-5.7-5.3 6.2-8.4 22.1-8.8 26.7 2.9 1.4 3.8-4.6 5.6-5.9 3.8zm55.9 0c4.1-5.8 10.7-5.5 15.1-1.4 4 3.8 8-2.1 5.7-5.3-6.2-8.4-22.1-8.8-26.7 2.9-1.5 3.8 4.7 5.6 5.9 3.8zM111.4 129.8c-.7 23-23.2 23-23.9 0a30 30 0 0 0 23.9 0z"/></g></svg>