<?xml version="1.0" encoding="UTF-8"?><svg xmlns="http://www.w3.org/2000/svg" viewBox="0 0 64 64"><defs><style>.cls-1{fill:none;}.cls-2{isolation:isolate;opacity:.15;}.cls-2,.cls-3{fill:#ff3e4c;}.cls-4{fill:#fff;}</style></defs><g id="Layer_2"><rect class="cls-1" width="64" height="64"/></g><g id="Layer_1"><g id="Document"><path class="cls-2" d="M42.52,13.11c-1.46,0-2.85-.58-3.88-1.61-1.03-1.03-1.61-2.42-1.61-3.88V0H12.5C10.6,0,8.78.75,7.44,2.1c-1.35,1.34-2.1,3.16-2.1,5.06v43.18c0,1.9.76,3.72,2.1,5.06,1.34,1.34,3.16,2.09,5.06,2.09h29.44c.94,0,1.87-.18,2.74-.54.87-.36,1.66-.89,2.32-1.55s1.19-1.45,1.55-2.32.55-1.8.55-2.74V13.1h-6.59.01Z"/><path class="cls-3" d="M49.11,13.11h-6.59c-1.46,0-2.85-.58-3.88-1.61-1.03-1.03-1.61-2.42-1.61-3.88V0s12.08,13.11,12.08,13.11Z"/><path class="cls-3" d="M54.36,45.5H21.04c-2.36,0-4.28,1.92-4.28,4.28v9.94c0,2.36,1.92,4.28,4.28,4.28h33.33c2.36,0,4.28-1.92,4.28-4.28v-9.94c0-2.36-1.92-4.28-4.28-4.28h-.01Z"/></g><g id="File"><path class="cls-3" d="M22.94,41.37c0,.34-.28.62-.62.62-1.44,0-2.58-.42-3.43-1.27s-1.28-1.98-1.28-3.42v-4.6c0-1.25-.35-2.05-1.05-2.41-.53-.27-1.05-.71-1.05-1.3s.52-1.03,1.05-1.3c.7-.36,1.05-1.17,1.05-2.41v-4.6c0-1.44.43-2.58,1.28-3.42s2-1.26,3.43-1.26c.34,0,.62.28.62.62v1.11c0,.23-.19.43-.43.43-1.69,0-2.54.96-2.54,2.87v4.71c-.02,1.67-.66,2.73-1.92,3.19-.03.01-.05.04-.05.07s.02.06.05.08c1.23.43,1.87,1.46,1.92,3.1v4.79c0,1.91.85,2.87,2.54,2.87.23,0,.43.19.43.43v1.12-.02Z"/><path class="cls-3" d="M32.07,42c-.35,0-.63-.28-.63-.63v-1.11c0-.23.19-.43.43-.43,1.69,0,2.54-.96,2.54-2.87v-4.79c.04-1.64.68-2.68,1.92-3.1.03-.01.05-.04.05-.08s-.02-.06-.05-.07c-1.25-.46-1.89-1.53-1.92-3.19v-4.71c0-1.91-.85-2.87-2.54-2.87-.23,0-.43-.19-.43-.43v-1.11c0-.35.28-.63.63-.63,1.44,0,2.58.42,3.43,1.26s1.28,1.98,1.28,3.42v4.6c0,1.25.35,2.05,1.05,2.41.53.27,1.05.71,1.05,1.3s-.52,1.03-1.05,1.3c-.7.36-1.05,1.17-1.05,2.41v4.6c0,1.44-.43,2.58-1.28,3.42s-2,1.26-3.43,1.27h0v.03Z"/><path class="cls-3" d="M26.97,22.84c1.03,0,1.87-.84,1.87-1.87s-.84-1.87-1.87-1.87-1.87.84-1.87,1.87.84,1.87,1.87,1.87Z"/><path class="cls-3" d="M26.97,30.87c1.03,0,1.87-.84,1.87-1.87s-.84-1.87-1.87-1.87-1.87.84-1.87,1.87.84,1.87,1.87,1.87Z"/><path class="cls-3" d="M26.97,38.89c1.03,0,1.87-.84,1.87-1.87s-.84-1.87-1.87-1.87-1.87.84-1.87,1.87.84,1.87,1.87,1.87Z"/><path class="cls-4" d="M23.77,59.59c-.84,0-1.49-.17-1.94-.52-.45-.35-.71-.9-.79-1.65-.02-.19.02-.34.12-.44s.24-.16.43-.16c.35,0,.54.19.58.57.05.41.2.69.44.84.24.14.63.22,1.16.22h1.12c.42,0,.75-.05.98-.14.24-.09.41-.26.5-.49s.14-.56.14-.99v-5.85c0-.38.19-.57.57-.57s.57.19.57.57v5.85c0,.95-.22,1.65-.67,2.1-.45.44-1.14.66-2.09.66,0,0-1.12,0-1.12,0Z"/><path class="cls-4" d="M29.97,59.54c-.36-.14-.47-.39-.32-.74l3.22-7.93c.14-.3.35-.45.64-.45h.03c.29,0,.49.16.6.45l3.28,7.93c.14.36.04.6-.31.74-.36.14-.6.04-.74-.31l-.73-1.77h-4.22l-.7,1.77c-.14.35-.38.46-.73.31h-.02ZM31.85,56.32h3.3l-1.69-4.1-1.62,4.1h.01Z"/><path class="cls-4" d="M41.91,59.59c-.23,0-.42-.15-.56-.45l-3.34-7.92c-.07-.16-.09-.3-.05-.42.03-.13.14-.23.31-.31.37-.19.63-.09.79.28l3.16,7.49h-.39l3.08-7.49c.15-.37.41-.46.79-.28.16.08.26.19.29.31.04.12.03.26-.03.42l-3.37,7.92c-.14.3-.34.45-.61.45h-.07Z"/><path class="cls-4" d="M46.87,59.54c-.36-.14-.47-.39-.32-.74l3.22-7.93c.14-.3.35-.45.64-.45h.03c.29,0,.49.16.6.45l3.28,7.93c.14.36.04.6-.31.74-.36.14-.6.04-.74-.31l-.73-1.77h-4.22l-.7,1.77c-.14.35-.38.46-.73.31h-.02ZM48.75,56.32h3.3l-1.69-4.1-1.62,4.1h0Z"/></g></g></svg>