<?xml version="1.0" encoding="UTF-8"?><svg xmlns="http://www.w3.org/2000/svg" viewBox="0 0 64 64"><defs><style>.cls-1{fill:none;}.cls-2,.cls-3{fill:#0072ff;}.cls-4{fill:#fff;}.cls-3{isolation:isolate;opacity:.15;}</style></defs><g id="Layer_2"><rect class="cls-1" width="64" height="64"/></g><g id="Layer_1"><g id="Document"><path class="cls-3" d="M42.52,13.11c-1.46,0-2.85-.58-3.88-1.61-1.03-1.03-1.61-2.42-1.61-3.88V0H12.5C10.6,0,8.78.75,7.44,2.1c-1.35,1.34-2.1,3.16-2.1,5.06v43.18c0,1.9.76,3.72,2.1,5.06,1.34,1.34,3.16,2.09,5.06,2.09h29.44c.94,0,1.87-.18,2.74-.54.87-.36,1.66-.89,2.32-1.55s1.19-1.45,1.55-2.32.55-1.8.55-2.74V13.1h-6.59.01Z"/><path class="cls-2" d="M49.11,13.11h-6.59c-1.46,0-2.85-.58-3.88-1.61-1.03-1.03-1.61-2.42-1.61-3.88V0s12.08,13.11,12.08,13.11Z"/><path class="cls-2" d="M54.36,45.5H21.04c-2.36,0-4.28,1.92-4.28,4.28v9.94c0,2.36,1.92,4.28,4.28,4.28h33.33c2.36,0,4.28-1.92,4.28-4.28v-9.94c0-2.36-1.92-4.28-4.28-4.28h-.01Z"/></g><g id="File"><path class="cls-2" d="M16.91,34.35v-2.42c0-.94-.41-1.41-1.33-1.57-.23-.04-.46-.1-.66-.2-.49-.24-.74-.65-.73-1.2,0-.55.27-.93.77-1.15.21-.09.44-.15.67-.19.86-.16,1.28-.64,1.28-1.51v-4.6c0-.74.12-1.45.43-2.12.62-1.32,1.7-2.07,3.07-2.44.6-.16,1.2-.22,1.82-.2.65.02,1.26.49,1.43,1.08.24.86-.38,1.75-1.29,1.86-.34.04-.68.04-1.02.11-.78.17-1.2.68-1.21,1.48-.02,1.54,0,3.08-.01,4.62,0,.19,0,.38-.02.56-.14,1.11-.64,1.96-1.73,2.38-.05.02-.1.1-.1.15,0,.06.05.14.11.16,1.07.41,1.56,1.25,1.71,2.33.03.21.03.42.03.64v4.29c0,.18,0,.36.03.54.14.79.68,1.24,1.54,1.31.27.02.54.02.81.07.78.17,1.26.82,1.19,1.61-.06.67-.71,1.27-1.44,1.3-1.42.04-2.74-.27-3.85-1.21-.91-.78-1.4-1.8-1.47-2.99-.05-.89,0-1.79,0-2.69h-.03Z"/><path class="cls-2" d="M37.46,23.64v2.44c0,.92.4,1.38,1.31,1.55.25.05.51.11.73.23.89.46.93,1.72.07,2.23-.23.14-.52.19-.78.27-.18.06-.38.09-.55.17-.47.21-.72.59-.76,1.1-.02.2,0,.4,0,.6v4.27c0,1.03-.24,1.99-.86,2.83-.66.9-1.56,1.42-2.62,1.71-.63.17-1.27.24-1.91.2-.95-.06-1.61-.98-1.36-1.87.16-.57.75-1.03,1.38-1.08.32-.03.65-.04.96-.11.75-.17,1.17-.68,1.18-1.44.02-1.22,0-2.44.01-3.65,0-.53-.03-1.07.03-1.6.11-1.09.66-1.89,1.7-2.32.05-.02.11-.1.12-.16,0-.05-.04-.14-.08-.16-1.26-.52-1.76-1.52-1.76-2.81v-4.45c0-.24,0-.48-.07-.71-.16-.66-.63-.99-1.27-1.1-.28-.05-.58-.05-.87-.08-.78-.08-1.38-.72-1.38-1.46s.6-1.43,1.39-1.47c1.42-.07,2.74.24,3.86,1.17.94.78,1.45,1.81,1.52,3.02.05.89,0,1.79,0,2.69h.03-.01Z"/><path class="cls-2" d="M26.92,36.21c-.06-.02-.11-.03-.16-.04-.72-.14-1.14-.56-1.26-1.28-.16-.94.41-1.83,1.29-2.02,1.21-.25,2.17.57,2.15,1.84-.01.6-.2,1.14-.51,1.64-.45.74-.92,1.46-1.38,2.19-.25.4-.6.54-.98.44-.35-.1-.54-.41-.44-.76.06-.19.15-.37.26-.53.3-.45.61-.88.92-1.32.04-.05.07-.11.11-.17h0Z"/><path class="cls-2" d="M27.19,23.68c.99,0,1.73.75,1.73,1.74s-.75,1.72-1.73,1.72-1.74-.75-1.73-1.74c0-.99.75-1.73,1.74-1.73h-.01Z"/><g id="b"><path class="cls-4" d="M46.68,52.86v5.97c0,.29-.13.49-.38.59s-.53.04-.71-.15c-.1-.11-.15-.23-.15-.38v-7.62c0-.39.25-.67.63-.72.19-.02.35.04.5.14.18.13.32.3.45.49,1.28,1.96,2.56,3.91,3.83,5.87.04.06.07.11.17.07v-5.93c0-.18.03-.35.18-.49.34-.31.93-.17,1.05.25.02.07.02.14.02.21v7.54c0,.31-.12.53-.39.67-.28.14-.56.1-.79-.1-.15-.13-.28-.28-.38-.45-1.16-1.77-2.32-3.54-3.47-5.31-.13-.21-.27-.41-.4-.62-.02-.04-.07-.05-.11-.08l-.03.03h0l-.02.02Z"/><path class="cls-4" d="M36.47,55v-1.31c.02-1.62,1.13-2.93,2.73-3.21.91-.16,1.79-.09,2.61.35,1.04.56,1.6,1.44,1.7,2.61.03.35.02.71.02,1.07v1.8c-.02.89-.32,1.68-.96,2.31-.55.55-1.23.84-2,.94-.68.09-1.35.05-1.99-.21-1.24-.49-1.95-1.41-2.08-2.74-.05-.53,0-1.07,0-1.61h-.03ZM37.73,54.99h0v1.18c0,.13,0,.27.02.4.1.76.48,1.31,1.17,1.65.45.22.93.25,1.42.2.47-.05.9-.21,1.26-.53.48-.42.7-.97.71-1.6v-2.39c0-.15,0-.3-.02-.46-.07-.68-.39-1.21-.98-1.57-.51-.31-1.08-.37-1.66-.31-1.16.12-1.91.96-1.93,2.12v1.29h0v.02Z"/><path class="cls-4" d="M31.66,59.6c-.72,0-1.49-.18-2.19-.65-.35-.23-.62-.53-.86-.88-.13-.19-.21-.4-.2-.64.02-.22.12-.38.33-.47.2-.09.4-.07.57.08.1.09.19.2.27.31.29.4.63.74,1.1.92.42.16.86.18,1.31.15.39-.03.76-.13,1.09-.34.37-.23.61-.56.64-1,.02-.3-.07-.57-.29-.78-.21-.21-.45-.37-.73-.46-.51-.18-1.02-.34-1.54-.51-.47-.16-.94-.31-1.38-.54-.3-.16-.55-.38-.77-.64-.27-.32-.39-.7-.41-1.12-.04-1.04.53-1.9,1.54-2.34.53-.23,1.08-.3,1.65-.28.64.02,1.25.19,1.81.51.38.23.69.53.93.9.13.2.21.42.17.67-.08.49-.66.56-.9.33-.11-.11-.21-.23-.3-.35-.29-.39-.64-.69-1.11-.82-.55-.15-1.1-.15-1.64.04-.43.15-.75.42-.87.88-.1.4,0,.75.31,1.04.29.26.65.41,1.02.53.6.2,1.21.38,1.81.58.39.13.76.3,1.1.55,1.09.8.98,2.12.53,2.87-.36.61-.91.98-1.56,1.22-.43.16-.88.22-1.44.23h.01Z"/><path class="cls-4" d="M26.95,53.88c0,.9.01,1.8,0,2.71,0,.55-.13,1.08-.39,1.58-.4.74-1.03,1.17-1.84,1.34-.31.06-.63.09-.94.1-.38,0-.65-.29-.61-.66.03-.24.24-.44.53-.48.23-.04.46-.05.68-.11.76-.2,1.18-.71,1.3-1.47.03-.22.04-.44.04-.66v-5.04c0-.32.15-.53.43-.61.36-.1.72.08.79.41.02.07.02.15.02.22v2.68h-.01Z"/></g></g></g></svg>