<?xml version="1.0" encoding="UTF-8"?><svg xmlns="http://www.w3.org/2000/svg" viewBox="0 0 64 64"><defs><style>.cls-1{fill:none;}.cls-2,.cls-3{fill:#a140ff;}.cls-4{fill:#fff;}.cls-3{isolation:isolate;opacity:.15;}</style></defs><g id="Layer_2"><rect class="cls-1" width="64" height="64"/></g><g id="Layer_1"><g id="Document"><path class="cls-3" d="M42.52,13.11c-1.46,0-2.85-.58-3.88-1.61-1.03-1.03-1.61-2.42-1.61-3.88V0H12.5C10.6,0,8.78.75,7.44,2.1c-1.35,1.34-2.1,3.16-2.1,5.06v43.18c0,1.9.76,3.72,2.1,5.06,1.34,1.34,3.16,2.09,5.06,2.09h29.44c.94,0,1.87-.18,2.74-.54.87-.36,1.66-.89,2.32-1.55s1.19-1.45,1.55-2.32.55-1.8.55-2.74V13.1h-6.59.01Z"/><path class="cls-2" d="M49.11,13.11h-6.59c-1.46,0-2.85-.58-3.88-1.61-1.03-1.03-1.61-2.42-1.61-3.88V0s12.08,13.11,12.08,13.11Z"/><path class="cls-2" d="M54.36,45.5H21.04c-2.36,0-4.28,1.92-4.28,4.28v9.94c0,2.36,1.92,4.28,4.28,4.28h33.33c2.36,0,4.28-1.92,4.28-4.28v-9.94c0-2.36-1.92-4.28-4.28-4.28h-.01Z"/></g><g id="File"><path class="cls-2" d="M27.19,16c-.79,0-1.57.15-2.29.46-.73.3-1.39.74-1.94,1.3-.56.56-1,1.22-1.3,1.94-.3.73-.46,1.51-.45,2.29,0,1.22.37,2.41,1.07,3.41.52.75,1.21,1.37,2.01,1.82.47.26.82.74.82,1.28v.56c0,.29.12.58.32.78s.32.49.32.78v1.26c0,.22-.12.42-.31.53-.19.11-.31.31-.31.53v.83c0,.22.12.42.31.53.19.11.31.31.31.53v.26c0,.26-.14.5-.36.63-.23.13-.36.37-.36.63v.42c0,.26.14.5.36.63s.36.37.36.63v.63c0,.24-.13.46-.34.58s-.34.34-.34.58v.22c0,.32.15.63.4.83l1.03.82c.23.18.51.28.8.28h.79c.44,0,.85-.22,1.09-.59l.27-.41c.14-.21.21-.46.21-.71v-12.02c0-.51.3-.96.73-1.23.73-.46,1.35-1.08,1.82-1.81.62-.97.95-2.09.95-3.24,0-1.59-.63-3.11-1.76-4.23-1.12-1.12-2.65-1.75-4.24-1.75h0l.03.02ZM27.34,20.86h0c-.4,0-.78-.16-1.07-.44-.28-.28-.44-.67-.44-1.07s.16-.79.45-1.07c.28-.28.67-.44,1.07-.44.2,0,.4.04.58.11.18.08.35.19.49.33s.25.31.33.49.12.38.12.58c0,.4-.16.78-.45,1.06-.28.28-.66.44-1.06.44h-.02Z"/><path class="cls-4" d="M24.28,59.6c-.38,0-.57-.19-.57-.57v-8.06c0-.38.19-.57.57-.57.25,0,.46.12.62.37l3.2,4.82-.24.04,3.23-4.86c.15-.24.38-.37.69-.37s.46.19.46.57v8.06c0,.38-.19.57-.57.57s-.57-.19-.57-.57v-6.92l.35.12-2.85,4.19c-.17.24-.4.37-.69.37-.2,0-.39-.12-.56-.37l-2.85-4.19.34.09v6.7c0,.38-.19.57-.57.57h0Z"/><path class="cls-4" d="M35.64,59.6c-.38,0-.57-.19-.57-.57v-8.06c0-.38.19-.57.57-.57h3.27c1.18,0,2.05.28,2.61.84s.84,1.42.84,2.61v2.31c0,1.18-.28,2.05-.83,2.61-.55.56-1.42.83-2.61.83h-3.28ZM36.2,58.46h2.7c.58,0,1.04-.07,1.37-.21.34-.14.58-.38.72-.72s.22-.8.22-1.38v-2.31c0-.57-.07-1.03-.22-1.36-.14-.34-.38-.58-.72-.73-.33-.14-.79-.22-1.37-.22h-2.7v6.92h0Z"/><path class="cls-4" d="M45.41,59.6c-.38,0-.57-.19-.57-.57v-8.06c0-.38.19-.57.57-.57h3.54c.72,0,1.27.19,1.66.57s.58.92.58,1.63v.37c0,.61-.19,1.08-.58,1.42.72.4,1.08,1.14,1.08,2.21v.46c0,.83-.22,1.47-.66,1.9s-1.07.65-1.9.65h-3.72ZM45.98,58.46h3.15c.51,0,.88-.11,1.09-.33s.33-.58.33-1.09v-.46c0-.5-.11-.86-.32-1.07-.21-.22-.58-.33-1.11-.33h-3.15v3.27h0ZM45.98,54.05h3.22c.33,0,.55-.1.67-.31.12-.2.18-.46.18-.78v-.37c0-.39-.08-.67-.24-.82-.16-.16-.45-.24-.85-.24h-2.97v2.51h0Z"/></g></g></svg>