<?xml version="1.0" encoding="UTF-8"?><svg xmlns="http://www.w3.org/2000/svg" viewBox="0 0 64 64"><defs><style>.cls-1{fill:none;}.cls-2{isolation:isolate;opacity:.15;}.cls-2,.cls-3{fill:#ff3e4c;}.cls-4{fill:#fff;}</style></defs><g id="Layer_2"><rect class="cls-1" width="64" height="64"/></g><g id="Layer_1"><g id="Document"><path class="cls-2" d="M42.52,13.11c-1.46,0-2.85-.58-3.88-1.61-1.03-1.03-1.61-2.42-1.61-3.88V0H12.5C10.6,0,8.78.75,7.44,2.1c-1.35,1.34-2.1,3.16-2.1,5.06v43.18c0,1.9.76,3.72,2.1,5.06,1.34,1.34,3.16,2.09,5.06,2.09h29.44c.94,0,1.87-.18,2.74-.54.87-.36,1.66-.89,2.32-1.55s1.19-1.45,1.55-2.32.55-1.8.55-2.74V13.1h-6.59.01Z"/><path class="cls-3" d="M49.11,13.11h-6.59c-1.46,0-2.85-.58-3.88-1.61-1.03-1.03-1.61-2.42-1.61-3.88V0s12.08,13.11,12.08,13.11Z"/><path class="cls-3" d="M54.36,45.5H21.04c-2.36,0-4.28,1.92-4.28,4.28v9.94c0,2.36,1.92,4.28,4.28,4.28h33.33c2.36,0,4.28-1.92,4.28-4.28v-9.94c0-2.36-1.92-4.28-4.28-4.28h-.01Z"/></g><g id="File"><path class="cls-3" d="M40.19,37.18h-3.74v-15.13c0-.51-.2-.99-.56-1.35-.36-.36-.84-.56-1.35-.56h-9.57c-.25,0-.5.05-.73.15s-.44.24-.62.41c-.18.18-.32.39-.41.62s-.15.48-.15.73v15.13h-3.76v-16.41c0-.58.11-1.15.33-1.68s.54-1.02.95-1.42c.41-.41.89-.73,1.42-.95.53-.22,1.1-.33,1.68-.33h12.14c1.16,0,2.28.46,3.1,1.28s1.28,1.94,1.28,3.1v16.41h0Z"/><path class="cls-3" d="M35.75,41.62c2.45,0,4.44-1.99,4.44-4.44s-1.99-4.44-4.44-4.44-4.44,1.99-4.44,4.44,1.99,4.44,4.44,4.44h0Z"/><path class="cls-3" d="M18.63,41.62c2.45,0,4.44-1.99,4.44-4.44s-1.99-4.44-4.44-4.44-4.44,1.99-4.44,4.44,1.99,4.44,4.44,4.44Z"/><path class="cls-4" d="M25.5,59.6c-.38,0-.57-.19-.57-.57v-8.06c0-.38.19-.57.57-.57.25,0,.46.12.62.37l3.2,4.82-.24.04,3.23-4.86c.15-.24.38-.37.69-.37s.46.19.46.57v8.06c0,.38-.19.57-.57.57s-.57-.19-.57-.57v-6.92l.35.12-2.85,4.19c-.17.24-.4.37-.69.37-.2,0-.39-.12-.56-.37l-2.85-4.19.34.09v6.7c0,.38-.19.57-.57.57h0Z"/><path class="cls-4" d="M36.86,59.6c-.38,0-.57-.19-.57-.57v-8.06c0-.38.19-.57.57-.57h3.18c.83,0,1.46.22,1.9.66.44.44.66,1.07.66,1.9v.41c0,.83-.22,1.46-.66,1.91s-1.07.66-1.9.66h-2.61v3.09c0,.38-.19.57-.57.57h0ZM37.43,54.8h2.61c.52,0,.88-.11,1.1-.33s.33-.58.33-1.1v-.41c0-.51-.11-.88-.33-1.09-.22-.22-.58-.33-1.1-.33h-2.61v3.26Z"/><path class="cls-4" d="M46.28,59.6c-.79,0-1.4-.17-1.84-.5-.43-.33-.69-.85-.78-1.54-.02-.19.02-.34.12-.44s.24-.16.43-.16c.35,0,.54.19.58.57.06.35.21.59.43.73s.57.2,1.05.2h1.55c.58,0,.98-.1,1.19-.31s.32-.61.32-1.18-.11-.96-.32-1.17-.6-.32-1.19-.32h-1.04c-.38,0-.57-.19-.57-.57s.19-.57.57-.57h1.56c.28,0,.48-.13.6-.38.12-.26.18-.61.18-1.04,0-.54-.1-.9-.29-1.09-.19-.19-.55-.28-1.08-.28h-1.32c-.43,0-.74.06-.94.17s-.33.32-.39.63c-.05.37-.25.56-.6.56-.19,0-.33-.05-.43-.15-.1-.1-.14-.25-.11-.45.09-.64.34-1.11.75-1.42.41-.32.99-.47,1.72-.47h1.32c.85,0,1.48.21,1.89.62s.62,1.04.62,1.89-.24,1.43-.71,1.78c.31.2.54.49.69.87.15.38.23.85.23,1.41,0,.9-.21,1.56-.64,1.99s-1.1.64-2,.64h-1.55v-.02Z"/></g></g></svg>