<?xml version="1.0" encoding="UTF-8"?><svg xmlns="http://www.w3.org/2000/svg" viewBox="0 0 64 64"><defs><style>.cls-1{fill:none;}.cls-2,.cls-3{fill:#a140ff;}.cls-4{fill:#fff;}.cls-3{isolation:isolate;opacity:.15;}</style></defs><g id="Layer_2"><rect class="cls-1" width="64" height="64"/></g><g id="Layer_1"><g id="Document"><path class="cls-3" d="M42.52,13.11c-1.46,0-2.85-.58-3.88-1.61-1.03-1.03-1.61-2.42-1.61-3.88V0H12.5C10.6,0,8.78.75,7.44,2.1c-1.35,1.34-2.1,3.16-2.1,5.06v43.18c0,1.9.76,3.72,2.1,5.06,1.34,1.34,3.16,2.09,5.06,2.09h29.44c.94,0,1.87-.18,2.74-.54.87-.36,1.66-.89,2.32-1.55s1.19-1.45,1.55-2.32.55-1.8.55-2.74V13.1h-6.59.01Z"/><path class="cls-2" d="M49.11,13.11h-6.59c-1.46,0-2.85-.58-3.88-1.61-1.03-1.03-1.61-2.42-1.61-3.88V0s12.08,13.11,12.08,13.11Z"/><path class="cls-2" d="M54.36,45.5H21.04c-2.36,0-4.28,1.92-4.28,4.28v9.94c0,2.36,1.92,4.28,4.28,4.28h33.33c2.36,0,4.28-1.92,4.28-4.28v-9.94c0-2.36-1.92-4.28-4.28-4.28h-.01Z"/></g><g id="File"><path class="cls-2" d="M30.03,28.13l-3.34-1.93c-.17-.1-.37-.15-.57-.15s-.4.05-.57.15-.32.24-.42.42c-.1.17-.15.37-.15.57v3.86c0,.2.05.4.15.57s.24.32.42.42c.17.1.37.15.57.15s.4-.05.57-.15l3.34-1.93c.17-.1.32-.24.42-.42s.15-.37.15-.57-.05-.4-.15-.57-.24-.32-.42-.42Z"/><path class="cls-2" d="M40.19,37.34v-16.67c0-.08,0-.16-.02-.24v-.07c0-.06-.03-.11-.05-.16l-.03-.07s-.05-.1-.08-.15l-.03-.06c-.05-.06-.09-.12-.15-.18l-.02-.02s-.1-.09-.15-.13l-.06-.04s-.09-.05-.14-.08l-.07-.03c-.06-.02-.11-.04-.17-.05h-.06c-.08-.02-.16-.03-.24-.02H15.38c-.32.03-.62.18-.84.42s-.34.55-.34.88v16.72c0,.21.06.42.19.59.12.19.28.35.48.47s.42.17.64.17h23.41c.34,0,.66-.14.9-.38s.37-.56.38-.9h-.01ZM16.26,22.52c-.39,0-.7-.31-.7-.7v-1.13c0-.39.31-.7.7-.7h.66c.39,0,.7.31.7.7v1.13c0,.39-.31.7-.7.7h-.66ZM19.73,22.52c-.39,0-.7-.31-.7-.7v-1.13c0-.39.31-.7.7-.7h.66c.39,0,.7.31.7.7v1.13c0,.39-.31.7-.7.7h-.66ZM23.22,22.52c-.39,0-.7-.31-.7-.7v-1.13c0-.39.31-.7.7-.7h.66c.39,0,.7.31.7.7v1.13c0,.39-.31.7-.7.7h-.66ZM26.68,22.52c-.39,0-.7-.31-.7-.7v-1.13c0-.39.31-.7.7-.7h.66c.39,0,.7.31.7.7v1.13c0,.39-.31.7-.7.7h-.66ZM30.15,22.52c-.39,0-.7-.31-.7-.7v-1.13c0-.39.31-.7.7-.7h.66c.39,0,.7.31.7.7v1.13c0,.39-.31.7-.7.7h-.66ZM33.64,22.52c-.39,0-.7-.31-.7-.7v-1.13c0-.39.31-.7.7-.7h.66c.39,0,.7.31.7.7v1.13c0,.39-.31.7-.7.7h-.66ZM37.1,22.52c-.39,0-.7-.31-.7-.7v-1.13c0-.39.31-.7.7-.7h.66c.39,0,.7.31.7.7v1.13c0,.39-.31.7-.7.7h-.66ZM15.79,34.78c-.39,0-.7-.31-.7-.7v-10.19c0-.39.31-.7.7-.7h22.79c.39,0,.7.31.7.7v10.19c0,.39-.31.7-.7.7H15.79ZM16.26,37.99c-.39,0-.7-.31-.7-.7v-1.13c0-.39.31-.7.7-.7h.66c.39,0,.7.31.7.7v1.13c0,.39-.31.7-.7.7h-.66ZM19.73,37.99c-.39,0-.7-.31-.7-.7v-1.13c0-.39.31-.7.7-.7h.66c.39,0,.7.31.7.7v1.13c0,.39-.31.7-.7.7h-.66ZM23.2,37.99c-.39,0-.7-.31-.7-.7v-1.13c0-.39.31-.7.7-.7h.66c.39,0,.7.31.7.7v1.13c0,.39-.31.7-.7.7h-.66ZM26.68,37.99c-.39,0-.7-.31-.7-.7v-1.13c0-.39.31-.7.7-.7h.66c.39,0,.7.31.7.7v1.13c0,.39-.31.7-.7.7h-.66ZM30.15,37.99c-.39,0-.7-.31-.7-.7v-1.13c0-.39.31-.7.7-.7h.66c.39,0,.7.31.7.7v1.13c0,.39-.31.7-.7.7h-.66ZM33.62,37.99c-.39,0-.7-.31-.7-.7v-1.13c0-.39.31-.7.7-.7h.66c.39,0,.7.31.7.7v1.13c0,.39-.31.7-.7.7h-.66ZM37.1,37.99c-.39,0-.7-.31-.7-.7v-1.13c0-.39.31-.7.7-.7h.66c.39,0,.7.31.7.7v1.13c0,.39-.31.7-.7.7h-.66Z"/><path class="cls-4" d="M25.75,59.6c-.38,0-.57-.19-.57-.57v-8.06c0-.38.19-.57.57-.57.25,0,.46.12.62.37l3.2,4.82-.24.04,3.23-4.86c.15-.24.38-.37.69-.37s.46.19.46.57v8.06c0,.38-.19.57-.57.57s-.57-.19-.57-.57v-6.92l.35.12-2.85,4.19c-.17.24-.4.37-.69.37-.2,0-.39-.12-.56-.37l-2.85-4.19.34.09v6.7c0,.38-.19.57-.57.57h0Z"/><path class="cls-4" d="M37.11,59.6c-.38,0-.57-.19-.57-.57v-8.06c0-.38.19-.57.57-.57h3.18c.83,0,1.46.22,1.9.66.44.44.66,1.07.66,1.9v.41c0,.83-.22,1.46-.66,1.91s-1.07.66-1.9.66h-2.61v3.09c0,.38-.19.57-.57.57h0ZM37.68,54.8h2.61c.52,0,.88-.11,1.1-.33s.33-.58.33-1.1v-.41c0-.51-.11-.88-.33-1.09-.22-.22-.58-.33-1.1-.33h-2.61v3.26Z"/><path class="cls-4" d="M48.3,59.6c-.38,0-.57-.19-.57-.57v-7.3l.46-.33-4.02,5.44-.09-.28,5.58-.03c.19,0,.33.05.42.16.1.11.15.24.15.41,0,.38-.19.57-.57.57h-6.12c-.38,0-.57-.19-.57-.57,0-.18.08-.38.23-.6l4.26-5.75c.12-.16.24-.26.36-.29.13-.04.27-.06.44-.06.42,0,.62.19.62.57v8.06c0,.38-.2.57-.58.57h0Z"/></g></g></svg>