<?xml version="1.0" encoding="UTF-8"?><svg xmlns="http://www.w3.org/2000/svg" viewBox="0 0 64 64"><defs><style>.cls-1{fill:none;}.cls-2{fill:#fff;}.cls-3{isolation:isolate;opacity:.15;}.cls-3,.cls-4{fill:#005fad;}</style></defs><g id="Layer_2"><rect class="cls-1" width="64" height="64"/></g><g id="Layer_1"><g id="Document"><path class="cls-3" d="M42.52,13.11c-1.46,0-2.85-.58-3.88-1.61-1.03-1.03-1.61-2.42-1.61-3.88V0H12.5C10.6,0,8.78.75,7.44,2.1c-1.35,1.34-2.1,3.16-2.1,5.06v43.18c0,1.9.76,3.72,2.1,5.06,1.34,1.34,3.16,2.09,5.06,2.09h29.44c.94,0,1.87-.18,2.74-.54.87-.36,1.66-.89,2.32-1.55s1.19-1.45,1.55-2.32.55-1.8.55-2.74V13.1h-6.59.01Z"/><path class="cls-4" d="M49.11,13.11h-6.59c-1.46,0-2.85-.58-3.88-1.61-1.03-1.03-1.61-2.42-1.61-3.88V0s12.08,13.11,12.08,13.11Z"/><path class="cls-4" d="M54.36,45.5H21.04c-2.36,0-4.28,1.92-4.28,4.28v9.94c0,2.36,1.92,4.28,4.28,4.28h33.33c2.36,0,4.28-1.92,4.28-4.28v-9.94c0-2.36-1.92-4.28-4.28-4.28h-.01Z"/></g><g id="File"><path class="cls-4" d="M17.9,16h-3.07c-.35,0-.63.28-.63.63v3.07c0,.35.28.63.63.63h3.07c.35,0,.63-.28.63-.63v-3.07c0-.35-.28-.63-.63-.63Z"/><path class="cls-4" d="M22.23,20.33h-3.07c-.35,0-.63.28-.63.63v3.07c0,.35.28.63.63.63h3.07c.35,0,.63-.28.63-.63v-3.07c0-.35-.28-.63-.63-.63Z"/><path class="cls-4" d="M26.56,16h-3.07c-.35,0-.63.28-.63.63v3.07c0,.35.28.63.63.63h3.07c.35,0,.63-.28.63-.63v-3.07c0-.35-.28-.63-.63-.63Z"/><path class="cls-4" d="M30.89,20.33h-3.07c-.35,0-.63.28-.63.63v3.07c0,.35.28.63.63.63h3.07c.35,0,.63-.28.63-.63v-3.07c0-.35-.28-.63-.63-.63Z"/><path class="cls-4" d="M35.22,16h-3.07c-.35,0-.63.28-.63.63v3.07c0,.35.28.63.63.63h3.07c.35,0,.63-.28.63-.63v-3.07c0-.35-.28-.63-.63-.63Z"/><path class="cls-4" d="M39.55,20.33h-3.07c-.35,0-.63.28-.63.63v3.07c0,.35.28.63.63.63h3.07c.35,0,.63-.28.63-.63v-3.07c0-.35-.28-.63-.63-.63Z"/><path class="cls-4" d="M17.9,24.65h-3.07c-.35,0-.63.28-.63.63v3.07c0,.35.28.63.63.63h3.07c.35,0,.63-.28.63-.63v-3.07c0-.35-.28-.63-.63-.63Z"/><path class="cls-4" d="M22.23,28.98h-3.07c-.35,0-.63.28-.63.63v3.07c0,.35.28.63.63.63h3.07c.35,0,.63-.28.63-.63v-3.07c0-.35-.28-.63-.63-.63Z"/><path class="cls-4" d="M26.56,24.65h-3.07c-.35,0-.63.28-.63.63v3.07c0,.35.28.63.63.63h3.07c.35,0,.63-.28.63-.63v-3.07c0-.35-.28-.63-.63-.63Z"/><path class="cls-4" d="M30.89,28.98h-3.07c-.35,0-.63.28-.63.63v3.07c0,.35.28.63.63.63h3.07c.35,0,.63-.28.63-.63v-3.07c0-.35-.28-.63-.63-.63Z"/><path class="cls-4" d="M35.22,24.65h-3.07c-.35,0-.63.28-.63.63v3.07c0,.35.28.63.63.63h3.07c.35,0,.63-.28.63-.63v-3.07c0-.35-.28-.63-.63-.63Z"/><path class="cls-4" d="M39.55,28.98h-3.07c-.35,0-.63.28-.63.63v3.07c0,.35.28.63.63.63h3.07c.35,0,.63-.28.63-.63v-3.07c0-.35-.28-.63-.63-.63Z"/><path class="cls-4" d="M17.9,33.34h-3.07c-.35,0-.63.28-.63.63v3.07c0,.35.28.63.63.63h3.07c.35,0,.63-.28.63-.63v-3.07c0-.35-.28-.63-.63-.63Z"/><path class="cls-4" d="M22.23,37.67h-3.07c-.35,0-.63.28-.63.63v3.07c0,.35.28.63.63.63h3.07c.35,0,.63-.28.63-.63v-3.07c0-.35-.28-.63-.63-.63Z"/><path class="cls-4" d="M26.56,33.34h-3.07c-.35,0-.63.28-.63.63v3.07c0,.35.28.63.63.63h3.07c.35,0,.63-.28.63-.63v-3.07c0-.35-.28-.63-.63-.63Z"/><path class="cls-4" d="M30.89,37.67h-3.07c-.35,0-.63.28-.63.63v3.07c0,.35.28.63.63.63h3.07c.35,0,.63-.28.63-.63v-3.07c0-.35-.28-.63-.63-.63Z"/><path class="cls-4" d="M35.22,33.34h-3.07c-.35,0-.63.28-.63.63v3.07c0,.35.28.63.63.63h3.07c.35,0,.63-.28.63-.63v-3.07c0-.35-.28-.63-.63-.63Z"/><path class="cls-4" d="M39.55,37.67h-3.07c-.35,0-.63.28-.63.63v3.07c0,.35.28.63.63.63h3.07c.35,0,.63-.28.63-.63v-3.07c0-.35-.28-.63-.63-.63Z"/><path class="cls-2" d="M25.42,59.6c-.38,0-.57-.19-.57-.57v-8.06c0-.38.19-.57.57-.57h3.18c.83,0,1.46.22,1.9.66.44.44.66,1.07.66,1.9v.41c0,.83-.22,1.46-.66,1.91s-1.07.66-1.9.66h-2.61v3.09c0,.38-.19.57-.57.57ZM25.99,54.8h2.61c.52,0,.88-.11,1.1-.33s.33-.58.33-1.1v-.41c0-.51-.11-.88-.33-1.09-.22-.22-.58-.33-1.1-.33h-2.61v3.26Z"/><path class="cls-2" d="M33.74,59.6c-.38,0-.57-.19-.57-.57v-8.06c0-.38.19-.57.57-.57.19,0,.38.11.57.34l5.45,7.03h-.28v-6.8c0-.38.19-.57.57-.57s.57.19.57.57v8.06c0,.38-.19.57-.57.57-.2,0-.39-.11-.57-.34l-5.45-7.03h.28v6.8c0,.38-.19.57-.57.57h0Z"/><path class="cls-2" d="M46.16,59.6c-1.04,0-1.8-.25-2.3-.74-.49-.5-.74-1.26-.74-2.3v-3.12c0-1.04.25-1.81.74-2.31s1.26-.74,2.29-.73h1.64c.85,0,1.5.18,1.95.53s.71.9.78,1.66c.03.19,0,.33-.11.43s-.24.15-.43.15c-.34,0-.54-.19-.6-.57-.05-.42-.19-.7-.43-.84s-.62-.22-1.15-.22h-1.64c-.48,0-.86.05-1.13.16s-.47.31-.58.59-.17.66-.17,1.15v3.12c0,.48.06.86.17,1.14.12.28.31.47.59.59.28.11.66.17,1.14.17h1.63c.42,0,.75-.05.98-.14.24-.09.41-.26.5-.5s.14-.57.14-1v-.64h-1.06c-.38,0-.57-.2-.57-.58s.19-.57.57-.57h1.63c.38,0,.57.2.57.58v1.21c0,.96-.22,1.67-.67,2.11-.45.44-1.15.66-2.1.66h-1.64Z"/></g></g></svg>