<?xml version="1.0" encoding="UTF-8"?><svg xmlns="http://www.w3.org/2000/svg" viewBox="0 0 64 64"><defs><style>.cls-1{fill:none;}.cls-2{isolation:isolate;opacity:.15;}.cls-2,.cls-3{fill:#ff3e4c;}.cls-4{fill:#fff;}</style></defs><g id="Layer_2"><rect class="cls-1" width="64" height="64"/></g><g id="Layer_1"><g id="Document"><path class="cls-2" d="M42.52,13.11c-1.46,0-2.85-.58-3.88-1.61-1.03-1.03-1.61-2.42-1.61-3.88V0H12.5C10.6,0,8.78.75,7.44,2.1c-1.35,1.34-2.1,3.16-2.1,5.06v43.18c0,1.9.76,3.72,2.1,5.06,1.34,1.34,3.16,2.09,5.06,2.09h29.44c.94,0,1.87-.18,2.74-.54.87-.36,1.66-.89,2.32-1.55s1.19-1.45,1.55-2.32.55-1.8.55-2.74V13.1h-6.59.01Z"/><path class="cls-3" d="M49.11,13.11h-6.59c-1.46,0-2.85-.58-3.88-1.61-1.03-1.03-1.61-2.42-1.61-3.88V0s12.08,13.11,12.08,13.11Z"/><path class="cls-3" d="M54.36,45.5H21.04c-2.36,0-4.28,1.92-4.28,4.28v9.94c0,2.36,1.92,4.28,4.28,4.28h33.33c2.36,0,4.28-1.92,4.28-4.28v-9.94c0-2.36-1.92-4.28-4.28-4.28h-.01Z"/></g><g id="File"><path class="cls-3" d="M24,22.84h-9.03c-.21,0-.4-.08-.55-.23s-.23-.34-.23-.55.08-.4.23-.55.34-.23.55-.23h9.02c.21,0,.4.08.55.23s.23.34.23.55-.08.4-.22.54c-.14.14-.34.23-.54.23h-.01Z"/><path class="cls-3" d="M24,27.46h-9.03c-.21,0-.4-.08-.55-.23s-.23-.34-.23-.55.08-.4.23-.55.34-.23.55-.23h9.02c.21,0,.4.08.55.23s.23.34.23.55-.08.4-.22.54c-.14.14-.34.23-.54.23h-.01Z"/><path class="cls-3" d="M24,32.09h-9.03c-.21,0-.4-.08-.55-.23-.15-.15-.23-.34-.23-.55s.08-.4.23-.54c.15-.14.34-.22.55-.22h9.02c.21,0,.4.08.55.23s.23.34.23.55-.08.4-.23.54c-.14.14-.34.23-.54.23h0Z"/><path class="cls-3" d="M24,36.71h-9.03c-.21,0-.4-.08-.55-.23-.15-.15-.23-.34-.23-.55s.08-.4.23-.55.34-.23.55-.23h9.02c.21,0,.4.08.55.23s.23.34.23.55-.08.4-.22.55c-.14.15-.34.23-.54.23h-.01Z"/><path class="cls-3" d="M33.42,29.92c-.34,0-.62-.28-.62-.62v-5.6c0-.36-.3-.64-.65-.59-1.43.22-2.75.91-3.75,1.96-1.15,1.22-1.8,2.83-1.8,4.5,0,.86.17,1.71.5,2.5s.81,1.52,1.42,2.12c.61.61,1.33,1.09,2.12,1.42.79.33,1.65.5,2.5.5,1.68,0,3.29-.64,4.5-1.8,1.06-1,1.74-2.33,1.96-3.76.05-.35-.23-.65-.59-.65h-5.61l.02.02Z"/><path class="cls-3" d="M34.7,22.59c-.35-.05-.65.23-.65.59v4.93c0,.34.28.62.62.62h4.93c.35,0,.64-.3.59-.65-.21-1.37-.85-2.65-1.84-3.64s-2.27-1.63-3.64-1.84h-.01Z"/><path class="cls-4" d="M26.69,59.61c-.38,0-.57-.19-.57-.57v-8.06c0-.38.19-.57.57-.57h3.18c.83,0,1.46.22,1.9.66.44.44.66,1.07.66,1.9v.41c0,.83-.22,1.46-.66,1.91s-1.07.66-1.9.66h-2.61v3.09c0,.38-.19.57-.57.57h0ZM27.26,54.8h2.61c.52,0,.88-.11,1.1-.33s.33-.58.33-1.1v-.41c0-.51-.11-.88-.33-1.09-.22-.22-.58-.33-1.1-.33h-2.61v3.26Z"/><path class="cls-4" d="M35.01,59.61c-.38,0-.57-.19-.57-.57v-8.06c0-.38.19-.57.57-.57h3.18c.83,0,1.46.22,1.9.66.44.44.66,1.07.66,1.9v.41c0,.83-.22,1.46-.66,1.91s-1.07.66-1.9.66h-2.61v3.09c0,.38-.19.57-.57.57h0ZM35.58,54.8h2.61c.52,0,.88-.11,1.1-.33s.33-.58.33-1.1v-.41c0-.51-.11-.88-.33-1.09-.22-.22-.58-.33-1.1-.33h-2.61s0,3.26,0,3.26Z"/><path class="cls-4" d="M45.51,59.61c-.19,0-.33-.05-.43-.14s-.14-.24-.14-.43v-7.48h-2.63c-.19,0-.33-.05-.43-.14s-.14-.24-.14-.43.05-.33.14-.43.24-.14.43-.14h6.4c.19,0,.33.05.43.14s.14.24.14.43-.05.33-.14.43-.24.14-.43.14h-2.63v7.48c0,.18-.05.32-.15.42-.09.1-.24.15-.42.15h0Z"/></g></g></svg>