<?xml version="1.0" encoding="UTF-8"?><svg xmlns="http://www.w3.org/2000/svg" viewBox="0 0 64 64"><defs><style>.cls-1{fill:none;}.cls-2{fill:#fff;}.cls-3{isolation:isolate;opacity:.15;}.cls-3,.cls-4{fill:#005fad;}</style></defs><g id="Layer_2"><rect class="cls-1" width="64" height="64"/></g><g id="Layer_1"><g id="Document"><path class="cls-3" d="M42.52,13.11c-1.46,0-2.85-.58-3.88-1.61-1.03-1.03-1.61-2.42-1.61-3.88V0H12.5C10.6,0,8.78.75,7.44,2.1c-1.35,1.34-2.1,3.16-2.1,5.06v43.18c0,1.9.76,3.72,2.1,5.06,1.34,1.34,3.16,2.09,5.06,2.09h29.44c.94,0,1.87-.18,2.74-.54.87-.36,1.66-.89,2.32-1.55s1.19-1.45,1.55-2.32.55-1.8.55-2.74V13.1h-6.59.01Z"/><path class="cls-4" d="M49.11,13.11h-6.59c-1.46,0-2.85-.58-3.88-1.61-1.03-1.03-1.61-2.42-1.61-3.88V0s12.08,13.11,12.08,13.11Z"/><path class="cls-4" d="M54.36,45.5H21.04c-2.36,0-4.28,1.92-4.28,4.28v9.94c0,2.36,1.92,4.28,4.28,4.28h33.33c2.36,0,4.28-1.92,4.28-4.28v-9.94c0-2.36-1.92-4.28-4.28-4.28h-.01Z"/></g><g id="File"><path class="cls-2" d="M25.99,59.6c-.38,0-.57-.19-.57-.57v-8.06c0-.38.19-.57.57-.57h3.18c.83,0,1.46.22,1.9.66.44.44.66,1.07.66,1.9v.41c0,.83-.22,1.46-.66,1.91s-1.07.66-1.9.66h-2.61v3.09c0,.38-.19.57-.57.57h0ZM26.56,54.8h2.61c.52,0,.88-.11,1.1-.33s.33-.58.33-1.1v-.41c0-.51-.11-.88-.33-1.09-.22-.22-.58-.33-1.1-.33h-2.61v3.26Z"/><path class="cls-2" d="M36.05,59.6c-.77,0-1.38-.16-1.81-.47s-.7-.79-.81-1.44c-.02-.2.02-.35.12-.45s.24-.15.43-.15.33.05.41.14c.09.09.15.23.18.42.07.31.21.53.43.64.23.11.57.17,1.03.17h1.95c.58,0,.98-.1,1.19-.31s.32-.61.32-1.18-.11-.98-.33-1.19c-.22-.22-.61-.33-1.18-.33h-1.68c-.85,0-1.49-.21-1.91-.62-.41-.42-.62-1.06-.62-1.91s.2-1.48.61-1.89,1.04-.62,1.9-.62h1.61c.72,0,1.28.15,1.69.44.41.29.67.74.78,1.35.03.19,0,.34-.11.45-.1.1-.25.15-.45.15-.18,0-.32-.05-.41-.14s-.15-.23-.18-.41c-.07-.27-.21-.45-.41-.54-.2-.1-.51-.15-.92-.15h-1.61c-.54,0-.91.1-1.09.29-.19.19-.28.55-.28,1.08s.09.9.28,1.1.56.3,1.1.3h1.68c.89,0,1.55.22,1.99.65.44.43.66,1.1.66,2.01s-.22,1.56-.65,1.99-1.1.64-1.99.64h-1.95l.03-.02Z"/><path class="cls-2" d="M43.27,59.6c-.38,0-.57-.19-.57-.57v-8.06c0-.38.19-.57.57-.57h3.27c1.18,0,2.05.28,2.61.84s.84,1.42.84,2.61v2.31c0,1.18-.28,2.05-.83,2.61-.55.56-1.42.83-2.61.83,0,0-3.28,0-3.28,0ZM43.84,58.46h2.7c.58,0,1.04-.07,1.37-.21.34-.14.58-.38.72-.72s.22-.8.22-1.38v-2.31c0-.57-.07-1.03-.22-1.36-.14-.34-.38-.58-.72-.73-.33-.14-.79-.22-1.37-.22h-2.7v6.92h0Z"/><path class="cls-4" d="M18.27,34.78c-.23.44-.84.41-.96-.07-.35-1.31-.65-3.57.38-5.93.2-.46.85-.4,1.08.04.11.22.24.42.37.58.21.26.44.03.37-.3-.19-.95-.49-2.76-.08-3.44,0,0,.01-.02.02-.02.14-.2,2.08-2.92,4.38-4.84.37-.3.91-.05,1,.42.03.19.08.37.13.55.13.39.47.23.53-.18.08-.55.27-1.35.7-2.32.04-.09.1-.17.18-.22.71-.5,4.58-3.02,10.69-3.04.46,0,.74.51.49.9-.93,1.47-2.81,4.48-4.01,6.71-.82,1.56-1.72,3.07-2.69,4.54-.11.17-.28.33-.46.42-.38.2-1.11.56-1.87.79-.42.13-.94.55-.52.68.39.12,1.17.65.93.98-1.22,1.7-4.18,5.06-8.79,5.74-.2.03-.38.15-.46.34-.3.68-1.03,2.41-1.27,4.04-.03.18-.13.35-.3.44-.23.12-.57.29-.9.39s-.54-.2-.44-.52c.78-2.5,4.3-12.4,13.39-19.9.11-.09.1-.12-.03-.07-1.06.39-6.25,2.76-11.86,13.29h0Z"/></g></g></svg>