<?xml version="1.0" encoding="UTF-8"?><svg xmlns="http://www.w3.org/2000/svg" viewBox="0 0 64 64"><defs><style>.cls-1{fill:none;}.cls-2{isolation:isolate;opacity:.15;}.cls-2,.cls-3{fill:#ff3e4c;}.cls-4{fill:#fff;}</style></defs><g id="Layer_2"><rect class="cls-1" width="64" height="64"/></g><g id="Layer_1"><g id="Document"><path class="cls-2" d="M42.52,13.11c-1.46,0-2.85-.58-3.88-1.61-1.03-1.03-1.61-2.42-1.61-3.88V0H12.5C10.6,0,8.78.75,7.44,2.1c-1.35,1.34-2.1,3.16-2.1,5.06v43.18c0,1.9.76,3.72,2.1,5.06,1.34,1.34,3.16,2.09,5.06,2.09h29.44c.94,0,1.87-.18,2.74-.54.87-.36,1.66-.89,2.32-1.55s1.19-1.45,1.55-2.32.55-1.8.55-2.74V13.1h-6.59.01Z"/><path class="cls-3" d="M49.11,13.11h-6.59c-1.46,0-2.85-.58-3.88-1.61-1.03-1.03-1.61-2.42-1.61-3.88V0s12.08,13.11,12.08,13.11Z"/><path class="cls-3" d="M54.36,45.5H21.04c-2.36,0-4.28,1.92-4.28,4.28v9.94c0,2.36,1.92,4.28,4.28,4.28h33.33c2.36,0,4.28-1.92,4.28-4.28v-9.94c0-2.36-1.92-4.28-4.28-4.28h-.01Z"/></g><g id="File"><path class="cls-3" d="M25.32,22h-10.25c-.23,0-.46-.09-.62-.26s-.26-.39-.26-.62c0-.12.02-.23.07-.34.04-.11.11-.2.19-.29.08-.08.18-.15.29-.19s.22-.07.34-.07h10.25c.23,0,.45.1.62.26.16.17.25.39.25.62s-.09.45-.26.62c-.16.16-.38.26-.61.26h0Z"/><path class="cls-3" d="M25.32,27.25h-10.25c-.23,0-.46-.09-.62-.26-.16-.16-.26-.39-.26-.62,0-.12.02-.23.07-.34.04-.11.11-.2.19-.29.08-.08.18-.15.29-.19s.22-.07.34-.07h10.25c.23,0,.46.09.62.26.16.17.26.39.26.62s-.09.46-.26.62-.39.26-.62.26h0Z"/><path class="cls-3" d="M25.32,32.51h-10.25c-.12,0-.23-.02-.34-.07-.11-.04-.2-.11-.29-.19-.08-.08-.15-.18-.19-.29s-.07-.22-.07-.34c0-.23.09-.46.26-.62.16-.16.39-.26.62-.26h10.25c.23,0,.46.09.62.26.16.16.26.39.26.62s-.09.46-.26.62c-.16.17-.39.26-.62.26h0Z"/><path class="cls-3" d="M25.32,37.76h-10.25c-.12,0-.23-.02-.34-.07-.11-.04-.2-.11-.29-.19-.08-.08-.15-.18-.19-.29s-.07-.22-.07-.34c0-.23.09-.46.26-.62.16-.16.39-.26.62-.26h10.25c.23,0,.46.09.62.26s.26.39.26.62-.09.46-.26.62-.39.26-.62.26h0Z"/><path class="cls-3" d="M39.32,22h-9.99c-.23,0-.46-.09-.62-.26s-.26-.39-.26-.62c0-.12.02-.23.07-.34.04-.11.11-.2.19-.29.08-.08.18-.15.29-.19s.22-.07.34-.07h9.99c.23,0,.46.09.62.26.17.17.26.39.26.62s-.09.46-.26.62-.39.26-.62.26h-.01Z"/><path class="cls-3" d="M39.32,27.25h-9.99c-.23,0-.46-.09-.62-.26-.16-.16-.26-.39-.26-.62,0-.12.02-.23.07-.34.04-.11.11-.2.19-.29.08-.08.18-.15.29-.19s.22-.07.34-.07h9.99c.23,0,.46.09.62.26.17.17.26.39.26.62s-.09.46-.26.62-.39.26-.62.26h-.01Z"/><path class="cls-3" d="M39.32,32.51h-9.99c-.12,0-.23-.02-.34-.07-.11-.04-.2-.11-.29-.19s-.15-.18-.19-.29-.07-.22-.07-.34c0-.23.09-.46.26-.62.16-.16.39-.26.62-.26h9.99c.23,0,.46.09.62.26s.26.39.26.62-.09.46-.26.62c-.17.17-.39.26-.62.26h.01Z"/><path class="cls-3" d="M39.32,37.76h-9.99c-.12,0-.23-.02-.34-.07-.11-.04-.2-.11-.29-.19s-.15-.18-.19-.29-.07-.22-.07-.34c0-.23.09-.46.26-.62.16-.16.39-.26.62-.26h9.99c.23,0,.46.09.62.26s.26.39.26.62-.09.46-.26.62c-.17.17-.39.26-.62.26h.01Z"/><path class="cls-4" d="M25.47,59.6c-.38,0-.57-.19-.57-.57v-8.06c0-.38.19-.57.57-.57h3.18c.83,0,1.46.22,1.9.66.44.44.66,1.07.66,1.9v.41c0,.83-.22,1.46-.66,1.91s-1.07.66-1.9.66h-2.61v3.09c0,.38-.19.57-.57.57h0ZM26.03,54.8h2.61c.52,0,.88-.11,1.1-.33s.33-.58.33-1.1v-.41c0-.51-.11-.88-.33-1.09-.22-.22-.58-.33-1.1-.33h-2.61v3.26Z"/><path class="cls-4" d="M36.19,59.6c-1.04,0-1.8-.25-2.3-.74-.49-.5-.74-1.26-.74-2.3v-5.59c0-.19.05-.33.14-.43s.24-.14.43-.14.33.05.43.14.14.24.14.43v5.59c0,.48.06.86.17,1.14.12.28.31.47.59.59.28.11.66.17,1.14.17h1.63c.48,0,.86-.06,1.14-.17.28-.12.47-.31.58-.59.12-.28.18-.66.18-1.14v-5.59c0-.19.05-.33.14-.43s.24-.14.43-.14.33.05.43.14.14.24.14.43v5.59c0,1.04-.25,1.8-.74,2.3-.49.49-1.26.74-2.3.74h-1.63Z"/><path class="cls-4" d="M44.18,59.6c-.38,0-.57-.19-.57-.57v-8.06c0-.38.19-.57.57-.57h3.54c.72,0,1.27.19,1.66.57s.58.92.58,1.63v.37c0,.61-.19,1.08-.58,1.42.72.4,1.08,1.14,1.08,2.21v.46c0,.83-.22,1.47-.66,1.9s-1.07.65-1.9.65h-3.72ZM44.75,58.46h3.15c.51,0,.88-.11,1.09-.33.22-.22.33-.58.33-1.09v-.46c0-.5-.11-.86-.32-1.07-.21-.22-.58-.33-1.11-.33h-3.15v3.27h0ZM44.75,54.05h3.22c.33,0,.55-.1.67-.31.12-.2.18-.46.18-.78v-.37c0-.39-.08-.67-.24-.82-.16-.16-.45-.24-.85-.24h-2.97v2.51h0Z"/></g></g></svg>