<?xml version="1.0" encoding="UTF-8"?><svg xmlns="http://www.w3.org/2000/svg" viewBox="0 0 64 64"><defs><style>.cls-1{fill:none;}.cls-2,.cls-3{fill:#a140ff;}.cls-4{fill:#fff;}.cls-3{isolation:isolate;opacity:.15;}</style></defs><g id="Layer_2"><rect class="cls-1" width="64" height="64"/></g><g id="Layer_1"><g id="Document"><path class="cls-3" d="M42.52,13.11c-1.46,0-2.85-.58-3.88-1.61-1.03-1.03-1.61-2.42-1.61-3.88V0H12.5C10.6,0,8.78.75,7.44,2.1c-1.35,1.34-2.1,3.16-2.1,5.06v43.18c0,1.9.76,3.72,2.1,5.06,1.34,1.34,3.16,2.09,5.06,2.09h29.44c.94,0,1.87-.18,2.74-.54.87-.36,1.66-.89,2.32-1.55s1.19-1.45,1.55-2.32.55-1.8.55-2.74V13.1h-6.59.01Z"/><path class="cls-2" d="M49.11,13.11h-6.59c-1.46,0-2.85-.58-3.88-1.61-1.03-1.03-1.61-2.42-1.61-3.88V0s12.08,13.11,12.08,13.11Z"/><path class="cls-2" d="M54.36,45.5H21.04c-2.36,0-4.28,1.92-4.28,4.28v9.94c0,2.36,1.92,4.28,4.28,4.28h33.33c2.36,0,4.28-1.92,4.28-4.28v-9.94c0-2.36-1.92-4.28-4.28-4.28h-.01Z"/></g><g id="File"><path class="cls-2" d="M30.3,38.13h-15.19c-.24,0-.47-.1-.64-.27s-.27-.4-.27-.64.1-.47.27-.64.4-.27.64-.27h15.19c.12,0,.24.02.35.07s.21.11.3.2c.08.08.15.18.2.3.05.11.07.23.07.35,0,.24-.1.47-.27.64s-.4.27-.64.27h-.01Z"/><path class="cls-2" d="M30.3,32.76h-15.19c-.24,0-.47-.1-.64-.27s-.27-.4-.27-.64.1-.47.27-.64.4-.27.64-.27h15.19c.24,0,.47.1.64.27s.27.4.27.64-.1.47-.27.64-.4.27-.64.27Z"/><path class="cls-2" d="M30.3,27.4h-15.19c-.24,0-.47-.1-.64-.27s-.27-.4-.27-.64.1-.47.27-.64.4-.27.64-.27h15.19c.24,0,.47.1.64.27s.27.4.27.64c0,.12-.02.24-.07.35s-.11.21-.2.29c-.08.08-.19.15-.3.2-.11.05-.23.07-.35.07h.01Z"/><path class="cls-2" d="M30.3,22.03h-15.19c-.24,0-.47-.1-.64-.27s-.27-.4-.27-.64.1-.47.27-.64.4-.27.64-.27h15.19c.12,0,.24.02.35.07s.21.11.3.2c.08.08.15.18.2.3.05.11.07.23.07.35s-.02.24-.07.35-.11.21-.2.3c-.08.08-.19.15-.3.2-.11.05-.23.07-.35.07v-.02Z"/><path class="cls-2" d="M37.1,38.54c-.82,0-1.6-.33-2.18-.9-.58-.58-.9-1.36-.9-2.18v-2.6c0-.27.22-.49.49-.49h5.19c.27,0,.49.22.49.49v2.6c0,.82-.33,1.6-.9,2.18s-1.36.9-2.18.9h-.01ZM36.08,33.95c-.27,0-.49.22-.49.49v1.02c0,.4.16.78.44,1.06s.67.44,1.06.44.78-.16,1.06-.44.44-.67.44-1.06v-1.02c0-.27-.22-.49-.49-.49h-2.04.02Z"/><path class="cls-2" d="M34.75,31.82h1.63c.4,0,.73-.33.73-.73v-1.63c0-.4-.33-.73-.73-.73h-1.63c-.4,0-.73.33-.73.73v1.63c0,.4.33.73.73.73Z"/><path class="cls-2" d="M37.84,28.73h1.63c.4,0,.73-.33.73-.73v-1.63c0-.4-.33-.73-.73-.73h-1.63c-.4,0-.73.33-.73.73v1.63c0,.4.33.73.73.73Z"/><path class="cls-2" d="M34.75,25.64h1.63c.4,0,.73-.33.73-.73v-1.63c0-.4-.33-.73-.73-.73h-1.63c-.4,0-.73.33-.73.73v1.63c0,.4.33.73.73.73Z"/><path class="cls-2" d="M37.84,22.55h1.63c.4,0,.73-.33.73-.73v-1.63c0-.4-.33-.73-.73-.73h-1.63c-.4,0-.73.33-.73.73v1.63c0,.4.33.73.73.73Z"/><path class="cls-4" d="M31.8,59.5c-.15.09-.29.12-.42.09s-.25-.13-.34-.27l-2.07-3.45h-1.87v3.05c0,.37-.19.56-.56.56s-.56-.19-.56-.56v-7.95c0-.37.19-.56.56-.56h3.13c.82,0,1.44.22,1.87.66.44.43.66,1.06.66,1.87v.4c0,.71-.17,1.28-.5,1.7-.33.42-.81.68-1.43.78l1.75,2.92c.17.31.1.57-.21.76h-.01ZM27.08,54.74h2.57c.51,0,.87-.11,1.08-.32s.32-.58.32-1.08v-.4c0-.5-.11-.86-.32-1.08s-.58-.33-1.08-.33h-2.57v3.21Z"/><path class="cls-4" d="M33.89,59.42c-.36-.14-.46-.38-.32-.74l3.18-7.84c.13-.29.34-.44.63-.44h.03c.29,0,.49.16.59.44l3.24,7.84c.14.35.04.6-.31.74-.35.14-.6.04-.74-.31l-.72-1.75h-4.17l-.69,1.75c-.14.35-.38.45-.72.31h0ZM35.74,56.23h3.26l-1.67-4.05-1.6,4.05h.01Z"/><path class="cls-4" d="M49.07,59.5c-.15.09-.29.12-.42.09s-.25-.13-.34-.27l-2.07-3.45h-1.87v3.05c0,.37-.19.56-.56.56s-.56-.19-.56-.56v-7.95c0-.37.19-.56.56-.56h3.13c.82,0,1.44.22,1.87.66.44.43.66,1.06.66,1.87v.4c0,.71-.17,1.28-.5,1.7-.33.42-.81.68-1.43.78l1.75,2.92c.17.31.1.57-.21.76h-.01ZM44.35,54.74h2.57c.51,0,.87-.11,1.08-.32s.32-.58.32-1.08v-.4c0-.5-.11-.86-.32-1.08s-.58-.33-1.08-.33h-2.57v3.21Z"/></g></g></svg>