<svg xmlns="http://www.w3.org/2000/svg" viewBox="0 0 504.1 504.1">
  <defs>
    <style>
      .a{fill:none}.c{fill:#393434}.d{fill:#bbe5ed}.e{fill:#a0c0be}.j{fill:#fff}
    </style>
    <clipPath id="a">
      <path d="M140.6 76.6V343a5.3 5.3 0 0 0 .7 2.6l4.3 7.4a5.3 5.3 0 0 0 9.2 0l.3-.4a5.3 5.3 0 0 1 9.2 0l.3.4a5.3 5.3 0 0 0 9.2 0l.2-.2a5.3 5.3 0 0 1 9.2 0l1.4 2.4a4.3 4.3 0 0 0 8-2.2 5.3 5.3 0 0 1 9.2 0 4.3 4.3 0 0 0 8 2.2l1.5-2.6a5.3 5.3 0 0 1 9.3 0l.2.4a5.3 5.3 0 0 0 9.3 0v-.2a5.3 5.3 0 0 1 9.3 0l.2.2a5.3 5.3 0 0 0 9.2 0l.4-.6a5.3 5.3 0 0 1 9.2 0l1.7 2.8a4.3 4.3 0 0 0 8-2.2 5.3 5.3 0 0 1 9.2 0 5.3 5.3 0 0 0 9.3 0 5.8 5.8 0 0 1 10 0 5.3 5.3 0 0 0 9.2 0 5.3 5.3 0 0 1 9.2 0 5.3 5.3 0 0 0 9.3 0 5.8 5.8 0 0 1 10 0 5.3 5.3 0 0 0 9.2 0 5.3 5.3 0 0 1 9.3 0 5.3 5.3 0 0 0 9.2 0l4.3-7.4a5.3 5.3 0 0 0 .7-2.6V76.5A10.4 10.4 0 0 0 356.7 66H151.2a10.6 10.6 0 0 0-10.6 10.6z" class="a"/>
    </clipPath>
  </defs>
  <path d="M503.6.3h-505v505H147c3-3.7 5.8-7.6 8.4-11.5a173 173 0 0 0 26.2-65.4 68.9 68.9 0 0 1 1.8-15.5l.1-2.3a27.1 27.1 0 0 1 7.8-19.4 26.6 26.6 0 0 1 3.5-3 69.3 69.3 0 0 1 56.1-28.7h9.8a69 69 0 0 1 45 16.6 4 4 0 0 1 1.2 1.1 70.2 70.2 0 0 1 9 9.7h23.4a29.8 29.8 0 0 1 29.8 29.8v88.6h134.4" class="a"/>
  <path fill="#666" d="M339.4 394.7h-18.3a69 69 0 0 1 9 30.8 198.6 198.6 0 0 1 0 61.4v18.4h31.3v-88.6a22 22 0 0 0-22-22z"/>
  <path d="M339.4 386.9H316a68.2 68.2 0 0 1 5.2 7.8h18.3a22 22 0 0 1 22 22v88.6h7.9v-88.6a29.8 29.8 0 0 0-29.9-29.8z" class="c"/>
  <path d="M162 498.1a232 232 0 0 1-5 7.2h24.7V459a180 180 0 0 1-19.7 39.1z" class="d"/>
  <path d="M191.4 391.2a27.1 27.1 0 0 0-7.8 19.4v2.3a69 69 0 0 1 11.3-24.7 26.6 26.6 0 0 0-3.5 3zM181.7 459v-30.1-.5a173 173 0 0 1-26.2 65.4c-2.7 4-5.5 7.8-8.4 11.5h9.9a145 145 0 0 0 5-7.1 180 180 0 0 0 19.7-39.2z" class="c"/>
  <path d="M284.5 372l1.6.8zM292.4 376l1.6 1-1.6-1zM303.3 384.4zM287.2 373.3zM289.8 374.6l1.6.9-1.6-1zM294.8 377.6l1.6 1.1-1.6-1.1zM303.8 384.9zM273 368.6l1.5.3zM270 368l1.4.2-1.3-.2zM276 369.2l1.5.4zM281.7 371l1.6.6zM279 370l1.4.5-1.5-.5zM264 367.4h1zM247 367.5l1.2-.1zM244 367.7l1.5-.1zM267 367.6l1.3.2zM281.1 392.5a61.5 61.5 0 0 0-39.8-24.4l1.5-.2a61.5 61.5 0 0 0-53.3 61v76.4H261a84 84 0 0 1-9-38c0-36.7 15.4-60.7 29.1-74.8zM315.7 401.1zM314.3 398.5zM312.9 396zM312.7 395.8zM317.6 405.3v-.1a66.1 66.1 0 0 0 0 .1z" class="d"/>
  <path d="M284.2 435.8a4 4 0 0 1 6.8-3.2l2-2V429a61.2 61.2 0 0 0-7.7-29.9 96.4 96.4 0 0 0-25.6 68.3 75.9 75.9 0 0 0 10.3 38h6.6c11-26.7 9.8-53.8 7.6-69.5zM305.8 387zM307.7 389l1.6 2-1.6-2zM311 393.3l-1.5-2 1.5 2z" class="d"/>
  <path d="M305.6 383l-2.3 1.4.5.5 1.6 1.6.4.4 1.5 1.8c.2 0 .3.2.4.4l1.5 1.8.3.4 1.5 2 .2.3 1.4 2.2.2.3 1.4 2.2.1.2 1.3 2.4v.2l1.3 2.5v.1l.7 1.5a3.9 3.9 0 0 1 7.5-2 159.7 159.7 0 0 1 5 22.4 69 69 0 0 0-9-30.9 68.2 68.2 0 0 0-5.2-7.8 70.2 70.2 0 0 0-9-9.7 4.3 4.3 0 0 1 .5.7 4 4 0 0 1-1.8 5.2zM326.1 505.3h4v-18.4a168.7 168.7 0 0 1-4 18.4zM189.5 428.9a61.5 61.5 0 0 1 53.3-61l1.3-.2 1.4-.1 1.6-.1 1.1-.1H265l2 .2 1.3.2 1.7.2 1.4.3c.4 0 1.1.1 1.6.3l1.5.3 1.5.3 1.5.4 1.4.4 1.5.5 1.3.5 1.5.6 1.3.5 1.5.7 1.2.5 1.5.8 1 .5 1.6.9 1 .5 1.6 1 .8.6 1.7 1 .6.5a56 56 0 0 1 5.2-3 3.8 3.8 0 0 1 3.5 0 69 69 0 0 0-45-16.6H251a69.4 69.4 0 0 0-69.3 69V505.2h7.8z" class="c"/>
  <path d="M294.8 377.6l-.8-.6-1.6-1-1-.5-1.5-1-1-.5-1.6-.8-1.2-.5-1.5-.7-1.3-.4-1.5-.6-1.3-.5-1.5-.5-1.4-.4-1.5-.4-1.5-.3-1.4-.4c-.6 0-1.1-.2-1.7-.3l-1.3-.2-1.8-.2-1.3-.2-2-.1-1-.1-3.2-.1h-12.7l-1.2.1-1.6.2-1.4.1-1.2.2-1.6.2a61.5 61.5 0 0 1 39.9 24.3 97.2 97.2 0 0 1 16-13.3l-.7-.4-1.6-1.1zM316.9 403.6l-1.2-2.5v-.2l-1.4-2.4-.1-.2-1.4-2.2-.1-.3-1.5-2.2-.2-.3-1.5-2-.3-.4-1.5-1.8c0-.2-.2-.3-.3-.4l-1.6-1.8-.4-.4-1.6-1.6-.5-.5a83.7 83.7 0 0 0-18 14.6 61.2 61.2 0 0 1 7.7 29.9v1.8l25.2-23.4-.5-1.8v-.2l-.7-1.6-.1-.1z" class="e"/>
  <path d="M285.3 399a83.7 83.7 0 0 1 18-14.6l2.3-1.3a4 4 0 0 0 1.8-5.2 4.3 4.3 0 0 0-.4-.6 4 4 0 0 0-1.2-1.1 3.8 3.8 0 0 0-3.5-.1 56 56 0 0 0-5.2 3.1 97.2 97.2 0 0 0-16 13.3 104 104 0 0 0-29.1 74.8 84 84 0 0 0 9 38h9a75.9 75.9 0 0 1-10.3-38 96.3 96.3 0 0 1 25.6-68.3z" class="c"/>
  <path d="M318.2 407.3L293 430.7l-2 1.9a4 4 0 0 1 1 2.1 147 147 0 0 1-7 70.6h33c13.6-46 2.9-88.7.2-98z" class="d"/>
  <path d="M330.2 487a198.6 198.6 0 0 0-.1-61.5 159.7 159.7 0 0 0-5-22.3 3.9 3.9 0 0 0-7.5 2V405.5l.6 1.8c2.6 9.3 13.3 52-.2 98h8a168.7 168.7 0 0 0 4.2-18.4zM292 434.7a4 4 0 1 0-7.7 1c2.1 15.8 3.3 43-7.6 69.6h8.3a147 147 0 0 0 7-70.6z" class="c"/>
  <rect width="52.8" height="58.6" x="230.5" y="310.7" fill="#ffc499" rx="3.9" ry="3.9"/>
  <path d="M279.4 314.6v50.8h-45v-50.8h45m0-7.8h-45a7.8 7.8 0 0 0-7.8 7.8v50.8a7.8 7.8 0 0 0 7.8 7.8h45a7.8 7.8 0 0 0 7.8-7.8v-50.8a7.8 7.8 0 0 0-7.8-7.8z" class="c"/>
  <path fill="#dfac63" d="M263.7 360.7a7.7 7.7 0 0 1-6.7-3.9l-1.6-2.7a1.8 1.8 0 0 0-3.2 0l-.3.6a8.8 8.8 0 0 1-15.3 0l-.2-.2a1.9 1.9 0 0 0-3.2 0v.2a8.8 8.8 0 0 1-15.4 0l-.3-.4a1.8 1.8 0 0 0-3.1 0l-1.5 2.6a7.8 7.8 0 0 1-14.5-2.7 1.9 1.9 0 0 0-2.4 0 7.8 7.8 0 0 1-14.5 2.7l-1.3-2.4a1.8 1.8 0 0 0-3.2 0l-.1.2a8.8 8.8 0 0 1-15.3 0l-.3-.4a1.8 1.8 0 0 0-3.2 0l-.2.4a8.8 8.8 0 0 1-7.7 4.4 8.8 8.8 0 0 1-7.6-4.4l-4.3-7.4a8.9 8.9 0 0 1-1.2-4.4V76.6a14 14 0 0 1 14-14h205.6a14 14 0 0 1 13.9 13.9v266.4a8.8 8.8 0 0 1-1.2 4.4l-4.3 7.4a8.8 8.8 0 0 1-15.3 0 1.8 1.8 0 0 0-1.6-1 1.8 1.8 0 0 0-1.6 1 8.8 8.8 0 0 1-15.2.1 2.3 2.3 0 0 0-4 0 8.8 8.8 0 0 1-15.3 0 1.8 1.8 0 0 0-3.2 0 8.8 8.8 0 0 1-15.3 0 2.3 2.3 0 0 0-4 0 8.8 8.8 0 0 1-15.2 0 1.8 1.8 0 0 0-1.6-1 1.9 1.9 0 0 0-1.3.5 7.7 7.7 0 0 1-7.8 6.4z"/>
  <path d="M356.7 66A10.4 10.4 0 0 1 367 76.4v266.4a5.3 5.3 0 0 1-.7 2.7l-4.3 7.4a5.3 5.3 0 0 1-9.3 0 5.3 5.3 0 0 0-9.2 0 5.3 5.3 0 0 1-9.2 0 5.8 5.8 0 0 0-10 0 5.3 5.3 0 0 1-9.3 0 5.3 5.3 0 0 0-9.2 0 5.3 5.3 0 0 1-9.3 0 5.8 5.8 0 0 0-10 0 5.3 5.3 0 0 1-9.2 0 5.3 5.3 0 0 0-9.3 0 4.3 4.3 0 0 1-4.3 4.3 4.2 4.2 0 0 1-3.7-2.2l-1.6-2.7a5.3 5.3 0 0 0-9.3 0l-.3.6a5.3 5.3 0 0 1-9.3 0l-.1-.2a5.3 5.3 0 0 0-9.3 0v.2a5.3 5.3 0 0 1-9.3 0l-.3-.4a5.3 5.3 0 0 0-9.2 0l-1.5 2.5a4.2 4.2 0 0 1-3.7 2.2 4.3 4.3 0 0 1-4.3-4.3 5.3 5.3 0 0 0-9.3 0 4.3 4.3 0 0 1-4.3 4.3 4.1 4.1 0 0 1-3.7-2.2l-1.4-2.3a5.3 5.3 0 0 0-9.2 0l-.1.2a5.3 5.3 0 0 1-9.3 0l-.2-.4a5.3 5.3 0 0 0-9.3 0l-.2.4a5.3 5.3 0 0 1-9.3 0l-4.3-7.4a5.3 5.3 0 0 1-.7-2.7V76.6A10.6 10.6 0 0 1 151.2 66h205.5m0-7H151.2a17.6 17.6 0 0 0-17.6 17.6v266.3a12.4 12.4 0 0 0 1.6 6.1l4.3 7.4a12.3 12.3 0 0 0 20.2 1.8 12.4 12.4 0 0 0 18.7.3h.1a11.3 11.3 0 0 0 18.7 1.4 11.3 11.3 0 0 0 9 4.3 11.1 11.1 0 0 0 9.7-5.6l.2-.3a12.4 12.4 0 0 0 18.8 0 12.4 12.4 0 0 0 18.9-.2l.2.5a11.3 11.3 0 0 0 19.3.5 12.4 12.4 0 0 0 18.3-1.1 12.3 12.3 0 0 0 18.9.5 12.3 12.3 0 0 0 18.8-.5 12.3 12.3 0 0 0 19 .4 12.4 12.4 0 0 0 20-2l4.2-7.3a12.3 12.3 0 0 0 1.6-6.2V76.5A17.4 17.4 0 0 0 356.7 59z" class="c"/>
  <g clip-path="url(#a)">
    <path fill="#c89a59" d="M268 358.6s69.7-29.4 71.8-103.1 0-193 0-193H369V363z"/>
  </g>
  <circle cx="221" cy="240.1" r="21.9" class="j"/>
  <path d="M221 248c10.3 0 10.3-16 0-16s-10.3 16 0 16z" class="c"/>
  <circle cx="294.4" cy="240.1" r="21.9" class="j"/>
  <path d="M294.4 248c10.3 0 10.3-16 0-16s-10.3 16 0 16zM257.3 313.7a21.7 21.7 0 0 1-21.7-21.7 4 4 0 0 1 7.8 0 13.9 13.9 0 0 0 27.8 0 4 4 0 0 1 7.8 0 21.7 21.7 0 0 1-21.7 21.7z" class="c"/>
</svg>
