<?xml version="1.0" encoding="UTF-8"?><svg xmlns="http://www.w3.org/2000/svg" viewBox="0 0 64 64"><defs><style>.cls-1{fill:none;}.cls-2,.cls-3,.cls-4{fill:#ff9908;}.cls-5{fill:#fff;}.cls-3{isolation:isolate;opacity:.15;}.cls-4{fill-rule:evenodd;}</style></defs><g id="Layer_2"><rect class="cls-1" width="64" height="64"/></g><g id="Layer_1"><g id="Document"><path class="cls-3" d="M42.52,13.11c-1.46,0-2.85-.58-3.88-1.61-1.03-1.03-1.61-2.42-1.61-3.88V0H12.5C10.6,0,8.78.75,7.44,2.1c-1.35,1.34-2.1,3.16-2.1,5.06v43.18c0,1.9.76,3.72,2.1,5.06,1.34,1.34,3.16,2.09,5.06,2.09h29.44c.94,0,1.87-.18,2.74-.54.87-.36,1.66-.89,2.32-1.55s1.19-1.45,1.55-2.32.55-1.8.55-2.74V13.1h-6.59.01Z"/><path class="cls-2" d="M49.11,13.11h-6.59c-1.46,0-2.85-.58-3.88-1.61-1.03-1.03-1.61-2.42-1.61-3.88V0s12.08,13.11,12.08,13.11Z"/><path class="cls-2" d="M54.36,45.5H21.04c-2.36,0-4.28,1.92-4.28,4.28v9.94c0,2.36,1.92,4.28,4.28,4.28h33.33c2.36,0,4.28-1.92,4.28-4.28v-9.94c0-2.36-1.92-4.28-4.28-4.28h-.01Z"/></g><g id="File"><path class="cls-2" d="M17.18,42c1.65,0,2.99-1.34,2.99-2.99s-1.34-2.99-2.99-2.99-2.99,1.34-2.99,2.99,1.34,2.99,2.99,2.99Z"/><path class="cls-4" d="M36.28,40.35c.07.91.8,1.65,1.71,1.65h.6c.91,0,1.66-.74,1.6-1.65-.41-6.3-3.09-12.27-7.58-16.76s-10.46-7.18-16.76-7.58c-.91-.06-1.65.69-1.65,1.6v.6c0,.91.74,1.64,1.65,1.71,5.27.4,10.25,2.67,14.01,6.43s6.04,8.74,6.43,14.01h0ZM15.83,28.43c-.9-.11-1.64-.84-1.64-1.75v-.6c0-.91.74-1.66,1.65-1.57,4.05.39,7.87,2.17,10.77,5.07s4.69,6.72,5.07,10.77c.09.91-.66,1.65-1.57,1.65h-.6c-.91,0-1.64-.74-1.75-1.64-.37-3.02-1.74-5.85-3.91-8.02s-5-3.54-8.02-3.91h0Z"/><path class="cls-5" d="M31.32,59.5c-.15.09-.29.12-.42.09s-.25-.13-.34-.27l-2.07-3.45h-1.87v3.05c0,.37-.19.56-.56.56s-.56-.19-.56-.56v-7.95c0-.37.19-.56.56-.56h3.13c.82,0,1.44.22,1.87.66.44.43.66,1.06.66,1.87v.4c0,.71-.17,1.28-.5,1.7-.33.42-.81.68-1.43.78l1.75,2.92c.17.31.1.57-.21.76h-.01ZM26.61,54.74h2.57c.51,0,.87-.11,1.08-.32s.32-.58.32-1.08v-.4c0-.5-.11-.86-.32-1.08s-.58-.33-1.08-.33h-2.57v3.21Z"/><path class="cls-5" d="M36.12,59.47c-.76,0-1.36-.15-1.79-.46-.42-.31-.69-.78-.8-1.42-.02-.2.02-.34.12-.44s.24-.15.43-.15.32.04.41.13.15.23.18.41c.07.31.21.52.43.64.22.11.56.17,1.02.17h1.93c.58,0,.97-.1,1.17-.31s.31-.6.31-1.16-.11-.97-.32-1.18-.6-.32-1.16-.32h-1.66c-.84,0-1.47-.21-1.88-.62s-.61-1.04-.61-1.89.2-1.46.6-1.87c.41-.41,1.03-.61,1.87-.61h1.59c.71,0,1.26.14,1.67.43s.66.73.77,1.33c.03.19,0,.34-.11.44-.1.1-.25.15-.44.15-.18,0-.31-.05-.4-.14s-.15-.23-.17-.41c-.07-.26-.21-.44-.41-.54-.2-.1-.5-.15-.9-.15h-1.59c-.54,0-.89.1-1.08.29-.18.19-.27.54-.27,1.06s.09.89.28,1.08.55.29,1.08.29h1.66c.88,0,1.53.21,1.96.64s.65,1.09.65,1.98-.21,1.54-.64,1.97c-.43.42-1.08.63-1.97.63h-1.93v.03Z"/><path class="cls-5" d="M45.39,59.47c-.76,0-1.36-.15-1.79-.46-.42-.31-.69-.78-.8-1.42-.02-.2.02-.34.12-.44s.24-.15.43-.15.32.04.41.13.15.23.18.41c.07.31.21.52.43.64.22.11.56.17,1.02.17h1.93c.58,0,.97-.1,1.17-.31.21-.21.31-.6.31-1.16s-.11-.97-.32-1.18-.6-.32-1.16-.32h-1.66c-.84,0-1.47-.21-1.88-.62s-.61-1.04-.61-1.89.2-1.46.6-1.87c.41-.41,1.03-.61,1.87-.61h1.59c.71,0,1.26.14,1.67.43s.66.73.77,1.33c.03.19,0,.34-.11.44-.1.1-.25.15-.44.15-.18,0-.31-.05-.4-.14s-.15-.23-.17-.41c-.07-.26-.21-.44-.41-.54-.2-.1-.5-.15-.9-.15h-1.59c-.54,0-.89.1-1.08.29-.18.19-.27.54-.27,1.06s.09.89.28,1.08.55.29,1.08.29h1.66c.88,0,1.53.21,1.96.64s.65,1.09.65,1.98-.21,1.54-.64,1.97c-.43.42-1.08.63-1.97.63h-1.93v.03Z"/></g></g></svg>