<?xml version="1.0" encoding="UTF-8"?><svg xmlns="http://www.w3.org/2000/svg" viewBox="0 0 64 64"><defs><style>.cls-1{fill:none;}.cls-2,.cls-3{fill:#0072ff;}.cls-4{fill:#fff;}.cls-3{isolation:isolate;opacity:.15;}</style></defs><g id="Layer_2"><rect class="cls-1" width="64" height="64"/></g><g id="Layer_1"><g id="Document"><path class="cls-3" d="M42.52,13.11c-1.46,0-2.85-.58-3.88-1.61-1.03-1.03-1.61-2.42-1.61-3.88V0H12.5C10.6,0,8.78.75,7.44,2.1c-1.35,1.34-2.1,3.16-2.1,5.06v43.18c0,1.9.76,3.72,2.1,5.06,1.34,1.34,3.16,2.09,5.06,2.09h29.44c.94,0,1.87-.18,2.74-.54.87-.36,1.66-.89,2.32-1.55s1.19-1.45,1.55-2.32.55-1.8.55-2.74V13.1h-6.59.01Z"/><path class="cls-2" d="M49.11,13.11h-6.59c-1.46,0-2.85-.58-3.88-1.61-1.03-1.03-1.61-2.42-1.61-3.88V0s12.08,13.11,12.08,13.11Z"/><path class="cls-2" d="M54.36,45.5H21.04c-2.36,0-4.28,1.92-4.28,4.28v9.94c0,2.36,1.92,4.28,4.28,4.28h33.33c2.36,0,4.28-1.92,4.28-4.28v-9.94c0-2.36-1.92-4.28-4.28-4.28h-.01Z"/></g><g id="File"><path class="cls-2" d="M39.32,22H15.07c-.23,0-.46-.09-.62-.26-.16-.16-.26-.39-.26-.62s.09-.46.26-.62.39-.26.62-.26h24.24c.23,0,.46.09.62.26s.26.39.26.62-.09.46-.26.62c-.16.16-.39.26-.62.26Z"/><path class="cls-2" d="M39.32,27.25H15.07c-.23,0-.46-.09-.62-.26-.16-.16-.26-.39-.26-.62s.09-.46.26-.62c.16-.17.39-.26.62-.26h24.24c.23,0,.46.09.62.26s.26.39.26.62-.09.46-.26.62c-.16.16-.39.26-.62.26Z"/><path class="cls-2" d="M39.32,32.51H15.07c-.23,0-.46-.09-.62-.26s-.26-.39-.26-.62.09-.46.26-.62c.16-.16.39-.26.62-.26h24.24c.23,0,.46.09.62.26.16.16.26.39.26.62s-.09.46-.26.62c-.16.17-.39.26-.62.26Z"/><path class="cls-2" d="M39.32,37.76H15.07c-.23,0-.46-.09-.62-.26-.16-.16-.26-.39-.26-.62s.09-.46.26-.62.39-.26.62-.26h24.24c.23,0,.46.09.62.26s.26.39.26.62-.09.46-.26.62c-.16.16-.39.26-.62.26h0Z"/><path class="cls-4" d="M29.3,59.59c-.19,0-.33-.05-.43-.14s-.14-.24-.14-.43v-7.47h-2.63c-.19,0-.33-.05-.43-.14s-.14-.24-.14-.43.05-.33.14-.43.24-.14.43-.14h6.39c.19,0,.33.05.43.14s.14.24.14.43-.05.33-.14.43-.24.14-.43.14h-2.63v7.47c0,.18-.05.32-.15.42-.09.1-.23.15-.42.15h.01Z"/><path class="cls-4" d="M34.64,59.47c-.3-.21-.35-.47-.14-.8l2.48-3.66-2.61-3.69c-.2-.3-.15-.56.15-.8.31-.21.57-.16.79.15l2.43,3.4,2.44-3.4c.23-.3.5-.34.79-.12.31.23.35.49.14.79l-2.67,3.71,2.56,3.6c.21.31.16.58-.15.81-.31.21-.57.16-.79-.15l-2.36-3.32-2.25,3.33c-.21.29-.47.34-.8.14h0Z"/><path class="cls-4" d="M46.1,59.59c-.19,0-.33-.05-.43-.14s-.14-.24-.14-.43v-7.47h-2.63c-.19,0-.33-.05-.43-.14s-.14-.24-.14-.43.05-.33.14-.43.24-.14.43-.14h6.39c.19,0,.33.05.43.14s.14.24.14.43-.05.33-.14.43-.24.14-.43.14h-2.63v7.47c0,.18-.05.32-.15.42-.09.1-.23.15-.42.15h.01Z"/></g></g></svg>