<?xml version="1.0" encoding="UTF-8"?><svg xmlns="http://www.w3.org/2000/svg" viewBox="0 0 64 64"><defs><style>.cls-1{fill:none;}.cls-2,.cls-3{fill:#00c650;}.cls-4{fill:#fff;}.cls-3{isolation:isolate;opacity:.15;}</style></defs><g id="Layer_2"><rect class="cls-1" width="64" height="64"/></g><g id="Layer_1"><g id="Document"><path class="cls-3" d="M42.52,13.11c-1.46,0-2.85-.58-3.88-1.61-1.03-1.03-1.61-2.42-1.61-3.88V0H12.5C10.6,0,8.78.75,7.44,2.1c-1.35,1.34-2.1,3.16-2.1,5.06v43.18c0,1.9.76,3.72,2.1,5.06,1.34,1.34,3.16,2.09,5.06,2.09h29.44c.94,0,1.87-.18,2.74-.54.87-.36,1.66-.89,2.32-1.55s1.19-1.45,1.55-2.32.55-1.8.55-2.74V13.1h-6.59.01Z"/><path class="cls-2" d="M49.11,13.11h-6.59c-1.46,0-2.85-.58-3.88-1.61-1.03-1.03-1.61-2.42-1.61-3.88V0s12.08,13.11,12.08,13.11Z"/><path class="cls-2" d="M54.36,45.5H21.04c-2.36,0-4.28,1.92-4.28,4.28v9.94c0,2.36,1.92,4.28,4.28,4.28h33.33c2.36,0,4.28-1.92,4.28-4.28v-9.94c0-2.36-1.92-4.28-4.28-4.28h-.01Z"/></g><g id="File"><path class="cls-2" d="M40.19,37.18h-3.76v-15.14c0-.51-.2-.99-.56-1.35-.36-.36-.84-.56-1.35-.56h-9.58c-.51,0-.99.2-1.35.56-.36.36-.56.84-.56,1.35v15.14h-3.75v-16.42c0-1.16.46-2.28,1.28-3.1.82-.82,1.94-1.28,3.1-1.28h12.11c1.16,0,2.28.46,3.1,1.28s1.28,1.94,1.28,3.1l.03,16.42h.01Z"/><path class="cls-2" d="M35.75,41.62c2.45,0,4.44-1.99,4.44-4.44s-1.99-4.44-4.44-4.44-4.44,1.99-4.44,4.44,1.99,4.44,4.44,4.44h0Z"/><path class="cls-2" d="M18.63,41.62c2.45,0,4.44-1.99,4.44-4.44s-1.99-4.44-4.44-4.44-4.44,1.99-4.44,4.44,1.99,4.44,4.44,4.44Z"/><path class="cls-4" d="M26.57,59.59c-.25,0-.42-.16-.53-.49l-2.5-7.93c-.05-.17-.03-.34.07-.51.11-.17.26-.26.47-.26.11,0,.21.04.31.11s.17.18.22.32l2.21,7.03h-.3l2.1-6.96c.05-.16.13-.28.25-.37.12-.08.25-.12.37-.12.14,0,.27.04.39.12s.21.2.26.37l2.1,6.96h-.3l2.21-7.03c.05-.15.12-.25.21-.32.09-.07.2-.1.3-.1.2,0,.36.08.47.23s.14.33.08.53l-2.5,7.93c-.11.32-.31.49-.6.49h-.03c-.3,0-.5-.16-.6-.49l-2.18-7.05h.3l-2.19,7.05c-.05.16-.11.28-.2.37-.09.08-.22.12-.39.12h0Z"/><path class="cls-4" d="M35.89,59.53c-.36-.14-.47-.39-.32-.74l3.22-7.93c.14-.3.35-.45.64-.45h.03c.29,0,.49.16.6.45l3.28,7.93c.14.36.04.6-.31.74-.36.14-.6.04-.74-.31l-.73-1.77h-4.22l-.7,1.77c-.14.35-.38.46-.73.31h-.02ZM37.75,56.31h3.3l-1.69-4.1-1.62,4.1h0Z"/><path class="cls-4" d="M47.8,59.59c-.23,0-.42-.15-.55-.45l-3.34-7.92c-.07-.16-.09-.3-.05-.42.03-.13.14-.23.31-.31.37-.18.63-.09.79.28l3.16,7.49h-.39l3.08-7.49c.15-.37.41-.46.79-.28.16.08.26.18.29.31.04.12.03.26-.03.42l-3.37,7.92c-.14.3-.34.45-.61.45h-.08Z"/></g></g></svg>