<?xml version="1.0" encoding="UTF-8"?><svg xmlns="http://www.w3.org/2000/svg" viewBox="0 0 64 64"><defs><style>.cls-1{fill:none;}.cls-2,.cls-3,.cls-4{fill:#00c650;}.cls-3{fill-rule:evenodd;}.cls-5{fill:#fff;}.cls-4{isolation:isolate;opacity:.15;}</style></defs><g id="Layer_2"><rect class="cls-1" width="64" height="64"/></g><g id="Layer_1"><g id="Document"><path class="cls-4" d="M42.52,13.11c-1.46,0-2.85-.58-3.88-1.61-1.03-1.03-1.61-2.42-1.61-3.88V0H12.5C10.6,0,8.78.75,7.44,2.1c-1.35,1.34-2.1,3.16-2.1,5.06v43.18c0,1.9.76,3.72,2.1,5.06,1.34,1.34,3.16,2.09,5.06,2.09h29.44c.94,0,1.87-.18,2.74-.54.87-.36,1.66-.89,2.32-1.55s1.19-1.45,1.55-2.32.55-1.8.55-2.74V13.1h-6.59.01Z"/><path class="cls-2" d="M49.11,13.11h-6.59c-1.46,0-2.85-.58-3.88-1.61-1.03-1.03-1.61-2.42-1.61-3.88V0s12.08,13.11,12.08,13.11Z"/><path class="cls-2" d="M54.36,45.5H21.04c-2.36,0-4.28,1.92-4.28,4.28v9.94c0,2.36,1.92,4.28,4.28,4.28h33.33c2.36,0,4.28-1.92,4.28-4.28v-9.94c0-2.36-1.92-4.28-4.28-4.28h-.01Z"/></g><g id="File"><path class="cls-3" d="M37.08,39.98h-19.78c-1.71,0-3.11-1.7-3.11-3.8v-14.35c0-2.1,1.39-3.8,3.11-3.8h19.79c1.71,0,3.11,1.7,3.11,3.8v14.35c0,2.1-1.4,3.8-3.11,3.8h-.01ZM17.3,19.97c-.84,0-1.52.83-1.52,1.86v2.03c0,.45.36.81.81.81h3.83c.45,0,.81-.36.81-.81v-3.08c0-.45-.36-.81-.81-.81,0,0-3.12,0-3.12,0ZM23.18,20.77c0-.45.36-.81.81-.81h6.4c.45,0,.81.36.81.81v3.08c0,.45-.36.81-.81.81h-6.4c-.45,0-.81-.36-.81-.81v-3.08ZM23.18,27.42c0-.45.36-.81.81-.81h6.4c.45,0,.81.36.81.81v3.11c0,.45-.36.81-.81.81h-6.4c-.45,0-.81-.36-.81-.81v-3.11ZM21.23,27.42c0-.45-.36-.81-.81-.81h-3.83c-.45,0-.81.36-.81.81v3.11c0,.45.36.81.81.81h3.83c.45,0,.81-.36.81-.81v-3.11ZM21.23,34.09c0-.45-.36-.81-.81-.81h-3.83c-.45,0-.81.36-.81.81v2.08c0,1.03.68,1.86,1.52,1.86h3.12c.45,0,.81-.36.81-.81,0,0,0-3.13,0-3.13ZM23.18,37.22c0,.45.36.81.81.81h6.4c.45,0,.81-.36.81-.81v-3.13c0-.45-.36-.81-.81-.81h-6.4c-.45,0-.81.36-.81.81v3.13ZM33.95,26.61c-.45,0-.81.36-.81.81v3.11c0,.45.36.81.81.81h3.85c.45,0,.81-.36.81-.81v-3.11c0-.45-.36-.81-.81-.81,0,0-3.85,0-3.85,0ZM33.95,33.28c-.45,0-.81.36-.81.81v3.13c0,.45.36.81.81.81h3.14c.84,0,1.52-.83,1.52-1.86v-2.08c0-.45-.36-.81-.81-.81,0,0-3.85,0-3.85,0ZM33.95,19.97c-.45,0-.81.36-.81.81v3.08c0,.45.36.81.81.81h3.85c.45,0,.81-.36.81-.81v-2.03c0-1.03-.68-1.86-1.52-1.86,0,0-3.14,0-3.14,0Z"/><path class="cls-5" d="M26.43,59.47c-.3-.21-.35-.47-.14-.8l2.48-3.66-2.61-3.69c-.2-.3-.15-.56.15-.8.31-.21.57-.16.79.15l2.43,3.4,2.44-3.4c.23-.3.5-.34.79-.12.31.23.35.49.14.79l-2.67,3.71,2.56,3.6c.21.31.16.58-.15.81-.31.21-.57.16-.79-.15l-2.36-3.32-2.25,3.33c-.21.29-.47.34-.8.14h-.01Z"/><path class="cls-5" d="M35.72,59.59c-.38,0-.57-.19-.57-.57v-8.05c0-.38.19-.57.57-.57s.57.19.57.57v7.48h3.75c.38,0,.57.19.57.57s-.19.57-.57.57c0,0-4.32,0-4.32,0Z"/><path class="cls-5" d="M44.78,59.59c-.77,0-1.38-.16-1.81-.47s-.7-.79-.81-1.44c-.02-.2.02-.35.12-.45s.24-.15.43-.15.33.05.41.14c.09.09.15.23.18.42.07.31.21.53.43.64.23.11.57.17,1.03.17h1.95c.58,0,.98-.1,1.19-.31s.32-.61.32-1.18-.11-.98-.33-1.19c-.22-.22-.61-.33-1.18-.33h-1.68c-.85,0-1.49-.21-1.9-.62-.41-.42-.62-1.06-.62-1.91s.2-1.48.61-1.89,1.04-.62,1.9-.62h1.61c.72,0,1.28.15,1.69.44.41.29.67.74.78,1.35.03.19,0,.34-.11.45-.1.1-.25.15-.45.15-.18,0-.32-.05-.41-.14s-.15-.23-.18-.41c-.07-.27-.21-.45-.41-.54-.2-.1-.51-.15-.91-.15h-1.61c-.54,0-.91.1-1.09.29-.19.19-.28.55-.28,1.08s.09.9.28,1.1.56.3,1.1.3h1.68c.89,0,1.55.22,1.98.65.44.43.66,1.1.66,2.01s-.22,1.56-.65,1.99c-.43.42-1.1.64-1.99.64h-1.95l.02-.02Z"/></g></g></svg>