<?xml version="1.0" encoding="UTF-8"?><svg xmlns="http://www.w3.org/2000/svg" viewBox="0 0 64 64"><defs><style>.cls-1{fill:none;}.cls-2,.cls-3{fill:#a140ff;}.cls-4{fill:#fff;}.cls-3{isolation:isolate;opacity:.15;}</style></defs><g id="Layer_2"><rect class="cls-1" width="64" height="64"/></g><g id="Layer_1"><g id="Document"><path class="cls-3" d="M42.52,13.11c-1.46,0-2.85-.58-3.88-1.61-1.03-1.03-1.61-2.42-1.61-3.88V0H12.5C10.6,0,8.78.75,7.44,2.1c-1.35,1.34-2.1,3.16-2.1,5.06v43.18c0,1.9.76,3.72,2.1,5.06,1.34,1.34,3.16,2.09,5.06,2.09h29.44c.94,0,1.87-.18,2.74-.54.87-.36,1.66-.89,2.32-1.55s1.19-1.45,1.55-2.32.55-1.8.55-2.74V13.1h-6.59.01Z"/><path class="cls-2" d="M49.11,13.11h-6.59c-1.46,0-2.85-.58-3.88-1.61-1.03-1.03-1.61-2.42-1.61-3.88V0s12.08,13.11,12.08,13.11Z"/><path class="cls-2" d="M54.36,45.5H21.04c-2.36,0-4.28,1.92-4.28,4.28v9.94c0,2.36,1.92,4.28,4.28,4.28h33.33c2.36,0,4.28-1.92,4.28-4.28v-9.94c0-2.36-1.92-4.28-4.28-4.28h-.01Z"/></g><g id="File"><path class="cls-2" d="M14.19,29.48c0-.14.04-.27.12-.39.1-.13.22-.23.35-.32.2-.1.41-.19.62-.27l.62-.26,2.49-1.05c.35-.16.99-.43,1.93-.81l1.18-.48.43-.15.07-.03h.06s.1-.03.15-.03c.1,0,.2,0,.29.04s.18.09.25.15c.06.06.11.13.15.21.03.08.05.16.05.25v.82c0,.15-.05.3-.14.43-.09.14-.22.25-.38.3l-5.08,2.08,5.08,2.08c.15.06.28.17.38.3.09.12.14.27.14.42v.82c0,.09-.02.17-.05.25-.03.08-.08.15-.15.21-.07.07-.16.12-.25.16s-.19.05-.3.04c-.05,0-.1,0-.15-.03l-.14-.05-.43-.15-1.17-.48-1.93-.8-2.49-1.05-.62-.26c-.2-.08-.41-.17-.62-.27-.13-.06-.25-.16-.33-.28s-.13-.26-.14-.41v-1h0Z"/><path class="cls-2" d="M29.39,35.13c-.16,0-.32-.03-.46-.11s-.26-.19-.34-.33c-.07-.1-.12-.21-.16-.32l-.11-.29-2.32-5.13-.17-.38c-.19-.41-.57-1.23-1.12-2.46-.72-1.56-1.08-2.41-1.08-2.56,0-.09.02-.18.06-.26s.1-.15.17-.21c.16-.14.37-.21.58-.2h.75c.16,0,.32.04.45.11.14.08.25.19.34.33l.17.32.11.29.61,1.33,1.72,3.79.23.48,1.06,2.34c.41.84.77,1.7,1.08,2.58,0,.09-.02.18-.06.26s-.1.15-.17.21c-.16.14-.37.21-.58.2h-.76Z"/><path class="cls-2" d="M32.19,34.25c-.1,0-.21,0-.3-.04-.1-.03-.19-.09-.26-.16-.12-.12-.19-.29-.2-.46v-.82c0-.15.04-.29.13-.42.1-.14.23-.24.39-.3l5.1-2.08-5.1-2.08c-.15-.07-.29-.18-.38-.32-.09-.12-.14-.27-.14-.42v-.83c0-.09.02-.17.05-.25s.08-.15.14-.21c.15-.14.35-.21.55-.2.05,0,.09.01.14.03h.08l.07.03s.12.04.41.15l1.2.48c-.06-.03.58.24,1.93.81.74.3,1.58.66,2.53,1.08l.24.09.35.14c.21.07.4.16.59.27.14.06.25.16.33.28s.13.27.14.42v1c0,.14-.05.27-.13.38-.09.13-.21.23-.34.3-.18.09-.4.19-.64.29l-.64.26-5.62,2.35c-.16.08-.26.13-.29.15l-.06.05-.28.02h.01Z"/><path class="cls-4" d="M25.14,59.47c-.3-.21-.35-.47-.14-.8l2.48-3.66-2.61-3.69c-.2-.3-.15-.56.15-.8.31-.21.57-.16.79.15l2.43,3.4,2.44-3.4c.23-.3.5-.34.79-.12.31.23.35.49.14.79l-2.67,3.71,2.56,3.6c.21.31.16.58-.15.81-.31.21-.57.16-.79-.15l-2.36-3.32-2.25,3.33c-.21.29-.47.34-.8.14h-.01Z"/><path class="cls-4" d="M34.43,59.59c-.38,0-.57-.19-.57-.57v-8.05c0-.38.19-.57.57-.57.25,0,.46.12.62.37l3.2,4.81-.24.04,3.22-4.85c.15-.24.38-.37.69-.37s.46.19.46.57v8.05c0,.38-.19.57-.57.57s-.57-.19-.57-.57v-6.91l.35.12-2.85,4.19c-.17.24-.4.37-.69.37-.2,0-.39-.12-.56-.37l-2.85-4.19.34.09v6.69c0,.38-.19.57-.57.57h.02Z"/><path class="cls-4" d="M45.77,59.59c-.38,0-.57-.19-.57-.57v-8.05c0-.38.19-.57.57-.57s.57.19.57.57v7.48h3.75c.38,0,.57.19.57.57s-.19.57-.57.57h-4.32Z"/></g></g></svg>