<?xml version="1.0" encoding="UTF-8"?><svg xmlns="http://www.w3.org/2000/svg" viewBox="0 0 64 64"><g id="a"><rect width="64" height="64" style="fill:none; stroke-width:0px;"/></g><g id="b"><path d="m62.66,16.6c-.74-2.75-2.9-4.92-5.66-5.66-4.99-1.34-25-1.34-25-1.34,0,0-20.01,0-25,1.34-2.75.74-4.92,2.9-5.66,5.66C0,21.59,0,32,0,32,0,32,0,42.41,1.34,47.4c.74,2.75,2.9,4.92,5.66,5.66,4.99,1.34,25,1.34,25,1.34,0,0,20.01,0,25-1.34,2.75-.74,4.92-2.9,5.66-5.66,1.34-4.99,1.34-15.4,1.34-15.4,0,0,0-10.41-1.34-15.4Z" style="fill:red; stroke-width:0px;"/><polygon points="25.6 41.6 42.23 32 25.6 22.4 25.6 41.6" style="fill:#fff; stroke-width:0px;"/></g></svg>