<?xml version="1.0" encoding="UTF-8"?><svg xmlns="http://www.w3.org/2000/svg" viewBox="0 0 64 64"><defs><style>.cls-1{fill:none;}.cls-2{isolation:isolate;opacity:.15;}.cls-2,.cls-3{fill:#ff3e4c;}.cls-4{fill:#fff;}</style></defs><g id="Layer_2"><rect class="cls-1" width="64" height="64"/></g><g id="Layer_1"><g id="Document"><path class="cls-2" d="M42.52,13.11c-1.46,0-2.85-.58-3.88-1.61-1.03-1.03-1.61-2.42-1.61-3.88V0H12.5C10.6,0,8.78.75,7.44,2.1c-1.35,1.34-2.1,3.16-2.1,5.06v43.18c0,1.9.76,3.72,2.1,5.06,1.34,1.34,3.16,2.09,5.06,2.09h29.44c.94,0,1.87-.18,2.74-.54.87-.36,1.66-.89,2.32-1.55s1.19-1.45,1.55-2.32.55-1.8.55-2.74V13.1h-6.59.01Z"/><path class="cls-3" d="M49.11,13.11h-6.59c-1.46,0-2.85-.58-3.88-1.61-1.03-1.03-1.61-2.42-1.61-3.88V0s12.08,13.11,12.08,13.11Z"/><path class="cls-3" d="M54.36,45.5H21.04c-2.36,0-4.28,1.92-4.28,4.28v9.94c0,2.36,1.92,4.28,4.28,4.28h33.33c2.36,0,4.28-1.92,4.28-4.28v-9.94c0-2.36-1.92-4.28-4.28-4.28h-.01Z"/></g><g id="File"><path class="cls-3" d="M27.19,42c-1.12,0-2.19-.45-2.98-1.24s-1.23-1.86-1.24-2.98v-3.55c0-.37.3-.66.66-.66h7.1c.37,0,.66.3.66.66v3.55c0,1.12-.45,2.19-1.24,2.98-.79.79-1.86,1.24-2.98,1.24h.02ZM25.8,35.72c-.37,0-.66.3-.66.66v1.4c0,.55.22,1.07.6,1.46.39.39.91.6,1.46.6s1.07-.22,1.46-.6c.39-.39.6-.91.6-1.46v-1.4c0-.37-.3-.66-.66-.66h-2.8Z"/><path class="cls-3" d="M23.97,32.9h2.23c.55,0,1-.45,1-1v-2.23c0-.55-.45-1-1-1h-2.23c-.55,0-1,.45-1,1v2.23c0,.55.45,1,1,1Z"/><path class="cls-3" d="M28.18,28.68h2.23c.55,0,1-.45,1-1v-2.23c0-.55-.45-1-1-1h-2.23c-.55,0-1,.45-1,1v2.23c0,.55.45,1,1,1Z"/><path class="cls-3" d="M23.97,24.45h2.23c.55,0,1-.45,1-1v-2.23c0-.55-.45-1-1-1h-2.23c-.55,0-1,.45-1,1v2.23c0,.55.45,1,1,1Z"/><path class="cls-3" d="M28.18,20.23h2.23c.55,0,1-.45,1-1v-2.23c0-.55-.45-1-1-1h-2.23c-.55,0-1,.45-1,1v2.23c0,.55.45,1,1,1Z"/><path class="cls-4" d="M27.88,59.6c-.37,0-.56-.19-.56-.57,0-.06.02-.13.05-.21s.09-.17.16-.28l5.45-7.14v.14h-3.62c-.29,0-.52.04-.68.13s-.28.23-.34.43c-.04.17-.1.3-.19.39s-.22.14-.41.14-.34-.05-.45-.16c-.1-.1-.14-.25-.11-.44.11-.52.34-.93.71-1.21.37-.28.85-.42,1.47-.42h4.53c.38,0,.57.19.57.57,0,.07-.02.15-.05.23s-.09.18-.17.28l-5.39,7.03v-.05h4.02c.31,0,.54-.04.71-.12.16-.09.27-.23.33-.43.05-.17.12-.3.2-.39.09-.09.23-.14.41-.14.19,0,.34.05.44.16s.14.25.12.44c-.22,1.09-.95,1.63-2.2,1.63h-5.01.01Z"/><path class="cls-4" d="M37.8,59.6c-.19,0-.34-.05-.43-.14s-.14-.24-.14-.43v-8.05c0-.2.05-.34.14-.43s.24-.14.43-.14.34.05.43.14.14.24.14.43v8.05c0,.19-.05.34-.14.43s-.24.14-.43.14h0Z"/><path class="cls-4" d="M41.76,59.6c-.38,0-.57-.19-.57-.57v-8.06c0-.38.19-.57.57-.57h3.18c.83,0,1.46.22,1.9.66.44.44.66,1.07.66,1.9v.41c0,.83-.22,1.46-.66,1.91s-1.07.66-1.9.66h-2.61v3.09c0,.38-.19.57-.57.57h0ZM42.34,54.8h2.61c.52,0,.88-.11,1.1-.33s.33-.58.33-1.1v-.41c0-.51-.11-.88-.33-1.09-.22-.22-.58-.33-1.1-.33h-2.61v3.26Z"/></g></g></svg>