<svg xmlns="http://www.w3.org/2000/svg" viewBox="0 0 62.64 63.85"><defs/><defs><clipPath id="a" transform="translate(0 -.15)"><path d="M7.1 59.87S25.67 29.09 63 16.06c-2.12 4.07-55.87 50-55.87 50z" class="a"/></clipPath><clipPath id="b" transform="translate(0 -.15)"><path d="M7.91 36a266.41 266.41 0 0139.75-19.08c.76 4 1.63 3.48 1.63 3.48L10.52 47.87l-4.35-3.25z" class="a"/></clipPath><style>.a{fill:none}.b{fill:#789f37}.c{fill:#62862c}</style></defs><title>Paid Memberships Pro icon - Uncanny Automator</title><path d="M28.59 46.32l-1.36 1.62h28.36l-2.5-17.59h-1.41l2.06 15.42z" class="b"/><path d="M24.42 46.41c-.49.54-.94 1.06-1.35 1.53h4.16c.41-.5.87-1 1.36-1.62z" class="c"/><path d="M25.59 50.01c-.71.91-1.16 1.54-1.36 1.81l35.48.68L57 33.93l-.07-.08H56l2.17 16.19z" class="b"/><path d="M21.33 50.01C20.44 51.1 20 51.74 20 51.74l4.26.08c.2-.27.65-.9 1.36-1.81z" class="c"/><path d="M30.3 44.35l20.51-.86-1.72-16-.34-.22A133.69 133.69 0 0030.3 44.35z" class="b"/><path d="M48.75 27.31H46.9a107.81 107.81 0 00-20.74 17.22l4.14-.18a133.69 133.69 0 0118.45-17.04z" class="c"/><path fill="#2d98c6" d="M0 39.15l9.21 24.7s16.62-33.28 53.43-47.29c0 0-32.9 10.21-52.67 33.45z"/><g clip-path="url(#a)"><path fill="#2581a9" d="M0 39.15l9.21 24.7s16.62-33.28 53.43-47.29c0 0-32.9 10.21-52.67 33.45z"/></g><path fill="#77787b" d="M10.19 37.73s.81-5.79 5.92-5.88l1.3-.2a3.7 3.7 0 01-3.12-3.89 3.67 3.67 0 013.35-3.91A3.66 3.66 0 0121 27.76a4 4 0 01-1.91 3.53h.05s4.27-.59 5.3 2.66a3.87 3.87 0 01.06.72l.81-.61-.17-.11s-1.63-7.16 4.4-8l.52-.13a3.12 3.12 0 112.71-.49h.41s2.08-.25 3 1.17l1-.66c-.15-1.32-.2-4.69 3.66-4.91l.26-.1a2.43 2.43 0 111.85-.39 4.63 4.63 0 012.87.51 13.21 13.21 0 011.49-.62l-.53-5.76a2.73 2.73 0 00-1-2.26 3.67 3.67 0 00-2.5-.51l-4.6 1s-.17-3.38-.17-4.68C37.4-2.5 26.56.35 26.56.35A16.61 16.61 0 0015.4 12.73l-.32 5.54s-1.6.41-3.29.73-2.09 2.44-2.09 2.44L7.83 44.33l1.83 1.83zM25.59 4.5c1.46-.57 6.35-1.38 7.73 3.67.33 4.4.41 5.94.41 5.94L19 17.29v-3.58s-.5-6.03 6.59-9.21z"/><g clip-path="url(#b)"><path fill="#595b5c" d="M10.19 37.73s.81-5.79 5.92-5.88l1.3-.2a3.7 3.7 0 01-3.12-3.89 3.67 3.67 0 013.35-3.91A3.66 3.66 0 0121 27.76a4 4 0 01-1.91 3.53h.05s4.27-.59 5.3 2.66a3.87 3.87 0 01.06.72l.81-.61-.17-.11s-1.63-7.16 4.4-8l.52-.13a3.12 3.12 0 112.71-.49h.41s2.08-.25 3 1.17l1-.66c-.15-1.32-.2-4.69 3.66-4.91l.26-.1a2.43 2.43 0 111.85-.39 4.63 4.63 0 012.87.51 13.21 13.21 0 011.49-.62l-.53-5.76a2.73 2.73 0 00-1-2.26 3.67 3.67 0 00-2.5-.51l-4.6 1s-.17-3.38-.17-4.68C37.4-2.5 26.56.35 26.56.35A16.61 16.61 0 0015.4 12.73l-.32 5.54s-1.6.41-3.29.73-2.09 2.44-2.09 2.44L7.83 44.33l1.83 1.83zM25.59 4.5c1.46-.57 6.35-1.38 7.73 3.67.33 4.4.41 5.94.41 5.94L19 17.29v-3.58s-.5-6.03 6.59-9.21z"/></g></svg>