<?xml version="1.0" encoding="UTF-8"?><svg xmlns="http://www.w3.org/2000/svg" viewBox="0 0 64 64"><defs><style>.cls-1{fill:#23282d;}.cls-2{fill:#a2a4a6;}.cls-3{fill:#ce5118;}.cls-4{fill:#272d33;}.cls-5{fill:#fdfdfd;}</style></defs><g id="Layer_2"><rect class="cls-4" width="64" height="64"/></g><g id="Layer_1"><path class="cls-1" d="M0,64c2.14-13.75,13.14-24.85,26.8-27.29,15.89-2.85,31.06,5.79,36.97,20.63.05.13.02.27.23.23v6.43h-25.9l16.24-7.03c.41-.27,2.82-1.27,2.89-1.62.03-.12-.1-.2-.21-.21-.34-.03-1.69.45-2.09.59-3.67,1.26-7.5,3.09-11.1,4.61-2.84,1.21-5.69,2.38-8.49,3.66H0ZM31.94,43.31c-.13.13-.26.41-.28.6-.25,2.09.19,4.7,0,6.85.28,1.21,1.99,1.19,2.16-.09-.18-2.07.27-4.66,0-6.67-.12-.92-1.25-1.3-1.89-.69ZM23.58,50.2c.29.1.5-.12.45-.4-.04-.19-.87-2.16-.97-2.29-.14-.18-.27-.14-.49-.13-.02.98.69,1.91,1.02,2.83ZM41.18,47.38c-.1-.06-.45-.03-.53.07-.07.09-.83,1.92-.86,2.07-.08.37-.11.96.36.61.1-.07.18-.3.25-.42.19-.36.77-1.66.84-2.01.02-.09,0-.29-.06-.32ZM14.23,51.08c-.41.39-.46,1.14-.07,1.56l4.73,4.71c1.01.7,2.3-.47,1.54-1.54l-4.81-4.8c-.39-.28-1.04-.26-1.39.07ZM51.2,52.46c-.1-.24.08-.45.06-.67-.08-.8-1.14-1.26-1.79-.78l-4.8,4.8c-.66,1.01.56,2.23,1.54,1.54,1.69-1.6,3.25-3.37,5-4.9ZM11.96,60.06c.61.09,2.21,1.09,2.7,1.02.23-.04.27-.23.17-.42-.06-.12-2.18-1.01-2.44-1.06-.15-.03-.29-.03-.44-.02v.49ZM50.3,61.08c.16.17,2.81-.93,2.89-1.08.21-.4-.14-.45-.47-.38-.21.04-2.1.83-2.25.93-.21.15-.18.3-.17.54Z"/><path class="cls-3" d="M38.1,64h-2.76c2.81-1.28,5.66-2.46,8.49-3.66,3.59-1.53,7.43-3.36,11.1-4.61.41-.14,1.76-.62,2.09-.59.11.01.23.09.21.21-.08.35-2.48,1.35-2.89,1.62l-16.24,7.03Z"/><path class="cls-5" d="M14.23,51.08c.35-.33,1-.35,1.39-.07l4.81,4.8c.76,1.07-.53,2.24-1.54,1.54l-4.73-4.71c-.39-.42-.34-1.17.07-1.56Z"/><path class="cls-5" d="M51.2,52.46c-1.75,1.52-3.31,3.29-5,4.9-.97.69-2.2-.53-1.54-1.54l4.8-4.8c.66-.49,1.71-.03,1.79.78.02.22-.15.43-.06.67Z"/><path class="cls-5" d="M31.94,43.31c.64-.61,1.76-.23,1.89.69.27,2.01-.18,4.6,0,6.67-.17,1.28-1.88,1.3-2.16.09.18-2.15-.26-4.75,0-6.85.02-.19.15-.47.28-.6Z"/><path class="cls-2" d="M41.18,47.38c.06.03.08.24.06.32-.07.35-.65,1.64-.84,2.01-.06.12-.15.35-.25.42-.47.34-.44-.25-.36-.61.03-.14.79-1.98.86-2.07.09-.1.44-.13.53-.07Z"/><path class="cls-2" d="M11.96,60.06v-.49c.14,0,.28-.01.43.02.26.05,2.38.95,2.44,1.06.1.19.06.39-.17.42-.49.07-2.1-.93-2.7-1.02Z"/><path class="cls-2" d="M50.3,61.08c-.01-.24-.04-.39.17-.54.15-.1,2.04-.88,2.25-.93.33-.07.67-.02.47.38-.08.15-2.72,1.25-2.89,1.08Z"/><path class="cls-2" d="M23.58,50.2c-.33-.92-1.04-1.85-1.02-2.83.22,0,.35-.05.49.13.1.13.94,2.1.97,2.29.05.28-.16.5-.45.4Z"/></g></svg>