<svg xmlns="http://www.w3.org/2000/svg" xmlns:xlink="http://www.w3.org/1999/xlink" viewBox="0 0 64 64"><defs><style>.a{fill:none;}.b{fill:url(#a);}.c{fill:#ce985e;}.d{fill:url(#b);}.e{fill:url(#c);}.f{fill:url(#d);}.g{fill:#fff;}.h{fill:#836f67;}.i{fill:#fab383;}.j{fill:#856848;}</style><radialGradient id="a" cx="41.06" cy="38.93" r="24.8" gradientTransform="translate(-8.64 -4) rotate(3.28)" gradientUnits="userSpaceOnUse"><stop offset="0" stop-color="#fcc58a"/><stop offset="0.58" stop-color="#fcc289"/><stop offset="0.96" stop-color="#fbb986"/><stop offset="1" stop-color="#fbb885"/></radialGradient><linearGradient id="b" x1="41.62" y1="-0.25" x2="41.62" y2="43.33" gradientTransform="translate(-8.64 -4) rotate(3.28)" gradientUnits="userSpaceOnUse"><stop offset="0" stop-color="#574537"/><stop offset="0.58" stop-color="#433329"/><stop offset="1" stop-color="#32241d"/></linearGradient><radialGradient id="c" cx="53.32" cy="36.45" r="3.39" gradientTransform="translate(-8.64 -4) rotate(3.28)" gradientUnits="userSpaceOnUse"><stop offset="0" stop-color="#333"/><stop offset="0.46" stop-color="#313131"/><stop offset="0.7" stop-color="#292929"/><stop offset="0.89" stop-color="#1b1b1b"/><stop offset="1" stop-color="#101010"/></radialGradient><radialGradient id="d" cx="-32.2" cy="36.45" r="3.39" gradientTransform="matrix(-1, -0.06, -0.06, 1, -12.03, -4.19)" xlink:href="#c"/></defs><title>MyCred icon - Uncanny Automator</title><rect class="a" width="64" height="64"/><path class="b" d="M55.17,16.77a3.89,3.89,0,0,0-3.67-4.11L11.7,10.38a3.89,3.89,0,0,0-4.11,3.67S7.25,19,6.12,48c-.38,9.57,1.38,13.7,3.44,13.82L47.76,64c2.07.12,4.28-3.79,5-13.34C54.94,21.73,55.17,16.77,55.17,16.77Z"/><path class="c" d="M53.37,42.35c1.72-23.06,1.8-25.58,1.8-25.58a3.89,3.89,0,0,0-3.67-4.11L11.7,10.38a3.89,3.89,0,0,0-4.11,3.67S7.4,16.56,6.47,39.71c.17.21.27.31.27.31C7.85,25.9,9.93,20.27,9.93,20.27s1.44,1.27,6.49,1.81c10.81,1.15,34.15-3.87,34.15-3.87,3.56,10.52,2.53,24.47,2.53,24.47Z"/><path class="d" d="M6.74,40s-4.95-5.12-4-16.84S6.87,7.07,6.87,7.07l.59,2.5,2.19-3.4.56,2.53L12.6,6l-.07,2.11S44.65-6.63,61.41,3.62c0,0-6.49,1.16-7.29,2.81,0,0,2.7-.66,4.14.23a4.39,4.39,0,0,0-1.68,5.49c1.38,3.73,5.1,21-3.5,30.53,0,0,1.33-15.08-2.23-25.6,0,0-24,4.55-34.83,3.4-5-.54-6.56-2.36-6.56-2.36A195.55,195.55,0,0,0,6.74,40Z"/><path class="c" d="M46.32,35.93a3.83,3.83,0,1,1-3.61-4A3.84,3.84,0,0,1,46.32,35.93Z"/><path class="e" d="M45.89,35.64a3.39,3.39,0,1,1-3.19-3.58A3.39,3.39,0,0,1,45.89,35.64Z"/><path class="c" d="M14.2,34.1a3.83,3.83,0,1,0,4-3.61A3.83,3.83,0,0,0,14.2,34.1Z"/><circle class="f" cx="18.04" cy="34.04" r="3.39"/><path class="g" d="M20.58,32.56a1.41,1.41,0,0,1-.51,1.89,1.4,1.4,0,0,1-1.8-.78,1.29,1.29,0,1,1,2.31-1.11Z"/><path class="g" d="M45,34a1.29,1.29,0,1,1-2.3,1.11A1.29,1.29,0,1,1,45,34Z"/><path class="h" d="M16.13,8.18s24-11.59,42.27-5C58.4,3.17,35,1.5,16.13,8.18Z"/><circle class="i" cx="44.51" cy="51.05" r="2.65"/><path class="i" d="M17.69,49.52a2.65,2.65,0,1,1-2.5-2.8A2.66,2.66,0,0,1,17.69,49.52Z"/><path class="j" d="M38.85,50.42a.64.64,0,0,1-.62.69,68.91,68.91,0,0,1-16-.91.65.65,0,0,1-.54-.76.66.66,0,0,1,.76-.53,67.43,67.43,0,0,0,15.67.9A.66.66,0,0,1,38.85,50.42Z"/></svg>