<?xml version="1.0" encoding="utf-8"?><svg xmlns="http://www.w3.org/2000/svg" xmlns:xlink="http://www.w3.org/1999/xlink" viewBox="0 0 64 64"><title>Modern Events Calendar icon - Uncanny Automator</title><defs><linearGradient id="a" x1="-20.95" y1="-5.26" x2="-20.83" y2="-5.37" gradientTransform="translate(3066.12 806.58) scale(144.99 144.99)" gradientUnits="userSpaceOnUse"><stop offset="0" stop-color="#18cde9"/><stop offset="0.43" stop-color="#17a3d8"/><stop offset="1" stop-color="#7af6ff"/></linearGradient><linearGradient id="b" x1="-20.9" y1="-5.34" x2="-20.87" y2="-5.3" gradientTransform="translate(3066.12 806.58) scale(144.99 144.99)" gradientUnits="userSpaceOnUse"><stop offset="0" stop-color="#0eb0c9"/><stop offset="0.47" stop-color="#15cfec"/><stop offset="1" stop-color="#7af6ff"/></linearGradient><linearGradient id="c" x1="-21.11" y1="-6.28" x2="-21.25" y2="-6.34" gradientTransform="translate(2036.72 637.74) scale(94.78)" gradientUnits="userSpaceOnUse"><stop offset="0" stop-color="#75eaaf"/><stop offset="0.49" stop-color="#71ebb3"/><stop offset="1" stop-color="#b7ea68"/></linearGradient><linearGradient id="d" x1="-21.15" y1="-6.32" x2="-21.23" y2="-6.3" gradientTransform="translate(2036.72 637.74) scale(94.78)" gradientUnits="userSpaceOnUse"><stop offset="0" stop-color="#75eaaf"/><stop offset="0.49" stop-color="#71ebb3"/><stop offset="1" stop-color="#b9eb44"/></linearGradient><linearGradient id="e" x1="-22.26" y1="-7.8" x2="-22.19" y2="-7.72" gradientTransform="translate(1495.35 530.74) scale(65.84 62.94)" gradientUnits="userSpaceOnUse"><stop offset="0" stop-color="#61de9c"/><stop offset="1" stop-color="#39dcbe"/></linearGradient><linearGradient id="f" x1="-25.62" y1="-9.06" x2="-25.48" y2="-8.96" gradientTransform="translate(876.13 437.99) scale(32.92 44.29)" gradientUnits="userSpaceOnUse"><stop offset="0" stop-color="#0094cf"/><stop offset="1" stop-color="#01aae2" stop-opacity="0.1"/></linearGradient><linearGradient id="g" x1="2.07" y1="0.23" x2="2.07" y2="-0.01" gradientTransform="translate(-890.04 1.1) scale(446.02 177.29)" gradientUnits="userSpaceOnUse"><stop offset="0" stop-color="#a8ea79"/><stop offset="0.74" stop-color="#4ee5fe"/><stop offset="1" stop-color="#00dcff"/></linearGradient><linearGradient id="h" x1="2.1" y1="-0.26" x2="2.04" y2="-0.45" gradientTransform="translate(-889.96 137.32) scale(445.98 299.45)" gradientUnits="userSpaceOnUse"><stop offset="0" stop-color="#b8f58d"/><stop offset="1" stop-color="#29e2ed"/></linearGradient><linearGradient id="i" x1="2.04" y1="-0.2" x2="2.05" y2="-0.33" gradientTransform="translate(-160.08 60.85) scale(81.04 153.2)" gradientUnits="userSpaceOnUse"><stop offset="0" stop-color="#54e8d0"/><stop offset="1" stop-color="#3ee3fe"/></linearGradient><linearGradient id="j" x1="2.03" y1="-0.23" x2="2.06" y2="-0.34" gradientTransform="translate(-160.08 60.85) scale(81.04 153.2)" gradientUnits="userSpaceOnUse"><stop offset="0.25" stop-color="#09b1dd" stop-opacity="0"/><stop offset="1" stop-color="#05a9e2"/></linearGradient><linearGradient id="k" x1="0.81" y1="-1" x2="0.88" y2="-0.86" gradientTransform="translate(-32.37 62.14) scale(58.68 51.42)" gradientUnits="userSpaceOnUse"><stop offset="0" stop-color="#48e4fe"/><stop offset="1" stop-color="#5de5e7"/></linearGradient><linearGradient id="l" x1="-2.43" y1="-0.9" x2="-2.38" y2="-1.04" gradientTransform="translate(188.99 62.15) scale(58.67 51.42)" gradientUnits="userSpaceOnUse"><stop offset="0" stop-color="#5de5e6"/><stop offset="1" stop-color="#3ee3fe"/></linearGradient><linearGradient id="m" x1="-1.79" y1="-0.22" x2="-1.82" y2="-0.33" gradientTransform="translate(204.88 60.86) scale(81.04 153.2)" gradientUnits="userSpaceOnUse"><stop offset="0" stop-color="#85eeaf"/><stop offset="1" stop-color="#39e2fe"/></linearGradient><linearGradient id="n" x1="-1.81" y1="-0.19" x2="-1.81" y2="-0.34" gradientTransform="translate(204.88 60.86) scale(81.04 153.2)" xlink:href="#j"/></defs><path d="M31.14,46.22l-3.3-3.38a1,1,0,0,1,0-1.45L43.33,25.56a1,1,0,0,1,1.42,0l3.3,3.37a1,1,0,0,1,0,1.45L32.56,46.22a1,1,0,0,1-1.42,0Z" transform="translate(0 0)" style="fill:url(#a)"/><path d="M31.14,46.22l-3.3-3.38a1,1,0,0,1,0-1.45L43.33,25.56a1,1,0,0,1,1.42,0l3.3,3.37a1,1,0,0,1,0,1.45L32.56,46.22a1,1,0,0,1-1.42,0Z" transform="translate(0 0)" style="isolation:isolate;opacity:0.550000011920929;fill:url(#b)"/><path d="M35.87,42.84l-3.3,3.38a1,1,0,0,1-1.42,0l-8.29-8.48a1,1,0,0,1,0-1.45l3.3-3.37a1,1,0,0,1,1.42,0l8.29,8.47A1,1,0,0,1,35.87,42.84Z" transform="translate(0 0)" style="fill:url(#c)"/><path d="M35.87,42.84l-3.3,3.38a1,1,0,0,1-1.42,0l-8.29-8.48a1,1,0,0,1,0-1.45l3.3-3.37a1,1,0,0,1,1.42,0l8.29,8.47A1,1,0,0,1,35.87,42.84Z" transform="translate(0 0)" style="isolation:isolate;opacity:0.3100000023841858;fill:url(#d)"/><path d="M31.14,46.22l-4-4.1,4.72-4.83,4.72,4.83-4,4.1a1,1,0,0,1-1.42,0Z" transform="translate(0 0)" style="fill:url(#e)"/><path d="M33.48,35.62l-1.63,1.66,4.72,4.83Z" transform="translate(0 0)" style="fill:url(#f)"/><path d="M57.13,1A11,11,0,0,0,44.82,3.2L32,15.56,19.18,3.2A11,11,0,0,0,6.87,1,11.48,11.48,0,0,0,0,11.66v8.41C0,13.82,4.68,8.75,10.45,8.75a9.23,9.23,0,0,1,1.18.07l.28,0a10.7,10.7,0,0,1,8.42,7.54l8.72,8.41a4.26,4.26,0,0,0,5.91,0l8.72-8.41A10.71,10.71,0,0,1,52.1,8.86l.28,0a9.34,9.34,0,0,1,1.18-.07C59.32,8.75,64,13.82,64,20.07V11.66A11.48,11.48,0,0,0,57.13,1Z" transform="translate(0 0)" style="fill:url(#g)"/><path d="M55.39,31.22v1.14A23.63,23.63,0,0,1,30.92,55.17,23.68,23.68,0,0,1,8.61,32.37V31.22C3.72,30.28,0,25.65,0,20.07V32.65C.75,50.71,15.68,64.73,33.35,64a31.71,31.71,0,0,0,20.84-9.11A32.87,32.87,0,0,0,64,32.64V20.07C64,25.65,60.28,30.28,55.39,31.22Z" transform="translate(0 0)" style="fill:url(#h)"/><path d="M8.61,31.22V11.66a2.76,2.76,0,0,1,1.67-2.6,3,3,0,0,1,1.35-.23,9.34,9.34,0,0,0-1.18-.07C4.68,8.75,0,13.82,0,20.07,0,25.65,3.72,30.28,8.61,31.22Z" transform="translate(0 0)" style="fill:url(#i)"/><path d="M8.61,31.22V11.66a2.76,2.76,0,0,1,1.67-2.6,3,3,0,0,1,1.35-.23,9.34,9.34,0,0,0-1.18-.07C4.68,8.75,0,13.82,0,20.07,0,25.65,3.72,30.28,8.61,31.22Z" transform="translate(0 0)" style="fill:url(#j)"/><path d="M20.33,16.4a10.71,10.71,0,0,0-8.42-7.54,2.61,2.61,0,0,1,1.36.74Z" transform="translate(0 0)" style="fill:url(#k)"/><path d="M50.73,9.61a2.61,2.61,0,0,1,1.36-.74,10.71,10.71,0,0,0-8.42,7.54l7.06-6.8Z" transform="translate(0 0)" style="fill:url(#l)"/><path d="M53.55,8.75a9.23,9.23,0,0,0-1.18.07,3,3,0,0,1,1.35.23,2.76,2.76,0,0,1,1.67,2.6V31.22C60.28,30.28,64,25.65,64,20.07,64,13.82,59.32,8.75,53.55,8.75Z" transform="translate(0 0)" style="fill:url(#m)"/><path d="M53.55,8.75a9.23,9.23,0,0,0-1.18.07,3,3,0,0,1,1.35.23,2.76,2.76,0,0,1,1.67,2.6V31.22C60.28,30.28,64,25.65,64,20.07,64,13.82,59.32,8.75,53.55,8.75Z" transform="translate(0 0)" style="fill:url(#n)"/></svg>