<?xml version="1.0" encoding="utf-8"?><svg id="Layer_1" data-name="Layer 1" xmlns="http://www.w3.org/2000/svg" xmlns:xlink="http://www.w3.org/1999/xlink" viewBox="0 0 64 63.92"><defs><style>.cls-1{fill:url(#linear-gradient);}.cls-2{fill:#3378fc;}.cls-3{fill:#34e3fe;}.cls-4{fill:url(#linear-gradient-2);}.cls-5{fill:url(#linear-gradient-3);}</style><linearGradient id="linear-gradient" x1="1.04" y1="64.74" x2="1.31" y2="65.01" gradientTransform="matrix(190, 0, 0, -189.76, -187, 12337.61)" gradientUnits="userSpaceOnUse"><stop offset="0" stop-color="#582ef2"/><stop offset="1" stop-color="#04dcfe"/></linearGradient><linearGradient id="linear-gradient-2" x1="0.75" y1="66.06" x2="1.43" y2="67.09" gradientTransform="matrix(67.13, 0, 0, -44.12, -40.18, 2961.48)" xlink:href="#linear-gradient"/><linearGradient id="linear-gradient-3" x1="-0.08" y1="65.78" x2="0.35" y2="66.48" gradientTransform="matrix(70.93, 0, 0, -44.13, 29.09, 2962.2)" xlink:href="#linear-gradient"/></defs><title>Modern Events Calendar icon - Uncanny Automator</title><g id="webnus-modern-events-calendar-icon"><g id="Group_1" data-name="Group 1"><path id="Path_1" data-name="Path 1" class="cls-1" d="M58.73,0H5.19A5.18,5.18,0,0,0,0,5.21V58.85A5.16,5.16,0,0,0,5.19,64H58.81A5.18,5.18,0,0,0,64,58.79V5.23A5.31,5.31,0,0,0,58.73,0ZM5.19,2.36H58.81A2.77,2.77,0,0,1,61.6,5.12v7.62a4.8,4.8,0,0,0-2.79-.87H5.19a4.8,4.8,0,0,0-2.79.87V5.23A2.75,2.75,0,0,1,5,2.36ZM61.6,58.77a2.77,2.77,0,0,1-2.76,2.79H5.19A2.77,2.77,0,0,1,2.4,58.8V17.06a2.77,2.77,0,0,1,2.76-2.8H58.81A2.78,2.78,0,0,1,61.6,17V58.77Z" transform="translate(0 -0.04)"/><circle id="Ellipse_1" data-name="Ellipse 1" class="cls-2" cx="11.67" cy="6.87" r="2.4"/><circle id="Ellipse_2" data-name="Ellipse 2" class="cls-3" cx="52.25" cy="6.87" r="2.4"/><path id="Path_2" data-name="Path 2" class="cls-4" d="M29.16,31.52a4.41,4.41,0,0,0-2.79-1H9.27v2.56h17.1a1,1,0,0,1,.48.08,3,3,0,0,1,.56.24A1.66,1.66,0,0,1,28.12,35a1,1,0,0,1-.07.48c-.08.24-.16.4-.24.64a1.66,1.66,0,0,1-1.52.71H12.38a4.41,4.41,0,0,0-2.79,1,4,4,0,0,0-1.52,3.36v3a1.27,1.27,0,0,0,.4.88,1.25,1.25,0,0,0,.88.4H29.48V42.87H10.55V41.11a1.64,1.64,0,0,1,.72-1.52,1.47,1.47,0,0,1,.64-.24c.16,0,.32-.08.48-.08h14a4,4,0,0,0,3.35-1.52,4.41,4.41,0,0,0,1-2.87A4,4,0,0,0,29.16,31.52Z" transform="translate(0 -0.04)"/><path id="Path_3" data-name="Path 3" class="cls-5" d="M52.41,30.56H36.75a3.93,3.93,0,0,0-2.87,1.2,3.85,3.85,0,0,0-1.2,2.8h2.56a1.64,1.64,0,0,1,.4-1,1.31,1.31,0,0,1,1-.4H52.33a1.64,1.64,0,0,1,1,.4,1.23,1.23,0,0,1,.4,1v.72a1.66,1.66,0,0,1-.4,1,1.34,1.34,0,0,1-1,.4H36v2.55H52.41a1.7,1.7,0,0,1,1,.4,1.31,1.31,0,0,1,.4,1v.64a1.66,1.66,0,0,1-.4,1,1.31,1.31,0,0,1-1,.4H36.75a1.64,1.64,0,0,1-1-.4,1.31,1.31,0,0,1-.4-1H32.76a4.1,4.1,0,0,0,4.07,4.08H52.49a4.1,4.1,0,0,0,4.08-4.08v-.56a3.72,3.72,0,0,0-1-2.72,3.84,3.84,0,0,0,1-2.71v-.72a3.64,3.64,0,0,0-1.2-2.8A4,4,0,0,0,52.41,30.56Z" transform="translate(0 -0.04)"/></g></g></svg>