<?xml version="1.0" encoding="UTF-8"?><svg xmlns="http://www.w3.org/2000/svg" viewBox="0 0 64 64"><title>ConvertKit icon - Uncanny Automator</title><g id="a"><rect x="0" width="64" height="64" style="fill:none;"/></g><g id="b"><path d="m30.88,49.29c11.11,0,19.7-8.45,19.7-18.86,0-9.76-8.07-15.72-13.42-15.72-7.45,0-13.41,5.26-14.26,13.06-.16,1.44-1.3,2.65-2.75,2.64-2.4-.02-5.88-.04-8.09-.03-.95,0-1.74-.77-1.7-1.72.33-6.77,2.58-13.09,6.87-17.95,4.76-5.4,11.7-8.57,19.92-8.57,13.8,0,26.83,12.61,26.83,28.29,0,17.36-14.3,31.44-32.83,31.44C17.97,61.87,4.66,53.18.02,41.04c-.02-.04-.02-.09-.01-.14.06-.36.18-.69.31-1.01.18-.47.35-.93.32-1.46l-.08-1.69c-.04-.83.43-1.61,1.19-1.96l.67-.31c.77-.36,1.31-1.06,1.46-1.89.23-1.24,1.31-2.14,2.57-2.14,1.97,0,3.69,1.31,4.33,3.18,3.1,9.04,8.03,15.68,20.11,15.68Z" style="fill:#fb6970;"/></g></svg>