<?xml version="1.0" encoding="UTF-8"?><svg xmlns="http://www.w3.org/2000/svg" viewBox="0 0 64 64"><defs><style>.cls-1{fill:none;}.cls-2{fill:#44b1ff;}</style></defs><title>Kit icon - Uncanny Automator</title><g id="Layer_2"><rect class="cls-1" width="64" height="64"/></g><g id="Layer_1"><path class="cls-2" d="M0,.67l.5-.33h23.03l.39.25.11,23.29.2.83c.17.2.62.17.83.06.29-.14.99-2.64,1.18-3.17,2.27-6.09,5.37-11.74,10.74-15.6C43.56,1.3,51.78.48,59.66.28l.71.31v24.06l-.58.19h-19.32c-.65.01-.86.42-.64,1.02,1.26.5,2.68.7,4,1.11,13.11,4.18,18.58,16.84,19.85,29.64.18,1.86.44,4.58.26,6.4-.04.43-.07.68-.58.7l-23.26-.12c-.17-.11-.19-.4-.21-.58-.18-1.68,0-3.74-.13-5.5-.63-8.84-3.06-18.08-13.25-19.36-1.01-.13-2.54-.56-2.48.94l-.11,24.44-.58.19H.57l-.57-.39V.67Z"/></g></svg>