<?xml version="1.0" encoding="UTF-8"?><svg id="Layer_1" xmlns="http://www.w3.org/2000/svg" viewBox="0 0 512 512"><defs><style>.cls-1{fill:none;}.cls-2{isolation:isolate;opacity:.4;}.cls-2,.cls-3{fill:#0790e8;}</style></defs><rect class="cls-1" width="512" height="512"/><path class="cls-2" d="M38.4,230.4c0-7.04,5.76-12.8,12.8-12.8h286.88c-48.48,22.24-82.08,71.2-82.08,128,0,28.32,8.4,54.72,22.8,76.8H51.2c-7.04,0-12.8-5.76-12.8-12.8v-179.2Z"/><path class="cls-3" d="M51.2,422.4h227.6c9.84,15.04,22.4,28.08,37.04,38.4H51.2c-28.24,0-51.2-22.96-51.2-51.2v-179.2c0-28.24,22.96-51.2,51.2-51.2h307.2c19.04,0,35.6,10.32,44.4,25.76-2-.08-4-.16-6-.16-20.96,0-40.88,4.56-58.72,12.8H51.2c-7.04,0-12.8,5.76-12.8,12.8v179.2c0,7.04,5.76,12.8,12.8,12.8ZM352,115.2c10.64,0,19.2,8.56,19.2,19.2s-8.56,19.2-19.2,19.2H57.6c-10.64,0-19.2-8.56-19.2-19.2s8.56-19.2,19.2-19.2h294.4ZM313.6,51.2c10.64,0,19.2,8.56,19.2,19.2s-8.56,19.2-19.2,19.2H96c-10.64,0-19.2-8.56-19.2-19.2s8.56-19.2,19.2-19.2h217.6ZM396.8,230.4c63.62,0,115.2,51.58,115.2,115.2s-51.58,115.2-115.2,115.2-115.2-51.58-115.2-115.2,51.58-115.2,115.2-115.2ZM409.6,294.4c0-7.04-5.76-12.8-12.8-12.8s-12.8,5.76-12.8,12.8v38.4h-38.4c-7.04,0-12.8,5.76-12.8,12.8s5.76,12.8,12.8,12.8h38.4v38.4c0,7.04,5.76,12.8,12.8,12.8s12.8-5.76,12.8-12.8v-38.4h38.4c7.04,0,12.8-5.76,12.8-12.8s-5.76-12.8-12.8-12.8h-38.4v-38.4Z"/></svg>