<?xml version="1.0" encoding="UTF-8"?><svg xmlns="http://www.w3.org/2000/svg" viewBox="0 0 64 64"><defs><style>.cls-1{fill:none;}.cls-2{fill:#fff;}.cls-3{fill:#0790e8;}</style></defs><title>Logging icon - Uncanny Automator</title><g id="Transparent_layer"><rect class="cls-1" width="64" height="64"/></g><g id="Background"><g id="Layer_2"><rect class="cls-3" width="64" height="64" rx="8" ry="8"/></g></g><g id="Logging"><path class="cls-2" d="M32,39.7c0,4.12,1.99,7.77,5.09,9.9H14.4c-2.48,0-4.4-1.92-4.4-4.4v-15.4c0-2.41,1.93-4.4,4.4-4.4h26.4c1.58,0,3.02.89,3.78,2.27-.14,0-.34-.07-.48-.07-6.74,0-12.1,5.43-12.1,12.1ZM40.25,19.9c.89,0,1.65.76,1.65,1.65,0,.96-.76,1.65-1.65,1.65H14.95c-.96,0-1.65-.69-1.65-1.65,0-.89.69-1.65,1.65-1.65h25.3ZM36.95,14.4c.89,0,1.65.76,1.65,1.65,0,.96-.76,1.65-1.65,1.65h-18.7c-.96,0-1.65-.69-1.65-1.65,0-.89.69-1.65,1.65-1.65h18.7ZM54,39.7c0,5.5-4.47,9.9-9.9,9.9s-9.9-4.4-9.9-9.9,4.4-9.9,9.9-9.9,9.9,4.47,9.9,9.9Z"/><path class="cls-3" d="M39.73,35.33l-.82-.82c-.36-.36-.99-.11-.99.41v2.66c0,.32.26.58.58.58h2.66c.52,0,.78-.63.41-.99l-.74-.74c.84-.84,2-1.36,3.28-1.36,2.56,0,4.64,2.08,4.64,4.64s-2.08,4.64-4.64,4.64c-.99,0-1.9-.31-2.65-.83-.35-.24-.83-.16-1.08.19s-.16.83.19,1.08c1.01.7,2.23,1.11,3.54,1.11,3.42,0,6.19-2.77,6.19-6.19s-2.77-6.19-6.19-6.19c-1.71,0-3.26.69-4.37,1.81ZM44.1,36.61c-.32,0-.58.26-.58.58v2.51c0,.15.06.3.17.41l1.74,1.74c.23.23.59.23.82,0s.23-.59,0-.82l-1.57-1.57v-2.27c0-.32-.26-.58-.58-.58h0Z"/></g></svg>