<?xml version="1.0" encoding="UTF-8"?><svg xmlns="http://www.w3.org/2000/svg" viewBox="0 0 64 64"><title>Thrive Quiz Builder icon - Uncanny Automator</title><g id="a"><rect width="64" height="64" style="fill:none;"/></g><g id="b"><path id="c" d="m7.07,19.9c-3.42,0-6.25-2.78-6.25-6.25s2.78-6.2,6.25-6.2,6.25,2.78,6.25,6.25-2.83,6.2-6.25,6.2Zm0-9.8c-2.01,0-3.6,1.6-3.6,3.6s1.6,3.6,3.6,3.6,3.6-1.6,3.6-3.6-1.64-3.6-3.6-3.6Z" style="fill:#434343;"/><path id="d" d="m7.07,49.16c-3.42,0-6.25-2.78-6.25-6.25s2.78-6.25,6.25-6.25,6.25,2.78,6.25,6.25c-.05,3.42-2.83,6.25-6.25,6.25Zm0-9.85c-2.01,0-3.6,1.6-3.6,3.6s1.6,3.6,3.6,3.6,3.6-1.6,3.6-3.6-1.64-3.6-3.6-3.6Z" style="fill:#434343;"/><path id="e" d="m6.7,21.63c-3.69,0-6.7,3.01-6.7,6.7s3.01,6.7,6.7,6.7,6.7-3.01,6.7-6.7c.05-3.69-2.96-6.7-6.7-6.7Zm4.33,5.61l-4.74,4.74c-.27.23-.5.46-.73.73-.23.18-.41.27-.68.18-.09-.05-.23-.14-.27-.23-.96-.96-1.96-1.91-2.92-2.87-.14-.14-.27-.27-.41-.41-.23-.23-.18-.59.05-.77.27-.27.59-.59.91-.91.23-.23.59-.23.87.05.64.64,1.28,1.32,1.96,1.96.05.05.09.05.14-.05,1.14-1.14,2.28-2.28,3.42-3.37.46-.5.96-1,1.46-1.5.23-.23.5-.27.77-.14.05.05.09.09.14.14.27.27.59.59.87.87.09.09.14.23.14.41,0,.14-.05.27-.18.41-.27.27-.5.5-.77.77h0Z" style="fill:#4f9543; fill-rule:evenodd;"/><path id="f" d="m51.05,17.57H15.5c-.36,0-.64-.27-.64-.64v-6.11c0-.36.27-.64.64-.64h35.56c.36,0,.64.27.64.64v6.11c.05.36-.27.64-.64.64Z" style="fill:#434343; fill-rule:evenodd;"/><path id="g" d="m51.05,31.93H15.5c-.36,0-.64-.27-.64-.64v-6.11c0-.36.27-.64.64-.64h35.56c.36,0,.64.27.64.64v6.11c.05.36-.27.64-.64.64Z" style="fill:#434343; fill-rule:evenodd;"/><path id="h" d="m18.55,39.18h23.02c-.41.27-.82.55-1.28.82l-.91.68c-.14.09-.27.23-.36.32l-.14.09c-.09.09-.23.18-.32.27-.32.23-.59.46-.82.73-.05.05-.09.14-.14.18-.64.46-1.87,1.96-2.05,2.23l-1.05,1.46c-.14.23-.27.41-.36.59h-15.59c-2.01,0-3.69-1.64-3.69-3.69s1.69-3.69,3.69-3.69h0Z" style="fill:#434343; fill-rule:evenodd;"/><path id="i" d="m64,37.17c-.55,0-.73.09-1.09.23-.41.14-.82.46-1.19.77l-.82.77c-.05.09-.09.09-.14.18-1.55,1.91-1.87,2.23-3.1,4.65-.59,1.14-1.23,2.19-1.96,3.24-.46.73-.91,1.46-1.46,2.14l-.09.09s-.05.05-.09.09c-.32.41-.77.77-1.14,1.14-.27.23-.59.46-.91.68-.27.14-.55.32-.77.5l-.46.23c-.09.05-.14.09-.23.14-.05.05-.14.09-.23.09-.09.05-.14.09-.23.09-1.69.82-3.92,1.37-5.83,1.6l-1.09.09c-.32.05-1.28.09-2.14.09-.73,0-1.41-.05-1.6-.09l.14-.32c.27-.64.59-1.28.96-1.87.05-.09.09-.18.14-.27l.73-1.19,1.78-2.46,1.6-1.64s.09-.09.09-.14q.09-.05.14-.09l.36-.32s.09-.05.14-.09c.09-.09.14-.14.23-.23l1.69-1.14c.55-.36,1.14-.73,1.73-1.05l1.82-1c.68-.32,1.87-.96,2.51-1.19l1.91-.91c-.27.05-.64.18-.91.27-.27.09-.55.18-.87.27l-1.73.59c-.82.27-1.69.64-2.51,1l-1.6.73c-.59.23-1.5.73-2.14,1.05-.68.41-1.32.82-1.96,1.19l-2.23,1.6s-.09.09-.14.09l-1.28,1.09c-.36.41-.82.77-1.14,1.19q-.05.09-.14.14c-.32.32-.64.73-.91,1.09-.41.55-.77,1.14-1.14,1.78l-.59,1.09c-.23.46-1.19,2.74-1.28,3.37h-.05c0-.09-.27-1.14-.32-2.01v-.82c.09-.5.09-.82.14-1.41.27-1.69,1-3.37,1.96-4.79l.96-1.37c.27-.36,1.28-1.5,1.6-1.78.27-.23.59-.59.91-.82.14-.09.27-.23.41-.36.14-.09.27-.23.46-.32l.91-.68c.91-.64,1.91-1.28,2.92-1.78,1.09-.55,2.19-1,3.33-1.41,1.46-.59,3.46-1,4.97-1.32,1.6-.32,5.65-1.05,7.57-1.05h.41c1.09-.05,2.64,0,3.01.55h0Z" style="fill:#4f9543; fill-rule:evenodd;"/></g></svg>