<?xml version="1.0" encoding="UTF-8"?><svg id="a" xmlns="http://www.w3.org/2000/svg" viewBox="0 0 64 64"><title>WPCode icon - Uncanny Automator</title><path d="m57.44,64H6.56c-3.68,0-6.56-2.89-6.56-6.55V6.55C0,2.89,2.88,0,6.56,0h50.87c3.65,0,6.56,2.89,6.56,6.55v50.9c0,3.66-2.91,6.55-6.56,6.55Zm-41.61-11.91c-.33,0-.77-.09-1.1-.18-1.54-.6-2.29-2.29-1.69-3.84L26.4,13.78c.59-1.52,2.29-2.29,3.83-1.7,1.54.6,2.29,2.29,1.69,3.84l-13.3,34.29c-.42,1.19-1.6,1.88-2.79,1.88Zm19.16-4.35c.59.6,1.37.86,2.14.86s1.54-.27,2.14-.86l10.45-10.39c1.87-1.88,1.87-5.03,0-6.91l-10.45-10.48c-1.1-1.19-2.97-1.19-4.16,0-1.19,1.1-1.19,2.98,0,4.17l9.62,9.7-9.71,9.7c-1.25,1.13-1.25,3.01-.03,4.2Z" style="fill:#0065ff; fill-rule:evenodd;"/></svg>