<svg xmlns="http://www.w3.org/2000/svg" viewBox="0 0 64 64"><defs><style>.cls-1{fill:none;}.cls-2{fill:#008bf6;}.cls-10,.cls-11,.cls-12,.cls-13,.cls-14,.cls-15,.cls-2,.cls-3,.cls-4,.cls-5,.cls-6,.cls-7,.cls-8,.cls-9{fill-rule:evenodd;}.cls-3{fill:#57b6ff;}.cls-4{fill:#006cbf;}.cls-5{fill:#fff;}.cls-6{fill:#385661;}.cls-7{fill:#598291;}.cls-8{fill:#d3e8ef;}.cls-9{fill:#7eaaba;}.cls-10{fill:#0b87e8;}.cls-11{fill:#3c942c;}.cls-12{fill:#82e371;}.cls-13{fill:#bdd6de;}.cls-14{fill:#1e2432;}.cls-15{fill:#2d3956;}</style></defs><title>Automator Core icon - Uncanny Automator</title><g id="Layer_2" data-name="Layer 2"><rect class="cls-1" width="64" height="64"/></g><g id="Layer_3" data-name="Layer 3"><g id="Circle"><path class="cls-2" d="M31.17,14.58A24.71,24.71,0,1,1,6.46,39.29,24.7,24.7,0,0,1,31.17,14.58Z"/><path class="cls-3" d="M19.88,60.35a3.7,3.7,0,0,1,1.75.2,23.92,23.92,0,0,0,26.46-5.77,2.67,2.67,0,0,1,1.85-.72,23.88,23.88,0,0,1-18.78,9.12A23.59,23.59,0,0,1,19.88,60.35Z"/><path class="cls-4" d="M31.21,14.58c.75,0,1.5.05,2.25.11a4.49,4.49,0,0,1-1.79,0A2.6,2.6,0,0,1,31.21,14.58ZM16.77,59.37A24.65,24.65,0,0,1,7.84,47.45l.51,0a4.09,4.09,0,0,1,.78,0,4,4,0,0,1,1-2.46,3.07,3.07,0,0,1,1.09-.53,4.66,4.66,0,0,1-1.42-2.9c0-.39-.05-.79-.06-1.21L7.21,39a2.13,2.13,0,0,1-.73-.56A24.55,24.55,0,0,1,9.31,27.77l2.21-.19a38.05,38.05,0,0,1,1.84-5.41A24.93,24.93,0,0,1,18.61,18c.61-.11,1.2-.18,1.73-.23a43.66,43.66,0,0,1,7.41.08c.9.07,1.79.18,2.68.28a7.25,7.25,0,0,1,.39-.88c.61-1.17,3.89-.76,5.44-.48A7.19,7.19,0,0,0,35.83,15c.56.1,1.1.23,1.65.36a9.07,9.07,0,0,1,.26,1.71c1.64.4,4.23,1.19,4.36,2.36,0,.3,0,.63,0,1q1.31.34,2.58.75A48.12,48.12,0,0,1,49.77,23a24.72,24.72,0,0,1,4.28,25.64l-1.15.1c-.16.38-.35.76-.51,1.1-.91,1.86-3.24,2.61-5.14,2.95a34.41,34.41,0,0,1-7.92.27,74.41,74.41,0,0,1-9.4-1.24,74.23,74.23,0,0,1-9.19-2.38,39.13,39.13,0,0,1-5.21-2.1c0,1.44,0,2.87,0,4.31a5.07,5.07,0,0,1,1.8,2,7,7,0,0,0,4-1.68c.61-.5,2.34.24,1.63,2.31A7,7,0,0,1,16.77,59.37Z"/><path class="cls-5" d="M31.17,19.78a19.5,19.5,0,1,1-19.51,19.5A19.51,19.51,0,0,1,31.17,19.78Z"/></g><g id="Arm_-_Right" data-name="Arm - Right"><path class="cls-6" d="M22.18,48.65a7.37,7.37,0,0,1-8.48,1.29l-2.78,5.55C14.89,57.68,22,58,24,51,24.69,48.77,22.8,48.09,22.18,48.65Z"/><path class="cls-6" d="M22.72,49.34a8.15,8.15,0,0,1-8.6,1.71l-2,4.05a10.84,10.84,0,0,0,4.51.89,6.68,6.68,0,0,0,6.6-5.21,1.38,1.38,0,0,0-.11-1.25A.52.52,0,0,0,22.72,49.34Z"/><path class="cls-7" d="M20.06,51a8.24,8.24,0,0,1-5.95,0l-.83,1.68A7.07,7.07,0,0,0,20.09,52C20.61,51.58,20.49,51,20.06,51Z"/></g><g id="Arm_-_Left" data-name="Arm - Left"><path class="cls-6" d="M37.09,52a9.85,9.85,0,0,1,3.48,5.68l4.72-1.29c-1.22-3.54-4.75-7-8.19-7.32Z"/><path class="cls-6" d="M38,51.57a10.7,10.7,0,0,1,3.23,5l2.92-.79a11.32,11.32,0,0,0-6-6Z"/><path class="cls-7" d="M42.75,56.15l1.36-.37A12.64,12.64,0,0,0,40.23,51c-.19.16-.1.55.11.78A10,10,0,0,1,42.75,56.15Z"/></g><path class="cls-7" d="M24.09,57.46c0-.4-.07-.81-.1-1.22a1.69,1.69,0,0,1,.76-1.69,13.94,13.94,0,0,1,3.9-1.27l1-.22.16,0,.16,0,1,.22a14,14,0,0,1,3.89,1.27,1.69,1.69,0,0,1,.76,1.69c0,.47-.06.94-.11,1.41,0,.21,0,.43-.06.65a19.71,19.71,0,0,1-4.37.49A19.32,19.32,0,0,1,24.09,57.46Z"/><path class="cls-8" d="M24.91,57.76c-.06-.51-.09-1-.13-1.58a.92.92,0,0,1,.4-1,18.16,18.16,0,0,1,4.69-1.38,18.07,18.07,0,0,1,4.68,1.38.93.93,0,0,1,.39,1c0,.81-.1,1.51-.2,2.28a20,20,0,0,1-3.56.33A19.26,19.26,0,0,1,24.91,57.76Z"/><path class="cls-5" d="M26,54.82a30.12,30.12,0,0,1,3.84-1v4.93a18.87,18.87,0,0,1-3.57-.58C26.18,57.05,26.09,55.93,26,54.82Z"/><path class="cls-7" d="M21.64,56.32c-.19-1-.35-2.09-.46-3.15-.06-.71-.11-1.42-.16-2.13a2.53,2.53,0,0,1,1.15-2.55A21.76,21.76,0,0,1,28,46.59l1.58-.34.25,0,.24,0,1.57.34a22.17,22.17,0,0,1,5.87,1.9A2.52,2.52,0,0,1,38.68,51c0,.71-.09,1.42-.16,2.13a35.74,35.74,0,0,1-.73,4.48,19.48,19.48,0,0,1-16.15-1.33Z"/><path class="cls-7" d="M23,57a35.38,35.38,0,0,1-.78-6,1.4,1.4,0,0,1,.61-1.47c1.36-.86,4.38-1.54,7.06-2.11,2.66.57,5.69,1.25,7.06,2.11a1.39,1.39,0,0,1,.6,1.47,34.86,34.86,0,0,1-1,6.93s0,.1-.07.19A19.6,19.6,0,0,1,23,57Z"/><path class="cls-9" d="M24.65,57.67A43,43,0,0,1,23.93,51a1.6,1.6,0,0,1,.45-1.48c1.05-.85,3.4-1.53,5.48-2.1,2.07.57,4.41,1.25,5.46,2.1A1.58,1.58,0,0,1,35.78,51,45.53,45.53,0,0,1,35,57.87a1.49,1.49,0,0,1-.26.59,20.34,20.34,0,0,1-3.6.33A19.27,19.27,0,0,1,24.65,57.67Z"/><path class="cls-8" d="M22.52,54.45c-.16-1.19-.24-2.24-.32-3.49a1.4,1.4,0,0,1,.61-1.47c1.36-.86,4.38-1.54,7.06-2.11,2.66.57,5.69,1.25,7.06,2.11a1.39,1.39,0,0,1,.6,1.47c-.08,1.25-.16,2.31-.32,3.49a29.27,29.27,0,0,1-3.72.57.29.29,0,0,0-.25.23,2.55,2.55,0,0,1-.93,1.66,3.75,3.75,0,0,1-2.43.72,3.85,3.85,0,0,1-2.46-.72,2.53,2.53,0,0,1-.92-1.66.26.26,0,0,0-.25-.23A28.89,28.89,0,0,1,22.52,54.45Z"/><path class="cls-5" d="M29.86,47.38h0c2.07.57,4.41,1.25,5.46,2.11A1.55,1.55,0,0,1,35.78,51c-.07,1.37-.13,2.49-.28,3.81-.64.1-1.31.19-2,.25a.28.28,0,0,0-.25.23c-.25,1.72-1.73,2.4-3.36,2.4s-3.12-.67-3.39-2.4a.25.25,0,0,0-.25-.23c-.71-.07-1.39-.15-2-.25C24,53.45,24,52.32,23.91,51a1.61,1.61,0,0,1,.46-1.47C25.45,48.63,27.79,48,29.86,47.38Z"/><path class="cls-10" d="M27.55,51.94h1.2a.28.28,0,0,1,.27.28v2.36a1,1,0,0,0,.2.67.89.89,0,0,0,.65.19.85.85,0,0,0,.63-.19,1,1,0,0,0,.19-.67V52.22a.29.29,0,0,1,.28-.28h1.2a.27.27,0,0,1,.27.28v2.5a1.91,1.91,0,0,1-.66,1.57,3,3,0,0,1-1.91.54A2.93,2.93,0,0,1,28,56.29a1.89,1.89,0,0,1-.66-1.57v-2.5A.26.26,0,0,1,27.55,51.94Z"/><path class="cls-3" d="M27.55,52.08a.14.14,0,0,0-.14.14v2.5A1.72,1.72,0,0,0,28,56.17a2.92,2.92,0,0,0,1.84.52v-1.1a1,1,0,0,1-.74-.24,1,1,0,0,1-.23-.76V52.23a.15.15,0,0,0-.14-.14H27.55Z"/><g id="Bow_Tie" data-name="Bow Tie"><path class="cls-11" d="M30.5,47.19l-.61,2.42c.52.87,2.58,2,3.59,2.41a.91.91,0,0,0,1.12-.1c.73-.77,1.34-2.89,1.49-4.73Z"/><path class="cls-11" d="M35.42,47.19c0,.38-.08.75-.13,1.1a7.48,7.48,0,0,1-1.16,3.18.09.09,0,0,1-.07.05,1.4,1.4,0,0,1-.34-.08,11.14,11.14,0,0,1-3.13-1.95l.57-2.3Z"/><path class="cls-12" d="M35,49.41a5.25,5.25,0,0,1-.9,2.06.09.09,0,0,1-.07.05,1.4,1.4,0,0,1-.34-.08,11.55,11.55,0,0,1-3-1.81h.45a5,5,0,0,0,1.64.69,8.16,8.16,0,0,1-.7-.72C33.08,49.55,34.06,49.5,35,49.41Z"/><path class="cls-11" d="M29.14,47.19l.6,2.42c-.51.87-2.58,2-3.59,2.41a.91.91,0,0,1-1.12-.1c-.73-.77-1.33-2.89-1.48-4.73Z"/><path class="cls-11" d="M24.21,47.19c0,.38.08.75.14,1.1a7.61,7.61,0,0,0,1.15,3.18.12.12,0,0,0,.07.05,1.3,1.3,0,0,0,.34-.08,11,11,0,0,0,3.14-1.95l-.58-2.3Z"/><path class="cls-12" d="M24.59,49.41a5.25,5.25,0,0,0,.9,2.06.12.12,0,0,0,.07.05,1.4,1.4,0,0,0,.34-.08,11.59,11.59,0,0,0,3-1.81h-.46a5.08,5.08,0,0,1-1.64.69,6,6,0,0,0,.69-.72C26.54,49.55,25.56,49.5,24.59,49.41Z"/><path class="cls-11" d="M31.88,47.19a14.14,14.14,0,0,1-.46,3.13,2.76,2.76,0,0,1-3.22,0,14.75,14.75,0,0,1-.46-3.13Z"/><path class="cls-11" d="M28.29,47.42a14.63,14.63,0,0,0,.38,2.63,2.35,2.35,0,0,0,2.3,0,14.61,14.61,0,0,0,.37-2.63Z"/><path class="cls-12" d="M28.53,49.41c0,.21.08.42.14.64a2.35,2.35,0,0,0,2.3,0c.05-.22.1-.44.14-.67l-1.65,0Z"/></g><g id="Head"><path class="cls-7" d="M8.17,24.29,14,23.66,12,38.74,6.49,36.06A2,2,0,0,1,5.3,34.64a15.52,15.52,0,0,1,1.32-9.46C6.9,24.66,7.21,24.4,8.17,24.29Z"/><path class="cls-8" d="M11.05,36.9l1.54-11.81c-.51,0-4.59.43-4.77.57,0,0-.06.11-.09.15a14.34,14.34,0,0,0-1.22,8.63A.72.72,0,0,0,7,35Z"/><path class="cls-5" d="M11.05,36.9l.1-.83L7,34.37c-.31-.14-.54-1.28-.68-2.54a11.37,11.37,0,0,0,.22,2.59.74.74,0,0,0,.48.52Zm.64-5,.89-6.83c-.52,0-4.6.43-4.77.57a1,1,0,0,0-.09.15,14.61,14.61,0,0,0-1.27,4.1Z"/><path class="cls-8" d="M6.9,28l1.61,1.39a.91.91,0,0,1,.31.78c-.17,1.67-.37,3.27-.42,5.49A33.94,33.94,0,0,1,8.14,30a.16.16,0,0,0-.05-.16L7,28.84l-.14-.58A2.64,2.64,0,0,1,6.9,28Z"/><path class="cls-9" d="M6.82,28.26l1.39,1.23a.9.9,0,0,1,.31.77,32.41,32.41,0,0,0-.16,4.67c0,.23,0,.47.05.69l-.71-.34c0-.11,0-.24,0-.35a32.31,32.31,0,0,1,.16-4.77A.16.16,0,0,0,7.79,30L6.66,29A5.3,5.3,0,0,1,6.82,28.26Z"/><path class="cls-7" d="M33.77,5c4,3.6,4.25,8.19,2.43,13l-1.43-.55c1.59-4.22,1.49-8.16-2-11.33Z"/><path class="cls-11" d="M32.5.07a4.68,4.68,0,1,1-5.42,3.8A4.68,4.68,0,0,1,32.5.07Z"/><path class="cls-11" d="M32.33,1A3.72,3.72,0,1,1,28,4,3.71,3.71,0,0,1,32.33,1Z"/><path class="cls-12" d="M35,2.91a3.72,3.72,0,1,1-6.82,2.86,3.72,3.72,0,0,0,6.94-1.12A4,4,0,0,0,35,2.91ZM31.43,1.32c1.3-.06,2.19.75,2,1.8a2.81,2.81,0,0,1-2.66,2c-1.29.07-2.18-.74-2-1.79A2.82,2.82,0,0,1,31.43,1.32Z"/><path class="cls-4" d="M34.58,20.64c-1.28-.23-5.52-1.11-5.67-2.78A13,13,0,0,1,30,12c.68-1.39,5-.73,6.19-.52s5.46,1.08,5.63,2.61a12.9,12.9,0,0,1-1,5.91C40.14,21.48,35.85,20.86,34.58,20.64Z"/><path class="cls-4" d="M40.75,14.22c-.44-.78-3.86-1.53-4.74-1.68a22,22,0,0,0-2.8-.32,5.76,5.76,0,0,0-2.24.27,11.75,11.75,0,0,0-1,5.26c.08.38,1.65,1,2,1.11,1.81.62,5.31,1.26,7.2.87a2.05,2.05,0,0,0,.63-.23A11.88,11.88,0,0,0,40.75,14.22Z"/><path class="cls-3" d="M36,12.54a21.61,21.61,0,0,0-2.8-.32,5.81,5.81,0,0,0-2.24.27,12,12,0,0,0-1,5.26c.05.14.4.38.52.46a13.67,13.67,0,0,0,4.25,1.33Z"/><path class="cls-7" d="M58.13,33.1l-5.29-2.58-3.3,14.85,6.13-.62a2,2,0,0,0,1.6-.92,15.45,15.45,0,0,0,2-9.35C59.21,33.89,59,33.53,58.13,33.1Z"/><path class="cls-8" d="M51.13,44l2.58-11.64c.46.22,4.18,2,4.28,2.16a1.16,1.16,0,0,1,0,.18,14.2,14.2,0,0,1-1.8,8.51.71.71,0,0,1-.62.33Z"/><path class="cls-5" d="M51.13,44l.18-.81L55.82,43c.35,0,.94-1,1.51-2.15a10,10,0,0,1-1.1,2.35.71.71,0,0,1-.62.33Zm1.08-4.92,1.49-6.73c.45.22,4.18,2,4.28,2.16s0,.14,0,.17a14.35,14.35,0,0,1-.22,4.28Z"/><path class="cls-8" d="M58.06,37l-2,.77a.84.84,0,0,0-.54.63c-.42,1.63-.78,3.19-1.49,5.3A35.12,35.12,0,0,0,56.2,38.5a.17.17,0,0,1,.1-.13l1.41-.57.32-.5A1.84,1.84,0,0,0,58.06,37Z"/><path class="cls-9" d="M58,37.3,56.33,38a.86.86,0,0,0-.55.63A32,32,0,0,1,54.33,43c-.1.22-.19.42-.28.64l.78-.08c0-.1.1-.22.14-.33a33.55,33.55,0,0,0,1.48-4.54.23.23,0,0,1,.1-.14L58,38C58,37.81,58,37.56,58,37.3Z"/><path class="cls-7" d="M29.59,48.86a72.28,72.28,0,0,1-9.24-2.24,32.78,32.78,0,0,1-7.28-3.19c-1.65-1-3.55-2.61-3.71-4.78-.48-6.33,1.29-16.33,4.06-22,1.07-2.16,4.13-2.8,6.21-3.07a40.09,40.09,0,0,1,7.43-.1,77.18,77.18,0,0,1,8.59,1.05,76.64,76.64,0,0,1,8.45,2,40.56,40.56,0,0,1,6.95,2.64c1.86,1,4.52,2.6,4.77,5,.67,6.32-1.09,16.32-3.71,22.12-.89,2-3.22,2.81-5.12,3.21a32.65,32.65,0,0,1-8,.49A71.55,71.55,0,0,1,29.59,48.86Z"/><path class="cls-13" d="M29.86,47.38c-6.32-1.11-12.5-3-16-5.22-1.81-1.14-3-2.38-3-3.63-.44-5.87,1.2-15.65,3.92-21.25.59-1.19,2.46-1.91,5.08-2.24,4-.5,9.88-.08,15.62.93s11.37,2.61,15,4.47c2.36,1.21,3.87,2.51,4,3.84.65,6.18-1.17,15.95-3.59,21.3-.52,1.15-2,1.92-4.11,2.37C42.62,48.83,36.17,48.5,29.86,47.38Z"/><path class="cls-5" d="M11.13,30.4a46,46,0,0,1,3.56-13.12c.59-1.19,2.46-1.91,5.08-2.24,4-.5,9.88-.08,15.62.93s11.37,2.61,15,4.47c2.36,1.21,3.87,2.51,4,3.84a46,46,0,0,1-1.15,13.55,12.61,12.61,0,0,1-2.69.49c-.37,0-.76.07-1.16.08a36,36,0,0,0,1.86-9.82c0-.62-.4-.81-1-1a69.79,69.79,0,0,0-9.39-2.82.55.55,0,0,0-.59.28A26.31,26.31,0,0,1,38,29.16c-1,1.09-8.93-.3-9.51-1.68a27.17,27.17,0,0,1-.77-4.69.53.53,0,0,0-.46-.45,68.12,68.12,0,0,0-9.78-.58c-.63,0-1.1,0-1.29.63a36.59,36.59,0,0,0-1.6,9.87l-1.05-.48A12.5,12.5,0,0,1,11.13,30.4Zm18.73,17c-6.32-1.11-12.5-3-16-5.22-1.81-1.14-3-2.38-3-3.63,0-.23,0-.46,0-.7a3.2,3.2,0,0,0,.47.89A7.21,7.21,0,0,0,14,41.3c3.56,2.19,9.74,4.05,16.06,5.16s12.76,1.47,16.86.64a7.32,7.32,0,0,0,3.48-1.49,3.54,3.54,0,0,0,.76-.67c-.11.21-.2.43-.29.64-.51,1.15-2,1.92-4.1,2.37C42.62,48.83,36.17,48.5,29.86,47.38Z"/><path class="cls-13" d="M26.18,14.88a17.72,17.72,0,0,0,1.48,2.92,26.24,26.24,0,0,0,7,2.06,26.27,26.27,0,0,0,7.34.48c.75-.6,1.67-1.5,2.4-2.22a8.06,8.06,0,0,1-2.21,3.05,26.65,26.65,0,0,1-7.66-.46,26.05,26.05,0,0,1-7.36-2.19A11.39,11.39,0,0,1,26.18,14.88Z"/><path class="cls-9" d="M26.18,14.88a11.25,11.25,0,0,0,1.19,3.29,27.19,27.19,0,0,0,7.26,2.12,27.44,27.44,0,0,0,7.56.49,11.25,11.25,0,0,0,2.25-2.68l.82.26c-.6,1-1.95,2.89-2.87,3.25a27.6,27.6,0,0,1-7.9-.48,27.75,27.75,0,0,1-7.6-2.25c-.72-.66-1.34-2.94-1.58-4C25.59,14.86,25.88,14.88,26.18,14.88Z"/><path class="cls-14" d="M32.81,30.65c1.94.35,4.68.46,5.2-.33a36.13,36.13,0,0,0,2.26-5.47.51.51,0,0,1,.58-.36,61.87,61.87,0,0,1,10.21,3.29c.6.26,1.06.47,1,1.28a51.6,51.6,0,0,1-3.48,15.58c-.29.65-2.12,1.17-2.69,1.3a27.47,27.47,0,0,1-6.95.49,61.58,61.58,0,0,1-8.77-1,61.79,61.79,0,0,1-8.56-2.1,27.28,27.28,0,0,1-6.37-2.83c-.48-.32-2-1.43-2.07-2.14a52.39,52.39,0,0,1,2.06-15.83c.22-.77.72-.82,1.38-.85a60.07,60.07,0,0,1,10.71.4.49.49,0,0,1,.44.52A34.22,34.22,0,0,0,28,28.56C28.25,29.48,30.86,30.31,32.81,30.65Z"/><path class="cls-15" d="M51.3,28.52A46,46,0,0,1,50,37c-.43,1.62-1.25,1.51-3,1.73-7.28.9-23.71-2-30.24-5.34-1.58-.81-2.41-1.45-2.24-2.65a62.23,62.23,0,0,1,1.68-8.45c0-.19.31-.27.48-.28a62.49,62.49,0,0,1,10.66.4.18.18,0,0,1,.14.18c-.05.6-.05,1.2-.05,1.8a38.49,38.49,0,0,0,.31,4.21c.3,1.33,3.82,2.13,5,2.33s4.8.66,5.53-.48a3,3,0,0,0,.25-.47,35.27,35.27,0,0,0,2-5.08.18.18,0,0,1,.19-.13,61,61,0,0,1,10.15,3.28C51.08,28.15,51.31,28.34,51.3,28.52ZM13.49,37.68c0,.24,0,.47,0,.69,0,.52,1.48,1.6,1.92,1.88,6.4,4.17,22.94,7.1,30.38,5.36.52-.11,2.24-.63,2.46-1.11.09-.2.18-.42.28-.62a9.15,9.15,0,0,1-2.18.77c-7.63,1.74-24.53-1.24-31.11-5.48A7.78,7.78,0,0,1,13.49,37.68Z"/><path class="cls-12" d="M20.46,29.72a14.69,14.69,0,0,0-.83,4.74c0,2.36,4.26,3.14,4.92.87a20.15,20.15,0,0,0,.84-4.75C25.53,28.22,21.25,27.48,20.46,29.72ZM44.73,34a15,15,0,0,1-.84,4.74c-.79,2.24-5.07,1.5-4.92-.87a20.76,20.76,0,0,1,.83-4.74C40.47,30.85,44.75,31.62,44.73,34Z"/><path class="cls-12" d="M34.69,40.07c-.89,4-7,2.89-6.46-1.13A13.05,13.05,0,0,0,34.69,40.07Z"/></g><g id="Hand_-_Right" data-name="Hand - Right"><path class="cls-7" d="M12.92,47.66a5.4,5.4,0,1,1-5.39,5.39A5.4,5.4,0,0,1,12.92,47.66Z"/><path class="cls-8" d="M12.92,48.56a4.49,4.49,0,1,1-4.49,4.49A4.49,4.49,0,0,1,12.92,48.56Z"/><path class="cls-5" d="M12.92,48.56a4.49,4.49,0,0,1,4.49,4.49,4.69,4.69,0,0,1-.25,1.51,7.63,7.63,0,0,1-2.71.47c-2.76,0-5.09-1.37-5.84-3.24A4.5,4.5,0,0,1,12.92,48.56Z"/><path class="cls-7" d="M9,44a4.3,4.3,0,0,1,1.12-2.61,4.15,4.15,0,0,1,2.4-.74c1.32,0,3.25.51,3.28,2.13.07,3.47,0,7,0,10.42A3.21,3.21,0,0,1,15.37,55c-1.6,2.45-6.53,2.58-8.89,1.33a1.89,1.89,0,0,1-1-.91,23.4,23.4,0,0,1-.76-8.14c.1-1,.34-2.65,1.51-3A8.53,8.53,0,0,1,8.2,44Z"/><path class="cls-7" d="M9.64,49.42c-.71-1.83-.75-6.7.66-7.81s5.19-.82,5.25,1.17c.07,3.48,0,6.95,0,10.43.08,3.81-6.2,4.36-9,2.9a1.63,1.63,0,0,1-.83-.75Z"/><path class="cls-8" d="M10.6,49.51c-.94-1.56-.74-6.5.22-7.25,1.13-.88,3.87-.57,3.9.55.06,2.93,0,6.78,0,10.42.07,3.1-6.12,3.5-8.22,1.9Z"/><path class="cls-5" d="M10,45.62c.06-1.48.34-2.84.81-3.22a3.63,3.63,0,0,1,3.2-.25,21.84,21.84,0,0,1-.05,3.26C13.79,46.32,11.16,46.17,10,45.62Z"/><path class="cls-7" d="M6.32,44.58a7.38,7.38,0,0,1,1.88-.29c1.29-.06,4.74.2,5,1.89a22.26,22.26,0,0,1,0,7.33c-.32,2-5.07,2-5.82,1.12l-.86.51-.79.24a19.45,19.45,0,0,1-.71-3.8,22.15,22.15,0,0,1,0-4.23C5.08,46.45,5.29,44.88,6.32,44.58Z"/><path class="cls-8" d="M6.54,45.37c2.37-.68,5.72.06,5.88,1a21.39,21.39,0,0,1,0,7c-.17,1.08-4.22,2.18-5.88,1.76C5.52,51.76,5.46,45.69,6.54,45.37Z"/><path class="cls-5" d="M6.54,45.37a8.72,8.72,0,0,1,4.87.17,22.21,22.21,0,0,1-.07,6.81c-.14,1-3.13,1.94-5,1.92C5.52,50.83,5.55,45.67,6.54,45.37Z"/><path class="cls-7" d="M5.36,49.89a15.09,15.09,0,0,1,7.92,0l-.19.74a14.32,14.32,0,0,0-7.52,0Z"/></g><g id="Hand_-_Left" data-name="Hand - Left"><path class="cls-7" d="M42.44,53.93a4.25,4.25,0,1,1-4.26,4.25A4.25,4.25,0,0,1,42.44,53.93Z"/><path class="cls-8" d="M42.44,54.64a3.55,3.55,0,1,1-3.54,3.54A3.55,3.55,0,0,1,42.44,54.64Z"/><path class="cls-5" d="M42.44,54.64A3.55,3.55,0,0,1,46,58.18a3.38,3.38,0,0,1-.07.72,3.47,3.47,0,0,1-1.84.52,3.55,3.55,0,0,1-3.54-3.55,3.38,3.38,0,0,1,.07-.72A3.51,3.51,0,0,1,42.44,54.64Z"/><path class="cls-7" d="M36.29,59.91c-.66-.1-1.3-.37-1.43-1a16.51,16.51,0,0,1-.18-3.78c0-.85,1-1.19,1.81-1.36A4.71,4.71,0,0,1,39,52.22a11.09,11.09,0,0,1,4.48.77c1.41.5,1.37,3.18,1.32,4.39,0,1-.22,3.34-1.06,4-1.51,1.28-6.84,1.39-7.21-.46A9.93,9.93,0,0,1,36.29,59.91Z"/><path class="cls-7" d="M39.22,54.55a12.18,12.18,0,0,1,0,4.3c-.21.77-1.38.84-2,.84s-1.91,0-2-.87a15.41,15.41,0,0,1-.19-3.71c.06-.82,1.34-1.08,2-1.18S39,53.66,39.22,54.55Z"/><path class="cls-8" d="M38.58,54.71c-.14-.52-2.95-.05-3,.42a15.7,15.7,0,0,0,.18,3.57c.08.44,2.67.47,2.81,0A11.62,11.62,0,0,0,38.58,54.71Z"/><path class="cls-7" d="M43.33,53.26c1.25.42,1.19,3.09,1.14,4.12s-.2,3.21-1,3.84a5.46,5.46,0,0,1-3,.85c-.9,0-3.48,0-3.72-1.17a22.59,22.59,0,0,1-.37-6.36c.07-.91,1.81-1.92,2.62-2.07A11,11,0,0,1,43.33,53.26Z"/><path class="cls-8" d="M43.09,53.86a10.19,10.19,0,0,0-4-.73A3.42,3.42,0,0,0,37,54.61a22,22,0,0,0,.36,6.18c.16.75,4.47,1,5.71-.06C43.89,60.06,44.28,54.19,43.09,53.86Z"/><path class="cls-5" d="M43.09,53.86a10.92,10.92,0,0,0-3.88-.75v7.15a9.13,9.13,0,0,0,4.29-.44C44,58,44,54.13,43.09,53.86Zm-5.77.31a1.07,1.07,0,0,0-.29.42,22,22,0,0,0,.36,6.19c.16.75,4.47,1,5.71-.06a.86.86,0,0,0,.2-.27c-1.33,1-5.51.75-5.66,0a22.28,22.28,0,0,1-.35-6.17A.21.21,0,0,1,37.32,54.17Z"/><path class="cls-7" d="M36.6,57.26a8.58,8.58,0,0,1,2.93-.62c.21,0,.18.7,0,.7a8.1,8.1,0,0,0-2.75.58Z"/><path class="cls-9" d="M43.5,59.82c-.34-.14-.69-.3-1.07-.48a.24.24,0,0,1-.12-.22,17.92,17.92,0,0,0,0-4,.21.21,0,0,1,.13-.22c.38-.18.75-.34,1.11-.47a.49.49,0,0,1,.12.41c-.34.12-.66.26-1,.39a17.78,17.78,0,0,1,0,3.79l.9.4A.54.54,0,0,1,43.5,59.82Z"/></g></g></svg>