<?xml version="1.0" encoding="UTF-8"?><svg xmlns="http://www.w3.org/2000/svg" viewBox="0 0 64 64"><title>Thrive Architect icon - Uncanny Automator</title><g id="a"><rect width="64" height="64" style="fill:none; stroke-width:0px;"/></g><g id="b"><path d="m42.28,0c.25,2.11,1.2,4,1.89,5.96,6.39,18.21,12.82,36.39,19.24,54.59.75,2.12.59,2.4-1.71,2.12-7.87-.96-13.25-5.23-15.95-12.65-3.41-9.36-6.65-18.78-9.97-28.17-.19-.53-.39-1.05-.71-1.94-.52,1.38-.93,2.44-1.31,3.51-1.58,4.45-3.17,8.9-4.69,13.37-.29.86-.7,1.28-1.62,1.44-4.66.83-9.28,1.83-13.59,3.9-.13.06-.33,0-.66,0,1.98-5.61,3.93-11.15,5.88-16.68,2.82-8,5.64-16,8.45-24C27.7,1,28.01.55,27.89,0h14.39Z" style="fill:#424242; stroke-width:0px;"/><path d="m22.62,46.54c-2.92.51-5.61,1.71-8.16,3.17-5.65,3.24-10.56,7.22-12.92,13.6-.12.33-.14.87-.75.63-.71-.28-.59-.9-.57-1.46.16-3.99,1.78-7.38,4.31-10.39,3.67-4.37,8.4-7.27,13.78-8.84,2.98-.87,5.99-1.79,9.22-2,2.11-.14,4.31-.64,6.48-.84,1-.09,2.06-.15,3.03.46-3.34,1.2-5.03,4.01-6.69,6.78-1.17,1.95-2.22,3.98-3.35,5.96-2.94,5.18-7.66,7.42-13.22,8.4-1.8.32-3.62.44-5.45.48-1.95.04-1.92.06-1.13-1.64,2.95-6.35,7.88-10.65,14.09-13.62.45-.22.89-.47,1.33-.7Z" style="fill:#59a21d; stroke-width:0px;"/></g></svg>