<?xml version="1.0" encoding="UTF-8"?><svg id="Layer_1" xmlns="http://www.w3.org/2000/svg" viewBox="0 0 64 64"><defs><style>.cls-1{fill:none;}.cls-2{isolation:isolate;opacity:.4;}.cls-2,.cls-3{fill:#0790e8;}</style></defs><rect class="cls-1" width="64" height="64"/><path class="cls-2" d="M17.46,20.37c0-2.14,1.74-3.88,3.88-3.88h17.45c2.14,0,3.88,1.74,3.88,3.88v23.27c0,2.14-1.74,3.88-3.88,3.88h-17.45c-2.14,0-3.88-1.74-3.88-3.88v-23.27ZM23.28,38.79c0,.53.44.97.97.97h11.63c.53,0,.97-.44.97-.97,0-2.68-2.17-4.85-4.85-4.85h-3.88c-2.68,0-4.85,2.17-4.85,4.85ZM26.18,28.12c0,2.14,1.74,3.88,3.88,3.88s3.88-1.74,3.88-3.88-1.74-3.88-3.88-3.88-3.88,1.74-3.88,3.88Z"/><path class="cls-3" d="M45.57,20.37c.53,0,.97.44.97.97v3.88c0,.53-.44.97-.97.97s-.97-.44-.97-.97v-3.88c0-.53.44-.97.97-.97ZM45.57,28.12c.53,0,.97.44.97.97v3.88c0,.53-.44.97-.97.97s-.97-.44-.97-.97v-3.88c0-.53.44-.97.97-.97ZM46.54,36.85v3.88c0,.53-.44.97-.97.97s-.97-.44-.97-.97v-3.88c0-.53.44-.97.97-.97s.97.44.97.97ZM23.28,38.79c0-2.68,2.17-4.85,4.85-4.85h3.88c2.68,0,4.85,2.17,4.85,4.85,0,.53-.44.97-.97.97h-11.63c-.53,0-.97-.44-.97-.97ZM30.06,24.24c2.14,0,3.88,1.74,3.88,3.88s-1.74,3.88-3.88,3.88-3.88-1.74-3.88-3.88,1.74-3.88,3.88-3.88Z"/></svg>