<?xml version="1.0" encoding="UTF-8"?><svg id="Layer_1" xmlns="http://www.w3.org/2000/svg" viewBox="0 0 64 64"><defs><style>.cls-1{fill:none;}.cls-2{isolation:isolate;opacity:.4;}.cls-2,.cls-3{fill:#0790e8;}</style></defs><rect class="cls-1" width="64" height="64"/><path class="cls-3" d="M26.11,20.35l5.97,6.43,5.91-6.43c.13-.2.46-.2.66-.07.26.2.33.46.13.72l-3.74,6.24,9.65.79c.26.07.46.26.46.53,0,.33-.2.53-.46.53l-12.6,1.05h-.07l-12.6-1.05c-.26,0-.46-.2-.46-.53,0-.26.2-.46.46-.53l9.65-.79-3.74-6.24c-.13-.26-.13-.59.13-.72.2-.13.53-.13.66.07Z"/><path class="cls-2" d="M15.53,27.63l7.35-9.98c.33-.39.79-.66,1.31-.66h15.75c.46,0,.92.26,1.25.66l7.35,9.98c.2.33.33.66.33.98s-.2.72-.46,1.05l-15.23,16.81c-.26.33-.72.53-1.12.53-.46,0-.92-.2-1.18-.53l-15.23-16.81c-.53-.59-.59-1.44-.13-2.04ZM18.94,28.49v.26c0,.07.07.13.13.2s.2.13.33.13c4.2.39,8.4.72,12.6,1.05h.07c4.2-.33,8.4-.66,12.6-1.05.26,0,.53-.2.53-.53,0-.26-.26-.46-.53-.53-3.22-.26-6.43-.53-9.65-.79,1.25-2.1,2.49-4.2,3.74-6.24.2-.26.13-.59-.13-.72-.2-.13-.53-.13-.66.07-1.97,2.17-3.94,4.27-5.91,6.43-1.97-2.17-4-4.27-5.97-6.43-.13-.2-.46-.2-.66-.07-.26.13-.26.46-.13.72l3.74,6.24c-3.22.26-6.43.53-9.65.79-.13.07-.26.13-.33.2-.07.07-.07.13-.13.2v.07Z"/></svg>