<?xml version="1.0" encoding="UTF-8"?><svg id="Layer_1" xmlns="http://www.w3.org/2000/svg" viewBox="0 0 64 64"><defs><style>.cls-1{fill:none;}.cls-2{isolation:isolate;opacity:.4;}.cls-2,.cls-3{fill:#0790e8;}</style></defs><rect class="cls-1" width="64" height="64"/><path class="cls-3" d="M30.59,17.31c.88-.41,1.88-.41,2.76,0l12.84,5.92c.47.23.82.7.82,1.23,0,.59-.35,1.06-.82,1.29l-12.84,5.92c-.88.41-1.88.41-2.76,0l-12.84-5.92c-.47-.23-.76-.7-.76-1.29,0-.53.29-1,.76-1.23l12.84-5.92ZM43.03,36.78l3.17,1.47c.47.23.82.7.82,1.23,0,.59-.35,1.06-.82,1.29l-12.84,5.92c-.88.41-1.88.41-2.76,0l-12.84-5.92c-.47-.23-.76-.7-.76-1.29,0-.53.29-1,.76-1.23l3.17-1.47,8.91,4.11c1.35.65,2.93.65,4.28,0l8.91-4.11Z"/><path class="cls-2" d="M16.99,31.97c0-.53.29-1,.76-1.23l3.17-1.47,8.91,4.11c1.35.65,2.93.65,4.28,0l8.91-4.11,3.17,1.47c.47.23.82.7.82,1.23,0,.59-.35,1.06-.82,1.29l-12.84,5.92c-.41.23-.88.29-1.35.29s-.94-.06-1.41-.29l-12.84-5.92c-.47-.23-.76-.7-.76-1.29Z"/></svg>