<?xml version="1.0" encoding="UTF-8"?><svg id="Layer_1" xmlns="http://www.w3.org/2000/svg" viewBox="0 0 64 64"><defs><style>.cls-1{fill:none;}.cls-2{isolation:isolate;opacity:.4;}.cls-2,.cls-3{fill:#0790e8;}</style></defs><rect class="cls-1" width="64" height="64"/><path class="cls-3" d="M25.66,32.05c-1.4,0-2.68-.73-3.41-1.95-.67-1.16-.67-2.68,0-3.89.73-1.16,2.01-1.95,3.41-1.95s2.62.79,3.35,1.95c.67,1.22.67,2.74,0,3.89-.73,1.22-2.01,1.95-3.35,1.95ZM23.72,34h3.89c2.68,0,4.87,2.19,4.87,4.87,0,.55-.49.97-.97.97h-11.68c-.55,0-.97-.43-.97-.97,0-2.68,2.13-4.87,4.87-4.87Z"/><path class="cls-2" d="M14.95,22.32c0-2.13,1.7-3.89,3.89-3.89h27.26c2.13,0,3.89,1.76,3.89,3.89v19.47c0,2.19-1.76,3.89-3.89,3.89h-27.26c-2.19,0-3.89-1.7-3.89-3.89v-19.47ZM18.85,38.87c0,.55.43.97.97.97h11.68c.49,0,.97-.43.97-.97,0-2.68-2.19-4.87-4.87-4.87h-3.89c-2.74,0-4.87,2.19-4.87,4.87ZM29.56,28.16c0-1.34-.79-2.62-1.95-3.35-1.22-.67-2.74-.67-3.89,0-1.22.73-1.95,2.01-1.95,3.35s.73,2.68,1.95,3.41c1.16.67,2.68.67,3.89,0,1.16-.73,1.95-2.01,1.95-3.41ZM36.37,27.19c0,.55.43.97.97.97h7.79c.49,0,.97-.43.97-.97,0-.49-.49-.97-.97-.97h-7.79c-.55,0-.97.49-.97.97ZM36.37,31.08c0,.55.43.97.97.97h7.79c.49,0,.97-.43.97-.97,0-.49-.49-.97-.97-.97h-7.79c-.55,0-.97.49-.97.97ZM36.37,34.97c0,.55.43.97.97.97h7.79c.49,0,.97-.43.97-.97,0-.49-.49-.97-.97-.97h-7.79c-.55,0-.97.49-.97.97Z"/></svg>