<?xml version="1.0" encoding="UTF-8"?><svg id="Layer_1" xmlns="http://www.w3.org/2000/svg" viewBox="0 0 64 64"><defs><style>.cls-1{fill:none;}.cls-2{fill:#d3e8ef;}.cls-2,.cls-3,.cls-4,.cls-5,.cls-6,.cls-7,.cls-8,.cls-9,.cls-10,.cls-11,.cls-12,.cls-13,.cls-14,.cls-15{fill-rule:evenodd;}.cls-3{fill:#57b6ff;}.cls-4{fill:#fff;}.cls-5{fill:#bdd6de;}.cls-6{fill:#7eaaba;}.cls-7{fill:#008bf6;}.cls-8{fill:#598291;}.cls-9{fill:#3c942c;}.cls-10{fill:#2d3956;}.cls-11{fill:#82e371;}.cls-12{fill:#1e2432;}.cls-13{fill:#006cbf;}.cls-14{fill:#385661;}.cls-15{fill:#0b87e8;}</style></defs><rect class="cls-1" width="64" height="64"/><g id="Layer_3"><g id="Circle"><path class="cls-7" d="M31.49,21.36c8.34,0,15.1,6.76,15.1,15.1s-6.76,15.1-15.1,15.1-15.1-6.76-15.1-15.1c0-8.34,6.75-15.1,15.09-15.1,0,0,0,0,.01,0Z"/><path class="cls-3" d="M24.6,49.33c.36-.05.73,0,1.07.12,5.6,2.28,12.03.88,16.17-3.53.31-.29.71-.44,1.13-.44-2.77,3.52-7,5.57-11.48,5.57-2.41,0-4.78-.59-6.89-1.73Z"/><path class="cls-13" d="M31.52,21.36c.46,0,.92.03,1.37.07-.36.07-.73.07-1.09,0-.1-.01-.19-.04-.28-.07ZM22.69,48.73c-2.53-1.81-4.43-4.35-5.46-7.28h.31c.16-.02.32-.02.48,0,.03-.56.24-1.09.61-1.5.2-.15.42-.26.67-.32-.49-.47-.8-1.1-.87-1.77,0-.24-.03-.48-.04-.74l-1.55-.82c-.17-.08-.32-.2-.45-.34.07-2.28.67-4.51,1.73-6.52l1.35-.12c.29-1.13.67-2.23,1.12-3.31.95-.99,2.03-1.85,3.21-2.55.37-.07.73-.11,1.06-.14,1.51-.11,3.02-.1,4.53.05.55.04,1.09.11,1.64.17.07-.18.15-.36.24-.54.37-.71,2.38-.46,3.32-.29-.04-.37-.13-.73-.26-1.08.34.06.67.14,1.01.22.09.34.14.69.16,1.04,1,.24,2.58.73,2.66,1.44v.61c.53.14,1.06.29,1.58.46,1.06.31,2.1.68,3.11,1.11,3.77,4.31,4.78,10.37,2.62,15.67l-.7.06c-.1.23-.21.46-.31.67-.56,1.14-1.98,1.59-3.14,1.8-1.6.24-3.23.3-4.84.16-1.93-.13-3.85-.38-5.74-.76-1.9-.36-3.78-.85-5.62-1.45-1.09-.35-2.15-.78-3.18-1.28v2.63c.47.3.85.72,1.1,1.22.9-.07,1.76-.43,2.44-1.03.37-.31,1.43.15,1,1.41-.48,1.73-1.99,2.97-3.78,3.11Z"/><path class="cls-4" d="M31.49,24.53c6.58,0,11.91,5.34,11.91,11.92,0,6.58-5.34,11.91-11.92,11.91-6.58,0-11.91-5.34-11.91-11.92,0-6.58,5.34-11.92,11.92-11.92Z"/></g><g id="Arm_-_Right"><path class="cls-14" d="M26,42.18c-1.38,1.34-3.46,1.66-5.18.79l-1.7,3.39c2.43,1.34,6.77,1.53,7.99-2.74.42-1.36-.73-1.78-1.11-1.44Z"/><path class="cls-14" d="M26.33,42.6c-1.4,1.34-3.45,1.75-5.26,1.04l-1.22,2.47c.87.38,1.81.56,2.76.54,1.93.02,3.61-1.3,4.03-3.18.1-.25.08-.53-.07-.76-.06-.07-.15-.12-.24-.12Z"/><path class="cls-8" d="M24.71,43.61c-1.17.45-2.47.45-3.64,0l-.51,1.03c1.37.59,2.94.43,4.16-.42.32-.26.24-.61-.02-.61Z"/></g><g id="Arm_-_Left"><path class="cls-14" d="M35.11,44.22c1.09.87,1.84,2.1,2.13,3.47l2.88-.79c-.75-2.16-2.9-4.28-5-4.47v1.79Z"/><path class="cls-14" d="M35.67,43.96c.93.81,1.62,1.87,1.97,3.06l1.78-.48c-.7-1.65-2.02-2.97-3.67-3.67l-.09,1.09Z"/><path class="cls-8" d="M38.57,46.76l.83-.23c-.54-1.15-1.35-2.16-2.37-2.92-.12.1-.06.34.07.48.71.75,1.22,1.67,1.47,2.67Z"/></g><path class="cls-8" d="M27.17,47.56c0-.24-.04-.49-.06-.75-.06-.41.12-.81.46-1.03.75-.37,1.55-.64,2.38-.78l.61-.13h.2l.61.13c.83.14,1.63.4,2.38.78.35.22.53.63.46,1.03,0,.29-.04.57-.07.86,0,.13,0,.26-.04.4-.88.2-1.77.3-2.67.3-1.46,0-2.91-.28-4.27-.81Z"/><path class="cls-2" d="M27.67,47.74c-.04-.31-.05-.61-.08-.97-.06-.24.04-.48.24-.61.91-.41,1.88-.69,2.87-.84.99.15,1.95.43,2.86.84.2.13.3.38.24.61,0,.49-.06.92-.12,1.39-.72.13-1.45.2-2.18.2-1.3,0-2.6-.21-3.83-.63Z"/><path class="cls-4" d="M28.34,45.95c.77-.26,1.55-.46,2.35-.61v3.01c-.74-.05-1.47-.17-2.18-.35-.05-.68-.11-1.37-.16-2.05Z"/><path class="cls-8" d="M25.67,46.86c-.12-.61-.21-1.28-.28-1.92-.04-.43-.07-.87-.1-1.3-.1-.61.18-1.23.7-1.56,1.13-.55,2.33-.94,3.56-1.16l.97-.21h.3l.96.21c1.24.22,2.45.61,3.59,1.16.52.32.8.93.71,1.53,0,.43-.05.87-.1,1.3-.09.92-.24,1.84-.45,2.74-3.25,1.18-6.85.88-9.87-.81v.02Z"/><path class="cls-8" d="M26.5,47.28c-.26-1.21-.42-2.43-.48-3.67-.07-.35.07-.71.37-.9.83-.53,2.68-.94,4.31-1.29,1.63.35,3.48.76,4.31,1.29.3.19.44.55.37.9-.06,1.43-.27,2.85-.61,4.23,0,0,0,.06-.04.12-2.74.76-5.66.51-8.24-.68Z"/><path class="cls-6" d="M27.51,47.69c-.25-1.35-.4-2.71-.44-4.08-.07-.33.03-.67.27-.9.64-.52,2.08-.93,3.35-1.28,1.26.35,2.69.76,3.34,1.28.25.23.35.57.28.9-.05,1.41-.21,2.81-.48,4.2-.03.13-.08.25-.16.36-.73.13-1.46.2-2.2.2-1.35,0-2.69-.23-3.97-.68Z"/><path class="cls-2" d="M26.21,45.72c-.1-.73-.15-1.37-.2-2.13-.07-.35.07-.71.37-.9.83-.53,2.68-.94,4.31-1.29,1.63.35,3.48.76,4.31,1.29.3.19.44.55.37.9-.05.76-.1,1.41-.2,2.13-.75.16-1.51.28-2.27.35-.08,0-.14.07-.15.14-.05.4-.26.76-.57,1.01-.43.31-.95.47-1.48.44-.54.03-1.07-.13-1.5-.44-.31-.25-.51-.62-.56-1.01,0-.08-.07-.14-.15-.14-.77-.07-1.53-.18-2.28-.35Z"/><path class="cls-4" d="M30.69,41.4h0c1.26.35,2.69.76,3.34,1.29.26.23.36.59.28.92-.04.84-.08,1.52-.17,2.33-.39.06-.8.12-1.22.15-.08,0-.14.06-.15.14-.15,1.05-1.06,1.47-2.05,1.47s-1.91-.41-2.07-1.47c0-.08-.07-.14-.15-.14-.43-.04-.85-.09-1.22-.15-.15-.83-.15-1.52-.21-2.33-.06-.33.04-.67.28-.9.66-.55,2.09-.93,3.35-1.31Z"/><path class="cls-15" d="M29.28,44.19h.73c.09,0,.17.08.16.17v1.44c0,.15.03.29.12.41.11.09.25.13.4.12.14.01.28-.03.38-.12.09-.12.13-.26.12-.41v-1.44c0-.09.08-.17.17-.17h.73c.09,0,.17.07.17.16,0,0,0,0,0,0v1.53c.02.37-.13.72-.4.96-.34.24-.75.36-1.17.33-.41.02-.81-.09-1.14-.33-.28-.24-.43-.59-.4-.96v-1.53c0-.08.05-.16.13-.17Z"/><path class="cls-3" d="M29.28,44.27s-.09.04-.09.09v1.53c-.03.34.11.67.36.89.33.23.72.34,1.12.32v-.67c-.16.01-.33-.04-.45-.15-.11-.13-.16-.3-.14-.46v-1.44s-.04-.08-.09-.09h-.72Z"/><g id="Bow_Tie"><path class="cls-9" d="M31.09,41.28l-.37,1.48c.32.53,1.58,1.22,2.19,1.47.21.14.5.11.68-.06.45-.47.82-1.77.91-2.89h-3.42Z"/><path class="cls-9" d="M34.09,41.28c0,.23-.05.46-.08.67-.08.69-.33,1.36-.71,1.94,0,.02-.02.03-.04.03-.07,0-.14-.02-.21-.05-.7-.29-1.35-.69-1.91-1.19l.35-1.41h2.6Z"/><path class="cls-11" d="M33.84,42.64c-.09.45-.28.88-.55,1.26,0,.02-.02.03-.04.03-.07,0-.14-.02-.21-.05-.66-.27-1.28-.65-1.83-1.11h.27c.31.2.65.34,1,.42-.15-.14-.29-.28-.43-.44.61-.03,1.21-.06,1.78-.12Z"/><path class="cls-9" d="M30.25,41.28l.37,1.48c-.31.53-1.58,1.22-2.19,1.47-.21.14-.5.11-.68-.06-.45-.47-.81-1.77-.9-2.89h3.42Z"/><path class="cls-9" d="M27.24,41.28c0,.23.05.46.09.67.09.69.33,1.36.7,1.94,0,.02.03.03.04.03.07,0,.14-.02.21-.05.7-.29,1.35-.69,1.92-1.19l-.35-1.41h-2.6Z"/><path class="cls-11" d="M27.47,42.64c.09.45.28.88.55,1.26,0,.02.03.03.04.03.07,0,.14-.02.21-.05.66-.27,1.28-.65,1.83-1.11h-.28c-.31.2-.65.34-1,.42.15-.13.29-.28.42-.44-.58-.03-1.18-.06-1.77-.12Z"/><path class="cls-9" d="M31.93,41.28c-.02.65-.12,1.29-.28,1.91-.59.42-1.38.42-1.97,0-.16-.63-.26-1.27-.28-1.91h2.53Z"/><path class="cls-9" d="M29.73,41.42c.03.54.11,1.08.23,1.61.44.24.97.24,1.41,0,.12-.53.2-1.07.23-1.61h-1.86Z"/><path class="cls-11" d="M29.88,42.64c0,.13.05.26.09.39.44.24.97.24,1.41,0,.03-.13.06-.27.09-.41h-1.01l-.57.02Z"/></g><g id="Head"><path class="cls-8" d="M17.44,27.29l3.56-.38-1.22,9.22-3.37-1.64c-.37-.15-.64-.48-.73-.87-.35-1.96-.06-3.99.81-5.78.17-.32.36-.48.95-.54Z"/><path class="cls-2" d="M19.2,34.99l.94-7.22c-.31,0-2.8.26-2.91.35,0,0-.04.07-.05.09-.79,1.64-1.05,3.48-.75,5.27.03.16.14.29.3.34l2.47,1.16Z"/><path class="cls-4" d="M19.2,34.99l.06-.51-2.54-1.04c-.19-.09-.33-.78-.42-1.55-.02.53.03,1.06.13,1.58.04.15.15.27.29.32l2.46,1.2ZM19.59,31.94l.54-4.17c-.32,0-2.81.26-2.91.35-.02.03-.04.06-.05.09-.38.79-.64,1.64-.78,2.51l3.2,1.23Z"/><path class="cls-2" d="M16.66,29.56l.98.85c.14.12.21.3.19.48-.1,1.02-.23,2-.26,3.35-.15-1.15-.2-2.3-.16-3.46,0-.04,0-.07-.03-.1l-.67-.61-.09-.35c0-.05.01-.11.02-.16Z"/><path class="cls-6" d="M16.61,29.71l.85.75c.14.12.21.29.19.47-.1.95-.13,1.9-.1,2.85,0,.14,0,.29.03.42l-.43-.21v-.21c-.04-.97,0-1.95.1-2.91,0-.04-.01-.08-.04-.1l-.69-.61c.02-.15.05-.3.1-.45Z"/><path class="cls-8" d="M33.08,15.5c2.44,2.2,2.6,5,1.48,7.94l-.87-.34c.97-2.58.91-4.99-1.22-6.92l.61-.68Z"/><path class="cls-9" d="M32.31,12.49c1.56.27,2.59,1.76,2.32,3.31-.27,1.56-1.76,2.59-3.31,2.32-1.56-.27-2.59-1.76-2.32-3.31.27-1.56,1.76-2.6,3.31-2.32,0,0,0,0,0,0Z"/><path class="cls-9" d="M32.2,13.06c1.24.23,2.05,1.41,1.83,2.65s-1.41,2.05-2.65,1.83c-1.23-.23-2.05-1.41-1.83-2.64.22-1.23,1.4-2.06,2.63-1.84,0,0,.01,0,.02,0Z"/><path class="cls-11" d="M33.84,14.22c.61,1.1.21,2.48-.88,3.09-1.1.61-2.48.21-3.09-.88-.08-.15-.15-.3-.19-.46.59,1.11,1.97,1.52,3.08.92.61-.33,1.04-.92,1.16-1.61.05-.36.03-.72-.07-1.06ZM31.65,13.25c.79-.04,1.34.46,1.22,1.1-.22.72-.87,1.21-1.63,1.22-.79.04-1.33-.45-1.22-1.09.22-.72.87-1.22,1.63-1.23Z"/><path class="cls-13" d="M33.58,25.06c-.78-.14-3.37-.68-3.46-1.7-.06-1.23.17-2.46.67-3.58.42-.85,3.06-.45,3.78-.32s3.34.66,3.44,1.59c.08,1.24-.13,2.47-.61,3.61-.42.9-3.04.53-3.81.39Z"/><path class="cls-13" d="M37.35,21.14c-.27-.48-2.36-.93-2.9-1.03-.57-.1-1.14-.17-1.71-.2-.46-.04-.93.02-1.37.16-.45,1.01-.66,2.11-.61,3.21.05.23,1.01.61,1.22.68,1.11.38,3.24.77,4.4.53.14-.03.27-.07.38-.14.44-1.02.64-2.12.58-3.23Z"/><path class="cls-3" d="M34.45,20.11c-.57-.1-1.14-.17-1.71-.2-.46-.03-.93.02-1.37.16-.44,1.01-.65,2.11-.61,3.21.03.09.24.23.32.28.82.41,1.69.69,2.6.81l.78-4.28Z"/><path class="cls-8" d="M47.97,32.67l-3.23-1.58-2.02,9.07,3.75-.38c.4-.02.76-.23.98-.56,1-1.73,1.43-3.73,1.22-5.71-.04-.36-.16-.58-.7-.84Z"/><path class="cls-2" d="M43.69,39.33l1.58-7.11c.28.13,2.55,1.22,2.62,1.32,0,.04,0,.07,0,.11.19,1.81-.2,3.62-1.1,5.2-.08.13-.23.21-.38.2l-2.71.28Z"/><path class="cls-4" d="M43.69,39.33l.11-.49,2.76-.12c.21,0,.57-.61.92-1.31-.16.51-.39.99-.67,1.44-.08.13-.23.21-.38.2l-2.74.29ZM44.35,36.33l.91-4.11c.27.13,2.55,1.22,2.62,1.32s0,.09,0,.1c.09.87.04,1.76-.13,2.62l-3.39.07Z"/><path class="cls-2" d="M47.93,35.06l-1.22.47c-.17.06-.3.21-.33.38-.26,1-.48,1.95-.91,3.24.53-1.02.97-2.08,1.33-3.18,0-.04.03-.07.06-.08l.86-.35.2-.31c.01-.06.02-.12.02-.18Z"/><path class="cls-6" d="M47.89,35.24l-1.02.43c-.17.06-.3.21-.34.38-.23.91-.53,1.8-.89,2.67-.06.13-.12.26-.17.39l.48-.05c0-.06.06-.13.09-.2.37-.9.67-1.83.9-2.77,0-.04.03-.07.06-.09l.89-.34v-.43Z"/><path class="cls-8" d="M30.53,42.3c-1.91-.33-3.8-.79-5.65-1.37-1.56-.47-3.05-1.12-4.45-1.95-1.01-.61-2.17-1.59-2.27-2.92-.29-3.87.79-9.98,2.48-13.44.65-1.32,2.52-1.71,3.79-1.88,1.51-.16,3.03-.18,4.54-.06,1.76.12,3.51.33,5.25.64,1.74.31,3.47.72,5.16,1.22,1.46.41,2.88.95,4.25,1.61,1.14.61,2.76,1.59,2.91,3.06.41,3.86-.67,9.97-2.27,13.52-.54,1.22-1.97,1.72-3.13,1.96-1.61.3-3.25.4-4.89.3-1.93-.1-3.85-.33-5.74-.69Z"/><path class="cls-5" d="M30.69,41.4c-3.86-.68-7.64-1.83-9.78-3.19-1.11-.7-1.83-1.45-1.83-2.22-.27-3.59.73-9.56,2.4-12.99.36-.73,1.5-1.17,3.1-1.37,2.44-.31,6.04-.05,9.55.57s6.95,1.59,9.17,2.73c1.44.74,2.36,1.53,2.44,2.35.4,3.78-.71,9.75-2.19,13.02-.32.7-1.22,1.17-2.51,1.45-2.54.54-6.48.34-10.34-.35Z"/><path class="cls-4" d="M19.25,31.02c.32-2.77,1.06-5.47,2.18-8.02.36-.73,1.5-1.17,3.1-1.37,2.44-.31,6.04-.05,9.55.57s6.95,1.59,9.17,2.73c1.44.74,2.36,1.53,2.44,2.35.18,2.78-.06,5.57-.7,8.28-.54.16-1.09.26-1.64.3-.23,0-.46.04-.71.05.66-1.94,1.04-3.96,1.14-6,0-.38-.24-.49-.61-.61-1.87-.71-3.79-1.28-5.74-1.72-.14-.03-.29.04-.36.17-.39.88-.85,1.72-1.39,2.52-.61.67-5.46-.18-5.81-1.03-.24-.94-.4-1.9-.47-2.87-.02-.14-.14-.26-.28-.27-1.98-.26-3.98-.38-5.98-.35-.38,0-.67,0-.79.38-.6,1.96-.93,3.99-.98,6.03l-.64-.29c-.52-.23-1.01-.51-1.47-.84ZM30.69,41.41c-3.86-.68-7.64-1.83-9.78-3.19-1.11-.7-1.83-1.45-1.83-2.22v-.43c.07.2.16.38.29.54.4.65.96,1.19,1.63,1.56,2.18,1.34,5.95,2.47,9.81,3.15,3.86.68,7.8.9,10.3.39.78-.11,1.51-.43,2.13-.91.17-.11.33-.25.46-.41-.07.13-.12.26-.18.39-.31.7-1.22,1.17-2.51,1.45-2.54.54-6.48.34-10.33-.35h0Z"/><path class="cls-5" d="M28.45,21.54c.25.62.55,1.22.9,1.78,1.36.62,2.8,1.04,4.28,1.26,1.47.31,2.98.41,4.49.29.46-.37,1.02-.92,1.47-1.36-.3.72-.76,1.36-1.35,1.86-1.57.13-3.14.04-4.68-.28-1.56-.22-3.07-.67-4.5-1.34-.32-.7-.53-1.45-.6-2.22Z"/><path class="cls-6" d="M28.45,21.54c.14.7.38,1.38.73,2.01,1.41.64,2.9,1.07,4.44,1.3,1.52.31,3.07.41,4.62.3.54-.47,1-1.02,1.37-1.64l.5.16c-.37.61-1.19,1.77-1.75,1.99-1.61.13-3.24.04-4.83-.29-1.61-.23-3.17-.7-4.64-1.37-.44-.4-.82-1.8-.97-2.44.17-.01.35,0,.53,0Z"/><path class="cls-12" d="M32.5,31.18c1.19.21,2.86.28,3.18-.2.55-1.07,1.01-2.19,1.38-3.34.04-.15.2-.25.35-.22,2.13.49,4.22,1.16,6.24,2.01.37.16.65.29.61.78-.21,3.26-.93,6.48-2.13,9.52-.18.4-1.3.71-1.64.79-1.4.28-2.82.38-4.25.3-1.8-.08-3.59-.28-5.36-.61-1.77-.3-3.52-.73-5.23-1.28-1.37-.41-2.67-.99-3.89-1.73-.29-.2-1.22-.87-1.26-1.31-.08-3.27.35-6.53,1.26-9.67.13-.47.44-.5.84-.52,2.18-.11,4.37-.03,6.54.24.16.02.28.16.27.32-.06,1.22,0,2.43.15,3.64.15.56,1.75,1.07,2.94,1.28Z"/><path class="cls-10" d="M43.8,29.87c-.1,1.75-.37,3.48-.79,5.18-.26.99-.76.92-1.83,1.06-4.45.55-14.49-1.22-18.48-3.26-.97-.49-1.47-.89-1.37-1.62.22-1.74.57-3.47,1.03-5.16,0-.12.19-.16.29-.17,2.17-.1,4.35-.02,6.51.24.05.01.09.06.09.11-.03.37-.03.73-.03,1.1.02.86.08,1.72.19,2.57.18.81,2.33,1.3,3.06,1.42.72.12,2.93.4,3.38-.29.06-.09.11-.19.15-.29.49-1,.9-2.04,1.22-3.1.01-.05.06-.08.12-.08,2.12.49,4.2,1.16,6.2,2,.13.06.28.18.27.29ZM20.69,35.47v.42c0,.32.9.98,1.17,1.15,3.91,2.55,14.02,4.34,18.57,3.28.32-.07,1.37-.38,1.5-.68.05-.12.11-.26.17-.38-.42.21-.87.37-1.33.47-4.66,1.06-14.99-.76-19.01-3.35-.4-.25-.76-.56-1.07-.91Z"/><path class="cls-11" d="M24.95,30.61c-.33.93-.5,1.91-.51,2.9,0,1.44,2.6,1.92,3.01.53.29-.94.46-1.92.51-2.9.09-1.44-2.53-1.89-3.01-.53ZM39.78,33.22c-.01.99-.19,1.97-.51,2.9-.48,1.37-3.1.92-3.01-.53.06-.98.23-1.95.51-2.9.41-1.39,3.02-.92,3.01.53Z"/><path class="cls-11" d="M33.65,36.93c-.54,2.44-4.28,1.77-3.95-.69,1.24.56,2.59.8,3.95.69Z"/></g><g id="Hand_-_Right"><path class="cls-8" d="M20.34,41.57c1.82,0,3.3,1.47,3.31,3.29,0,1.82-1.47,3.3-3.29,3.31-1.82,0-3.3-1.47-3.31-3.29,0,0,0,0,0-.01,0-1.82,1.48-3.29,3.29-3.29Z"/><path class="cls-2" d="M20.34,42.12c1.52,0,2.74,1.23,2.74,2.74s-1.23,2.74-2.74,2.74-2.74-1.23-2.74-2.74,1.23-2.74,2.74-2.74h0Z"/><path class="cls-4" d="M20.34,42.12c1.52,0,2.74,1.23,2.74,2.74h0c0,.31-.05.63-.15.92-.53.2-1.09.29-1.66.29-1.69,0-3.11-.84-3.57-1.98.34-1.17,1.42-1.97,2.63-1.97Z"/><path class="cls-8" d="M17.95,39.33c.04-.59.28-1.16.68-1.59.43-.3.94-.46,1.47-.45.81,0,1.99.31,2,1.3.04,2.12,0,4.28,0,6.37.02.38-.07.77-.26,1.1-.98,1.5-3.99,1.58-5.43.81-.27-.1-.48-.3-.61-.56-.45-1.62-.6-3.3-.46-4.97.06-.61.21-1.62.92-1.83.39-.1.8-.16,1.2-.17h.49Z"/><path class="cls-8" d="M18.34,42.65c-.43-1.12-.46-4.09.4-4.77s3.17-.5,3.21.71c.04,2.13,0,4.25,0,6.37.05,2.33-3.79,2.66-5.5,1.77-.22-.09-.4-.25-.51-.46l2.4-3.63Z"/><path class="cls-2" d="M18.92,42.7c-.57-.95-.45-3.97.13-4.43.69-.54,2.36-.35,2.38.34.04,1.79,0,4.14,0,6.37.04,1.89-3.74,2.14-5.02,1.16l2.51-3.43Z"/><path class="cls-4" d="M18.56,40.32c.04-.9.21-1.74.49-1.97.59-.35,1.32-.41,1.96-.15.04.66.03,1.33-.03,1.99-.1.56-1.71.46-2.42.13Z"/><path class="cls-8" d="M16.31,39.69c.37-.11.76-.17,1.15-.18.79-.04,2.9.12,3.06,1.15.25,1.48.25,3,0,4.48-.2,1.22-3.1,1.22-3.56.68l-.53.31-.48.15c-.22-.76-.37-1.54-.43-2.32-.08-.86-.08-1.73,0-2.58.04-.55.16-1.51.79-1.69Z"/><path class="cls-2" d="M16.44,40.17c1.45-.42,3.5.04,3.59.61.23,1.42.23,2.86,0,4.28-.1.66-2.58,1.33-3.59,1.08-.62-2.06-.66-5.77,0-5.96Z"/><path class="cls-4" d="M16.44,40.17c.98-.25,2.01-.21,2.98.1.2,1.38.19,2.78-.04,4.16-.09.61-1.91,1.19-3.06,1.17-.5-2.1-.48-5.26.12-5.44Z"/><path class="cls-8" d="M15.72,42.93c1.58-.43,3.26-.43,4.84,0l-.12.45c-1.5-.41-3.09-.41-4.6,0l-.13-.45Z"/></g><g id="Hand_-_Left"><path class="cls-8" d="M38.38,45.4c1.43,0,2.59,1.17,2.59,2.6,0,1.43-1.17,2.59-2.6,2.59-1.43,0-2.59-1.17-2.59-2.6,0-1.43,1.16-2.6,2.6-2.6,0,0,0,0,0,0Z"/><path class="cls-2" d="M38.38,45.84c1.2,0,2.17.97,2.18,2.16s-.97,2.17-2.16,2.18-2.17-.97-2.18-2.16c0,0,0,0,0-.01,0-1.19.97-2.16,2.16-2.16Z"/><path class="cls-4" d="M38.38,45.84c1.2,0,2.17.97,2.18,2.16h0c0,.15-.01.3-.04.44-.34.21-.73.32-1.12.32-1.2,0-2.16-.97-2.16-2.17,0-.15.01-.3.04-.44.34-.2.72-.31,1.11-.31Z"/><path class="cls-8" d="M34.62,49.06c-.4-.06-.79-.23-.87-.61-.13-.76-.16-1.54-.11-2.31,0-.52.61-.73,1.11-.83.4-.47.93-.8,1.53-.95.94-.03,1.87.13,2.74.47.86.31.84,1.94.81,2.68,0,.61-.13,2.04-.65,2.44-.92.78-4.18.85-4.41-.28-.06-.2-.11-.41-.15-.62Z"/><path class="cls-8" d="M36.41,45.78c.16.87.16,1.76,0,2.63-.13.47-.84.51-1.22.51s-1.17,0-1.22-.53c-.13-.75-.17-1.51-.12-2.27.04-.5.82-.66,1.22-.72s1.2-.16,1.34.38Z"/><path class="cls-2" d="M36.02,45.88c-.09-.32-1.8-.03-1.83.26-.05.73,0,1.46.11,2.18.05.27,1.63.29,1.72,0,.14-.81.14-1.63,0-2.44Z"/><path class="cls-8" d="M38.93,44.99c.76.26.73,1.89.7,2.52s-.12,1.96-.61,2.35c-.55.35-1.18.53-1.83.52-.55,0-2.13,0-2.27-.71-.26-1.28-.33-2.59-.23-3.89.04-.56,1.11-1.17,1.6-1.26.91-.02,1.81.15,2.65.48Z"/><path class="cls-2" d="M38.78,45.36c-.78-.31-1.61-.46-2.44-.45-.53.12-.98.45-1.28.9-.11,1.26-.03,2.53.22,3.78.1.46,2.73.61,3.49-.04.5-.41.74-4,.01-4.2Z"/><path class="cls-4" d="M38.78,45.36c-.76-.3-1.56-.45-2.37-.46v4.37c.88.12,1.78.03,2.62-.27.31-1.11.31-3.48-.25-3.64ZM35.25,45.55c-.08.07-.14.16-.18.26-.11,1.26-.03,2.54.22,3.78.1.46,2.73.61,3.49-.04.05-.05.09-.1.12-.16-.81.61-3.37.46-3.46,0-.25-1.24-.32-2.51-.21-3.77,0-.02,0-.05.02-.07Z"/><path class="cls-8" d="M34.81,47.44c.57-.23,1.18-.36,1.79-.38.13,0,.11.43,0,.43-.58.02-1.15.14-1.68.35l-.11-.4Z"/><path class="cls-6" d="M39.03,49c-.21-.09-.42-.18-.65-.29-.05-.03-.08-.08-.07-.13.09-.81.09-1.63,0-2.44,0-.06.03-.11.08-.13.23-.11.46-.21.68-.29.06.07.09.16.07.25-.21.07-.4.16-.61.24.08.77.08,1.55,0,2.32l.55.24c.02.08,0,.17-.04.24Z"/></g></g></svg>