<?xml version="1.0" encoding="UTF-8"?><svg id="a" xmlns="http://www.w3.org/2000/svg" viewBox="0 0 64 63.97"><g id="b"><rect x="0" width="63.97" height="63.97" style="fill:none;"/></g><g id="c"><g id="d"><path d="m39.99,9.39c-3.11-4.34-7.9-3.6-7.29,7.61l-1.87-1.12c-1.12-10.88,5.89-13.87,10.65-7.88l-1.49,1.39Z" style="fill:#598291; fill-rule:evenodd;"/><path d="m31.99,20.06c-1.54,0-6.59-.16-7.08-2-.56-2.3-.56-4.7,0-7,.54-1.73,5.59-1.86,7-1.86s6.5.13,7,1.86c.57,2.3.59,4.69.07,7-.36,1.84-5.45,2-6.99,2Z" style="fill:#006cbf; fill-rule:evenodd;"/><path d="m37.81,11.42c-.64-.81-4.76-1-5.82-1-1.1-.01-2.19.05-3.28.2-.88.08-1.73.34-2.51.77-.46,2.05-.46,4.18,0,6.24.16.42,2.12.8,2.54.87,2.22.32,6.4.38,8.49-.45.25-.09.49-.22.71-.39.4-2.06.36-4.19-.13-6.24Z" style="fill:#006cbf; fill-rule:evenodd;"/><path d="m31.99,10.45c-1.1-.01-2.19.05-3.28.2-.88.08-1.73.34-2.51.77-.46,2.05-.46,4.18,0,6.24.21.19.45.33.71.42,1.67.51,3.42.74,5.17.7v-8.33h-.09Z" style="fill:#57b6ff; fill-rule:evenodd;"/></g><g id="e"><path d="m42.41,47.9l-8.07-1.86-2.19,8.71c.87,1.45,4.34,3.38,6,4,.74.29,1.35.36,1.87-.19,1.59-1.58,2.84-7.41,2.39-10.66Z" style="fill:#3c942c; fill-rule:evenodd;"/><path d="m41.41,48.77c.05,1.26-.03,2.52-.25,3.76-.26,1.39-.94,4.28-1.93,5.34-.04.04-.08.07-.13.1-.13,0-.45-.13-.58-.16-1.91-.79-3.68-1.89-5.24-3.25l1.83-7.21,6.3,1.42Z" style="fill:#3c942c; fill-rule:evenodd;"/><path d="m40.74,54.4c-.26,1.25-.78,2.42-1.55,3.44-.04.04-.08.07-.12.1-.13,0-.45-.13-.58-.17-1.8-.75-3.49-1.76-5-3h.77c.84.54,1.76.92,2.73,1.14-.4-.37-.79-.77-1.15-1.19,1.62-.07,3.26-.16,4.9-.32Z" style="fill:#82e371; fill-rule:evenodd;"/><path d="m21.61,47.9l8.07-1.86,2.19,8.71c-.87,1.45-4.34,3.38-6,4-.74.29-1.35.36-1.87-.19-1.58-1.58-2.84-7.41-2.39-10.66Z" style="fill:#3c942c; fill-rule:evenodd;"/><path d="m22.61,48.77c-.05,1.26.04,2.52.26,3.76.25,1.39.93,4.28,1.93,5.34.03.04.07.07.12.1.13,0,.45-.13.58-.16,1.91-.8,3.68-1.89,5.25-3.25l-1.84-7.21-6.3,1.42Z" style="fill:#3c942c; fill-rule:evenodd;"/><path d="m23.27,54.4c.26,1.25.78,2.42,1.55,3.44.05.06.1.11.17.14.13,0,.45-.13.58-.17,1.8-.76,3.48-1.76,5-3h-.74c-.83.55-1.76.94-2.73,1.16.38-.32.7-.71,1.16-1.19-1.74-.13-3.38-.22-4.99-.38Z" style="fill:#82e371; fill-rule:evenodd;"/><path d="m28.55,50.28h6.88c-.03,1.92-.29,3.84-.77,5.7-1.61,1.13-3.76,1.13-5.37,0-.45-1.87-.7-3.78-.74-5.7Z" style="fill:#3c942c; fill-rule:evenodd;"/><path d="m29.45,51.09c.08,1.47.28,2.93.61,4.37,1.2.66,2.66.66,3.86,0,.37-1.43.57-2.89.61-4.37h-5.08Z" style="fill:#3c942c; fill-rule:evenodd;"/><path d="m29.84,54.4c.05.36.13.71.22,1.06,1.2.66,2.66.66,3.86,0,.1-.36.17-.72.22-1.09h-2.76l-1.54.03Z" style="fill:#82e371; fill-rule:evenodd;"/><path d="m61.66,30.25l-6.62-1.92-.77,17.8,7-2c.74-.16,1.35-.68,1.64-1.38,1.31-3.59,1.45-7.51.38-11.19-.21-.64-.53-.99-1.63-1.32Z" style="fill:#598291; fill-rule:evenodd;"/><path d="m55.81,44.2l.61-13.91c.58.16,5.24,1.44,5.41,1.61s0,.12.06.19c.94,3.35.82,6.91-.35,10.19-.13.26-.37.45-.65.52l-5.08,1.41Z" style="fill:#d3e8ef; fill-rule:evenodd;"/><path d="m55.81,44.2v-1l5.17-1.09c.39-.06.87-1.35,1.29-2.76-.14,1-.4,1.98-.77,2.92-.13.26-.37.45-.65.52l-5.04,1.41Zm.26-5.88l.35-8.08c.58.17,5.24,1.45,5.41,1.61.17.16,0,.13.06.2.46,1.62.67,3.31.61,5l-6.43,1.27Z" style="fill:#fff; fill-rule:evenodd;"/><path d="m62.4,34.73l-2.12,1.26c-.29.18-.48.49-.51.84-.12,1.82-.37,3.62-.77,5.4l-.29,1.13.9-.26c0-.23.12-.48.16-.71.39-1.82.65-3.67.77-5.53,0-.07.04-.14.1-.19l1.83-1.1c0-.28-.03-.56-.07-.84Z" style="fill:#d3e8ef; fill-rule:evenodd;"/><path d="m62.44,35.1l-1.87,1.13c-.29.18-.48.49-.51.83-.12,1.82-.38,3.63-.78,5.41-.06.25-.12.54-.19.77l.89-.26c0-.13.06-.29.1-.42.39-1.82.65-3.67.77-5.53,0-.07.04-.14.09-.19l1.52-.9c.04-.28.03-.56-.02-.84Z" style="fill:#7eaaba; fill-rule:evenodd;"/><path d="m2.32,30.25l6.62-1.92.77,17.8-7-2c-.74-.16-1.35-.68-1.64-1.38-1.3-3.58-1.42-7.49-.36-11.15.22-.68.54-1.03,1.61-1.36Z" style="fill:#598291; fill-rule:evenodd;"/><path d="m8.2,44.2l-.61-13.91c-.58.16-5.24,1.44-5.4,1.61-.16.17,0,.12-.07.19-.95,3.34-.82,6.89.36,10.16.12.26.36.45.64.52l5.08,1.44Z" style="fill:#d3e8ef; fill-rule:evenodd;"/><path d="m8.2,44.2v-1l-5.2-1.09c-.39-.06-.87-1.35-1.29-2.76.15,1,.41,1.98.78,2.92.12.26.36.45.64.52l5.07,1.41Zm-.26-5.88l-.35-8.08c-.58.17-5.24,1.45-5.4,1.61-.16.16,0,.13-.07.2-.46,1.62-.67,3.31-.61,5l6.43,1.27Z" style="fill:#fff; fill-rule:evenodd;"/><path d="m1.61,34.73l2.12,1.26c.29.19.48.49.52.84.1,1.82.35,3.64.75,5.42.09.39.19.77.29,1.13l-.87-.26c-.07-.23-.13-.48-.19-.71-.4-1.82-.66-3.67-.78-5.53,0-.07-.04-.14-.09-.19l-1.82-1.1c0-.29.03-.57.07-.86Z" style="fill:#d3e8ef; fill-rule:evenodd;"/><path d="m1.58,35.1l1.86,1.13c.29.18.48.49.52.83.11,1.82.37,3.63.77,5.41.06.25.13.54.19.77l-.87-.26-.05-.39c-.4-1.82-.66-3.67-.78-5.53,0-.07-.04-.14-.09-.19l-1.55-.89c-.06-.29-.06-.59,0-.88Z" style="fill:#7eaaba; fill-rule:evenodd;"/><path d="m31.99,54.2c-3.72.02-7.44-.21-11.13-.7-3.1-.34-6.15-1.08-9.07-2.19-2.12-.87-4.6-2.28-5.24-4.76-1.83-7.2-1.8-19.09.26-26.23.77-2.74,4.18-4.09,6.49-4.79,2.79-.81,5.66-1.37,8.56-1.65,3.36-.37,6.74-.55,10.13-.54,3.38-.01,6.76.17,10.13.54,2.9.28,5.76.83,8.56,1.65,2.34.7,5.75,2.05,6.52,4.79,2,7.14,2.06,18.99.2,26.23-.61,2.44-3.15,3.89-5.25,4.76-2.92,1.08-5.96,1.82-9.06,2.19-3.68.47-7.39.71-11.1.7Z" style="fill:#598291; fill-rule:evenodd;"/><path d="m31.99,52.44c-7.49,0-14.99-.94-19.54-2.77-2.32-1-3.86-2.15-4.25-3.6-1.7-6.66-1.8-18.29.19-25.27.42-1.51,2.45-2.7,5.41-3.6,4.56-1.39,11.38-2.13,18.19-2.13s13.63.71,18.19,2.13c3,.9,5,2.12,5.41,3.6,2,7,1.93,18.64.19,25.27-.39,1.45-1.93,2.64-4.25,3.6-4.55,1.83-12.01,2.77-19.54,2.77Z" style="fill:#bdd6de; fill-rule:evenodd;"/><path d="m7,36.68c-.23-5.57.19-11.58,1.45-15.85.41-1.51,2.44-2.7,5.4-3.6,4.57-1.38,11.38-2.12,18.19-2.12s13.63.7,18.2,2.12c2.95.9,5,2.12,5.4,3.6,1.25,5.19,1.73,10.53,1.43,15.85-.96.47-1.96.85-3,1.12-.42.13-.83.23-1.28.36.58-3.88.63-7.81.16-11.7-.1-.71-.65-.87-1.35-1-3.77-.72-7.58-1.15-11.42-1.28-.28-.05-.55.13-.61.41-.48,1.52-1.13,4.15-1.87,5.25-1,1.44-10.35,1.44-11.28,0-.76-1.7-1.39-3.45-1.87-5.25-.08-.27-.33-.44-.61-.41-3.82.14-7.63.59-11.39,1.32-.7.12-1.28.25-1.35,1-.55,3.87-.53,7.8.07,11.66-.45-.12-.87-.22-1.29-.35-1.04-.26-2.04-.64-3-1.13Zm24.99,15.75c-7.49,0-14.99-.94-19.54-2.77-2.32-1-3.86-2.15-4.25-3.6l-.2-.77c.19.34.43.65.71.93,1,1.11,2.27,1.94,3.69,2.41,4.57,1.8,12.05,2.7,19.55,2.7s14.99-.87,19.54-2.7c1.42-.46,2.7-1.3,3.7-2.41.28-.27.52-.58.71-.93-.04.26-.11.52-.2.77-.38,1.45-1.92,2.64-4.24,3.6-4.48,1.83-11.94,2.77-19.47,2.77Z" style="fill:#fff; fill-rule:evenodd;"/><path d="m21.68,15.69l.09.25c.45,1.02,1.02,1.99,1.71,2.87,2.79.7,5.67,1.01,8.55.93,2.88.09,5.76-.22,8.56-.93.7-.85,1.27-1.8,1.7-2.82.03-.09.08-.17.13-.25.32,0,.64.06,1,.12-.09.2-.16.39-.25.58-.39.87-1.35,2.83-2.16,3.35-2.91.77-5.92,1.11-8.94,1-3.01.08-6.02-.25-8.94-1-.8-.52-1.74-2.45-2.15-3.35-.1-.19-.16-.38-.26-.58.32-.07.64-.13.96-.17Z" style="fill:#bdd6de; fill-rule:evenodd;"/><path d="m21.16,15.75c.1.19.19.42.29.61.44,1.05,1.03,2.04,1.74,2.93,2.88.73,5.84,1.07,8.81,1,2.97.08,5.93-.25,8.81-1,.71-.9,1.31-1.88,1.77-2.93.1-.19.19-.42.29-.61.34.02.67.07,1,.13-.13.32-.29.64-.42,1-.42.9-1.38,2.87-2.22,3.41-3.01.77-6.12,1.1-9.23,1-3.11.09-6.21-.25-9.23-1-.84-.54-1.8-2.51-2.22-3.41-.13-.29-.29-.61-.42-1,.34-.06.68-.1,1.03-.13Z" style="fill:#7eaaba; fill-rule:evenodd;"/><path d="m31.99,32.57c2.32,0,5.5-.42,5.92-1.45.68-2.2,1.18-4.46,1.48-6.75.03-.32.29-.56.61-.55,4.19.21,8.35.79,12.43,1.71.74.19,1.32.32,1.42,1.28.64,6.24.35,13.76-.87,18.65-.19.8-2.19,1.77-2.8,2-2.55.98-5.2,1.65-7.91,2-3.41.47-6.85.7-10.29.69-3.44.02-6.88-.21-10.29-.67-2.71-.35-5.36-1.02-7.91-2-.61-.25-2.61-1.22-2.8-2-1.23-6.14-1.53-12.43-.87-18.65.1-1,.68-1.09,1.45-1.28,4.08-.93,8.23-1.51,12.41-1.73.31,0,.58.24.62.55.3,2.29.79,4.54,1.47,6.75.44,1.03,3.59,1.45,5.91,1.45Z" style="fill:#1e2432; fill-rule:evenodd;"/><path d="m52.53,25.56c.2.21.33.48.35.77.36,3.34.42,6.71.2,10.07-.08.4-.2.78-.36,1.16-.19.57-2.18,1.28-2.76,1.44-8.2,2.51-27.75,2.51-35.91,0-.61-.19-2.6-.87-2.76-1.44-.13-.36-.23-.74-.36-1.16-.19-3.36-.12-6.72.2-10.07,0-.35.19-.74.45-.8,4.08-.93,8.23-1.5,12.41-1.71.31,0,.58.24.62.55.3,2.29.79,4.54,1.47,6.75.81,1.9,11,1.9,11.86,0,.68-2.2,1.18-4.46,1.48-6.75.03-.32.29-.56.61-.55,4.21.22,8.39.8,12.49,1.74Zm.87,18.22c-.13.58-.23,1.16-.39,1.71-.19.8-2.18,1.77-2.79,2-8.33,3.57-28.1,3.57-36.42,0-.61-.26-2.61-1.23-2.8-2-.13-.55-.26-1.13-.39-1.71.02.04.02.09,0,.13.19.81,2.25,1.77,2.86,2,8.46,3.57,28.55,3.57,36.98,0,.62-.26,2.67-1.22,2.87-2,.05-.06.08-.09.08-.13Z" style="fill:#2d3956; fill-rule:evenodd;"/></g><g id="f"><path d="m24.82,36.03l-2.29,2.29,2.29,2.28c.77.77-1.13,2.64-1.9,1.87l-2.28-2.29-2.25,2.29c-.78.77-2.67-1.13-1.9-1.87l2.28-2.28-2.28-2.29c-.77-.77,1.12-2.67,1.9-1.86l2.25,2.25,2.28-2.25c.77-.77,2.67,1.12,1.9,1.86Zm22.66,0l-2.28,2.29,2.28,2.28c.77.77-1.12,2.64-1.86,1.87l-2.29-2.29-2.28,2.29c-.77.77-2.67-1.13-1.9-1.87l2.29-2.28-2.29-2.29c-.77-.77,1.13-2.67,1.9-1.86l2.28,2.25,2.29-2.25c.77-.77,2.63,1.12,1.86,1.86Z" style="fill:#fa2525; fill-rule:evenodd;"/></g><g id="g"><path d="m45.92,7.82c2.47,1.73,3.07,5.14,1.33,7.62-1.73,2.47-5.14,3.07-7.62,1.33-2.47-1.73-3.07-5.13-1.34-7.6,1.73-2.48,5.15-3.08,7.63-1.35Z" style="fill:#bd0000; fill-rule:evenodd;"/><path d="m45.27,8.72c1.97,1.38,2.46,4.1,1.08,6.07-1.38,1.97-4.1,2.46-6.07,1.08-1.97-1.37-2.45-4.08-1.09-6.06,1.39-1.96,4.09-2.44,6.08-1.09Z" style="fill:#bd0000; fill-rule:evenodd;"/><path d="m47.13,11.99c.15,2.41-1.67,4.48-4.08,4.64-2.41.15-4.48-1.67-4.64-4.08-.02-.29,0-.59.03-.88.15,2.41,2.23,4.24,4.63,4.09,1.33-.08,2.55-.77,3.31-1.87.37-.58.62-1.22.74-1.9Zm-3-3.41c1.38.55,1.93,1.87,1.22,2.86-.95,1.09-2.51,1.43-3.83.84-1.41-.55-2-1.87-1.25-2.9,1-1.07,2.57-1.38,3.9-.77l-.04-.03Z" style="fill:#fa2525; fill-rule:evenodd;"/></g></g></svg>