<?xml version="1.0" encoding="UTF-8"?><svg xmlns="http://www.w3.org/2000/svg" viewBox="0 0 64 64"><defs><style>.cls-1{fill:none;}.cls-2,.cls-3{fill:#00c650;}.cls-4{fill:#fff;}.cls-3{isolation:isolate;opacity:.15;}</style></defs><g id="Layer_2"><rect class="cls-1" width="64" height="64"/></g><g id="Layer_1"><g id="Document"><path class="cls-3" d="M42.52,13.11c-1.46,0-2.85-.58-3.88-1.61-1.03-1.03-1.61-2.42-1.61-3.88V0H12.5C10.6,0,8.78.75,7.44,2.1c-1.35,1.34-2.1,3.16-2.1,5.06v43.18c0,1.9.76,3.72,2.1,5.06,1.34,1.34,3.16,2.09,5.06,2.09h29.44c.94,0,1.87-.18,2.74-.54.87-.36,1.66-.89,2.32-1.55s1.19-1.45,1.55-2.32.55-1.8.55-2.74V13.1h-6.59.01Z"/><path class="cls-2" d="M49.11,13.11h-6.59c-1.46,0-2.85-.58-3.88-1.61-1.03-1.03-1.61-2.42-1.61-3.88V0s12.08,13.11,12.08,13.11Z"/><path class="cls-2" d="M54.36,45.5H21.04c-2.36,0-4.28,1.92-4.28,4.28v9.94c0,2.36,1.92,4.28,4.28,4.28h33.33c2.36,0,4.28-1.92,4.28-4.28v-9.94c0-2.36-1.92-4.28-4.28-4.28h-.01Z"/></g><g id="File"><path class="cls-4" d="M27.66,59.6c-1.04,0-1.8-.25-2.3-.74-.49-.5-.74-1.26-.74-2.3v-3.12c0-1.05.25-1.81.74-2.31s1.26-.74,2.29-.73h1.64c.85,0,1.5.18,1.95.53s.71.9.78,1.66c.03.19,0,.33-.11.43s-.24.15-.43.15c-.34,0-.54-.19-.6-.57-.05-.42-.19-.7-.43-.84s-.62-.22-1.15-.22h-1.64c-.48,0-.86.05-1.13.16-.27.11-.47.31-.58.59s-.17.66-.17,1.15v3.12c0,.48.06.86.17,1.14.12.28.31.47.59.59.28.11.66.17,1.14.17h1.63c.53,0,.91-.07,1.15-.22s.39-.43.43-.84c.05-.38.25-.57.6-.57.19,0,.33.05.43.15s.14.24.11.43c-.07.76-.33,1.31-.78,1.66s-1.1.52-1.95.52h-1.64Z"/><path class="cls-4" d="M36.69,59.6c-.77,0-1.38-.16-1.81-.47s-.7-.79-.81-1.45c-.02-.2.02-.35.12-.45s.24-.15.43-.15.33.05.41.14c.09.09.15.23.18.42.07.31.21.53.43.64.23.11.57.17,1.03.17h1.95c.58,0,.98-.1,1.19-.31s.32-.61.32-1.18-.11-.98-.33-1.19c-.22-.22-.61-.33-1.18-.33h-1.68c-.86,0-1.49-.21-1.91-.62-.41-.42-.62-1.06-.62-1.91s.2-1.48.61-1.89,1.05-.62,1.9-.62h1.62c.72,0,1.28.15,1.69.44.41.29.67.74.78,1.35.03.19,0,.34-.11.45-.1.1-.25.15-.45.15-.18,0-.32-.05-.41-.14s-.15-.23-.18-.41c-.07-.27-.21-.45-.41-.54-.2-.1-.51-.15-.92-.15h-1.62c-.54,0-.91.1-1.09.29-.19.19-.28.55-.28,1.08s.1.9.29,1.1.56.3,1.1.3h1.68c.89,0,1.55.22,1.99.65.44.43.66,1.1.66,2.01s-.22,1.57-.65,2-1.1.64-2,.64h-1.95l.03-.02Z"/><path class="cls-4" d="M46.68,59.6c-.24,0-.42-.15-.56-.45l-3.35-7.94c-.07-.16-.09-.3-.05-.42.03-.13.14-.23.31-.31.37-.19.63-.09.79.29l3.17,7.51h-.39l3.09-7.51c.15-.37.41-.47.79-.29.16.08.26.19.29.31.04.12.03.26-.03.42l-3.38,7.94c-.14.3-.34.45-.61.45h-.07Z"/><path class="cls-2" d="M37.12,39.97h-19.79c-1.71,0-3.1-1.7-3.1-3.8v-14.35c0-2.1,1.39-3.8,3.1-3.8h19.79c1.71,0,3.1,1.7,3.1,3.8v14.35c0,2.1-1.39,3.8-3.1,3.8h0ZM17.33,19.96c-.84,0-1.52.83-1.52,1.86v14.35c0,1.03.68,1.86,1.52,1.86h19.79c.84,0,1.52-.83,1.52-1.86v-14.35c0-1.03-.68-1.86-1.52-1.86,0,0-19.79,0-19.79,0Z"/><path class="cls-2" d="M39.43,31.33H15.02v1.94h24.41v-1.94Z"/><path class="cls-2" d="M39.43,24.66H15.02v1.94h24.41v-1.94Z"/><path class="cls-2" d="M33.18,18.99h-1.94v20.01h1.94v-20.01Z"/><path class="cls-2" d="M23.22,18.99h-1.94v20.01h1.94v-20.01Z"/></g></g></svg>