<?xml version="1.0" encoding="UTF-8"?><svg xmlns="http://www.w3.org/2000/svg" viewBox="0 0 64 64"><defs><style>.cls-1{fill:none;}.cls-2{isolation:isolate;opacity:.15;}.cls-2,.cls-3{fill:#4c4c4c;}.cls-4{fill:#fff;}</style></defs><g id="Layer_2"><rect class="cls-1" width="64" height="64"/></g><g id="Layer_1"><g id="Document"><path class="cls-2" d="M42.52,13.11c-1.46,0-2.85-.58-3.88-1.61-1.03-1.03-1.61-2.42-1.61-3.88V0H12.5C10.6,0,8.78.75,7.44,2.1c-1.35,1.34-2.1,3.16-2.1,5.06v43.18c0,1.9.76,3.72,2.1,5.06,1.34,1.34,3.16,2.09,5.06,2.09h29.44c.94,0,1.87-.18,2.74-.54.87-.36,1.66-.89,2.32-1.55s1.19-1.45,1.55-2.32.55-1.8.55-2.74V13.1h-6.59.01Z"/><path class="cls-3" d="M49.11,13.11h-6.59c-1.46,0-2.85-.58-3.88-1.61-1.03-1.03-1.61-2.42-1.61-3.88V0s12.08,13.11,12.08,13.11Z"/><path class="cls-3" d="M54.36,45.5H21.04c-2.36,0-4.28,1.92-4.28,4.28v9.94c0,2.36,1.92,4.28,4.28,4.28h33.33c2.36,0,4.28-1.92,4.28-4.28v-9.94c0-2.36-1.92-4.28-4.28-4.28h-.01Z"/></g><g id="File"><path class="cls-3" d="M39.32,22H15.07c-.23,0-.46-.09-.62-.26s-.26-.39-.26-.62.09-.46.26-.62.39-.26.62-.26h24.24c.23,0,.46.09.62.26s.26.39.26.62-.09.46-.26.62c-.16.16-.39.26-.62.26h0Z"/><path class="cls-3" d="M39.32,27.25H15.07c-.23,0-.46-.09-.62-.26s-.26-.39-.26-.62.09-.46.26-.62c.16-.16.39-.26.62-.26h24.24c.23,0,.46.09.62.26.16.16.26.39.26.62s-.09.46-.26.62c-.16.16-.39.26-.62.26h0Z"/><path class="cls-3" d="M39.32,32.51H15.07c-.23,0-.46-.09-.62-.26s-.26-.39-.26-.62.09-.46.26-.62.39-.26.62-.26h24.24c.23,0,.46.09.62.26.16.16.26.39.26.62s-.09.46-.26.62c-.16.16-.39.26-.62.26h0Z"/><path class="cls-3" d="M39.32,37.76H15.07c-.23,0-.46-.09-.62-.26-.16-.16-.26-.39-.26-.62s.09-.46.26-.62.39-.26.62-.26h24.24c.23,0,.46.09.62.26s.26.39.26.62-.09.46-.26.62-.39.26-.62.26h0Z"/><path class="cls-4" d="M44.5,51.64v2.75h3.3c.15,0,.3.02.43.1.22.14.33.4.26.66-.06.26-.3.44-.59.46h-3.4v2.79h4.66c.09,0,.18,0,.27.02.3.06.51.34.48.63-.03.31-.27.55-.59.58h-5.43c-.09,0-.19,0-.28-.04-.25-.07-.41-.29-.42-.55v-7.93c0-.44.25-.69.69-.69h5.23c.12,0,.24.02.35.07.25.11.38.37.33.64-.04.25-.27.46-.53.5-.07,0-.15,0-.23,0h-4.53Z"/><path class="cls-4" d="M26.8,54.71h2.98c.08,0,.17,0,.25.02.3.06.5.33.48.63-.03.3-.27.54-.59.56h-3.13v3.05c0,.29-.13.5-.38.6-.26.11-.56.05-.75-.15-.1-.11-.16-.23-.17-.38v-7.97c0-.44.24-.69.69-.69h4.84c.17,0,.33.03.46.15.2.17.27.38.19.62-.07.25-.25.39-.5.43-.07,0-.15,0-.22,0h-4.15v3.12h0Z"/><path class="cls-4" d="M37.51,58.42h3.87c.09,0,.18,0,.26.02.31.07.5.33.47.65-.02.28-.28.52-.58.54h-4.63c-.12,0-.25-.03-.36-.08-.2-.09-.31-.27-.32-.49v-7.97c0-.26.09-.47.34-.59.26-.12.51-.1.74.07.14.11.22.26.22.43v7.42h0Z"/><path class="cls-4" d="M34.14,55.02v3.96c0,.3-.13.5-.38.6-.26.1-.56.04-.75-.16-.11-.12-.16-.26-.16-.41v-7.97c0-.26.09-.47.34-.58.25-.12.5-.1.72.06.16.11.23.27.23.47v4.03h0Z"/></g></g></svg>