<?xml version="1.0" encoding="UTF-8"?><svg xmlns="http://www.w3.org/2000/svg" viewBox="0 0 64 64"><defs><style>.cls-1{fill:none;}.cls-2,.cls-3{fill:#a140ff;}.cls-4{fill:#fff;}.cls-3{isolation:isolate;opacity:.15;}</style></defs><g id="Layer_2"><rect class="cls-1" width="64" height="64"/></g><g id="Layer_1"><g id="Document"><path class="cls-3" d="M42.52,13.11c-1.46,0-2.85-.58-3.88-1.61-1.03-1.03-1.61-2.42-1.61-3.88V0H12.5C10.6,0,8.78.75,7.44,2.1c-1.35,1.34-2.1,3.16-2.1,5.06v43.18c0,1.9.76,3.72,2.1,5.06,1.34,1.34,3.16,2.09,5.06,2.09h29.44c.94,0,1.87-.18,2.74-.54.87-.36,1.66-.89,2.32-1.55s1.19-1.45,1.55-2.32.55-1.8.55-2.74V13.1h-6.59.01Z"/><path class="cls-2" d="M49.11,13.11h-6.59c-1.46,0-2.85-.58-3.88-1.61-1.03-1.03-1.61-2.42-1.61-3.88V0s12.08,13.11,12.08,13.11Z"/><path class="cls-2" d="M54.36,45.5H21.04c-2.36,0-4.28,1.92-4.28,4.28v9.94c0,2.36,1.92,4.28,4.28,4.28h33.33c2.36,0,4.28-1.92,4.28-4.28v-9.94c0-2.36-1.92-4.28-4.28-4.28h-.01Z"/></g><g id="File"><path class="cls-2" d="M23.85,42c-.29,0-.57-.12-.78-.32-.21-.21-.32-.49-.32-.78v-1.7c0-.15.03-.29.08-.42s.14-.26.24-.36c.1-.1.22-.18.36-.24.13-.06.28-.08.42-.08.29,0,.57.12.78.32.21.21.32.49.32.78v1.7c0,.29-.12.57-.32.78-.21.21-.49.32-.78.32h0Z"/><path class="cls-2" d="M23.85,28.29c-.15,0-.29-.03-.42-.08-.13-.06-.26-.14-.36-.24s-.18-.22-.24-.36-.08-.28-.08-.42v-1.98c0-.29.12-.57.32-.78s.49-.32.78-.32.57.12.78.32c.21.21.32.49.32.78v1.98c0,.29-.12.57-.32.78-.21.21-.49.32-.78.32h0Z"/><path class="cls-2" d="M27.77,40.95c-.19,0-.39-.05-.55-.15s-.31-.24-.41-.4l-.82-1.43c-.15-.25-.19-.56-.11-.84s.26-.52.51-.67c.25-.15.56-.19.84-.11s.52.26.67.52l.83,1.43c.15.25.19.56.11.84s-.26.52-.52.67c-.17.1-.36.15-.55.15h0Z"/><path class="cls-2" d="M20.94,29.12c-.19,0-.39-.05-.55-.15-.17-.1-.31-.24-.41-.41l-1.01-1.75c-.07-.13-.12-.26-.14-.41-.02-.14,0-.29.03-.43.04-.14.1-.27.19-.39.09-.11.2-.21.32-.28.13-.07.26-.12.41-.14s.29,0,.43.03c.14.04.27.1.39.19s.21.2.28.32l1.01,1.75c.07.13.12.26.14.41.02.14,0,.29-.03.43-.04.14-.1.27-.19.39-.09.12-.2.21-.32.28-.17.1-.36.15-.55.15h0Z"/><path class="cls-2" d="M30.64,38.08c-.19,0-.38-.05-.55-.15l-1.43-.83c-.25-.15-.44-.39-.51-.67-.08-.28-.04-.58.11-.84.15-.25.39-.44.67-.52s.58-.04.84.11l1.43.83c.25.15.44.39.51.67.08.28.04.58-.11.84-.1.17-.24.31-.4.41-.17.1-.36.15-.55.15h-.01Z"/><path class="cls-2" d="M18.81,31.25c-.19,0-.38-.05-.55-.15l-1.75-1.01c-.25-.15-.44-.39-.51-.67-.08-.28-.04-.58.11-.84.15-.25.39-.44.67-.52s.58-.04.84.11l1.75,1.01c.25.15.44.39.51.67.08.28.04.58-.11.84-.1.17-.24.31-.41.41s-.36.15-.55.15Z"/><path class="cls-2" d="M31.69,34.16h-1.7c-.29,0-.57-.12-.78-.32-.21-.21-.32-.49-.32-.78s.12-.57.32-.78.49-.32.78-.32h1.7c.29,0,.57.12.78.32s.32.49.32.78-.12.57-.32.78c-.21.21-.49.32-.78.32Z"/><path class="cls-2" d="M17.98,34.16h-1.98c-.29,0-.57-.12-.78-.32-.21-.21-.32-.49-.32-.78s.12-.57.32-.78.49-.32.78-.32h1.98c.29,0,.57.12.78.32.21.21.32.49.32.78s-.12.57-.32.78c-.21.21-.49.32-.78.32Z"/><path class="cls-2" d="M29.09,31.13c-.19,0-.39-.05-.55-.15-.17-.1-.31-.24-.41-.41-.07-.13-.12-.26-.14-.41-.02-.14,0-.29.03-.43.04-.14.1-.27.19-.39.09-.11.2-.21.32-.28l1.54-.9c.25-.15.56-.19.84-.11s.52.26.67.52c.15.25.19.56.11.84s-.26.52-.51.67l-1.54.9c-.17.1-.36.15-.55.15h0Z"/><path class="cls-2" d="M17.06,38.08c-.19,0-.38-.05-.55-.15-.17-.1-.31-.24-.4-.4-.15-.25-.19-.56-.11-.84s.26-.52.51-.67l1.64-.94c.25-.15.56-.18.84-.11s.52.26.67.51.19.56.11.84-.26.52-.51.67l-1.64.94c-.17.1-.36.15-.55.15h-.01Z"/><path class="cls-2" d="M23.99,40.3h-.18c-1.26-.03-2.5-.4-3.57-1.06-1.06-.66-1.93-1.58-2.52-2.68-.55-1.03-.84-2.19-.84-3.36v-.18c.03-1.21.37-2.39.98-3.43s1.48-1.91,2.52-2.52c1.05-.61,2.23-.95,3.44-.98h.16c1.17,0,2.33.29,3.36.85,1.1.59,2.02,1.46,2.68,2.52.67,1.08,1.04,2.32,1.06,3.59v.16c0,1.23-.32,2.44-.92,3.5-.63,1.12-1.56,2.05-2.68,2.68-1.07.6-2.27.92-3.5.92h.01ZM23.97,28.29h-.07c-.84.02-1.66.25-2.38.67-.72.42-1.32,1.02-1.74,1.74s-.66,1.54-.68,2.37v.11c0,.81.2,1.6.58,2.31.41.76,1.01,1.4,1.74,1.85.74.46,1.59.71,2.47.73h.11c.85,0,1.68-.22,2.42-.64.77-.44,1.41-1.08,1.85-1.85.42-.74.64-1.57.64-2.41v-.1c-.02-.88-.27-1.74-.73-2.48-.45-.73-1.09-1.33-1.85-1.74-.72-.38-1.53-.58-2.35-.58h0v.02Z"/><path class="cls-2" d="M26.82,29c-.19,0-.38-.05-.55-.15-.13-.07-.24-.17-.32-.28s-.15-.25-.19-.39-.05-.29-.03-.43c.02-.14.07-.28.14-.41l.94-1.64c.07-.13.17-.24.28-.32s.25-.15.39-.19.29-.05.43-.03c.14.02.28.07.41.14s.24.17.32.28c.09.11.15.25.19.39s.05.29.03.43-.07.28-.14.41l-.95,1.64c-.1.17-.24.31-.41.41s-.36.15-.55.15h0Z"/><path class="cls-2" d="M19.93,40.95c-.19,0-.38-.05-.55-.15-.13-.07-.24-.17-.32-.28s-.15-.25-.19-.39-.05-.29-.03-.43.07-.28.14-.41l.89-1.54c.07-.13.17-.24.28-.32.12-.09.25-.15.39-.19.14-.04.29-.05.43-.03s.28.07.41.14c.25.15.44.39.51.67.08.28.04.58-.11.84l-.89,1.54c-.1.17-.24.31-.41.41s-.36.15-.55.15h0Z"/><path class="cls-2" d="M34.05,26.89c-.18,0-.35-.07-.48-.2-.13-.13-.2-.3-.2-.48v-1.03c0-.09.02-.18.05-.26.03-.08.08-.16.15-.22s.14-.11.22-.15c.08-.03.17-.05.26-.05.18,0,.35.07.47.2.13.13.2.3.2.47v1.03c0,.09-.02.18-.05.26-.03.08-.08.16-.15.22-.06.06-.14.11-.22.15-.08.03-.17.05-.26.05h.01Z"/><path class="cls-2" d="M34.05,18.55c-.09,0-.18-.02-.26-.05s-.16-.08-.22-.15-.11-.14-.15-.22c-.03-.08-.05-.17-.05-.26v-1.2c0-.18.07-.35.2-.48.13-.13.3-.2.48-.2.09,0,.18.02.26.05s.16.08.22.15c.06.06.11.14.15.22.03.08.05.17.05.26v1.2c0,.18-.07.35-.2.47-.13.13-.3.2-.47.2h-.01Z"/><path class="cls-2" d="M36.42,26.25c-.12,0-.23-.03-.34-.09s-.19-.14-.25-.25l-.5-.87c-.09-.16-.11-.34-.06-.51.05-.17.16-.32.32-.41.08-.04.16-.07.25-.08s.18,0,.26.02c.09.02.17.06.23.12.07.05.13.12.17.2l.51.87c.04.08.07.16.08.25s0,.18-.02.26c-.02.09-.06.17-.12.23s-.12.13-.2.17c-.11.06-.23.09-.35.08h.02Z"/><path class="cls-2" d="M32.28,19.05c-.12,0-.23-.03-.34-.09-.1-.06-.19-.14-.25-.25l-.61-1.07c-.04-.08-.07-.16-.08-.25s0-.18.02-.26c.02-.09.06-.17.12-.23.05-.07.12-.13.2-.17s.16-.07.25-.08.18,0,.26.02c.09.02.17.06.23.12s.13.12.17.2l.61,1.07c.04.08.07.16.08.25s0,.18-.02.26-.06.17-.12.23c-.05.07-.12.13-.2.17-.1.05-.22.08-.33.08h.01Z"/><path class="cls-2" d="M38.18,24.5c-.12,0-.23-.03-.34-.09l-.87-.51c-.08-.04-.15-.1-.2-.17-.05-.07-.1-.15-.12-.23-.02-.09-.03-.17-.02-.26s.04-.17.08-.25c.04-.08.1-.15.17-.2.07-.05.15-.1.23-.12s.17-.03.26-.02c.09.01.17.04.25.08l.87.51c.08.04.15.1.2.17s.1.15.12.23.03.17.02.26-.04.17-.08.25c-.06.1-.14.19-.24.25-.1.06-.22.09-.34.09h.01Z"/><path class="cls-2" d="M30.97,20.35c-.12,0-.23-.03-.34-.09l-1.07-.61c-.08-.04-.15-.1-.2-.17-.05-.07-.1-.15-.12-.23-.02-.09-.03-.17-.02-.26s.04-.17.08-.25c.09-.16.23-.27.41-.32.17-.05.36-.03.51.06l1.06.61c.16.09.27.23.32.41.05.17.03.36-.06.51-.06.1-.14.19-.24.25s-.22.09-.34.09h.01Z"/><path class="cls-2" d="M38.82,22.12h-1.03c-.09,0-.18-.02-.26-.05s-.16-.08-.22-.15c-.06-.06-.11-.14-.15-.22-.03-.08-.05-.17-.05-.26,0-.18.07-.35.2-.47.13-.13.3-.2.47-.2h1.03c.09,0,.18.02.26.05s.16.08.22.15.11.14.15.22c.03.08.05.17.05.26,0,.18-.07.35-.2.48s-.3.2-.48.2h0Z"/><path class="cls-2" d="M30.48,22.12h-1.2c-.09,0-.18-.02-.26-.05s-.16-.08-.22-.15c-.06-.06-.11-.14-.15-.22s-.05-.17-.05-.26.02-.18.05-.26c.03-.08.08-.16.15-.22.06-.06.14-.11.22-.15.08-.03.17-.05.26-.05h1.2c.18,0,.35.07.47.2.13.13.2.3.2.47,0,.09-.02.18-.05.26-.03.08-.08.16-.15.22-.06.06-.14.11-.22.15-.08.03-.17.05-.26.05h0Z"/><path class="cls-2" d="M37.23,20.29c-.12,0-.23-.03-.34-.09-.1-.06-.19-.14-.25-.25-.04-.08-.07-.16-.08-.25s0-.18.02-.26c.02-.09.06-.17.12-.23s.12-.13.2-.17l.94-.55c.08-.04.16-.07.25-.08s.18,0,.26.02c.09.02.17.06.23.12.07.05.13.12.17.2.04.08.07.16.08.25,0,.09,0,.18-.02.26s-.06.17-.12.23c-.06.07-.12.13-.2.17l-.94.55c-.1.05-.22.08-.33.08h.01Z"/><path class="cls-2" d="M29.9,24.5c-.12,0-.23-.03-.34-.09-.1-.06-.19-.14-.25-.25-.04-.08-.07-.16-.09-.25s0-.18.02-.26c.02-.09.06-.17.12-.24.05-.07.12-.13.2-.17l1-.57c.08-.04.16-.07.25-.08s.18,0,.26.02c.09.02.17.06.23.12s.13.12.17.2.07.16.08.25,0,.18-.02.26c-.02.09-.06.17-.12.23s-.12.13-.2.17l-.99.58c-.1.05-.21.08-.33.08h.01Z"/><path class="cls-2" d="M34.12,25.86h-.11c-.77-.02-1.52-.24-2.17-.65-.65-.4-1.18-.96-1.54-1.63-.34-.63-.52-1.34-.51-2.06v-.11c.02-.74.22-1.45.6-2.09.37-.64.91-1.17,1.54-1.54.64-.37,1.36-.58,2.1-.6h.1c.72,0,1.43.17,2.06.51.67.36,1.23.89,1.63,1.54.41.66.63,1.41.65,2.18v.1c0,.75-.19,1.48-.56,2.13-.39.68-.95,1.25-1.63,1.63-.65.37-1.39.57-2.14.57h0l-.02.02ZM34.1,18.55h-.04c-.51,0-1.01.15-1.45.41s-.8.62-1.06,1.06c-.26.44-.4.93-.41,1.44v.07c0,.49.12.98.35,1.41.25.46.61.85,1.06,1.12.45.28.97.43,1.5.45h.07c.51,0,1.02-.13,1.47-.39.47-.27.86-.66,1.13-1.13.25-.45.39-.95.39-1.47v-.06c-.01-.53-.17-1.06-.44-1.51-.28-.44-.67-.81-1.13-1.06-.44-.23-.93-.35-1.43-.35h0Z"/><path class="cls-2" d="M35.85,18.98c-.12,0-.23-.03-.33-.09-.08-.04-.15-.1-.2-.17-.05-.07-.1-.15-.12-.23-.02-.09-.03-.17-.02-.26s.04-.17.08-.25l.58-1c.04-.08.1-.15.17-.2.07-.05.15-.1.23-.12.09-.02.17-.03.26-.02s.17.04.25.08c.08.04.15.1.2.17s.1.15.12.23c.02.09.03.17.02.26s-.04.17-.08.25l-.58,1c-.06.1-.14.19-.25.25-.1.06-.22.09-.34.09h.01Z"/><path class="cls-2" d="M31.65,26.25c-.12,0-.23-.03-.33-.09-.08-.04-.15-.1-.2-.17-.05-.07-.1-.15-.12-.23-.02-.09-.03-.17-.02-.26s.04-.17.08-.25l.54-.94c.04-.08.1-.15.17-.2.07-.05.15-.1.23-.12.09-.02.17-.03.26-.02s.17.04.25.08c.08.04.15.1.2.17s.1.15.12.23c.02.09.03.17.02.26s-.04.17-.08.25l-.54.94c-.06.1-.14.19-.25.25-.1.06-.22.09-.34.09h.01Z"/><path class="cls-4" d="M26.98,59.6c-.38,0-.57-.19-.57-.57v-8.06c0-.38.19-.57.57-.57h3.27c1.18,0,2.05.28,2.61.84.56.56.84,1.42.84,2.61v2.31c0,1.18-.28,2.05-.83,2.61s-1.42.83-2.61.83h-3.28ZM27.55,58.46h2.7c.58,0,1.04-.07,1.37-.21.34-.14.58-.38.72-.72s.22-.8.22-1.38v-2.31c0-.57-.07-1.03-.22-1.36-.14-.34-.38-.58-.72-.73-.33-.14-.79-.22-1.37-.22h-2.7v6.92h0Z"/><path class="cls-4" d="M36.76,59.6c-.38,0-.57-.19-.57-.57v-8.06c0-.38.19-.57.57-.57s.57.19.57.57v7.49h3.76c.38,0,.57.19.57.57s-.19.57-.57.57h-4.33Z"/><path class="cls-4" d="M44.1,59.6c-.38,0-.57-.19-.57-.57v-8.06c0-.38.19-.57.57-.57s.57.19.57.57v7.49h3.76c.38,0,.57.19.57.57s-.19.57-.57.57c0,0-4.33,0-4.33,0Z"/></g></g></svg>