<?xml version="1.0" encoding="UTF-8"?><svg xmlns="http://www.w3.org/2000/svg" viewBox="0 0 64 64"><defs><style>.cls-1{fill:none;}.cls-2,.cls-3{fill:#0072ff;}.cls-4{fill:#fff;}.cls-3{isolation:isolate;opacity:.15;}</style></defs><g id="Layer_2"><rect class="cls-1" width="64" height="64"/></g><g id="Layer_1"><g id="Document"><path class="cls-3" d="M42.52,13.11c-1.46,0-2.85-.58-3.88-1.61-1.03-1.03-1.61-2.42-1.61-3.88V0H12.5C10.6,0,8.78.75,7.44,2.1c-1.35,1.34-2.1,3.16-2.1,5.06v43.18c0,1.9.76,3.72,2.1,5.06,1.34,1.34,3.16,2.09,5.06,2.09h29.44c.94,0,1.87-.18,2.74-.54.87-.36,1.66-.89,2.32-1.55s1.19-1.45,1.55-2.32.55-1.8.55-2.74V13.1h-6.59.01Z"/><path class="cls-2" d="M49.11,13.11h-6.59c-1.46,0-2.85-.58-3.88-1.61-1.03-1.03-1.61-2.42-1.61-3.88V0s12.08,13.11,12.08,13.11Z"/><path class="cls-2" d="M54.36,45.5H21.04c-2.36,0-4.28,1.92-4.28,4.28v9.94c0,2.36,1.92,4.28,4.28,4.28h33.33c2.36,0,4.28-1.92,4.28-4.28v-9.94c0-2.36-1.92-4.28-4.28-4.28h-.01Z"/></g><g id="File"><path class="cls-2" d="M39.32,22H15.07c-.23,0-.46-.09-.62-.26s-.26-.39-.26-.62c0-.12.02-.23.07-.34.04-.11.11-.2.19-.29.08-.08.18-.15.29-.19s.22-.07.34-.07h24.24c.23,0,.46.09.62.26.17.17.26.39.26.62s-.09.46-.26.62-.39.26-.62.26h0Z"/><path class="cls-2" d="M39.32,27.25H15.07c-.23,0-.46-.09-.62-.26-.16-.16-.26-.39-.26-.62,0-.12.02-.23.07-.34.04-.11.11-.2.19-.29.08-.08.18-.15.29-.19s.22-.07.34-.07h24.24c.23,0,.46.09.62.26.17.17.26.39.26.62s-.09.46-.26.62-.39.26-.62.26h0Z"/><path class="cls-2" d="M39.32,32.51H15.07c-.12,0-.23-.02-.34-.07-.11-.04-.2-.11-.29-.19s-.15-.18-.19-.29-.07-.22-.07-.34c0-.23.09-.46.26-.62.16-.16.39-.26.62-.26h24.24c.23,0,.46.09.62.26s.26.39.26.62-.09.46-.26.62c-.17.17-.39.26-.62.26h.01Z"/><path class="cls-2" d="M29.75,37.76h-14.68c-.12,0-.23-.02-.34-.07-.11-.04-.2-.11-.29-.19s-.15-.18-.19-.29-.07-.22-.07-.34c0-.23.09-.46.26-.62.16-.16.39-.26.62-.26h14.68c.23,0,.46.09.62.26.16.16.26.39.26.62,0,.12-.02.23-.07.34-.04.11-.11.2-.19.29s-.18.15-.29.19c-.11.04-.22.07-.34.07h.02Z"/><path class="cls-4" d="M24.91,59.61c-.38,0-.57-.19-.57-.57v-8.06c0-.38.19-.57.57-.57h3.27c1.18,0,2.05.28,2.61.84.56.56.84,1.42.84,2.61v2.31c0,1.18-.28,2.05-.83,2.61s-1.42.83-2.61.83h-3.28ZM25.48,58.47h2.7c.58,0,1.04-.07,1.37-.21.34-.14.58-.38.72-.72s.22-.8.22-1.38v-2.31c0-.57-.07-1.03-.22-1.36-.14-.34-.38-.58-.72-.73-.33-.14-.79-.22-1.37-.22h-2.7v6.92h0Z"/><path class="cls-4" d="M36.83,59.61c-1.04,0-1.8-.25-2.3-.74-.49-.5-.74-1.26-.74-2.3v-3.13c0-1.04.25-1.81.75-2.3.5-.49,1.26-.74,2.29-.73h1.63c1.04,0,1.81.25,2.3.74.49.49.74,1.26.74,2.3v3.12c0,1.04-.25,1.8-.74,2.3-.49.49-1.26.74-2.3.74h-1.63ZM36.83,58.47h1.63c.48,0,.86-.06,1.14-.17.28-.12.47-.31.58-.59.12-.28.18-.66.18-1.14v-3.12c0-.48-.06-.86-.18-1.13-.11-.28-.31-.47-.58-.59s-.66-.18-1.14-.18h-1.63c-.48,0-.86.05-1.13.16s-.47.31-.59.58-.18.66-.18,1.14v3.13c0,.48.06.86.17,1.14.12.28.31.47.59.59.28.11.66.17,1.14.17h0Z"/><path class="cls-4" d="M46.7,59.61c-1.04,0-1.8-.25-2.3-.74-.49-.5-.74-1.26-.74-2.3v-3.12c0-1.04.25-1.81.74-2.31s1.26-.74,2.29-.73h1.64c.85,0,1.5.18,1.95.53s.71.9.78,1.66c.03.19,0,.33-.11.43s-.24.15-.43.15c-.34,0-.54-.19-.6-.57-.05-.42-.19-.7-.43-.84s-.62-.22-1.15-.22h-1.64c-.48,0-.86.05-1.13.16s-.47.31-.58.59-.17.66-.17,1.15v3.12c0,.48.06.86.17,1.14.12.28.31.47.59.59.28.11.66.17,1.14.17h1.63c.53,0,.91-.07,1.15-.22s.39-.43.43-.84c.05-.38.25-.57.6-.57.19,0,.33.05.43.15s.14.24.11.43c-.07.76-.33,1.31-.78,1.66s-1.1.52-1.95.52h-1.64Z"/></g></g></svg>