<?xml version="1.0" encoding="UTF-8"?><svg xmlns="http://www.w3.org/2000/svg" viewBox="0 0 64 64"><defs><style>.cls-1{fill:none;}.cls-2{fill:#fff;}.cls-3{isolation:isolate;opacity:.15;}.cls-3,.cls-4{fill:#005fad;}</style></defs><g id="Layer_2"><rect class="cls-1" width="64" height="64"/></g><g id="Layer_1"><g id="Document"><path class="cls-3" d="M42.52,13.11c-1.46,0-2.85-.58-3.88-1.61-1.03-1.03-1.61-2.42-1.61-3.88V0H12.5C10.6,0,8.78.75,7.44,2.1c-1.35,1.34-2.1,3.16-2.1,5.06v43.18c0,1.9.76,3.72,2.1,5.06,1.34,1.34,3.16,2.09,5.06,2.09h29.44c.94,0,1.87-.18,2.74-.54.87-.36,1.66-.89,2.32-1.55s1.19-1.45,1.55-2.32.55-1.8.55-2.74V13.1h-6.59.01Z"/><path class="cls-4" d="M49.11,13.11h-6.59c-1.46,0-2.85-.58-3.88-1.61-1.03-1.03-1.61-2.42-1.61-3.88V0s12.08,13.11,12.08,13.11Z"/><path class="cls-4" d="M54.36,45.5H21.04c-2.36,0-4.28,1.92-4.28,4.28v9.94c0,2.36,1.92,4.28,4.28,4.28h33.33c2.36,0,4.28-1.92,4.28-4.28v-9.94c0-2.36-1.92-4.28-4.28-4.28h-.01Z"/></g><g id="File"><path class="cls-4" d="M39.32,24.55H15.07c-.23,0-.46-.09-.62-.26-.16-.16-.26-.39-.26-.62s.09-.46.26-.62c.16-.16.39-.26.62-.26h24.24c.12,0,.23.02.34.07.11.04.2.11.28.19.08.08.15.18.19.29.04.11.07.22.07.34,0,.23-.09.46-.26.62-.16.16-.39.26-.62.26h0Z"/><path class="cls-4" d="M33.06,16.88v24.24c0,.12-.02.23-.07.34-.04.11-.11.2-.19.29-.08.08-.18.15-.29.19-.11.04-.22.07-.34.07s-.23-.02-.34-.07c-.11-.04-.2-.11-.28-.19-.08-.08-.15-.18-.19-.29s-.07-.22-.07-.34v-24.24c0-.23.09-.46.26-.62.16-.16.39-.26.62-.26s.46.09.62.26c.17.16.26.39.26.62h.01Z"/><path class="cls-4" d="M34.23,20.74h-3.98c-.45,0-.82.37-.82.82v3.98c0,.45.37.82.82.82h3.98c.45,0,.82-.37.82-.82v-3.98c0-.45-.37-.82-.82-.82Z"/><path class="cls-2" d="M24.05,59.6c-.38,0-.57-.19-.57-.57v-8.05c0-.38.19-.57.57-.57h3.27c1.18,0,2.05.28,2.6.84.56.56.84,1.42.84,2.6v2.3c0,1.18-.28,2.05-.83,2.61s-1.42.83-2.61.83h-3.27ZM24.6,58.46h2.7c.58,0,1.03-.07,1.37-.21s.58-.38.72-.72.22-.8.22-1.38v-2.3c0-.57-.07-1.03-.22-1.36-.14-.34-.38-.58-.72-.72-.33-.14-.79-.22-1.37-.22h-2.7v6.91Z"/><path class="cls-2" d="M34.94,59.6c-.25,0-.42-.16-.53-.49l-2.51-7.94c-.05-.17-.03-.34.07-.51.11-.17.26-.26.47-.26.11,0,.21.04.31.11s.17.18.22.33l2.21,7.03h-.3l2.1-6.96c.05-.16.13-.28.25-.37.12-.08.25-.12.37-.12.14,0,.27.04.39.12s.21.2.26.37l2.1,6.96h-.3l2.21-7.03c.05-.15.12-.26.21-.32.09-.07.2-.1.3-.1.2,0,.36.08.47.23s.14.33.08.53l-2.51,7.94c-.11.33-.31.49-.6.49h-.03c-.3,0-.5-.16-.6-.49l-2.18-7.06h.3l-2.19,7.06c-.05.16-.11.28-.2.37-.09.08-.22.12-.39.12h.02Z"/><path class="cls-2" d="M47.55,59.6c-1.03,0-1.8-.25-2.3-.74-.49-.5-.74-1.26-.74-2.3v-3.12c0-1.04.25-1.81.74-2.3.49-.5,1.25-.74,2.28-.73h1.64c.85,0,1.5.18,1.94.53.45.35.71.9.78,1.65.03.19,0,.33-.11.43s-.24.15-.43.15c-.34,0-.54-.19-.6-.57-.05-.42-.19-.7-.43-.84s-.62-.22-1.15-.22h-1.64c-.48,0-.86.05-1.13.16s-.47.31-.58.59-.17.66-.17,1.15v3.12c0,.48.06.86.17,1.14.12.28.31.47.59.59.28.11.65.17,1.14.17h1.63c.42,0,.75-.05.98-.14.24-.09.41-.26.5-.49s.14-.57.14-1v-.64h-1.06c-.38,0-.57-.2-.57-.58s.19-.57.57-.57h1.63c.38,0,.57.2.57.58v1.21c0,.96-.22,1.66-.67,2.11-.45.44-1.15.66-2.09.66,0,0-1.63,0-1.63,0Z"/></g></g></svg>