<?xml version="1.0" encoding="UTF-8"?><svg xmlns="http://www.w3.org/2000/svg" viewBox="0 0 64 64"><defs><style>.cls-1{fill:none;}.cls-2{isolation:isolate;opacity:.15;}.cls-2,.cls-3{fill:#ff3e4c;}.cls-4{fill:#fff;}</style></defs><g id="Layer_2"><rect class="cls-1" width="64" height="64"/></g><g id="Layer_1"><g id="Document"><path class="cls-2" d="M42.52,13.11c-1.46,0-2.85-.58-3.88-1.61-1.03-1.03-1.61-2.42-1.61-3.88V0H12.5C10.6,0,8.78.75,7.44,2.1c-1.35,1.34-2.1,3.16-2.1,5.06v43.18c0,1.9.76,3.72,2.1,5.06,1.34,1.34,3.16,2.09,5.06,2.09h29.44c.94,0,1.87-.18,2.74-.54.87-.36,1.66-.89,2.32-1.55s1.19-1.45,1.55-2.32.55-1.8.55-2.74V13.1h-6.59.01Z"/><path class="cls-3" d="M49.11,13.11h-6.59c-1.46,0-2.85-.58-3.88-1.61-1.03-1.03-1.61-2.42-1.61-3.88V0s12.08,13.11,12.08,13.11Z"/><path class="cls-3" d="M54.36,45.5H21.04c-2.36,0-4.28,1.92-4.28,4.28v9.94c0,2.36,1.92,4.28,4.28,4.28h33.33c2.36,0,4.28-1.92,4.28-4.28v-9.94c0-2.36-1.92-4.28-4.28-4.28h-.01Z"/></g><g id="File"><path class="cls-3" d="M40.19,37.34v-16.67c0-.08,0-.16-.02-.24v-.07c0-.06-.03-.11-.05-.16l-.03-.07s-.05-.1-.08-.15l-.03-.06c-.05-.06-.09-.12-.15-.18l-.02-.02s-.1-.09-.15-.13l-.06-.04s-.09-.05-.14-.08l-.07-.03c-.06-.02-.11-.04-.17-.05h-.06c-.08-.02-.16-.03-.24-.02H15.38c-.32.03-.62.18-.84.42s-.34.55-.34.88v16.72c0,.21.06.42.19.59.12.19.28.35.48.47s.42.17.64.17h23.41c.34,0,.66-.14.9-.38s.37-.56.38-.9h-.01ZM16.26,22.52c-.39,0-.7-.31-.7-.7v-1.13c0-.39.31-.7.7-.7h.66c.39,0,.7.31.7.7v1.13c0,.39-.31.7-.7.7h-.66ZM19.73,22.52c-.39,0-.7-.31-.7-.7v-1.13c0-.39.31-.7.7-.7h.66c.39,0,.7.31.7.7v1.13c0,.39-.31.7-.7.7h-.66ZM23.22,22.52c-.39,0-.7-.31-.7-.7v-1.13c0-.39.31-.7.7-.7h.66c.39,0,.7.31.7.7v1.13c0,.39-.31.7-.7.7h-.66ZM26.68,22.52c-.39,0-.7-.31-.7-.7v-1.13c0-.39.31-.7.7-.7h.66c.39,0,.7.31.7.7v1.13c0,.39-.31.7-.7.7h-.66ZM30.15,22.52c-.39,0-.7-.31-.7-.7v-1.13c0-.39.31-.7.7-.7h.66c.39,0,.7.31.7.7v1.13c0,.39-.31.7-.7.7h-.66ZM33.64,22.52c-.39,0-.7-.31-.7-.7v-1.13c0-.39.31-.7.7-.7h.66c.39,0,.7.31.7.7v1.13c0,.39-.31.7-.7.7h-.66ZM37.1,22.52c-.39,0-.7-.31-.7-.7v-1.13c0-.39.31-.7.7-.7h.66c.39,0,.7.31.7.7v1.13c0,.39-.31.7-.7.7h-.66ZM15.79,34.78c-.39,0-.7-.31-.7-.7v-10.19c0-.39.31-.7.7-.7h22.79c.39,0,.7.31.7.7v10.19c0,.39-.31.7-.7.7H15.79ZM16.26,37.99c-.39,0-.7-.31-.7-.7v-1.13c0-.39.31-.7.7-.7h.66c.39,0,.7.31.7.7v1.13c0,.39-.31.7-.7.7h-.66ZM19.73,37.99c-.39,0-.7-.31-.7-.7v-1.13c0-.39.31-.7.7-.7h.66c.39,0,.7.31.7.7v1.13c0,.39-.31.7-.7.7h-.66ZM23.2,37.99c-.39,0-.7-.31-.7-.7v-1.13c0-.39.31-.7.7-.7h.66c.39,0,.7.31.7.7v1.13c0,.39-.31.7-.7.7h-.66ZM26.68,37.99c-.39,0-.7-.31-.7-.7v-1.13c0-.39.31-.7.7-.7h.66c.39,0,.7.31.7.7v1.13c0,.39-.31.7-.7.7h-.66ZM30.15,37.99c-.39,0-.7-.31-.7-.7v-1.13c0-.39.31-.7.7-.7h.66c.39,0,.7.31.7.7v1.13c0,.39-.31.7-.7.7h-.66ZM33.62,37.99c-.39,0-.7-.31-.7-.7v-1.13c0-.39.31-.7.7-.7h.66c.39,0,.7.31.7.7v1.13c0,.39-.31.7-.7.7h-.66ZM37.1,37.99c-.39,0-.7-.31-.7-.7v-1.13c0-.39.31-.7.7-.7h.66c.39,0,.7.31.7.7v1.13c0,.39-.31.7-.7.7h-.66Z"/><path class="cls-3" d="M29.93,28.13l-3.34-1.93c-.17-.1-.37-.15-.57-.15s-.4.05-.57.15-.32.24-.42.42c-.1.17-.15.37-.15.57v3.86c0,.2.05.4.15.57s.24.32.42.42c.17.1.37.15.57.15s.4-.05.57-.15l3.34-1.93c.17-.1.32-.24.42-.42s.15-.37.15-.57-.05-.4-.15-.57-.24-.32-.42-.42h0Z"/><path class="cls-4" d="M27.82,59.6c-.38,0-.57-.19-.57-.57v-8.05c0-.38.19-.57.57-.57h4.99c.18,0,.31.05.41.16.1.1.16.24.16.41,0,.38-.19.57-.57.57h-4.42v2.85h2.72c.38,0,.57.19.57.57s-.19.57-.57.57h-2.72v3.5c0,.38-.19.57-.57.57h0Z"/><path class="cls-4" d="M35.35,59.6c-.38,0-.57-.19-.57-.57v-8.05c0-.38.19-.57.57-.57s.57.19.57.57v7.48h3.75c.38,0,.57.19.57.57s-.19.57-.57.57h-4.32Z"/><path class="cls-4" d="M44.05,59.6c-.23,0-.42-.15-.56-.45l-3.35-7.93c-.07-.16-.09-.3-.05-.42.03-.13.14-.23.31-.31.37-.19.63-.09.79.28l3.16,7.5h-.39l3.08-7.5c.15-.37.41-.47.79-.28.16.08.26.19.29.31.04.12.03.26-.03.42l-3.37,7.93c-.14.3-.34.45-.61.45h-.06Z"/></g></g></svg>