<?xml version="1.0" encoding="UTF-8"?><svg xmlns="http://www.w3.org/2000/svg" viewBox="0 0 64 64"><defs><style>.cls-1{fill:none;}.cls-2,.cls-3{fill:#ff9908;}.cls-4{fill:#fff;}.cls-3{isolation:isolate;opacity:.15;}</style></defs><g id="Layer_2"><rect class="cls-1" width="64" height="64"/></g><g id="Layer_1"><g id="Document"><path class="cls-3" d="M42.52,13.11c-1.46,0-2.85-.58-3.88-1.61-1.03-1.03-1.61-2.42-1.61-3.88V0H12.5C10.6,0,8.78.75,7.44,2.1c-1.35,1.34-2.1,3.16-2.1,5.06v43.18c0,1.9.76,3.72,2.1,5.06,1.34,1.34,3.16,2.09,5.06,2.09h29.44c.94,0,1.87-.18,2.74-.54.87-.36,1.66-.89,2.32-1.55s1.19-1.45,1.55-2.32.55-1.8.55-2.74V13.1h-6.59.01Z"/><path class="cls-2" d="M49.11,13.11h-6.59c-1.46,0-2.85-.58-3.88-1.61-1.03-1.03-1.61-2.42-1.61-3.88V0s12.08,13.11,12.08,13.11Z"/><path class="cls-2" d="M54.36,45.5H21.04c-2.36,0-4.28,1.92-4.28,4.28v9.94c0,2.36,1.92,4.28,4.28,4.28h33.33c2.36,0,4.28-1.92,4.28-4.28v-9.94c0-2.36-1.92-4.28-4.28-4.28h-.01Z"/></g><g id="File"><path class="cls-2" d="M27.19,42c-3.45,0-6.75-1.38-9.19-3.81-2.44-2.44-3.81-5.74-3.81-9.19s1.38-6.75,3.81-9.19c2.44-2.44,5.74-3.81,9.19-3.81s6.75,1.38,9.19,3.81c2.44,2.44,3.81,5.74,3.81,9.19s-1.38,6.75-3.81,9.19c-2.44,2.44-5.74,3.81-9.19,3.81ZM27.19,18.28c-2.84,0-5.57,1.14-7.58,3.15s-3.14,4.73-3.15,7.58c0,2.84,1.14,5.57,3.15,7.58,2.01,2.01,4.73,3.14,7.58,3.15,2.84,0,5.57-1.14,7.58-3.15,2.01-2.01,3.14-4.73,3.15-7.58,0-2.84-1.14-5.57-3.15-7.58s-4.73-3.14-7.58-3.15Z"/><path class="cls-2" d="M27.19,36.29c-1.49,0-2.95-.36-4.26-1.06-.97-.52-1.84-1.21-2.56-2.04-.41-.48-.27-1.19.26-1.54.52-.35,1.22-.2,1.66.26.5.53,1.08.97,1.72,1.31.98.52,2.07.8,3.18.8s2.2-.27,3.18-.8c.64-.34,1.22-.79,1.72-1.31.43-.46,1.13-.61,1.66-.26.52.35.67,1.06.26,1.54-.72.83-1.58,1.52-2.56,2.04-1.31.7-2.77,1.07-4.25,1.07h-.01Z"/><path class="cls-2" d="M23.59,27.01c.84,0,1.51-.68,1.51-1.51s-.68-1.51-1.51-1.51-1.51.68-1.51,1.51.68,1.51,1.51,1.51Z"/><path class="cls-2" d="M30.8,27.01c.84,0,1.51-.68,1.51-1.51s-.68-1.51-1.51-1.51-1.51.68-1.51,1.51.68,1.51,1.51,1.51Z"/><path class="cls-4" d="M30.8,59.6c-1.04,0-1.8-.25-2.3-.74-.49-.5-.74-1.26-.74-2.3v-3.12c0-1.04.25-1.81.74-2.31s1.26-.74,2.29-.73h1.64c.85,0,1.5.18,1.95.53s.71.9.78,1.66c.03.19,0,.33-.11.43s-.24.15-.43.15c-.34,0-.54-.19-.6-.57-.05-.42-.19-.7-.43-.84s-.62-.22-1.15-.22h-1.64c-.48,0-.86.05-1.13.16-.27.11-.47.31-.58.59s-.17.66-.17,1.15v3.12c0,.48.06.86.17,1.14.12.28.31.47.59.59.28.11.66.17,1.14.17h1.63c.42,0,.75-.05.98-.14.24-.09.41-.26.5-.5s.14-.57.14-1v-.64h-1.06c-.38,0-.57-.2-.57-.58s.19-.57.57-.57h1.63c.38,0,.57.2.57.58v1.21c0,.96-.22,1.67-.67,2.11-.45.44-1.15.66-2.1.66h-1.64Z"/><path class="cls-4" d="M38.12,59.6c-.19,0-.34-.05-.43-.14s-.14-.24-.14-.43v-8.05c0-.2.05-.34.14-.43s.24-.14.43-.14.34.05.43.14.14.24.14.43v8.05c0,.19-.05.34-.14.43s-.24.14-.43.14Z"/><path class="cls-4" d="M42.09,59.6c-.38,0-.57-.19-.57-.57v-8.06c0-.38.19-.57.57-.57h4.99c.18,0,.31.05.41.16.1.1.16.24.16.41,0,.38-.19.57-.57.57h-4.42v2.85h2.73c.38,0,.57.19.57.57s-.19.57-.57.57h-2.73v3.5c0,.38-.19.57-.57.57h0Z"/></g></g></svg>