<svg xmlns="http://www.w3.org/2000/svg" viewBox="0 0 64 64"><defs><style>.cls-1{fill:none;}.cls-2{fill:#fff;}.cls-3{fill:#4285f4;}.cls-4{fill:#34a853;}.cls-5{fill:#188038;}.cls-6{fill:#fbbc04;}.cls-7{fill:#1967d2;}.cls-8{fill:#ea4335;}</style></defs><title>Google Calendar icon - Uncanny Automator</title><g id="Layer_2" data-name="Layer 2"><rect class="cls-1" width="64" height="64"/></g><g id="Layer_1" data-name="Layer 1"><path class="cls-2" d="M48.84,15.16H15.16V48.84H48.84Z"/><path class="cls-3" d="M22.07,41.29a6.52,6.52,0,0,1-2.61-3.74l2.92-1.2a4.49,4.49,0,0,0,1.39,2.35,3.62,3.62,0,0,0,2.39.83,3.71,3.71,0,0,0,2.47-.87,2.81,2.81,0,0,0,1-2.22,2.74,2.74,0,0,0-1.09-2.25,4.2,4.2,0,0,0-2.72-.87H24.16V30.43h1.52A3.73,3.73,0,0,0,28,29.67a2.51,2.51,0,0,0,1-2.08,2.27,2.27,0,0,0-.86-1.87A3.29,3.29,0,0,0,26,25a2.94,2.94,0,0,0-2,.69,4,4,0,0,0-1.1,1.69l-2.9-1.2A6.48,6.48,0,0,1,22,23.31,6.1,6.1,0,0,1,26,22.06a7.18,7.18,0,0,1,3.19.69,5.38,5.38,0,0,1,2.22,1.9,4.84,4.84,0,0,1,.8,2.74A4.49,4.49,0,0,1,31.46,30a5.13,5.13,0,0,1-1.83,1.65v.17A5.61,5.61,0,0,1,32,33.65a4.78,4.78,0,0,1,.92,3A5.54,5.54,0,0,1,32,39.67a6.12,6.12,0,0,1-2.4,2.12,7.67,7.67,0,0,1-3.45.77,7.17,7.17,0,0,1-4.1-1.27Zm18-14.5-3.21,2.32L35.2,26.67,41,22.52h2.21V42.11H40Z"/><path class="cls-4" d="M48.84,48.84H15.16V64H48.84Z"/><path class="cls-3" d="M48.84,0H5.05A5,5,0,0,0,0,5.05V48.84H15.16V15.16H48.84Z"/><path class="cls-5" d="M0,48.84V59a5,5,0,0,0,5.05,5H15.16V48.84Z"/><path class="cls-6" d="M64,15.16H48.84V48.84H64Z"/><path class="cls-7" d="M64,15.16V5.05a5,5,0,0,0-5-5H48.84V15.16Z"/><path class="cls-8" d="M48.84,64,64,48.84H48.84Z"/></g></svg>