<svg xmlns="http://www.w3.org/2000/svg" xmlns:xlink="http://www.w3.org/1999/xlink" viewBox="0 0 64 64"><defs><title>Google Sheets icon - Uncanny Automator</title><style>.a,.h{fill:#fff;}.a{fill-rule:evenodd;}.b{fill:none;}.c{mask:url(#a);}.d{fill:#0f9d58;}.e{fill:#f1f1f1;}.f{fill:url(#d);}.g{fill:#87ceac;}.h,.i{fill-opacity:0.2;}.i,.j{fill:#263238;}.j{fill-opacity:0.1;}.k{fill:url(#i);}</style><mask id="a" x="10.59" y="0" width="46.55" height="64" maskUnits="userSpaceOnUse"><g transform="translate(0 0)"><path class="a" d="M39.68,0H15a4.38,4.38,0,0,0-4.37,4.36V59.64A4.38,4.38,0,0,0,15,64H52.78a4.37,4.37,0,0,0,4.36-4.36V17.45Z"/></g></mask><linearGradient id="d" x1="1.99" y1="65.05" x2="1.99" y2="64.15" gradientTransform="matrix(16.45, 0, 0, -16.45, 16.26, 1087.55)" gradientUnits="userSpaceOnUse"><stop offset="0" stop-color="#263238" stop-opacity="0.2"/><stop offset="1" stop-color="#263238" stop-opacity="0.02"/></linearGradient><radialGradient id="i" cx="1.22" cy="65.01" r="1.59" gradientTransform="matrix(47.33, 0, 0, -47.33, -45.5, 3079.11)" gradientUnits="userSpaceOnUse"><stop offset="0" stop-color="#fff" stop-opacity="0.1"/><stop offset="1" stop-color="#fff" stop-opacity="0"/></radialGradient></defs><rect class="b" width="64" height="64"/><g class="c"><path class="d" d="M39.68,0H15a4.38,4.38,0,0,0-4.37,4.36V59.64A4.38,4.38,0,0,0,15,64H52.78a4.37,4.37,0,0,0,4.36-4.36V17.45L47,10.18Z" transform="translate(0 0)"/></g><g class="c"><path class="e" d="M22.23,31.27V52.36H45.5V31.27ZM32.41,49.45H25.14V45.82h7.27Zm0-5.81H25.14V40h7.27Zm0-5.82H25.14V34.18h7.27ZM42.59,49.45H35.32V45.82h7.27Zm0-5.81H35.32V40h7.27Zm0-5.82H35.32V34.18h7.27Z" transform="translate(0 0)"/></g><g class="c"><polygon class="f" points="40.96 16.18 57.14 32.35 57.14 17.45 40.96 16.18"/></g><g class="c"><path class="g" d="M39.68,0V13.09a4.37,4.37,0,0,0,4.37,4.36H57.14Z" transform="translate(0 0)"/></g><g class="c"><path class="h" d="M15,0a4.38,4.38,0,0,0-4.37,4.36v.37A4.39,4.39,0,0,1,15,.36H39.68V0Z" transform="translate(0 0)"/></g><g class="c"><path class="i" d="M52.78,63.64H15a4.39,4.39,0,0,1-4.37-4.37v.37A4.38,4.38,0,0,0,15,64H52.78a4.37,4.37,0,0,0,4.36-4.36v-.37A4.38,4.38,0,0,1,52.78,63.64Z" transform="translate(0 0)"/></g><g class="c"><path class="j" d="M44.05,17.45a4.37,4.37,0,0,1-4.37-4.36v.36a4.37,4.37,0,0,0,4.37,4.37H57.14v-.37Z" transform="translate(0 0)"/></g><path class="k" d="M39.68,0H15a4.38,4.38,0,0,0-4.37,4.36V59.64A4.38,4.38,0,0,0,15,64H52.78a4.37,4.37,0,0,0,4.36-4.36V17.45Z" transform="translate(0 0)"/></svg>