<?xml version="1.0" encoding="UTF-8"?><svg xmlns="http://www.w3.org/2000/svg" viewBox="0 0 64 64"><defs><style>.cls-1{fill:none;}.cls-2,.cls-3{fill:#00c650;}.cls-4{fill:#fff;}.cls-3{isolation:isolate;opacity:.15;}</style></defs><g id="Layer_2"><rect class="cls-1" width="64" height="64"/></g><g id="Layer_1"><g id="Document"><path class="cls-3" d="M42.52,13.11c-1.46,0-2.85-.58-3.88-1.61-1.03-1.03-1.61-2.42-1.61-3.88V0H12.5C10.6,0,8.78.75,7.44,2.1c-1.35,1.34-2.1,3.16-2.1,5.06v43.18c0,1.9.76,3.72,2.1,5.06,1.34,1.34,3.16,2.09,5.06,2.09h29.44c.94,0,1.87-.18,2.74-.54.87-.36,1.66-.89,2.32-1.55s1.19-1.45,1.55-2.32.55-1.8.55-2.74V13.1h-6.59.01Z"/><path class="cls-2" d="M49.11,13.11h-6.59c-1.46,0-2.85-.58-3.88-1.61-1.03-1.03-1.61-2.42-1.61-3.88V0s12.08,13.11,12.08,13.11Z"/><path class="cls-2" d="M54.36,45.5H21.04c-2.36,0-4.28,1.92-4.28,4.28v9.94c0,2.36,1.92,4.28,4.28,4.28h33.33c2.36,0,4.28-1.92,4.28-4.28v-9.94c0-2.36-1.92-4.28-4.28-4.28h-.01Z"/></g><g id="File"><path class="cls-2" d="M14.19,29.46c0-.14.04-.27.12-.38.1-.12.21-.23.35-.32.2-.1.41-.19.62-.27l.62-.26,2.47-1.04c.34-.16.98-.43,1.92-.8l1.18-.48.42-.15.07-.03h.06s.1-.03.15-.03c.1,0,.2,0,.29.04.09.03.18.09.25.15.06.06.11.13.14.21.03.08.05.16.05.25v.81c0,.15-.05.3-.14.42-.09.14-.22.25-.37.3l-5.05,2.07,5.05,2.07c.15.06.28.16.37.29.09.12.14.26.14.41v.81c0,.17-.07.34-.2.46-.07.07-.16.12-.25.16s-.19.05-.29.04c-.05,0-.1,0-.15-.03l-.13-.04-.42-.15-1.18-.48-1.92-.8-2.47-1.04-.62-.26c-.2-.08-.41-.17-.62-.27-.13-.06-.24-.16-.33-.28-.08-.12-.13-.26-.14-.4v-.98h.01Z"/><path class="cls-2" d="M24.31,35.07c-.2,0-.39-.06-.55-.19-.07-.05-.12-.12-.16-.2s-.06-.16-.06-.25c0-.12.36-.96,1.09-2.56l1.06-2.32.22-.48,1.7-3.78.6-1.31.12-.3c.05-.11.1-.22.17-.32.08-.14.2-.25.35-.33.14-.08.3-.11.47-.11h.75c.2,0,.4.06.55.19.07.05.12.12.16.2.04.08.06.16.06.25-.26.75-.56,1.48-.9,2.19l-.17.36-1.28,2.8-1.7,3.78-.6,1.31-.12.3c-.04.12-.1.24-.16.35-.09.14-.21.25-.36.32-.14.08-.31.12-.47.11h-.77Z"/><path class="cls-2" d="M32.22,34.21c-.1,0-.2,0-.3-.04-.1-.03-.18-.09-.26-.16-.06-.06-.11-.13-.14-.21s-.05-.16-.05-.25v-.81c0-.15.04-.29.13-.41.1-.13.23-.24.38-.29l5.06-2.07-5.06-2.07c-.15-.07-.29-.18-.38-.32-.09-.12-.13-.27-.13-.42v-.83c0-.09.02-.17.05-.25.03-.08.09-.15.15-.21.15-.13.35-.2.55-.2.05,0,.1,0,.14.03h.08l.07.03s.12.04.41.15l1.19.48c-.06-.03.58.24,1.92.8.73.3,1.57.66,2.52,1.07.06.02.14.05.24.09l.35.14c.2.07.4.16.59.27.14.06.25.16.33.28s.13.27.13.41v.99c0,.14-.05.27-.13.38-.09.12-.2.23-.34.3-.18.09-.4.19-.64.29l-.64.26-5.58,2.34c-.16.08-.26.13-.29.15l-.06.04-.29.03h0Z"/><path class="cls-4" d="M20.37,59.6c-.15,0-.28-.06-.4-.17-.11-.12-.17-.25-.17-.4v-8.06c0-.15.06-.28.17-.39.12-.12.25-.18.4-.18s.28.06.39.18c.12.11.18.24.18.39v3.41h5.54v-3.41c0-.15.06-.28.17-.39.11-.12.25-.18.4-.18s.28.06.39.18c.12.11.18.24.18.39v8.06c0,.15-.06.28-.18.4s-.24.17-.39.17-.29-.06-.4-.17c-.11-.12-.17-.25-.17-.4v-3.51h-5.54v3.51c0,.15-.06.28-.18.4-.11.11-.24.17-.39.17Z"/><path class="cls-4" d="M33.2,59.6c-.19,0-.33-.05-.43-.14s-.14-.24-.14-.43v-7.48h-2.63c-.19,0-.33-.05-.43-.14s-.14-.24-.14-.43.05-.33.14-.43.24-.14.43-.14h6.4c.19,0,.33.05.43.14s.14.24.14.43-.05.33-.14.43-.24.14-.43.14h-2.63v7.48c0,.18-.05.32-.15.42-.09.1-.24.15-.42.15Z"/><path class="cls-4" d="M39.35,59.6c-.38,0-.57-.19-.57-.57v-8.06c0-.38.19-.57.57-.57.25,0,.46.12.62.37l3.2,4.82-.24.04,3.23-4.86c.15-.24.38-.37.69-.37s.46.19.46.57v8.06c0,.38-.19.57-.57.57s-.57-.19-.57-.57v-6.92l.35.12-2.85,4.19c-.17.24-.4.37-.69.37-.2,0-.39-.12-.56-.37l-2.85-4.19.34.09v6.7c0,.38-.19.57-.57.57h.01Z"/><path class="cls-4" d="M50.7,59.6c-.38,0-.57-.19-.57-.57v-8.06c0-.38.19-.57.57-.57s.57.19.57.57v7.49h3.76c.38,0,.57.19.57.57s-.19.57-.57.57h-4.33Z"/></g></g></svg>