<?xml version="1.0" encoding="utf-8"?><svg id="Layer_1" data-name="Layer 1" xmlns="http://www.w3.org/2000/svg" xmlns:xlink="http://www.w3.org/1999/xlink" viewBox="0 0 64 64"><defs><style>.cls-1{fill:none;}.cls-2{fill:url(#radial-gradient);}.cls-3{fill:url(#radial-gradient-2);}</style><radialGradient id="radial-gradient" cx="8.45" cy="1.7" r="83.55" gradientTransform="matrix(1, 0, 0, -1, 0.05, 66)" gradientUnits="userSpaceOnUse"><stop offset="0.09" stop-color="#fa8f21"/><stop offset="0.78" stop-color="#d82d7e"/></radialGradient><radialGradient id="radial-gradient-2" cx="38.76" cy="-1.17" r="65.85" gradientTransform="matrix(1, 0, 0, -1, 0.05, 66)" gradientUnits="userSpaceOnUse"><stop offset="0.64" stop-color="#8c3aaa" stop-opacity="0"/><stop offset="1" stop-color="#8c3aaa"/></radialGradient></defs><title>Instagram icon - Uncanny Automator</title><rect class="cls-1" width="64" height="64"/><g id="Layer_2" data-name="Layer 2"><path class="cls-2" d="M21.34,32A10.67,10.67,0,1,1,32,42.67,10.67,10.67,0,0,1,21.34,32m-5.77,0A16.43,16.43,0,1,0,32,15.57,16.43,16.43,0,0,0,15.57,32M45.24,14.92a3.84,3.84,0,1,0,3.84-3.84h0a3.85,3.85,0,0,0-3.84,3.84M19.07,58.05A17.61,17.61,0,0,1,13.13,57a10.08,10.08,0,0,1-3.68-2.4,9.85,9.85,0,0,1-2.39-3.68A17.55,17.55,0,0,1,6,44.93C5.8,41.56,5.77,40.55,5.77,32s0-9.56.19-12.93a17.61,17.61,0,0,1,1.1-5.94A9.85,9.85,0,0,1,9.45,9.45a9.75,9.75,0,0,1,3.68-2.4A17.61,17.61,0,0,1,19.07,6c3.38-.15,4.39-.19,12.93-.19s9.56,0,12.93.19a18,18,0,0,1,6,1.1,10,10,0,0,1,3.68,2.4A9.77,9.77,0,0,1,57,13.13a17.55,17.55,0,0,1,1.1,5.94c.16,3.37.19,4.38.19,12.93s0,9.56-.19,12.93A17.55,17.55,0,0,1,57,50.87a9.85,9.85,0,0,1-2.39,3.68A10.08,10.08,0,0,1,50.88,57a17.69,17.69,0,0,1-6,1.1c-3.37.15-4.38.18-12.93.18s-9.55,0-12.93-.18M18.81.19A23.59,23.59,0,0,0,11,1.68,15.75,15.75,0,0,0,5.37,5.37,15.67,15.67,0,0,0,1.68,11,23.36,23.36,0,0,0,.2,18.81C0,22.22,0,23.31,0,32s0,9.78.2,13.19A23.36,23.36,0,0,0,1.68,53a15.75,15.75,0,0,0,3.69,5.67A15.75,15.75,0,0,0,11,62.32a23.64,23.64,0,0,0,7.77,1.49C22.22,64,23.31,64,32,64s9.78,0,13.19-.19A23.59,23.59,0,0,0,53,62.32,16.34,16.34,0,0,0,62.32,53a23.59,23.59,0,0,0,1.49-7.77C64,41.78,64,40.69,64,32s0-9.78-.19-13.19A23.59,23.59,0,0,0,62.32,11a15.75,15.75,0,0,0-3.69-5.67A15.67,15.67,0,0,0,53,1.68,23.58,23.58,0,0,0,45.2.19C41.78,0,40.69,0,32,0S22.22,0,18.81.19"/><path class="cls-3" d="M21.34,32A10.67,10.67,0,1,1,32,42.67,10.67,10.67,0,0,1,21.34,32m-5.77,0A16.43,16.43,0,1,0,32,15.57,16.43,16.43,0,0,0,15.57,32M45.24,14.92a3.84,3.84,0,1,0,3.84-3.84h0a3.85,3.85,0,0,0-3.84,3.84M19.07,58.05A17.61,17.61,0,0,1,13.13,57a10.08,10.08,0,0,1-3.68-2.4,9.85,9.85,0,0,1-2.39-3.68A17.55,17.55,0,0,1,6,44.93C5.8,41.56,5.77,40.55,5.77,32s0-9.56.19-12.93a17.61,17.61,0,0,1,1.1-5.94A9.85,9.85,0,0,1,9.45,9.45a9.75,9.75,0,0,1,3.68-2.4A17.61,17.61,0,0,1,19.07,6c3.38-.15,4.39-.19,12.93-.19s9.56,0,12.93.19a18,18,0,0,1,6,1.1,10,10,0,0,1,3.68,2.4A9.77,9.77,0,0,1,57,13.13a17.55,17.55,0,0,1,1.1,5.94c.16,3.37.19,4.38.19,12.93s0,9.56-.19,12.93A17.55,17.55,0,0,1,57,50.87a9.85,9.85,0,0,1-2.39,3.68A10.08,10.08,0,0,1,50.88,57a17.69,17.69,0,0,1-6,1.1c-3.37.15-4.38.18-12.93.18s-9.55,0-12.93-.18M18.81.19A23.59,23.59,0,0,0,11,1.68,15.75,15.75,0,0,0,5.37,5.37,15.67,15.67,0,0,0,1.68,11,23.36,23.36,0,0,0,.2,18.81C0,22.22,0,23.31,0,32s0,9.78.2,13.19A23.36,23.36,0,0,0,1.68,53a15.75,15.75,0,0,0,3.69,5.67A15.75,15.75,0,0,0,11,62.32a23.64,23.64,0,0,0,7.77,1.49C22.22,64,23.31,64,32,64s9.78,0,13.19-.19A23.59,23.59,0,0,0,53,62.32,16.34,16.34,0,0,0,62.32,53a23.59,23.59,0,0,0,1.49-7.77C64,41.78,64,40.69,64,32s0-9.78-.19-13.19A23.59,23.59,0,0,0,62.32,11a15.75,15.75,0,0,0-3.69-5.67A15.67,15.67,0,0,0,53,1.68,23.58,23.58,0,0,0,45.2.19C41.78,0,40.69,0,32,0S22.22,0,18.81.19"/></g></svg>