<?xml version="1.0" encoding="UTF-8"?><svg xmlns="http://www.w3.org/2000/svg" viewBox="0 0 64 64"><defs><style>.cls-1{fill:none;}.cls-2,.cls-3{fill:#0072ff;}.cls-4{fill:#fff;}.cls-3{isolation:isolate;opacity:.15;}</style></defs><g id="Layer_2"><rect class="cls-1" width="64" height="64"/></g><g id="Layer_1"><g id="Document"><path class="cls-3" d="M42.52,13.11c-1.46,0-2.85-.58-3.88-1.61-1.03-1.03-1.61-2.42-1.61-3.88V0H12.5C10.6,0,8.78.75,7.44,2.1c-1.35,1.34-2.1,3.16-2.1,5.06v43.18c0,1.9.76,3.72,2.1,5.06,1.34,1.34,3.16,2.09,5.06,2.09h29.44c.94,0,1.87-.18,2.74-.54.87-.36,1.66-.89,2.32-1.55s1.19-1.45,1.55-2.32.55-1.8.55-2.74V13.1h-6.59.01Z"/><path class="cls-2" d="M49.11,13.11h-6.59c-1.46,0-2.85-.58-3.88-1.61-1.03-1.03-1.61-2.42-1.61-3.88V0s12.08,13.11,12.08,13.11Z"/><path class="cls-2" d="M54.36,45.5H21.04c-2.36,0-4.28,1.92-4.28,4.28v9.94c0,2.36,1.92,4.28,4.28,4.28h33.33c2.36,0,4.28-1.92,4.28-4.28v-9.94c0-2.36-1.92-4.28-4.28-4.28h-.01Z"/></g><g id="File"><path class="cls-2" d="M27.19,42c-3.45,0-6.75-1.37-9.19-3.81-2.44-2.44-3.81-5.74-3.81-9.19s1.37-6.75,3.81-9.19,5.74-3.81,9.19-3.81,6.75,1.37,9.19,3.81c2.44,2.44,3.81,5.74,3.81,9.19s-1.37,6.75-3.81,9.19-5.74,3.81-9.19,3.81h0ZM27.19,16.78c-3.24,0-6.34,1.29-8.63,3.58s-3.58,5.39-3.58,8.63,1.29,6.34,3.58,8.63,5.39,3.58,8.63,3.58,6.34-1.29,8.63-3.58c2.29-2.29,3.58-5.39,3.58-8.63s-1.3-6.34-3.58-8.62c-2.29-2.29-5.39-3.57-8.63-3.57h0v-.02Z"/><path class="cls-2" d="M27.22,16.33v10.34c-.62,0-1.21.25-1.65.69-.44.44-.68,1.03-.68,1.65,0,.41.11.81.31,1.16l-8.91,5.14-.2-.37c-.99-1.84-1.5-3.89-1.5-5.97v-.29c.04-2.16.65-4.27,1.74-6.13,1.09-1.85,2.64-3.39,4.49-4.48,1.86-1.1,3.97-1.7,6.13-1.74,0,0,.27,0,.27,0Z"/><path class="cls-2" d="M39.86,28.99c0,2.18-.56,4.32-1.64,6.21-1.13,2-2.78,3.65-4.77,4.78-1.79,1.02-3.81,1.59-5.87,1.64-.2,0-.36-.16-.36-.36v-9.56c0-.2.16-.36.36-.39.48-.08.93-.31,1.28-.66.43-.44.68-1.03.68-1.64,0-.29-.05-.57-.16-.84-.07-.19-.02-.41.16-.52l8.32-4.81c.18-.1.4-.04.49.14.95,1.76,1.47,3.72,1.51,5.72v.3h0Z"/><path class="cls-2" d="M27.19,30.59c-.42,0-.83-.17-1.13-.47s-.47-.7-.47-1.13.17-.83.47-1.13.7-.47,1.13-.47.83.17,1.13.47.47.71.47,1.13-.17.83-.47,1.13-.7.47-1.13.47h0ZM27.19,28.2c-.21,0-.42.08-.57.24-.15.15-.24.36-.24.57s.09.42.24.57.35.24.57.24.42-.09.57-.24.24-.35.24-.57c0-.11-.02-.21-.06-.31-.04-.1-.1-.19-.17-.26s-.16-.13-.26-.17-.2-.06-.31-.06h-.01Z"/><path class="cls-4" d="M27.9,59.6c-.19,0-.34-.05-.43-.14s-.14-.24-.14-.43v-8.05c0-.2.05-.34.14-.43s.24-.14.43-.14.34.05.43.14.14.24.14.43v8.05c0,.19-.05.34-.14.43s-.24.14-.43.14Z"/><path class="cls-4" d="M33.59,59.6c-.77,0-1.38-.16-1.81-.47s-.7-.79-.81-1.45c-.02-.2.02-.35.12-.45s.24-.15.43-.15.33.05.41.14c.09.09.15.23.18.42.07.31.21.53.43.64.23.11.57.17,1.03.17h1.95c.58,0,.98-.1,1.19-.31.21-.21.32-.61.32-1.18s-.11-.98-.33-1.19c-.22-.22-.61-.33-1.18-.33h-1.68c-.85,0-1.49-.21-1.91-.62-.41-.42-.62-1.06-.62-1.91s.2-1.48.61-1.89,1.04-.62,1.9-.62h1.61c.72,0,1.28.15,1.69.44.41.29.67.74.78,1.35.03.19,0,.34-.11.45-.1.1-.25.15-.45.15-.18,0-.32-.05-.41-.14s-.15-.23-.18-.41c-.07-.27-.21-.45-.41-.54-.2-.1-.51-.15-.92-.15h-1.61c-.54,0-.91.1-1.09.29-.19.19-.28.55-.28,1.08s.09.9.28,1.1.56.3,1.1.3h1.68c.89,0,1.55.22,1.99.65.44.43.66,1.1.66,2.01s-.22,1.56-.65,1.99-1.1.64-1.99.64h-1.95.03Z"/><path class="cls-4" d="M43.41,59.6c-1.04,0-1.8-.25-2.3-.74-.49-.5-.74-1.26-.74-2.3v-3.13c0-1.04.25-1.81.75-2.3.5-.49,1.26-.74,2.29-.73h1.63c1.04,0,1.81.25,2.3.74.49.49.74,1.26.74,2.3v3.12c0,1.04-.25,1.8-.74,2.3-.49.49-1.26.74-2.3.74h-1.63ZM43.41,58.46h1.63c.48,0,.86-.06,1.14-.17.28-.12.47-.31.58-.59.12-.28.18-.66.18-1.14v-3.12c0-.48-.06-.86-.18-1.13-.11-.28-.31-.47-.58-.59s-.66-.18-1.14-.18h-1.63c-.48,0-.86.05-1.13.16s-.47.31-.59.58-.18.66-.18,1.14v3.13c0,.48.06.86.17,1.14.12.28.31.47.59.59.28.11.66.17,1.14.17h0Z"/></g></g></svg>