<?xml version="1.0" encoding="UTF-8"?><svg xmlns="http://www.w3.org/2000/svg" viewBox="0 0 64 64"><defs><style>.cls-1{fill:none;}.cls-2,.cls-3,.cls-4{fill:#00c650;}.cls-3{fill-rule:evenodd;}.cls-5{fill:#fff;}.cls-4{isolation:isolate;opacity:.15;}</style></defs><g id="Layer_2"><rect class="cls-1" width="64" height="64"/></g><g id="Layer_1"><g id="Document"><path class="cls-4" d="M42.52,13.11c-1.46,0-2.85-.58-3.88-1.61-1.03-1.03-1.61-2.42-1.61-3.88V0H12.5C10.6,0,8.78.75,7.44,2.1c-1.35,1.34-2.1,3.16-2.1,5.06v43.18c0,1.9.76,3.72,2.1,5.06,1.34,1.34,3.16,2.09,5.06,2.09h29.44c.94,0,1.87-.18,2.74-.54.87-.36,1.66-.89,2.32-1.55s1.19-1.45,1.55-2.32.55-1.8.55-2.74V13.1h-6.59.01Z"/><path class="cls-2" d="M49.11,13.11h-6.59c-1.46,0-2.85-.58-3.88-1.61-1.03-1.03-1.61-2.42-1.61-3.88V0s12.08,13.11,12.08,13.11Z"/><path class="cls-2" d="M54.36,45.5H21.04c-2.36,0-4.28,1.92-4.28,4.28v9.94c0,2.36,1.92,4.28,4.28,4.28h33.33c2.36,0,4.28-1.92,4.28-4.28v-9.94c0-2.36-1.92-4.28-4.28-4.28h-.01Z"/></g><g id="File"><path class="cls-3" d="M19.72,42h14.96c1.46,0,2.87-.58,3.9-1.62,1.03-1.04,1.62-2.44,1.62-3.9v-14.96c0-1.46-.58-2.87-1.62-3.9-1.03-1.04-2.44-1.62-3.9-1.62h-14.96c-1.46,0-2.87.58-3.9,1.62-1.04,1.04-1.62,2.44-1.62,3.9v14.96c0,1.46.58,2.87,1.62,3.9,1.04,1.04,2.44,1.62,3.9,1.62h0ZM17.54,19.34c.58-.58,1.36-.9,2.18-.9h14.96c.82,0,1.6.33,2.18.9.58.58.9,1.36.9,2.18v11.95c0,.27-.16.52-.43.57-.92.17-2.23-.11-3.4-.36-.47-.1-.92-.2-1.31-.26-.32-.05-.6-.02-.84.06-.61.2-1.77.18-2.01-.42l-.77-1.95c-.18-.45-.75-.57-1.1-.24l-1.7,1.62c-.19.18-.47.24-.72.14-3.17-1.19-5.92-1.4-8.07-1.23-.41.03-.77-.28-.77-.69v-9.2c0-.82.33-1.6.9-2.18h0Z"/><path class="cls-2" d="M33.73,24.58c.92,0,1.66-.74,1.66-1.66s-.74-1.66-1.66-1.66-1.66.74-1.66,1.66.74,1.66,1.66,1.66h0Z"/><path class="cls-5" d="M28.03,59.6c-.85,0-1.49-.17-1.95-.52-.45-.35-.71-.9-.79-1.65-.02-.19.02-.34.12-.44s.24-.16.43-.16c.35,0,.54.19.58.57.05.41.2.69.44.84.24.14.63.22,1.16.22h1.13c.42,0,.75-.05.98-.14.24-.09.41-.26.5-.5s.14-.57.14-.99v-5.86c0-.38.19-.57.57-.57s.57.19.57.57v5.86c0,.95-.22,1.66-.67,2.1s-1.15.66-2.1.66h-1.13.02Z"/><path class="cls-5" d="M35.25,59.6c-.38,0-.57-.19-.57-.57v-8.06c0-.38.19-.57.57-.57h3.18c.83,0,1.46.22,1.9.66.44.44.66,1.07.66,1.9v.41c0,.83-.22,1.46-.66,1.91s-1.07.66-1.9.66h-2.61v3.09c0,.38-.19.57-.57.57ZM35.82,54.8h2.61c.52,0,.88-.11,1.1-.33s.33-.58.33-1.1v-.41c0-.51-.11-.88-.33-1.09-.22-.22-.58-.33-1.1-.33h-2.61v3.26Z"/><path class="cls-5" d="M45.73,59.6c-1.04,0-1.8-.25-2.3-.74-.49-.5-.74-1.26-.74-2.3v-3.12c0-1.04.25-1.81.74-2.31s1.25-.74,2.29-.73h1.64c.85,0,1.5.18,1.95.53s.71.9.78,1.66c.03.19,0,.33-.11.43s-.24.15-.43.15c-.34,0-.54-.19-.6-.57-.05-.42-.19-.7-.43-.84s-.62-.22-1.15-.22h-1.64c-.48,0-.86.05-1.13.16s-.47.31-.58.59-.17.66-.17,1.15v3.12c0,.48.06.86.17,1.14.12.28.31.47.59.59.28.11.66.17,1.14.17h1.63c.42,0,.75-.05.98-.14.24-.09.41-.26.5-.5s.14-.57.14-1v-.64h-1.06c-.38,0-.57-.2-.57-.58s.19-.57.57-.57h1.63c.38,0,.57.2.57.58v1.21c0,.96-.22,1.67-.67,2.11-.45.44-1.15.66-2.1.66h-1.64Z"/></g></g></svg>