<svg id="Layer_1" data-name="Layer 1" xmlns="http://www.w3.org/2000/svg" viewBox="0 0 372.65 70"><defs><style>.cls-1{fill:#008bf6;}.cls-1,.cls-10,.cls-11,.cls-12,.cls-13,.cls-14,.cls-2,.cls-3,.cls-4,.cls-5,.cls-6,.cls-7,.cls-8,.cls-9{fill-rule:evenodd;}.cls-2{fill:#57b6ff;}.cls-3{fill:#006cbf;}.cls-4{fill:#fff;}.cls-5{fill:#385661;}.cls-6{fill:#598291;}.cls-7{fill:#d3e8ef;}.cls-8{fill:#7eaaba;}.cls-15,.cls-9{fill:#0b87e8;}.cls-10{fill:#3c942c;}.cls-11{fill:#82e371;}.cls-12{fill:#bdd6de;}.cls-13{fill:#1e2432;}.cls-14{fill:#2d3956;}</style></defs><path class="cls-1" d="M29,15.94A27,27,0,1,1,2,43,27,27,0,0,1,29,15.94Z" transform="translate(0 0)"/><path class="cls-2" d="M16.64,66a3.89,3.89,0,0,1,1.91.22,26.43,26.43,0,0,0,9.88,1.93,26.05,26.05,0,0,0,19-8.25,2.89,2.89,0,0,1,2-.78A26.07,26.07,0,0,1,29,69.1,25.8,25.8,0,0,1,16.64,66Z" transform="translate(0 0)"/><path class="cls-3" d="M29,15.94c.84,0,1.65,0,2.47.12a4.91,4.91,0,0,1-1.95,0A4,4,0,0,1,29,15.94Zm-15.8,49a27.07,27.07,0,0,1-9.78-13,5.27,5.27,0,0,1,.56,0h.84A4.47,4.47,0,0,1,6,49.16a3.42,3.42,0,0,1,1.22-.57,5.26,5.26,0,0,1-1.58-3.17c0-.42-.06-.86-.06-1.32L2.77,42.69A2.78,2.78,0,0,1,2,42.07,26.84,26.84,0,0,1,5.07,30.38l2.41-.22a41.86,41.86,0,0,1,2-5.92,27.43,27.43,0,0,1,5.75-4.56c.66-.12,1.32-.2,1.9-.26a43.81,43.81,0,0,1,8.1.1c1,.08,2,.18,2.93.3a9.85,9.85,0,0,1,.42-.95c.68-1.28,4.26-.82,6-.54a8.1,8.1,0,0,0-.46-1.93c.62.11,1.21.25,1.79.39a8.54,8.54,0,0,1,.28,1.88c1.79.43,4.62,1.31,4.76,2.59a8.88,8.88,0,0,1,0,1c.94.26,1.89.52,2.83.82a52.56,52.56,0,0,1,5.54,2A27.06,27.06,0,0,1,54,53.19l-1.26.1c-.17.42-.37.81-.55,1.19-1,2.05-3.55,2.85-5.62,3.23a38.08,38.08,0,0,1-8.67.3,80.68,80.68,0,0,1-10.27-1.38,76.7,76.7,0,0,1-10-2.61,43.77,43.77,0,0,1-5.7-2.29c0,1.58,0,3.15,0,4.72a5.69,5.69,0,0,1,2,2.24,7.62,7.62,0,0,0,4.32-1.84c.68-.55,2.57.26,1.78,2.53A7.64,7.64,0,0,1,13.23,64.92Z" transform="translate(0 0)"/><path class="cls-4" d="M29,21.63A21.34,21.34,0,1,1,7.66,43,21.34,21.34,0,0,1,29,21.63Z" transform="translate(0 0)"/><path class="cls-5" d="M19.15,53.21a8.07,8.07,0,0,1-9.26,1.41L6.84,60.68c4.34,2.39,12.15,2.71,14.36-4.9C21.9,53.33,19.85,52.59,19.15,53.21Z" transform="translate(0 0)"/><path class="cls-5" d="M19.75,54a8.93,8.93,0,0,1-9.41,1.88L8.13,60.26a11.76,11.76,0,0,0,4.94,1,7.3,7.3,0,0,0,7.21-5.7,1.59,1.59,0,0,0-.1-1.38A.6.6,0,0,0,19.75,54Z" transform="translate(0 0)"/><path class="cls-6" d="M16.86,55.82a9,9,0,0,1-6.52,0l-.91,1.83a7.8,7.8,0,0,0,7.45-.78C17.44,56.39,17.32,55.82,16.86,55.82Z" transform="translate(0 0)"/><path class="cls-5" d="M35.46,56.85a10.93,10.93,0,0,1,3.81,6.22l5.16-1.42c-1.32-3.86-5.2-7.65-9-8Z" transform="translate(0 0)"/><path class="cls-5" d="M36.42,56.39A12,12,0,0,1,40,61.87L43.15,61c-1.25-2.67-3.56-5.48-6.57-6.52Z" transform="translate(0 0)"/><path class="cls-6" d="M41.66,61.42l1.49-.4a13.69,13.69,0,0,0-4.24-5.28c-.2.18-.12.6.1.83A10.69,10.69,0,0,1,41.66,61.42Z" transform="translate(0 0)"/><path class="cls-6" d="M21.26,62.85c0-.44-.08-.9-.1-1.34A1.85,1.85,0,0,1,22,59.66a15.43,15.43,0,0,1,4.26-1.39L27.4,58l.18,0,.17,0,1.14.24a15.65,15.65,0,0,1,4.26,1.39A1.85,1.85,0,0,1,34,61.51c0,.52-.06,1-.12,1.54,0,.24,0,.48-.08.72A21.55,21.55,0,0,1,29,64.3,21.11,21.11,0,0,1,21.26,62.85Z" transform="translate(0 0)"/><path class="cls-7" d="M22.14,63.17c-.06-.56-.1-1.1-.14-1.72a1,1,0,0,1,.44-1.07,19.23,19.23,0,0,1,5.12-1.51,19.26,19.26,0,0,1,5.11,1.51,1,1,0,0,1,.42,1.07c-.06.9-.1,1.66-.22,2.49a21.24,21.24,0,0,1-10.73-.77Z" transform="translate(0 0)"/><path class="cls-4" d="M23.35,59.94a29.25,29.25,0,0,1,4.21-1.07v5.37a21.85,21.85,0,0,1-3.91-.63C23.53,62.39,23.43,61.18,23.35,59.94Z" transform="translate(0 0)"/><path class="cls-6" d="M18.57,61.59c-.22-1.13-.38-2.29-.5-3.44-.08-.78-.12-1.56-.18-2.33A2.73,2.73,0,0,1,19.15,53c1.63-1,4.52-1.65,6.41-2.07.58-.14,1.16-.26,1.74-.38l.28-.06.25.06c.58.12,1.16.24,1.74.38,1.89.42,4.78,1,6.41,2.07a2.8,2.8,0,0,1,1.26,2.79c-.06.77-.1,1.55-.18,2.33a40.35,40.35,0,0,1-.8,4.9A21.17,21.17,0,0,1,29,64.32,21.58,21.58,0,0,1,18.57,61.59Z" transform="translate(0 0)"/><path class="cls-6" d="M20.05,62.33a38.47,38.47,0,0,1-.86-6.61,1.54,1.54,0,0,1,.66-1.62c1.49-.93,4.8-1.67,7.73-2.29,2.9.62,6.23,1.36,7.72,2.29.62.38.68.92.66,1.62a39,39,0,0,1-1.07,7.57s0,.12-.08.2a21.79,21.79,0,0,1-5.78.79A20.83,20.83,0,0,1,20.05,62.33Z" transform="translate(0 0)"/><path class="cls-8" d="M21.86,63.07a49.6,49.6,0,0,1-.8-7.35,1.74,1.74,0,0,1,.5-1.62c1.15-.93,3.72-1.67,6-2.29,2.25.62,4.82,1.36,6,2.29a1.72,1.72,0,0,1,.5,1.62,48.93,48.93,0,0,1-.84,7.57,1.71,1.71,0,0,1-.28.63,21.17,21.17,0,0,1-3.92.36A20.51,20.51,0,0,1,21.86,63.07Z" transform="translate(0 0)"/><path class="cls-7" d="M19.53,59.54c-.18-1.29-.26-2.45-.36-3.82a1.54,1.54,0,0,1,.66-1.62c1.49-.93,4.8-1.67,7.73-2.29,2.9.62,6.23,1.36,7.72,2.29.62.38.68.92.66,1.62-.1,1.37-.18,2.51-.36,3.82a34,34,0,0,1-4.06.64.32.32,0,0,0-.28.26,2.75,2.75,0,0,1-1,1.83,4.07,4.07,0,0,1-2.66.8,4.17,4.17,0,0,1-2.69-.8,2.83,2.83,0,0,1-1-1.83.3.3,0,0,0-.28-.26A34.31,34.31,0,0,1,19.53,59.54Z" transform="translate(0 0)"/><path class="cls-4" d="M27.56,51.81c2.25.62,4.82,1.36,6,2.29a1.72,1.72,0,0,1,.5,1.62c-.08,1.49-.14,2.73-.3,4.16-.7.12-1.43.2-2.23.28a.32.32,0,0,0-.28.26C30.94,62.31,29.33,63,27.56,63s-3.41-.74-3.71-2.61a.3.3,0,0,0-.28-.26c-.78-.08-1.51-.16-2.23-.28-.16-1.43-.24-2.67-.3-4.16a1.74,1.74,0,0,1,.5-1.62C22.73,53.19,25.28,52.45,27.56,51.81Z" transform="translate(0 0)"/><path class="cls-9" d="M25,56.81h1.31a.31.31,0,0,1,.3.3V59.7a.8.8,0,0,0,.94.94,1,1,0,0,0,.69-.2,1,1,0,0,0,.2-.74V57.11a.31.31,0,0,1,.3-.3h1.32a.29.29,0,0,1,.29.3v2.73a2,2,0,0,1-.73,1.71,3.19,3.19,0,0,1-2.09.6,3.23,3.23,0,0,1-2.12-.6,2.1,2.1,0,0,1-.73-1.71V57.11A.34.34,0,0,1,25,56.81Z" transform="translate(0 0)"/><path class="cls-2" d="M25,57a.15.15,0,0,0-.16.14v2.73a1.94,1.94,0,0,0,.67,1.6,3.19,3.19,0,0,0,2,.55V60.76a1.22,1.22,0,0,1-.82-.26,1.27,1.27,0,0,1-.26-.84V57.07a.15.15,0,0,0-.16-.14H25Z" transform="translate(0 0)"/><path class="cls-10" d="M28.25,51.61l-.65,2.65c.55.94,2.82,2.21,3.92,2.63.48.2.88.24,1.21-.12.8-.83,1.48-3.16,1.62-5.18h-6.1Z" transform="translate(0 0)"/><path class="cls-10" d="M33.65,51.61c0,.42-.1.82-.16,1.2a8.55,8.55,0,0,1-1.25,3.49l-.08.06a.9.9,0,0,1-.38-.1,12.37,12.37,0,0,1-3.43-2.14L29,51.61Z" transform="translate(0 0)"/><path class="cls-11" d="M33.21,54a5.64,5.64,0,0,1-1,2.26l-.08.06a.9.9,0,0,1-.38-.1,13.47,13.47,0,0,1-3.27-2H29a5.61,5.61,0,0,0,1.77.76,6.32,6.32,0,0,1-.75-.78C31.08,54.2,32.16,54.14,33.21,54Z" transform="translate(0 0)"/><path class="cls-10" d="M26.76,51.61l.66,2.65c-.56.94-2.83,2.21-3.93,2.63-.48.2-.87.24-1.21-.12-.8-.83-1.48-3.16-1.62-5.18h6.1Z" transform="translate(0 0)"/><path class="cls-10" d="M21.38,51.61c0,.42.1.82.16,1.2a8.55,8.55,0,0,0,1.25,3.49l.08.06a.9.9,0,0,0,.38-.1,12.37,12.37,0,0,0,3.43-2.14L26,51.61Z" transform="translate(0 0)"/><path class="cls-11" d="M21.8,54a5.64,5.64,0,0,0,1,2.26l.08.06a.9.9,0,0,0,.38-.1,13.47,13.47,0,0,0,3.27-2H26a5.71,5.71,0,0,1-1.77.76,7.14,7.14,0,0,0,.76-.78C23.93,54.2,22.85,54.14,21.8,54Z" transform="translate(0 0)"/><path class="cls-10" d="M29.77,51.61a15.76,15.76,0,0,1-.5,3.43,3.08,3.08,0,0,1-3.53,0,15.58,15.58,0,0,1-.5-3.43Z" transform="translate(0 0)"/><path class="cls-10" d="M25.84,51.85a15.41,15.41,0,0,0,.42,2.87,2.55,2.55,0,0,0,2.51,0,15.41,15.41,0,0,0,.42-2.87Z" transform="translate(0 0)"/><path class="cls-11" d="M26.1,54c0,.24.1.46.16.7a2.55,2.55,0,0,0,2.51,0c.06-.24.1-.48.16-.72-.62,0-1.22,0-1.81,0C26.76,54,26.44,54,26.1,54Z" transform="translate(0 0)"/><path class="cls-6" d="M3.83,26.55l6.41-.67L8.07,42.37,2,39.44A2.19,2.19,0,0,1,.7,37.89,17,17,0,0,1,2.16,27.55C2.46,27,2.79,26.67,3.83,26.55Z" transform="translate(0 0)"/><path class="cls-7" d="M7,40.36,8.67,27.43c-.56.06-5,.48-5.22.62a1.12,1.12,0,0,0-.1.16A15.62,15.62,0,0,0,2,37.63a.81.81,0,0,0,.52.56Z" transform="translate(0 0)"/><path class="cls-4" d="M7,40.36l.12-.92L2.52,37.57c-.34-.14-.58-1.39-.74-2.77A11.76,11.76,0,0,0,2,37.63a.81.81,0,0,0,.52.56Zm.71-5.46,1-7.47c-.56.06-5,.48-5.22.62a1.12,1.12,0,0,0-.1.16A16.13,16.13,0,0,0,2,32.69Z" transform="translate(0 0)"/><path class="cls-7" d="M2.46,30.56l1.77,1.53a1,1,0,0,1,.34.86c-.18,1.83-.4,3.56-.46,6a37,37,0,0,1-.28-6.11c0-.08,0-.14-.06-.18L2.56,31.55l-.16-.63A1.13,1.13,0,0,1,2.46,30.56Z" transform="translate(0 0)"/><path class="cls-8" d="M2.36,30.92l1.51,1.33a1,1,0,0,1,.34.86A34.13,34.13,0,0,0,4,38.21c0,.26,0,.52,0,.75l-.78-.37a2.42,2.42,0,0,0,0-.38A35.74,35.74,0,0,1,3.45,33c0-.08,0-.14-.06-.18l-1.23-1.1C2.22,31.45,2.3,31.18,2.36,30.92Z" transform="translate(0 0)"/><path class="cls-6" d="M31.84,5.4c4.36,3.92,4.66,9,2.67,14.22L33,19c1.74-4.6,1.62-8.92-2.23-12.39Z" transform="translate(0 0)"/><path class="cls-10" d="M30.44.08a5.11,5.11,0,1,1-5.91,4.14A5.1,5.1,0,0,1,30.44.08Z" transform="translate(0 0)"/><path class="cls-10" d="M30.26,1.1a4.06,4.06,0,1,1-4.72,3.3A4.08,4.08,0,0,1,30.26,1.1Z" transform="translate(0 0)"/><path class="cls-11" d="M33.13,3.17A4.07,4.07,0,1,1,25.66,6.3a4,4,0,0,0,2.87,2.07,4.1,4.1,0,0,0,4.72-3.31A4.27,4.27,0,0,0,33.13,3.17ZM29.27,1.44c1.41-.06,2.39.81,2.19,2a3.08,3.08,0,0,1-2.91,2.21c-1.41.08-2.39-.82-2.19-1.95A3.1,3.1,0,0,1,29.27,1.44Z" transform="translate(0 0)"/><path class="cls-3" d="M32.71,22.57c-1.39-.26-6-1.22-6.19-3a14.3,14.3,0,0,1,1.19-6.43c.76-1.52,5.42-.8,6.78-.56s6,1.18,6.15,2.85a14.08,14.08,0,0,1-1.07,6.45C38.81,23.49,34.11,22.81,32.71,22.57Z" transform="translate(0 0)"/><path class="cls-3" d="M39.47,15.56c-.48-.84-4.23-1.68-5.2-1.83a26.23,26.23,0,0,0-3.07-.36,6.26,6.26,0,0,0-2.45.3,13,13,0,0,0-1.06,5.75c.1.42,1.82,1.1,2.22,1.22,2,.68,5.81,1.37,7.86.95a1.89,1.89,0,0,0,.7-.25A13.06,13.06,0,0,0,39.47,15.56Z" transform="translate(0 0)"/><path class="cls-2" d="M34.27,13.71a26.23,26.23,0,0,0-3.07-.36,6.26,6.26,0,0,0-2.45.3,13,13,0,0,0-1.06,5.75c.06.16.44.42.56.5a15,15,0,0,0,4.64,1.47Z" transform="translate(0 0)"/><path class="cls-6" d="M58.47,36.2l-5.78-2.83L49.09,49.6l6.71-.68a2.18,2.18,0,0,0,1.76-1,16.84,16.84,0,0,0,2.17-10.22C59.65,37.05,59.43,36.67,58.47,36.2Z" transform="translate(0 0)"/><path class="cls-7" d="M50.8,48.09l2.83-12.73c.5.24,4.56,2.17,4.68,2.37,0,0,0,.14,0,.18a15.8,15.8,0,0,1-2,9.32.79.79,0,0,1-.68.36Z" transform="translate(0 0)"/><path class="cls-4" d="M50.8,48.09l.2-.9L55.94,47c.38,0,1-1.11,1.66-2.35a11.71,11.71,0,0,1-1.2,2.57.79.79,0,0,1-.68.36ZM52,42.73l1.63-7.37c.5.24,4.56,2.17,4.68,2.37,0,0,0,.14,0,.18a15.73,15.73,0,0,1-.24,4.68Z" transform="translate(0 0)"/><path class="cls-7" d="M58.41,40.44l-2.17.84a1,1,0,0,0-.6.69c-.46,1.78-.85,3.49-1.63,5.8a37.66,37.66,0,0,0,2.37-5.66c0-.08,0-.12.12-.16L58,41.32l.36-.54C58.39,40.68,58.41,40.54,58.41,40.44Z" transform="translate(0 0)"/><path class="cls-8" d="M58.37,40.8l-1.87.73a1,1,0,0,0-.6.7,33.48,33.48,0,0,1-1.59,4.84l-.3.7.86-.1c.06-.12.1-.24.16-.36a35.6,35.6,0,0,0,1.61-5c0-.06,0-.12.12-.14l1.53-.6C58.33,41.34,58.35,41.08,58.37,40.8Z" transform="translate(0 0)"/><path class="cls-6" d="M27.28,53.43A77,77,0,0,1,17.18,51a35.39,35.39,0,0,1-8-3.49c-1.79-1.11-3.89-2.85-4.07-5.22-.53-6.91,1.42-17.87,4.47-24.1,1.13-2.37,4.48-3.07,6.75-3.35a44.17,44.17,0,0,1,8.13-.12,82.63,82.63,0,0,1,9.4,1.16A83.9,83.9,0,0,1,43.11,18a44.81,44.81,0,0,1,7.61,2.89c2.05,1,4.94,2.85,5.22,5.48.72,6.91-1.19,17.84-4.06,24.18-1,2.15-3.53,3.07-5.6,3.5a35.19,35.19,0,0,1-8.68.54A79.08,79.08,0,0,1,27.28,53.43Z" transform="translate(0 0)"/><path class="cls-12" d="M27.56,51.81C20.64,50.6,13.89,48.53,10,46.1c-2-1.26-3.23-2.61-3.33-4C6.2,35.7,8,25,11,18.89c.64-1.32,2.69-2.1,5.56-2.46,4.42-.55,10.82-.09,17.09,1S46,20.32,50,22.33c2.57,1.32,4.22,2.75,4.38,4.2.72,6.78-1.28,17.45-3.93,23.31C49.93,51.1,48.29,52,46,52.45,41.52,53.41,34.47,53,27.56,51.81Z" transform="translate(0 0)"/><path class="cls-4" d="M7.08,33.25A50.26,50.26,0,0,1,11,18.89c.64-1.32,2.69-2.1,5.56-2.46,4.42-.55,10.82-.09,17.09,1s12.43,2.87,16.42,4.88c2.57,1.32,4.22,2.75,4.38,4.2a50.17,50.17,0,0,1-1.26,14.83,14,14,0,0,1-3,.53c-.39,0-.81.08-1.25.1A40.17,40.17,0,0,0,51,31.26c0-.68-.44-.9-1.07-1.12a77.56,77.56,0,0,0-10.28-3.07.57.57,0,0,0-.64.3,27,27,0,0,1-2.55,4.52c-1.12,1.22-9.78-.32-10.4-1.83a28.8,28.8,0,0,1-.84-5.12.54.54,0,0,0-.49-.48,75.46,75.46,0,0,0-10.7-.63c-.68,0-1.22,0-1.41.67a40,40,0,0,0-1.76,10.8l-1.15-.52A14.23,14.23,0,0,1,7.08,33.25ZM27.56,51.81C20.64,50.6,13.89,48.53,10,46.1c-2-1.26-3.23-2.61-3.33-4,0-.26,0-.5,0-.75a3.42,3.42,0,0,0,.52,1,8,8,0,0,0,3,2.83c3.89,2.39,10.64,4.42,17.55,5.64s14,1.61,18.43.69A8.29,8.29,0,0,0,50,49.88a3.84,3.84,0,0,0,.81-.74,7.45,7.45,0,0,1-.32.7C49.91,51.1,48.27,52,46,52.45,41.52,53.41,34.47,53,27.56,51.81Z" transform="translate(0 0)"/><path class="cls-12" d="M23.53,16.28a19.78,19.78,0,0,0,1.64,3.18,28.28,28.28,0,0,0,7.7,2.25,28.46,28.46,0,0,0,8,.52c.82-.66,1.83-1.65,2.61-2.43a9.06,9.06,0,0,1-2.41,3.35,28.84,28.84,0,0,1-8.39-.5,28.89,28.89,0,0,1-8-2.39A13.54,13.54,0,0,1,23.53,16.28Z" transform="translate(0 0)"/><path class="cls-8" d="M23.53,16.28a12.54,12.54,0,0,0,1.32,3.6,30.2,30.2,0,0,0,7.94,2.31,30.23,30.23,0,0,0,8.27.54,12.4,12.4,0,0,0,2.45-2.93l.9.28c-.66,1-2.15,3.17-3.13,3.57a30.2,30.2,0,0,1-8.64-.54,31,31,0,0,1-8.31-2.45c-.8-.72-1.46-3.21-1.73-4.42C22.89,16.26,23.21,16.28,23.53,16.28Z" transform="translate(0 0)"/><path class="cls-13" d="M30.78,33.53c2.13.37,5.12.49,5.68-.36a40.07,40.07,0,0,0,2.47-6,.53.53,0,0,1,.64-.38,64.61,64.61,0,0,1,11.15,3.61c.66.28,1.16.52,1.12,1.39a56.12,56.12,0,0,1-3.83,17c-.3.71-2.31,1.27-2.92,1.41a30.32,30.32,0,0,1-7.59.54,67.55,67.55,0,0,1-9.61-1,69.12,69.12,0,0,1-9.36-2.31,31,31,0,0,1-7-3.09C11,44,9.35,42.79,9.31,42a57.4,57.4,0,0,1,2.25-17.31c.24-.83.8-.89,1.51-.93a66.84,66.84,0,0,1,11.72.43.54.54,0,0,1,.47.58,38.65,38.65,0,0,0,.28,6.48C25.8,32.23,28.65,33.15,30.78,33.53Z" transform="translate(0 0)"/><path class="cls-14" d="M51,31.2a49.88,49.88,0,0,1-1.43,9.32c-.48,1.77-1.38,1.65-3.29,1.89-8,1-25.92-2.17-33.07-5.84-1.71-.87-2.63-1.59-2.45-2.88a69.44,69.44,0,0,1,1.84-9.25c.05-.22.33-.3.53-.32a67.06,67.06,0,0,1,11.66.44.18.18,0,0,1,.16.2c0,.66-.06,1.32,0,2a43.48,43.48,0,0,0,.33,4.61c.32,1.45,4.19,2.33,5.5,2.54s5.24.74,6.06-.51c.1-.16.2-.36.28-.52a39.1,39.1,0,0,0,2.23-5.56.18.18,0,0,1,.22-.14,65.87,65.87,0,0,1,11.09,3.59A.6.6,0,0,1,51,31.2Zm-41.33,10c0,.25,0,.51,0,.75,0,.58,1.61,1.76,2.09,2.05,7,4.57,25.1,7.75,33.23,5.86.55-.12,2.45-.68,2.68-1.21.1-.22.2-.46.3-.7a9.52,9.52,0,0,1-2.37.86c-8.34,1.89-26.83-1.36-34-6A8.62,8.62,0,0,1,9.67,41.22Z" transform="translate(0 0)"/><path class="cls-11" d="M17.28,32.49a16.16,16.16,0,0,0-.92,5.18c0,2.59,4.66,3.45,5.4,1a22.25,22.25,0,0,0,.91-5.18C22.83,30.86,18.15,30,17.28,32.49Zm26.53,4.68a15.94,15.94,0,0,1-.92,5.18C42,44.8,37.34,44,37.5,41.4a21.56,21.56,0,0,1,.91-5.18C39.17,33.73,43.85,34.58,43.81,37.17Z" transform="translate(0 0)"/><path class="cls-11" d="M32.83,43.81c-1,4.32-7.63,3.16-7.07-1.24A14.25,14.25,0,0,0,32.83,43.81Z" transform="translate(0 0)"/><path class="cls-6" d="M9,52.11A5.9,5.9,0,1,1,3.13,58,5.9,5.9,0,0,1,9,52.11Z" transform="translate(0 0)"/><path class="cls-7" d="M9,53.11A4.92,4.92,0,1,1,4.11,58,4.92,4.92,0,0,1,9,53.11Z" transform="translate(0 0)"/><path class="cls-4" d="M9,53.11A4.92,4.92,0,0,1,14,58a5,5,0,0,1-.28,1.65,8.34,8.34,0,0,1-3,.52c-3,0-5.57-1.49-6.39-3.55A4.92,4.92,0,0,1,9,53.11Z" transform="translate(0 0)"/><path class="cls-6" d="M4.77,48.13A4.63,4.63,0,0,1,6,45.26a4.53,4.53,0,0,1,2.63-.8c1.44,0,3.55.56,3.59,2.33.08,3.81,0,7.61,0,11.4a3.41,3.41,0,0,1-.54,2C10,62.85,4.57,63,2,61.63a2.05,2.05,0,0,1-1.06-1,20.93,20.93,0,0,1-.77-4.21,24.41,24.41,0,0,1-.06-4.68c.09-1.13.37-2.88,1.65-3.26a9.47,9.47,0,0,1,2.13-.34A4.51,4.51,0,0,1,4.77,48.13Z" transform="translate(0 0)"/><path class="cls-6" d="M5.44,54c-.77-2-.81-7.33.72-8.52,1.69-1.32,5.68-.9,5.74,1.27.08,3.81,0,7.61,0,11.42C12,62.37,5.16,63,2.1,61.38a1.73,1.73,0,0,1-.92-.84Z" transform="translate(0 0)"/><path class="cls-7" d="M6.5,54.14c-1-1.69-.82-7.11.24-7.92,1.23-1,4.24-.62,4.26.59.08,3.19,0,7.41.06,11.4.08,3.38-6.71,3.82-9,2.07Z" transform="translate(0 0)"/><path class="cls-4" d="M5.78,49.88c.06-1.61.38-3.11.88-3.53a4,4,0,0,1,3.5-.27,27.75,27.75,0,0,1-.05,3.56C10,50.66,7.1,50.5,5.78,49.88Z" transform="translate(0 0)"/><path class="cls-6" d="M1.82,48.75a8,8,0,0,1,2.05-.32c1.41-.06,5.18.22,5.5,2.07a24.47,24.47,0,0,1,0,8C9,60.74,3.83,60.68,3,59.72l-.95.56-.86.28a22.55,22.55,0,0,1-.78-4.17,25.46,25.46,0,0,1-.06-4.62C.46,50.8.68,49.08,1.82,48.75Z" transform="translate(0 0)"/><path class="cls-7" d="M2.06,49.62c2.59-.75,6.25.06,6.43,1a23.2,23.2,0,0,1,0,7.71c-.18,1.17-4.62,2.39-6.43,1.93C.92,56.61.86,50,2.06,49.62Z" transform="translate(0 0)"/><path class="cls-4" d="M2.06,49.62a9.48,9.48,0,0,1,5.32.18,25.13,25.13,0,0,1-.08,7.45c-.14,1.06-3.41,2.11-5.48,2.11C.92,55.6,1,49.94,2.06,49.62Z" transform="translate(0 0)"/><path class="cls-6" d="M.76,54.54a16.77,16.77,0,0,1,8.67,0l-.2.82a15.53,15.53,0,0,0-8.23,0Z" transform="translate(0 0)"/><path class="cls-6" d="M41.32,59a4.67,4.67,0,1,1-4.66,4.67A4.66,4.66,0,0,1,41.32,59Z" transform="translate(0 0)"/><path class="cls-7" d="M41.32,59.74a3.89,3.89,0,1,1-3.88,3.89A3.86,3.86,0,0,1,41.32,59.74Z" transform="translate(0 0)"/><path class="cls-4" d="M41.32,59.74a3.86,3.86,0,0,1,3.87,3.89,3.47,3.47,0,0,1-.08.79,3.83,3.83,0,0,1-2,.56,3.87,3.87,0,0,1-3.88-3.88,3.5,3.5,0,0,1,.08-.8A4.12,4.12,0,0,1,41.32,59.74Z" transform="translate(0 0)"/><path class="cls-6" d="M34.59,65.52c-.72-.12-1.44-.4-1.58-1.14a17.92,17.92,0,0,1-.2-4.14c.06-.94,1.12-1.32,2-1.49a5.3,5.3,0,0,1,2.71-1.66,12,12,0,0,1,4.9.86c1.55.54,1.49,3.46,1.45,4.8-.06,1.15-.24,3.64-1.16,4.42-1.65,1.4-7.47,1.52-7.88-.5A11.11,11.11,0,0,1,34.59,65.52Z" transform="translate(0 0)"/><path class="cls-6" d="M37.79,59.64a13.25,13.25,0,0,1,0,4.7c-.21.84-1.49.94-2.21.94s-2.09-.06-2.25-1a17.29,17.29,0,0,1-.2-4.06c.06-.9,1.48-1.18,2.17-1.3S37.54,58.69,37.79,59.64Z" transform="translate(0 0)"/><path class="cls-7" d="M37.1,59.84c-.14-.56-3.23,0-3.27.46A16.85,16.85,0,0,0,34,64.2c.1.48,2.93.52,3.07,0A12,12,0,0,0,37.1,59.84Z" transform="translate(0 0)"/><path class="cls-6" d="M42.3,58.25c1.37.46,1.31,3.38,1.25,4.52s-.22,3.51-1,4.2a6.23,6.23,0,0,1-3.33.94c-1,0-3.81,0-4.08-1.28a24.56,24.56,0,0,1-.4-6.95c.08-1,2-2.11,2.87-2.25A11.33,11.33,0,0,1,42.3,58.25Z" transform="translate(0 0)"/><path class="cls-7" d="M42,58.9a11.19,11.19,0,0,0-4.37-.79,3.74,3.74,0,0,0-2.27,1.61,23.71,23.71,0,0,0,.38,6.75c.18.84,4.88,1.1,6.26-.06C42.89,65.68,43.33,59.26,42,58.9Z" transform="translate(0 0)"/><path class="cls-4" d="M42,58.9a11.83,11.83,0,0,0-4.25-.81v7.83a10,10,0,0,0,4.71-.48C43,63.43,43.07,59.18,42,58.9Zm-6.34.34a1.19,1.19,0,0,0-.32.46,23.71,23.71,0,0,0,.38,6.75c.18.84,4.88,1.1,6.26-.06a.8.8,0,0,0,.22-.29c-1.46,1.09-6,.83-6.2,0a23.85,23.85,0,0,1-.38-6.76S35.68,59.28,35.7,59.24Z" transform="translate(0 0)"/><path class="cls-6" d="M34.93,62.61a9.63,9.63,0,0,1,3.18-.68c.24,0,.2.76,0,.76a8.83,8.83,0,0,0-3,.64Z" transform="translate(0 0)"/><path class="cls-8" d="M42.48,65.42c-.38-.16-.76-.32-1.18-.52a.2.2,0,0,1-.12-.24,18.87,18.87,0,0,0,0-4.38.22.22,0,0,1,.14-.24,12.38,12.38,0,0,1,1.22-.52.63.63,0,0,1,.13.46c-.37.12-.71.28-1.05.42a19.1,19.1,0,0,1,0,4.14c.32.16.64.3,1,.44A.57.57,0,0,1,42.48,65.42Z" transform="translate(0 0)"/><path d="M84.57,36.72a11.59,11.59,0,0,1-.64,3.94,8.62,8.62,0,0,1-5.1,5.2,13.31,13.31,0,0,1-8.81,0,9,9,0,0,1-3.2-2.07,8.89,8.89,0,0,1-1.9-3.13,11.59,11.59,0,0,1-.65-3.94V21.93h5.31V36.51a6.09,6.09,0,0,0,.34,2.08,5.38,5.38,0,0,0,1,1.66,4.8,4.8,0,0,0,1.53,1.09,5.16,5.16,0,0,0,2,.38,4.94,4.94,0,0,0,1.94-.38,4.58,4.58,0,0,0,2.51-2.75,5.66,5.66,0,0,0,.38-2.08V21.93h5.3Zm4.26-7.24h4.9v2.24h.06a4.31,4.31,0,0,1,.68-.95,5,5,0,0,1,1.06-.85,6.08,6.08,0,0,1,1.39-.61,5.77,5.77,0,0,1,1.7-.24,6.84,6.84,0,0,1,3.13.61,4.34,4.34,0,0,1,1.83,1.63,6.46,6.46,0,0,1,.92,2.48,18.85,18.85,0,0,1,.24,3.1V46h-5.1V37.91a14.55,14.55,0,0,0-.07-1.46,4.09,4.09,0,0,0-.3-1.43A2.16,2.16,0,0,0,97,33.56a3,3,0,0,0-1.6.37,2.41,2.41,0,0,0-1,1A4.15,4.15,0,0,0,94,36.21a11.26,11.26,0,0,0-.1,1.56V46h-5.1Zm30.71,5.33a2.78,2.78,0,0,0-1.05-.88,3,3,0,0,0-1.47-.37,3.93,3.93,0,0,0-3,1.15,4.29,4.29,0,0,0-1.06,3,4.26,4.26,0,0,0,1.06,3,3.9,3.9,0,0,0,3,1.16,2.77,2.77,0,0,0,1.47-.37,4.76,4.76,0,0,0,1.05-.89l3.36,3.54a6.65,6.65,0,0,1-2.82,1.73,10.58,10.58,0,0,1-3.06.48,10.71,10.71,0,0,1-3.6-.61,8.93,8.93,0,0,1-2.92-1.74,8.42,8.42,0,0,1-1.94-2.75,9.21,9.21,0,0,1,0-7.14,8,8,0,0,1,1.94-2.72,8.66,8.66,0,0,1,2.92-1.77,10.47,10.47,0,0,1,3.6-.61,10,10,0,0,1,3.06.51,6.31,6.31,0,0,1,2.82,1.7Zm15.58,9.12h-.06a4.8,4.8,0,0,1-2.28,1.9,7.58,7.58,0,0,1-3,.58,7.33,7.33,0,0,1-2.24-.34,5.42,5.42,0,0,1-1.87-1,4.57,4.57,0,0,1-1.29-1.6,4.86,4.86,0,0,1-.48-2.21,5.25,5.25,0,0,1,.51-2.42,5,5,0,0,1,1.43-1.63,6.82,6.82,0,0,1,2.07-1,14.45,14.45,0,0,1,2.38-.55,23.65,23.65,0,0,1,2.48-.2c.84,0,1.61,0,2.31,0a2.58,2.58,0,0,0-1-2.14,3.42,3.42,0,0,0-2.28-.81,5,5,0,0,0-2.31.54,6.23,6.23,0,0,0-1.84,1.43L125,31.72a9.26,9.26,0,0,1,3.33-2,11.76,11.76,0,0,1,4-.68,9.8,9.8,0,0,1,3.67.58,5,5,0,0,1,2.31,1.63A6.26,6.26,0,0,1,139.48,34a17.81,17.81,0,0,1,.34,3.64V46h-4.7Zm-1.25-5.17c-.39,0-.88,0-1.47.07a6.69,6.69,0,0,0-1.66.27,4,4,0,0,0-1.36.71,1.68,1.68,0,0,0-.54,1.33,1.47,1.47,0,0,0,.78,1.36,3.3,3.3,0,0,0,1.63.44,5.2,5.2,0,0,0,1.43-.2,4.36,4.36,0,0,0,1.25-.58,2.72,2.72,0,0,0,1.19-2.31V38.76ZM143,29.48h4.89v2.24H148a4.31,4.31,0,0,1,.68-.95,5.21,5.21,0,0,1,1.05-.85,6.17,6.17,0,0,1,1.4-.61,5.77,5.77,0,0,1,1.7-.24,6.87,6.87,0,0,1,3.13.61,4.34,4.34,0,0,1,1.83,1.63,6.46,6.46,0,0,1,.92,2.48,18.85,18.85,0,0,1,.24,3.1V46h-5.1V37.91a14.55,14.55,0,0,0-.07-1.46,4.09,4.09,0,0,0-.3-1.43,2.31,2.31,0,0,0-.79-1.06,2.36,2.36,0,0,0-1.49-.4,3,3,0,0,0-1.6.37,2.35,2.35,0,0,0-1,1,3.91,3.91,0,0,0-.41,1.33,11.26,11.26,0,0,0-.1,1.56V46H143Zm19.52,0h4.9v2.24h.06a4.31,4.31,0,0,1,.68-.95,5,5,0,0,1,1.06-.85,6.08,6.08,0,0,1,1.39-.61,5.77,5.77,0,0,1,1.7-.24,6.84,6.84,0,0,1,3.13.61,4.37,4.37,0,0,1,1.84,1.63,6.61,6.61,0,0,1,.91,2.48,18.85,18.85,0,0,1,.24,3.1V46h-5.1V37.91a14.55,14.55,0,0,0-.07-1.46A4.09,4.09,0,0,0,173,35a2.16,2.16,0,0,0-2.28-1.46,3,3,0,0,0-1.6.37,2.41,2.41,0,0,0-.95,1,4.15,4.15,0,0,0-.41,1.33,11.26,11.26,0,0,0-.1,1.56V46h-5.1Zm29,19.21c-.34.88-.67,1.66-1,2.34a5.28,5.28,0,0,1-1.23,1.7,4.24,4.24,0,0,1-1.83,1.06,9.62,9.62,0,0,1-3,.37,11.88,11.88,0,0,1-3.81-.61l.68-4.18a5.82,5.82,0,0,0,2.38.51,4,4,0,0,0,1.4-.21,1.93,1.93,0,0,0,.88-.54,2.68,2.68,0,0,0,.61-.85c.16-.34.33-.74.51-1.19l.37-1-7.24-16.66h5.51l4.25,10.91h.07l3.64-10.91h5.23Z" transform="translate(0 0)"/><path class="cls-15" d="M207.82,21.93h4.39L222.68,46h-6l-2.08-5.1h-9.35l-2,5.1h-5.85Zm2,7-2.92,7.48h5.88ZM240.37,46h-4.9V43.76h-.07a5.21,5.21,0,0,1-.71,1,4.12,4.12,0,0,1-1,.85,6.08,6.08,0,0,1-1.39.61,5.77,5.77,0,0,1-1.7.24,7.42,7.42,0,0,1-3.17-.58,4.81,4.81,0,0,1-1.87-1.67,7.07,7.07,0,0,1-.88-2.48,21.3,21.3,0,0,1-.2-3.09V29.48h5.1v8.09c0,.47,0,1,0,1.49a5.61,5.61,0,0,0,.31,1.4,2.59,2.59,0,0,0,.78,1,2.51,2.51,0,0,0,1.53.41,3.25,3.25,0,0,0,1.6-.34,2.61,2.61,0,0,0,.92-.95,4,4,0,0,0,.44-1.36,11.3,11.3,0,0,0,.1-1.57V29.48h5.1Zm14.87-12.44h-4.49v5.5a9.75,9.75,0,0,0,.07,1.26,2.31,2.31,0,0,0,.3,1,1.63,1.63,0,0,0,.72.65,3.53,3.53,0,0,0,1.32.2q.41,0,1.05-.06a2,2,0,0,0,1-.41V45.9a8.14,8.14,0,0,1-1.77.41c-.62.06-1.22.1-1.81.1a9.76,9.76,0,0,1-2.37-.27,5.74,5.74,0,0,1-1.91-.85,4.41,4.41,0,0,1-1.29-1.57,5.35,5.35,0,0,1-.44-2.31V33.56h-3.27V29.48h3.27v-4.9h5.1v4.9h4.49Zm2,4.18a8.56,8.56,0,0,1,.72-3.57,8,8,0,0,1,1.94-2.72,8.66,8.66,0,0,1,2.92-1.77,10.47,10.47,0,0,1,3.6-.61,10.22,10.22,0,0,1,3.57.61,8.33,8.33,0,0,1,2.93,1.77,7.93,7.93,0,0,1,2,2.72,9.33,9.33,0,0,1,0,7.14,8.35,8.35,0,0,1-2,2.75A8.57,8.57,0,0,1,270,45.8a10.46,10.46,0,0,1-3.57.61,10.71,10.71,0,0,1-3.6-.61,8.93,8.93,0,0,1-2.92-1.74,8.42,8.42,0,0,1-1.94-2.75A8.63,8.63,0,0,1,257.21,37.74Zm5.1,0a4.31,4.31,0,0,0,1.06,3,3.9,3.9,0,0,0,3,1.16,3.83,3.83,0,0,0,3-1.16,4.23,4.23,0,0,0,1.08-3,4.26,4.26,0,0,0-1.08-3,3.86,3.86,0,0,0-3-1.15,3.93,3.93,0,0,0-3,1.15A4.34,4.34,0,0,0,262.31,37.74Zm16.27-8.26h4.89v2.24h.07a4.31,4.31,0,0,1,.68-.95,5,5,0,0,1,1.06-.85,5.9,5.9,0,0,1,1.39-.61,5.77,5.77,0,0,1,1.7-.24,6.4,6.4,0,0,1,3.06.71,4.5,4.5,0,0,1,2,2.25,5.46,5.46,0,0,1,2.14-2.28,6.49,6.49,0,0,1,3.1-.68,5.93,5.93,0,0,1,2.78.58,4.2,4.2,0,0,1,1.81,1.53,5.9,5.9,0,0,1,.95,2.27,12.43,12.43,0,0,1,.3,2.79V46h-5.1V36.38a3.63,3.63,0,0,0-.51-2,1.79,1.79,0,0,0-1.73-.85,3.4,3.4,0,0,0-1.5.3,2.48,2.48,0,0,0-.95.78,4.15,4.15,0,0,0-.51,1.19,7.39,7.39,0,0,0-.13,1.43V46H289V37.26c0-.29,0-.65,0-1.09a4.13,4.13,0,0,0-.24-1.22,2.29,2.29,0,0,0-.68-1,1.88,1.88,0,0,0-1.32-.4,3,3,0,0,0-1.6.37,2.41,2.41,0,0,0-.95,1,3.91,3.91,0,0,0-.41,1.33,11.26,11.26,0,0,0-.1,1.56V46h-5.1Zm39.95,14.45h-.07a4.73,4.73,0,0,1-2.27,1.9,7.58,7.58,0,0,1-3,.58,7.44,7.44,0,0,1-2.25-.34,5.6,5.6,0,0,1-1.87-1,4.8,4.8,0,0,1-1.29-1.6,5,5,0,0,1-.47-2.21,5.25,5.25,0,0,1,.51-2.42,5.08,5.08,0,0,1,1.42-1.63,7,7,0,0,1,2.08-1,14.45,14.45,0,0,1,2.38-.55,23.44,23.44,0,0,1,2.48-.2c.84,0,1.61,0,2.31,0a2.6,2.6,0,0,0-1-2.14,3.42,3.42,0,0,0-2.28-.81,5,5,0,0,0-2.31.54,6.11,6.11,0,0,0-1.84,1.43l-2.72-2.79a9.17,9.17,0,0,1,3.33-2,11.76,11.76,0,0,1,3.95-.68,9.8,9.8,0,0,1,3.67.58,5.09,5.09,0,0,1,2.31,1.63A6.13,6.13,0,0,1,322.88,34a17.14,17.14,0,0,1,.34,3.64V46h-4.69Zm-1.26-5.17c-.38,0-.87,0-1.46.07a6.69,6.69,0,0,0-1.66.27,3.91,3.91,0,0,0-1.36.71,1.66,1.66,0,0,0-.55,1.33A1.47,1.47,0,0,0,313,42.5a3.36,3.36,0,0,0,1.64.44,5.13,5.13,0,0,0,1.42-.2,4.3,4.3,0,0,0,1.26-.58,2.67,2.67,0,0,0,.85-.95,2.62,2.62,0,0,0,.34-1.36V38.76Zm20.41-5.2h-4.49v5.5a9.75,9.75,0,0,0,.07,1.26,2.31,2.31,0,0,0,.3,1,1.63,1.63,0,0,0,.72.65,3.53,3.53,0,0,0,1.32.2c.28,0,.63,0,1.06-.06a2,2,0,0,0,1-.41V45.9a8.14,8.14,0,0,1-1.77.41c-.61.06-1.21.1-1.8.1a9.85,9.85,0,0,1-2.38-.27,5.74,5.74,0,0,1-1.91-.85,4.41,4.41,0,0,1-1.29-1.57,5.5,5.5,0,0,1-.44-2.31V33.56h-3.26V29.48h3.26v-4.9h5.1v4.9h4.49Zm2,4.18a8.72,8.72,0,0,1,.71-3.57,8.13,8.13,0,0,1,1.94-2.72,8.76,8.76,0,0,1,2.92-1.77,10.57,10.57,0,0,1,3.61-.61,10.22,10.22,0,0,1,3.57.61,8.29,8.29,0,0,1,2.92,1.77,7.81,7.81,0,0,1,2,2.72,9.21,9.21,0,0,1,0,7.14,8.21,8.21,0,0,1-2,2.75,8.53,8.53,0,0,1-2.92,1.74,10.46,10.46,0,0,1-3.57.61,10.82,10.82,0,0,1-3.61-.61,9,9,0,0,1-2.92-1.74,8.57,8.57,0,0,1-1.94-2.75A8.78,8.78,0,0,1,339.66,37.74Zm5.1,0a4.3,4.3,0,0,0,1.05,3,3.94,3.94,0,0,0,3,1.16,3.81,3.81,0,0,0,3-1.16,4.74,4.74,0,0,0,0-6,3.84,3.84,0,0,0-3-1.15,4,4,0,0,0-3,1.15A4.33,4.33,0,0,0,344.76,37.74ZM361,29.48h5.1v2.65h.07a6.08,6.08,0,0,1,1.94-2.28,4.83,4.83,0,0,1,2.82-.78c.29,0,.59,0,.88,0a4.82,4.82,0,0,1,.82.14V33.9a5.33,5.33,0,0,0-1.09-.24,5.39,5.39,0,0,0-1.09-.1,5.48,5.48,0,0,0-2.31.4,3.18,3.18,0,0,0-1.32,1.16,4.26,4.26,0,0,0-.58,1.73,17.18,17.18,0,0,0-.14,2.25V46H361Z" transform="translate(0 0)"/></svg>