<svg xmlns="http://www.w3.org/2000/svg" viewBox="0 0 64 64"><defs><style>.cls-1{fill:none;}</style></defs><title>Mailchimp icon - Uncanny Automator</title><g id="Layer_1" data-name="Layer 1"><rect class="cls-1" width="64" height="64"/></g><g id="Layer_2" data-name="Layer 2"><path d="M47.21,30.24a5.29,5.29,0,0,1,1.32,0,4.53,4.53,0,0,0,.07-2.51c-.32-1.52-.75-2.44-1.64-2.3s-.92,1.25-.6,2.77A4.9,4.9,0,0,0,47.21,30.24Z" transform="translate(0 0)"/><path d="M39.57,31.45c.63.28,1,.46,1.18.3s.07-.29-.08-.54A3.85,3.85,0,0,0,39,29.88a4.5,4.5,0,0,0-4.37.53c-.42.31-.83.74-.77,1,0,.08.08.14.23.16a28.48,28.48,0,0,1,3-.66A5.24,5.24,0,0,1,39.57,31.45Z" transform="translate(0 0)"/><path d="M38.29,32.18a2.93,2.93,0,0,0-1.58.66,1,1,0,0,0-.41.63.18.18,0,0,0,.07.15.19.19,0,0,0,.13.05,2.51,2.51,0,0,0,.61-.17,5.25,5.25,0,0,1,2.67-.27c.42,0,.61.07.7-.07s.06-.13,0-.27A2.4,2.4,0,0,0,38.29,32.18Z" transform="translate(0 0)"/><path d="M44.63,34.86A1,1,0,0,0,46,34.62c.21-.41-.09-1-.65-1.24a1,1,0,0,0-1.39.24C43.77,34,44.07,34.59,44.63,34.86Z" transform="translate(0 0)"/><path d="M48.25,31.7c-.46,0-.84.49-.85,1.12s.35,1.14.81,1.15.84-.49.85-1.12S48.71,31.71,48.25,31.7Z" transform="translate(0 0)"/><path d="M17.52,43c-.11-.14-.3-.1-.48-.06a1.44,1.44,0,0,1-.43.06.91.91,0,0,1-.78-.39,1.46,1.46,0,0,1,0-1.35L16,41a4,4,0,0,0,.29-3.51,3.11,3.11,0,0,0-2.38-1.74,3.06,3.06,0,0,0-2.62.95,3.78,3.78,0,0,0-1,3.17c.07.2.18.25.27.26s.42-.1.58-.53l0-.14a4,4,0,0,1,.42-1A1.81,1.81,0,0,1,14.15,38a1.8,1.8,0,0,1,.68,2.16,4.91,4.91,0,0,0-.36,1.92,1.91,1.91,0,0,0,1.71,2,1.45,1.45,0,0,0,1.37-.69A.29.29,0,0,0,17.52,43Z" transform="translate(0 0)"/><path d="M59.79,40.52c0-.1-.21-.76-.46-1.56s-.5-1.37-.5-1.37a5,5,0,0,0,.88-3.6,4.53,4.53,0,0,0-1.32-2.57,10.82,10.82,0,0,0-4.67-2.31l-1.2-.33c0-.05-.06-2.81-.11-4a13.58,13.58,0,0,0-.53-3.51,9.42,9.42,0,0,0-2.42-4.34c3-3.07,4.81-6.46,4.81-9.36C54.26,2,47.4.3,38.94,3.8c0,0-1.77.76-1.79.76s-3.24-3.17-3.28-3.22C24.23-7.06-5.91,26.43,3.73,34.57l2.1,1.78a10.26,10.26,0,0,0-.58,4.78,9.41,9.41,0,0,0,3.25,6,9.9,9.9,0,0,0,6.38,2.57C18.63,58.39,27.2,63.69,37.24,64c10.78.32,19.82-4.74,23.61-13.82a19,19,0,0,0,1.3-6.05C62.15,41.57,60.71,40.52,59.79,40.52Zm-44.08,6.8a5.54,5.54,0,0,1-1,.07A7.77,7.77,0,0,1,7.59,40.9c-.39-3.84,1.58-6.8,5.05-7.5a6.05,6.05,0,0,1,1.46-.1c2,.1,4.81,1.6,5.47,5.84C20.15,42.89,19.23,46.72,15.71,47.32ZM12.07,31.1a8.28,8.28,0,0,0-5.23,3.34A14.07,14.07,0,0,1,4.61,32.3C2.75,28.76,6.64,21.89,9.36,18,16.08,8.42,26.61,1.16,31.48,2.48c.79.23,3.41,3.27,3.41,3.27a68.07,68.07,0,0,0-9.38,6.47A42.59,42.59,0,0,0,12.07,31.1ZM46.23,45.88a.19.19,0,0,0,.11-.19.17.17,0,0,0-.19-.16,22.71,22.71,0,0,1-9.92-1c.53-1.7,1.92-1.09,4-.92A29.12,29.12,0,0,0,50,42.55a22.26,22.26,0,0,0,7.28-3.61,14.4,14.4,0,0,1,1,3.46,1.75,1.75,0,0,1,1.07.19c.46.29.79.87.56,2.39a13.14,13.14,0,0,1-3.69,7.25,15.24,15.24,0,0,1-4.45,3.32,18.85,18.85,0,0,1-2.9,1.23c-7.63,2.49-15.45-.25-18-6.14a8.8,8.8,0,0,1-.5-1.39,12.21,12.21,0,0,1,2.69-11.46h0a1.07,1.07,0,0,0,.35-.68,1.22,1.22,0,0,0-.27-.65c-1-1.45-4.45-3.91-3.76-8.68.5-3.42,3.49-5.84,6.29-5.69l.7,0c1.21.07,2.27.22,3.27.27a6.54,6.54,0,0,0,4.94-1.65,3.78,3.78,0,0,1,1.89-1.07,2.17,2.17,0,0,1,.72-.07,2.4,2.4,0,0,1,1.22.38c1.42,1,1.63,3.25,1.7,4.93,0,.95.16,3.27.2,3.94.09,1.52.49,1.73,1.3,2,.45.15.87.26,1.5.44a8.33,8.33,0,0,1,3.7,1.75,2.34,2.34,0,0,1,.68,1.33c.22,1.62-1.26,3.62-5.18,5.44a26.31,26.31,0,0,1-13.08,2.09L38,41.77c-2.88-.39-4.52,3.33-2.79,5.87,1.11,1.64,4.14,2.71,7.17,2.71,6.94,0,12.28-3,14.26-5.53a1.4,1.4,0,0,0,.16-.22c.1-.15,0-.23-.1-.15-1.63,1.11-8.83,5.52-16.54,4.19a9.84,9.84,0,0,1-1.79-.49,3.18,3.18,0,0,1-2.27-2.37C42.32,47.7,46.23,45.88,46.23,45.88Zm-9.85-1.16ZM24.48,18a28.4,28.4,0,0,1,8-6.51.11.11,0,0,1,.14.15,7.39,7.39,0,0,0-.74,1.8.1.1,0,0,0,.16.11,15.55,15.55,0,0,1,7-2.46.11.11,0,0,1,.08.19A6.09,6.09,0,0,0,38,12.36a.1.1,0,0,0,.08.17,13.54,13.54,0,0,1,5.84,1.53c.11.06,0,.27-.09.24a23.79,23.79,0,0,0-10.58,0,24.4,24.4,0,0,0-8.6,3.8A.11.11,0,0,1,24.48,18Z" transform="translate(0 0)"/></g></svg>