<?xml version="1.0" encoding="UTF-8"?><svg xmlns="http://www.w3.org/2000/svg" viewBox="0 0 64 64"><defs><style>.cls-1{fill:none;}.cls-2{fill:#fff;}.cls-3{isolation:isolate;opacity:.15;}.cls-3,.cls-4{fill:#005fad;}</style></defs><g id="Layer_2"><rect class="cls-1" width="64" height="64"/></g><g id="Layer_1"><g id="Document"><path class="cls-3" d="M42.52,13.11c-1.46,0-2.85-.58-3.88-1.61-1.03-1.03-1.61-2.42-1.61-3.88V0H12.5C10.6,0,8.78.75,7.44,2.1c-1.35,1.34-2.1,3.16-2.1,5.06v43.18c0,1.9.76,3.72,2.1,5.06,1.34,1.34,3.16,2.09,5.06,2.09h29.44c.94,0,1.87-.18,2.74-.54.87-.36,1.66-.89,2.32-1.55s1.19-1.45,1.55-2.32.55-1.8.55-2.74V13.1h-6.59.01Z"/><path class="cls-4" d="M49.11,13.11h-6.59c-1.46,0-2.85-.58-3.88-1.61-1.03-1.03-1.61-2.42-1.61-3.88V0s12.08,13.11,12.08,13.11Z"/><path class="cls-4" d="M54.36,45.5H21.04c-2.36,0-4.28,1.92-4.28,4.28v9.94c0,2.36,1.92,4.28,4.28,4.28h33.33c2.36,0,4.28-1.92,4.28-4.28v-9.94c0-2.36-1.92-4.28-4.28-4.28h-.01Z"/></g><g id="File"><path class="cls-4" d="M40.19,37.18h-3.74v-15.14c0-.51-.2-.99-.56-1.35-.36-.36-.84-.56-1.35-.56h-9.58c-.51,0-.99.2-1.35.56-.36.36-.56.84-.56,1.35v15.14h-3.76v-16.41c0-1.16.46-2.28,1.29-3.1.82-.82,1.94-1.28,3.1-1.28h12.11c1.16,0,2.28.46,3.1,1.28s1.28,1.94,1.28,3.1l.03,16.41h0Z"/><path class="cls-4" d="M35.75,41.62c2.45,0,4.44-1.99,4.44-4.44s-1.99-4.44-4.44-4.44-4.44,1.99-4.44,4.44,1.99,4.44,4.44,4.44Z"/><path class="cls-4" d="M18.63,41.62c2.45,0,4.44-1.99,4.44-4.44s-1.99-4.44-4.44-4.44-4.44,1.99-4.44,4.44,1.99,4.44,4.44,4.44Z"/><path class="cls-2" d="M26.97,59.61c-.38,0-.57-.19-.57-.57v-8.06c0-.38.19-.57.57-.57.25,0,.46.12.62.37l3.2,4.82-.24.04,3.23-4.86c.15-.24.38-.37.69-.37s.46.19.46.57v8.06c0,.38-.19.57-.57.57s-.57-.19-.57-.57v-6.92l.35.12-2.85,4.19c-.17.24-.4.37-.69.37-.2,0-.39-.12-.56-.37l-2.85-4.19.34.09v6.7c0,.38-.19.57-.57.57h0Z"/><path class="cls-2" d="M38.34,59.61c-.19,0-.34-.05-.43-.14s-.14-.24-.14-.43v-8.05c0-.2.05-.34.14-.43s.24-.14.43-.14.34.05.43.14.14.24.14.43v8.05c0,.19-.05.34-.14.43s-.24.14-.43.14h0Z"/><path class="cls-2" d="M42.3,59.61c-.38,0-.57-.19-.57-.57v-8.06c0-.38.19-.57.57-.57h3.27c1.18,0,2.05.28,2.61.84s.84,1.42.84,2.61v2.31c0,1.18-.28,2.05-.83,2.61-.55.56-1.42.83-2.61.83h-3.28ZM42.86,58.47h2.7c.58,0,1.04-.07,1.37-.21.34-.14.58-.38.72-.72s.22-.8.22-1.38v-2.31c0-.57-.07-1.03-.22-1.36-.14-.34-.38-.58-.72-.73-.33-.14-.79-.22-1.37-.22h-2.7v6.92h0Z"/></g></g></svg>