<?xml version="1.0" encoding="UTF-8"?><svg xmlns="http://www.w3.org/2000/svg" viewBox="0 0 64 64"><defs><style>.cls-1{fill:none;}.cls-2,.cls-3{fill:#0072ff;}.cls-4{fill:#fff;}.cls-3{isolation:isolate;opacity:.15;}</style></defs><g id="Layer_2"><rect class="cls-1" width="64" height="64"/></g><g id="Layer_1"><g id="Document"><path class="cls-3" d="M42.52,13.11c-1.46,0-2.85-.58-3.88-1.61-1.03-1.03-1.61-2.42-1.61-3.88V0H12.5C10.6,0,8.78.75,7.44,2.1c-1.35,1.34-2.1,3.16-2.1,5.06v43.18c0,1.9.76,3.72,2.1,5.06,1.34,1.34,3.16,2.09,5.06,2.09h29.44c.94,0,1.87-.18,2.74-.54.87-.36,1.66-.89,2.32-1.55s1.19-1.45,1.55-2.32.55-1.8.55-2.74V13.1h-6.59.01Z"/><path class="cls-2" d="M49.11,13.11h-6.59c-1.46,0-2.85-.58-3.88-1.61-1.03-1.03-1.61-2.42-1.61-3.88V0s12.08,13.11,12.08,13.11Z"/><path class="cls-2" d="M54.36,45.5H21.04c-2.36,0-4.28,1.92-4.28,4.28v9.94c0,2.36,1.92,4.28,4.28,4.28h33.33c2.36,0,4.28-1.92,4.28-4.28v-9.94c0-2.36-1.92-4.28-4.28-4.28h-.01Z"/></g><g id="File"><path class="cls-2" d="M25.95,17.24c-3.12,0-6.11,1.24-8.32,3.45s-3.45,5.2-3.45,8.32,1.24,6.11,3.45,8.32,5.2,3.44,8.32,3.44,6.11-1.24,8.32-3.45,3.44-5.2,3.44-8.32-1.24-6.11-3.45-8.31c-2.2-2.2-5.19-3.44-8.31-3.45h0ZM25.95,19.53c.62,0,1.22.25,1.66.69s.69,1.04.69,1.66-.25,1.22-.69,1.66-1.04.69-1.66.69-1.22-.25-1.66-.69-.69-1.04-.69-1.66.25-1.22.69-1.66,1.04-.69,1.66-.69ZM17.75,24.26c.31-.54.83-.93,1.43-1.1.6-.16,1.24-.08,1.78.23.27.15.5.36.69.6s.33.52.41.82.1.61.06.92-.14.6-.29.87c-.31.54-.83.93-1.43,1.1s-1.25.08-1.79-.24c-.54-.31-.93-.83-1.1-1.43-.16-.6-.08-1.24.24-1.78h0ZM20.96,34.6c-.27.15-.56.25-.87.29s-.62.02-.92-.06-.58-.22-.82-.41-.45-.42-.6-.69c-.31-.54-.4-1.18-.24-1.78s.56-1.12,1.1-1.43,1.18-.4,1.79-.24,1.12.56,1.43,1.1.4,1.18.23,1.79-.56,1.12-1.1,1.43ZM25.95,38.47c-.62,0-1.22-.25-1.66-.69s-.69-1.04-.69-1.66.25-1.22.69-1.66,1.04-.69,1.66-.69c.31,0,.62.06.9.18.29.12.55.29.76.51.22.22.39.48.51.76.12.29.18.59.18.9,0,.62-.25,1.22-.69,1.66s-1.04.69-1.66.69h0ZM34.16,33.74c-.15.27-.36.5-.6.69s-.52.33-.82.41c-.3.08-.61.1-.92.06-.31-.04-.6-.14-.87-.3-.54-.31-.93-.83-1.1-1.43-.16-.6-.08-1.25.24-1.79.31-.54.83-.93,1.43-1.1s1.24-.08,1.78.23c.27.15.5.36.69.6.19.25.33.53.41.82.08.29.1.61.06.92-.04.31-.14.6-.3.87h0v.02ZM33.3,27.47c-.54.31-1.18.4-1.78.23s-1.12-.56-1.43-1.1-.4-1.18-.24-1.78.56-1.12,1.1-1.43,1.18-.4,1.78-.23c.6.16,1.12.56,1.43,1.1.15.27.26.56.3.87.04.31.02.62-.06.92s-.22.58-.41.82c-.19.25-.42.45-.69.6h0Z"/><path class="cls-2" d="M37.02,38.33c-.16,0-.32-.02-.48-.05-1.31-.31-1.84-1.7-1.84-1.76-.02-.05-.03-.1-.02-.16s.02-.11.04-.15c.02-.05.06-.09.09-.13.04-.04.09-.06.14-.08s.1-.03.16-.02c.05,0,.1.02.15.04s.09.05.13.09c.04.04.06.08.08.13,0,.02.4,1.05,1.27,1.24.74.16,1.7-.31,2.78-1.39.04-.04.08-.07.13-.09s.1-.03.15-.03.11,0,.15.03c.05.02.09.05.13.09.08.08.12.18.12.28s-.04.21-.12.28c-1.11,1.11-2.13,1.66-3.05,1.66h0v.02Z"/><path class="cls-4" d="M24.32,59.6c-.38,0-.57-.19-.57-.57v-8.05c0-.38.19-.57.57-.57.25,0,.46.12.62.37l3.2,4.81-.24.04,3.23-4.85c.15-.24.38-.37.69-.37s.46.19.46.57v8.05c0,.38-.19.57-.57.57s-.57-.19-.57-.57v-6.91l.35.12-2.85,4.19c-.17.24-.4.37-.69.37-.2,0-.39-.12-.56-.37l-2.85-4.19.34.09v6.7c0,.38-.19.57-.57.57h0Z"/><path class="cls-4" d="M37.82,59.6c-1.03,0-1.8-.25-2.3-.74-.49-.5-.74-1.26-.74-2.3v-3.13c0-1.04.25-1.81.75-2.3.5-.49,1.26-.73,2.29-.73h1.63c1.04,0,1.81.25,2.3.74s.74,1.26.74,2.3v3.12c0,1.03-.25,1.8-.74,2.3-.49.49-1.26.74-2.3.74h-1.63ZM37.82,58.46h1.63c.48,0,.86-.06,1.14-.17.28-.12.47-.31.58-.59.12-.28.18-.66.18-1.14v-3.12c0-.48-.06-.86-.18-1.13-.11-.28-.31-.47-.58-.59s-.66-.18-1.14-.18h-1.63c-.48,0-.86.05-1.13.16s-.47.31-.59.58-.18.66-.18,1.14v3.13c0,.48.06.86.17,1.14.12.28.31.47.59.59.28.11.66.17,1.14.17h0Z"/><path class="cls-4" d="M47.59,59.6c-.23,0-.42-.15-.56-.45l-3.35-7.93c-.07-.16-.09-.3-.05-.42.03-.13.14-.23.31-.31.37-.19.63-.09.79.28l3.16,7.5h-.39l3.08-7.5c.15-.37.41-.47.79-.28.16.08.26.19.29.31.04.12.03.26-.03.42l-3.37,7.93c-.14.3-.34.45-.61.45h-.06Z"/></g></g></svg>