<?xml version="1.0" encoding="UTF-8"?><svg xmlns="http://www.w3.org/2000/svg" viewBox="0 0 64 64"><defs><style>.cls-1{fill:none;}.cls-2{isolation:isolate;opacity:.15;}.cls-2,.cls-3{fill:#ff3e4c;}.cls-4{fill:#fff;}</style></defs><g id="Layer_2"><rect class="cls-1" width="64" height="64"/></g><g id="Layer_1"><g id="Document"><path class="cls-2" d="M42.52,13.11c-1.46,0-2.85-.58-3.88-1.61-1.03-1.03-1.61-2.42-1.61-3.88V0H12.5C10.6,0,8.78.75,7.44,2.1c-1.35,1.34-2.1,3.16-2.1,5.06v43.18c0,1.9.76,3.72,2.1,5.06,1.34,1.34,3.16,2.09,5.06,2.09h29.44c.94,0,1.87-.18,2.74-.54.87-.36,1.66-.89,2.32-1.55s1.19-1.45,1.55-2.32.55-1.8.55-2.74V13.1h-6.59.01Z"/><path class="cls-3" d="M49.11,13.11h-6.59c-1.46,0-2.85-.58-3.88-1.61-1.03-1.03-1.61-2.42-1.61-3.88V0s12.08,13.11,12.08,13.11Z"/><path class="cls-3" d="M54.36,45.5H21.04c-2.36,0-4.28,1.92-4.28,4.28v9.94c0,2.36,1.92,4.28,4.28,4.28h33.33c2.36,0,4.28-1.92,4.28-4.28v-9.94c0-2.36-1.92-4.28-4.28-4.28h-.01Z"/></g><g id="File"><path class="cls-3" d="M39.32,39.8H15.07c-.23,0-.46-.09-.62-.26-.17-.17-.26-.39-.26-.62s.09-.46.26-.62.39-.26.62-.26h24.24c.23,0,.46.09.62.26.16.16.26.39.26.62,0,.12-.02.23-.07.34-.04.11-.11.2-.19.29-.08.08-.18.15-.29.19-.11.04-.22.07-.34.07h.01Z"/><path class="cls-3" d="M39.32,29.88H15.07c-.23,0-.46-.09-.62-.26-.17-.16-.26-.39-.26-.62s.09-.46.26-.62c.17-.17.39-.26.62-.26h24.24c.12,0,.23.02.34.07.11.04.2.11.29.19.08.08.15.18.19.29.04.11.07.22.07.34,0,.23-.09.46-.26.62-.16.16-.39.26-.62.26h-.01Z"/><path class="cls-3" d="M39.32,34.84H15.07c-.23,0-.46-.09-.62-.26-.17-.17-.26-.39-.26-.62s.09-.46.26-.62.39-.26.62-.26h24.24c.23,0,.46.09.62.26.16.16.26.39.26.62,0,.12-.02.23-.07.34-.04.11-.11.2-.19.29-.08.08-.18.15-.29.19-.11.04-.22.07-.34.07h.01Z"/><path class="cls-3" d="M29.75,24.92h-14.68c-.23,0-.46-.09-.62-.26-.17-.16-.26-.39-.26-.62s.09-.46.26-.62.39-.26.62-.26h14.68c.23,0,.46.09.62.26s.26.39.26.62-.09.46-.26.62-.39.26-.62.26h0Z"/><path class="cls-3" d="M29.75,19.96h-14.68c-.23,0-.46-.09-.62-.26-.17-.16-.26-.39-.26-.62s.09-.46.26-.62c.17-.17.39-.26.62-.26h14.68c.23,0,.46.09.62.26s.26.39.26.62-.09.46-.26.62-.39.26-.62.26h0Z"/><path class="cls-3" d="M38.89,18.2h-4.15c-.72,0-1.31.59-1.31,1.31v4.15c0,.72.59,1.31,1.31,1.31h4.15c.72,0,1.31-.59,1.31-1.31v-4.15c0-.72-.59-1.31-1.31-1.31Z"/><path class="cls-4" d="M26.15,59.6c-.38,0-.57-.19-.57-.57v-8.06c0-.38.19-.57.57-.57h3.18c.83,0,1.46.22,1.9.66.44.44.66,1.07.66,1.9v.41c0,.83-.22,1.46-.66,1.91s-1.07.66-1.9.66h-2.61v3.09c0,.38-.19.57-.57.57h0ZM26.72,54.8h2.61c.52,0,.88-.11,1.1-.33s.33-.58.33-1.1v-.41c0-.51-.11-.88-.33-1.09-.22-.22-.58-.33-1.1-.33h-2.61v3.26Z"/><path class="cls-4" d="M34.48,59.6c-.38,0-.57-.19-.57-.57v-8.06c0-.38.19-.57.57-.57h3.27c1.18,0,2.05.28,2.61.84s.84,1.42.84,2.61v2.31c0,1.18-.28,2.05-.83,2.61-.55.56-1.42.83-2.61.83h-3.28ZM35.05,58.46h2.7c.58,0,1.04-.07,1.37-.21.34-.14.58-.38.72-.72s.22-.8.22-1.38v-2.31c0-.57-.07-1.03-.22-1.36-.14-.34-.38-.58-.72-.73-.33-.14-.79-.22-1.37-.22h-2.7v6.92h0Z"/><path class="cls-4" d="M44.26,59.6c-.38,0-.57-.19-.57-.57v-8.06c0-.38.19-.57.57-.57h4.99c.18,0,.31.05.41.16.1.1.16.24.16.41,0,.38-.19.57-.57.57h-4.42v2.85h2.73c.38,0,.57.19.57.57s-.19.57-.57.57h-2.73v3.5c0,.38-.19.57-.57.57Z"/></g></g></svg>