<svg xmlns="http://www.w3.org/2000/svg" viewBox="0 0 300.7 554.6"> <g style="isolation:isolate"> <path d="M197 469.2v76.6" fill="none"/> <path d="M192.6 469.2v76.6c0 5.6 8.8 5.6 8.8 0v-76.6c0-5.7-8.8-5.7-8.8 0z"/> <path d="M115.6 466.8V549" fill="none"/> <path d="M111.3 466.8V549c0 5.6 8.7 5.6 8.7 0v-82.2c0-5.5-8.7-5.6-8.7 0z"/> <path fill="#e2e1e1" d="M157 411.1h-1.3a7.7 7.7 0 01-7.6-7.7v-73.8a7.7 7.7 0 017.6-7.7h1.3a7.7 7.7 0 017.7 7.7v73.8a7.8 7.8 0 01-7.7 7.7z"/> <path d="M157 406.7c-5.4 0-4.7-4.3-4.7-8.2v-61c0-2.5-.7-6.7.3-9.1 1.8-3.8 7.1-2 7.8 1.3a16 16 0 010 3V395c-.1 3.2 1.4 11.3-3.4 11.7-5.5.5-5.6 9.2 0 8.7 8.4-.6 12-7 12-14.7v-68c0-7.5-3-14.5-11.5-15s-13.8 5.4-14 13.4c-.2 15.2 0 30.3 0 45.5v23.7c0 8.5 4 15.2 13.4 15.2 5.6 0 5.7-8.8.1-8.8z"/> <path fill="#ffe3b2" d="M209.6 488.4H103A38.5 38.5 0 0164.7 450v-36.3a38.5 38.5 0 0138.3-38.3h106.7a38.5 38.5 0 0138.4 38.3V450a38.6 38.6 0 01-38.5 38.4z"/> <path d="M209.6 484h-86.4c-12 0-25.8 1.8-36.6-4.2A34.5 34.5 0 0169 449.9v-21c0-6.7-.7-14 .4-20.7A34.4 34.4 0 0193.1 381c5-1.6 10.1-1.5 15.2-1.5h95.2c4.5 0 9-.2 13.4.8a34.5 34.5 0 0125.6 25.2c1.8 7 1 14.8 1 21.9v22a34.5 34.5 0 01-15.4 28.8 32.4 32.4 0 01-18.4 5.7c-5.7.1-5.7 8.9 0 8.8a43.5 43.5 0 0034.5-17.7 46.5 46.5 0 008.2-28.6v-27.3c0-9.6-1-18.8-6-27.3a43.2 43.2 0 00-32.7-20.6c-4.1-.4-8.5-.2-12.7-.2H103.8a43.4 43.4 0 00-43.4 43v24c0 8.3-.6 16.8 2 24.9a43.5 43.5 0 0026.8 27.5 55.4 55.4 0 0018.7 2.4h102c5.4-.1 5.4-8.9-.3-8.9z"/> <path fill="#ffb599" d="M158.6 409.8H154a27.9 27.9 0 00-27.8 27.8v2.3h60.2v-2.3a27.9 27.9 0 00-27.8-27.8z"/> <path d="M158.6 405.5c-9.5 0-18 1.3-25.5 7.7a33.5 33.5 0 00-11.3 26.7 4.5 4.5 0 004.4 4.4h60.2a4.5 4.5 0 004.4-4.4c0-18.6-13-34-32.2-34.4-5.6-.1-5.6 8.6 0 8.7 14.5.4 23.4 12 23.4 25.7l4.4-4.3h-60.2l4.4 4.3c0-8 2.2-15.3 8.7-20.5 5.7-4.7 12.3-5.2 19.3-5.2 5.7 0 5.7-8.7 0-8.7z"/> <path d="M120.5 520.1h-4.7A27.9 27.9 0 0088.1 548v2.3h60.2V548a27.9 27.9 0 00-27.8-27.8z" fill="#bbe5ed"/> <path d="M120.5 515.8c-9.5 0-18 1.3-25.5 7.7a33.5 33.5 0 00-11.3 26.7 4.5 4.5 0 004.4 4.4h60.2a4.5 4.5 0 004.3-4.4c0-18.6-12.9-34-32.1-34.4-5.6-.1-5.6 8.6 0 8.7 14.5.4 23.4 12 23.4 25.7l4.4-4.3H88l4.3 4.3c0-8 2.3-15.3 8.8-20.5 5.7-4.7 12.2-5.2 19.3-5.2 5.6 0 5.6-8.7 0-8.7z"/> <path d="M199.3 520.1h-4.6a27.9 27.9 0 00-27.8 27.8v2.3h60.2V548a27.9 27.9 0 00-27.8-27.8z" fill="#bbe5ed"/> <path d="M199.3 515.8c-9.5 0-18 1.3-25.5 7.7a33.5 33.5 0 00-11.3 26.7 4.5 4.5 0 004.4 4.4h60.2a4.5 4.5 0 004.4-4.4c0-18.6-13-34-32.2-34.4-5.6-.1-5.6 8.6 0 8.7 14.5.4 23.4 12 23.4 25.7l4.4-4.3h-60.2l4.4 4.3c0-8 2.2-15.3 8.7-20.5 5.7-4.7 12.2-5.2 19.3-5.2 5.7 0 5.7-8.7 0-8.7zM160 438.4l.6-13.5c.3-5.6-8.5-5.6-8.7 0l-.7 13.5c-.3 5.6 8.4 5.6 8.7 0z"/> <circle cx="51.4" cy="407.2" r="12.9" fill="#fff"/> <path d="M59.9 407.2c-.6 10.9-17 11-17 0s16.4-10.9 17 0c.3 5.7 9 5.7 8.7 0-.4-9.3-7.5-17.3-17.2-17.3a17.3 17.3 0 000 34.6c9.7 0 16.8-7.9 17.2-17.3.3-5.6-8.4-5.6-8.7 0z"/> <path d="M47 420.8v62c0 5.6 8.7 5.6 8.7 0v-62c0-5.6-8.7-5.6-8.7 0z"/> <path fill="#f1eeed" d="M49.5 264.5c18.3-37.8 57-64.1 101.6-64.1h9A113 113 0 01272.5 313a36 36 0 01-35.8 35.9H74.3A36 36 0 0138.4 313a112.7 112.7 0 012-21.5"/> <path d="M53.3 266.6a111 111 0 0153.9-52.5 125.7 125.7 0 0166.3-8.6c49 6 89.2 47 94.2 96 1.3 12.4.6 24.4-8.6 33.7a31.8 31.8 0 01-22.9 9.2c-8.6.2-17.2 0-25.9 0H77.2c-4.5 0-8.8-.1-13-1.6a32 32 0 01-21.4-27c-.7-7.8.4-15.7 1.9-23.2 1-5.5-7.4-7.9-8.5-2.3-2.6 14-4.4 29.6 3 42.6a40.8 40.8 0 0030.8 20c8.2 1 16.9.3 25.2.3h140a40.9 40.9 0 0041.3-35.4c1.6-12.7-1-26.7-4.7-38.7a117 117 0 00-17-34.2 119.4 119.4 0 00-61-43.8 138 138 0 00-71.2-1.6 118.3 118.3 0 00-66.5 45.1 111.9 111.9 0 00-10.6 17.7c-2.2 5 5.4 9.4 7.8 4.3z"/> <path d="M172.1 314.6c5.6 0 5.6-8.7 0-8.7s-5.6 8.7 0 8.7zM182.3 321c5.6 0 5.6-8.7 0-8.7s-5.6 8.7 0 8.7zM194.7 321c5.7 0 5.7-8.7 0-8.7s-5.6 8.7 0 8.7zM205 314.6c5.6 0 5.6-8.7 0-8.7s-5.6 8.7 0 8.7z"/> <circle cx="223.8" cy="274.7" r="19.9" fill="#fff"/> <path d="M223.9 282c9.4 0 9.4-14.6 0-14.6s-9.5 14.6 0 14.6z" fill="#393434"/> <circle cx="153.6" cy="274.7" r="19.9" fill="#fff"/> <path d="M153.6 282c9.4 0 9.4-14.6 0-14.6s-9.5 14.6 0 14.6z" fill="#393434"/> <path d="M39 190.2c-4.3-4-8.3-8.2-12.5-12.3-4-4-10.2 2.2-6.2 6.2 4.2 4 8.2 8.2 12.4 12.3 4 4 10.2-2.2 6.2-6.2zM76 226.9l-27-26.8c-4-4-10.2 2.2-6.2 6.2l27 26.8c4 4 10.1-2.2 6.1-6.2zM274.7 194.2l12.5-12.3c4-4-2.2-10.3-6.2-6.3L268.5 188c-4 4 2.3 10.2 6.2 6.2zM237.7 230.9l27-26.8c4-4-2.2-10.2-6.3-6.2l-26.9 26.8c-4 4 2.3 10.2 6.2 6.2z"/> <path d="M117 215.7a66.5 66.5 0 00-28.2 14.7c-4.2 3.7 1.8 10.1 6 6.4a55.9 55.9 0 0124.2-12.5c5.5-1.4 3.4-10-2-8.6zM77 241.8A109.2 109.2 0 0064 257c-3.3 4.6 3.9 9.6 7.2 5a102.8 102.8 0 0111.6-13.6c4.1-3.8-1.5-10.5-5.6-6.6z" fill="#fff"/> <g style="mix-blend-mode:multiply"> <path d="M268.5 311a34.4 34.4 0 01-9.8 24.9 33.3 33.3 0 01-24.2 8.6l-25.6-.1c9.4 0 18-3 24.3-9.1a34.1 34.1 0 0010-24.2c0-56.5-44.4-102-99.8-106.2 2.7-.2 7-.3 9.8-.3h7.4c59.3 0 106.4 50.2 107.9 106.5z" fill="#d9d5cc"/> </g> <g style="mix-blend-mode:multiply"> <path d="M243.8 414.9l-.2 34a34.4 34.4 0 01-35.4 35.2h-26c19.8 0 35.9-15.6 35.9-35.3v-34.1c0-19.8-16.2-35-36-35h26.4c20-.3 35.3 15.5 35.3 35.2z" fill="#d9d5cc"/> </g> <g style="opacity:.15"> <path d="M222.3 545.8h-12.2c0-6-.9-11.3-4.8-15.3a21.1 21.1 0 00-11.3-5.9 13.5 13.5 0 014-.4c7 .8 11.8 2 16 5.7a24.1 24.1 0 018.3 15.9z" fill="#5e7377"/> </g> <g style="opacity:.15"><path d="M143.5 545.8h-12.2c0-6-1-11.3-4.9-15.3a21.1 21.1 0 00-11.3-5.9 13.5 13.5 0 014-.4c7.1.8 11.9 2 16 5.7a23.8 23.8 0 018.4 15.9z" fill="#5e7377"/></g> <path d="M87.7 390a20.9 20.9 0 00-11 20.2c.6 6.2 10.3 6.2 9.7 0a11.5 11.5 0 016.2-11.7c5.6-3 .7-11.4-4.9-8.5zM76.6 424.8v11.6c0 6.3 9.7 6.3 9.7 0v-11.6c0-6.3-9.7-6.3-9.7 0zM113 530.6c-5.7 0-5.7 8.7 0 8.7s5.5-8.7 0-8.7zM194 529c-5.5 0-5.5 8.7 0 8.7s5.7-8.7 0-8.7z" fill="#fff"/> <circle cx="260.3" cy="408.6" r="12.9" fill="#fff"/> <path d="M268.8 408.6c-.5 10.9-17 11-17 0s16.5-10.9 17 0c.3 5.6 9 5.6 8.8 0-.5-9.3-7.6-17.3-17.3-17.3a17.3 17.3 0 000 34.6c9.7 0 16.8-7.9 17.3-17.3.3-5.6-8.5-5.6-8.8 0z"/> <path d="M256 422.2v62c0 5.7 8.6 5.7 8.6 0v-62c0-5.6-8.7-5.6-8.7 0z"/> <rect width="300.7" height="116.1" fill="#f0edec" rx="21.4"/> <path d="M237.5 88l25.7 25.7-25.7 25.7-25.6-25.7z" fill="#f0edec"/> <path fill="#f7286d" d="M175.8 60L153 83.7a3.7 3.7 0 01-5.3 0l-22.8-23.5a17 17 0 011.1-24.5c6.5-5.5 16.1-4.5 22 1.6l2.3 2.4 2.4-2.4c5.9-6.1 15.5-7 22-1.6a17 17 0 011.1 24.5z"/> </g> </svg>