<svg id="Layer_1" data-name="Layer 1" xmlns="http://www.w3.org/2000/svg" viewBox="0 0 48.94 64.01"><g id="Layer_1-2" data-name="Layer 1"><g id="Shadow"><path d="M24.27,62.22c4,0,7.33.4,7.33.89s-3.29.89-7.33.89-7.33-.4-7.33-.89S20.21,62.22,24.27,62.22Z" transform="translate(-1.05 0.01)" style="fill:#1e2432;fill-rule:evenodd;isolation:isolate;opacity:0.15000000596046448"/></g><g id="Fly"><path d="M23.64,56.73a11,11,0,0,1,2.29.22c.73.18,1.19.47,1.19.85s-.46.68-1.19.85a10.34,10.34,0,0,1-2.29.22,11.14,11.14,0,0,1-2.3-.22c-.74-.17-1.2-.46-1.2-.85s.46-.67,1.2-.85A11.14,11.14,0,0,1,23.64,56.73Zm2.14.9a10.94,10.94,0,0,0-2.14-.21,10.54,10.54,0,0,0-2.16.21,5.19,5.19,0,0,0-.65.17,3,3,0,0,0,.65.19,10.53,10.53,0,0,0,2.16.2,10.21,10.21,0,0,0,2.14-.2,2.72,2.72,0,0,0,.65-.19A2.3,2.3,0,0,0,25.78,57.63Z" transform="translate(-1.05 0.01)" style="fill:#008bf6"/><path d="M23.64,59.23a5.86,5.86,0,0,1,1.39.15c.46.13.75.33.75.61s-.29.48-.75.59a5.86,5.86,0,0,1-1.39.15,6.15,6.15,0,0,1-1.41-.15c-.46-.12-.75-.33-.75-.59s.28-.48.75-.61A6.15,6.15,0,0,1,23.64,59.23Zm0,.36c-.75,0-1.65.18-1.65.36s1,.35,1.65.35,1.63-.19,1.63-.35S24.44,59.58,23.64,59.59Z" transform="translate(-1.05 0.01)" style="fill:#008bf6"/></g><g id="Arm_-_Right" data-name="Arm - Right"><path d="M16.77,43.47A6.59,6.59,0,0,1,9.2,44.63L6.71,49.58c3.55,2,9.94,2.22,11.73-4C19,43.58,17.32,43,16.77,43.47Z" transform="translate(-1.05 0.01)" style="fill:#385661;fill-rule:evenodd"/><path d="M17.25,44.09a7.27,7.27,0,0,1-7.7,1.53l-1.8,3.61a9.36,9.36,0,0,0,4,.8,6,6,0,0,0,5.89-4.66,1.18,1.18,0,0,0-.09-1.11A.48.48,0,0,0,17.25,44.09Z" transform="translate(-1.05 0.01)" style="fill:#385661;fill-rule:evenodd"/><path d="M14.88,45.6a7.39,7.39,0,0,1-5.32,0l-.74,1.5a6.29,6.29,0,0,0,6.08-.64C15.37,46.09,15.26,45.61,14.88,45.6Z" transform="translate(-1.05 0.01)" style="fill:#598291;fill-rule:evenodd"/></g><g id="Arm_-_Left" data-name="Arm - Left"><path d="M30.1,46.45a8.67,8.67,0,0,1,3.1,5.07l4.22-1.15c-1.08-3.16-4.24-6.26-7.31-6.54Z" transform="translate(-1.05 0.01)" style="fill:#385661;fill-rule:evenodd"/><path d="M30.88,46.08a9.57,9.57,0,0,1,2.89,4.47l2.6-.7A10.06,10.06,0,0,0,31,44.53Z" transform="translate(-1.05 0.01)" style="fill:#385661;fill-rule:evenodd"/><path d="M35.15,50.17l1.22-.32a11.29,11.29,0,0,0-3.46-4.32c-.18.14-.09.49.09.69A8.76,8.76,0,0,1,35.15,50.17Z" transform="translate(-1.05 0.01)" style="fill:#598291;fill-rule:evenodd"/></g><g id="Body"><path d="M19.93,55.52A1.63,1.63,0,0,1,19,54.47a22.62,22.62,0,0,1-.46-2.95c0-.42-.06-.84-.09-1.25a1.52,1.52,0,0,1,.67-1.52,12.61,12.61,0,0,1,3.42-1.13l.93-.2h.29l.93.2a12.13,12.13,0,0,1,3.48,1.13,1.49,1.49,0,0,1,.67,1.52c0,.41-.05.83-.09,1.25a19.76,19.76,0,0,1-.5,2.95,1.6,1.6,0,0,1-.93,1.05A10.37,10.37,0,0,1,19.93,55.52Z" transform="translate(-1.05 0.01)" style="fill:#598291;fill-rule:evenodd"/><path d="M20.19,54.88a.93.93,0,0,1-.51-.57,21,21,0,0,1-.58-4.1.82.82,0,0,1,.36-.87,16.7,16.7,0,0,1,4.19-1.25,16.39,16.39,0,0,1,4.18,1.25.82.82,0,0,1,.35.87,19.58,19.58,0,0,1-.58,4.1.93.93,0,0,1-.51.57A9.76,9.76,0,0,1,20.19,54.88Z" transform="translate(-1.05 0.01)" style="fill:#d3e8ef;fill-rule:evenodd"/><path d="M20.2,49a27.58,27.58,0,0,1,3.44-.89v7.41a9.58,9.58,0,0,1-2.81-.39C20.55,53.1,20.34,51,20.2,49Z" transform="translate(-1.05 0.01)" style="fill:#fff;fill-rule:evenodd"/><path d="M18,53.54A2.52,2.52,0,0,1,16.65,52a33.76,33.76,0,0,1-.75-4.46c-.07-.63-.11-1.27-.15-1.9a2.28,2.28,0,0,1,1-2.27A19,19,0,0,1,22,41.67l1.41-.31.23,0,.21,0c.47.09.94.19,1.41.31a18.88,18.88,0,0,1,5.3,1.65,2.23,2.23,0,0,1,1,2.27c0,.63-.08,1.27-.14,1.9A30,30,0,0,1,30.62,52a2.47,2.47,0,0,1-1.39,1.59A15.64,15.64,0,0,1,18,53.54Z" transform="translate(-1.05 0.01)" style="fill:#598291;fill-rule:evenodd"/><path d="M18.45,52.57a1.45,1.45,0,0,1-.78-.85,33.11,33.11,0,0,1-.88-6.18,1.28,1.28,0,0,1,.53-1.33c1.22-.76,3.93-1.37,6.32-1.87,2.38.5,5.08,1.11,6.31,1.87a1.25,1.25,0,0,1,.53,1.33,30.1,30.1,0,0,1-.88,6.18,1.39,1.39,0,0,1-.78.85A14.59,14.59,0,0,1,18.45,52.57Z" transform="translate(-1.05 0.01)" style="fill:#598291;fill-rule:evenodd"/><path d="M19.61,52.57a1.38,1.38,0,0,1-.6-.85,40.14,40.14,0,0,1-.67-6.18,1.52,1.52,0,0,1,.4-1.33,15.57,15.57,0,0,1,4.9-1.87,16,16,0,0,1,4.91,1.87A1.41,1.41,0,0,1,29,45.54a40.16,40.16,0,0,1-.68,6.18,1.32,1.32,0,0,1-.59.85A9,9,0,0,1,19.61,52.57Z" transform="translate(-1.05 0.01)" style="fill:#7eaaba;fill-rule:evenodd"/><path d="M17.08,48.65c-.14-1.06-.21-2-.28-3.11a1.28,1.28,0,0,1,.53-1.33c1.22-.76,3.93-1.37,6.32-1.87,2.38.5,5.08,1.11,6.31,1.87a1.25,1.25,0,0,1,.53,1.33c-.07,1.11-.15,2.06-.29,3.11a23.15,23.15,0,0,1-3.32.51.25.25,0,0,0-.22.22,2.27,2.27,0,0,1-.83,1.49,3.43,3.43,0,0,1-2.17.64,3.41,3.41,0,0,1-2.2-.64,2.36,2.36,0,0,1-.83-1.49.23.23,0,0,0-.22-.22A23.5,23.5,0,0,1,17.08,48.65Z" transform="translate(-1.05 0.01)" style="fill:#d3e8ef;fill-rule:evenodd"/><path d="M23.64,42.34h0a16,16,0,0,1,4.91,1.87A1.41,1.41,0,0,1,29,45.54c-.07,1.21-.12,2.22-.25,3.4-.57.09-1.17.16-1.82.22a.25.25,0,0,0-.22.22c-.23,1.53-1.54,2.14-3,2.14s-2.79-.59-3-2.14a.23.23,0,0,0-.22-.22c-.63-.06-1.25-.13-1.82-.22-.13-1.18-.19-2.2-.24-3.4a1.46,1.46,0,0,1,.4-1.33A16.37,16.37,0,0,1,23.64,42.34Z" transform="translate(-1.05 0.01)" style="fill:#fff;fill-rule:evenodd"/><path d="M21.55,46.42h1.1a.24.24,0,0,1,.24.24h0v2.11a1,1,0,0,0,.17.6.84.84,0,0,0,.59.17.74.74,0,0,0,.56-.17.82.82,0,0,0,.17-.6V46.66a.24.24,0,0,1,.24-.24H25.7a.24.24,0,0,1,.24.24h0V48.9a1.68,1.68,0,0,1-.59,1.4,2.63,2.63,0,0,1-1.7.49,2.65,2.65,0,0,1-1.72-.49,1.77,1.77,0,0,1-.59-1.4V46.66a.22.22,0,0,1,.2-.24Z" transform="translate(-1.05 0.01)" style="fill:#0b87e8;fill-rule:evenodd"/><path d="M21.55,46.54a.14.14,0,0,0-.12.12V48.9A1.59,1.59,0,0,0,22,50.19a2.71,2.71,0,0,0,1.65.46v-1a1,1,0,0,1-.67-.21,1.06,1.06,0,0,1-.2-.69V46.66a.12.12,0,0,0-.12-.12Z" transform="translate(-1.05 0.01)" style="fill:#57b6ff;fill-rule:evenodd"/></g><g id="Bow_Tie" data-name="Bow Tie"><path d="M24.21,42.17l-.54,2.16a8.48,8.48,0,0,0,3.2,2.16.81.81,0,0,0,1-.1,8.24,8.24,0,0,0,1.33-4.22Z" transform="translate(-1.05 0.01)" style="fill:#3c942c;fill-rule:evenodd"/><path d="M28.61,42.17a6.82,6.82,0,0,1-.12,1,6.63,6.63,0,0,1-1,2.85h-.06a1.09,1.09,0,0,1-.3-.07,10.06,10.06,0,0,1-2.8-1.75l.51-2Z" transform="translate(-1.05 0.01)" style="fill:#3c942c;fill-rule:evenodd"/><path d="M28.26,44.15A4.66,4.66,0,0,1,27.45,46h-.06a1.09,1.09,0,0,1-.3-.07,10.59,10.59,0,0,1-2.67-1.62h.41a4.36,4.36,0,0,0,1.46.61,6.25,6.25,0,0,1-.62-.64C26.55,44.28,27.39,44.23,28.26,44.15Z" transform="translate(-1.05 0.01)" style="fill:#82e371;fill-rule:evenodd"/><path d="M23,42.17l.56,2.16a8.33,8.33,0,0,1-3.2,2.16.82.82,0,0,1-1-.1A8.43,8.43,0,0,1,18,42.17Z" transform="translate(-1.05 0.01)" style="fill:#3c942c;fill-rule:evenodd"/><path d="M18.55,42.17a6.82,6.82,0,0,0,.12,1,7.1,7.1,0,0,0,1,2.85h.07A.94.94,0,0,0,20,46a9.78,9.78,0,0,0,2.8-1.75l-.51-2Z" transform="translate(-1.05 0.01)" style="fill:#3c942c;fill-rule:evenodd"/><path d="M18.93,44.15a4.94,4.94,0,0,0,.8,1.85h.07a.94.94,0,0,0,.3-.07,10.25,10.25,0,0,0,2.67-1.62h-.41a4.27,4.27,0,0,1-1.46.61,4.1,4.1,0,0,0,.61-.64C20.67,44.28,19.8,44.23,18.93,44.15Z" transform="translate(-1.05 0.01)" style="fill:#82e371;fill-rule:evenodd"/><path d="M25.44,42.17A12,12,0,0,1,25,45a2.49,2.49,0,0,1-2.88,0,13.9,13.9,0,0,1-.4-2.8Z" transform="translate(-1.05 0.01)" style="fill:#3c942c;fill-rule:evenodd"/><path d="M22.24,42.37a14.27,14.27,0,0,0,.31,2.35,2.1,2.1,0,0,0,2.06,0,12.43,12.43,0,0,0,.33-2.35Z" transform="translate(-1.05 0.01)" style="fill:#3c942c;fill-rule:evenodd"/><path d="M22.45,44.15a2.32,2.32,0,0,0,.12.57,2.1,2.1,0,0,0,2.06,0c.05-.19.09-.39.13-.59H23.28Z" transform="translate(-1.05 0.01)" style="fill:#82e371;fill-rule:evenodd"/></g><g id="Head"><path d="M4.25,21.7l5.24-.56L7.72,34.62l-5-2.4a1.78,1.78,0,0,1-1-1.22,13.92,13.92,0,0,1,1.18-8.5C3.12,22,3.4,21.8,4.25,21.7Z" transform="translate(-1.05 0.01)" style="fill:#598291;fill-rule:evenodd"/><path d="M6.83,33,8.21,22.44A39.26,39.26,0,0,0,4,23l-.08.13a12.81,12.81,0,0,0-1.1,7.71.66.66,0,0,0,.43.46Z" transform="translate(-1.05 0.01)" style="fill:#d3e8ef;fill-rule:evenodd"/><path d="M6.83,33l.09-.75L3.18,30.71c-.27-.12-.48-1.14-.6-2.27a10.59,10.59,0,0,0,.19,2.32.66.66,0,0,0,.43.46Zm.57-4.46.8-6.1A39.26,39.26,0,0,0,3.94,23l-.08.13a13.49,13.49,0,0,0-1.14,3.67Z" transform="translate(-1.05 0.01)" style="fill:#fff;fill-rule:evenodd"/><path d="M3.12,25l1.43,1.23a.79.79,0,0,1,.28.69c-.16,1.49-.33,2.92-.38,4.91a32.15,32.15,0,0,1-.23-5,.12.12,0,0,0,0-.14l-1-.92-.12-.51C3.11,25.17,3.11,25.09,3.12,25Z" transform="translate(-1.05 0.01)" style="fill:#d3e8ef;fill-rule:evenodd"/><path d="M3.05,25.26l1.24,1.09a.76.76,0,0,1,.26.65,30.59,30.59,0,0,0-.14,4.17v.62l-.64-.3v-.32A29,29,0,0,1,4,27a.11.11,0,0,0-.05-.14l-1-.89C3,25.73,3,25.49,3.05,25.26Z" transform="translate(-1.05 0.01)" style="fill:#7eaaba;fill-rule:evenodd"/><path d="M27.13,4.42c3.55,3.22,3.8,7.33,2.17,11.62L28,15.55c1.42-3.76,1.32-7.29-1.82-10.12Z" transform="translate(-1.05 0.01)" style="fill:#598291;fill-rule:evenodd"/><path d="M26,.06a4.18,4.18,0,1,1-4.84,3.39h0A4.17,4.17,0,0,1,26,.06Z" transform="translate(-1.05 0.01)" style="fill:#3c942c;fill-rule:evenodd"/><path d="M25.84.9A3.33,3.33,0,1,1,22,3.61h0A3.34,3.34,0,0,1,25.84.9Z" transform="translate(-1.05 0.01)" style="fill:#3c942c;fill-rule:evenodd"/><path d="M28.19,2.6a3.31,3.31,0,0,1-1.32,4.5,3.27,3.27,0,0,1-2.17.36,3.37,3.37,0,0,1-2.61-2.3,3.34,3.34,0,0,0,4.52,1.33,3.28,3.28,0,0,0,1.68-2.33A3.58,3.58,0,0,0,28.19,2.6ZM25,1.18c1.16-.05,2,.67,1.79,1.61a2.51,2.51,0,0,1-2.38,1.8c-1.15.06-1.9-.67-1.78-1.59A2.52,2.52,0,0,1,25,1.18Z" transform="translate(-1.05 0.01)" style="fill:#82e371;fill-rule:evenodd"/><path d="M27.85,18.44c-1.14-.2-4.93-1-5.06-2.48a11.8,11.8,0,0,1,1-5.27c.61-1.23,4.43-.65,5.53-.46s4.88,1,5,2.33a11.53,11.53,0,0,1-.88,5.28C32.83,19.19,29,18.64,27.85,18.44Z" transform="translate(-1.05 0.01)" style="fill:#006cbf;fill-rule:evenodd"/><path d="M33.37,12.71c-.39-.7-3.45-1.37-4.24-1.51a20.78,20.78,0,0,0-2.5-.28,5.24,5.24,0,0,0-2,.24,10.68,10.68,0,0,0-.86,4.7c.07.34,1.48.89,1.8,1a15.78,15.78,0,0,0,6.43.78,1.41,1.41,0,0,0,.56-.21A10.47,10.47,0,0,0,33.37,12.71Z" transform="translate(-1.05 0.01)" style="fill:#006cbf;fill-rule:evenodd"/><path d="M29.12,11.2a20.78,20.78,0,0,0-2.5-.28,5.24,5.24,0,0,0-2,.24,10.68,10.68,0,0,0-.86,4.7c0,.12.36.34.46.41A12.45,12.45,0,0,0,28,17.46Z" transform="translate(-1.05 0.01)" style="fill:#57b6ff;fill-rule:evenodd"/><path d="M48.9,29.58l-4.73-2.31-3,13.27L46.7,40a1.73,1.73,0,0,0,1.43-.83,13.69,13.69,0,0,0,1.78-8.35C49.86,30.28,49.68,30,48.9,29.58Z" transform="translate(-1.05 0.01)" style="fill:#598291;fill-rule:evenodd"/><path d="M42.64,39.3,45,28.9c.41.2,3.74,1.78,3.83,1.93s0,.12,0,.15a12.72,12.72,0,0,1-1.61,7.61.62.62,0,0,1-.56.3Z" transform="translate(-1.05 0.01)" style="fill:#d3e8ef;fill-rule:evenodd"/><path d="M42.64,39.3l.16-.73,4-.15c.3,0,.83-.91,1.35-1.92a9.2,9.2,0,0,1-1,2.1.62.62,0,0,1-.56.3Zm1-4.39,1.33-6c.41.2,3.74,1.78,3.83,1.93s0,.12,0,.15a12.56,12.56,0,0,1-.2,3.82Z" transform="translate(-1.05 0.01)" style="fill:#fff;fill-rule:evenodd"/><path d="M48.84,33l-1.78.68a.79.79,0,0,0-.49.56c-.37,1.46-.69,2.85-1.33,4.74a28.61,28.61,0,0,0,1.93-4.61.17.17,0,0,1,.1-.13l1.28-.47.29-.44A.91.91,0,0,0,48.84,33Z" transform="translate(-1.05 0.01)" style="fill:#d3e8ef;fill-rule:evenodd"/><path d="M48.82,33.33l-1.53.6a.77.77,0,0,0-.49.56,27.06,27.06,0,0,1-1.3,4c-.08.19-.16.38-.25.57L46,39a1.88,1.88,0,0,0,.12-.3,28.42,28.42,0,0,0,1.33-4,.27.27,0,0,1,.09-.12L48.75,34C48.78,33.78,48.81,33.56,48.82,33.33Z" transform="translate(-1.05 0.01)" style="fill:#7eaaba;fill-rule:evenodd"/><path d="M23.4,43.66a65.37,65.37,0,0,1-8.26-2,29.92,29.92,0,0,1-6.51-2.85c-1.47-.92-3.17-2.33-3.31-4.27C4.89,28.88,6.47,20,9,14.84c1-1.93,3.69-2.5,5.55-2.74a35.84,35.84,0,0,1,6.63-.1,68.23,68.23,0,0,1,7.68.94,67.17,67.17,0,0,1,7.55,1.75,35.61,35.61,0,0,1,6.19,2.37c1.66.85,4,2.32,4.27,4.47.59,5.65-1,14.58-3.32,19.76-.8,1.77-2.88,2.51-4.58,2.87a29.09,29.09,0,0,1-7.1.44A62.87,62.87,0,0,1,23.4,43.66Z" transform="translate(-1.05 0.01)" style="fill:#598291;fill-rule:evenodd"/><path d="M23.64,42.34c-5.65-1-11.18-2.69-14.34-4.67-1.63-1-2.64-2.12-2.72-3.24-.4-5.24,1.07-14,3.5-19,.53-1.06,2.2-1.7,4.54-2a51.74,51.74,0,0,1,14,.83,52.34,52.34,0,0,1,13.41,4c2.1,1.08,3.45,2.25,3.58,3.43a43.47,43.47,0,0,1-3.21,19c-.46,1-1.78,1.71-3.66,2.12C35,43.64,29.27,43.34,23.64,42.34Z" transform="translate(-1.05 0.01)" style="fill:#bdd6de;fill-rule:evenodd"/><path d="M6.9,27.17a41.47,41.47,0,0,1,3.18-11.73c.53-1.06,2.2-1.7,4.54-2a51.74,51.74,0,0,1,14,.83,52.34,52.34,0,0,1,13.41,4c2.1,1.08,3.45,2.25,3.58,3.43a40.73,40.73,0,0,1-1.06,12.1,10.89,10.89,0,0,1-2.41.44c-.33,0-.67.06-1,.07a31.94,31.94,0,0,0,1.66-8.77c0-.56-.35-.72-.88-.92a62,62,0,0,0-8.37-2.51.47.47,0,0,0-.52.25A22.69,22.69,0,0,1,31,26.05c-.91,1-8-.26-8.5-1.5a24.75,24.75,0,0,1-.69-4.19.46.46,0,0,0-.41-.39,60.1,60.1,0,0,0-8.8-.52c-.57,0-1,0-1.16.56A33,33,0,0,0,10,28.83L9,28.4A12.85,12.85,0,0,1,6.9,27.17ZM23.64,42.34c-5.65-1-11.18-2.69-14.34-4.67-1.63-1-2.64-2.12-2.72-3.24V33.8a3.21,3.21,0,0,0,.42.8,6.7,6.7,0,0,0,2.48,2.31c3.18,2,8.7,3.61,14.35,4.6s11.41,1.32,15.06.58A6.7,6.7,0,0,0,42,40.76a3.2,3.2,0,0,0,.67-.6l-.26.57c-.45,1-1.78,1.71-3.66,2.12C35,43.64,29.27,43.34,23.64,42.34Z" transform="translate(-1.05 0.01)" style="fill:#fff;fill-rule:evenodd"/><path d="M20.35,13.3a16.27,16.27,0,0,0,1.32,2.6A23.63,23.63,0,0,0,28,17.75a23.63,23.63,0,0,0,6.55.43c.68-.54,1.49-1.35,2.15-2a7.27,7.27,0,0,1-2,2.72,24,24,0,0,1-6.86-.4,23.34,23.34,0,0,1-6.57-2A10.73,10.73,0,0,1,20.35,13.3Z" transform="translate(-1.05 0.01)" style="fill:#bdd6de;fill-rule:evenodd"/><path d="M20.35,13.3a10.56,10.56,0,0,0,1.06,2.94,25,25,0,0,0,6.49,1.89,24.69,24.69,0,0,0,6.75.44,10.17,10.17,0,0,0,2-2.39l.73.22c-.54.86-1.74,2.59-2.56,2.91a24.7,24.7,0,0,1-7.07-.43,24.89,24.89,0,0,1-6.79-2c-.64-.59-1.19-2.62-1.41-3.61C19.83,13.28,20.08,13.3,20.35,13.3Z" transform="translate(-1.05 0.01)" style="fill:#7eaaba;fill-rule:evenodd"/><path d="M26.27,27.39c1.74.31,4.19.41,4.65-.3a31,31,0,0,0,2-4.89.44.44,0,0,1,.52-.31,53.77,53.77,0,0,1,9.11,2.94c.54.22,1,.42.91,1.14a46,46,0,0,1-3.12,13.92c-.25.58-1.89,1-2.4,1.16a24.84,24.84,0,0,1-6.21.44,57.64,57.64,0,0,1-7.84-.85,58.08,58.08,0,0,1-7.65-1.88,25,25,0,0,1-5.69-2.54c-.42-.28-1.79-1.27-1.84-1.91a46.93,46.93,0,0,1,1.84-14.14c.2-.69.65-.73,1.24-.77a54.63,54.63,0,0,1,9.57.36.44.44,0,0,1,.39.47A31.14,31.14,0,0,0,22,25.52C22.2,26.34,24.55,27.08,26.27,27.39Z" transform="translate(-1.05 0.01)" style="fill:#1e2432;fill-rule:evenodd"/><path d="M42.79,25.48a40.7,40.7,0,0,1-1.17,7.61c-.39,1.45-1.12,1.35-2.7,1.54-6.5.81-21.18-1.78-27-4.77-1.41-.72-2.15-1.3-2-2.37A57.67,57.67,0,0,1,11.4,20c0-.18.28-.25.43-.26a56.17,56.17,0,0,1,9.53.36.14.14,0,0,1,.12.16v1.61a36.37,36.37,0,0,0,.28,3.76c.26,1.19,3.41,1.9,4.49,2.09s4.29.59,4.94-.43a2.91,2.91,0,0,0,.23-.42,30.2,30.2,0,0,0,1.82-4.55.18.18,0,0,1,.18-.11,55.15,55.15,0,0,1,9.07,2.93A.41.41,0,0,1,42.79,25.48ZM9,33.67v.61c0,.47,1.33,1.43,1.72,1.69,5.72,3.73,20.5,6.34,27.15,4.79.46-.1,2-.56,2.2-1l.24-.56a8.14,8.14,0,0,1-1.94.69c-6.83,1.56-21.89-1.1-27.77-4.89A7.26,7.26,0,0,1,9,33.67Z" transform="translate(-1.05 0.01)" style="fill:#2d3956;fill-rule:evenodd"/><path d="M15.24,26.55a13.31,13.31,0,0,0-.69,4.24c0,2.11,3.81,2.81,4.4.78a17.46,17.46,0,0,0,.74-4.24C19.77,25.22,16,24.55,15.24,26.55Zm21.68,3.82a13,13,0,0,1-.74,4.24c-.71,2-4.54,1.34-4.41-.78a19.7,19.7,0,0,1,.78-4.23C33.12,27.56,36.94,28.26,36.92,30.37Z" transform="translate(-1.05 0.01)" style="fill:#82e371;fill-rule:evenodd"/><path d="M28,35.8c-.8,3.54-6.23,2.59-5.77-1A11.59,11.59,0,0,0,28,35.8Z" transform="translate(-1.05 0.01)" style="fill:#82e371;fill-rule:evenodd"/></g><g id="Hand_-_Right" data-name="Hand - Right"><path d="M8.55,42.59a4.82,4.82,0,1,1-4.82,4.82h0A4.82,4.82,0,0,1,8.55,42.59Z" transform="translate(-1.05 0.01)" style="fill:#598291;fill-rule:evenodd"/><path d="M8.55,43.39a4,4,0,1,1-4,4A4,4,0,0,1,8.55,43.39Z" transform="translate(-1.05 0.01)" style="fill:#d3e8ef;fill-rule:evenodd"/><path d="M8.55,43.39a4,4,0,0,1,4,4,4,4,0,0,1-.22,1.34,6.63,6.63,0,0,1-2.42.42c-2.47,0-4.55-1.22-5.22-2.89A4,4,0,0,1,8.55,43.39Z" transform="translate(-1.05 0.01)" style="fill:#fff;fill-rule:evenodd"/><path d="M5,39.33A3.84,3.84,0,0,1,6,37a3.65,3.65,0,0,1,2.14-.65c1.18,0,2.9.45,2.94,1.9.06,3.1,0,6.2,0,9.31a2.78,2.78,0,0,1-.44,1.61c-1.43,2.2-5.83,2.31-8,1.2a1.78,1.78,0,0,1-.87-.82,20,20,0,0,1-.64-3.44,20.42,20.42,0,0,1,0-3.83c.14-.93.41-2.37,1.41-2.68a7.41,7.41,0,0,1,1.74-.27Z" transform="translate(-1.05 0.01)" style="fill:#598291;fill-rule:evenodd"/><path d="M5.55,44.16c-.63-1.64-.67-6,.59-7s4.64-.73,4.69,1c.06,3.11,0,6.2,0,9.32.07,3.4-5.53,3.89-8,2.59a1.55,1.55,0,0,1-.74-.67Z" transform="translate(-1.05 0.01)" style="fill:#598291;fill-rule:evenodd"/><path d="M6.43,44.24c-.84-1.39-.67-5.81.19-6.47s3.46-.51,3.48.49c.07,2.61,0,6.05.05,9.31.06,2.77-5.48,3.12-7.35,1.69Z" transform="translate(-1.05 0.01)" style="fill:#d3e8ef;fill-rule:evenodd"/><path d="M5.86,40.77a4.46,4.46,0,0,1,.72-2.88,3.28,3.28,0,0,1,2.86-.23,18.85,18.85,0,0,1,0,2.91C9.28,41.39,6.93,41.26,5.86,40.77Z" transform="translate(-1.05 0.01)" style="fill:#fff;fill-rule:evenodd"/><path d="M2.6,39.84a6.93,6.93,0,0,1,1.68-.27c1.16,0,4.24.19,4.51,1.7a19.94,19.94,0,0,1,0,6.54c-.29,1.83-4.54,1.78-5.2,1l-.78.46-.7.22a17.87,17.87,0,0,1-.63-3.4,19.89,19.89,0,0,1,0-3.78C1.55,41.5,1.68,40.1,2.6,39.84Z" transform="translate(-1.05 0.01)" style="fill:#598291;fill-rule:evenodd"/><path d="M2.8,40.54c2.12-.61,5.11.05,5.25.85a18.51,18.51,0,0,1,0,6.3c-.15,1-3.77,2-5.25,1.57C1.88,46.25,1.83,40.83,2.8,40.54Z" transform="translate(-1.05 0.01)" style="fill:#d3e8ef;fill-rule:evenodd"/><path d="M2.8,40.54a7.67,7.67,0,0,1,4.35.16,20,20,0,0,1-.06,6.08c-.13.86-2.8,1.73-4.49,1.72C1.88,45.42,1.91,40.81,2.8,40.54Z" transform="translate(-1.05 0.01)" style="fill:#fff;fill-rule:evenodd"/><path d="M1.74,44.58a13.5,13.5,0,0,1,7.08,0l-.17.66a12.94,12.94,0,0,0-6.71,0Z" transform="translate(-1.05 0.01)" style="fill:#598291;fill-rule:evenodd"/></g><g id="Hand_-_Left" data-name="Hand - Left"><path d="M34.88,48.19A3.8,3.8,0,1,1,31.07,52a3.8,3.8,0,0,1,3.81-3.81Z" transform="translate(-1.05 0.01)" style="fill:#598291;fill-rule:evenodd"/><path d="M34.88,48.83A3.17,3.17,0,1,1,31.71,52h0a3.16,3.16,0,0,1,3.13-3.17Z" transform="translate(-1.05 0.01)" style="fill:#d3e8ef;fill-rule:evenodd"/><path d="M34.88,48.83A3.14,3.14,0,0,1,38,52s0,0,0,0a2.32,2.32,0,0,1-.06.64,3.17,3.17,0,0,1-4.81-2.7,3.49,3.49,0,0,1,.06-.65A3.21,3.21,0,0,1,34.88,48.83Z" transform="translate(-1.05 0.01)" style="fill:#fff;fill-rule:evenodd"/><path d="M29.38,53.53c-.59-.09-1.16-.32-1.27-.93A14.18,14.18,0,0,1,28,49.22c0-.75.9-1.06,1.61-1.21a4.29,4.29,0,0,1,2.21-1.35,10.1,10.1,0,0,1,4,.69C37,47.79,37,50.19,37,51.28c0,.94-.19,3-1,3.61-1.35,1.14-6.1,1.25-6.44-.41C29.49,54.17,29.43,53.85,29.38,53.53Z" transform="translate(-1.05 0.01)" style="fill:#598291;fill-rule:evenodd"/><path d="M32,48.74a10.77,10.77,0,0,1,0,3.84c-.18.7-1.23.76-1.81.76s-1.7,0-1.84-.78a14.77,14.77,0,0,1-.16-3.32c0-.73,1.19-1,1.78-1.05S31.79,48,32,48.74Z" transform="translate(-1.05 0.01)" style="fill:#598291;fill-rule:evenodd"/><path d="M31.43,48.89c-.13-.46-2.64,0-2.67.37a14.17,14.17,0,0,0,.16,3.19c.07.4,2.38.42,2.51,0A10.64,10.64,0,0,0,31.43,48.89Z" transform="translate(-1.05 0.01)" style="fill:#d3e8ef;fill-rule:evenodd"/><path d="M35.68,47.59c1.11.38,1.06,2.77,1,3.69s-.19,2.87-.86,3.43a4.9,4.9,0,0,1-2.72.75c-.8,0-3.11,0-3.33-1a20.88,20.88,0,0,1-.32-5.69c.06-.8,1.61-1.71,2.34-1.85A9.91,9.91,0,0,1,35.68,47.59Z" transform="translate(-1.05 0.01)" style="fill:#598291;fill-rule:evenodd"/><path d="M35.46,48.13a8.78,8.78,0,0,0-3.55-.65,3.07,3.07,0,0,0-1.86,1.31,20.12,20.12,0,0,0,.32,5.53c.14.67,4,.89,5.1,0C36.18,53.67,36.55,48.43,35.46,48.13Z" transform="translate(-1.05 0.01)" style="fill:#d3e8ef;fill-rule:evenodd"/><path d="M35.46,48.13A9.78,9.78,0,0,0,32,47.46v6.39a8.07,8.07,0,0,0,3.84-.4C36.26,51.82,36.31,48.37,35.46,48.13Zm-5.16.28a.94.94,0,0,0-.25.37,20.12,20.12,0,0,0,.32,5.53c.14.67,4,.89,5.1-.05a.53.53,0,0,0,.17-.25c-1.18.89-4.92.68-5.05,0a20,20,0,0,1-.32-5.51Z" transform="translate(-1.05 0.01)" style="fill:#fff;fill-rule:evenodd"/><path d="M29.66,51.16a7.86,7.86,0,0,1,2.61-.55c.2,0,.17.63,0,.63a7,7,0,0,0-2.46.52Z" transform="translate(-1.05 0.01)" style="fill:#598291;fill-rule:evenodd"/><path d="M35.83,53.45c-.31-.12-.62-.26-1-.43a.23.23,0,0,1-.1-.19,16.57,16.57,0,0,0,0-3.59.19.19,0,0,1,.11-.19,9.63,9.63,0,0,1,1-.42A.46.46,0,0,1,36,49a9.11,9.11,0,0,0-.86.35,14.7,14.7,0,0,1,0,3.38c.26.12.52.24.8.35A.41.41,0,0,1,35.83,53.45Z" transform="translate(-1.05 0.01)" style="fill:#7eaaba;fill-rule:evenodd"/></g></g></svg>