<svg xmlns="http://www.w3.org/2000/svg" xmlns:xlink="http://www.w3.org/1999/xlink" viewBox="0 0 343.71 248.68"><defs><style>.a{isolation:isolate;}.b{fill:none;}.c{fill:#e2e1e1;}.d{fill:url(#a);}.e{fill:#eb5e37;}.f{fill:#bbe5ed;}.g{fill:#fff;}.h{fill:#f1eeed;}.i{fill:#393434;}.j{mix-blend-mode:multiply;}.k{fill:#d9d5cc;}.l{opacity:0.15;}.m{fill:#5e7377;}.n{fill:#01eed5;}.o{fill:#0790e8;}</style><linearGradient id="a" x1="38.42" y1="178.25" x2="140.59" y2="178.25" gradientUnits="userSpaceOnUse"><stop offset="0" stop-color="#febf30"/><stop offset="1" stop-color="#fcc02e"/></linearGradient></defs><g class="a"><path d="M33,249h21c3.14,0,3.14-5,0-5H33c-3.13,0-3.13,5,0,5Z" transform="translate(0.44 -0.28)"/><path d="M14.19,249h7.2c3.13,0,3.13-5,0-5h-7.2c-3.08,0-3.13,5,0,5Z" transform="translate(0.44 -0.28)"/><path d="M171.47,248.85h9.19c3.14,0,3.14-5,0-5h-9.19c-3.14,0-3.14,5,0,5Z" transform="translate(0.44 -0.28)"/><path d="M136.48,249h11.19c3.14,0,3.14-5,0-5H136.48c-3.14,0-3.14,5,0,5Z" transform="translate(0.44 -0.28)"/><path d="M155.68,248.85h5.62c3.14,0,3.14-5,0-5h-5.62c-3.14,0-3.14,5,0,5Z" transform="translate(0.44 -0.28)"/><line class="b" x1="112.58" y1="199.42" x2="112.58" y2="243.49"/><path d="M109.71,199.7v44.07a2.43,2.43,0,0,0,4.86,0V199.7a2.43,2.43,0,0,0-4.86,0Z" transform="translate(0.44 -0.28)"/><line class="b" x1="67.25" y1="198.08" x2="67.25" y2="245.33"/><path d="M64.38,198.36v47.25a2.44,2.44,0,0,0,4.87,0V198.36c0-3.18-4.87-3.24-4.87,0Z" transform="translate(0.44 -0.28)"/><path class="c" d="M89.86,166.3h-.71a4.35,4.35,0,0,1-4.27-4.41V119.44A4.35,4.35,0,0,1,89.15,115h.71a4.35,4.35,0,0,1,4.27,4.41v42.45A4.39,4.39,0,0,1,89.86,166.3Z" transform="translate(0.44 -0.28)"/><path d="M89.86,163.79c-3,0-2.6-2.52-2.6-4.75V124c0-1.45-.43-3.85.16-5.25,1-2.18,4-1.17,4.33.78a9.2,9.2,0,0,1,0,1.74V157c0,1.84.76,6.53-1.89,6.76-3.09.28-3.14,5.3,0,5,4.7-.39,6.7-4,6.7-8.49V121.17c0-4.24-1.67-8.32-6.38-8.66s-7.73,3.13-7.79,7.77c-.11,8.71,0,17.42,0,26.19V160.1c0,4.86,2.22,8.71,7.47,8.71C92.94,168.81,93,163.79,89.86,163.79Z" transform="translate(0.44 -0.28)"/><path class="d" d="M119.17,210.76H59.79c-11.74,0-21.37-9.94-21.37-22.06V167.81c0-12.12,9.63-22.06,21.37-22.06h59.43c11.74,0,21.37,9.94,21.37,22.06V188.7C140.53,200.87,130.91,210.76,119.17,210.76Z" transform="translate(0.44 -0.28)"/><path d="M119.17,208.25H71c-6.66,0-14.39,1-20.39-2.46a19.94,19.94,0,0,1-9.79-17.15c-.06-4,0-8,0-12.06s-.38-8.1.21-12A19.59,19.59,0,0,1,54.27,149a27.38,27.38,0,0,1,8.49-.84h53a33.32,33.32,0,0,1,7.47.45,19.51,19.51,0,0,1,14.27,14.47c1,4,.55,8.49.55,12.56,0,4.25,0,8.44,0,12.68a20.06,20.06,0,0,1-8.6,16.59,17.65,17.65,0,0,1-10.28,3.3c-3.14.05-3.14,5.08,0,5a23.94,23.94,0,0,0,19.25-10.16c3.47-4.86,4.55-10.5,4.55-16.42V171c0-5.53-.54-10.83-3.36-15.75a24,24,0,0,0-18.17-11.84c-2.32-.22-4.76-.11-7.08-.11H83.85c-7.89,0-15.79-.06-23.63,0-13.31.05-24,11-24.18,24.74,0,4.58,0,9.22,0,13.8,0,4.75-.32,9.66,1.08,14.3A24.71,24.71,0,0,0,52.05,212a30,30,0,0,0,10.44,1.34h56.79C122.31,213.27,122.31,208.25,119.17,208.25Z" transform="translate(0.44 -0.28)"/><path class="e" d="M90.78,165.57h-2.6c-8.49,0-15.47,7.21-15.47,16v1.34h33.53v-1.34C106.24,172.78,99.27,165.57,90.78,165.57Z" transform="translate(0.44 -0.28)"/><path d="M90.78,163.06c-5.3,0-10.06.78-14.23,4.47-4.49,3.91-6.27,9.44-6.27,15.36a2.53,2.53,0,0,0,2.43,2.51h33.53a2.54,2.54,0,0,0,2.44-2.51c0-10.73-7.2-19.55-17.9-19.83-3.14-.06-3.14,5,0,5,8,.22,13,6.87,13,14.8l2.43-2.51H72.71l2.44,2.51c0-4.58,1.24-8.83,4.86-11.84,3.19-2.68,6.82-3,10.77-3C93.91,168.09,93.91,163.06,90.78,163.06Z" transform="translate(0.44 -0.28)"/><path class="f" d="M69.52,229h-2.6c-8.49,0-15.46,7.21-15.46,16v1.34H85V245C85,236.23,78,229,69.52,229Z" transform="translate(0.44 -0.28)"/><path d="M69.52,226.51c-5.3,0-10.06.78-14.22,4.47-4.49,3.91-6.28,9.44-6.28,15.36a2.54,2.54,0,0,0,2.44,2.51H85a2.53,2.53,0,0,0,2.43-2.51c0-10.72-7.19-19.55-17.9-19.83-3.14,0-3.14,5,0,5,8.06.22,13,6.87,13,14.8L85,243.83H51.46l2.43,2.51c0-4.58,1.24-8.83,4.87-11.84,3.19-2.68,6.81-3,10.76-3C72.66,231.54,72.66,226.51,69.52,226.51Z" transform="translate(0.44 -0.28)"/><path class="f" d="M113.44,229h-2.6c-8.49,0-15.47,7.21-15.47,16v1.34H128.9V245C128.9,236.23,121.93,229,113.44,229Z" transform="translate(0.44 -0.28)"/><path d="M113.44,226.51c-5.3,0-10.06.78-14.23,4.47-4.49,3.91-6.27,9.44-6.27,15.36a2.53,2.53,0,0,0,2.43,2.51H128.9a2.54,2.54,0,0,0,2.44-2.51c0-10.72-7.19-19.55-17.9-19.83-3.14,0-3.14,5,0,5,8.06.22,13,6.87,13,14.8l2.43-2.51H95.37l2.44,2.51c0-4.58,1.24-8.83,4.86-11.84,3.2-2.68,6.82-3,10.77-3C116.57,231.54,116.57,226.51,113.44,226.51Z" transform="translate(0.44 -0.28)"/><path d="M91.48,182c.11-2.57.27-5.14.38-7.77.16-3.24-4.71-3.24-4.87,0-.11,2.57-.27,5.14-.38,7.77-.16,3.23,4.71,3.23,4.87,0Z" transform="translate(0.44 -0.28)"/><ellipse class="g" cx="31.45" cy="163.78" rx="7.19" ry="7.43"/><path d="M35.77,164.07c-.32,6.25-9.52,6.36-9.52,0s9.2-6.26,9.52,0c.16,3.24,5,3.24,4.87,0-.27-5.37-4.22-9.95-9.63-9.95A10,10,0,0,0,31,174c5.41,0,9.36-4.53,9.63-9.94C40.8,160.83,35.93,160.83,35.77,164.07Z" transform="translate(0.44 -0.28)"/><path d="M28.58,171.89v35.69a2.44,2.44,0,0,0,4.87,0V171.89a2.44,2.44,0,0,0-4.87,0Z" transform="translate(0.44 -0.28)"/><path class="h" d="M30,82C40.15,60.23,61.73,45.1,86.56,45.1h5c34.51,0,62.74,29.15,62.74,64.79h0c0,11.34-9,20.61-20,20.61H43.78c-11,0-20-9.27-20-20.61h0A66.59,66.59,0,0,1,25,97.49" transform="translate(0.44 -0.28)"/><path d="M32.09,83.19A62.91,62.91,0,0,1,62.11,53c11.36-5.3,24.61-6.48,36.94-4.91,27.26,3.46,49.7,27,52.46,55.24.71,7.09.33,14-4.81,19.38A17.4,17.4,0,0,1,134,128c-4.81.06-9.63,0-14.44,0H45.4a21.2,21.2,0,0,1-7.25-1,18.28,18.28,0,0,1-11.9-15.58,50.21,50.21,0,0,1,1-13.29c.6-3.19-4.11-4.53-4.7-1.34-1.46,8.1-2.44,17,1.67,24.52A22.7,22.7,0,0,0,41.4,132.9c4.59.5,9.41.11,14.06.11h77.93a23,23,0,0,0,23-20.39c.87-7.26-.59-15.3-2.65-22.23a68.09,68.09,0,0,0-9.52-19.71,66.56,66.56,0,0,0-34-25.19,74.42,74.42,0,0,0-39.59-.9,65.93,65.93,0,0,0-37,25.92,64.11,64.11,0,0,0-5.89,10.17c-1.25,2.9,3,5.41,4.32,2.51Z" transform="translate(0.44 -0.28)"/><path d="M80.27,108.44c-3.14,0-3.14,5,0,5s3.14-5,0-5Z" transform="translate(0.44 -0.28)"/><path d="M86.81,108.4c-3.14,0-3.14,5,0,5s3.13-5,0-5Z" transform="translate(0.44 -0.28)"/><path d="M93.81,108.4c-3.14,0-3.14,5,0,5s3.13-5,0-5Z" transform="translate(0.44 -0.28)"/><path d="M100.81,108.4c-3.14,0-3.14,5,0,5s3.13-5,0-5Z" transform="translate(0.44 -0.28)"/><ellipse class="g" cx="111.53" cy="87.54" rx="11.09" ry="11.45"/><path class="i" d="M111.1,92c5.24,0,5.24-8.37,0-8.37s-5.25,8.37,0,8.37Z" transform="translate(0.44 -0.28)"/><ellipse class="g" cx="72.38" cy="87.54" rx="11.09" ry="11.45"/><path class="i" d="M71.94,92c5.25,0,5.25-8.37,0-8.37S66.69,92,71.94,92Z" transform="translate(0.44 -0.28)"/><path d="M24.09,39.23c-2.33-2.34-4.6-4.75-6.92-7.09s-5.68,1.28-3.46,3.57,4.59,4.75,6.92,7.1,5.68-1.29,3.46-3.58Z" transform="translate(0.44 -0.28)"/><path d="M44.7,60.34c-5-5.13-10-10.27-15-15.41C27.5,42.64,24,46.21,26.25,48.5c5,5.14,10,10.28,15,15.42,2.21,2.29,5.67-1.29,3.46-3.58Z" transform="translate(0.44 -0.28)"/><path d="M155.41,41.52c2.32-2.34,4.59-4.75,6.92-7.09s-1.19-5.87-3.46-3.58-4.6,4.75-6.93,7.1,1.25,5.86,3.47,3.57Z" transform="translate(0.44 -0.28)"/><path d="M134.8,62.63c5-5.13,10-10.27,15-15.41,2.22-2.29-1.19-5.87-3.46-3.58-5,5.14-10,10.28-15,15.42-2.22,2.29,1.24,5.86,3.46,3.57Z" transform="translate(0.44 -0.28)"/><path d="M1.92,249c3.13,0,3.13-5,0-5s-3.14,5,0,5Z" transform="translate(0.44 -0.28)"/><path class="g" d="M67.57,53.92a36.6,36.6,0,0,0-15.68,8.44c-2.38,2.12,1,5.8,3.3,3.68a30.79,30.79,0,0,1,13.52-7.2C71.74,58.05,70.6,53.14,67.57,53.92Z" transform="translate(0.44 -0.28)"/><path class="g" d="M45.35,68.89A61.62,61.62,0,0,0,38,77.66c-1.84,2.62,2.16,5.53,4,2.85a59.46,59.46,0,0,1,6.49-7.82C50.75,70.51,47.62,66.66,45.35,68.89Z" transform="translate(0.44 -0.28)"/><g class="j"><path class="k" d="M151.94,108.77a20.1,20.1,0,0,1-5.4,14.24c-3.47,3.58-8.28,5-13.52,5l-14.23,0a18.57,18.57,0,0,0,13.52-5.25,20,20,0,0,0,5.63-13.91c0-32.51-24.77-58.65-55.66-61.1,1.52-.12,3.9-.17,5.47-.17h4.11C124.9,47.5,151.13,76.37,151.94,108.77Z" transform="translate(0.44 -0.28)"/></g><g class="j"><path class="k" d="M138.21,168.48,138.1,188a19.48,19.48,0,0,1-19.74,20.27h-14.5a20.12,20.12,0,0,0,20-20.33v-19.6a19.93,19.93,0,0,0-20-20.11h14.66C129.72,148.09,138.21,157.14,138.21,168.48Z" transform="translate(0.44 -0.28)"/></g><g class="l"><path class="m" d="M126.25,243.77h-6.81c0-3.41-.49-6.48-2.7-8.77a11.72,11.72,0,0,0-6.28-3.41,7.45,7.45,0,0,1,2.22-.22c3.95.45,6.6,1.17,8.92,3.3A14,14,0,0,1,126.25,243.77Z" transform="translate(0.44 -0.28)"/></g><g class="l"><path class="m" d="M82.34,243.77H75.52c0-3.41-.48-6.48-2.7-8.77a11.73,11.73,0,0,0-6.27-3.41,7.39,7.39,0,0,1,2.21-.22c3.95.45,6.6,1.17,8.93,3.3A13.83,13.83,0,0,1,82.34,243.77Z" transform="translate(0.44 -0.28)"/></g><ellipse class="g" cx="148.62" cy="163.75" rx="7.19" ry="7.43"/><path d="M148.12,159.12c6.06.25,6.3,9.74.14,9.83s-6.2-9.46-.14-9.83c3.13-.21,3.06-5.24-.07-5a10,10,0,0,0-9.49,10.08,9.63,9.63,0,1,0,9.49-10.08C144.91,154,145,159,148.12,159.12Z" transform="translate(0.44 -0.28)"/><path d="M155.79,166.43l34.56-.52c3.14,0,3.07-5.08-.07-5l-34.56.53c-3.13.05-3.06,5.07.07,5Z" transform="translate(0.44 -0.28)"/><path class="g" d="M51.29,154.18a12.14,12.14,0,0,0-6.16,11.62c.32,3.57,5.73,3.57,5.41,0A6.65,6.65,0,0,1,54,159C57.14,157.31,54.38,152.5,51.29,154.18Z" transform="translate(0.44 -0.28)"/><path class="g" d="M45.07,174.18v6.7c0,3.57,5.41,3.57,5.41,0v-6.7A2.71,2.71,0,1,0,45.07,174.18Z" transform="translate(0.44 -0.28)"/><path class="g" d="M65.3,235.06c-3.13,0-3.13,5,0,5S68.44,235.06,65.3,235.06Z" transform="translate(0.44 -0.28)"/><path class="g" d="M110.52,234.11c-3.14,0-3.14,5,0,5S113.65,234.11,110.52,234.11Z" transform="translate(0.44 -0.28)"/><path d="M304.37,243.92h0a9.28,9.28,0,0,1-7.09-3.34,4.6,4.6,0,0,0-7.08,0l0,0a9.24,9.24,0,0,1-7.07,3.31h0A9.24,9.24,0,0,1,276,240.6l0,0a4.6,4.6,0,0,0-7.08,0,9.25,9.25,0,0,1-7.09,3.34h0a9.24,9.24,0,0,1-7.07-3.31l0,0a4.6,4.6,0,0,0-7.08,0v0a9.29,9.29,0,0,1-7.08,3.32h0a9.27,9.27,0,0,1-7.09-3.33,4.59,4.59,0,0,0-7.08,0,9.21,9.21,0,0,1-14.16,0l0,0a4.6,4.6,0,0,0-7.08,0,9.2,9.2,0,0,1-14.18,0l-5.31-6.32a2.49,2.49,0,0,1,.23-3.43,2.3,2.3,0,0,1,3.32.24l5.31,6.32a4.6,4.6,0,0,0,7.08,0,9.28,9.28,0,0,1,7.09-3.34h0a9.25,9.25,0,0,1,7.07,3.32l0,0a4.6,4.6,0,0,0,7.08,0,9.28,9.28,0,0,1,7.09-3.34h0a9.27,9.27,0,0,1,7.09,3.34,4.6,4.6,0,0,0,7.08,0v0a9.2,9.2,0,0,1,14.15,0l0,0a4.61,4.61,0,0,0,3.54,1.66h0a4.61,4.61,0,0,0,3.54-1.66,9.2,9.2,0,0,1,14.17,0v0a4.59,4.59,0,0,0,7.08,0l0,0a9.19,9.19,0,0,1,14.16,0,4.59,4.59,0,0,0,7.08,0c2.13-2.52,1.93-7.06,1.93-7.11s0-.09,0-.14v-9.68a2.36,2.36,0,1,1,4.71,0v9.62c0,.81.15,6.66-3.07,10.49A9.28,9.28,0,0,1,304.37,243.92Z" transform="translate(0.44 -0.28)"/><path class="n" d="M182.79,246a2.38,2.38,0,0,1-2.35-2.42v-52a2.43,2.43,0,0,1,1.49-2.26l71.53-29.07a2.35,2.35,0,0,1,.86-.17,2.3,2.3,0,0,1,1.33.42,2.47,2.47,0,0,1,1,2v81a2.39,2.39,0,0,1-2.36,2.42Z" transform="translate(0.44 -0.28)"/><path d="M254.32,162.54v81H182.79v-52l71.53-29.07m0-4.86a4.51,4.51,0,0,0-1.72.34l-71.53,29.07a4.87,4.87,0,0,0-3,4.52v52a4.78,4.78,0,0,0,4.71,4.85h71.53a4.78,4.78,0,0,0,4.71-4.85v-81a4.91,4.91,0,0,0-2.06-4,4.63,4.63,0,0,0-2.65-.84Z" transform="translate(0.44 -0.28)"/><g class="j"><polygon class="k" points="237.22 169.76 237.22 243.28 254.76 243.28 254.76 162.26 237.22 169.76"/></g><path class="o" d="M176.79,246a2.38,2.38,0,0,1-2.35-2.42V228.31a2.39,2.39,0,0,1,2.35-2.43h84a2.4,2.4,0,0,1,2.35,2.43v15.26a2.39,2.39,0,0,1-2.35,2.42Z" transform="translate(0.44 -0.28)"/><path d="M260.78,228.31v15.26h-84V228.31h84m0-4.86h-84a4.79,4.79,0,0,0-4.71,4.86v15.26a4.78,4.78,0,0,0,4.71,4.85h84a4.78,4.78,0,0,0,4.71-4.85V228.31a4.79,4.79,0,0,0-4.71-4.86Z" transform="translate(0.44 -0.28)"/><g class="j"><rect class="k" x="236.76" y="228.03" width="24.46" height="15.25"/></g><polygon class="o" points="230.54 168.7 204.43 179.57 198.22 163.66 224.32 152.79 230.54 168.7"/><path d="M204,182.29a2.24,2.24,0,0,1-.92-.2,2.42,2.42,0,0,1-1.27-1.32l-6.21-15.92a2.45,2.45,0,0,1,1.3-3.16L223,150.82a2.25,2.25,0,0,1,1.8,0,2.39,2.39,0,0,1,1.26,1.33l6.22,15.91a2.46,2.46,0,0,1-1.31,3.16l-26.1,10.88A2.31,2.31,0,0,1,204,182.29Zm-3.16-17,4.46,11.41L227,167.64l-4.45-11.41Z" transform="translate(0.44 -0.28)"/><g class="j"><polygon class="k" points="230.54 168.7 221.88 172.31 215.66 156.39 224.32 152.79 230.54 168.7"/></g><path d="M247.86,182.24H231.25a2.43,2.43,0,0,1,0-4.86h16.61a2.43,2.43,0,0,1,0,4.86Z" transform="translate(0.44 -0.28)"/><path d="M247.86,219.89h-7.38a2.43,2.43,0,0,1,0-4.86h7.38a2.43,2.43,0,0,1,0,4.86Z" transform="translate(0.44 -0.28)"/><path class="h" d="M245.56,246a7.2,7.2,0,1,1,7-7.19A7.08,7.08,0,0,1,245.56,246Z" transform="translate(0.44 -0.28)"/><path d="M245.56,234a4.77,4.77,0,1,1-4.62,4.77,4.7,4.7,0,0,1,4.62-4.77m0-4.86a9.63,9.63,0,1,0,9.32,9.63,9.5,9.5,0,0,0-9.32-9.63Z" transform="translate(0.44 -0.28)"/><polygon class="e" points="224.78 66.23 213.29 66.23 206.1 2.43 231.97 2.43 224.78 66.23"/><path d="M224.34,68.94H212.85a2.39,2.39,0,0,1-2.34-2.15L203.33,3a2.43,2.43,0,0,1,.58-1.89,2.33,2.33,0,0,1,1.76-.82h25.86a2.33,2.33,0,0,1,1.76.82A2.47,2.47,0,0,1,233.86,3l-7.18,63.8A2.38,2.38,0,0,1,224.34,68.94ZM215,64.08h7.3l6.64-58.94H208.31Z" transform="translate(0.44 -0.28)"/><ellipse class="e" cx="219.03" cy="87" rx="12.21" ry="12.61"/><path d="M218.6,102.32a15,15,0,1,1,14.56-15A14.83,14.83,0,0,1,218.6,102.32Zm0-25.22a10.19,10.19,0,1,0,9.86,10.18A10,10,0,0,0,218.6,77.1Z" transform="translate(0.44 -0.28)"/><path class="e" d="M343,197.63a1.28,1.28,0,0,1-1.27.54l-8.08-1.39a1.34,1.34,0,0,1-1.07-1.55,1.32,1.32,0,0,1,1.5-1.11l8.08,1.39a1.34,1.34,0,0,1,1.07,1.55A1.37,1.37,0,0,1,343,197.63Z" transform="translate(0.44 -0.28)"/><path class="e" d="M337.32,183.68a1,1,0,0,1-.16.19l-4.09,4a1.27,1.27,0,0,1-1.84-.05,1.38,1.38,0,0,1,0-1.91l4.09-4a1.28,1.28,0,0,1,1.85.06A1.39,1.39,0,0,1,337.32,183.68Z" transform="translate(0.44 -0.28)"/><path class="e" d="M291.4,191.24a1.29,1.29,0,0,1-.89-.17l-7.66-4.66a1.38,1.38,0,0,1-.46-1.85,1.29,1.29,0,0,1,1.79-.48l7.66,4.67a1.37,1.37,0,0,1,.46,1.85A1.3,1.3,0,0,1,291.4,191.24Z" transform="translate(0.44 -0.28)"/><path class="e" d="M290.69,196l-.18,0-3.85.14a1.35,1.35,0,0,1-.09-2.7l3.85-.14a1.35,1.35,0,0,1,.27,2.68Z" transform="translate(0.44 -0.28)"/><path class="e" d="M292.61,186.92a1.31,1.31,0,0,1-1.39-.73l-2-4a1.37,1.37,0,0,1,.58-1.81,1.29,1.29,0,0,1,1.76.6l2,4a1.37,1.37,0,0,1-.58,1.81A1.63,1.63,0,0,1,292.61,186.92Z" transform="translate(0.44 -0.28)"/><path d="M320.65,191.91a2.17,2.17,0,1,0-4.34,0v6.73h4.34Zm3.26,9H300A1.1,1.1,0,0,0,299,202v2.24a1.1,1.1,0,0,0,1.08,1.12h1.09v2.24a11.14,11.14,0,0,0,8.68,11v6.95h4.34v-6.95a11.14,11.14,0,0,0,8.68-11v-2.24h1.09a1.1,1.1,0,0,0,1.08-1.12V202A1.1,1.1,0,0,0,323.91,200.88Zm-16.28-9a2.17,2.17,0,1,0-4.34,0v6.73h4.34Z" transform="translate(0.44 -0.28)"/></g></svg>