<?xml version="1.0" encoding="UTF-8"?><svg xmlns="http://www.w3.org/2000/svg" viewBox="0 0 64 64"><defs><style>.cls-1{fill:none;}.cls-2,.cls-3{fill:#ff9908;}.cls-4{fill:#fff;}.cls-3{isolation:isolate;opacity:.15;}</style></defs><g id="Layer_2"><rect class="cls-1" width="64" height="64"/></g><g id="Layer_1"><g id="Document"><path class="cls-3" d="M42.52,13.11c-1.46,0-2.85-.58-3.88-1.61-1.03-1.03-1.61-2.42-1.61-3.88V0H12.5C10.6,0,8.78.75,7.44,2.1c-1.35,1.34-2.1,3.16-2.1,5.06v43.18c0,1.9.76,3.72,2.1,5.06,1.34,1.34,3.16,2.09,5.06,2.09h29.44c.94,0,1.87-.18,2.74-.54.87-.36,1.66-.89,2.32-1.55s1.19-1.45,1.55-2.32.55-1.8.55-2.74V13.1h-6.59.01Z"/><path class="cls-2" d="M49.11,13.11h-6.59c-1.46,0-2.85-.58-3.88-1.61-1.03-1.03-1.61-2.42-1.61-3.88V0s12.08,13.11,12.08,13.11Z"/><path class="cls-2" d="M54.36,45.5H21.04c-2.36,0-4.28,1.92-4.28,4.28v9.94c0,2.36,1.92,4.28,4.28,4.28h33.33c2.36,0,4.28-1.92,4.28-4.28v-9.94c0-2.36-1.92-4.28-4.28-4.28h-.01Z"/></g><g id="File"><path class="cls-2" d="M35.82,33.17h-.53c0-2.13-.85-4.18-2.36-5.69s-3.55-2.36-5.69-2.36-4.18.85-5.69,2.36-2.36,3.55-2.36,5.69h-.53c0-2.27.91-4.45,2.51-6.06,1.61-1.61,3.79-2.51,6.06-2.51s4.45.91,6.06,2.51c1.61,1.61,2.51,3.79,2.51,6.06h.02Z"/><path class="cls-2" d="M39.43,24.6H15.06v.53h24.37v-.53Z"/><path class="cls-2" d="M19.35,32.33h-.84c-.23,0-.42.19-.42.42v.84c0,.23.19.42.42.42h.84c.23,0,.42-.19.42-.42v-.84c0-.23-.19-.42-.42-.42Z"/><path class="cls-2" d="M35.97,32.33h-.84c-.23,0-.42.19-.42.42v.84c0,.23.19.42.42.42h.84c.23,0,.42-.19.42-.42v-.84c0-.23-.19-.42-.42-.42Z"/><path class="cls-2" d="M27.66,23.99h-.84c-.23,0-.42.19-.42.42v.84c0,.23.19.42.42.42h.84c.23,0,.42-.19.42-.42v-.84c0-.23-.19-.42-.42-.42Z"/><path class="cls-2" d="M15.04,25.68c.47,0,.84-.38.84-.84s-.38-.84-.84-.84-.84.38-.84.84.38.84.84.84Z"/><path class="cls-2" d="M39.35,25.68c.47,0,.84-.38.84-.84s-.38-.84-.84-.84-.84.38-.84.84.38.84.84.84Z"/><path class="cls-4" d="M27.69,59.6c-.77,0-1.38-.16-1.81-.47s-.7-.79-.81-1.44c-.02-.2.02-.35.12-.45s.24-.15.43-.15.33.05.41.14c.09.09.15.23.18.42.07.31.21.53.43.64.23.11.57.17,1.03.17h1.95c.58,0,.98-.1,1.19-.31.21-.21.32-.61.32-1.18s-.11-.98-.33-1.19c-.22-.22-.61-.33-1.18-.33h-1.68c-.85,0-1.49-.21-1.9-.62-.41-.42-.62-1.06-.62-1.91s.2-1.48.61-1.89,1.04-.62,1.9-.62h1.61c.72,0,1.28.15,1.69.44.41.29.67.74.78,1.35.03.19,0,.34-.11.45-.1.1-.25.15-.45.15-.18,0-.32-.05-.41-.14s-.15-.23-.18-.41c-.07-.27-.21-.45-.41-.54-.2-.1-.51-.15-.91-.15h-1.61c-.54,0-.91.1-1.09.29-.19.19-.28.55-.28,1.08s.09.9.28,1.1.56.3,1.1.3h1.68c.89,0,1.55.22,1.99.65s.66,1.1.66,2.01-.22,1.56-.65,1.99c-.43.42-1.1.64-1.99.64h-1.95v-.02Z"/><path class="cls-4" d="M37.68,59.6c-.23,0-.42-.15-.56-.45l-3.35-7.93c-.07-.16-.09-.3-.05-.42.03-.13.14-.23.31-.31.37-.19.63-.09.79.28l3.16,7.5h-.39l3.08-7.5c.15-.37.41-.47.79-.28.16.08.26.19.29.31.04.12.03.26-.03.42l-3.37,7.93c-.14.3-.34.45-.61.45h-.06Z"/><path class="cls-4" d="M45.94,59.6c-1.03,0-1.8-.25-2.3-.74-.49-.5-.74-1.26-.74-2.3v-3.12c0-1.04.25-1.81.74-2.3.49-.5,1.25-.74,2.28-.73h1.64c.85,0,1.5.18,1.95.53s.71.9.78,1.65c.03.19,0,.33-.11.43s-.24.15-.43.15c-.34,0-.54-.19-.6-.57-.05-.42-.19-.7-.43-.84s-.62-.22-1.15-.22h-1.64c-.48,0-.86.05-1.13.16s-.47.31-.58.59-.17.66-.17,1.15v3.12c0,.48.06.86.17,1.14.12.28.31.47.59.59.28.11.66.17,1.14.17h1.63c.42,0,.75-.05.98-.14.24-.09.41-.26.5-.49s.14-.57.14-1v-.64h-1.06c-.38,0-.57-.2-.57-.58s.19-.57.57-.57h1.63c.38,0,.57.2.57.58v1.21c0,.96-.22,1.66-.67,2.11-.45.44-1.15.66-2.09.66h-1.64Z"/></g></g></svg>