<?xml version="1.0" encoding="UTF-8"?><svg xmlns="http://www.w3.org/2000/svg" viewBox="0 0 64 64"><defs><style>.cls-1{fill:none;}.cls-2,.cls-3{fill:#a140ff;}.cls-4{fill:#fff;}.cls-3{isolation:isolate;opacity:.15;}</style></defs><g id="Layer_2"><rect class="cls-1" width="64" height="64"/></g><g id="Layer_1"><g id="Document"><path class="cls-3" d="M42.52,13.11c-1.46,0-2.85-.58-3.88-1.61-1.03-1.03-1.61-2.42-1.61-3.88V0H12.5C10.6,0,8.78.75,7.44,2.1c-1.35,1.34-2.1,3.16-2.1,5.06v43.18c0,1.9.76,3.72,2.1,5.06,1.34,1.34,3.16,2.09,5.06,2.09h29.44c.94,0,1.87-.18,2.74-.54.87-.36,1.66-.89,2.32-1.55s1.19-1.45,1.55-2.32.55-1.8.55-2.74V13.1h-6.59.01Z"/><path class="cls-2" d="M49.11,13.11h-6.59c-1.46,0-2.85-.58-3.88-1.61-1.03-1.03-1.61-2.42-1.61-3.88V0s12.08,13.11,12.08,13.11Z"/><path class="cls-2" d="M54.36,45.5H21.04c-2.36,0-4.28,1.92-4.28,4.28v9.94c0,2.36,1.92,4.28,4.28,4.28h33.33c2.36,0,4.28-1.92,4.28-4.28v-9.94c0-2.36-1.92-4.28-4.28-4.28h-.01Z"/></g><g id="File"><path class="cls-2" d="M34.67,42h-14.96c-1.46,0-2.87-.58-3.9-1.62-1.04-1.04-1.62-2.44-1.62-3.9v-14.96c0-1.46.58-2.87,1.62-3.9,1.04-1.04,2.44-1.62,3.9-1.62h14.96c1.46,0,2.87.59,3.9,1.62s1.62,2.44,1.62,3.9v14.96c0,1.46-.58,2.87-1.62,3.9-1.03,1.04-2.44,1.62-3.9,1.62ZM19.72,18.44c-.82,0-1.6.33-2.18.9s-.9,1.36-.9,2.18v14.96c0,.82.33,1.6.9,2.18s1.36.9,2.18.9h14.96c.82,0,1.6-.33,2.18-.9.58-.58.9-1.36.9-2.18v-14.96c0-.82-.33-1.6-.9-2.18-.58-.58-1.36-.9-2.18-.9h-14.96Z"/><path class="cls-2" d="M38.98,33.63v2.84c0,1.14-.45,2.23-1.26,3.04-.81.81-1.9,1.26-3.04,1.26h-14.96c-1.14,0-2.23-.45-3.04-1.26-.81-.81-1.26-1.9-1.26-3.04v-4.77c2.39-.51,6.04-.68,10.47,1.09l2.74-2.61,1.87,4.74s.5-1.74,2.12-1.5,4.24,1.12,5.36.38c.3-.17.66-.23,1-.17h0Z"/><path class="cls-2" d="M33.74,24.58c.92,0,1.66-.74,1.66-1.66s-.74-1.66-1.66-1.66-1.66.74-1.66,1.66.74,1.66,1.66,1.66h0Z"/><path class="cls-4" d="M28.03,59.6c-.19,0-.33-.05-.43-.14s-.14-.24-.14-.43v-7.48h-2.63c-.19,0-.33-.05-.43-.14s-.14-.24-.14-.43.05-.33.14-.43.24-.14.43-.14h6.4c.19,0,.33.05.43.14s.14.24.14.43-.05.33-.14.43-.24.14-.43.14h-2.63v7.48c0,.18-.05.32-.15.42-.09.1-.24.15-.42.15h0Z"/><path class="cls-4" d="M34.18,59.6c-.19,0-.34-.05-.43-.14s-.14-.24-.14-.43v-8.05c0-.2.05-.34.14-.43s.24-.14.43-.14.34.05.43.14.14.24.14.43v8.05c0,.19-.05.34-.14.43s-.24.14-.43.14Z"/><path class="cls-4" d="M38.14,59.6c-.38,0-.57-.19-.57-.57v-8.06c0-.38.19-.57.57-.57h4.99c.18,0,.31.05.41.16.1.1.16.24.16.41,0,.38-.19.57-.57.57h-4.42v2.85h2.73c.38,0,.57.19.57.57s-.19.57-.57.57h-2.73v3.5c0,.38-.19.57-.57.57Z"/><path class="cls-4" d="M45.68,59.6c-.38,0-.57-.19-.57-.57v-8.06c0-.38.19-.57.57-.57h4.99c.18,0,.31.05.41.16.1.1.16.24.16.41,0,.38-.19.57-.57.57h-4.42v2.85h2.73c.38,0,.57.19.57.57s-.19.57-.57.57h-2.73v3.5c0,.38-.19.57-.57.57Z"/></g></g></svg>