<svg xmlns="http://www.w3.org/2000/svg" xmlns:xlink="http://www.w3.org/1999/xlink" viewBox="0 0 64 64"><defs><style>.a{fill:url(#a);}</style><linearGradient id="a" x1="32" y1="64" x2="32" gradientUnits="userSpaceOnUse"><stop offset="0" stop-color="#387fff"/><stop offset="1" stop-color="#52a0ff"/></linearGradient></defs><title>Zoom icon - Uncanny Automator</title><path class="a" d="M43.06,0H20.94A21,21,0,0,0,0,20.94V43.06A21,21,0,0,0,20.94,64H43.06A21,21,0,0,0,64,43.06V20.94A21,21,0,0,0,43.06,0ZM40.71,40.78A2.26,2.26,0,0,1,38.46,43H19.35a6.78,6.78,0,0,1-6.75-6.76V23.16a2.25,2.25,0,0,1,2.25-2.25H34a6.77,6.77,0,0,1,6.75,6.75Zm10.81-.28c0,1.73-1.71,2.73-2.93,1.72l-5.51-4.51A2.22,2.22,0,0,1,42.3,36v-8a2.22,2.22,0,0,1,.78-1.72l5.51-4.51c1.22-1,2.93,0,2.93,1.72Z"/></svg>