<svg xmlns="http://www.w3.org/2000/svg" viewBox="0 0 64 64"><defs><style>.a{fill:#d0262d;}</style></defs><title>Twilio icon - Uncanny Automator</title><path class="a" d="M32,55.57A23.57,23.57,0,1,1,55.57,32,23.57,23.57,0,0,1,32,55.57ZM32,0A32,32,0,1,0,64,32,32,32,0,0,0,32,0Z"/><path class="a" d="M33.32,24A6.65,6.65,0,1,1,40,30.68,6.65,6.65,0,0,1,33.32,24m0,15.94A6.65,6.65,0,1,1,40,46.62,6.64,6.64,0,0,1,33.32,40M17.38,40A6.65,6.65,0,1,1,24,46.62,6.65,6.65,0,0,1,17.38,40m0-15.94A6.65,6.65,0,1,1,24,30.68,6.65,6.65,0,0,1,17.38,24"/></svg>