<?xml version="1.0" encoding="utf-8"?><svg xmlns="http://www.w3.org/2000/svg" viewBox="0 0 64 64"><defs><style>.cls-1{fill:none;}.cls-2{fill:#428bca;fill-rule:evenodd;}</style></defs><title>WP Simple Pay icon - Uncanny Automator</title><g id="Layer_1" data-name="Layer 1"><rect class="cls-1" width="64" height="64"/></g><g id="Layer_2" data-name="Layer 2"><g id="Logo-Mark"><path class="cls-2" d="M43.62,39.08V35.42a8.26,8.26,0,0,1,16.51,0v3.66h2.31A1.55,1.55,0,0,1,64,40.65V54.24a1.58,1.58,0,0,1-1.57,1.57H41.31a1.58,1.58,0,0,1-1.58-1.57V40.65a1.57,1.57,0,0,1,1.58-1.57ZM60.85,52.66V42.2h-18V52.66ZM55.44,8.19a4.4,4.4,0,0,1,4.4,4.39V23.89a1.57,1.57,0,0,1-3.14,0V20.75H3.15V44.62a1.26,1.26,0,0,0,1.26,1.26H34.77a1.57,1.57,0,1,1,0,3.13H4.41A4.41,4.41,0,0,1,0,44.62v-32A4.41,4.41,0,0,1,4.41,8.19ZM18.57,36.45a1.57,1.57,0,1,1,0,3.14H11a1.57,1.57,0,0,1,0-3.14ZM57,39.06V35.4a5.12,5.12,0,0,0-10.23,0v3.66ZM29.92,30.83a1.57,1.57,0,0,1,0,3.14H11a1.57,1.57,0,0,1,0-3.14Zm-.19-5.69a1.57,1.57,0,1,1,0,3.14H10.83a1.56,1.56,0,0,1-1.57-1.57,1.58,1.58,0,0,1,1.57-1.57Zm27-7.52v-5a1.26,1.26,0,0,0-1.26-1.25h-51a1.27,1.27,0,0,0-1.28,1.25v5Z"/></g></g></svg>