<?xml version="1.0" encoding="UTF-8"?><svg xmlns="http://www.w3.org/2000/svg" xmlns:xlink="http://www.w3.org/1999/xlink" viewBox="0 0 64 64"><defs><mask id="c" x="0" y="9.74" width="64.51" height="44.7" maskUnits="userSpaceOnUse"><g id="d"><path d="m0,9.74h64.51v44.7H0V9.74Z" style="fill:#fff;"/><path d="m4.85,12.28c-1.28,0-2.31,1-2.31,2.24v30.21c0,1.24,1.03,2.24,2.31,2.24h28.31c.96,0,1.73-.75,1.73-1.68s-.78-1.68-1.73-1.68H7.74c-.96,0-1.73-.75-1.73-1.68v-16.78c0-.93.78-1.68,1.73-1.68h43.32c1.28,0,2.31-1,2.31-2.24v-6.71c0-1.24-1.03-2.24-2.31-2.24H4.85Zm54.3,23.78h-1.44v-1.96c0-4.02-3.36-7.27-7.51-7.27s-7.51,3.26-7.51,7.27v1.96h-2.02c-1.28,0-2.31,1-2.31,2.24v11.19c0,1.24,1.03,2.24,2.31,2.24h18.48c1.28,0,2.31-1,2.31-2.24v-11.19c0-1.24-1.03-2.24-2.31-2.24Zm-4.91-1.96v1.96h-8.09v-1.96c0-2.16,1.81-3.92,4.04-3.92s4.04,1.75,4.04,3.92Zm-43.61-1.68c0-.62.52-1.12,1.16-1.12h18.48c.64,0,1.16.5,1.16,1.12s-.52,1.12-1.16,1.12H11.78c-.64,0-1.16-.5-1.16-1.12Zm0,5.03c0-.62.52-1.12,1.16-1.12h6.93c.64,0,1.16.5,1.16,1.12s-.52,1.12-1.16,1.12h-6.93c-.64,0-1.16-.5-1.16-1.12Zm30.62,11.47v-10.07h17.33v10.07s-17.33,0-17.33,0Z" style="fill-rule:evenodd;"/></g></mask></defs><title>WP Simple Pay icon - Uncanny Automator</title><g id="a"><rect width="64" height="64" style="fill:none;"/></g><g id="b"><path d="m4.85,12.28c-1.28,0-2.31,1-2.31,2.24v30.21c0,1.24,1.03,2.24,2.31,2.24h28.31c.96,0,1.73-.75,1.73-1.68s-.78-1.68-1.73-1.68H7.74c-.96,0-1.73-.75-1.73-1.68v-16.78c0-.93.78-1.68,1.73-1.68h43.32c1.28,0,2.31-1,2.31-2.24v-6.71c0-1.24-1.03-2.24-2.31-2.24H4.85Zm54.3,23.78h-1.44v-1.96c0-4.02-3.36-7.27-7.51-7.27s-7.51,3.26-7.51,7.27v1.96h-2.02c-1.28,0-2.31,1-2.31,2.24v11.19c0,1.24,1.03,2.24,2.31,2.24h18.48c1.28,0,2.31-1,2.31-2.24v-11.19c0-1.24-1.03-2.24-2.31-2.24Zm-4.91-1.96v1.96h-8.09v-1.96c0-2.16,1.81-3.92,4.04-3.92s4.04,1.75,4.04,3.92Zm-43.61-1.68c0-.62.52-1.12,1.16-1.12h18.48c.64,0,1.16.5,1.16,1.12s-.52,1.12-1.16,1.12H11.78c-.64,0-1.16-.5-1.16-1.12Zm0,5.03c0-.62.52-1.12,1.16-1.12h6.93c.64,0,1.16.5,1.16,1.12s-.52,1.12-1.16,1.12h-6.93c-.64,0-1.16-.5-1.16-1.12Zm30.62,11.47v-10.07h17.33v10.07s-17.33,0-17.33,0Z" style="fill:#428bca; fill-rule:evenodd;"/><g style="mask:url(#c);"><path d="m57.71,36.06h-2.54v2.54h2.54v-2.54Zm-15.02,0v2.54h2.54v-2.54h-2.54Zm11.55,0v2.54h2.54v-2.54h-2.54Zm-8.09,0h-2.54v2.54h2.54v-2.54Zm-34.37-4.76v-2.54,2.54Zm18.48,0v2.54-2.54Zm0,2.24v2.54-2.54Zm-18.48,0v-2.54,2.54Zm29.46,5.31v-2.54h-2.54v2.54h2.54Zm0,10.07h-2.54v2.54h2.54v-2.54Zm17.33-10.07h2.54v-2.54h-2.54v2.54Zm0,10.07v2.54h2.54v-2.54h-2.54ZM5.08,14.52c0,.11-.05.2-.1.24-.04.04-.1.06-.13.06v-5.08c-2.6,0-4.85,2.06-4.85,4.78h5.08Zm0,6.71v-6.71H0v6.71h5.08Zm0,23.5v-23.5H0v23.5h5.08Zm-.23-.3s.09.02.13.06c.05.04.1.13.1.24H0C0,47.44,2.25,49.5,4.85,49.5v-5.08Zm.58,0h-.58v5.08h.58v-5.08Zm27.15,0H5.43v5.08h27.15v-5.08Zm.58,0h-.58v5.08h.58v-5.08Zm-.81.86c0-.55.44-.86.81-.86v5.08c2.28,0,4.27-1.81,4.27-4.22h-5.08Zm.81.86c-.37,0-.81-.31-.81-.86h5.08c0-2.41-1.99-4.22-4.27-4.22v5.08Zm-25.42,0h25.42v-5.08H7.74s0,5.08,0,5.08Zm-4.27-4.22c0,2.41,1.99,4.22,4.27,4.22v-5.08c.37,0,.81.31.81.86H3.47Zm0-16.78v16.78h5.08v-16.78H3.47Zm4.27-4.22c-2.28,0-4.27,1.81-4.27,4.22h5.08c0,.55-.44.86-.81.86v-5.08Zm43.32,0H7.74v5.08h43.32v-5.08Zm-.23.3c0-.11.05-.2.1-.24.04-.04.1-.06.13-.06v5.08c2.6,0,4.85-2.06,4.85-4.78h-5.08Zm0-6.71v6.71h5.08v-6.71s-5.08,0-5.08,0Zm.23.3s-.09-.02-.13-.06c-.05-.04-.1-.13-.1-.24h5.08c0-2.71-2.25-4.78-4.85-4.78,0,0,0,5.08,0,5.08Zm-46.21,0h46.21v-5.08H4.85s0,5.08,0,5.08Zm52.86,23.78h1.44v-5.08h-1.44v5.08Zm-2.54-4.5v1.96h5.08v-1.96h-5.08Zm-4.97-4.73c2.82,0,4.97,2.2,4.97,4.73h5.08c0-5.5-4.58-9.81-10.05-9.81v5.08Zm-4.97,4.73c0-2.54,2.15-4.73,4.97-4.73v-5.08c-5.47,0-10.05,4.32-10.05,9.81h5.08Zm0,1.96v-1.96h-5.08v1.96h5.08Zm-4.56,2.54h2.02v-5.08h-2.02v5.08Zm.23-.3c0,.11-.05.2-.1.24-.04.04-.1.06-.13.06v-5.08c-2.6,0-4.85,2.06-4.85,4.78h5.08Zm0,11.19v-11.19h-5.08v11.19h5.08Zm-.23-.3s.09.02.13.06c.05.04.1.13.1.24h-5.08c0,2.71,2.25,4.78,4.85,4.78,0,0,0-5.08,0-5.08Zm18.48,0h-18.48v5.08h18.48v-5.08Zm-.23.3c0-.11.05-.2.1-.24.04-.04.1-.06.13-.06v5.08c2.6,0,4.85-2.06,4.85-4.78h-5.08Zm0-11.19v11.19h5.08v-11.19h-5.08Zm.23.3s-.09-.02-.13-.06c-.05-.04-.1-.13-.1-.24h5.08c0-2.71-2.25-4.78-4.85-4.78v5.08Zm-2.37-2.54v-1.96h-5.08v1.96h5.08Zm-10.63,2.54h8.09v-5.08h-8.09v5.08Zm-2.54-4.5v1.96h5.08v-1.96h-5.08Zm6.58-6.46c-3.56,0-6.58,2.81-6.58,6.46h5.08c0-.68.6-1.38,1.5-1.38v-5.08Zm6.58,6.46c0-3.64-3.02-6.46-6.58-6.46v5.08c.91,0,1.5.69,1.5,1.38h5.08Zm-45-5.34c-1.96,0-3.69,1.56-3.69,3.66h5.08c0,.86-.7,1.42-1.38,1.42v-5.08Zm18.48,0H11.78v5.08h18.48v-5.08Zm3.69,3.66c0-2.1-1.73-3.66-3.69-3.66v5.08c-.69,0-1.38-.56-1.38-1.42h5.08Zm-3.69,3.66c1.96,0,3.69-1.56,3.69-3.66h-5.08c0-.86.7-1.42,1.38-1.42v5.08Zm-18.48,0h18.48v-5.08H11.78s0,5.08,0,5.08Zm-3.69-3.66c0,2.1,1.73,3.66,3.69,3.66v-5.08c.69,0,1.38.56,1.38,1.42h-5.08Zm3.69,1.38c-1.96,0-3.69,1.56-3.69,3.66h5.08c0,.86-.7,1.42-1.38,1.42v-5.08Zm6.93,0h-6.93v5.08h6.93v-5.08Zm3.69,3.66c0-2.1-1.73-3.66-3.69-3.66v5.08c-.69,0-1.38-.56-1.38-1.42h5.08Zm-3.69,3.66c1.96,0,3.69-1.56,3.69-3.66h-5.08c0-.86.7-1.42,1.38-1.42v5.08Zm-6.93,0h6.93v-5.08h-6.93v5.08Zm-3.69-3.66c0,2.1,1.73,3.66,3.69,3.66v-5.08c.69,0,1.38.56,1.38,1.42h-5.08Zm30.62,1.4v10.07h5.08v-10.07s-5.08,0-5.08,0Zm19.87-2.54h-17.33v5.08h17.33v-5.08h0Zm2.54,12.61v-10.07h-5.08v10.07h5.08Zm-19.87,2.54h17.33v-5.08h-17.33s0,5.08,0,5.08Z" style="fill:#fff;"/></g></g></svg>