<svg xmlns="http://www.w3.org/2000/svg" viewBox="0 0 64 64"><defs><style>.a{fill:#e55b10;}.a,.b{fill-rule:evenodd;}.b{fill:#fff;}</style></defs><title>WP Fusion icon - Uncanny Automator</title><path class="a" d="M13.47,0H64V50.53A13.47,13.47,0,0,1,50.53,64H0V13.47A13.47,13.47,0,0,1,13.47,0Z" transform="translate(0 0)"/><path class="b" d="M29.47,27.79V48A2.52,2.52,0,0,1,27,50.53H25.26A2.52,2.52,0,0,1,22.74,48V24.42A2.53,2.53,0,0,1,24,22.26a2.53,2.53,0,0,1,2.16-1.21H49.68a2.53,2.53,0,0,1,2.53,2.53v1.68a2.53,2.53,0,0,1-2.53,2.53Z" transform="translate(0 0)"/><path class="b" d="M36.21,35.37V15.16a2.53,2.53,0,0,1,2.53-2.53h1.68A2.53,2.53,0,0,1,43,15.16V38.74a2.52,2.52,0,0,1-1.21,2.15,2.54,2.54,0,0,1-2.16,1.22H16a2.53,2.53,0,0,1-2.53-2.53V37.89A2.52,2.52,0,0,1,16,35.37Z" transform="translate(0 0)"/></svg>