<?xml version="1.0" encoding="UTF-8"?><svg xmlns="http://www.w3.org/2000/svg" xmlns:xlink="http://www.w3.org/1999/xlink" viewBox="0 0 64 64"><title>Microsoft Teams icon - Uncanny Automator</title><defs><linearGradient id="c" x1="5.69" y1="-1997.84" x2="27.06" y2="-1960.83" gradientTransform="translate(0 2011.33)" gradientUnits="userSpaceOnUse"><stop offset="0" stop-color="#5a62c3"/><stop offset=".5" stop-color="#4d55bd"/><stop offset="1" stop-color="#3940ab"/></linearGradient></defs><g id="a"><rect width="64" height="64" style="fill:none;"/></g><g id="b"><path d="M44.64,24.56h16.53c1.56,0,2.83,1.27,2.83,2.83h0v15.06c0,5.74-4.65,10.39-10.39,10.39h-.05c-5.74,0-10.39-4.65-10.39-10.39h0V26.04c0-.82,.66-1.48,1.48-1.48h0Z" style="fill:#5059c9;"/><circle cx="55.81" cy="14.88" r="6.7" style="fill:#5059c9;"/><circle cx="34.98" cy="11.91" r="9.67" style="fill:#7b83eb;"/><path d="M47.88,24.56H20.59c-1.54,.04-2.76,1.32-2.73,2.86v17.17c-.22,9.26,7.11,16.95,16.37,17.17,9.26-.23,16.59-7.91,16.37-17.17V27.42c.04-1.54-1.18-2.82-2.73-2.86Z" style="fill:#7b83eb;"/><path d="M35.72,24.56v24.07c0,1.1-.68,2.1-1.7,2.52-.32,.14-.67,.21-1.03,.21h-13.83c-.19-.49-.37-.98-.52-1.49-.52-1.71-.79-3.48-.79-5.27V27.42c-.04-1.54,1.18-2.82,2.72-2.86h15.14Z" style="isolation:isolate; opacity:.1;"/><path d="M34.23,24.56v25.56c0,.35-.07,.7-.21,1.03-.42,1.02-1.41,1.69-2.52,1.7h-11.64c-.25-.49-.49-.98-.7-1.49s-.37-.98-.52-1.49c-.52-1.71-.79-3.48-.79-5.27V27.42c-.04-1.54,1.18-2.82,2.72-2.86h13.65Z" style="isolation:isolate; opacity:.2;"/><path d="M34.23,24.56v22.58c-.01,1.5-1.22,2.71-2.72,2.72h-12.86c-.52-1.71-.79-3.48-.79-5.27V27.42c-.04-1.54,1.18-2.82,2.72-2.86h13.65Z" style="isolation:isolate; opacity:.2;"/><path d="M32.74,24.56v22.58c-.01,1.5-1.22,2.71-2.72,2.72h-11.37c-.52-1.71-.79-3.48-.79-5.27V27.42c-.04-1.54,1.18-2.82,2.72-2.86h12.16Z" style="isolation:isolate; opacity:.2;"/><path d="M35.72,16.86v4.69c-.25,.01-.49,.03-.74,.03s-.49-.01-.74-.03c-.5-.03-1-.11-1.49-.24-3.01-.71-5.5-2.83-6.7-5.69-.21-.48-.36-.98-.48-1.49h7.43c1.5,0,2.72,1.22,2.72,2.72Z" style="isolation:isolate; opacity:.1;"/><path d="M34.23,18.35v3.2c-.5-.03-1-.11-1.49-.24-3.01-.71-5.5-2.83-6.7-5.69h5.46c1.5,0,2.72,1.22,2.72,2.72Z" style="isolation:isolate; opacity:.2;"/><path d="M34.23,18.35v3.2c-.5-.03-1-.11-1.49-.24-3.01-.71-5.5-2.83-6.7-5.69h5.46c1.5,0,2.72,1.22,2.72,2.72Z" style="isolation:isolate; opacity:.2;"/><path d="M32.74,18.35v2.96c-3.01-.71-5.5-2.83-6.7-5.69h3.97c1.5,0,2.72,1.22,2.72,2.72Z" style="isolation:isolate; opacity:.2;"/><path d="M2.73,15.63H30.02c1.51,0,2.73,1.22,2.73,2.73v27.29c0,1.51-1.22,2.73-2.73,2.73H2.73c-1.51,0-2.73-1.22-2.73-2.73V18.36c0-1.51,1.22-2.73,2.73-2.73Z" style="fill:url(#c);"/><path d="M23.55,26.01h-5.45v14.85h-3.48v-14.85h-5.43v-2.88h14.36v2.88Z" style="fill:#fff;"/></g></svg>