<svg xmlns="http://www.w3.org/2000/svg" viewBox="0 0 57.64 64.04"><defs><style>.a{fill:#992977;}</style></defs><title>GoToTraining icon - Uncanny Automator</title><path class="a" d="M53.63,36.59a8.41,8.41,0,0,0-9.23.33,1.69,1.69,0,0,1-1.82.09l-8.37-4.83a.21.21,0,0,1-.07-.29h0a.23.23,0,0,1,.07-.07L42.53,27a1.69,1.69,0,0,1,1.83.1,8.41,8.41,0,0,0,9.25.36,8.51,8.51,0,0,0,3.06-11.21A8.42,8.42,0,0,0,40.88,21a1.7,1.7,0,0,1-.83,1.61l-8.36,4.83a.2.2,0,0,1-.28-.06v0a.17.17,0,0,1,0-.1V17.6a1.67,1.67,0,0,1,1-1.53,8.42,8.42,0,1,0-7,0,1.69,1.69,0,0,1,1,1.53v9.66a.21.21,0,0,1-.21.21h0a.17.17,0,0,1-.1,0l-8.36-4.83A1.68,1.68,0,0,1,16.83,21a8.4,8.4,0,1,0-3.48,6.12,1.69,1.69,0,0,1,1.83-.1l8.32,4.8a.21.21,0,0,1,.07.29h0a.23.23,0,0,1-.07.07L15.11,37a1.69,1.69,0,0,1-1.82-.09,8.41,8.41,0,0,0-9.23-.33,8.51,8.51,0,0,0-3,11.2A8.43,8.43,0,0,0,16.83,43a1.67,1.67,0,0,1,.83-1.62L26,36.55a.21.21,0,0,1,.29.08h0a.17.17,0,0,1,0,.1V46.4a1.71,1.71,0,0,1-1,1.53,8.43,8.43,0,1,0,7,0,1.67,1.67,0,0,1-1-1.53V36.74a.23.23,0,0,1,.21-.21h.11L40,41.36A1.68,1.68,0,0,1,40.88,43a8.42,8.42,0,1,0,12.79-6.43Z" transform="translate(-0.03 0.01)"/></svg>