<?xml version="1.0" encoding="UTF-8"?><svg xmlns="http://www.w3.org/2000/svg" viewBox="0 0 64 64"><defs><style>.cls-1{fill:none;}.cls-1,.cls-2{stroke-width:0px;}.cls-3{fill:#08c5d1;}.cls-3,.cls-4{stroke:#fff;}.cls-2{fill:#fff;}.cls-4{fill:#d46f4d;}</style></defs><title>Code Snippets icon - Uncanny Automator</title><g id="Layer_2"><rect class="cls-1" width="64" height="64"/></g><g id="Layer_1"><path id="path3769" class="cls-3" d="M58.83,40.09c6.23-3.6,6.23-12.59,0-16.18L29.9,7.22c-6.23-3.59-14.01.9-14.01,8.09v33.39c0,7.19,7.78,11.68,14.01,8.09l28.93-16.69h0Z"/><path id="path3771" class="cls-4" d="M43.44,40.09c6.23-3.6,6.23-12.59,0-16.18L14.51,7.22C8.28,3.62.5,8.12.5,15.31v33.39c0,7.19,7.78,11.68,14.01,8.09l28.93-16.69h0Z"/><path id="path3773" class="cls-2" d="M22.66,32.25l7.93-6.78c.22-.19.22-.5,0-.69-1.56-1.34-4.1-1.34-5.66,0l-5.5,4.7-1.18-1.01c.2-.44.32-.93.32-1.44,0-2.16-2.05-3.91-4.57-3.91s-4.57,1.75-4.57,3.91,2.05,3.91,4.57,3.91c.22,0,.43-.01.64-.04l1.57,1.34-1.57,1.34c-.21-.03-.42-.04-.64-.04-2.52,0-4.57,1.75-4.57,3.91s2.05,3.91,4.57,3.91,4.57-1.75,4.57-3.91c0-.51-.11-.99-.32-1.44l1.18-1.01,5.5,4.7c1.56,1.34,4.09,1.34,5.66,0,.22-.19.22-.5,0-.69l-7.93-6.78ZM13.99,28.34c-.84,0-1.52-.58-1.52-1.3s.68-1.3,1.52-1.3,1.52.59,1.52,1.3-.68,1.3-1.52,1.3ZM13.99,38.76c-.84,0-1.52-.58-1.52-1.3s.68-1.3,1.52-1.3,1.52.59,1.52,1.3-.68,1.3-1.52,1.3Z"/></g></svg>