<?xml version="1.0" encoding="UTF-8"?><svg id="Layer_1" xmlns="http://www.w3.org/2000/svg" viewBox="0 0 64 64"><defs><style>.cls-1{fill-rule:evenodd;}.cls-1,.cls-2,.cls-3{fill:#fff;}.cls-4{fill:#1f2852;}.cls-3{isolation:isolate;opacity:.5;}</style></defs><title>Forminator icon - Uncanny Automator</title><path class="cls-4" d="M0,32c0-8.27,0-12.41,1.05-15.76C3.31,8.98,8.98,3.31,16.24,1.05c3.36-1.05,7.49-1.05,15.76-1.05h0c8.27,0,12.41,0,15.76,1.05,7.25,2.26,12.93,7.94,15.19,15.19,1.05,3.36,1.05,7.49,1.05,15.76h0c0,8.27,0,12.41-1.05,15.76-2.26,7.25-7.94,12.93-15.19,15.19-3.36,1.05-7.49,1.05-15.76,1.05h0c-8.27,0-12.41,0-15.76-1.05-7.25-2.26-12.93-7.94-15.19-15.19-1.05-3.36-1.05-7.49-1.05-15.76h0Z"/><path class="cls-3" d="M26,29.33h12c.74,0,1.33.6,1.33,1.33h0c0,.74-.6,1.33-1.33,1.33h-12c-.74,0-1.33-.6-1.33-1.33h0c0-.74.6-1.33,1.33-1.33Z"/><path class="cls-3" d="M26,33.33h12c.74,0,1.33.6,1.33,1.33h0c0,.74-.6,1.33-1.33,1.33h-12c-.74,0-1.33-.6-1.33-1.33h0c0-.74.6-1.33,1.33-1.33Z"/><path class="cls-2" d="M32,38h6c.74,0,1.33.6,1.33,1.33h0c0,.74-.6,1.33-1.33,1.33h-6c-.74,0-1.33-.6-1.33-1.33h0c0-.74.6-1.33,1.33-1.33Z"/><path class="cls-1" d="M36.22,18.67h6.45c1.47,0,2.67,1.19,2.67,2.67v24.67c0,1.47-1.19,2.67-2.67,2.67h-21.33c-1.47,0-2.67-1.19-2.67-2.67v-24.67c0-1.47,1.19-2.67,2.67-2.67h6.45c.75-1.58,2.36-2.67,4.22-2.67s3.47,1.09,4.22,2.67ZM38,24.67v-2.67h4v23.33h-20v-23.33h4v2.67h12ZM32,22.67c1.1,0,2-.9,2-2s-.9-2-2-2-2,.9-2,2,.9,2,2,2Z"/></svg>