<svg xmlns="http://www.w3.org/2000/svg" viewBox="0 0 64 64"><defs><style>.cls-1{fill:none;}.cls-2{fill:#20b276;}.cls-3{fill:#147f52;}.cls-4{fill:#fff;}</style></defs><title>Pabbly icon - Uncanny Automator</title><g id="Layer_2" data-name="Layer 2"><rect class="cls-1" width="64" height="64"/></g><g id="Layer_1" data-name="Layer 1"><path class="cls-2" d="M64,32A32,32,0,1,1,32,.09,32,32,0,0,1,64,32Z"/><path class="cls-3" d="M44.77,41.08A16.54,16.54,0,0,1,32.45,46.3a16.3,16.3,0,0,1-8.26-1.95l0,18.53-.25-.06-.15,0-.17-.1-.09-.15-.08-.17.09-.11L15,52.18V28.36a17.41,17.41,0,0,1,5.08-12.64,16.56,16.56,0,0,1,12.33-5.2,16.54,16.54,0,0,1,12.32,5.22,17.48,17.48,0,0,1,5.08,12.67A17.49,17.49,0,0,1,44.77,41.08Zm-6.46-18.7a8.18,8.18,0,0,0-11.73,0,8.31,8.31,0,0,0-2.41,6,8.31,8.31,0,0,0,2.41,6,8.18,8.18,0,0,0,11.73,0,8.31,8.31,0,0,0,2.41-6A8.31,8.31,0,0,0,38.31,22.38Z"/><path class="cls-4" d="M44.11,40.42a16.57,16.57,0,0,1-12.33,5.22,16.57,16.57,0,0,1-8.28-2.17v19.3s-.62-.17-1.44-.43l-.61-.21L21.19,62c-.26-.07-.6-.22-.86-.32-.87-.34-1.58-.66-1.6-.67s-2.52-1.2-2.8-1.37-.48-.29-.67-.42l-.16-.12-.72-.49V27.71a17.45,17.45,0,0,1,5.08-12.65,16.59,16.59,0,0,1,12.33-5.2,16.57,16.57,0,0,1,12.33,5.22,17.52,17.52,0,0,1,5.08,12.67A17.52,17.52,0,0,1,44.11,40.42Zm-6.47-18.7a8.16,8.16,0,0,0-11.72,0,8.32,8.32,0,0,0-2.42,6,8.32,8.32,0,0,0,2.42,6,8.16,8.16,0,0,0,11.72,0,8.31,8.31,0,0,0,2.41-6A8.31,8.31,0,0,0,37.64,21.72Z"/></g></svg>