<svg xmlns="http://www.w3.org/2000/svg" viewBox="0 0 64 63.71"><defs><style>.a{fill:#0e0909;}.b{fill:#efefef;}.c{fill:#dedede;}.d{fill:#bcbcbc;}.e{fill:#0d8db5;}</style></defs><title>WP Webhooks icon - Uncanny Automator</title><path class="a" d="M63.94,30.34q0,13.23,0,26.46a3.16,3.16,0,0,1-3.38,3.39c-8.09,0-16.17,0-24.26,0a1.86,1.86,0,0,0-2,1.32,3.55,3.55,0,0,1-2,2.12,3.43,3.43,0,0,1-3.08-.28c-1.59-.85-3.19-1.67-4.76-2.55a4.66,4.66,0,0,0-2.39-.59c-4.17,0-8.35,0-12.52,0-2.77,0-3.94-1.17-3.95-4,0-1.51,0-3,0-4.51a1.32,1.32,0,0,0-.84-1.42c-1-.45-2-1-2.91-1.53A3.27,3.27,0,0,1,.41,44.25Q2.59,40,4.88,35.85a5.53,5.53,0,0,0,.71-2.75q0-14.43,0-28.86C5.57,1.32,6.7.17,9.63.17c16.74,0,33.47,0,50.21,0C62.4.14,64,1.43,64,4.29c-.06,8.68,0,17.37,0,26.05ZM44.59,6.81a1.57,1.57,0,0,0-.18-1.93A1.25,1.25,0,0,0,43,4.59a1.8,1.8,0,0,0-1,1.6,2.29,2.29,0,0,0,.06.58,1.21,1.21,0,0,0,1.27,1A1.25,1.25,0,0,0,44.59,6.81ZM16,56.43a15.16,15.16,0,0,0-3.16-1.67,12.1,12.1,0,0,0-2.77-1.48L7.45,51.76V56.1c-.2,1.76.26,2.3,2,2.3H19.48l.06-.24ZM46.14,8.27c-.49.4-.87,1-1.5,1.11-1.14.12-1.29,1-1.54,1.77s-.61,1.9-.83,2.87c-.38,1.69-.65,3.39.31,5a6.93,6.93,0,0,0,.35,1,10,10,0,0,1,1,6c-.35.53-.23.87.36,1.12s1.22.58,1.83.88l2.32,1.27.9,1.19a4.81,4.81,0,0,1-.6,3.81c-1.77,3.23-3.45,6.5-5.17,9.76a4.6,4.6,0,0,0-.68,1.41,4.21,4.21,0,0,0-.86,1.6,4.31,4.31,0,0,0-.77,1.39c-1.21,2.1-2.38,4.23-3.4,6.44a3.37,3.37,0,0,0-.79,1.55c-.4.33-.51.84-.78,1.26s-.23.7.43.7c7.82,0,15.63,0,23.44,0,1.5,0,1.91-.44,1.94-1.9,0-.4,0-.8,0-1.2V4.2c0-1.83-.5-2.29-2.36-2.18-.64,0-1.27,0-1.91,0Q33.7,2,9.51,2c-1.67,0-2.13.46-2.13,2.13q0,12.38,0,24.74a4,4,0,0,0,.19,1.89c1.69-3.3,3.47-6.33,4.95-9.52A19.67,19.67,0,0,0,14.29,18c.32-.58.65-1.16,1-1.75,1.35-2.53,3-3,5.5-1.67,3.58,1.91,7.18,3.78,10.76,5.7.5.27.72.26.93-.3.3-.78.67-1.53,1-2.29.1-.22.23-.41.53-.33s.19.37.16.57a16,16,0,0,0-.46,2.85c0,.38,0,.7.42.91,1.41.67,2.72,1.54,4.17,2.12a21.4,21.4,0,0,0,2.24,1.26c.51.32.64.08.62-.41a7.69,7.69,0,0,0-.83-3.45,11.18,11.18,0,0,0-.38-1.11A9.2,9.2,0,0,1,39.61,13c.44-1.18.8-2.39,1.16-3.59.1-.31.43-.7-.11-.94L40,6.82a3.35,3.35,0,0,1,1.84-3.3c2.35-1.14,4.61.42,4.74,3.26ZM36.35,25a1.66,1.66,0,0,0-.14-.13L19.45,16c-1.08-.57-1.77-.33-2.37.78-1.19,2.2-2.36,4.41-3.53,6.62L2.11,44.87a1.53,1.53,0,0,0,.66,2.35c2.9,1.56,5.82,3.07,8.74,4.6.17.11.33.23.5.32,5.59,3,11.18,5.92,16.76,8.9,2.53,1.35,2.84,1.72,4.44-1.33,4.7-8.94,9.47-17.83,14.21-26.74.64-1.21.42-1.9-.78-2.55-1-.54-2-1-3-1.61-.56-.34-.83-.2-1.21.28A5.85,5.85,0,0,1,36,31.22c-1.3-.33-2.49-1.08-3.92-.83-.17,0-.38-.11-.56-.17-1.19-1.06-1.49-2.07-.94-3.13s1.57-1.5,3-1.21c.08.23.19.43.49.38l.59.59c.16.44,0,1.08.55,1.29,1.68.67,4.06.43,5-1.11ZM42.06,4.28C40.71,5,40.14,6.44,41,7.51s.44,2,.11,3c-.24.73-.44,1.47-.73,2.18a9,9,0,0,0,.27,7.47,10.72,10.72,0,0,1,1.12,4.23A4.23,4.23,0,0,1,38.26,29a4.45,4.45,0,0,1-4.47-1.34c-.43-.49-1.06-.65-1.39-.37s.16.79.42,1.14a5.7,5.7,0,0,0,5.7,2.35A5.59,5.59,0,0,0,43,26.83a7.85,7.85,0,0,0-.59-6.39,9,9,0,0,1-1.09-4.21,23.46,23.46,0,0,1,1.4-5.91,1.71,1.71,0,0,1,1.4-1.4,2.32,2.32,0,0,0,1.22-3.76c.18,1.3,0,2.41-1.24,3a1.75,1.75,0,0,1-2.2-.4C41,6.73,41.28,5.59,42.06,4.28Z" transform="translate(0 -0.14)"/><path class="b" d="M11.51,51.82c-2.92-1.53-5.84-3-8.74-4.6a1.53,1.53,0,0,1-.66-2.35l11.44-21.5c1.17-2.21,2.34-4.42,3.53-6.62.6-1.11,1.29-1.35,2.37-.78l16.76,8.9a1.66,1.66,0,0,1,.14.13c-.36.78-.71,1.57-1.64,1.85l-.59-.59c0-.31-.19-.43-.49-.38-1.47-.29-2.48.11-3,1.21s-.25,2.07.94,3.13a1.12,1.12,0,0,1-.5.83c-.66.53-1.13,1.09-.55,1.95A8.11,8.11,0,0,1,29,32.28c-3.55-1.9-7.1-3.8-10.68-5.66A2.17,2.17,0,0,0,15,28.45a2.35,2.35,0,0,0,1.49,2.26c3.5,1.86,7,3.74,10.48,5.62-.12.27-.33.21-.57.22-.49,0-1,.08-1.11.74-.3-.14-.6-.27-.89-.43L15.5,32.13a2.28,2.28,0,0,0-3.34.82c-.6,1.19-.13,2.39,1.26,3.14l8.08,4.36-.62,1.7c-.24-.11-.49-.2-.73-.32-2.61-1.38-5.22-2.78-7.85-4.12A2.16,2.16,0,0,0,9,39.4a2.33,2.33,0,0,0,1.42,2.31c2.32,1.22,4.61,2.49,6.91,3.74-.25.4-.78.6-.84,1.13L9.48,43c-1.46-.76-2.69-.49-3.34.73S6,46.11,7.38,46.88c1.84,1,3.67,2,5.51,3C12.67,50.69,11.64,50.94,11.51,51.82Z" transform="translate(0 -0.14)"/><path class="c" d="M16.46,46.58c.06-.53.59-.73.84-1.13.42.2.85.38,1.26.6,4.14,2.19,8.28,4.4,12.43,6.59a2.23,2.23,0,1,0,2.09-3.92c-.64-.37-1.3-.69-1.94-1-3.4-1.87-6.91-3.55-10.26-5.53l.62-1.7a2,2,0,0,1,.37.12l12,6.36a2.25,2.25,0,0,0,3.26-.79A2.22,2.22,0,0,0,35.92,43L25.3,37.29c.09-.66.62-.72,1.11-.74.24,0,.45.05.57-.22.42.19.85.37,1.26.59C31.15,38.47,34.05,40,37,41.58A2.26,2.26,0,0,0,40.42,40a2.42,2.42,0,0,0-1.59-2.52C36,36,33.2,34.62,30.48,33c-.58-.86-.11-1.42.55-1.95a1.12,1.12,0,0,0,.5-.83c.18.06.39.2.56.17,1.43-.25,2.62.5,3.92.83a5.85,5.85,0,0,0,6.43-2.13c.38-.48.65-.62,1.21-.28,1,.59,2,1.07,3,1.61,1.2.65,1.42,1.34.78,2.55-4.74,8.91-9.51,17.8-14.21,26.74-1.6,3-1.91,2.68-4.44,1.33-5.58-3-11.17-5.93-16.76-8.9-.17-.09-.33-.21-.5-.32.13-.88,1.16-1.13,1.38-1.94l11.05,5.8c1.41.74,2.8,1.54,4.24,2.22A2.12,2.12,0,0,0,31,57a2.17,2.17,0,0,0-.69-2.91,14.79,14.79,0,0,0-1.4-.79Z" transform="translate(0 -0.14)"/><path class="b" d="M12.52,21.23C11,24.42,9.26,27.45,7.57,30.75a4,4,0,0,1-.19-1.89q0-12.37,0-24.74C7.38,2.45,7.84,2,9.51,2Q33.69,2,57.88,2c.64,0,1.27,0,1.91,0,.06.55-.17.83-.74.76a1.34,1.34,0,0,0-1.26.62c-.39.45-.87.83-1.22,1.32-.53.74-1.4,1.19-1.8,2.05H46.58c-.13-2.84-2.39-4.4-4.74-3.26A3.35,3.35,0,0,0,40,6.82q-12.1,0-24.21,0a3.53,3.53,0,0,0-3.68,3.72c0,3.26,0,6.52,0,9.78C12.11,20.68,12.07,21.06,12.52,21.23Z" transform="translate(0 -0.14)"/><path class="c" d="M54.77,6.77c.4-.86,1.27-1.31,1.8-2,.35-.49.83-.87,1.22-1.32a1.34,1.34,0,0,1,1.26-.62c.57.07.8-.21.74-.76,1.86-.11,2.36.35,2.36,2.18V55.29c0,.4,0,.8,0,1.2,0,1.46-.44,1.9-1.94,1.9-7.81,0-15.62,0-23.44,0-.66,0-.81-.14-.43-.7s.38-.93.78-1.26c.17.27.45.26.72.26,5.7,0,11.41,0,17.12,0a3.29,3.29,0,0,0,3.54-3,14.58,14.58,0,0,0,0-3.79,3,3,0,0,0-2.69-2.86,100.59,100.59,0,0,0-13.78,0,4.21,4.21,0,0,1,.86-1.6c.2.7.76.4,1.18.4,3.7,0,7.4,0,11.1,0a3.37,3.37,0,0,0,3.36-3.26c.06-3.33.07-6.67,0-10,0-1.24-.32-2.71-1.6-3.11a19,19,0,0,0-8.48-.22L46.16,28c.05-.16.09-.32.32-.3,2.53.24,5.07,0,7.6.13,2.92.14,4.11-1.81,4.11-4.12q0-6.51,0-13A4,4,0,0,0,58,9.44,3.76,3.76,0,0,0,54.77,6.77Z" transform="translate(0 -0.14)"/><path class="b" d="M40.66,8.51c.54.24.21.63.11.94-.36,1.2-.72,2.41-1.16,3.59a9.2,9.2,0,0,0,.32,7.08,11.18,11.18,0,0,1,.38,1.11c-.65.89-1.62,1.52-2,2.6-1.45-.58-2.76-1.45-4.17-2.12-.43-.21-.42-.53-.42-.91A16,16,0,0,1,34.15,18c0-.2.21-.48-.16-.57s-.43.11-.53.33c-.35.76-.72,1.51-1,2.29-.21.56-.43.57-.93.3-3.58-1.92-7.18-3.79-10.76-5.7-2.52-1.35-4.15-.86-5.5,1.67-.31.59-.64,1.17-1,1.75-.63-.11-.4-.61-.4-1,0-2.2,0-4.41,0-6.61,0-1.5.4-1.87,1.93-1.87H38.46C39.19,8.57,39.92,8.53,40.66,8.51Z" transform="translate(0 -0.14)"/><path class="c" d="M44,26a10,10,0,0,0-1-6,6.93,6.93,0,0,1-.35-1c.91-.9,1.83-1.8,2.73-2.71,1.5-1.53,3-3.06,4.48-4.62.93-1,2.08-1.77,2.59-3.1h2c1.46,0,2,.53,2,2q0,6.72,0,13.42a1.75,1.75,0,0,1-2,2Z" transform="translate(0 -0.14)"/><path class="c" d="M43.61,44.06c1.72-3.26,3.4-6.53,5.17-9.76a4.81,4.81,0,0,0,.6-3.81,2.85,2.85,0,0,0,1.62.36c1.27,0,2.53,0,3.8,0,1.43,0,2,.52,2,2q0,4.8,0,9.61c0,1.15-.49,1.63-1.65,1.64Z" transform="translate(0 -0.14)"/><path class="c" d="M37.9,54.9c1-2.21,2.19-4.34,3.4-6.44a2.36,2.36,0,0,0,1.36.23H55.07c1.23,0,1.7.47,1.72,1.67,0,.94,0,1.87,0,2.8,0,1.27-.51,1.74-1.78,1.74Z" transform="translate(0 -0.14)"/><path class="d" d="M37.9,54.9H55c1.27,0,1.75-.47,1.78-1.74,0-.93,0-1.86,0-2.8,0-1.2-.49-1.67-1.72-1.67H42.66a2.36,2.36,0,0,1-1.36-.23,4.31,4.31,0,0,1,.77-1.39,100.59,100.59,0,0,1,13.78,0,3,3,0,0,1,2.69,2.86,14.58,14.58,0,0,1,0,3.79,3.29,3.29,0,0,1-3.54,3c-5.71,0-11.42,0-17.12,0-.27,0-.55,0-.72-.26A3.37,3.37,0,0,1,37.9,54.9Z" transform="translate(0 -0.14)"/><path class="d" d="M44,26H54.38a1.75,1.75,0,0,0,2-2q0-6.71,0-13.42c0-1.46-.53-2-2-2h-2c-1.76,0-3.52,0-5.27,0-.35,0-.75.12-1-.3l.44-1.49h8.19A3.76,3.76,0,0,1,58,9.44a4,4,0,0,1,.14,1.28q0,6.51,0,13c0,2.31-1.19,4.26-4.11,4.12-2.53-.13-5.07.11-7.6-.13-.23,0-.27.14-.32.3-.61-.3-1.2-.63-1.83-.88S43.62,26.56,44,26Z" transform="translate(0 -0.14)"/><path class="d" d="M40.66,8.51c-.74,0-1.47.06-2.2.07H15.81c-1.53,0-1.92.37-1.93,1.87,0,2.2,0,4.41,0,6.61,0,.35-.23.85.4,1a19.67,19.67,0,0,1-1.77,3.21c-.45-.17-.41-.55-.41-.92,0-3.26,0-6.52,0-9.78a3.53,3.53,0,0,1,3.68-3.72q12.11,0,24.21,0Z" transform="translate(0 -0.14)"/><path class="d" d="M43.61,44.06l11.52,0c1.16,0,1.64-.49,1.65-1.64q0-4.81,0-9.61c0-1.47-.55-2-2-2-1.27,0-2.53,0-3.8,0a2.85,2.85,0,0,1-1.62-.36l-.9-1.19a19,19,0,0,1,8.48.22c1.28.4,1.57,1.87,1.6,3.11.08,3.33.07,6.67,0,10a3.37,3.37,0,0,1-3.36,3.26c-3.7,0-7.4,0-11.1,0-.42,0-1,.3-1.18-.4A4.6,4.6,0,0,1,43.61,44.06Z" transform="translate(0 -0.14)"/><path class="b" d="M42.06,4.28c-.78,1.31-1.09,2.45-.14,3.51a1.75,1.75,0,0,0,2.2.4c1.2-.62,1.42-1.73,1.24-3a2.32,2.32,0,0,1-1.22,3.76,1.71,1.71,0,0,0-1.4,1.4,23.46,23.46,0,0,0-1.4,5.91,9,9,0,0,0,1.09,4.21A7.85,7.85,0,0,1,43,26.83a5.59,5.59,0,0,1-4.5,3.94,5.7,5.7,0,0,1-5.7-2.35c-.26-.35-.8-.81-.42-1.14s1-.12,1.39.37A4.45,4.45,0,0,0,38.26,29a4.23,4.23,0,0,0,3.47-4.58,10.72,10.72,0,0,0-1.12-4.23,9,9,0,0,1-.27-7.47c.29-.71.49-1.45.73-2.18.33-1,.74-1.9-.11-3S40.71,5,42.06,4.28Z" transform="translate(0 -0.14)"/><path class="b" d="M46.14,8.27c.22.42.62.3,1,.3,1.75,0,3.51,0,5.27,0-.51,1.33-1.66,2.12-2.59,3.1-1.47,1.56-3,3.09-4.48,4.62-.9.91-1.82,1.81-2.73,2.71-1-1.61-.69-3.31-.31-5,.22-1,.54-1.92.83-2.87s.4-1.65,1.54-1.77C45.27,9.31,45.65,8.67,46.14,8.27Z" transform="translate(0 -0.14)"/><path class="c" d="M10.08,53.28a12.1,12.1,0,0,1,2.77,1.48c-.32.32-.35.53,0,.94a2.9,2.9,0,0,0,3.12.73l3.53,1.74-.06.24H9.41c-1.7,0-2.16-.54-2-2.3.37.14.88.39.79-.32C8.07,54.32,9,53.75,10.08,53.28ZM7.81,57.14a.64.64,0,0,0,0-.07s0,0-.06,0a.64.64,0,0,0,0,.07S7.79,57.14,7.81,57.14Z" transform="translate(0 -0.14)"/><path class="c" d="M34.71,26.85c.93-.28,1.28-1.07,1.64-1.85l3.94,2c-1,1.54-3.35,1.78-5,1.11C34.76,27.93,34.87,27.29,34.71,26.85Z" transform="translate(0 -0.14)"/><path class="c" d="M38.28,23.83c.41-1.08,1.38-1.71,2-2.6a7.69,7.69,0,0,1,.83,3.45c0,.49-.11.73-.62.41A21.4,21.4,0,0,1,38.28,23.83Z" transform="translate(0 -0.14)"/><path class="b" d="M10.08,53.28c-1.1.47-2,1-1.84,2.5.09.71-.42.46-.79.32V51.76Z" transform="translate(0 -0.14)"/><path class="b" d="M42,6.77A2.29,2.29,0,0,1,42,6.19a1.8,1.8,0,0,1,1-1.6,1.25,1.25,0,0,1,1.46.29,1.57,1.57,0,0,1,.18,1.93Z" transform="translate(0 -0.14)"/><path class="d" d="M16,56.43a2.9,2.9,0,0,1-3.12-.73c-.39-.41-.36-.62,0-.94A15.16,15.16,0,0,1,16,56.43Z" transform="translate(0 -0.14)"/><path class="d" d="M42,6.77l2.57,0a1.25,1.25,0,0,1-1.3,1A1.21,1.21,0,0,1,42,6.77Z" transform="translate(0 -0.14)"/><path class="c" d="M33.63,25.88c.3-.05.48.07.49.38C33.82,26.31,33.71,26.11,33.63,25.88Z" transform="translate(0 -0.14)"/><path class="a" d="M20.88,42.15c3.35,2,6.86,3.66,10.26,5.53.64.35,1.3.67,1.94,1A2.23,2.23,0,1,1,31,52.64c-4.15-2.19-8.29-4.4-12.43-6.59-.41-.22-.84-.4-1.26-.6-2.3-1.25-4.59-2.52-6.91-3.74A2.33,2.33,0,0,1,9,39.4a2.16,2.16,0,0,1,3.33-1.69c2.63,1.34,5.24,2.74,7.85,4.12C20.39,42,20.64,42,20.88,42.15ZM33,50.8a1.32,1.32,0,0,0-.71-1.17c-5.87-3.09-11.72-6.23-17.58-9.35-1-.54-2-1.07-3-1.56a.93.93,0,0,0-1.31.36,1,1,0,0,0,.34,1.4,5.13,5.13,0,0,0,.69.39l14.05,7.46c2,1.06,4,2.14,6,3.18C32.37,52,33,51.69,33,50.8Z" transform="translate(0 -0.14)"/><path class="a" d="M16.46,46.58l12.47,6.7a14.79,14.79,0,0,1,1.4.79A2.17,2.17,0,0,1,31,57a2.12,2.12,0,0,1-2.84.92c-1.44-.68-2.83-1.48-4.24-2.22l-11-5.8c-1.84-1-3.67-2-5.51-3-1.43-.77-1.89-2-1.24-3.19S8,42.2,9.48,43ZM8.25,43.71c-.59.06-1,.22-1.14.76-.15.72.29,1.09.87,1.4q7.26,3.83,14.5,7.67,3,1.56,5.92,3.15A1,1,0,0,0,30,56.32c.39-.65,0-1.06-.54-1.39-.25-.16-.51-.3-.78-.44L13.77,46.68c-1.58-.84-3.12-1.73-4.69-2.59C8.79,43.93,8.48,43.81,8.25,43.71Z" transform="translate(0 -0.14)"/><path class="a" d="M30.48,33c2.72,1.62,5.56,3,8.35,4.49A2.42,2.42,0,0,1,40.42,40,2.26,2.26,0,0,1,37,41.58c-2.91-1.54-5.81-3.11-8.72-4.66-.41-.22-.84-.4-1.26-.59-3.5-1.88-7-3.76-10.48-5.62A2.35,2.35,0,0,1,15,28.45a2.17,2.17,0,0,1,3.27-1.83c3.58,1.86,7.13,3.76,10.68,5.66A8.11,8.11,0,0,0,30.48,33ZM17.23,27.56a.91.91,0,0,0-1,.72,1,1,0,0,0,.59,1.25l3.88,2.07Q29,36,37.27,40.34c.7.37,1.35.63,1.8-.19s-.12-1.24-.75-1.58L18.25,27.93A2.21,2.21,0,0,0,17.23,27.56Z" transform="translate(0 -0.14)"/><path class="a" d="M25.3,37.29,35.92,43a2.22,2.22,0,0,1,1.19,3.12,2.25,2.25,0,0,1-3.26.79l-12-6.36a2,2,0,0,0-.37-.12l-8.08-4.36c-1.39-.75-1.86-2-1.26-3.14a2.28,2.28,0,0,1,3.34-.82l8.91,4.73C24.7,37,25,37.15,25.3,37.29ZM35,46.08c.57,0,.93-.14,1.1-.55a1,1,0,0,0-.21-1.11,2.33,2.33,0,0,0-.67-.43L18.7,35.18c-1.33-.71-2.65-1.42-4-2.09a1,1,0,0,0-1.46.39,1,1,0,0,0,.51,1.43c.23.14.46.26.7.38q9.88,5.26,19.78,10.52A5.75,5.75,0,0,0,35,46.08Z" transform="translate(0 -0.14)"/><path class="b" d="M7.81,57.14s0,0-.06,0a.64.64,0,0,1,0-.07s0,0,.06,0A.64.64,0,0,1,7.81,57.14Z" transform="translate(0 -0.14)"/><path class="e" d="M33,50.8c0,.89-.6,1.2-1.54.71-2-1-4-2.12-6-3.18L11.37,40.87a5.13,5.13,0,0,1-.69-.39,1,1,0,0,1-.34-1.4.93.93,0,0,1,1.31-.36c1,.49,2,1,3,1.56,5.86,3.12,11.71,6.26,17.58,9.35A1.32,1.32,0,0,1,33,50.8Z" transform="translate(0 -0.14)"/><path class="e" d="M8.25,43.71c.23.1.54.22.83.38,1.57.86,3.11,1.75,4.69,2.59l14.86,7.81c.27.14.53.28.78.44.53.33.93.74.54,1.39a1,1,0,0,1-1.55.37q-3-1.59-5.92-3.15Q15.23,49.7,8,45.87c-.58-.31-1-.68-.87-1.4C7.22,43.93,7.66,43.77,8.25,43.71Z" transform="translate(0 -0.14)"/><path class="e" d="M17.23,27.56a2.21,2.21,0,0,1,1,.37L38.32,38.57c.63.34,1.18.82.75,1.58s-1.1.56-1.8.19Q29,35.94,20.74,31.6l-3.88-2.07a1,1,0,0,1-.59-1.25A.91.91,0,0,1,17.23,27.56Z" transform="translate(0 -0.14)"/><path class="e" d="M35,46.08a5.75,5.75,0,0,1-.72-.27q-9.9-5.25-19.78-10.52c-.24-.12-.47-.24-.7-.38a1,1,0,0,1-.51-1.43,1,1,0,0,1,1.46-.39c1.34.67,2.66,1.38,4,2.09L35.18,44a2.33,2.33,0,0,1,.67.43,1,1,0,0,1,.21,1.11C35.89,45.94,35.53,46.11,35,46.08Z" transform="translate(0 -0.14)"/></svg>