<?xml version="1.0" encoding="UTF-8"?><svg id="a" xmlns="http://www.w3.org/2000/svg" viewBox="0 0 64 64"><rect width="64" height="64" style="fill:#fff;"/><title>Memberium icon - Uncanny Automator</title><path d="m19.91,63.99c-6.54,0-13.08,0-19.62,0C.05,64,0,63.95,0,63.71,0,42.57,0,21.43,0,.29,0,.05.05,0,.29,0c21.14,0,42.28,0,63.42,0,.24,0,.29.05.29.29,0,9.19,0,18.39,0,27.58-.16.01-.25-.07-.33-.21-.31-.56-.63-1.11-.97-1.65-.59-.94-1.2-1.87-1.8-2.81-.53-.83-1.07-1.65-1.6-2.47-1-1.55-2.01-3.1-3.01-4.65-.62-.96-1.24-1.93-1.87-2.89-.66-1.02-1.33-2.04-1.99-3.07-.14-.22-.23-.47-.49-.59-1.14,0-2.27,0-3.41-.01-.17,0-.34.02-.45.17-.42.54-.94,1-1.4,1.52-1.68,1.9-3.42,3.74-5.11,5.62-2.3,2.56-4.66,5.08-6.99,7.61-.75.82-1.49,1.65-2.23,2.48-.17.19-.28.22-.46-.01-.36-.46-.74-.89-1.13-1.32-1.4-1.56-2.82-3.1-4.22-4.66-1.9-2.12-3.79-4.26-5.7-6.38-1.43-1.6-2.87-3.18-4.3-4.78-.16-.18-.32-.25-.55-.25-1.05,0-2.11.01-3.16,0-.28,0-.32.09-.32.34,0,13.35,0,26.7,0,40.05,0,.24.07.32.29.32-.22.05-.33.14-.14.35.06.07.12.15.16.23.88,1.65,1.77,3.29,2.65,4.94.57,1.08,1.11,2.17,1.71,3.23.94,1.65,1.69,3.41,2.74,5Z" style="fill:#3c78ab;"/><path d="m19.91,63.99c-1.04-1.6-1.8-3.35-2.74-5-.6-1.06-1.13-2.16-1.71-3.23-.88-1.65-1.76-3.29-2.65-4.94-.04-.08-.1-.16-.16-.23-.18-.21-.08-.3.14-.35.17,0,.33-.02.5-.02,2.77,0,5.54,0,8.31,0,.32,0,.64-.02.96.01.47.04.47.06.47-.41,0-5.73,0-11.46,0-17.2,0-.08,0-.17,0-.25,0-.05-.02-.12.06-.15.07-.02.11.04.14.08.71.92,1.6,1.69,2.4,2.53,1.05,1.1,2.05,2.25,3.09,3.35.75.8,1.58,1.53,2.28,2.36.43.51.89.71,1.52.63.16-.02.29-.06.4-.18.82-.9,1.66-1.79,2.52-2.65,1.63-1.62,3.15-3.34,4.7-5.02.3-.32.61-.63.92-.93.17-.16.29-.16.3.12-.07.17-.05.35-.05.53,0,5.55,0,11.11,0,16.66,0,.14-.03.29.05.42.03.03.06.07.09.1.02,0,.05,0,.07.01.14,0,.28-.02.42-.02,3.23,0,6.46,0,9.69,0,.15,0,.29.02.32-.18.03-.06.03-.12-.02-.17,0-.11,0-.21,0-.32,0-11.5,0-23,0-34.49,0-1.84,0-3.67,0-5.51.26.12.35.37.49.59.66,1.03,1.33,2.04,1.99,3.07.62.96,1.24,1.93,1.87,2.89,1,1.55,2.01,3.1,3.01,4.65.53.82,1.07,1.65,1.6,2.47.6.93,1.21,1.87,1.8,2.81.34.54.66,1.09.97,1.65.08.14.16.22.33.21,0,11.93,0,23.85,0,35.78,0,.29-.06.34-.35.34-14.58,0-29.16,0-43.74,0Z" style="fill:#2e608c;"/></svg>