<?xml version="1.0" encoding="UTF-8"?><svg xmlns="http://www.w3.org/2000/svg" viewBox="0 0 64 64"><title>Mautic icon - Uncanny Automator</title><g id="a"><rect width="64" height="64" style="fill:none;"/></g><g id="b"><path d="m59.52,32c-.03-3.17-.6-6.24-1.63-9.22-.42-1.23-.13-2.21.77-2.82.86-.59,1.97-.57,2.71.17.38.38.65.92.84,1.44,6.28,17.66-4.54,37.36-22.82,41.57C21.36,67.29,3.68,55.63.48,37.48-2.6,19.99,9.37,3.31,27.03.43c5.77-.94,11.34-.25,16.77,1.85.98.38,1.74.92,1.84,2.06.16,1.77-1.39,2.8-3.22,2.25-2.16-.65-4.32-1.38-6.54-1.74C22.47,2.7,9.07,11.49,5.53,24.68c-4.26,15.86,5.83,31.66,22,34.46,14.95,2.59,29.57-8.08,31.62-23.09.18-1.34.25-2.7.37-4.05Z" style="fill:#4e5e9e;"/><path d="m31.97,29.53c4.57-4.83,9.02-9.54,13.51-14.28-.54-.59-1.01-1.11-1.66-1.81,3.31-.67,6.42-1.29,9.74-1.96-.6,3.39-1.16,6.55-1.75,9.92-.72-.64-1.23-1.11-1.83-1.65-5.99,6.51-11.93,12.99-18.01,19.6-2.77-3.03-5.48-5.99-8.36-9.12-.55,2.27-1.06,4.33-1.55,6.4-.63,2.64-1.27,5.28-1.88,7.93-.16.7-.45,1-1.22.97-1.76-.06-3.53-.02-5.45-.02,2.26-9.37,4.47-18.55,6.76-28.02,4,4.12,7.79,8.03,11.69,12.05Z" style="fill:#fdb934;"/><path d="m50.08,45.49c-2.09,0-3.96.03-5.84-.03-.25,0-.65-.38-.72-.65-.86-3.43-1.68-6.88-2.49-10.32-.06-.26-.05-.69.11-.84,1.65-1.53,3.34-3.02,4.99-4.5,1.25,5.2,2.58,10.69,3.94,16.34Z" style="fill:#fdb934;"/></g></svg>