<?xml version="1.0" encoding="UTF-8"?><svg xmlns="http://www.w3.org/2000/svg" viewBox="0 0 64 64"><title>WP All Import icon - Uncanny Automator</title><g id="a"><rect width="64" height="64" style="fill:none;"/></g><g id="b"><path d="M24.22,32.86c1.43,0,2.59-1.16,2.59-2.59s-1.16-2.59-2.59-2.59-2.59,1.16-2.59,2.59,1.16,2.59,2.59,2.59Z" style="fill:#02b3b6;"/><path d="M39.78,32.86c1.43,0,2.59-1.16,2.59-2.59s-1.16-2.59-2.59-2.59-2.59,1.16-2.59,2.59,1.16,2.59,2.59,2.59Z" style="fill:#02b3b6;"/><path d="M62.13,34.57c-.34-.23-.77-.3-1.15-.17l-7.04,2.31c-.7,.23-1.08,.98-.85,1.66,.23,.7,.98,1.08,1.66,.85l2.75-.91c-2.04,3.01-7.08,9.34-12.79,8.37-1.04-.17-1.81-.81-2.02-1.64-.3-1.15,.47-2.53,2.09-3.84,6.3-4.99,9.76-11.6,9.76-18.62-.02-12.46-10.13-22.59-22.59-22.59S9.41,10.13,9.41,22.61c0,7.01,3.47,13.63,9.76,18.62,1.62,1.29,2.38,2.68,2.09,3.84-.21,.83-1,1.47-2.02,1.64-5.7,.96-10.76-5.37-12.79-8.37l2.74,.91c.7,.23,1.43-.15,1.66-.85,.23-.7-.15-1.44-.85-1.66l-7.04-2.32c-.4-.13-.81-.08-1.15,.17-.34,.23-.55,.6-.57,1.02l-.38,7.65c-.04,.74,.53,1.34,1.25,1.38h.08c.7,0,1.28-.55,1.32-1.27l.15-3.12c2.25,3.29,7.6,9.92,14.4,9.92,.57,0,1.15-.04,1.75-.15,2.38-.4,4.19-1.98,4.76-4.16,.64-2.51-.55-5.18-3.26-7.33-3.17-2.51-8.47-7.92-8.47-15.95C12.83,11.98,21.43,3.36,32,3.36s19.17,8.62,19.17,19.2c0,8.03-5.3,13.44-8.47,15.95-2.72,2.15-3.92,4.84-3.26,7.33,.55,2.15,2.38,3.74,4.75,4.16,7.62,1.29,13.72-6.2,16.15-9.77l.15,3.1c.04,.7,.62,1.27,1.32,1.27h.08c.74-.04,1.28-.66,1.25-1.38l-.38-7.65c-.08-.38-.3-.77-.62-1Z" style="fill:#02b3b6; fill-rule:evenodd;"/><path d="M45.24,55.17c-.22-.67-.94-1.04-1.59-.8-.67,.22-1.03,.95-.79,1.6l1.03,3.15c-7.56-4.39-9.11-9.8-9.62-14.57-.07-.75-.7-1.31-1.44-1.31s-1.35,.56-1.44,1.31c-.51,4.75-2.06,10.16-9.58,14.53l1.03-3.13c.22-.67-.14-1.38-.79-1.6-.67-.22-1.37,.15-1.59,.8l-2.22,6.79c-.13,.38-.07,.78,.16,1.11,.23,.33,.58,.53,.97,.55l7.31,.4h.07c.67,0,1.23-.53,1.26-1.2,.04-.71-.51-1.31-1.19-1.35l-3.01-.16c4.47-2.71,7.42-6.01,9.06-10.25,1.64,4.24,4.58,7.54,9.06,10.25l-3,.16c-.7,.04-1.23,.64-1.19,1.35,.04,.67,.6,1.2,1.26,1.2h.07l7.31-.4c.4-.02,.76-.22,.97-.55,.22-.33,.27-.75,.16-1.11l-2.27-6.77Z" style="fill:#02b3b6; fill-rule:evenodd;"/></g></svg>