<?xml version="1.0" encoding="utf-8"?><svg xmlns="http://www.w3.org/2000/svg" viewBox="0 0 64 64"><defs><style>.cls-1{fill:none;}.cls-2{fill:#8f42ec;}</style></defs><title>Divi icon - Uncanny Automator</title><g id="Layer_2" data-name="Layer 2"><rect class="cls-1" width="64" height="64"/></g><g id="Layer_1" data-name="Layer 1"><g id="Page-1"><g id="Divi-Theme"><path id="Shape" class="cls-2" d="M32,4.57A27.43,27.43,0,1,1,4.57,32,27.45,27.45,0,0,1,32,4.57M32,0A32,32,0,1,0,64,32,32,32,0,0,0,32,0Z"/><path id="Shape-2" data-name="Shape" class="cls-2" d="M41,40a10.32,10.32,0,0,0,1.92-3.55c.43-1.37,1-6,0-9.09a10.46,10.46,0,0,0-2-3.52,8.56,8.56,0,0,0-3.1-2.29,10.64,10.64,0,0,0-4.32-1H25.14V43.43h8.35a10.55,10.55,0,0,0,4.36-1.12A8.56,8.56,0,0,0,41,40Zm-1.6-22.75a13.49,13.49,0,0,1,4.75,3.32,14.49,14.49,0,0,1,2.93,5A20.67,20.67,0,0,1,48,32a18.84,18.84,0,0,1-.94,6.1,14.08,14.08,0,0,1-2.88,5,13.33,13.33,0,0,1-4.75,3.41A16.19,16.19,0,0,1,33,48H22.86a2.3,2.3,0,0,1-2.29-2.29V18.29A2.3,2.3,0,0,1,22.86,16H33A16.56,16.56,0,0,1,39.36,17.23Z"/></g></g></g></svg>