<?xml version="1.0" encoding="UTF-8"?><svg xmlns="http://www.w3.org/2000/svg" viewBox="0 0 64 64"><defs><style>.cls-1{fill:none;}.cls-2{fill:#fa500f;}.cls-3{fill:#ffd800;}.cls-4{fill:#ff8205;}.cls-5{fill:#ffaf00;}.cls-6{fill:#e10500;}</style></defs><g id="Layer_2"><rect class="cls-1" width="64" height="64"/></g><g id="Layer_1"><path d="M18.28,9.36h-9.14v9.06h9.14v-9.06Z"/><path d="M54.85,9.36h-9.14v9.06h9.14v-9.06Z"/><path d="M27.42,18.41H9.14v9.06h18.28v-9.06Z"/><path d="M54.85,18.41h-18.28v9.06h18.28v-9.06Z"/><path d="M54.85,27.47H9.14v9.06h45.71v-9.06Z"/><path d="M18.28,36.53h-9.14v9.06h9.14v-9.06Z"/><path d="M36.56,36.53h-9.14v9.06h9.14v-9.06Z"/><path d="M54.85,36.53h-9.14v9.06h9.14v-9.06Z"/><path d="M27.43,45.59H0v9.06h27.43v-9.06Z"/><path d="M64,45.59h-27.43v9.06h27.43v-9.06Z"/><path class="cls-3" d="M18.28,9.36h-9.14v9.06h9.14v-9.06Z"/><path class="cls-3" d="M54.85,9.36h-9.14v9.06h9.14v-9.06Z"/><path class="cls-5" d="M27.42,18.41H9.14v9.06h18.28v-9.06Z"/><path class="cls-5" d="M54.85,18.41h-18.28v9.06h18.28v-9.06Z"/><path class="cls-4" d="M54.85,27.47H9.14v9.06h45.71v-9.06Z"/><path class="cls-2" d="M18.28,36.53h-9.14v9.06h9.14v-9.06Z"/><path class="cls-2" d="M36.56,36.53h-9.14v9.06h9.14v-9.06Z"/><path class="cls-2" d="M54.85,36.53h-9.14v9.06h9.14v-9.06Z"/><path class="cls-6" d="M27.43,45.59H0v9.06h27.43v-9.06Z"/><path class="cls-6" d="M63.99,45.59h-27.43v9.06h27.43v-9.06Z"/></g></svg>