<?xml version="1.0" encoding="UTF-8"?><svg xmlns="http://www.w3.org/2000/svg" viewBox="0 0 64 64"><defs><style>.cls-1{fill:none;}.cls-2{fill:#fff;}.cls-3,.cls-4{fill:#ff8845;}.cls-4{fill-rule:evenodd;}</style></defs><g id="Layer_1"><rect class="cls-2" x="14.79" y="5.74" width="34.46" height="34.46"/><path class="cls-4" d="M19.99,2.17c0-.56.25-1.11.66-1.51.45-.4,1.01-.66,1.61-.66s1.21.25,1.62.66c.4.4.66.91.66,1.51h15.04c0-.56.25-1.11.66-1.51.4-.4,1.01-.66,1.62-.66s1.21.25,1.62.66c.4.4.66.91.66,1.51h.76c5,0,9.03,4.04,9.03,9.03v23.42c0,5-4.04,9.03-9.03,9.03h-25.64c-5,0-9.03-4.04-9.03-9.03V11.2c0-5,4.04-9.03,9.03-9.03h.76ZM48.35,32.5c0,1.56-.61,3.03-1.72,4.14s-2.57,1.72-4.14,1.72h-20.89c-3.23,0-5.85-2.62-5.85-5.85v-1.06s.15-.35.3-.35h21.2c1.31,0,2.32-1.01,2.32-2.32s-1.06-2.32-2.32-2.32h-18.88c-.71,0-1.36-.25-1.87-.76-.5-.5-.76-1.16-.76-1.82v-12.26c0-1.11.45-2.17,1.21-2.93.76-.76,1.82-1.21,2.93-1.21h.05v.05c0,1.11.91,2.02,2.02,2.02h.56c1.11,0,2.02-.91,2.02-2.02,0,0,0-.1.1-.1h14.84s.1,0,.1.1c0,1.11.91,2.02,2.02,2.02h.56c1.11,0,2.02-.91,2.02-2.02v-.05h.05c2.32,0,4.14,1.87,4.14,4.14v2.78s-.15.35-.3.35h-21.15c-1.26,0-2.32,1.01-2.32,2.32s1.06,2.32,2.32,2.32h18.88c.71,0,1.36.25,1.87.76.5.5.76,1.16.76,1.82v10.55h-.05Z"/><path class="cls-4" d="M23.96,62.01c-3.5.07-9.02.26-11.13.39-2.68.16-5.96.56-6.93.84-.52.15-.71.42-.46.67.1.1.19.1,1.48.07,2.67-.07,4.96-.17,5-.22.03-.02.03-.09.01-.14-.03-.09-.14-.09-1.15-.06-.62.02-1.1.02-1.08.01.08-.04,2.8-.2,4.47-.26,5.82-.22,18.11-.27,25.05-.1,6.57.16,8.11.22,13.41.5,3.86.21,5.57.24,5.84.1.2-.11.27-.27.17-.44-.06-.09-.16-.11-.69-.14-.34-.02-1.52-.11-2.62-.2-7.41-.64-11.29-.84-20.25-1.03-2.85-.06-7.86-.06-11.11,0Z"/><path class="cls-3" d="M10.49,59.75c-1.15,0-2.11-.23-2.88-.69-.76-.46-1.33-1.07-1.71-1.83-.38-.76-.57-1.59-.57-2.5s.18-1.67.53-2.41c.36-.74.89-1.33,1.58-1.77.69-.45,1.54-.68,2.53-.68.91,0,1.68.19,2.29.56.61.37,1.07.88,1.37,1.5.3.62.46,1.31.46,2.07,0,.21-.01.42-.04.64-.03.21-.06.43-.11.66h-6.15c.09.59.27,1.07.55,1.44.29.36.63.63,1.04.8.41.17.85.26,1.32.26.55,0,1.07-.07,1.54-.21.48-.15.91-.34,1.31-.57l.11,2c-.36.19-.81.36-1.35.5-.54.15-1.15.22-1.83.22ZM7.84,53.71h3.85c0-.29-.05-.57-.16-.86-.11-.29-.29-.54-.54-.73-.25-.2-.58-.3-1.01-.3-.61,0-1.09.18-1.44.53-.35.36-.58.81-.7,1.35Z"/><path class="cls-3" d="M18.22,59.56l-3.66-9.52h2.32l2.34,6.59,2.34-6.59h2.32l-3.66,9.52h-2.02Z"/><path class="cls-3" d="M29.48,59.75c-1.15,0-2.11-.23-2.88-.69-.76-.46-1.33-1.07-1.71-1.83-.38-.76-.57-1.59-.57-2.5s.18-1.67.53-2.41c.36-.74.89-1.33,1.58-1.77.69-.45,1.54-.68,2.53-.68.91,0,1.68.19,2.29.56.61.37,1.07.88,1.37,1.5.3.62.46,1.31.46,2.07,0,.21-.01.42-.04.64-.03.21-.06.43-.11.66h-6.15c.09.59.27,1.07.55,1.44.29.36.63.63,1.04.8.41.17.85.26,1.32.26.55,0,1.07-.07,1.54-.21.48-.15.91-.34,1.31-.57l.11,2c-.36.19-.81.36-1.35.5-.54.15-1.15.22-1.83.22ZM26.84,53.71h3.85c0-.29-.05-.57-.16-.86-.11-.29-.29-.54-.54-.73-.25-.2-.58-.3-1.01-.3-.61,0-1.09.18-1.44.53-.35.36-.58.81-.7,1.35Z"/><path class="cls-3" d="M34.7,59.56v-9.52h2.21l.1,1.77-.55-.72c.36-.3.79-.58,1.3-.83.5-.25,1.09-.37,1.75-.37,1.22,0,2.12.41,2.71,1.22.59.81.89,1.85.89,3.14v5.31h-2.36v-5.12c0-.89-.15-1.55-.45-1.97-.29-.43-.77-.64-1.44-.64-.54,0-.98.13-1.32.4-.34.26-.64.61-.9,1.05l.44-1.16v7.45h-2.36Z"/><path class="cls-3" d="M48.2,59.75c-.6,0-1.08-.12-1.46-.36-.37-.25-.65-.56-.83-.94-.18-.38-.27-.78-.27-1.19v-5.28h-1.35l.21-1.94h1.14v-2.1l2.36-.25v2.34h2.1v1.94h-2.1v4.31c0,.48.03.83.09,1.05.06.21.19.34.39.4.2.05.53.08.97.08h.65l-.21,1.94h-1.7Z"/><path class="cls-3" d="M54.35,59.75c-.63,0-1.2-.06-1.7-.18-.5-.12-1.01-.3-1.51-.52l.21-2.02c.49.29.97.52,1.44.7.48.17.97.26,1.5.26.47,0,.83-.08,1.08-.23.25-.15.37-.39.37-.72,0-.25-.07-.45-.2-.61-.13-.16-.32-.3-.58-.43-.26-.13-.58-.26-.97-.41-.58-.22-1.08-.45-1.5-.7-.41-.25-.72-.56-.93-.91-.21-.36-.31-.81-.31-1.33s.14-1.03.43-1.45c.29-.42.69-.75,1.22-.98.53-.23,1.15-.35,1.88-.35.6,0,1.14.07,1.62.2.48.13.93.31,1.33.54l-.21,2.02c-.43-.3-.85-.54-1.29-.73-.43-.2-.9-.3-1.42-.3-.41,0-.72.08-.94.25-.22.17-.33.4-.33.7,0,.37.16.64.47.83.31.18.81.41,1.5.68.44.17.83.35,1.15.53.33.18.6.39.82.61.22.22.37.48.48.76.11.28.16.6.16.97,0,.6-.15,1.12-.44,1.54-.29.42-.71.74-1.27.96-.55.22-1.23.33-2.03.33Z"/></g><g id="Layer_2"><rect class="cls-1" width="64" height="64"/></g></svg>
