<svg xmlns="http://www.w3.org/2000/svg" viewBox="0 0 64 63.98"><defs><style>.a{fill:none;}.b{fill:#ff4a00;}</style></defs><title>Zapier icon - Uncanny Automator</title><path class="a" d="M40,32v0a19.26,19.26,0,0,0-1.23-6.76A19,19,0,0,0,32,24h0a19.26,19.26,0,0,0-6.76,1.23A19.17,19.17,0,0,0,24,32v0a19.24,19.24,0,0,0,1.23,6.75A19,19,0,0,0,32,40h0a19.26,19.26,0,0,0,6.76-1.23A19.24,19.24,0,0,0,40,32Z" transform="translate(0 -0.01)"/><path class="b" d="M63.56,26.68H44.87L58.08,13.47a31.94,31.94,0,0,0-7.54-7.54L37.33,19.13V.46A31.58,31.58,0,0,0,32,0h0a32.06,32.06,0,0,0-5.31.45V19.14L13.46,5.93A32,32,0,0,0,9.37,9.38h0a32,32,0,0,0-3.45,4.08L19.13,26.68H.44S0,30.19,0,32v0a30.57,30.57,0,0,0,.45,5.3H19.13L5.92,50.53a31.75,31.75,0,0,0,7.54,7.54l13.21-13.2V63.55A32.07,32.07,0,0,0,32,64h0a32.52,32.52,0,0,0,5.31-.44V44.89L50.54,58.1a32.13,32.13,0,0,0,4.09-3.46h0a32,32,0,0,0,3.45-4.08L44.88,37.35H63.56A32.16,32.16,0,0,0,64,32V32A32.8,32.8,0,0,0,63.56,26.68ZM38.77,38.78A19.26,19.26,0,0,1,32,40h0a19,19,0,0,1-6.76-1.23A19.24,19.24,0,0,1,24,32v0a19.17,19.17,0,0,1,1.23-6.76A19.26,19.26,0,0,1,32,24h0a19,19,0,0,1,6.76,1.23A19.26,19.26,0,0,1,40,32v0h0A19.24,19.24,0,0,1,38.77,38.78Z" transform="translate(0 -0.01)"/></svg>