<svg id="Layer_1" data-name="Layer 1" xmlns="http://www.w3.org/2000/svg" viewBox="0 0 64 64"><rect width="64" height="64" rx="7.42" style="fill:#ff4f00"/><title>Zapier icon - Uncanny Automator</title><path d="M9.73,52.08v0l5.77-5.29V44.22H6.24v2.54h5.52v0L6.06,52.08v2.54h9.52V52.08Z" style="fill:#fffdf9"/><path d="M21.26,44a6.07,6.07,0,0,0-2.61.49,3.38,3.38,0,0,0-1.52,1.33,4.78,4.78,0,0,0-.63,1.92l2.8.39a2.08,2.08,0,0,1,.61-1.27,1.9,1.9,0,0,1,1.21-.38,1.56,1.56,0,0,1,1.24.46,2,2,0,0,1,.38,1.29v.27H20a4,4,0,0,0-3,.92,3.28,3.28,0,0,0-.89,2.41,2.83,2.83,0,0,0,.89,2.29,3.36,3.36,0,0,0,2.26.74,3.08,3.08,0,0,0,2.6-1.16,4.13,4.13,0,0,0,.75-1.6h.1l.39,2.55h2.54V48.17a4.31,4.31,0,0,0-1-3.1A4.56,4.56,0,0,0,21.26,44Zm.88,8a2.37,2.37,0,0,1-1.59.51,1.67,1.67,0,0,1-1.12-.29.78.78,0,0,1-.24-.33.76.76,0,0,1-.08-.39.82.82,0,0,1,.06-.38.81.81,0,0,1,.53-.53.89.89,0,0,1,.39-.06h2.66v.18a1.74,1.74,0,0,1-.15.71A1.54,1.54,0,0,1,22.14,51.92Z" style="fill:#fffdf9"/><path d="M41.1,44.22h-3v10.4h3Z" style="fill:#fffdf9"/><path d="M58.84,44.22a2.46,2.46,0,0,0-2,.9A4.48,4.48,0,0,0,56,47h-.09l-.39-2.81H53v10.4h3V49.29A1.84,1.84,0,0,1,58.2,47.2h1.14v-3Z" style="fill:#fffdf9"/><path d="M50,44.56a5.07,5.07,0,0,0-2.65-.63,5.31,5.31,0,0,0-4,1.44,5.38,5.38,0,0,0-1.42,4,6.22,6.22,0,0,0,.64,2.94,4.76,4.76,0,0,0,1.85,1.95,5.56,5.56,0,0,0,2.84.69,5.67,5.67,0,0,0,2.37-.44,3.79,3.79,0,0,0,1.52-1.2,5.25,5.25,0,0,0,.82-1.7l-2.59-.72a2.37,2.37,0,0,1-.61,1,2,2,0,0,1-1.47.44,2.26,2.26,0,0,1-1.82-.7A2.71,2.71,0,0,1,45,50.19h7.09a7.24,7.24,0,0,0,0-.74v-.64a5.8,5.8,0,0,0-.52-2.53A3.92,3.92,0,0,0,50,44.56Zm-2.74,1.85a1.87,1.87,0,0,1,2.07,1.8H45a2.37,2.37,0,0,1,.48-1.1A2.15,2.15,0,0,1,47.26,46.41Z" style="fill:#fffdf9"/><path d="M39.63,40a1.83,1.83,0,0,0-.66.11,1.81,1.81,0,0,0-.57.37,1.49,1.49,0,0,0-.37.55,1.69,1.69,0,0,0-.11.67,1.67,1.67,0,0,0,.11.66,1.76,1.76,0,0,0,.37.56,1.56,1.56,0,0,0,.57.37,1.49,1.49,0,0,0,.66.12,1.52,1.52,0,0,0,.66-.12,1.61,1.61,0,0,0,.56-.37,1.74,1.74,0,0,0,.36-.56,1.67,1.67,0,0,0,.11-.66,1.64,1.64,0,0,0-.11-.66,1.58,1.58,0,0,0-.36-.56,1.61,1.61,0,0,0-.56-.37,1.64,1.64,0,0,0-.66-.11Z" style="fill:#fffdf9"/><path d="M33.42,43.93a3.24,3.24,0,0,0-2.46,1,4.42,4.42,0,0,0-1,2.13h-.09l-.39-2.81H26.89V57.61h3V52.1H30a5.87,5.87,0,0,0,.39,1.06,3,3,0,0,0,1.19,1.34,3.47,3.47,0,0,0,1.78.43,3.24,3.24,0,0,0,2.87-1.47,7.3,7.3,0,0,0,1-4.11,7.12,7.12,0,0,0-1-4A3.17,3.17,0,0,0,33.42,43.93Zm.31,7.54a2.24,2.24,0,0,1-2.54.59,2,2,0,0,1-.72-.56,3.14,3.14,0,0,1-.58-2v-.2a3,3,0,0,1,.58-2,2,2,0,0,1,1.61-.68,1.9,1.9,0,0,1,1.66.72,3.49,3.49,0,0,1,.52,2,3.62,3.62,0,0,1-.53,2.1Z" style="fill:#fffdf9"/></svg>