<svg xmlns="http://www.w3.org/2000/svg" viewBox="0 0 64 64"><defs><style>.cls-1{fill:none;}.cls-2{fill:#0790e8;}.cls-3{fill:#fff;}</style></defs><title>Emails icon - Uncanny Automator</title><g id="Transparent_layer" data-name="Transparent layer"><rect class="cls-1" width="64" height="64"/></g><g id="Background"><g id="Layer_2" data-name="Layer 2"><rect class="cls-2" width="64" height="64" rx="8"/></g></g><g id="Email"><path class="cls-3" d="M49.88,15.5a4.12,4.12,0,0,1,2.47,7.42L33.65,37a2.76,2.76,0,0,1-3.3,0l-18.7-14a4.12,4.12,0,0,1,2.47-7.42ZM28.7,39.15a5.49,5.49,0,0,0,6.6,0l18.7-14V43a5.51,5.51,0,0,1-5.5,5.5h-33A5.5,5.5,0,0,1,10,43V25.12Z"/></g></svg>