<?xml version="1.0" encoding="UTF-8"?><svg xmlns="http://www.w3.org/2000/svg" viewBox="0 0 64 64"><defs><style>.cls-1{fill:none;}.cls-2{fill:#42251c;}.cls-3{fill:#f7c984;}.cls-4{fill:#d27b35;}.cls-5{fill:#f6646a;}.cls-6{fill:#b25d23;}</style></defs><g id="Layer_2"><rect class="cls-1" width="64" height="64"/></g><g id="Layer_1"><path class="cls-6" d="M5.19,24.63c-.33-.73-.54-2.11-.57-2.92-.04-1.18,1.79-2.79,2.81-3.24,3.89-1.74,7.28,1.24,8.28,4.9,1.67,6.07-2.22,11.84-1.76,17.9l.15,1.56c.16,0,.14.03.14-.11.04-.95.77-2.49,1.22-3.36.31-.59.71-1.27,1.07-1.84,2.14-3.34,5.46-5.93,6.72-9.81.16-.03.19.13.29.22.49.42.95.92,1.45,1.31l.57.48.52.25s.13.04.14.11c-.2.42-.45.8-.66,1.22-1.06,2.02-2.31,3.97-3.52,5.96-.71,1.17-1.47,2.32-2.14,3.53-.04.17-.22.53-.28.63-1.02,1.88-1.61,3.96-2.2,6.03,0,.02-.06.09-.06.09.05.37,0,.83-.15,1.24s0,.05,0,.07c.05.19.04.39.04.52.06,1.88.37,3.46.84,5.26.06.24,1.03,1.85.95,1.93-1.61-.25-3.4-.89-4.78-1.71s-.21-.13-.32-.25c-.56-.36-1.16-.86-1.67-1.31h-.08v-.07c-.05-.05-.09-.1-.13-.15l-.22-.22s-.05-.04-.07-.07l-.15-.15c-.12-.13-.23-.22-.36-.36l-.07-.07h0c-.53-.61-1.05-1.28-1.45-1.96-.11-.07-.16-.18-.21-.25-3.22-5.03-2.84-11.64-.1-16.79,1.46-2.73,3.82-8.19,1.99-10.57-.18-.23-.27-.42-.45-.6l-.07-.07s.01-.07,0-.07c-.82-.48-1.24-.54-2.09-.44s-.22.06-.39.08-.15.13-.13.13c.28.1.65.26.92.42.53.32.75.51,1.06,1.05s.16.16.13.24l.09.1s0,.06.01.08c.23.22.31.42.25.73.02.13.07.45.07.58l.07.47c.03.58-.07.94-.29,1.52s.04.35.04.37c-.04.1-.1.38-.26.43s-1.09-.06-1.28-.08c-.87-.13-1.61-.54-2.21-1.04-.03-.02-.11-.04-.15-.06-.19-.07-.16-.1-.29-.31-.13-.11-.18-.16-.29-.29-.11-.08-.13-.13-.15-.22-.22-.31-.68-.71-.83-1.05l.02.03Z"/><path class="cls-4" d="M39.76,45.6c.25.19.71.64.97.9,1.25,1.26,3.42,3.15,4.82,3.95-.19.25.03.61.08.71.11.22-.23,1.51-.35,1.78s.02.14-.13.11c-1.86-1.67-3.64-3.45-5.45-5.17-1.13-.07-2.22.42-3.35.51-1.07.07-2.29-.04-3.36-.19-.24-.04-.51-.07-.74-.16-.24-.4-.6-1-.92-1.43-.14-.19-.63-.63-.68-.78s-.02-.14.04-.13c.13.09.28.19.42.26,1.93,1.02,5.58,1.1,7.5-.04s.54-.51.74-.56.27.14.4.25h0Z"/><path class="cls-4" d="M39.76,45.4c.25.19.71.64.97.9,1.25,1.26,3.42,3.15,4.82,3.95-.19.25.03.61.08.71.11.22-.23,1.51-.35,1.78s.02.14-.13.11c-1.86-1.67-3.64-3.45-5.45-5.17-1.13-.07-2.22.42-3.35.51-1.07.07-2.29-.04-3.36-.19-.24-.04-.51-.07-.74-.16-.24-.4-.6-1-.92-1.43-.14-.19-.63-.63-.68-.78s-.02-.14.04-.13c.13.09.28.19.42.26,1.93,1.02,5.58,1.1,7.5-.04s.54-.51.74-.56.27.14.4.25h0Z"/><path class="cls-4" d="M24.76,2.78c2.45-2.01,5.01,1.86,5.62,3.94.06.2.28,1.44.38,1.44.17-.14.05-.35.22-.51s.57-.36.72-.45c.66-.39,1.4-.67,2.06-1.06.97-.59,1.78-1.38,2.68-2.05.13-.1.61-.68.75-.25.23.69-.82,1.66-1.23,2.14,1.38-.29,2.99-.83,4.35-.28-.14.89-1.5,1-2.25,1.09.07.15.28.22.41.28,1,.47,2.02.44,2.86-.31s.1-.28.25-.26c1.11.23,2.14.73,3.04,1.4,1.82,1.35,3,3.43,3.63,5.6.49,1.69.56,3.98,1.79,5.25.34.36.77.63,1.09,1.02s1.12,1.61.95,1.78l-.73-.29c.07,0,.16.04.14-.07-.19.02-.19-.17-.3-.28s-.33-.22-.42-.25c-.83-.3-.77-.36-1.7-.36l-1.58.46c-.62.32-1.15.8-1.79,1.08-.4-.19-.64-.65-1.12-.71-.09-1.12-1.73-1.5-2.65-1.53s-1.47.12-1.9.35c-.07.04-.68.5-.72.54-.13.15-.16.37-.17.56l-.1.21c-1.45-.31-2.56.85-3.9.95s-1.09.04-1.95-.36-.57-.25-.59-.25c-.01-.01-.04-.02-.31-.13l-.26-.1c-1.61-.63-3.25-.97-4.94-.42-.27.09-.7.17-.92.3-1.38.78-2.47,2.04-1.87,3.71,1.28,3.53,6.5,4.72,9.74,5.48l-2.03.87c-.06-.08-.47-.38-.57-.39s-.53-.01-.61-.01c-.86.05-1.56.24-2.46.03s-.58-.27-.81-.28-.11.25-.26.36l.22-.51c1.17.61,2.38.4,3.63.29.01,0-.16-.05-.18-.08-.04-.06-.34-.07-.44-.12-.86-.4-1.53-.45-2.4-.87l-1.73-.92c-.47-.29-.82-.63-1.21-1h-.16c-.18-.13-.04-.24-.25-.31-.02-.02-.07-.17-.09-.2-.04.15-.05.02-.15-.05l-.07-.16c-.34-.39-.48-.54-.73-1.02-.13.03-.19-.16-.22-.24-.44-.77-.69-1.64-.52-2.49.04-.19,0-.44.16-.62v-.07c.7-1.24.92-2.11,2.24-2.95.09-.06.28-.1.29-.1.08-.1.07-1.12.09-1.32.23-1.86.86-3.73,1.5-5.47.04-.13.19-.19-.06-.17.06-.04.4-.39.36-.43-.4-.14-.94-.28-1.24-.58.04.02.17.01.27.05.29.13.53.38.89.38-.04-.19-.12-.42-.07-.62s.39.06.15-.26c.15.12.32.33.47.14s.31-1.4.33-1.64c.14-1.89-.22-4.58-1.49-6.07-.4-.48-.9-.85-1.56-.8l-.07.07c-.07.02-.24-.06-.22.07.1,0,.2,0,.29.04.92.48,1.45,1.96,1.65,2.92s.24,1.96.24,2.92c-.13-.04-.21-.19-.29-.29.22.04.14-.11.15-.25.04-.86-.08-1.74-.27-2.57s-.8-2.7-1.99-2.7l.14-.07-.22-.15h0ZM47.07,12.6c.13-1.12-1.47-2.58-2.52-1.99s-.65.69-.68.78c-.06.16-.08.31-.07.48.1.09.93-.14,1.13-.15.44-.01,1.09.26,1.47.48s.56.5.66.39h0ZM35.3,12.16c.16-1.05-1.1-1.59-1.98-1.44s-2.16,1.41-1.86,2.4c.3,1,.07.12.16.11s.8-.66,1.01-.8c.89-.58,1.67-.6,2.67-.28h0ZM27.85,11.43v.07s.04-.05,0-.07ZM45.76,20.74s.06.07.17.07c.88-.02,1.46-.94,1.72-1.67.46-1.31.21-4.2-1.51-4.49-2.8-.48-2.67,3.94-1.47,5.47.36.46.51.57,1.09.62h0ZM32.1,20.59c.16.28.63.66.92.78s1.03.3,1.33.01c.28,0,.48-.04.73-.18.61-.33.96-.91,1.09-1.56.13-.07.25-.3.29-.44.12-.07.12-.2.16-.32.63-2.2-.69-4.56-3.19-3.85s-1.53.89-1.9,1.81c-.53,1.3-.35,2.67.57,3.74h0Z"/><path class="cls-5" d="M57.49,32.19c2.38,2.17,2.14,5.69.71,8.33-.83.11-1.88.41-2.1,1.33s.01.36-.03.44-.36.2-.46.3c-.22.22-.42.61-.46.92s.06.63.03.77c-.05.25-.4.38-.55.54-1.65,1.72-3.39,3.32-5.31,4.72-.22.16-.89.68-1.08.74-.67.21-1.26-.41-1.79-.77-1.59-1.09-2.98-2.24-4.37-3.56s-1.67-1.51-1.69-1.65.13-.31.14-.5c.03-.38-.15-.65-.15-.95,0-.63.18-.78-.13-1.47-.62-1.37-2.25-1.73-3.5-2.25-.13-.51-.33-1-.42-1.53-.82-5.55,4.75-8.56,9.1-4.96.7.58,1.14,1.38,1.74,2.04s.42.45.8.22l1.24-1.82c1.01-.82,1.71-1.63,3.01-2,1.85-.54,3.84-.19,5.25,1.1h.01ZM44.62,42.22c.74.51,1.41,1.56,2.13,2.05.54.36.89.37,1.43,0,1.51-1.58,3.01-3.19,4.52-4.78.48-.51,1.8-1.61,1.91-2.23s-.19-1.24-.78-1.44-.83-.09-1.2.19c-1.41,1.5-2.82,3-4.22,4.5-.13.13-.81,1-.88,1.01-.09.01-.12-.06-.18-.1-.51-.39-1.35-1.32-1.82-1.82-.38-.4-.68-1.02-1.35-1.12-1.03-.16-1.79.83-1.42,1.78.21.54,1.54,1.38,1.85,1.97h0Z"/><path class="cls-4" d="M5.36,24.66c-.38-.55-.55-1.34-.65-2.01-.63-4.59,2.33-8.84,6.61-10.31,4.15-1.43,9.26-.21,11.61,3.65.35.57.91,1.93.71,2.57,0,.04-.36.56-.4.61-.28.34-.63.61-.93,1.03-.73,1.02-1.66,3.15-.95,4.34.25.42.68.22.71.27s.06.5.11.65c.16.54.39,1.07.71,1.55.19.31.51.57.64.92-.1-.08-.13-.25-.29-.22-1.25,3.88-4.58,6.47-6.72,9.81s-.77,1.24-1.07,1.84c-.45.87-1.18,2.4-1.22,3.36s0,.11-.14.11l-.15-1.56c-.45-6.06,3.43-11.83,1.76-17.9-1-3.66-4.38-6.64-8.28-4.9-1.01.45-2.76,2.06-2.72,3.24s.32,2.22.65,2.95h0Z"/><path class="cls-3" d="M50.85,20.59c.07.04.37.25.4.28.11.11.06.32.25.3.02.11-.07.07-.14.07s-.22-.04-.22.04c.45,1.28.37,2.53-.16,3.77-1.03,2.4-3.95,4.35-6.46,4.92-.27.06-.78.19-1.02.22s-1.25-.27-1.7-.29c-2.17-.13-3.87.71-5.28,2.29s-1.85,4.35-1.31,6.5c-.63-.24-1.25-.83-1.63-1.38s-.71-1.35-.77-1.88-.14-1.5-.1-1.94c.05,0-.01-.04-.02-.1s0-.05-.01-.13c-.19-.57-.31-1.47-.65-1.98l2.03-.87c-3.24-.77-8.46-1.95-9.74-5.48-.6-1.67.51-2.96,1.89-3.74.77-.25,1.56-.51,2.37-.57.93-.07,2.23.26,3.12.57,1.06.37,2.01,1.06,3.2,1.02,1.19-.04,1.88-.77,2.8-.98s.91-.08,1.38-.18h.07c-.04.86.81,1.64,1.53,2,.42.22,1.06.17,1.02.71-.16,2.14-3.55,2.31-4.64.87-.32-.42-.15-1.06-.19-1.12-.12-.19-.77-.23-.99-.19-1.13.24-1.35,1.64.15,1.21.03.28.15.54.26.8.39.89,1.09,2.14,1.86,2.72,1.91,1.47,4.47.73,4.87-1.7,1.06-.07,2.05-.68,2.55-1.63.2-.38.42-1.11.16-1.5-.36-.53-.51.31-.6.48-.36.7-.76,1.32-1.52,1.61s-.76.25-1.11-.02-.07-.79.04-1.2.1-.69.12-.72c.04-.06.3-.01.4-.06.53-.24,1.35-1.04,1.5-1.63.05-.19.07-.36.05-.57.48.07.71.52,1.12.71.64-.28,1.18-.76,1.79-1.08,1.16-.61,2.13-.68,3.34-.15h-.03Z"/><path class="cls-4" d="M23.89,44.64s0-.04,0,0c1.2-.22,2.43-.15,3.59.22.78.25,1.89.94,2.52,1.48,2.38,2.08,3.32,5.92,2.05,8.88-.33.77-.56,1.03-1.1,1.62-.13-.13-.17.01-.25.07-1.9,1.18-4.82,1.18-6.77.09-4-2.25-4.73-8.61-1.19-11.6.21-.17.76-.46.86-.56s.08-.05.14-.12.03-.04.16-.08h0Z"/><path class="cls-6" d="M32.03,31.27c.35.51.47,1.41.65,1.98.02.07.04.07.04.13-.04,0,.03.04.02.07-.04.43.02,1.52.07,1.96-.08-.02-.1-.08-.15-.15v-1.48c-.07-.45-.73-.84-1.12-1.07-1.86-1.09-2.98-.81-4.22.89-1.7,2.32-1.15,5.45.51,7.62,1.7,2.22,4.23,3.18,6.96,3.35.17.01,1.02-.04,1.06,0,.2.17-.28.14-.29.15-.07.07.18.33-.36.14l.14.44-.29-.07c-.07.32.46,0,.51.22-2.4.09-4.78-.63-6.83-1.82-1-.7-2.29-1.91-2.92-2.95l-.43-1.47c-.11,0-.08.38-.07.48.01.25.09.51.12.77.11,1,.68,1.76,1.28,2.53.16.22.07.29.07.58-.4-.04,0,.27-.51.22-.05,0-.1-.01-.15-.07-.04,0-.94.26-.98.28-.42.2-.29.17-.75.31s-.36.3-.52.35c-.08.04-.11.02-.16.08s-.08.06-.14.12c-.1.1-.65.39-.86.56-3.54,3-2.81,9.36,1.19,11.6,1.95,1.09,4.86,1.09,6.77-.09.08-.05.13-.21.25-.07-.24.26-.65.8-.95.95.02-.22-.04-.17-.18-.07-.64.43-1.28.73-2.02.97s-1.47.31-1.66.49-.11,0-.07.14c.13-.04.22.05.29.07.36.11.6.06.98.07s.27-.05.25.07c-.95.25-1.94.54-2.69,1.2.75.46,1.53.89,2.18,1.49-1.68-.33-3.34-.83-4.87-1.6-.02-.02-.05-.04-.07-.07l-.07-.62.22-.83s0-.09.04-.14c.08-.1.39-.25.32-.36s-.11-.02-.18-.07c-.21-.16-.42-.33-.62-.51l.07-.07h-.15c-.22-.2-.4-.33-.58-.58s-.07-.33-.15-.15c-.45-.54-.89-1.13-1.24-1.74-.15-.13-.16-.2-.19-.26-2.34-4.62-.97-9.58,1.26-13.9,1.46-2.83,3.39-5.31,4.96-7.99.36-.61.92-2.02,1.39-2.37.15-.11.25-.53.28-.53.23,0,.84.31,1.06.36.9.21,1.68.01,2.54-.04.08,0,.32.07.39.08.1.01.47.34.52.42h.01Z"/><path class="cls-3" d="M32.61,47.91c.22.07.47.11.7.13,1.01.13,2.18.22,3.19.16,1.01-.06,2.11-.48,3.18-.42,1.72,1.46,3.41,2.95,5.18,4.35.14.03.27.06.31-.01.11-.22.53-1.34.42-1.53s-.42-.42-.69-.5c.1.04.57.52.58.62.02.2-.36,1.31-.45,1.58-.55,1.49-1.32,2.73-2.46,3.83-.13-.11-.17,0-.27.06-.39.2-.81.44-1.21.61-2.78,1.21-5.84,1.31-8.74.42-.2,0-.19.21-.27.27s-.11,0-.13.01c2.25-2.65,2.29-6.44.68-9.44s0-.14-.02-.16v.02Z"/><path class="cls-4" d="M32.68,35.27c-.16-.26-.29-.57-.58-.73v1.06c0,1.68,1.57,3.62,3.03,4.32,1.14.54,2.64.59,3.64,1.3.49.36.95,1.02.19,1.38-.06.03-.53.16-.57.16h-1.2c0,.22.46.4.65.47.42.16.79.12,1.15.23s.38.43.1.68c-.17.15-.86.43-1.07.43h-2l.16.16,1.37.56c-2.89.69-6.36.03-8.8-1.67,2.05,1.19,4.43,1.9,6.83,1.82-.04-.21-.58.1-.51-.22l.29.07-.14-.44c.54.19.3-.07.36-.14s.49.02.29-.15-.89.01-1.06,0c-2.74-.18-5.27-1.13-6.96-3.35-1.67-2.17-2.2-5.3-.51-7.62,1.24-1.7,2.37-1.99,4.22-.89s1.05.62,1.11,1.07v1.48h0Z"/><path class="cls-6" d="M48.67,54.26c-.74,1.47-2.11,2.28-3.37,3.09s-.82.46-.97.46-.01.13.13.14c.71.01,1.43-.03,2.14,0s.27-.05.25.07c-.27-.01-.49,0-.74.09-.4.15-1.89.91-2.16,1.18-.21.22-.44.64-.55.92l-3.62-.74-.13-.13.73-.29c.39-.08.69-.37,1.02-.58.31-.28.63-.51.97-.65s.53-.39.7-.55l.07-.04c.19-.18.56-.54.73-.73l.07-.07c.41-.48.65-1.29,1.08-1.71.15-.15.75-1.37.82-1.61.2-.72.42-1.63.6-1.8s0,0,.01,0c.02.04.09.18.11.19l.11-.02.1.1c.16.08.42.26.58.29.09-.03.21-.04.29,0h.15l.13-.07c.26.11.3-.04.45,0s.14-.15.19-.17c.27-.13.67-.49.92-.65.09,1.04-.35,2.38-.81,3.31v-.02Z"/><path class="cls-6" d="M24.76,2.78l.22.15-.14.07c1.18,0,1.76,1.74,1.99,2.7s.3,1.71.27,2.57.07.29-.15.25c-.02-.02-.08.01-.1-.01-.04-.05-.1-.09-.2-.12-.19-.05-.2-.11-.36-.01s-.13.06-.13.07c-.02.09-.15.16-.13.21.05.13.12.45.2.64s.09.27.18.39.28.51.33.58.05.05.07.07c.03.04.09.08.15.15.29.29.38.33.58.58.03.02.05.05.07.07.24.32-.13.16-.15.26-.04.2.04.42.07.62-.36,0-.36.13-.65,0s-.47-.42-.51-.44-.12-.04-.16-.06c-.19-.12-.25-.19-.43-.29s-.11-.07-.13-.09c-.28-.31-.54-.49-.76-.77s-.29-.34-.48-.68c.16-.04,0-.22-.04-.28-.75-1.31-.89-3.13-.59-4.6.09-.44.25-.88.42-1.29.25-.43.21-.42.58-.73h0Z"/><path class="cls-4" d="M46.01,7.55c-.93-.77-1.83-1.45-3.02-1.81-.19-.06-.83-.13-.85-.24s.07-.24.07-.36c.01-.89-.02-1.63.27-2.49.51-1.52,1.44-1.58,2.6-.6,1.44,1.23,1.99,3.59,1.55,5.39-.13.52-.28.38-.61.1h0Z"/><path class="cls-4" d="M26.36,59.39c1.95.07,5.13-.44,6.17,1.72s.44,1.16-.19,1.32c-.14.04-.07-.02-.11-.08-.1-.19-.13-.4-.21-.59-.28-.62-.77-1.3-1.52-1.24.46.6.78,1.31.8,2.07-.57.11-1.16.07-1.74.07,0-.78-.63-2-1.44-2.17-.07-.01-.38-.08-.31.09s.3.38.39.56c.22.43.37.97.3,1.44-1.21-.16-2.41-.42-3.58-.78s-2.19-.67-2.71-1.18c1.53.77,3.19,1.26,4.87,1.6-.65-.6-1.43-1.03-2.18-1.49.75-.66,1.74-.95,2.69-1.2.01-.13-.16-.07-.25-.07-.38-.01-.62.04-.98-.07h.01Z"/><path class="cls-4" d="M44.45,57.94c.07-.12.28-.07.4-.07,1.95-.02,5.25-.1,6.23,1.99.1.21.24.6.02.79-.31.26-.33-.25-.39-.36s-.19-.13-.24-.22c-.1-.15-.07-.35-.25-.54-.22-.25-.73-.42-1.02-.57l.65,1.16.1.8h-1.31c.04-.92-.7-1.71-1.58-1.87s-.25-.07-.24.05c.63.29.89,1.17.87,1.82-1.63-.13-3.27-.36-4.89-.68-1.21-.24-2.41-.58-3.62-.86l1.16-.36-.73.29.13.13,3.62.74c.11-.28.34-.7.55-.92.27-.28,1.76-1.03,2.16-1.18s.48-.1.74-.09c.01-.13-.16-.07-.25-.07-.71-.03-1.43.01-2.14,0h0ZM43.8,60.19c-.31-.04-.31.1,0,.07v-.07Z"/><path class="cls-4" d="M42.56,56.12c-.38.36-.41.63-.85.88-1.56.91-2.69,1.53-4.55,1.92-1.15.24-3.69.55-4.81.4s-1.52-.64-1.64-.73c-.23-.16.28-.36.36-.36.03-.01.13-.02.15-.05.09-.21.22-.27.39-.46.02-.02.24-.22.26-.25s.07-.05.11-.08c.08-.06-.03-.23.17-.24,2.89.89,6.14.85,8.92-.36.4-.17.82-.41,1.21-.61s.14-.16.27-.06h0Z"/><path class="cls-4" d="M56.57,43.42c.26-.07,1.6.4,1.68.69s-.34.7-.61.74c-.57.09-1.41-.24-1.4-.91,0-.18.16-.48.33-.53Z"/><path class="cls-4" d="M57.95,41.68c.53-.07,1.31.16,1.17.8-.16.73-1.51.6-1.88.02-.29-.45.33-.77.71-.82h0Z"/><path class="cls-4" d="M44.53,29.96c.65.15.97.46,1.44.83l.41.97c-.05.08-.24,0-.32-.03-.27-.1-.77-.6-1.07-.77s-.33-.18-.51-.24l-.71-.33c-.14-.06-.36-.04-.42-.22.28-.03.87-.16,1.18-.22h0Z"/><path class="cls-4" d="M24.4,9.69c-1.03-1.83-1.28-4.34-.22-6.18-.17.42-.32.85-.42,1.29-.31,1.47-.16,3.29.59,4.6s.19.24.04.28Z"/><path class="cls-4" d="M26.8,12.81c-.13.07-.43.17-.44.19-.12.22-.33,1.02-.41,1.32-.16.6-.28,1.22-.44,1.82s.04.28-.16.23c.24-1.11.58-2.2.89-3.29.09-.23.36-.21.57-.27h0Z"/><path class="cls-4" d="M22.14,60.55c-.32-.42-.24-.84-.01-1.29s.13-.13.16-.16l-.22.83.07.62h0Z"/><path class="cls-4" d="M26.14,59.18c.19-.18,1.31-.38,1.66-.49.74-.24,1.38-.54,2.02-.97s.2-.14.18.07c-.55.27-1.12.58-1.7.8-.67.25-1.44.49-2.14.58h0Z"/><path class="cls-4" d="M24.84,19.2c-.1.29-.35.43-.54.65l-.04-.07c.16-.19.27-.54.58-.58Z"/><path class="cls-4" d="M22.95,21.38c.17.14-.14.36-.2.49-.12.25-.22.6-.29.88s.04.28-.16.23c.09-.56.39-1.14.65-1.6h0Z"/><path class="cls-4" d="M21.78,57.94h.15l-.07.07s-.04-.05-.07-.07Z"/><path class="cls-4" d="M21.2,57.35c-.07-.02-.1-.09-.15-.15.07-.19.07.05.15.15Z"/><path class="cls-4" d="M26.07,29.96l-.52-.25-.57-.48c.34.27.77.48,1.09.73h0Z"/><path class="cls-4" d="M12.05,53.07c-.08-.07-.14-.14-.22-.22l.22.22Z"/><path class="cls-4" d="M11.76,52.78c-.05-.05-.1-.1-.15-.15l.15.15Z"/><path class="cls-4" d="M43.87,56.48s.05-.04.07-.07l-.07.07Z"/><path class="cls-4" d="M43.08,57.29s.04-.05.07-.07l-.07.07Z"/><path class="cls-4" d="M10.95,22.04s-.05-.04-.07-.07l.07.07Z"/><path class="cls-6" d="M27.23,12.6c.25-.01.1.04.06.17-.65,1.75-1.27,3.62-1.5,5.47-.03.22-.01,1.23-.09,1.32s-.2.05-.29.1c-1.32.86-1.54,1.71-2.24,2.95-.19.33-.57.78-.95.83.12-.13.04-.33.07-.48.21.04.13-.1.16-.23.07-.28.17-.63.29-.88s.37-.35.2-.49c.36-.62.85-1.06,1.31-1.6l.04.07c.2-.22.45-.36.54-.65s.08-.65.15-.89.14-.04.13-.08c-.04-.71.07-1.16.22-1.86.21.04.13-.1.16-.23.16-.6.28-1.23.44-1.82.08-.3.29-1.09.41-1.32s.32-.13.44-.19.4-.19.44-.22h0Z"/><path class="cls-2" d="M44.6,21.09c.01.2,0,.37-.05.57-.16.6-.97,1.39-1.5,1.63-.1.04-.36,0-.4.06s-.08.58-.12.72c-.1.4-.42.9-.04,1.2s.73.16,1.11.02c.76-.28,1.17-.9,1.52-1.61.09-.18.25-1.01.6-.48.26.39.04,1.12-.16,1.5-.5.95-1.49,1.55-2.55,1.63-.39,2.43-2.95,3.16-4.87,1.7-.76-.58-1.47-1.84-1.86-2.72-.11-.25-.23-.52-.26-.8-1.5.45-1.28-.97-.15-1.21.22-.04.87,0,.99.19s-.13.69.19,1.12c1.09,1.44,4.48,1.26,4.64-.87.04-.54-.59-.5-1.02-.71-.71-.36-1.56-1.15-1.53-2s.04-.41.17-.56.65-.51.72-.54c.44-.23,1.41-.37,1.9-.35.92.04,2.56.41,2.65,1.53h.03ZM38.84,26.85c-.72.11-.34.5.07.77.52.34,1.46.57,2.01.22s-.83-.97-1.23-1c-.25-.02-.6-.01-.85.02h0Z"/><path class="cls-2" d="M47.65,19.14c.03-.8.03-1.48-.28-2.23-.65-1.58-2.25-2.11-2.92-.24.5-.03,1.03-.27,1.48.01,1.33.83,1.19,3.3-.17,4.06-.57-.05-.72-.16-1.09-.62-1.2-1.53-1.33-5.95,1.47-5.47,1.72.29,1.97,3.18,1.51,4.49h-.01Z"/><path class="cls-2" d="M36.17,19.64c-.13.65-.48,1.24-1.09,1.56s-.45.18-.73.18c-1.01,0-1.75-1.2-1.75-2.14,0-1.21.95-2.83,2.35-2.34,1.04.36,1.4,1.78,1.21,2.75Z"/><path class="cls-2" d="M27.6,11.14s-.04-.05-.07-.07c-.22-.19-.39-.36-.58-.58s-.12-.11-.15-.15l-.07-.07c-.05-.07-.25-.43-.36-.58-.15-.35-.36-.7-.36-1.09.03-.04.12-.05.15-.15.13-.28.51-.13.73,0,.02.02.05.04.07.07.08.1.16.25.29.29,0-.96-.04-1.98-.24-2.92s-.74-2.45-1.65-2.92-.19-.04-.29-.04c-.01-.13.14-.05.22-.07s.05-.07.07-.07c.66-.05,1.16.32,1.56.8,1.26,1.49,1.63,4.18,1.49,6.07-.01.24-.23,1.51-.33,1.64-.16.19-.32-.03-.47-.14h0Z"/><path class="cls-2" d="M36.46,19.2c.35-1.21-.5-3.15-1.88-3.33-2.29-.3-3.46,3.05-2.49,4.7-.92-1.06-1.1-2.43-.57-3.74.37-.92.93-1.53,1.9-1.81,2.5-.72,3.82,1.64,3.19,3.85s-.03.25-.16.32Z"/><path class="cls-2" d="M35.3,12.16c-.99-.33-1.79-.31-2.67.28s-.89.8-1.01.8-.13-.04-.16-.11c-.31-1,.92-2.24,1.86-2.4s2.14.39,1.98,1.44h0Z"/><path class="cls-2" d="M47.07,12.6c-.1.11-.54-.32-.66-.39-.38-.22-1.03-.5-1.47-.48s-1.03.24-1.13.15c-.01-.16,0-.32.07-.48s.61-.74.68-.78c1.06-.6,2.65.86,2.52,1.99h0Z"/><path class="cls-6" d="M27.85,11.43s.04.05,0,.07v-.07Z"/><path class="cls-6" d="M25.27,2.86l.07-.07s-.05.07-.07.07Z"/><path class="cls-4" d="M26.8,10.34s-.04-.04-.07-.07l.07.07Z"/><path class="cls-6" d="M43.8,60.19v.07c-.31.04-.31-.1,0-.07Z"/><path class="cls-5" d="M38.84,26.85c.25-.04.6-.04.85-.02.39.04,2,.52,1.23,1s-1.5.13-2.01-.22c-.41-.27-.79-.66-.07-.77h0Z"/><path class="cls-2" d="M47.07,30.18c-.11.12.16.19.22.25.47.43.95.92,1.24,1.5.11.07.43-.34.54-.43,3.06-2.54,7.17-2.87,9.92.33,2.08,2.43,2.02,6.21.58,8.94,0,.19.19.19.27.28.58.65.73,1.6.28,2.37-.14.23-.52.54-.57.66s-.01.31-.05.45c-.39,1.45-1.85,2.04-3.25,1.69-.23-.06-.61-.3-.8-.22s-.86.87-1.09,1.09c-1.15,1.06-2.36,2.06-3.6,3.01-.09.65,0,1.32-.07,1.96-.17,1.53-.9,2.92-1.89,4.07-.13.16-.64.57-.69.69s.04.1.11.1c1.46.27,3.02.98,3.8,2.31.9,1.53.28,2.47-1.33,2.85-2.72.64-8.08-.47-10.87-1.18-.74-.19-2.1-.74-2.78-.71-.49.02-1.09.18-1.6.22-.58.05-1.19,0-1.78.07.11.28.26.48.34.78.12.47.19.97-.09,1.39-.29.42-.7.75-1.18.93-2.6,1.02-7.13-.02-9.68-1.03-1.36-.54-2.54-1.14-2.32-2.83s.31-.74.28-.86-.67-.65-.77-.7c-.25-.13-1.87-.31-2.34-.42-9.17-2.14-13.14-11.49-11.17-20.22.68-3.04,2.08-5.78,3.38-8.57-1.77-.07-3.59-.73-4.8-2.07-2.63-2.92-2.33-7.63-.39-10.86,3.89-6.51,13.51-7.84,18.52-1.89l.92,1.38c-.06-.48,1-2.86.94-3.07s-.51-.39-.65-.52c-2.37-2.14-3.17-5.89-1.76-8.81,2.14-4.41,6.67-1.84,8.16,1.6.09.21.45,1.42.53,1.43.86-.46,1.72-.97,2.5-1.57.74-.57,1.99-1.93,2.88-2.06,1.24-.17,1.79.77,1.48,1.88.86-.12,1.68-.23,2.47.22-.04-2.13.67-5.23,3.49-4.47,2.73.74,4.03,4.79,3.45,7.31-.08.36-.53,1.32-.46,1.55,1.06,1.34,1.71,2.97,2.15,4.61.3,1.11.54,3.33,1.22,4.16.34.42.86.74,1.24,1.16.8.91,1.62,2.43,1.49,3.67-.08.78-.64.49-.77.68s-.13,1.07-.2,1.32c-.65,2.47-2.94,4.45-5.16,5.52-.09.04-.26.04-.27.06h0ZM46.01,7.55c.33.28.48.42.61-.1.45-1.8-.1-4.16-1.55-5.39-1.17-.99-2.08-.92-2.6.6-.29.86-.25,1.61-.27,2.49-.02.89-.08.3-.07.36.02.11.66.19.85.24,1.19.36,2.09,1.04,3.02,1.81h0ZM24.76,2.78c-.37.31-.33.3-.58.73-1.06,1.84-.8,4.35.22,6.18.19.34.25.38.51.65.31.36.38.39.74.75s.04.04.07.05c.22.16.31.24.51.36s.1.05.15.07c.3.31.83.44,1.24.58.04.05-.31.39-.36.43s-.33.16-.44.22c-.2.06-.41.23-.51.46-.31,1.09-.57,1.97-.81,3.08-.15.7-.4,1.2-.36,1.91s-.07.31-.09.37c-.07.25-.11.3-.2.57-.22.45-.38.46-.54.65-.46.54-.98.91-1.35,1.53s-.57,1.04-.65,1.6.05.34-.07.48c.37-.05.76-.51.95-.83v.07c-.26,1.18.03,2.31.58,3.34.25.48.39.63.73,1.02s.15.14.22.22.05.04.07.07c.15.16.28.29.44.44.39.36.69.58,1.16.87,1.46.91,3.08,1.47,4.73,1.96.02.03.08.13.07.14-1.25.11-2.46.32-3.63-.29l-.22.51c-.48.35-1.1,1.73-1.46,2.34-1.57,2.69-3.33,5.22-4.79,8.04-.43.63-.8,1.35-1.1,2.06-1.69,3.87-2.25,8.21-.13,12.04.34.61.78,1.21,1.24,1.74s.07.12.15.15c.18.25.36.39.58.58s.04.05.07.07c.2.18.41.34.62.51s.17.07.18.07c.08.11-.23.27-.32.36s-.03.12-.04.14c-.02.04-.11.06-.16.16-.22.45-.31.87.01,1.29s.05.05.07.07c.52.51,1.97.96,2.71,1.18,1.17.36,2.37.62,3.58.78.07-.48-.08-1.01-.3-1.44s-.35-.46-.39-.56c-.07-.17.23-.1.31-.09.8.16,1.44,1.38,1.44,2.17.58,0,1.17.04,1.74-.07-.02-.76-.33-1.48-.8-2.07.75-.06,1.24.63,1.52,1.24.09.19.1.4.21.59s-.02.12.11.08c.63-.16.38-.92.19-1.32-1.03-2.15-4.22-1.65-6.17-1.72-.07-.02-.16-.12-.29-.07-.04-.14.04-.12.07-.14.71-.09,1.48-.33,2.14-.58.59-.22,1.15-.54,1.7-.8.3-.15.71-.68.95-.95.54-.59.77-.86,1.1-1.62,1.27-2.97.33-6.79-2.05-8.88s-1.73-1.24-2.52-1.48c-1.17-.37-2.4-.45-3.59-.22,0-.04.07-.06.07-.07.16-.05.26-.22.36-.29.31-.09.6-.26.91-.36s.51-.13.77-.22c.04,0,.1,0,.15,0s.01.06.15.07c.51.04.11-.26.51-.22,0-.29-.27-.51-.44-.73-.45-.73-.7-1.52-.95-2.32-.03-.26-.07-.58-.07-.83s-.04-.48.07-.48c.19.65.53,1.31.87,1.89.62,1.04,1.47,1.85,2.47,2.54,2.43,1.7,5.9,2.37,8.8,1.67l-1.37-.56-.16-.16h2c.21,0,.9-.28,1.07-.43.28-.25.3-.56-.1-.68s-.73-.07-1.15-.23-.65-.25-.65-.47h1.2s.51-.13.57-.16c.76-.36.31-1.03-.19-1.38-1-.71-2.5-.77-3.64-1.3-1.45-.68-3.03-2.63-3.03-4.32v-1.06c.29.16.42.46.58.73s.06.12.15.15c.06.53.46,1.44.77,1.88s1,1.15,1.63,1.38c-.55-2.16-.21-4.79,1.31-6.5s3.11-2.43,5.28-2.29c.45.03,1.39.33,1.7.29.06.19.25.16.36.22.36.17.71.39,1.09.51.26.18.86.73,1.09.83s.25.08.29,0l-.58-.95c-.4-.37-.67-.68-1.24-.83,2.51-.56,5.43-2.52,6.46-4.92.53-1.24.6-2.49.16-3.77,0-.07.15-.03.22-.04l.73.29c.16-.17-.77-1.57-.95-1.78-.33-.39-.74-.66-1.09-1.02-1.24-1.27-1.3-3.56-1.79-5.25-.63-2.17-1.81-4.25-3.63-5.6-.9-.67-1.93-1.17-3.04-1.4-.14,0-.13.16-.25.26-.85.76-1.85.78-2.86.31-.14-.07-.34-.13-.41-.28.74-.09,2.11-.19,2.25-1.09-1.37-.55-2.97,0-4.35.28.41-.47,1.46-1.44,1.23-2.14-.14-.43-.62.14-.75.25-.9.66-1.7,1.46-2.68,2.05-.66.4-1.39.68-2.06,1.06-.14.08-.64.36-.72.45-.16.16-.04.37-.22.51-.1,0-.32-1.24-.38-1.44-.61-2.08-3.17-5.95-5.62-3.94h0ZM23.53,27.92c-.13-.35-.45-.62-.64-.92-.31-.48-.54-1-.71-1.55s-.09-.63-.11-.65c-.04-.04-.46.16-.71-.27-.71-1.19.22-3.31.95-4.34.3-.42.65-.68.93-1.03s.39-.58.4-.61c.2-.63-.36-2-.71-2.57-2.35-3.85-7.46-5.07-11.61-3.65-4.28,1.47-7.23,5.71-6.61,10.31.09.66.26,1.45.65,2.01.16.34.43.71.65,1.02s.07.13.15.22c.11.13.16.18.29.29s.23.21.36.29c.02.02.04.05.07.07.74.61,2.27,1.07,3.22,1.06s.36-.13.41-.48,0-.05,0-.07c.22-.63.33-1.51.29-2.18s-.05-.45-.07-.58c-.04-.22-.14-.57-.29-.73,0-.02,0-.05,0-.07-.05-.1-.14-.07-.15-.07,0-.01,0-.18-.05-.27-.31-.55-.53-.74-1.06-1.05s-.64-.32-.92-.42c0-.01.05-.12.07-.14.95-.25,1.73-.21,2.54.36.01.01-.01.06,0,.07.02.02.05.05.07.07.18.18.34.3.51.51,1.16,1.87.76,4.24.07,6.21-.86,2.5-2.28,4.81-3.1,7.36-1.55,4.82-1.32,9.72,1.29,14.12.41.68.92,1.35,1.45,1.96.02.02.05.04.07.07.13.15.25.24.36.36s.1.1.15.15.05.05.07.07c.07.07.14.14.22.22s.09.09.15.15.04.05.07.07c.51.45,1.11.95,1.67,1.31,1.47.94,3.28,1.7,5.02,1.89-.71-1.03-1.15-2.34-1.42-3.56s-.36-2.67-.33-4.07v-.07c.07-.2.13-.55.14-.77,0-.16-.01-.32,0-.47s0-.05,0-.07c.21-.61.31-1.25.49-1.88.48-1.65,1.24-3.3,2.05-4.81.66-1.22,1.42-2.37,2.14-3.53,1.21-1.98,2.46-3.94,3.52-5.96.22-.41.46-.8.66-1.22-.01-.07-.1-.08-.14-.11-.32-.25-.75-.46-1.09-.73-.51-.39-.97-.89-1.45-1.31h-.01ZM57.49,32.19c-1.42-1.29-3.41-1.64-5.25-1.1-1.29.38-2,1.19-3.01,2l-1.24,1.82c-.39.22-.54.06-.8-.22-.6-.66-1.04-1.45-1.74-2.04-4.35-3.6-9.92-.6-9.1,4.96.07.53.28,1.02.42,1.53,1.25.52,2.89.89,3.5,2.25.31.68.13.84.13,1.47s.18.57.15.95-.15.45-.14.5c.03.14,1.47,1.44,1.69,1.65,1.39,1.31,2.78,2.46,4.37,3.56.52.36,1.12.97,1.79.77s.86-.58,1.08-.74c1.91-1.4,3.65-3,5.31-4.72.15-.15.49-.29.55-.54s-.06-.52-.03-.77.24-.7.46-.92.45-.28.46-.3c.04-.08,0-.31.03-.44.22-.92,1.27-1.22,2.1-1.33,1.42-2.65,1.67-6.17-.71-8.33h-.01ZM57.95,41.68c-.39.05-1,.37-.71.82.37.57,1.71.71,1.88-.02.14-.64-.64-.87-1.17-.8h0ZM56.57,43.42c-.18.05-.33.35-.33.53,0,.67.83,1,1.4.91s.7-.45.61-.74-1.42-.77-1.68-.69ZM39.74,45.87c-.09-.13-.29-.42-.47-.36s-.1.16-.17.22c-.91.69-2.56.97-3.68,1.02s-2.61-.31-3.89-.59c-.13-.06-.28-.14-.4-.22-.05-.01-.05.07-.04.1.05.13.51.49.65.65.31.36.65.86.87,1.2s0,.1.02.16c1.61,2.99,1.58,6.78-.68,9.44-.03.02-.04.05-.07.07-.23.21-.45.42-.65.65-.03.01-.11-.01-.15,0-.16.09-.31.17-.36.36.28.04.6.14.87.25s.54.35.71.39c.39.09,1.56.04,2.02.01,2.31-.1,5.13-.77,7.05-2.11.09-.06.22-.05.18-.22.44-.26.64-.43,1.02-.8,1.14-1.1,1.9-2.34,2.46-3.83.1-.27.48-1.38.45-1.58s-.48-.57-.58-.62c-1.33-.68-3.05-2.4-4.24-3.46-.25-.22-.68-.59-.92-.75h.01ZM48.52,51.69s-.11.06-.15.07c-.19.07-.38.07-.58.07s-.1,0-.15,0c-.09,0-.21.01-.29,0-.16-.04-.42-.21-.58-.29s-.16-.04-.22-.07-.07.01-.07,0,0-.29-.11-.07-.19.86-.29,1.16c-.26.78-.67,1.5-.97,2.25-.42.42-.75,1.12-1.16,1.6-.02.02-.05.04-.07.07-.17.19-.53.54-.73.73s-.04.05-.07.07c-.17.16-.54.43-.73.58-.33.16-.64.38-.95.58-.33.21-.62.5-1.02.58l-1.16.36c1.21.28,2.4.62,3.62.86,1.61.31,3.26.54,4.89.68.01-.65-.24-1.53-.87-1.82-.01-.13.16-.07.24-.05.88.16,1.63.96,1.58,1.87h1.31l-.1-.8-.65-1.16c.3.16.8.33,1.02.57.17.19.15.39.25.54s.18.09.24.22.07.62.39.36c.22-.18.07-.57-.02-.79-.97-2.08-4.28-2.01-6.23-1.99-.12,0-.33-.04-.4.07-.14,0-.28.04-.22-.15.31-.11.72-.26.95-.51,1.33-.68,2.6-1.5,3.34-2.98.6-.95.99-2.14.91-3.27l-.91.65h0Z"/></g></svg>