<?xml version="1.0" encoding="UTF-8"?><svg xmlns="http://www.w3.org/2000/svg" viewBox="0 0 64 64"><defs><style>.cls-1{fill:none;}.cls-2{fill:#d1a3f5;}.cls-3{fill:#eee0fa;}.cls-4{fill:#1d1d1d;}</style></defs><g id="Layer_2"><rect class="cls-1" width="64" height="64"/></g><g id="Layer_1"><path class="cls-4" d="M59.35,14.37l4.55,10.95-5.66,3.24.22,6.66,5.37,3.26.05.66-4.25,10.37-6.69-1.09-4.55,4.45,1.02,6.57-10.65,4.48-3.45-5.19-6.17-.15c-1.17.22-2.62,4.24-3.61,5.11-.27.24-.43.4-.83.26l-10.3-4.45,1.01-6.71-4.16-4.29c-1.36-.51-5.9,1.7-6.77.78L.1,38.6l5.29-3.49c.32-.64-.17-2.46-.17-3.47,0-.79.46-1.63.33-2.39-.2-1.15-4.68-2.75-5.39-3.98l4.2-10.89,6.67,1.14,4.56-4.45-1.06-6.48L24.95.23c.87,0,3.12,4.44,3.81,5.35.25.15,5.24.17,5.8.06,1.36-.26,3-4.63,4.2-5.64l10.55,4.43-.7,6.71,3.86,4.28c1.01.62,5.5-.95,6.89-1.04ZM59.05,14.97c-.27-.2-5.43,1.58-6.59,1.04-.29-.13-4.37-4.27-4.46-4.58l.7-6.71L39.07.6c-.73.06-3.01,5.5-4.22,5.65l-6.45-.46-3.49-4.91-9.75,4.01.94,6.62-4.76,4.61-6.67-1.14L.77,24.51c-.15.49.11.67.4.98.6.65,4.92,2.83,4.99,3.21l-.16,6.71-5.3,3.49,4.07,9.76c.83.88,5.34-1.16,6.72-.86l4.52,4.98-1.03,6.4,9.7,4.16c1.13.11,2.99-5.15,4.15-5.37.62-.12,6.42-.11,6.71.06l3.51,5.28,9.73-4.18-1.01-6.56,4.57-4.46,6.98.81,3.9-9.51c.13-.39,0-.56-.25-.83-.93-.97-4.84-2.21-5.11-3.61-.38-1.97.41-4.66-.29-6.73l5.69-3.06-4.23-10.2Z"/><path class="cls-3" d="M59.05,14.97l4.23,10.2-5.69,3.06c.7,2.07-.1,4.77.29,6.73.27,1.4,4.18,2.64,5.11,3.61.26.27.39.44.25.83l-3.9,9.51-6.98-.81-4.57,4.46,1.01,6.56-9.73,4.18-3.51-5.28c-.29-.17-6.09-.18-6.71-.06-1.16.22-3.02,5.48-4.15,5.37l-9.7-4.16,1.03-6.4-4.52-4.98c-1.38-.3-5.89,1.74-6.72.86L.71,38.9l5.3-3.49.16-6.71c-.07-.37-4.39-2.56-4.99-3.21-.29-.31-.55-.5-.4-.98l3.9-9.53,6.67,1.14,4.76-4.61-.94-6.62L24.9.89l3.49,4.91,6.45.46c1.21-.15,3.49-5.6,4.22-5.65l9.63,4.13-.7,6.71c.09.31,4.17,4.44,4.46,4.58,1.15.53,6.31-1.25,6.59-1.04ZM48.74,15.37C36.17,2.7,14.06,8.31,9.3,25.49c-5.52,19.91,15.02,36.88,33.49,27.48,14.05-7.15,17.06-26.39,5.95-37.6Z"/><path class="cls-4" d="M48.74,15.37c11.12,11.21,8.1,30.45-5.95,37.6C24.32,62.37,3.78,45.41,9.3,25.49,14.06,8.31,36.17,2.7,48.74,15.37ZM30.14,9.04c-15.81,1.31-25.57,17.71-19.24,32.29,6.77,15.59,28,18.43,38.84,5.35,12.89-15.55.53-39.31-19.6-37.65Z"/><path class="cls-2" d="M30.14,9.04c20.13-1.67,32.49,22.1,19.6,37.65-10.84,13.08-32.07,10.24-38.84-5.35-6.33-14.58,3.43-30.98,19.24-32.29ZM40.73,26.7c2.03-15.72-19.33-15.55-17.44,0-1.4-.05-2.87-.31-3.25,1.42-.53,2.38-.33,13.66-.08,16.49.13,1.46.41,2.07,1.96,2.25,6.4-.45,13.56.58,19.87,0,.78-.07,1.39-.13,1.96-.74l.27-18.06c-.45-1.61-1.9-1.43-3.3-1.36Z"/><path class="cls-4" d="M40.73,26.7c1.4-.07,2.86-.25,3.3,1.36l-.27,18.06c-.57.61-1.18.67-1.96.74-6.31.57-13.47-.46-19.87,0-1.56-.18-1.83-.79-1.96-2.25-.25-2.84-.45-14.11.08-16.49.38-1.72,1.85-1.47,3.25-1.42-1.88-15.55,19.47-15.72,17.44,0ZM40.13,26.69v-4.66c0-.53-.86-2.16-1.2-2.71-3.18-5.17-10.64-5.15-13.78.07-.24.4-1.26,2.4-1.26,2.65v4.66h1.51c-1.25-6.08,3.9-12.17,10.01-8.66,1.15.66,3.22,3.02,3.22,4.3v4.36h1.5ZM38.02,26.69v-4.66c0-.11-.9-1.7-1.07-1.94-2.55-3.51-8.08-3.25-10.19.6-.16.29-.77,1.48-.77,1.64v4.36h12.03ZM21.33,27.3c-.54.39-.68.7-.77,1.34-.39,2.9-.38,13.36,0,16.27.06.42.07.78.44,1.07l21.83.12c.14-.07.61-.54.61-.6v-17.74l-.45-.45h-21.65Z"/><path class="cls-3" d="M21.33,27.3h21.65l.45.45v17.74c0,.05-.46.53-.61.6l-21.83-.12c-.37-.29-.38-.65-.44-1.07-.38-2.91-.39-13.37,0-16.27.09-.64.22-.95.77-1.34ZM35.31,43.84c.68-1.99-1.26-4.91-1.17-6.48.03-.59.94-1.36,1.11-2.16.87-4.08-4.2-6.11-6.07-2.76-1.59,2.83.7,3.51.74,4.92.06,1.84-1.74,4.41-1.22,6.48h6.62Z"/><path class="cls-2" d="M38.02,26.69h-12.03v-4.36c0-.16.61-1.34.77-1.64,2.11-3.85,7.64-4.11,10.19-.6.17.24,1.07,1.83,1.07,1.94v4.66Z"/><path class="cls-3" d="M40.13,26.69h-1.5v-4.36c0-1.28-2.07-3.64-3.22-4.3-6.11-3.5-11.26,2.58-10.01,8.66h-1.51v-4.66c0-.24,1.02-2.25,1.26-2.65,3.14-5.21,10.6-5.23,13.78-.07.34.55,1.2,2.18,1.2,2.71v4.66Z"/><path class="cls-4" d="M35.31,43.84h-6.62c-.52-2.07,1.28-4.64,1.22-6.48-.04-1.41-2.33-2.09-.74-4.92,1.88-3.35,6.94-1.32,6.07,2.76-.17.8-1.07,1.57-1.11,2.16-.09,1.57,1.86,4.49,1.17,6.48ZM29.3,43.24c.71-.25,5.64.6,5.7-.14-.05-1.4-1.77-5.5-1.34-6.46.2-.43.81-.66.99-1.43,1.03-4.38-4.49-5.2-5.29-1.68-.53,2.32,1.15,2.61,1.16,3.83.01.98-1.8,5.29-1.23,5.88Z"/><path class="cls-2" d="M29.3,43.24c-.58-.59,1.24-4.9,1.23-5.88-.01-1.22-1.69-1.51-1.16-3.83.8-3.52,6.31-2.7,5.29,1.68-.18.76-.79,1-.99,1.43-.43.96,1.29,5.06,1.34,6.46-.06.74-4.98-.1-5.7.14Z"/></g></svg>