<?xml version="1.0" encoding="UTF-8"?><svg id="a" xmlns="http://www.w3.org/2000/svg" xmlns:xlink="http://www.w3.org/1999/xlink" viewBox="0 0 64 64"><title>wpDiscuz icon - Uncanny Automator</title><defs><radialGradient id="b" cx="32" cy="32" fx="32" fy="32" r="32" gradientUnits="userSpaceOnUse"><stop offset="0" stop-color="#000"/><stop offset=".34" stop-color="#010101"/><stop offset=".48" stop-color="#080808"/><stop offset=".58" stop-color="#151515"/><stop offset=".66" stop-color="#262626"/><stop offset=".73" stop-color="#3d3d3d"/><stop offset=".79" stop-color="#595959"/><stop offset=".85" stop-color="#7a7a7a"/><stop offset=".9" stop-color="#a1a1a1"/><stop offset=".95" stop-color="#cbcbcb"/><stop offset="1" stop-color="#fbfbfb"/><stop offset="1" stop-color="#fff"/></radialGradient></defs><circle cx="32" cy="32" r="32" style="fill:url(#b); stroke-width:0px;"/><circle cx="32" cy="32" r="29" style="fill:#07b290; stroke-width:0px;"/><path d="M53.64,31.98c0,11.81-9.43,21.38-21.06,21.38-4.16,0-8.61-.79-12.13-3.52-2.98.47-12.69,2.73-12.69,2.73l6.66-9.73c-1.85-3.18-2.91-6.89-2.91-10.86,0-11.81,9.43-21.38,21.06-21.38s21.06,9.57,21.06,21.38h0Z" style="fill:#fff; stroke-width:0px;"/><polygon points="18.42 23.81 23.82 23.81 26.82 35.05 30.47 23.81 34.99 23.81 38.28 35.05 41.71 23.81 46.89 23.81 41.05 42.56 35.72 42.56 32.57 31.91 29.15 42.56 23.75 42.56 18.42 23.81" style="fill:#07b290; stroke-width:0px;"/></svg>