<svg xmlns="http://www.w3.org/2000/svg" viewBox="0 0 64 38.1"><defs><style>.a{fill:#9b5c8f;fill-rule:evenodd;}.b{fill:#fff;}</style></defs><title>WooCommerce icon - Uncanny Automator</title><path class="a" d="M5.94,13H58a6,6,0,0,1,6,6V38.8a6,6,0,0,1-6,6H39.35l2.57,6.28L30.64,44.77H6a6,6,0,0,1-6-6V18.92a5.94,5.94,0,0,1,5.94-6Z" transform="translate(0 -12.95)"/><path class="b" d="M3.46,18.37a2.1,2.1,0,0,1,1.65-.81,1.91,1.91,0,0,1,2.28,1.88c.81,5.47,1.7,10.1,2.64,13.89l5.73-10.91a2.52,2.52,0,0,1,2-1.57c1.16-.07,1.86.66,2.15,2.2a48.06,48.06,0,0,0,2.49,9c.68-6.65,1.83-11.43,3.45-14.39a2,2,0,0,1,1.73-1.15,2.3,2.3,0,0,1,1.65.52A2.09,2.09,0,0,1,30,18.47a2.34,2.34,0,0,1-.27,1.26c-1,1.88-1.85,5.05-2.53,9.44a49,49,0,0,0-.74,10,3.06,3.06,0,0,1-.31,1.73,1.66,1.66,0,0,1-1.39.94,2.62,2.62,0,0,1-2.06-1Q19,37.12,16.91,29.7q-2.55,5-3.76,7.53c-1.55,3-2.86,4.48-4,4.56-.7.05-1.3-.55-1.83-1.81q-2-5.15-4.31-19.86a2.35,2.35,0,0,1,.41-1.75Zm56.26,4.11a6,6,0,0,0-4.19-3,7.09,7.09,0,0,0-1.41-.16c-2.51,0-4.55,1.31-6.15,3.93a13.85,13.85,0,0,0-2,7.38,10.12,10.12,0,0,0,1.26,5.18,6,6,0,0,0,4.18,3,6.58,6.58,0,0,0,1.42.16c2.53,0,4.57-1.31,6.14-3.92a14,14,0,0,0,2-7.41A9.85,9.85,0,0,0,59.72,22.48Zm-3.3,7.24a6.91,6.91,0,0,1-2,3.88,2.49,2.49,0,0,1-2.11.83c-.63-.13-1.16-.68-1.55-1.7a6.71,6.71,0,0,1-.47-2.38,9.17,9.17,0,0,1,.18-1.91,8.46,8.46,0,0,1,1.39-3.11c.86-1.28,1.78-1.81,2.72-1.62.63.13,1.15.68,1.55,1.7a6.71,6.71,0,0,1,.47,2.38,10.7,10.7,0,0,1-.19,1.93ZM43.31,22.48a6.06,6.06,0,0,0-4.18-3,7.27,7.27,0,0,0-1.42-.16c-2.51,0-4.55,1.31-6.14,3.93a13.85,13.85,0,0,0-2,7.38,10.11,10.11,0,0,0,1.25,5.18,6,6,0,0,0,4.19,3,6.49,6.49,0,0,0,1.41.16C38.92,39,41,37.65,42.53,35a14.06,14.06,0,0,0,2-7.41A9.85,9.85,0,0,0,43.31,22.48ZM40,29.72a7,7,0,0,1-2,3.88,2.52,2.52,0,0,1-2.12.83c-.63-.13-1.15-.68-1.54-1.7a6.52,6.52,0,0,1-.48-2.38,9.17,9.17,0,0,1,.19-1.91,8.43,8.43,0,0,1,1.38-3.11c.87-1.28,1.78-1.81,2.73-1.62.62.13,1.15.68,1.54,1.7a6.71,6.71,0,0,1,.47,2.38A9.17,9.17,0,0,1,40,29.72Z" transform="translate(0 -12.95)"/></svg>