<svg xmlns="http://www.w3.org/2000/svg" viewBox="0 0 64 64"><defs><style>.cls-1{fill:none;}.cls-2{fill:#395360;}.cls-10,.cls-2,.cls-4,.cls-5,.cls-6,.cls-7,.cls-8,.cls-9{fill-rule:evenodd;}.cls-3{fill:#fbaa6f;}.cls-4{fill:#dc7f3c;}.cls-5{fill:#bdcfc8;}.cls-6{fill:#809eb0;}.cls-7{fill:#738e9e;}.cls-8{fill:#86a196;}.cls-9{fill:#fff;}.cls-10{fill:#f4f8ff;}</style></defs><title>WP Mail SMTP icon - Uncanny Automator</title><g id="Layer_2" data-name="Layer 2"><rect class="cls-1" width="64" height="64"/></g><g id="Layer_1" data-name="Layer 1"><g id="mascot"><path class="cls-2" d="M24.38,8.34a16.6,16.6,0,0,0-8.5,10.93,25.27,25.27,0,1,0,32.24,0A16.55,16.55,0,0,0,38.05,7.63a3.68,3.68,0,0,0-2.23-2.89A5,5,0,0,0,26.29,3,26.21,26.21,0,0,0,24.38,8.34Z"/><rect class="cls-3" x="25.82" y="27.54" width="12.9" height="15.05"/><path class="cls-4" d="M34.28,35.25l-.13-.08A1.54,1.54,0,0,1,33.81,33a1.52,1.52,0,0,1,2.13-.33h0a2.14,2.14,0,0,0-1.66,2.53Zm-4.82,0A1.91,1.91,0,0,0,29,33.6a2.11,2.11,0,0,0-1.32-.87h0a1.53,1.53,0,1,1,1.8,2.47h0Zm7.76-3.41h.57L36.64,37l-2.3,6.91H29.73l-3.45-5.76,1.15-3.45c1.15,1.53,1.93,2.49,2.3,2.88.58.57,2.88.57,4-.58A27.52,27.52,0,0,0,37.22,31.84Z"/><path class="cls-5" d="M16.94,30.76H22.6V21.09H18.23a14,14,0,0,1,8.06-10.75Q27.52,5,29.21,3.08l.19-.18.12-.11h0a2.42,2.42,0,0,1,1.16-.5,2.48,2.48,0,0,1,2.85,2.07,2.52,2.52,0,0,1-.54,2h-.07a1.57,1.57,0,0,1-.32.31,17.53,17.53,0,0,0-1.41,1.69,5.4,5.4,0,0,1,3.23-1.61,1.36,1.36,0,0,1,.71.17,1.42,1.42,0,0,1,.55,1.92,1.33,1.33,0,0,1-.65.61,14,14,0,0,1,10.9,11.82l.13.93H41.94v8.6h5.19l1.93,14.44q-6.81,4.22-17,4.22t-17-4.23ZM33.2,40.85q4.17-6.85,4.16-8.18c0-2.39-3.49-4.36-5.23-4.36s-5.24,2-5.24,4.36q0,1.32,4.1,8.2a1.34,1.34,0,0,0,1.14.61,1.17,1.17,0,0,0,1.07-.6Z"/><polygon class="cls-1" points="26.85 32.99 37.22 32.99 35.49 50.26 28.58 50.26 26.85 32.99"/><path class="cls-6" d="M49.26,52.07a21.5,21.5,0,0,1-30.08,4.41,21.94,21.94,0,0,1-4.41-4.41l.9-6.57a3,3,0,0,0,4.1-2.41h0V44.4a3,3,0,0,0,6.1,0h0v1.74a3.07,3.07,0,0,0,6.12,0h0a3.05,3.05,0,1,0,6.1,0V44.46a3.06,3.06,0,0,0,6.11,0V43.14h0a3.14,3.14,0,0,0,3.57,2.67h0a3.22,3.22,0,0,0,.61-.16Z"/><path class="cls-7" d="M15.39,47.58l.28-2a2.85,2.85,0,0,0,1.08.21,3,3,0,0,0,3-2.62h0v1.32a3.05,3.05,0,0,0,6.1,0V46.2a3.07,3.07,0,0,0,6.12,0h0a3.05,3.05,0,1,0,6.1,0h0V44.46a3.06,3.06,0,0,0,6.11,0V43.14h0a3.14,3.14,0,0,0,3.57,2.67h0a3.22,3.22,0,0,0,.61-.16l.27,2a3.06,3.06,0,0,1-4.09-1.41,2.57,2.57,0,0,1-.28-.89h0v1.31a3.06,3.06,0,0,1-6.11,0h0v1.74a3,3,0,1,1-6.1,0h0a3.07,3.07,0,0,1-6.12,0V46.6a3.06,3.06,0,1,1-6.11,0h0V45.29h0A3,3,0,0,1,16.77,48a3.14,3.14,0,0,1-1.38-.32Z"/><path class="cls-8" d="M47.08,23.66c-1.07-3.09-3.22-5-5.07-4.85-2.37.25-2.95,4-2.46,8.6s1.82,8.12,4.19,7.88,4.3-4.18,3.95-8.6c-.08,1.32-.56,2.45-1.49,2.52-1.21.11-1.55-1.28-1.71-3s-.15-3.22,1.07-3.31A1.64,1.64,0,0,1,47.08,23.66Z"/><path class="cls-9" d="M46.24,23c-.68-1.3-1.61-2.1-2.57-2-1.62.16-2,2.76-1.68,5.88s1.25,5.57,2.87,5.37c1.19-.12,2.07-1.61,2.32-3.63a1.28,1.28,0,0,1-1,.61c-1.2.11-1.55-1.28-1.71-3s-.15-3.22,1.08-3.31A1.61,1.61,0,0,1,46.24,23Z"/><path class="cls-8" d="M16.79,23.66c1.08-3.09,3.23-5,5.07-4.85,2.37.25,2.95,4,2.47,8.6s-1.83,8.12-4.2,7.88-4.3-4.18-3.95-8.6c.08,1.32.55,2.45,1.49,2.52,1.21.11,1.55-1.28,1.7-3s.16-3.22-1.07-3.31a1.62,1.62,0,0,0-1.54.77Z"/><path class="cls-9" d="M17.62,23c.68-1.3,1.62-2.1,2.58-2,1.61.16,2,2.76,1.67,5.88S20.63,32.43,19,32.23c-1.2-.12-2.08-1.61-2.33-3.63a1.27,1.27,0,0,0,1,.61c1.19.11,1.55-1.28,1.7-3s.15-3.22-1.08-3.31a1.74,1.74,0,0,0-.68.08Z"/><path class="cls-10" d="M26.89,30.36v-.74C26.89,27,28.2,24,32.13,24s5.23,3,5.23,5.67a4.38,4.38,0,0,1-.14,1.08c-.86-1.45-2.47-2.35-5.16-2.35S27.86,29.13,26.89,30.36Z"/><path class="cls-8" d="M35,9.44l-3.42-.18L35.78,8A1.46,1.46,0,0,1,35,9.44Zm-3.79-1.1L29.78,9.42a18.12,18.12,0,0,0,2.14-4,7,7,0,0,0,.35-2.87A2.54,2.54,0,0,1,33.57,5a2.6,2.6,0,0,1-.81,1.62A16.33,16.33,0,0,0,31.19,8.34Z"/></g></g></svg>