<svg xmlns="http://www.w3.org/2000/svg" width="429.844" height="664.406" viewBox="0 0 429.844 664.406">
  <defs>
    <style>
      .cls-1 {
        fill-rule: evenodd;
      }
    </style>
  </defs>
  <path id="s" class="cls-1" d="M566.487,745.9q-34.234,30.429-90.022,30.43-16.494,0-36.136-1.268-19.673-1.248-33.6-11.412l-55.789-138.2h-31.7a625.451,625.451,0,0,0-22.822,81.781,588.9,588.9,0,0,0-11.411,88.12A709.994,709.994,0,0,0,380.1,822.608q45.645,9.509,100.165,9.509,48.171,0,90.657-13.313,42.465-13.312,74.807-37.4a175.923,175.923,0,0,0,50.717-58.324q18.365-34.235,18.385-77.343,0-46.893-22.189-80.513a233.505,233.505,0,0,0-56.423-58.958,558.556,558.556,0,0,0-72.9-45.645q-38.691-20.268-72.905-41.208-34.234-20.921-56.423-45.645T411.8,314.806a91.068,91.068,0,0,1,6.339-32.966,87.422,87.422,0,0,1,18.385-29.162,99.307,99.307,0,0,1,29.162-20.921q17.118-8.232,39.94-8.242,20.267,0,39.305,1.9a119.808,119.808,0,0,1,34.234,8.242l48.181,129.328h31.7A734.9,734.9,0,0,0,678.7,278.67q6.954-41.187,12.045-81.781a548.72,548.72,0,0,0-84.317-21.555q-43.743-7.606-112.211-7.607-40.593,0-76.075,12.045-35.511,12.066-62.128,32.966a160.8,160.8,0,0,0-42.475,50.083,130.536,130.536,0,0,0-15.849,63.4q0,52.005,22.188,87.486A247.468,247.468,0,0,0,376.3,476.466,456.99,456.99,0,0,0,449.2,524.013q38.662,20.3,72.906,41.841,34.233,21.574,56.422,46.279,22.168,24.724,22.189,60.226Q600.721,715.478,566.487,745.9Z" transform="translate(-285 -167.719)"/>
</svg>
