<?xml version="1.0" encoding="UTF-8"?><svg xmlns="http://www.w3.org/2000/svg" viewBox="0 0 64 64"><title>OpenAI icon - Uncanny Automator</title><g id="a"><rect width="64" height="64" style="fill:none;"/></g><g id="b"><path id="c" d="m59.41,26.18c1.45-4.36.95-9.12-1.37-13.09-3.49-6.07-10.51-9.19-17.36-7.74C37.63,1.93,33.25-.02,28.65,0,21.65,0,15.43,4.51,13.27,11.16c-4.51.93-8.39,3.75-10.66,7.74-3.51,6.07-2.71,13.7,1.99,18.9-1.45,4.36-.95,9.12,1.37,13.07,3.49,6.09,10.51,9.21,17.38,7.76,3.03,3.42,7.41,5.4,12.01,5.37,7,0,13.22-4.51,15.39-11.16,4.51-.93,8.39-3.75,10.64-7.74,3.53-6.07,2.73-13.7-1.97-18.9v-.02Zm-4.98-10.99c1.39,2.43,1.91,5.27,1.43,8.02-.09-.07-.26-.15-.37-.22l-12.74-7.37c-.65-.37-1.45-.37-2.1,0l-14.93,8.63v-6.33l12.33-7.13c5.74-3.32,13.07-1.34,16.38,4.4Zm-28.72,13.16l6.29-3.64,6.29,3.64v7.26l-6.29,3.64-6.29-3.64v-7.26Zm2.93-24.17c2.82,0,5.53.98,7.69,2.77-.09.04-.26.15-.39.22l-12.74,7.35c-.65.37-1.04,1.06-1.04,1.82v17.25l-5.48-3.16v-14.26c0-6.63,5.35-11.99,11.99-12.01l-.02.02ZM6.24,21h0c1.41-2.43,3.6-4.29,6.24-5.27v15.15c0,.76.39,1.43,1.04,1.82l14.91,8.6-5.5,3.19-12.31-7.11c-5.72-3.32-7.69-10.64-4.38-16.38Zm3.36,27.81h0c-1.41-2.41-1.91-5.27-1.43-8.02.09.07.26.15.37.22l12.74,7.37c.65.37,1.45.37,2.1,0l14.91-8.63v6.33l-12.33,7.11c-5.74,3.29-13.07,1.34-16.38-4.38h.02Zm25.77,11.01c-2.8,0-5.53-.98-7.67-2.77.09-.04.28-.15.39-.22l12.74-7.35c.65-.37,1.06-1.06,1.04-1.82v-17.23l5.48,3.16v14.24c0,6.63-5.37,12.01-11.99,12.01v-.02Zm22.41-16.82c-1.41,2.43-3.62,4.29-6.24,5.24v-15.15c0-.76-.39-1.45-1.04-1.82h0l-14.93-8.63,5.48-3.16,12.33,7.11c5.74,3.32,7.69,10.64,4.38,16.38l.02.02Z"/></g></svg>