<svg xmlns="http://www.w3.org/2000/svg" viewBox="0 0 64 64"><defs><style>.a{fill:#53b0ff;}.b{fill:#3490f1;}.c{fill:#2368f1;}.d{fill:none;}</style></defs><title>Amelia icon - Uncanny Automator</title><path class="a" d="M8.84,48.58c-.11-2.07,1.08-3.43,2.81-4.42l15.12-8.64c4.94-2.83,5.07-3.14,10.45,0,5,2.94,10.08,5.76,15.12,8.65,3.7,2.12,3.8,6.55.11,8.74-5.92,3.5-11.89,6.9-17.85,10.33a5.11,5.11,0,0,1-5.46-.11q-8.61-5-17.28-10C10.09,52.17,8.78,50.88,8.84,48.58Z" transform="translate(0 0)"/><path class="b" d="M4.21,40.79c-1.86-.93-2.44-2.64-2.44-4.64,0-5.8,0-11.6,0-17.4s-.2-6,5.22-9.07C12,6.8,17,3.8,22,.86c3.68-2.17,7.58,0,7.64,4.25.1,6.87.09,13.74.1,20.62a5.09,5.09,0,0,1-2.8,4.68q-8.64,5-17.24,10.05C7.94,41.49,6.18,42,4.21,40.79Z" transform="translate(0 0)"/><path class="c" d="M59.79,40.88c1.86-.94,2.44-2.64,2.44-4.64,0-5.8,0-11.61,0-17.41s.2-6-5.22-9.06C52,6.88,47,3.88,42,.94c-3.68-2.16-7.58,0-7.64,4.25-.1,6.88-.09,13.75-.1,20.62a5.08,5.08,0,0,0,2.8,4.68q8.64,5,17.24,10.05C56.06,41.57,57.82,42.07,59.79,40.88Z" transform="translate(0 0)"/><rect class="d" width="64" height="64"/></svg>