<?xml version="1.0" encoding="UTF-8"?>
<svg xmlns="http://www.w3.org/2000/svg" viewBox="0 0 64 64">
  <defs>
    <style>
      .cls-1 {
        fill: none;
      }

      .cls-1, .cls-2 {
        stroke-width: 0px;
      }

      .cls-2 {
        fill: #236be8;
      }
    </style>
  </defs>
  <title>AWeber icon - Uncanny Automator</title>
  <g id="Layer_2" data-name="Layer 2">
    <rect class="cls-1" width="64" height="64"/>
  </g>
  <g id="Layer_1" data-name="Layer 1">
    <path class="cls-2" d="M36.16.63c-1.45,0-2.89.72-3.8,1.81-6.51,8.32-10.49,18.08-12.11,27.84-1.63,8.5-.9,19.34,1.99,29.47.54,1.99,1.63,3.62,9.76,3.62h0c22.06,0,32-8.68,32-31.28h0C64,9.85,54.6.63,36.16.63M35.62,60.47c-1.27.72-3.07.18-3.62-1.08h0c-4.52-8.5-5.97-18.08-4.16-27.66,1.81-9.58,6.51-18.08,13.74-24.59h0c1.08-.9,2.89-.9,3.8.18,1.08,1.08.9,2.71-.18,3.8h0c-6.15,5.42-10.49,12.84-11.93,21.51-1.63,8.5,0,16.99,3.62,24.23h0v.18c.54,1.08,0,2.71-1.27,3.44M52.25,20.34h0c-4.52,3.62-7.77,8.32-8.86,13.92-1.08,5.6,0,11.21,2.89,15.91h0v.18c.54.72.18,1.81-.72,2.17s-1.99.18-2.53-.72h0c-3.25-5.24-4.52-11.57-3.25-17.9s4.88-11.75,9.94-15.91h0l.18-.18c.72-.54,1.99-.54,2.53.18.72.72.54,1.81-.18,2.35M9.76,55.77c.18,1.08-1.08,1.81-1.99,1.08C2.89,52.52,0,46.92,0,31.91h0C0,12.56,7.59,4.25,17.9,1.54c1.08-.36,1.81.9,1.27,1.63-4.7,7.77-7.95,16.27-9.58,25.31-1.63,9.04-1.45,18.44.18,27.3Z"/>
  </g>
</svg>