<svg xmlns="http://www.w3.org/2000/svg" viewBox="0 0 64.01 64"><defs><style>.a{fill:#5ec7cb;}.b{fill:#fff;}.c{fill:#2eb2ad;}.d{fill:#2179bb;}.e{fill:#1a61a5;}.f{fill:none;}</style></defs><title>MemberPress Courses icon - Uncanny Automator</title><rect class="a" x="27.18" y="17.73" width="29.75" height="29.75" transform="translate(45.57 -20.49) rotate(56)"/><path class="b" d="M46.06,12,62.7,36.62,38,53.25,21.4,28.59,46.06,12m.26-1.32-.79.53L20.87,27.8l-.79.54.54.78L37.25,53.78l.53.79.79-.53L63.23,37.4l.78-.53-.53-.78L46.85,11.43l-.53-.79Z"/><rect class="c" x="19.78" y="13.65" width="30.69" height="30.69" transform="translate(-6.66 47.13) rotate(-63)"/><path class="b" d="M28.63,9,55.13,22.5,41.63,49,15.13,35.5,28.63,9m-.41-1.27-.44.84L14.28,35.07l-.43.84.85.43L41.2,49.85l.84.43.44-.85L56,22.93l.43-.85-.84-.43L29.06,8.15l-.84-.43Z"/><rect class="d" x="12.5" y="13.65" width="30.69" height="30.69"/><path class="b" d="M42.72,14.13V43.87H13V14.13H42.72m1-1H12V44.82H43.67V13.18Z"/><rect class="e" x="6.65" y="17.92" width="29.75" height="29.75" transform="translate(-13.2 14.55) rotate(-29)"/><path class="b" d="M27.32,12.58l14.42,26L15.73,53,1.3,27l26-14.42m.37-1.29-.83.46L.84,26.17,0,26.63l.46.83,14.43,26,.46.83.83-.46,26-14.42L43,39l-.46-.83-14.42-26-.46-.83Z"/><path class="b" d="M34.32,31.43l0,0a1.69,1.69,0,0,0-1.57-.59,1.72,1.72,0,0,1,1.58.58l0,.05-2.69-4.85a5.45,5.45,0,0,0-.64-.95,5.88,5.88,0,0,0-6.35-1.87A6,6,0,0,1,24,24l-.7.43c-.21.16-.43.32-.63.49a5.8,5.8,0,0,0-1.12,1.3,5.7,5.7,0,0,0-.65,1.42,6.5,6.5,0,0,0-1.7-.17A6,6,0,0,0,17,28a.11.11,0,0,1-.11,0l-.75.42-.55.43a5.92,5.92,0,0,0-1.78,2.57l-.11.31h0l0,0a.08.08,0,0,0,0,0h0l0-.06a5.82,5.82,0,0,0-3.55.07,3.35,3.35,0,0,1-.53.19l-.64.36a.16.16,0,0,1-.11.13,1.69,1.69,0,0,0,.68,2.84A1.73,1.73,0,0,0,11,35.07h.07a2.45,2.45,0,0,1,2.75.57,2.39,2.39,0,0,1,.22.23.83.83,0,0,0,.13.18l2.68,4.83h0l.06.12a.14.14,0,0,1,.08.15,3.28,3.28,0,0,0,.27.38,1.69,1.69,0,0,0,3-.79,1.84,1.84,0,0,0-.37-1.34.1.1,0,0,1-.08-.06,1.73,1.73,0,0,0-1-.54,1.69,1.69,0,0,1,1.07.53s0,.06.07.07l-2.8-5a.41.41,0,0,0,0-.09,0,0,0,0,0,0,0l-.06-.1.05.08a2.51,2.51,0,0,1,3.48-3.16,2.15,2.15,0,0,1,.5.35,3.87,3.87,0,0,0,.25.55L24,37a5.34,5.34,0,0,1,0-.76c0-.12,0-.2,0-.24a2.36,2.36,0,0,1,0,.24,2.4,2.4,0,0,0,0,.8,1.81,1.81,0,0,0,.31.54l0,0a1.69,1.69,0,0,0,2.39.16,1.64,1.64,0,0,0,.37-2.05l0,0a.33.33,0,0,1,0-.13l0-.05a.27.27,0,0,1-.09-.12h0l-2.85-5.15-.45-.57a5.83,5.83,0,0,0-1.28-1.15,5.23,5.23,0,0,0-1-.53,5,5,0,0,1,1,.52,6,6,0,0,1,1.28,1.14c.16.19.3.39.45.58a0,0,0,0,0,0,0,2.49,2.49,0,0,1,4.51-2.07L31.36,33s0,0,0,0a1.72,1.72,0,0,0,1.39,1.1,1.7,1.7,0,0,0,1.89-1.34A1.82,1.82,0,0,0,34.32,31.43Zm-24.77.62s.09,0,.14,0A.17.17,0,0,1,9.55,32.05Z"/><rect class="f" width="64" height="64"/></svg>