<?xml version="1.0" encoding="UTF-8"?><svg xmlns="http://www.w3.org/2000/svg" viewBox="0 0 64 64"><defs><style>.cls-1{fill:none;}.cls-2{fill:#712eb4;}</style></defs><g id="Layer_2"><rect class="cls-1" width="64" height="64"/></g><g id="Layer_1"><path class="cls-2" d="M20.6,62.19c1.89-1.8,3.35-3.72,3.66-6.42.41-7.96-.48-16.36.01-24.26.71-11.49,13.29-18.15,23.09-11.9,8.5,5.42,9.19,17.79,1.41,24.19-4.1,3.37-8.77,3.61-13.9,3.39.07-1.17.24-2.26.71-3.34,2.53-5.76,10.34-3.35,11.19-10.58,1.17-9.91-13.35-11.83-14.99-2.04-.39,7.8.51,16.09,0,23.84-.26,3.92-3.42,7.13-7.44,7.13h-3.75Z"/><path class="cls-2" d="M22.51,54.68c.03,3.32-2.49,6.57-5.73,7.29-1.96.44-9.37.44-11.29-.06-2.4-.62-5.49-3.53-5.49-6.13V17.17c4.06.11,7.24,3.04,7.51,7.13.61,9.42-.47,19.51-.01,28.99-.06.5.69,1.39,1.11,1.39h13.9Z"/><path class="cls-2" d="M57.82,18.2c-4.52-7.71-14.01-11.44-22.7-9.29l-4.06-4.2-.02-.34,19.94-2.66,12.99,16.15.02.34-1.33.06-.14,7.81c.08.44.75.42.87,1.18.19,1.22-.46,1.36-.52,1.75-.15,1.04,1.25,3.55.68,4.79h-3.24c-.09-.33-.16-.58-.14-.93.06-.92.92-3.15.81-3.85-.06-.38-.74-.57-.52-1.75.11-.61.64-.71.8-.97.2-.32.17-6.81.08-7.58-.03-.21-.02-.38-.23-.51h-3.31Z"/><path class="cls-2" d="M53.99,23.2l-1.77-2.42c-4.33-4.98-11.21-7.22-17.65-5.52l1.85-4.7c.24-.3,1.07-.38,1.48-.43,6.88-.85,14.12,2.26,17.98,8.04l-1.89,5.04Z"/></g></svg>