<?xml version="1.0" encoding="UTF-8"?><svg xmlns="http://www.w3.org/2000/svg" viewBox="0 0 64 64"><defs><style>.cls-1{fill:none;}.cls-2{fill:#fbad41;}.cls-3{fill:#f6821f;}</style></defs><g id="Layer_1"><path class="cls-3" d="M43.7,46.13l.32-1.14c.39-1.35.25-2.61-.41-3.52-.6-.85-1.61-1.34-2.83-1.4l-23.08-.29c-.15,0-.29-.08-.36-.19-.08-.12-.1-.27-.05-.42.08-.22.3-.4.53-.41l23.29-.29c2.76-.12,5.75-2.38,6.8-5.13l1.33-3.49c.04-.09.05-.19.05-.29,0-.05,0-.11-.02-.16-1.5-6.82-7.56-11.92-14.79-11.92-6.67,0-12.34,4.33-14.37,10.34-1.31-.99-2.99-1.51-4.79-1.33-3.2.32-5.77,2.91-6.09,6.13-.08.84-.02,1.64.18,2.4-5.23.16-9.42,4.46-9.42,9.74,0,.48.04.95.1,1.41.03.23.22.39.45.39h42.61s0,0,.02,0c.24,0,.46-.17.52-.41Z"/><path class="cls-2" d="M51.39,30.09c-.22,0-.42,0-.64.02-.04,0-.07,0-.1.02-.11.04-.2.13-.23.25l-.91,3.15c-.39,1.35-.25,2.61.41,3.52.6.85,1.61,1.34,2.83,1.4l4.92.29c.15,0,.27.08.35.19.08.12.1.27.05.42-.08.22-.3.4-.53.41l-5.11.29c-2.77.13-5.77,2.38-6.82,5.13l-.37.97c-.07.18.06.36.24.37h17.61c.21,0,.39-.14.46-.34.31-1.09.47-2.24.47-3.44,0-6.99-5.65-12.67-12.61-12.67Z"/></g><g id="Layer_2"><rect class="cls-1" width="64" height="64"/></g></svg>