<?xml version="1.0" encoding="UTF-8"?><svg xmlns="http://www.w3.org/2000/svg" viewBox="0 0 64 64"><defs><style>.cls-1{fill:none;}.cls-2{fill:#ff584a;}</style></defs><title>Asana icon - Uncanny Automator</title><g id="Layer_2"><rect class="cls-1" width="64" height="64"/></g><g id="Layer_1"><path class="cls-2" d="M45.92,16.34c0,7.68-6.23,13.92-13.91,13.92s-13.92-6.23-13.92-13.92,6.23-13.92,13.92-13.92,13.91,6.23,13.91,13.92ZM13.92,33.74c-7.68,0-13.92,6.23-13.92,13.91s6.23,13.92,13.92,13.92,13.92-6.23,13.92-13.92-6.23-13.91-13.92-13.91ZM50.08,33.74c-7.69,0-13.92,6.23-13.92,13.92s6.23,13.92,13.92,13.92,13.92-6.23,13.92-13.92-6.23-13.92-13.92-13.92Z"/></g></svg>