<?xml version="1.0" encoding="UTF-8"?><svg xmlns="http://www.w3.org/2000/svg" viewBox="0 0 64 64"><defs><style>.cls-1{fill:none;}.cls-2{fill:#242121;}.cls-3{fill:#fefefe;}</style></defs><g id="Layer_1"><path class="cls-2" d="M43.53,53.03l19.53,1.79c.93.22,1.37,1.01.42,1.59l-15.41,3.45c-4.77.12-9.52-.09-14.25-.3-4.17-.19-5.68.25-9.54-1.75-7.19-3.73-14.05-8.15-21.25-11.88-2.33-1.44-3.55-4.34-2.79-7.01,2.87-7.71,4.55-16.34,7.54-23.95,1.27-3.24,2.88-4.89,6.05-6.27,2.52-1.1,10.35-4.35,12.69-4.54,1.77-.14,3.7.07,5.33.77,7.15,4,15.03,7.25,22.08,11.34,2.48,1.44,4.12,3.16,3.86,6.24-2.68,7.73-5.11,16.01-8.21,23.58-.9,2.2-2.18,4.1-4.05,5.6-.63.51-1.43.79-2,1.34ZM26.11,5.97l-11.75,4.44c-2.3,1.12-1.23,2.16.4,3.12,7.27,4.3,15.43,7.74,22.77,11.99,5.39,2.03,11.03-3.08,15.9-4.85,1.54-1.02,1.07-2.19-.36-2.97-7.21-3.22-14.21-7.85-21.38-11-1.72-.75-3.72-1-5.59-.73ZM11.4,14.14c-1.03.18-1.83,1.22-2.15,2.16L1.97,39.62c-.3,2.04.39,3.55,1.99,4.77,7.21,3.66,14.15,8.3,21.34,11.93,1.38.7,2.51,1.22,3.88.12.85-.67,1.05-1.62,1.42-2.59,2.83-7.45,5-15.18,7.8-22.65.37-2.36-.57-3.79-2.51-4.93-7.19-4.24-15.22-7.64-22.48-11.84-.62-.34-1.33-.4-2.02-.28Z"/><path class="cls-3" d="M11.4,14.14c.69-.12,1.4-.05,2.02.28,7.25,4.2,15.29,7.59,22.48,11.84,1.94,1.14,2.87,2.58,2.51,4.93-2.8,7.47-4.97,15.2-7.8,22.65-.37.97-.57,1.92-1.42,2.59-1.38,1.1-2.51.58-3.88-.12-7.19-3.63-14.13-8.27-21.34-11.93-1.61-1.22-2.29-2.73-1.99-4.77l7.28-23.32c.32-.94,1.12-1.98,2.15-2.16ZM12.63,33.57l.45-5.87-2.23-1.12-.52,9.51c.45.16,1.99,1.29,2.3,1.12l3.27-3.8-.3,5.54c.03.13,1.94,1.15,2.16,1.14.51-.01,4.51-5.14,5.42-5.64.02.37-.31.98-.12,1.31.16.28,3.38,1.65,3.38,1.89-.99.73-2.22.19-2.23,1.79,0,1.08,1.4.9,1.83,1.89.21.48-.07.9-.58.96-1.28.14-3.25-1.66-3.47-2.93-.27.08-1.86.67-1.91.76-.56.88,2.4,3.45,3.15,3.87,2.39,1.32,5.85.99,5.26-2.44-.14-.79-.74-1.19-1-1.89.06-.08,1.6-.4,1.93-.68.24-.21.92-1.63.6-1.93l-8.42-4.66c-.43-.04-3.01,3.55-3.61,3.99l.45-5.69c-.03-.11-1.84-1.1-2.04-1.12-.34-.05-.43.14-.64.35-1.09,1.05-1.97,2.6-3.11,3.64Z"/><path class="cls-3" d="M26.11,5.97c1.87-.27,3.87-.03,5.59.73,7.18,3.15,14.18,7.78,21.38,11,1.43.78,1.89,1.95.36,2.97-4.88,1.77-10.52,6.89-15.9,4.85-7.35-4.25-15.5-7.69-22.77-11.99-1.62-.96-2.7-2-.4-3.12l11.75-4.44Z"/><path class="cls-2" d="M12.63,33.57c1.14-1.04,2.03-2.59,3.11-3.64.21-.2.3-.39.64-.35.2.03,2.01,1.01,2.04,1.12l-.45,5.69c.6-.44,3.18-4.02,3.61-3.99l8.42,4.66c.31.3-.36,1.72-.6,1.93-.32.28-1.86.59-1.93.68.27.7.87,1.1,1,1.89.59,3.43-2.88,3.76-5.26,2.44-.75-.42-3.71-2.99-3.15-3.87.06-.09,1.64-.68,1.91-.76.23,1.27,2.2,3.07,3.47,2.93.5-.05.78-.48.58-.96-.43-.98-1.83-.81-1.83-1.89.01-1.61,1.24-1.06,2.23-1.79,0-.24-3.22-1.61-3.38-1.89-.19-.33.14-.94.12-1.31-.9.51-4.91,5.63-5.42,5.64-.22,0-2.13-1.01-2.16-1.14l.3-5.54-3.27,3.8c-.32.17-1.86-.96-2.3-1.12l.52-9.51,2.23,1.12-.45,5.87Z"/></g><g id="Layer_2"><rect class="cls-1" width="64" height="64"/></g></svg>