<?xml version="1.0" encoding="UTF-8"?><svg xmlns="http://www.w3.org/2000/svg" xmlns:xlink="http://www.w3.org/1999/xlink" viewBox="0 0 64 64"><title>Pretty Links icon - Uncanny Automator</title><defs><linearGradient id="c" x1="27.78" y1="36.84" x2="59.24" y2="36.84" gradientTransform="translate(6.41 70.7) rotate(-2.28) scale(1 -1)" gradientUnits="userSpaceOnUse"><stop offset="0" stop-color="#ff8c00"/><stop offset=".7" stop-color="#ffd200"/></linearGradient></defs><g id="a"><rect width="64" height="64" style="fill:none;"/></g><g id="b"><path d="m31.33,27.71c-.69-.69-1.03-1.63-1.03-2.58-5.49-.26-10.99-.09-16.83.6-.43.09-.77.34-.86.6-.09.34.26.52.34.52,2.49,1.12,3.78,1.72,6.1,3.09.17.09.43.17.69.17,1.2-.09,2.32-.17,3.43-.17,3.61-.09,7.21,0,10.64.43l-2.49-2.66Z" style="fill:#4fd6f6;"/><path d="m37.09,33.72l-1.03-1.03c-3.86-.6-7.81-.86-11.76-.77h0c-.34,0-.69.17-.77.43s.09.52.26.6c2.06,1.46,3.09,2.23,5.06,3.86.17.09.26.17.43.17,2.32.17,4.21.26,5.92.6l1.89-3.86Z" style="fill:#9ae8fa;"/><path d="m33.91,21.45h.6l8.41,1.03,1.29-2.58c-14.77-2.92-28.59-2.4-43.27,1.55-.52.17-.94.52-.94.86,0,.26.34.34.43.43,2.83.69,4.29,1.12,6.95,2.06.26.09.52.09.86,0,5.06-.94,9.79-1.46,14.59-1.63,2.66-.09,5.32,0,7.98.17.69-1.12,1.8-1.8,3.09-1.89Z" style="fill:#03c5f2;"/><path d="m63.96,28.32c-.17-.69-.69-1.2-1.37-1.29l-9.79-1.2-1.55-8.76c-.09-.69-.69-1.2-1.37-1.29-.69-.09-1.37.26-1.72.86l-4.12,8.16-9.79-1.2c-.69-.09-1.37.26-1.63.86-.34.6-.17,1.37.26,1.8l6.78,7.04-4.98,10.13h0s0,.09-.09.09c0,0,0,.09-.09.09v.77s0,.09.09.09q0,.09.09.17s0,.09.09.09l.09.09.09.09.09.09h0c.09.09.17.09.17.17h.09c.09,0,.09.09.17.09h.09q.09,0,.17.09h.77c.09,0,.17,0,.17-.09h.09c.09,0,.17-.09.26-.09l9.27-5.49,7.55,8.07c.26.26.6.43.94.52.34,0,.6,0,.94-.17.6-.34,1.03-1.03.86-1.72l-2.06-11.5,8.76-5.15c.52,0,.86-.69.69-1.37Z" style="fill:url(#c);"/></g></svg>