<?xml version="1.0" standalone="no"?>
<!DOCTYPE svg PUBLIC "-//W3C//DTD SVG 1.1//EN" "http://www.w3.org/Graphics/SVG/1.1/DTD/svg11.dtd" >
<svg xmlns="http://www.w3.org/2000/svg">
<metadata>Generated by IcoMoon</metadata>
<defs>
<font id="uncanny-automator-icons" horiz-adv-x="1024">
<font-face units-per-em="1024" ascent="896" descent="-128" />
<missing-glyph horiz-adv-x="1024" />
<glyph unicode="&#x20;" horiz-adv-x="0" d="" />
<glyph unicode="&#xe000;" glyph-name="loading" horiz-adv-x="1152" d="M512 832c0 35.34 28.6 64 64 64 282.8 0 512-229.2 512-512 0-93.2-25-180.8-68.6-256-17.6-30.6-56.8-41.2-89.2-23.4-28.8 17.6-39.2 56.8-21.6 89.2 32.6 54.6 51.4 120.2 51.4 192 0 212-172 384-384 384-35.4 0-64 26.86-64 64v-1.8z" />
<glyph unicode="&#xe06f;" glyph-name="stopwatch" horiz-adv-x="896" d="M496 256c0-26.6-21.4-48-48-48s-48 21.4-48 48v208c0 26.6 21.4 48 48 48s48-21.4 48-48v-208zM288 848c0 26.5 21.4 48 48 48h224c26.6 0 48-21.5 48-48s-21.4-48-48-48h-64v-98.74c86.8-10.060 165.6-46.66 227.6-101.66l58.4 58.4c18.8 18.6 49.2 18.6 66.2 0 20.4-18.8 20.4-49.2 0-66.2l-60.4-63.8c48-67.8 76.2-150.6 76.2-240 0-229.8-186.2-416-416-416s-416 186.2-416 416c0 213.6 160.86 389.4 368 413.26v98.74h-64c-26.6 0-48 21.5-48 48v0zM448-32c176.8 0 320 143.2 320 320s-143.2 320-320 320c-176.8 0-320-143.2-320-320s143.2-320 320-320z" />
<glyph unicode="&#xe900;" glyph-name="bars-regular" horiz-adv-x="896" d="M0 720c0 26.5 21.5 48 48 48h800c26.6 0 48-21.5 48-48 0-26.6-21.4-48-48-48h-800c-26.5 0-48 21.4-48 48zM0 400c0 26.6 21.5 48 48 48h800c26.6 0 48-21.4 48-48s-21.4-48-48-48h-800c-26.5 0-48 21.4-48 48zM848 32h-800c-26.5 0-48 21.4-48 48s21.5 48 48 48h800c26.6 0 48-21.4 48-48s-21.4-48-48-48z" />
<glyph unicode="&#xe901;" glyph-name="play" horiz-adv-x="768" d="M146 818c-29.6 18.2-66.8 18.8-97 1.8s-49-49-49-83.8v-704c0-34.8 18.8-66.8 49-83.8s67.4-16.2 97 1.8l576 352c28.6 17.4 46 48.4 46 82s-17.4 64.4-46 82l-576 352z" />
<glyph unicode="&#xe902;" glyph-name="arrows" d="M1024 385.8c0-13.51-5.688-26.18-15.688-35.24l-176-160.1c-9.312-10.060-20.712-14.26-32.312-14.26-26.54 0-48 21.52-48 48 0 13.068 5.294 26.080 15.688 35.56l84.14 76.56h-291.828v-292l76.5 84.2c9.43 10.4 22.42 15.698 35.48 15.698 26.46 0 48.020-21.42 48.020-48.060 0-11.53-4.122-23.1-12.5-32.3l-160-176.12c-9.1-10.138-21.9-15.738-35.5-15.738s-26.44 5.692-35.5 15.698l-160 176.12c-8.378 9.206-12.5 20.78-12.5 32.3 0 26.76 21.66 48.060 46.2 48.060 13.052 0 26.040-5.298 35.5-15.698l78.3-84.28v292.2h-291.82l84.14-76.56c10.392-9.47 15.688-22.48 15.688-35.56 0-26.44-21.42-48-48-48-11.562 0-23.060 4.128-32.32 12.508l-176 160.1c-10 8.912-15.688 21.712-15.688 36.912 0 13.51 5.688 26.74 15.688 35.8l176 160.1c9.312 6.7 20.712 10.7 32.312 10.7 26.52 0 47.98-21.48 47.98-47.98 0-13.068-5.294-26.080-15.688-35.56l-84.112-76.46h291.82v292l-76.4-84.2c-9.6-10.4-22.6-15.6-37.4-15.6-26.32 0-46.2 21.32-46.2 48.060 0 11.53 4.122 23.1 12.5 32.3l160 176.12c9.1 9.916 22.3 14.92 35.5 14.92s26.44-5.004 35.5-15.010l160-176.12c8.378-9.206 12.5-20.78 12.5-32.3 0-26.7-21.62-48.060-48-48.060-13.062 0-26.060 5.316-35.5 15.698l-76.5 84.192v-292h291.8l-84.14 76.56c-10.392 9.47-15.688 22.48-15.688 35.56 0 26.5 21.48 47.98 47.96 47.98 11.518 0 23.1-4.122 32.36-12.484l176-160.1c10.108-9.116 15.708-22.316 15.708-34.116z" />
<glyph unicode="&#xe903;" glyph-name="user-secret" horiz-adv-x="896" d="M755.4 218.4l74.3 185.74c8.3 21.060-7.1 43.86-31.5 43.86h-114.96c13.76 29.6 20.76 62 20.76 96 0 8.234-1.672 16.114-2.434 24.16 79.834 17.64 130.434 43.24 130.434 71.84 0 32.16-63.5 60.56-160.62 77.98-23.78 87.72-61.58 178.020-116.58 178.020-20.76 0-39.24-9-54.76-21-30.5-23.76-73.5-23.76-104 0-15.44 12-33.84 21-54.64 21-55 0-92.6-90.32-116.4-177.96-97.34-17.4-161-45.84-161-78.040 0-28.68 50.62-54.26 130.44-71.84-0.76-7.96-2.44-15.96-2.44-24.16 0-34 6.94-66.4 19-96h-114.96c-22.64 0-38.12-22.8-29.72-43.8l74.3-185.74c-84.88-63.26-140.62-163.26-140.62-277.060 0-38.4 31.040-69.4 69.32-69.4h757.28c38.4 0 69.4 31 69.4 69.4 0 113.8-55.8 213.8-140.6 277zM352-62.2l-96 382.2 128-64 32-64-64-254.2zM542.2-62.2l-62.2 254.2 32 64 128 64-97.8-382.2zM640 524c0-42-34.4-76-76.8-76h-24.66c-32.92 0-60.58 20.78-71.26 49.98-3.080 8.22-10.48 14.020-19.28 14.020s-16.2-5.8-19.2-14c-10.8-29.2-38.4-50-71.2-50h-24.66c-42.54 0-76.94 34-76.94 76v33c56.6-8.2 120.2-13 192-13s135.48 4.766 192 12.946v-32.946z" />
<glyph unicode="&#xe904;" glyph-name="user-slash-solid" horiz-adv-x="1280" d="M190.2-58.6c0-38.28 31.040-69.34 69.32-69.34h757.4c11.25 0 21.46 3.3 30.84 8.058l-517.96 407.282c-187.2-4.8-339.6-157.6-339.6-346zM1261.6-42.2l-554.2 435.8c109.38 29.12 190.36 127.9 190.36 246.4-3.56 141.38-116.36 256-259.56 256-137.8 0-250.8-111.86-253.6-250.8l-306.8 240.6c-8.98 6.856-19.42 10.2-29.74 10.2-14.24 0-28.37-6.312-37.806-18.374-16.374-20.88-12.75-51.060 8.124-67.4l1184.022-928.026c21-16.406 51.12-12.656 67.38 8.156 16.42 20.844 12.62 51.044-8.18 67.444z" />
<glyph unicode="&#xe905;" glyph-name="user-solid" horiz-adv-x="896" d="M448 384c141.4 0 256 114.62 256 256s-114.6 256-256 256c-141.4 0-256-114.62-256-256s114.6-256 256-256zM549.4 288h-202.8c-191.38 0-346.6-155.2-346.6-346.6 0-38.28 31.040-69.34 69.32-69.34h757.4c38.28-0.060 69.28 30.94 69.28 69.34 0 191.4-155.2 346.6-346.6 346.6z" />
<glyph unicode="&#xe906;" glyph-name="alarm-clock" d="M320 845.2l-290.28-242c-18.816 29.6-29.72 64.6-29.72 102.32 0 105.2 85.28 190.48 190.48 190.48 49.92 0 95.52-19.276 129.52-50.8zM560 339.8l80.2-81.8c20.4-18.8 20.4-49.2 0-66.2-17-20.4-47.4-20.4-66.2 0l-96 96c-9 7.2-14 19.4-14 32.2v208c0 26.6 21.4 48 48 48s48-21.4 48-48v-188.2zM231-29l-85.060-83.2c-18.74-20.4-49.14-20.4-67.88 0-18.74 17-18.74 47.4 0 66.2l85.020 85c-61.98 76.8-99.080 174.6-99.080 281 0 247.4 200.6 448 448 448s448-200.6 448-448c0-106.4-37.2-204.2-99-281l83.2-85c20.4-18.8 20.4-49.2 0-66.2-17-20.4-47.4-20.4-66.2 0l-85 83.2c-76.8-61.8-174.6-99-281-99s-204.2 37.2-281 99v0zM512-32c194.4 0 352 157.6 352 352s-157.6 352-352 352c-194.4 0-352-157.6-352-352s157.6-352 352-352zM994.2 603.2l-290.2 242c32.2 31.524 79.6 50.8 129.6 50.8 105.2 0 190.4-85.28 190.4-190.48 0-37.52-11-72.72-29.8-102.32z" />
<glyph unicode="&#xe907;" glyph-name="list-ul" d="M128 768c35.34 0 64-28.66 64-64 0-35.4-28.66-64-64-64s-64 28.6-64 64c0 35.34 28.66 64 64 64zM976 752c26.6 0 48-21.5 48-48 0-26.6-21.4-48-48-48h-608c-26.6 0-48 21.4-48 48 0 26.5 21.4 48 48 48h608zM976 432c26.6 0 48-21.4 48-48s-21.4-48-48-48h-608c-26.6 0-48 21.4-48 48s21.4 48 48 48h608zM976 112c26.6 0 48-21.4 48-48s-21.4-48-48-48h-608c-26.6 0-48 21.4-48 48s21.4 48 48 48h608zM128 320c-35.34 0-64 28.6-64 64s28.66 64 64 64c35.34 0 64-28.6 64-64s-28.66-64-64-64zM128 128c35.34 0 64-28.6 64-64s-28.66-64-64-64c-35.34 0-64 28.6-64 64s28.66 64 64 64z" />
<glyph unicode="&#xe908;" glyph-name="upload" horiz-adv-x="878" d="M807.619 262.095c24.761 0 45.714-20.953 45.714-45.714v-137.143c0-102.858-81.905-182.857-182.857-182.857h-487.619c-102.857 0-182.857 79.999-182.857 182.857v137.143c0 24.761 19.048 45.714 45.714 45.714 24.762 0 45.714-20.953 45.714-45.714v-137.143c0-51.429 40-91.429 91.429-91.429h487.619c49.523 0 91.429 39.999 91.429 91.429v137.143c0 24.761 19.046 45.714 45.714 45.714zM394.286 858.286l-259.048-241.905c-19.048-19.047-19.048-47.619-1.905-66.666s45.714-19.048 64.762-1.905l182.857 171.428v-472.381c0-26.668 19.047-45.714 45.714-45.714 24.762 0 45.714 19.046 45.714 43.808v474.288l180.951-171.428c19.051-17.143 47.621-17.143 64.766 1.905 7.617 9.524 13.332 20.952 13.332 32.381s-5.715 22.857-15.238 32.381l-259.048 241.905c-17.143 19.048-45.714 19.048-62.857 1.905z" />
<glyph unicode="&#xe909;" glyph-name="times-circle-solid" d="M512-128c282.8 0 512 229.2 512 512s-229.2 512-512 512-512-229.2-512-512 229.2-512 512-512zM350 546c18.8 18.8 49.2 18.8 67.8 0l94-94 94 94c18.8 18.8 49.2 18.8 67.8 0s18.8-49.2 0-67.8l-94-94 94-94c18.8-18.8 18.8-49.2 0-67.8s-49.2-18.8-67.8 0l-94 94-94-94c-18.8-18.8-49.2-18.8-67.8 0s-18.8 49.2 0 67.8l94 94-94 94c-18.8 18.8-18.8 49.2 0 67.8z" />
<glyph unicode="&#xe90a;" glyph-name="hourglass" horiz-adv-x="768" d="M64 896c-35.4 0-64-28.6-64-64s28.6-64 64-64v-22c0-84.8 33.8-166.2 93.8-226.2l135.6-135.8-135.6-135.8c-60-60-93.8-141.4-93.8-226.2v-22c-35.4 0-64-28.6-64-64s28.6-64 64-64h640c35.4 0 64 28.6 64 64s-28.6 64-64 64v22c0 84.8-33.8 166.2-93.8 226.2l-135.6 135.8 135.8 135.8c60 60 93.8 141.4 93.8 226.2v22c35.4 0 64 28.6 64 64s-28.6 64-64 64h-640.2zM576 22v-22h-384v22c0 51 20.2 99.8 56.2 135.8l135.8 135.6 135.8-135.8c36-36 56.2-84.8 56.2-135.8z" />
<glyph unicode="&#xe90b;" glyph-name="pointer" horiz-adv-x="640" d="M0.001 45.8v739.84c0 25.6 20.759 46.36 46.379 46.36 11.34 0 22.3-4.16 30.8-11.72l548.020-487.080c9.4-8.4 14.8-20.4 14.8-33 0-24.4-19.8-44.2-44.2-44.2h-254.8l118-253.6c11.2-24.2 0.8-52.6-23.2-63.8s-52.6-0.8-63.8 23.2l-118.6 254.8-176.24-201.6c-8.36-9.6-20.44-15-33.14-15-24.31 0-44.020 19.8-44.020 45.8h0.001zM459.6 352l-363.6 323.2v-492.8l119.8 136.8c16.4 22.6 44.6 32.8 72.2 32.8h171.6z" />
<glyph unicode="&#xe90c;" glyph-name="exchange" d="M976 208h-817.52l148.58 159.26c18.14 19.34 17.14 49.74-2.26 67.74-19.4 18.2-49.8 17.2-67.8-2.2l-224-240c-17.25-18.438-17.25-47.060 0-65.5l224-240c9.4-10.1 22.2-15.3 35-15.3 11.75 0 23.5 4.25 32.76 12.938 19.376 18.062 20.44 48.44 2.312 67.82l-148.592 159.242h817.52c26.5 0 48 21.5 48 48s-21.4 48-48 48zM48 560h817.6l-148.58-159.26c-18.124-19.376-17.062-49.76 2.312-67.82 19.312-18.188 49.76-17.124 67.82 2.312l224 240c17.25 18.438 17.25 47.060 0 65.5l-224 240c-9.552 10.144-22.352 15.268-35.152 15.268-11.75 0-23.5-4.25-32.76-12.938-19.376-18.062-20.44-48.44-2.312-67.82l148.672-159.242h-817.6c-26.5 0-48-21.6-48-48s21.5-48 48-48z" />
<glyph unicode="&#xe90d;" glyph-name="sign-out" d="M384-16c0-26.6-21.4-48-48-48h-144c-106.040 0-192 85.96-192 192v512c0 106.040 85.96 192 192 192h144c26.6 0 48-21.48 48-48 0-26.5-21.4-48-48-48h-144c-52.8 0-96-43.2-96-96v-512c0-52.8 43.2-96 96-96h144c26.6 0 48-21.4 48-48zM1011 416.8l-254.2 272c-18.188 19.376-48.56 20.24-67.82 2.062-19.312-18.124-20.24-48.5-2.062-67.82l177.882-191.042h-498.6c-24.8 0-46.2-21.6-46.2-48s21.5-48 46.2-48h496.8l-179.84-191.12c-18.188-19.312-17.25-49.68 2.062-67.82 11.178-8.66 22.978-13.060 32.978-13.060 12.75 0 25.5 5.062 34.94 15.124l254.2 272c21.060 18.476 21.060 47.276 3.66 65.676z" />
<glyph unicode="&#xe90e;" glyph-name="sign-in" d="M1024 640v-512c0-106.040-85.96-192-192-192h-144c-26.6 0-48 21.4-48 48 0 26.52 21.5 48 48 48h144c52.8 0 96 43.2 96 96v512c0 52.8-43.2 96-96 96h-144c-26.6 0-48 21.5-48 48 0 26.52 21.4 48 48 48h144c106 0 192-85.96 192-192zM691 416.8l-256 272c-18.2 19.44-48.6 20.32-67.8 2.2-19.4-18.2-20.4-48.6-2.2-67.8l179.8-191.2h-496.8c-26.5 0-48-21.6-48-48s21.5-48 48-48h496.8l-179.84-191.12c-18.188-19.312-17.25-49.68 2.062-67.82 9.378-8.66 21.178-13.060 32.978-13.060 12.75 0 25.5 5.062 34.94 15.124l256 272c17.46 18.476 17.46 47.276 0.060 65.676z" />
<glyph unicode="&#xe90f;" glyph-name="redo" d="M992 816v-320c0-26.6-21.4-48-48-48h-320c-26.4 0-48 21.4-48 48s21.5 48 48 48h201c-59.4 115.4-180 192-313 192-195.8 0-352-156.2-352-352s157.94-352 352-352c82.18 0 162.18 28.94 225.2 81.5 20.32 17 50.62 14.312 67.62-6.124 17-20.38 14.25-50.62-6.124-67.62-80.32-66.88-182.34-103.54-287-103.54-246.896-0.016-447.696 200.784-447.696 447.784s200.8 447.8 447.8 447.8c159.7 0 304.8-86.92 384.2-218.2v202.4c0 26.5 21.5 48 48 48s48-21.5 48-48z" />
<glyph unicode="&#xe910;" glyph-name="files" horiz-adv-x="878" d="M819.573 675.714l-139.287 139.286c-22.286 22.286-52 35.286-83.572 35.286h-276.714c-66.857 0-118.857-53.857-118.857-118.857v-534.857c0-66.86 52-118.857 118.857-118.857h416c65.002 0 118.857 51.997 118.857 118.857v395.571c0 31.571-12.997 61.286-35.284 83.572zM765.718 196.571c0-16.715-14.863-29.714-29.718-29.714h-416c-16.715 0-29.714 13-29.714 29.714v533c0 16.714 13 29.714 29.714 29.714h237.714v-146.714c0-33.428 26-59.429 59.429-59.429h146.717v-356.571h1.858zM632-100.571h-386.285c-124.429 0-222.858 98.428-222.858 222.859v505.141c0 24.143 18.571 44.572 44.571 44.572 24.143 0 44.571-20.429 44.571-44.572v-505.141c0-74.291 59.429-133.712 133.715-133.712h386.285c24.143 0 44.572-20.429 44.572-44.573 0-26.002-20.429-44.573-44.572-44.573z" />
<glyph unicode="&#xe911;" glyph-name="file-csv" horiz-adv-x="768" d="M768 0c0-72-57.999-128-128-128h-512c-72 0-128 56-128 128h64c0-35.999 28-64 64-64h512c33.999 0 64 28.001 64 64h64zM480 512c-54.001 0-96 41.999-96 96v224h-256c-36 0-64-30-64-64v-320h-64v320c0 70 56 128 128 128h312c24 0 49.999-12 68.001-30l229.998-229.999c17.999-18.002 30.001-44.001 30.001-68.001v-120h-64v64h-224zM694.001 590.001l-232 231.999c-4.001 4-10.002 6-14.001 8v-222c0-17.999 14.001-32 32-32h222.001c-1.999 3.999-4.001 9.999-8 14.001zM192 384c44 0 80-35.999 80-80v-16c0-17.999-16-32-32-32-18 0-32 14.001-32 32v16c0 8-8 16-16 16h-32c-10 0-16-8-16-16v-160c0-9.999 6-16 16-16h32c8 0 16 6.001 16 16v16c0 16 14 32 32 32 16 0 32-16 32-32v-16c0-46.001-36-80-80-80h-32c-46 0-80 33.999-80 80v160c0 44.001 34 80 80 80h32zM304 289.999c0 52.001 40 94.001 92.001 94.001h35.999c16 0 32-16 32-32 0-17.999-16-32-32-32h-35.999c-16 0-28.001-14.001-28.001-30.001 0-9.999 3.999-19.999 14.001-24l49.999-29.998c30.001-16 48-46.001 48-80 0-52.001-41.999-92.001-94.001-92.001h-49.999c-17.999 0-32 14.001-32 32 0 16 14.001 32 32 32h49.999c16 0 30.001 12.001 30.001 28.001 0 9.999-6.001 19.999-16 23.997l-49.999 30.001c-30.001 16-46.001 48-46.001 80zM560 288c0-46.001 9.999-92.001 32-131.999 19.999 39.997 32 85.998 32 131.999v64c0 16 14.001 32 32 32 16 0 32-16 32-32v-64c0-70.001-22.001-137.999-60.001-195.999l-9.999-14.001c-6.001-10.002-16-14.001-25.999-14.001-12.001 0-22.001 3.999-28.001 14.001l-9.999 14.001c-38.001 57.999-57.999 125.998-57.999 195.999v64c0 16 14.001 32 32 32 16 0 32-16 32-32v-64z" />
<glyph unicode="&#xe912;" glyph-name="repeat" d="M976 432c-26.5 0-48-21.5-48-48 0-114.68-93.32-208-208-208h-428.2l126.060 126.060c18.75 18.75 18.75 49.12 0 67.88s-49.12 18.75-67.88 0l-208-208c-18.75-18.75-18.75-49.12 0-67.88l208-208c9.42-9.46 21.62-14.060 34.020-14.060s24.56 4.688 33.94 14.062c18.75 18.75 18.75 49.12 0 67.88l-126.14 126.058h428.2c167.62 0 304 136.38 304 304 0 26.6-21.4 48-48 48zM304 592h428.2l-126.060-126.060c-18.75-18.75-18.75-49.12 0-67.88 9.26-9.46 21.46-14.060 33.86-14.060s24.56 4.688 33.94 14.062l208 208c18.75 18.75 18.75 49.12 0 67.88l-208 208c-18.75 18.75-49.12 18.75-67.88 0s-18.75-49.12 0-67.88l126.14-126.062h-428.2c-167.62 0-304-136.4-304-302.2 0-28.2 21.5-49.8 48-49.8s48 21.4 48 48c0 114.6 93.32 208 208 208z" />
<glyph unicode="&#xe913;" glyph-name="clone" horiz-adv-x="970" d="M121.263-23.579h424.421c15.155 0 30.316 13.263 30.316 30.316v121.263h90.947v-121.263c0-68.209-54.946-121.263-121.263-121.263h-424.421c-68.211 0-121.263 53.054-121.263 121.263v424.421c0 66.316 53.053 121.263 121.263 121.263h121.263v-90.947h-121.263c-17.053 0-30.316-15.158-30.316-30.316v-424.421c0-17.052 13.263-30.316 30.316-30.316zM303.158 734.316c0 66.316 53.053 121.263 121.263 121.263h424.421c66.317 0 121.263-54.947 121.263-121.263v-424.421c0-68.209-54.946-121.263-121.263-121.263h-424.421c-68.21 0-121.263 53.054-121.263 121.263v424.421zM424.421 279.579h424.421c15.155 0 30.316 13.263 30.316 30.316v424.421c0 15.158-15.161 30.316-30.316 30.316h-424.421c-17.053 0-30.316-15.158-30.316-30.316v-424.421c0-17.052 13.263-30.316 30.316-30.316z" />
<glyph unicode="&#xe914;" glyph-name="clock-solid" d="M512 896c282.77 0 512-229.23 512-512s-229.23-512-512-512v0c-282.77 0-512 229.23-512 512s229.23 512 512 512v0zM464 656v-272c0-16 8-31 21.4-40l192-128c22-14.8 51.8-8.8 66.6 13.4s8.8 51.8-13.4 66.6l-170.6 113.6v246.4c0 26.6-21.4 48-48 48s-48-21.4-48-48z" />
<glyph unicode="&#xe915;" glyph-name="check-circle-solid" d="M512-128c282.8 0 512 229.2 512 512s-229.2 512-512 512-512-229.2-512-512 229.2-512 512-512zM738 478l-256-256c-18.8-18.8-49.2-18.8-67.8 0l-128 128c-18.8 18.8-18.8 49.2 0 67.8s49.2 18.8 67.8 0l94-94 222 222.2c18.8 18.8 49.2 18.8 67.8 0s18.8-49.2 0-67.8z" />
<glyph unicode="&#xe916;" glyph-name="badge-check" d="M480.2 223.8c-17-20.4-47.4-20.4-66.2 0l-112 112c-18.6 17-18.6 47.4 0 66.2 18.8 18.6 49.2 18.6 66.2 0l79.8-78.2 190 190.2c18.8 18.6 49.2 18.6 66.2 0 20.4-18.8 20.4-49.2 0-66.2l-224-224zM688.2 809.18c65.8 8.62 135-12.36 185.8-63.14 50.8-50.84 71.8-118.24 63.2-185.84 51-40.6 86.8-104.4 86.8-176.2s-35.8-135.6-86.8-176.2c8.6-65.8-12.4-135-63.2-185.8s-120-71.8-185.8-63.2c-40.6-51-104.4-86.8-176.2-86.8s-135.6 35.8-176.2 86.8c-67.6-8.6-135 12.4-185.84 63.2-50.76 50.8-71.76 120-63.14 185.8-52.74 40.6-86.82 104.4-86.82 176.2s34.080 135.6 86.84 176.2c-8.64 67.6 12.36 135 63.12 185.84 50.84 50.76 118.24 71.76 185.84 63.14 40.6 52.74 104.4 86.82 176.2 86.82s135.6-34.080 176.2-86.82v0zM380.2 697.86l-36.2 11.64c-43.2 13.3-93.8 2.76-126.2-31.3-34.060-32.4-44.6-83-31.3-126.2l11.64-36.2-35.040-20.4c-40.020-21.2-67.1-63.2-67.1-111.4s27.080-90.2 67.1-111.4l35.040-18.6-11.64-36.2c-13.3-45-2.76-93.8 31.3-128 32.4-34 83-44.6 126.2-31.2l36.2 11.6 20.4-35.2c21.2-40 63.2-67 111.4-67s90.2 27 111.4 67l18.6 35.2 36.2-11.8c45-13.2 93.8-2.6 128 31.4 34 34.2 44.6 83 31.2 128l-11.6 36.2 35.2 18.6c40 21.2 67 63.2 67 111.4s-27 90.2-67 111.4l-35.2 20.4 11.6 36.2c13.4 43.2 2.8 93.8-31.2 126.2-34.2 34.060-83 44.6-128 31.3l-36.2-11.64-18.6 35.040c-21.2 40.020-63.2 67.1-111.4 67.1s-90.2-27.080-111.4-67.1l-20.4-35.040z" />
<glyph unicode="&#xe917;" glyph-name="bell-on" horiz-adv-x="1280" d="M704 832v-35.76c145-23.020 256-148.64 256-300.24v-66.8c0-90.8 31-179 87.6-250l29.8-37.2c11.6-14.4 13.8-34.2 5.8-50.8s-24.8-27.2-43.2-27.2h-800c-18.4 0-35.2 10.6-43.26 27.2-8 16.6-5.74 36.4 5.86 50.8l29.8 37.2c56.6 71 87.6 159.2 87.6 250v66.8c0 151.6 111 277.22 256 300.24v35.76c0 35.34 28.6 64 64 64s64-28.66 64-64v0zM624 704c-114.8 0-208-93.2-208-208v-66.8c0-95.8-27.8-189.2-79.4-269.2h606.8c-51.6 80-79.4 173.4-79.4 269.2v66.8c0 114.8-93.2 208-208 208h-32zM768 0c0-32.2-13.4-66.6-37.4-90.6s-58.4-37.4-90.6-37.4c-34 0-66.6 13.4-90.6 37.4s-37.4 58.4-37.4 90.6h256zM0 496c0 26.6 21.5 48 48 48h160c26.6 0 48-21.4 48-48s-21.4-48-48-48h-160c-26.5 0-48 21.4-48 48zM1232 544c26.6 0 48-21.4 48-48s-21.4-48-48-48h-160c-26.6 0-48 21.4-48 48s21.4 48 48 48h160zM1195 853.46c11.8-23.7 2.2-52.54-21.6-64.4l-128-64c-23.6-11.84-52.4-2.24-64.4 21.48-11.8 23.7-2.2 52.54 21.6 64.4l128 64c23.6 11.848 52.4 2.236 64.4-21.48v0zM106.54 789.060c-23.72 11.86-33.32 40.7-21.48 64.4 11.86 23.716 40.7 33.328 64.4 21.48l127.94-64c23.8-11.86 33.4-40.7 21.6-64.4-12-23.72-40.8-33.32-64.4-21.48l-128.060 64z" />
<glyph unicode="&#xe918;" glyph-name="bell-slash" horiz-adv-x="1280" d="M367.2 658.8c45.8 72.040 121 123.52 208.8 137.44v35.76c0 35.34 28.6 63.999 64 63.999s64-28.659 64-63.999v-35.76c145-23.020 256-148.64 256-300.24v-66.8c0-90.8 31-179 87.6-250l29.8-37.2c8.8-13 13.4-30.4 7.8-46l176.4-138.2c20.8-16.4 24.6-46.6 8.2-67.4s-46.6-24.6-67.4-8.2l-1184.008 928.020c-20.864 16.36-24.522 46.52-8.168 67.388 16.356 20.864 46.516 24.522 67.396 8.168l289.58-226.976zM443.4 599.2l458-357.4c-24.6 57.8-37.4 122-37.4 187.4v66.8c0 114.8-93.2 208-208 208h-32c-77.4 0-144.8-42.2-180.6-104.8v0zM320 429.2v22.6l93.4-73.6c-8-77.6-34.4-152.6-76.8-218.2h353.8l122-96h-572.4c-18.4 0-35.2 10.6-43.26 27.2-8 16.6-5.74 36.4 5.86 50.8l29.8 37.2c56.6 71 87.6 159.2 87.6 250v0zM768 0c0-32.2-13.4-66.6-37.4-90.6s-58.4-37.4-90.6-37.4c-34 0-66.6 13.4-90.6 37.4s-37.4 58.4-37.4 90.6h256z" />
<glyph unicode="&#xe919;" glyph-name="bell" horiz-adv-x="896" d="M512 832v-35.76c145-23.020 256-148.64 256-300.24v-66.8c0-90.8 31-179 87.6-250l29.8-37.2c11.6-14.4 13.8-34.2 5.8-50.8s-24.8-27.2-43.2-27.2h-800c-18.46 0-35.27 10.6-43.262 27.2-7.994 16.6-5.746 36.4 5.782 50.8l29.82 37.2c56.74 71 87.66 159.2 87.66 250v66.8c0 151.6 111 277.22 256 300.24v35.76c0 35.34 28.6 64 64 64s64-28.66 64-64v0zM432 704c-114.8 0-208-93.2-208-208v-66.8c0-95.8-27.76-189.2-79.38-269.2h606.78c-51.6 80-79.4 173.4-79.4 269.2v66.8c0 114.8-93.2 208-208 208h-32zM576 0c0-32.2-13.4-66.6-37.4-90.6s-58.4-37.4-90.6-37.4c-34 0-66.6 13.4-90.6 37.4s-37.4 58.4-37.4 90.6h256z" />
<glyph unicode="&#xe91a;" glyph-name="circle-minus-solid" d="M512-128c282.8 0 512 229.2 512 512s-229.2 512-512 512-512-229.2-512-512 229.2-512 512-512zM368 432h288c26.6 0 48-21.4 48-48s-21.4-48-48-48h-288c-26.6 0-48 21.4-48 48s21.4 48 48 48z" />
<glyph unicode="&#xe91b;" glyph-name="book-spells" horiz-adv-x="896" d="M896 192v608c0 52.94-43 96-96 96h-640c-88.22 0-160-71.76-160-160v-704c0-88.2 71.78-160 160-160h688c26.5 0 48 21.5 48 48s-21.5 48-48 48h-16v133.9c37.2 13.3 64 48.5 64 90.1zM736-32h-576c-35.28 0-64 28.68-64 64s28.72 64 64 64h576v-128zM800 192h-640c-22.76 0-44.4-4.75-64-13.376v557.376c0 35.32 28.72 64 64 64h640v-608zM318.2 608l24.84-59.56c2.96-2.44 6.16-4.44 7.16-4.44s5.93 1.984 7.148 4.438l24.852 59.562 61.4 24.8c0.6 3 2.6 4.4 2.6 7.2 0 2.734-2 5.938-4.434 7.156l-59.566 24.844-23 59.56c-3 2.46-4.4 4.44-9 4.44s-4.2-1.98-5.4-4.44l-26.6-59.56-57.8-24.8c-4.2-1.2-4.4-4.4-4.4-7.2 0-2.718 1.984-5.938 4.422-7.156l57.778-24.844zM416 417.8c0.023-4.532 3.34-9.93 7.386-11.946l98.76-41.18 0.801-0.898 41.12-98.6c2.024-4.070 7.344-7.36 11.888-7.39 4.558 0 9.93 3.304 11.96 7.39l41.4 99.28 99.28 41.4c4.005 0.344 7.405 5.544 7.405 10.144 0 4.562-3.304 9.89-7.364 11.922l-99.236 41.478-41.4 99.28c-2.032 4.086-7.396 7.386-11.954 7.386-4.542-0.031-9.87-3.324-11.894-7.386l-41.44-99.26-99.312-41.42c-4-2-7.4-7.4-7.4-10.2z" />
<glyph unicode="&#xe91c;" glyph-name="book" horiz-adv-x="896" d="M896 192v608c0 52.94-43 96-96 96h-640c-88.22 0-160-71.76-160-160v-704c0-88.2 71.78-160 160-160h688c26.5 0 48 21.5 48 48s-21.5 48-48 48h-16v133.9c37.2 13.3 64 48.5 64 90.1zM736-32h-576c-35.28 0-64 28.68-64 64s28.72 64 64 64h576v-128zM800 192h-640c-22.76 0-44.4-4.75-64-13.376v557.376c0 35.32 28.72 64 64 64h640v-608zM304 576h352c26.6 0 48 21.4 48 48s-21.4 48-48 48h-352c-26.4 0-48-21.6-48-48s21.6-48 48-48zM304 416h352c26.6 0 48 21.4 48 48s-21.4 48-48 48h-352c-26.4 0-48-21.6-48-48s21.6-48 48-48z" />
<glyph unicode="&#xe91d;" glyph-name="bookmark" horiz-adv-x="768" d="M672 896h-576c-53.020 0-96-42.98-96-96v-863.8c0-49.4 53.58-80.16 96.24-55.28l287.76 167.88 287.8-167.86c42.6-23.14 96.2 5.86 96.2 55.26v863.8c0 53.020-43 96-96 96zM672-8l-288 168-288-168v796c0 6.74 5.26 12 10.2 12h552c8.6 0 13.8-5.26 13.8-12v-796z" />
<glyph unicode="&#xe91e;" glyph-name="automator" d="M682.080 442.080c-4.32-37.12-4.32-74.72 0-111.84 6.4-55.040 107.2-55.040 116.32 0 5.92 36.96 5.92 74.4 0 111.36-8.96 55.040-110.4 55.040-116.32 0.48zM224.64 441.44c-5.92-36.96-5.92-74.4 0-111.36 9.12-55.040 110.080-55.040 116.48 0 4.32 37.12 4.32 74.72 0 111.84-5.92 54.72-106.72 54.72-116.48-0.48zM593.12 262.24c-50.080-13.12-102.56-13.12-152.64 0 4.64-94.4 148-94.4 152.64 0zM1016 591.36c-5.44 49.12-36 76-82.4 86.4-138.72 29.12-280.16 43.040-422.080 41.28-141.44 1.28-282.56-12.48-421.12-41.28-47.36-10.4-77.76-37.28-83.2-86.4-6.24-64-8.48-128.16-6.4-192.32 1.44-68.32 9.76-136.32 24.96-203.040 10.4-43.68 57.6-71.84 96.8-88.32 184-78.56 593.6-78.56 778.4 0 39.2 16.64 85.76 44.64 96.8 88.32 15.36 66.56 24 134.72 25.6 203.040 2.080 64.16-0.32 128.48-7.36 192.32zM929.28 213.12c-4-15.84-44-35.84-56.32-40.48-166.4-71.68-557.76-71.68-724 0-12.48 5.12-51.84 24.16-56.32 40.48-23.36 96.8-29.44 246.88-16.16 371.2 1.92 19.040 13.12 21.76 27.68 24.96 81.28 18.88 164 30.24 247.36 34.56 2.88 0.16 5.76-0.96 8-2.88 2.080-1.92 3.36-4.64 3.84-7.52 5.92-45.76 15.84-90.72 29.44-134.88 9.92-19.68 73.28-28.16 118.72-28.16 45.92 0 109.44 8.48 117.76 28.16 13.6 44 23.68 89.12 29.6 134.88 0.32 2.88 1.76 5.6 4 7.52 2.080 1.76 4.96 2.88 7.84 2.88 83.2-3.84 165.6-15.36 246.72-34.56 15.040-3.2 26.24-5.92 28.16-24.96 13.12-123.84 7.2-273.76-16.32-371.2z" />
<glyph unicode="&#xe91f;" glyph-name="engine-warning" horiz-adv-x="1280" d="M640 640c26.6 0 48-21.4 48-48v-224c0-26.6-21.4-48-48-48s-48 21.4-48 48v224c0 26.6 21.4 48 48 48zM704 192c0-35.4-28.6-64-64-64s-64 28.6-64 64c0 35.4 28.6 64 64 64s64-28.6 64-64zM192 384c0 247.4 200.6 448 448 448s448-200.6 448-448c0-247.4-200.6-448-448-448s-448 200.6-448 448zM640 32c194.4 0 352 157.6 352 352s-157.6 352-352 352c-194.4 0-352-157.6-352-352s157.6-352 352-352zM167.84 744.36c22.28-14.34 28.72-44.060 14.38-64.56-54.56-86.6-86.22-187.4-86.22-294 0-110.2 31.66-211 86.22-295.8 14.34-22.4 7.9-52-14.38-66.4-22.3-14.4-52-7.8-66.34 16.2-64.24 98-101.5 216.8-101.5 346 0 125.6 37.26 244.4 101.5 344.18 14.34 22.3 44.040 28.72 66.34 14.38v0zM1112.2 744.36c22.2 14.34 52 7.92 66.4-14.38 64.2-99.78 101.4-218.58 101.4-344.18 0-129.2-37.2-248-101.4-346-14.4-24-44.2-30.6-66.4-16.2-22.4 14.4-28.8 44-14.4 66.4 54.6 84.8 86.2 185.6 86.2 295.8 0 106.6-31.6 207.4-86.2 294-14.4 20.5-8 50.22 14.4 64.56v0z" />
<glyph unicode="&#xe920;" glyph-name="bug-slash" horiz-adv-x="1280" d="M478.2 570.4c17.2 5.4 33.2 5.6 49.8 5.6h224c40 0 77.4-11.4 109.2-31l144.8 145c18.8 18.68 49.2 18.68 66.2 0 20.4-18.8 20.4-49.2 0-66.2l-143.2-146.6c19.6-31.8 31-67.4 31-109.2h144c26.6 0 48-21.4 48-48s-21.4-48-48-48h-144v-16c0-19.8-1.8-39-5.2-57.8l306.8-240.4c20.8-16.4 24.6-46.6 8.2-67.4s-46.6-24.6-67.4-8.2l-1184.008 928.020c-20.864 16.36-24.522 46.52-8.168 67.388 16.356 20.864 46.516 24.522 67.396 8.168l400.58-315.376zM595.4 480l268.6-210.6v98.6c0 61.8-50.2 112-112 112h-156.6zM832 704v-7.12c0-31.48-25.4-56.88-56.8-56.88h-270.4c-31.4 0-56.8 25.4-56.8 56.88v7.12c0 106.040 84.2 191.998 192 191.998 106 0 192-85.958 192-191.998v0zM320 368c0 25.8 4.8 50.6 13.4 73.4l82.8-63.6c-0.2-4.4-0.2-7.2-0.2-9.8v-112c0-107.2 75.4-196.8 176-218.8v200.4l96-75.6v-124.8c36.6 8 69.6 24.8 97.2 48.2l76.4-60.2c-57.4-55.2-135.6-89.2-221.6-89.2-87.4 0-166.6 35-224.4 91.8l-143.4-140c-17-20.4-47.4-20.4-66.2 0-18.68 17-18.68 47.4 0 66.2l151.6 151.4c-24 45-37.6 96.2-37.6 150.6v16h-144c-26.5 0-48 21.4-48 48s21.5 48 48 48h144z" />
<glyph unicode="&#xe921;" glyph-name="arrow-long-down" d="M930.154 276l-361.847-379.078c-10.769-10.768-23.692-15.076-36.615-15.076-15.077 0-28 4.309-38.769 15.076l-361.846 379.078c-19.384 21.538-19.384 53.846 2.154 73.23 19.384 19.385 53.846 19.385 73.23-2.154l273.539-286.464v732.31c0 30.154 21.539 51.692 49.539 51.692 25.846 0 53.846-21.538 53.846-51.692v-732.31l271.388 286.464c19.385 21.539 53.847 21.539 73.224 2.154 21.543-19.384 21.543-51.692 2.158-73.23z" />
<glyph unicode="&#xe922;" glyph-name="bullhorn" d="M401.4 640c140 0 274.4 55.6 373.4 154.64l76 75.98c40.2 40.324 109.2 11.77 109.2-45.24v-288.58c37.2-17.6 64-65 64-120.8s-26.8-103.2-64-120.8v-288.6c0-57-69-85.6-109.2-45.2l-76 76c-95.6 95.6-224 152.4-358.8 154.4v-207.8c0-61.8-50.2-112-112-112h-64c-61.86 0-112 50.2-112 112v208c-70.7 0-128 57.4-128 128v192c0 70.6 57.3 128 128 128h273.4zM864 748.12l-21.4-21.36c-113.6-113.56-266.4-178.76-426.6-182.56v-256.4c160.2-2 313-69 426.6-182.6l21.4-21.4v664.32zM224-16c0-8.8 7.2-16 16-16h64c8.8 0 16 7.2 16 16v208h-96v-208zM96 512v-192c0-17.6 14.32-30.2 32-30.2h192v254.2h-192c-17.68 0-32-14.4-32-32v0z" />
<glyph unicode="&#xe923;" glyph-name="calendar-clock" horiz-adv-x="1152" d="M254.2 896c28.4 0 48-21.5 48-48v-80h289.8v80c0 26.5 21.4 48 48 48s48-21.5 48-48v-80h80c70.6 0 128-57.3 128-128v-128h-801.8v-512c0-17.6 16.12-32 32-32h442.8c24.4-37.6 56-70.2 92.6-96h-533.6c-70.7 0-128 57.4-128 128v640c0 70.7 57.3 128 128 128h80v80c0 26.5 21.4 48 48 48h-1.8zM1152 160c0-159-129-288-288-288s-289.8 129-289.8 288c0 159 130.8 288 289.8 288s288-129 288-288zM830.2 288v-128c0-17.6 16.2-32 32-32h97.8c17.6 0 32 14.4 32 32s-14.4 32-32 32h-65.8v96c0 17.6-12.6 32-32 32-15.8 0-32-14.4-32-32v0z" />
<glyph unicode="&#xe924;" glyph-name="arrow-long-left" d="M962.773 403.692c0-30.154-23.694-53.846-51.696-53.846h-732.307l286.462-271.385c21.539-19.384 21.539-53.846 2.154-73.231-19.384-21.536-51.692-21.536-73.23-2.15l-379.077 361.843c-10.769 10.769-15.077 23.692-15.077 38.769 0 12.923 4.308 25.846 15.077 36.615l379.077 361.846c21.538 19.385 53.846 19.385 73.23-2.154 19.385-19.385 19.385-53.846-2.154-73.231l-286.462-271.384h732.307c30.153 0 51.696-23.692 51.696-51.692z" />
<glyph unicode="&#xe925;" glyph-name="carrot" d="M739.4 611.4c45.4 95.060 21.8 207.84-70.8 284.6-88.98-73.76-113.22-180.040-74.74-272.4-26.2 9.752-56.52 16.1-85.020 16.1-95.98 0-188.22-53.5-233.2-145.52l-270.8-555c-5.998-12.504-6.574-27.8-0.076-41.060 8.172-16.52 24.676-26.12 41.916-26.12 6.748 0 13.7 1.551 20.7 4.802l555 271c48.2 24.5 92.86 65.26 119.1 119.26 31.5 64.26 33.78 135.28 12.284 197.78 91.836-37.442 196.836-12.442 270.236 75.758-77.2 92.8-189.8 116.4-284.6 70.8zM655.4 309.2c-16.248-33-40.2-59.020-74.98-75.020l-114.72-56.020-47.74 47.76c-18.746 18.754-49.24 18.754-67.74 0-18.746-18.754-18.746-49.26 0-67.76l24.24-24.5-220.8-108.020 192.22 393.8 67.98-69.52c9.498-9.502 21.5-14.004 32.2-14.004 12.498 0 24.5 4.502 32.2 14.004 18.746 18.754 18.746 49.26 0 67.76l-79.66 81.72c29.8 27.6 68 44.2 110.2 44.2 24.74 0 48.74-5.502 71.48-16.504 39-19.254 68.48-52.52 82.74-93.78 13.98-40.916 11.38-85.116-7.62-124.116z" />
<glyph unicode="&#xe926;" glyph-name="cart-shopping" horiz-adv-x="1152" d="M192 896c23 0 42.8-16.38 47.2-39.020l3-24.98h841.4c40.6 0 73-40.5 61.6-81.32l-108-384.080c-7.8-27.6-33-46.6-61.6-46.6h-634.2l18.4-96h616.2c26.6 0 48-21.4 48-48s-21.4-48-48-48h-657.8c-21.2 0-41 16.4-45.4 39l-120.52 633h-104.28c-26.5 0-48 21.5-48 48s21.5 48 48 48h144zM951.2 416l90 320h-779l61-320h628zM256-32c0 53 43 96 96 96s96-43 96-96c0-53-43-96-96-96s-96 43-96 96zM1024-32c0-53-43-96-96-96s-96 43-96 96c0 53 43 96 96 96s96-43 96-96z" />
<glyph unicode="&#xe927;" glyph-name="analytics" d="M671.2 459.6c-18-13.8-44.8-15.4-62.8 0.2l-228.4 199.8-305.38-201.8c-22.040-16.4-51.86-10.4-66.554 11.6-14.706 22-8.745 51.8 13.314 66.6l336.020 223.94c18 12.040 41.8 10.46 58.2-3.82l224.8-196.52 304.4 260.84c20 17.26 50.4 14.92 67.6-5.2 17.4-20.12 15-50.42-5.2-67.68l-336-287.96zM480 353.8v-320c0-54.8-43-96-96-96s-96 41.2-96 96v320c0 51.2 43 96 96 96s96-44.8 96-96zM400 33.8v320c0 7-7.2 16-16 16s-16-9-16-16v-320c0-10.6 7.2-16 16-16s16 5.4 16 16zM224 161.8v-128c0-54.8-42.98-96-96-96s-96 41.2-96 96v128c0 51.2 42.98 96 96 96s96-44.8 96-96zM144 33.8v128c0 7-7.16 16-16 16s-16-9-16-16v-128c0-10.6 7.16-16 16-16s16 5.4 16 16zM544 225.8c0 51.2 43 96 96 96s96-44.8 96-96v-192c0-54.8-43-96-96-96s-96 41.2-96 96v192zM640 241.8c-8.8 0-16-9-16-16v-192c0-10.6 7.2-16 16-16s16 5.4 16 16v192c0 7-7.2 16-16 16zM992 353.8v-320c0-54.8-43-96-96-96s-96 41.2-96 96v320c0 51.2 43 96 96 96s96-44.8 96-96zM912 33.8v320c0 7-7.2 16-16 16s-16-9-16-16v-320c0-10.6 7.2-16 16-16s16 5.4 16 16z" />
<glyph unicode="&#xe928;" glyph-name="chart-user" horiz-adv-x="1280" d="M320 256c106.040 0 192 85.96 192 192s-85.96 192-192 192c-107.8 0-192-84.2-192-192 0-106 84.2-192 192-192zM320 544c52.94 0 96-43.060 96-96s-43-96-96-96-96 43-96 96 43 96 96 96zM384 192h-128c-141.38 0-256-114.6-256-256 0-35.34 28.66-64 64-64h512c35.34 0 64 28.66 64 64 0 141.4-114.6 256-256 256zM99.22-32c14.86 73 79.52 128 156.78 128h128c77.26 0 141.92-55.060 156.78-128h-441.56zM1168 896h-736c-61.8 0-112-50.24-112-112v-48c0-26.5 21.5-48 48-48s48 21.5 48 48v48c0 8.812 7.188 16 16 16h736c8.812 0 16-7.188 16-16v-608c0-8.812-7.188-16-16-16h-464c-26.5 0-48-21.5-48-48s21.6-48 48-48h464c61.76 0 112 50.24 112 112v608c0 61.76-50.2 112-112 112zM656.2 562c-18.75 18.75-49.2 18.75-67.96 0s-18.708-49.16 0.042-67.92l143.96-144.040c11.158-9.44 23.358-14.040 35.758-14.040s24.6 4.646 33.98 14.020l190.020 190.18v-44.2c0-26.6 21.6-48 48-48s48 21.4 48 48v160c0 26.4-21.4 48-48 48h-160c-26.4 0-48-21.6-48-48s21.5-48 48-48h44.12l-156.12-156-111.8 110z" />
<glyph unicode="&#xe929;" glyph-name="arrow-long-right" d="M568.615 802.154l379.073-361.846c10.776-10.769 17.235-23.692 17.235-38.769 0-12.924-6.459-25.847-17.235-36.616l-379.073-361.843c-19.384-19.385-53.846-19.385-73.231 2.15-19.384 19.385-19.384 53.847 2.154 73.231l286.461 271.385h-732.307c-30.154 0-51.692 23.692-51.692 51.692 0 30.154 21.539 51.692 51.692 51.692h732.307l-286.461 273.538c-21.539 19.385-21.539 53.846-2.154 73.231 19.385 21.539 51.692 21.539 73.231 2.154z" />
<glyph unicode="&#xe92a;" glyph-name="arrow-long-up" d="M131.077 450.462l361.846 379.077c10.769 10.769 23.692 15.077 38.769 15.077 12.923 0 25.846-4.308 36.615-15.077l361.847-379.077c19.385-21.539 19.385-53.846-2.158-73.231-19.377-19.384-53.839-19.384-73.224 2.154l-271.388 286.461v-732.311c0-30.153-23.692-51.688-51.692-51.688-25.846 0-51.692 21.536-51.692 51.688v732.311l-273.539-286.461c-19.384-21.539-53.846-21.539-73.23-2.154-21.539 19.385-21.539 53.847-2.154 73.231z" />
<glyph unicode="&#xe92b;" glyph-name="pause" horiz-adv-x="652" d="M61.091 849.455c33.091 0 61.091-28 61.091-61.091v-855.277c0-35.635-28-61.086-61.091-61.086-35.636 0-61.091 25.451-61.091 61.086v855.277c0 33.091 25.455 61.091 61.091 61.091zM590.545 849.455c33.091 0 61.091-28 61.091-61.091v-855.277c0-35.635-28-61.086-61.091-61.086-35.636 0-61.091 25.451-61.091 61.086v855.277c0 33.091 25.455 61.091 61.091 61.091z" />
<glyph unicode="&#xe92e;" glyph-name="circle-bolt" d="M627.2 633.6c11.8-8.8 16-24.6 10.2-38.2l-76.8-179.4h127.4c13.6 0 25.6-8.4 30.2-21.2 4.4-11 0.6-27-9.8-35.6l-272-224c-11.4-9.2-27.8-9.6-39.6-0.8s-16 24.6-10.2 38.2l76.8 181.2h-127.4c-13.6 0-25.6 6.6-30.2 19.4-4.4 12.8-0.6 27 9.8 35.6l272 224c11.4 11 27.8 9.6 39.6 0.8v0zM1024 384c0-282.8-229.2-512-512-512s-512 229.2-512 512c0 282.8 229.2 512 512 512s512-229.2 512-512zM512 800c-229.8 0-416-186.2-416-416s186.2-416 416-416c229.8 0 416 186.2 416 416s-186.2 416-416 416z" />
<glyph unicode="&#xe930;" glyph-name="usd-circle" d="M553.6 600.4c19.4-2.4 38.8-7.8 58-13.2 3.6-1 7.4-2.2 11-1.4 23-8.2 36.6-32 30.2-55s-30.2-36.4-53.2-30c-3 0.8-6.2 1.6-9.2 2.6-14 3.8-28 7.8-42.2 10.6-26.4 5-57 2.6-81.8-8-22-9.6-40.2-32.8-15.2-48.8 19.8-12.6 43.6-19 66.4-23.4 4.6-3 9.4-4.4 14-5.6 31.2-9 71-20.2 100.8-40.6 38.8-26.6 57-70 48.6-116.4-8.4-44.8-39.4-74.2-77-89.2-15.6-6.4-32.6-10.4-50.4-12.4v-30.4c0-23.8-19.4-43.2-43.2-43.2s-43.2 19.4-43.2 43.2v34.8c-29 6.4-57.4 15.8-85.6 25-22.6 7.4-35 32-27.4 54.6 7.4 22.6 32 35 54.6 27.4 5-1.6 10-3.4 15-5 22.6-7.6 45.8-15.6 69-19.2 34-5 59.4-2 79 7 24 8 35.2 36.4 11.8 52.4-20.2 15.6-45.2 20.6-69 27-6.4 1.4-9.2 2.6-13.6 3.8-30.2 8.6-67.8 19.2-96.2 37.4-39 25-59 66.6-50.6 112.8 8 43.6 42 72.6 78 88 11 6.6 22.8 8.6 35 11.4v32.2c0 23.8 19.4 45 43.2 45s43.2-21.2 43.2-45v-28.4zM1024 384c0-282.8-229.2-512-512-512s-512 229.2-512 512c0 282.8 229.2 512 512 512s512-229.2 512-512zM512 800c-229.8 0-416-186.2-416-416s186.2-416 416-416c229.8 0 416 186.2 416 416s-186.2 416-416 416z" />
<glyph unicode="&#xe931;" glyph-name="exclamation-circle" d="M512 896c-282.8 0-512-229.2-512-512s229.2-512 512-512 512 229.2 512 512-229.2 512-512 512zM512-32c-229.4 0-416 186.62-416 416s186.6 416 416 416 416-186.62 416-416-186.6-416-416-416zM512 288c26.5 0 48 21.5 48 48v256c0 26.4-21.4 48-48 48s-48-21.6-48-48v-256c0-26.6 21.6-48 48-48zM512 221.8c-34.72 0-62.88-28.16-62.88-62.88 0.080-34.72 28.080-62.92 62.88-62.92s62.88 28.16 62.88 62.88c-0.080 34.72-28.080 62.92-62.88 62.92z" />
<glyph unicode="&#xe935;" glyph-name="sort-circle-down" d="M538.2 661.2c-7 6.8-16.4 10.8-26.2 10.8s-19-4-26-10.8l-183.2-182.4c-23-23-6.8-62.8 26.2-62.8h366c33 0 49.24 39.76 26.24 62.76l-183.040 182.44zM394.6 480l117.4 116.94 117.4-116.94h-234.8zM695 352h-366c-33 0-49.2-39.8-26.2-62.8l183.2-182.4c7-6.8 16.2-10.8 26-10.8s19.25 4 26.24 10.75l183 182.5c22.96 22.95 6.76 62.75-26.24 62.75zM512 896c-282.8 0-512-229.2-512-512s229.2-512 512-512 512 229.2 512 512-229.2 512-512 512zM512-32c-229.4 0-416 186.62-416 416s186.6 416 416 416 416-186.62 416-416-186.6-416-416-416z" />
<glyph unicode="&#xe936;" glyph-name="sort-circle-up" d="M538.2 661.2c-7 6.8-16.4 10.8-26.2 10.8s-19-4-26-10.8l-183.2-182.4c-23-23-6.8-62.8 26.2-62.8h366c33 0 49.24 39.76 26.24 62.76l-183.040 182.44zM695 352h-366c-33 0-49.2-39.8-26.2-62.8l183.2-182.4c7-6.8 16.2-10.8 26-10.8s19.25 4 26.24 10.75l183 182.5c22.96 22.95 6.76 62.75-26.24 62.75zM512.2 171l-117.6 117h234.6l-117-117zM512 896c-282.8 0-512-229.2-512-512s229.2-512 512-512 512 229.2 512 512-229.2 512-512 512zM512-32c-229.4 0-416 186.62-416 416s186.6 416 416 416 416-186.62 416-416-186.6-416-416-416z" />
<glyph unicode="&#xe937;" glyph-name="sort-circle" d="M695 352h-366c-33 0-49.2-39.8-26.2-62.8l183.2-182.4c7-6.8 16.2-10.8 26-10.8s19.25 4 26.24 10.75l183 182.5c22.96 22.95 6.76 62.75-26.24 62.75zM538.2 661.2c-7 6.8-16.4 10.8-26.2 10.8s-19-4-26-10.8l-183.2-182.4c-23-23-6.8-62.8 26.2-62.8h366c33 0 49.24 39.76 26.24 62.76l-183.040 182.44zM512 896c-282.8 0-512-229.2-512-512s229.2-512 512-512 512 229.2 512 512-229.2 512-512 512zM512-32c-229.4 0-416 186.62-416 416s186.6 416 416 416 416-186.62 416-416-186.6-416-416-416z" />
<glyph unicode="&#xe938;" glyph-name="circle-star" d="M512 654c12.2 0 23.4-7 28.6-17.8l62.6-126.6 139.8-20.4c12-1.8 22-10.2 25.8-21.8s0.6-24.2-8.2-32.8l-101-96.8 23.8-141c2-12-2.8-24-12.6-31.2-10-7.2-23-8.2-33.8-2.4l-125 65.6-125-65.6c-10.8-5.8-23.8-4.8-33.8 2.4-9.8 7.2-14.6 19.2-12.6 31.2l23.8 141-101 96.8c-8.8 8.6-12 21.2-8.2 32.8s13.8 20 25.8 21.8l139.8 20.4 62.6 126.6c5.2 10.8 16.4 17.8 28.6 17.8v0zM1024 384c0-282.8-229.2-512-512-512s-512 229.2-512 512c0 282.8 229.2 512 512 512s512-229.2 512-512zM512 800c-229.8 0-416-186.2-416-416s186.2-416 416-416c229.8 0 416 186.2 416 416s-186.2 416-416 416z" />
<glyph unicode="&#xe939;" glyph-name="times-circle" d="M350 546c18.8 18.6 49.2 18.6 66.2 0l94-94.2 95.8 94.2c18.8 18.6 49.2 18.6 66.2 0 20.4-18.8 20.4-49.2 0-66.2l-92.4-94 92.4-95.8c20.4-18.8 20.4-49.2 0-66.2-17-20.4-47.4-20.4-66.2 0l-95.8 92.4-94-92.4c-17-20.4-47.4-20.4-66.2 0-18.6 17-18.6 47.4 0 66.2l94.2 95.8-94.2 94c-18.6 17-18.6 47.4 0 66.2v0zM1024 384c0-282.8-229.2-512-512-512s-512 229.2-512 512c0 282.8 229.2 512 512 512s512-229.2 512-512zM512 800c-229.8 0-416-186.2-416-416s186.2-416 416-416c229.8 0 416 186.2 416 416s-186.2 416-416 416z" />
<glyph unicode="&#xe93b;" glyph-name="cloud-download" horiz-adv-x="1280" d="M446 271.8c-18.6 17-18.6 47.4 0 66.2 18.8 18.6 49.2 18.6 66.2 0l79.8-78.2v268.2c0 26.6 21.4 48 48 48s48-21.4 48-48v-268.2l78 78.2c18.8 18.6 49.2 18.6 66.2 0 20.4-18.8 20.4-49.2 0-66.2l-160-160c-17-20.4-47.4-20.4-66.2 0l-160 160zM288-64c-159.060 0-288 129-288 288 0 125.4 80.14 233.8 192 271.6v0.4c0 185.6 150.4 336 336 336 101.8 0 192.8-45.2 254.6-116.62 29.8 13.26 62.6 20.62 97.4 20.62 132.6 0 240-107.4 240-240 0-13.2-1-26-3-38.6 96-42 163-138 163-249.4 0-144.8-113.2-263.2-256-271.6v-0.4h-736zM528 736c-132.6 0-240-107.4-240-240v-68.2l-65.8-22.8c-72.92-26.4-126.2-97.6-126.2-181 0-106 85.96-192 192-192l730.4 0.4c92.4 5.2 165.6 82 165.6 175.6 0 72-43.2 134.2-105.6 161.4l-68.2 29.8 12 73.4c1.2 7.6 1.8 15.4 1.8 23.4 0 79.6-64.4 144-144 144-21 0-40.8-4.4-58.4-12.4l-65.2-29-46.6 54c-44.2 51.24-109.2 83.4-183.6 83.4h1.8z" />
<glyph unicode="&#xe93c;" glyph-name="cloud-upload" horiz-adv-x="1280" d="M606 546c18.8 18.6 49.2 18.6 66.2 0l160-160c20.4-18.8 20.4-49.2 0-66.2-17-20.4-47.4-20.4-66.2 0l-78 76.4v-268.2c0-26.6-21.4-48-48-48s-48 21.4-48 48v268.2l-79.8-76.4c-17-20.4-47.4-20.4-66.2 0-18.6 17-18.6 47.4 0 66.2l160 160zM288-64c-159.060 0-288 129-288 288 0 125.4 80.14 233.8 192 271.6v0.4c0 185.6 150.4 336 336 336 101.8 0 192.8-45.2 254.6-116.62 29.8 13.26 62.6 20.62 97.4 20.62 132.6 0 240-107.4 240-240 0-13.2-1-26-3-38.6 96-42 163-138 163-249.4 0-144.8-113.2-263.2-256-271.6v-0.4h-736zM528 736c-132.6 0-240-107.4-240-240v-68.2l-65.8-22.8c-72.92-26.4-126.2-97.6-126.2-181 0-106 85.96-192 192-192l730.4 0.4c92.4 5.2 165.6 82 165.6 175.6 0 72-43.2 134.2-105.6 161.4l-68.2 29.8 12 73.4c1.2 7.6 1.8 15.4 1.8 23.4 0 79.6-64.4 144-144 144-21 0-40.8-4.4-58.4-12.4l-65.2-29-46.6 54c-44.2 51.24-109.2 83.4-183.6 83.4h1.8z" />
<glyph unicode="&#xe93d;" glyph-name="cloud-word" horiz-adv-x="1280" d="M992 128h-384c-17.6 0-32 14.4-32 32s14.4 32 32 32h384c17.6 0 32-14.4 32-32s-14.4-32-32-32zM480 192c17.6 0 32-14.4 32-32s-14.4-32-32-32h-192c-17.6 0-32 14.4-32 32s14.4 32 32 32h192zM256 288c0 17.6 14.4 32 32 32h384c17.6 0 32-14.4 32-32s-14.4-32-32-32h-384c-17.6 0-32 14.4-32 32zM992 320c17.6 0 32-14.4 32-32s-14.4-32-32-32h-192c-17.6 0-32 14.4-32 32s14.4 32 32 32h192zM1024-63.6v-0.4h-736c-159.060 0-288 129-288 288 0 125.4 80.14 233.8 192 271.6v0.4c0 185.6 150.4 336 336 336 101.8 0 192.8-45.2 254.6-116.62 29.8 13.26 62.6 20.62 97.4 20.62 132.6 0 240-107.4 240-240 0-13.2-1-26-3-38.6 96-42 163-138 163-249.4 0-144.8-113.2-263.2-256-271.6zM756.4 598.6l-46.6 54c-44.2 51.24-109.2 83.4-181.8 83.4-132.6 0-240-107.4-240-238.2v-70l-65.8-22.6c-72.92-26.6-126.2-97.8-126.2-181.2 0-106 85.96-192 192-192l730.4 0.4c92.4 5.2 165.6 82 165.6 175.6 0 72-43.2 134.2-105.6 161.4l-68.2 29.8 12 73.4c1.2 7.6 1.8 15.4 1.8 23.4 0 79.6-64.4 144-144 144-21 0-40.8-4.4-58.4-12.4l-65.2-29z" />
<glyph unicode="&#xe93e;" glyph-name="cloud" horiz-adv-x="1280" d="M1024-63.6v-0.4h-736c-159.060 0-288 129-288 288 0 125.4 80.14 233.8 192 271.6v0.4c0 185.6 150.4 336 336 336 101.8 0 192.8-45.2 254.6-116.62 29.8 13.26 62.6 20.62 97.4 20.62 132.6 0 240-107.4 240-240 0-13.2-1-26-3-38.6 96-42 163-138 163-249.4 0-144.8-113.2-263.2-256-271.6zM756.4 598.6l-46.6 54c-44.2 51.24-109.2 83.4-181.8 83.4-132.6 0-240-107.4-240-238.2v-70l-65.8-22.6c-72.92-26.6-126.2-97.8-126.2-181.2 0-106 85.96-192 192-192l730.4 0.4c92.4 5.2 165.6 82 165.6 175.6 0 72-43.2 134.2-105.6 161.4l-68.2 29.8 12 73.4c1.2 7.6 1.8 15.4 1.8 23.4 0 79.6-64.4 144-144 144-21 0-40.8-4.4-58.4-12.4l-65.2-29zM288 497.8c0 0 0 0 0 0v0z" />
<glyph unicode="&#xe93f;" glyph-name="code-branch" horiz-adv-x="896" d="M320 736c0-71.6-47-132.2-112-152.6v-197.6c40.2 28.4 88.2 46.2 144 46.2h192c79.6 0 144 64.4 144 144v7.4c-65 20.4-112 81-112 152.6 0 88.36 71.6 160 160 160s160-71.64 160-160c0-71.6-47-132.2-112-152.6v-7.4c0-132.6-107.4-240-240-240h-192c-79.6 0-144-64.4-144-144v-7.4c65-20.4 112-81 112-152.6 0-88.4-71.6-160-160-160-88.36 0-160 71.6-160 160 0 71.6 47.080 132.2 112 152.6v398.8c-64.92 20.4-112 81-112 152.6 0 88.36 71.64 160 160 160 88.4 0 160-71.64 160-160v0zM160 672c35.34 0 64 28.66 64 64s-28.66 64-64 64c-35.34 0-64-28.66-64-64s28.66-64 64-64zM736 800c-35.4 0-64-28.66-64-64s28.6-64 64-64c35.4 0 64 28.66 64 64s-28.6 64-64 64zM160-32c35.34 0 64 28.6 64 64s-28.66 64-64 64c-35.34 0-64-28.6-64-64s28.66-64 64-64z" />
<glyph unicode="&#xe940;" glyph-name="code-merge" horiz-adv-x="896" d="M416 400h167.4c20.4 65 81 112 152.6 112 88.4 0 160-71.6 160-160s-71.6-160-160-160c-71.6 0-132.2 47-152.6 112h-167.4c-80.4 0-153.6 31.2-208 82.2v-201.6c65-20.4 112-81 112-152.6 0-88.4-71.6-160-160-160-88.36 0-160 71.6-160 160 0 71.6 47.080 132.2 112 152.6v398.8c-64.92 20.4-112 81-112 152.6 0 88.36 71.64 160 160 160 88.4 0 160-71.64 160-160 0-71.2-46.4-131.4-110.6-152.2 12-103.4 100-183.8 206.6-183.8v0zM160 672c35.34 0 64 28.66 64 64s-28.66 64-64 64c-35.34 0-64-28.66-64-64s28.66-64 64-64zM160-32c35.34 0 64 28.6 64 64s-28.66 64-64 64c-35.34 0-64-28.6-64-64s28.66-64 64-64zM736 416c-35.4 0-64-28.6-64-64s28.6-64 64-64c35.4 0 64 28.6 64 64s-28.6 64-64 64z" />
<glyph unicode="&#xe941;" glyph-name="code" horiz-adv-x="1280" d="M829.8 833.78l-288-927.98c-9.6-25.4-34.8-39.4-60-31.6-25.4 9.6-39.6 34.8-31.6 60l288 928.020c7.8 25.328 34.8 39.484 60 31.626 25.4-7.858 39.6-34.746 31.6-60.066v0zM1008.8 659l256-240c9.8-9 15.2-21.8 15.2-33.2 0-15-5.4-26-15.2-36.8l-256-240c-19.4-18.2-49.6-17.2-67.8 2.2s-17.2 49.6 2.2 67.8l218.6 206.8-218.6 203.2c-19.4 18.2-20.4 48.4-2.2 67.8s48.4 20.4 67.8 2.2v0zM336.8 589l-218.62-203.2 218.62-206.8c19.4-18.2 20.4-48.4 2.2-67.8s-48.4-20.4-67.8-2.2l-256.030 240c-9.678 10.8-15.17 21.8-15.17 36.8 0 11.4 5.492 24.2 15.17 33.2l256.030 240c19.4 18.2 49.6 17.2 67.8-2.2s17.2-49.6-2.2-67.8v0z" />
<glyph unicode="&#xe942;" glyph-name="coffee-pot" d="M856 546l104 286h-784c-97.2 0-176-78.8-176-176v-160c0-26.6 21.5-48 46.2-48s49.8 21.4 49.8 48v160c0 44.18 35.82 80 80 80h51l69.5-191c-102.74-79.4-168.5-201.2-168.5-338.2 0-103 37.24-169.48 99.24-235.4 21.76-22.6 51.76-35.4 82.96-35.4h531.6c31.060 0 61.32 12.548 82.64 35.14 62.16 65.86 99.56 132.46 99.56 235.66 0 135.4-64 259-168 339.2zM823 736l-58.2-160h-377.6l-58.2 160h494zM228.2 256c14.2 92.4 68.2 171.8 144.2 224h411.8c74.5-52.24 126-132.5 139.5-224h-695.5z" />
<glyph unicode="&#xe943;" glyph-name="command" horiz-adv-x="896" d="M704 320h-96v128h96c106.040 0 192 85.96 192 192s-85.96 192-192 192-192-85.96-192-192v-96h-128v96c0 106.040-85.96 192-192 192s-192-85.96-192-192 85.96-192 192-192h96v-128h-96c-106.040 0-192-85.96-192-192s85.96-192 192-192 192 85.96 192 192v96h128v-96c0-106.040 85.96-192 192-192s192 85.96 192 192-86 192-192 192zM608 640c0 52.94 43.060 96 96 96s96-43.060 96-96-43-96-96-96h-96v96zM288 128c0-52.94-43.060-96-96-96s-96 43-96 96 43.060 96 96 96h96v-96zM288 544h-96c-52.94 0-96 43-96 96s43.060 96 96 96 96-43 96-96v-96zM512 320h-128v128h128v-128zM704 32c-52.94 0-96 43.060-96 96v96h96c52.94 0 96-43.060 96-96s-43-96-96-96z" />
<glyph unicode="&#xe944;" glyph-name="comment" d="M512 832c-282.8 0-511.946-186.2-511.946-416 0-95.26 39.82-182.5 105.82-252.4-29.76-79-91.74-145.76-92.74-146.5-13.25-14-16.75-34.5-9.25-52 7.752-17.5 24.876-29.1 44.116-29.1 123 0 218.2 51.5 278.2 92.5 56-18.1 120.4-28.5 185.8-28.5 282.8 0 510.2 186.26 510.2 416s-227.4 416-510.2 416zM512.2 96c-53.5 0-106.24 8.25-156.76 24.24l-45.5 14.25-39-27.5c-28.5-20.24-67.76-42.76-115-58 14.75 24.24 28.74 51.5 39.76 80.5l21.24 56-41.24 43.74c-36.060 38.57-79.56 102.37-79.56 186.77 0 176.5 186.5 320 416 320s416-143.5 416-320-186.54-320-415.94-320z" />
<glyph unicode="&#xe945;" glyph-name="compass" d="M613.4 245.8l-288.6-111c-40.6-15-77 23.2-62 62l111 288.6c6.4 17 19.8 30.4 36.8 36.8l288.6 111c38.8 15 77-21.4 62-62l-111-288.6c-6.4-17-19.8-30.4-36.8-36.8v0zM510.2 448c-33.6 0-64-28.6-64-64s30.4-64 64-64c37.2 0 65.8 28.6 65.8 64s-28.6 64-65.8 64v0zM1024 384c0-282.8-229.2-512-512-512s-512 229.2-512 512c0 282.8 229.2 512 512 512s512-229.2 512-512zM512 800c-229.8 0-416-186.2-416-416s186.2-416 416-416c229.8 0 416 186.2 416 416s-186.2 416-416 416z" />
<glyph unicode="&#xe946;" glyph-name="cookie" d="M704 256c-35.24 0-64-28.76-64-64s28.76-64 64-64 64 28.76 64 64-28.8 64-64 64zM640 576c35.24 0 64 28.76 64 64s-28.76 64-64 64-64-28.76-64-64 28.8-64 64-64zM384 512c0 35.24-28.76 64-64 64s-64-28.76-64-64 28.76-64 64-64 64 28.8 64 64zM384 256c-35.24 0-64-28.76-64-64s28.76-64 64-64c35.24 0 64 28.76 64 64s-28.8 64-64 64zM576 448c-35.24 0-64-28.76-64-64s28.76-64 64-64 64 28.76 64 64-28.8 64-64 64zM1020.8 386.4l-24.26 152.5c-8.75 55.24-34.74 106.24-74.24 145.76l-109.5 109.5c-39.5 39.5-90.26 65.5-145.5 74.24l-153.26 24.26c-13.84 2.34-27.44 3.34-41.24 3.34-41.6 0-82.6-9.75-119.8-28.76l-138.2-70.48c-49.8-25.26-90.3-65.76-115.8-115.56l-70-137.74c-25.496-49.86-34.496-106.46-25.746-161.86l24.26-152.5c8.75-55.24 34.74-106.26 74.24-145.76l109.5-109.5c39.5-39.5 90.26-65.5 145.5-74.24l153.26-24.26c13.786-2.34 27.586-3.34 41.186-3.34 41.5 0 82.5 9.75 119.76 28.76l138.26 70.5c49.76 25.24 90.26 65.76 115.76 115.5l70 137.74c25.62 49.9 34.62 106.5 25.82 161.9zM909.6 268l-70.26-137.74c-16.25-31.76-41.5-57.24-73.5-73.5l-138.24-70.5c-23.6-12.060-49.8-18.26-76.4-18.26-8.75 0-17.5 0.75-26.24 2l-153.26 24.24c-35.1 5.76-67.1 21.96-92.5 47.36l-109.7 109.4c-25.26 25.5-41.76 57.5-47.26 93l-24.24 152.4c-5.5 35.5 0 71.26 16.5 103.5l70.26 137.76c16.24 31.94 41.44 57.34 73.44 73.58l138.26 70.5c23.54 12.020 49.74 18.26 76.34 18.26 8.75 0 17.5-0.75 26.24-2l153.26-24.24c35.3-5.76 67.3-22 92.7-47.26l109.5-109.5c25.26-25.5 41.76-57.5 47.26-93l24.24-152.5c5.6-35.5 0-71.3-16.4-103.5z" />
<glyph unicode="&#xe947;" glyph-name="copy" d="M1005.2 754.74l-122.5 122.5c-11.9 12.018-28.3 18.76-45.3 18.76h-327.2c-70.7 0-128-57.32-128-128l0.039-512c1.761-70.8 59.161-128 129.761-128h384c70.4 0 128 57.6 128 128v453.5c0 16.96-6.8 33.24-18.8 45.24zM928 256c0-17.672-14.328-32-32-32h-385.8c-17.676 0-32 14.328-32 32v511.74c0 17.672 14.328 32 32 32h256l1.8-95.74c0-35.34 28.66-64 64-64h94.2v-384zM544 0c0-17.672-14.328-32-32-32h-385.8c-17.676 0-32 14.328-32 32l1.76 511.8c0 17.672 14.328 32 32 32h192.040v96.2h-192.020c-70.7 0-128-57.3-128-128l0.020-512c0.004-70.6 57.32-128 128-128h384c70.4 0 128 57.6 128 128v64h-94.2l-1.8-64z" />
<glyph unicode="&#xe948;" glyph-name="croissant" d="M1015.4 561.8c-27.5 71.74-79.5 131.24-147 166.2-6.75 33.74-25.24 62.2-52.5 85-70.3 53.5-156.5 82.75-244.9 83-31-0.25-60.2-4-92.24-11.5-28.96 12.25-61.56 14.75-91.96 7-188.56-46.74-335.56-193.74-382.554-382.3-7.5-30.2-5-62.2 6.998-91-27.74-117.24-1.5-240.8 71.5-336.8 20.5-26.5 48.2-45 83-50.2 37-68.5 97.24-121.24 169.98-149 93.74-35.24 190.74 42.2 174.24 143l-31.764 188.4c3.25 3.75 4.2 7.5 8.75 11.5 36.24 1.5 70.74 16.5 96.5 42.24l45.24 45.24c24.2 24.2 39.5 58.2 41.74 95.24 4.5 2.75 9 4.2 13.25 9.5l188.74-31.5c99.78-16.62 178.18 81.38 142.98 175.98zM223.4 131.6c-23-16.2-51.5-8.75-64.5 8.25-43.74 57.24-63.74 126.5-61.5 195.74 2-0.75 2.2-0.2 6.25-2.5l270.4-83.24-150.65-118.25zM368.2-29.8c-40.24 15.5-75.24 40.2-101 76.5 4.75 2.75 9.5 4.2 12.2 9.25l108.2 86.24 22.24-134.74c2-11.75-2.5-22.2-10.2-31.74-7.44-7.51-18.44-7.91-31.44-5.51zM560.8 380.6l-45.24-45.5c-13.36-13.3-33.16-18.3-51.16-12.9l-332.42 102.6c-26 8-41.24 34.8-34.5 63 38.26 154 156.72 272.46 310.72 310.7 26.24 6.5 53.24-8.5 61.24-34.5l102.24-332.2c7.52-18.2 2.52-38-10.88-51.2zM646.8 521.8l-83.74 270.2c-0.75 2.5-2 4.75-2.75 7.25 3.5 0.25 7.25 0.75 10.75 0.75 67.5 0 133.24-22.24 186.98-63.24 16.998-13 24.2-41.74 6.2-64.5l-117.44-150.46zM888.4 480.6l-133.5 22.24 86.74 110.24c3 4.25 4.2 8.5 8.5 13 32.2-25.5 60.24-60.24 75.5-98.2 4.25-11.25 2-22.2-5.5-33.5-7.74-11.18-19.74-15.78-31.74-13.78z" />
<glyph unicode="&#xe949;" glyph-name="crystal-ball" horiz-adv-x="896" d="M726.4 98.8c103 80.4 169.6 208.8 169.6 349.4 0 248.54-200.6 447.8-449.8 447.8-245.6 0-446.2-197.44-446.2-444.2 0-140.68 66.5-269 169.52-349.4l-92.7-124.18c-8.852-12.442-12.848-26.060-12.848-39.36 0.008-35.86 26.168-66.86 64.108-66.86h640c37.94 0 64.1 31.1 64.1 64.44 0 13.024-3.996 26.28-12.848 38.18l-92.932 124.18zM593.8 129h-291.6c-121.46 55.82-206.2 178.64-206.2 321.2 0 194.68 158.020 353.2 352 353.2s352-158.56 352-353.2c0.2-142.6-84.8-265.4-206.2-321.2zM728.8 461.2l-99.32 41.74-41.46 100.16c-2.004 4.164-7.38 7.44-11.946 7.44-4.63 0-9.818-3.278-11.822-7.44l-41.22-99.52-0.813-0.757-99.019-41.623c-4.004-2.018-7.192-7.696-7.192-12.11 0-4.54 3.312-9.964 7.318-11.984l99.32-41.74 41.46-100.28c2.004-4.034 7.192-5.55 11.822-5.676 4.568 0 9.942 3.406 11.946 7.444l41.46 100.14 99.32 41.88c4.066 0.376 7.38 5.802 7.38 12.11 0.166 2.816-3.234 8.216-7.234 10.216zM411.6 617.8l-60 25-25.2 59.76c-1.2 2.38-0.8 4.4-5.4 4.4-4.668 0-6.056-2.008-7.254-4.39l-25.146-59.77-60-25c-2.6-1.2-4.6-4.4-4.6-7.2s2.020-5.896 4.482-7.15l60.118-24.85 25.060-59.84c1.262-2.508 6.246-4.516 7.254-4.516 1.012 0 4.228 2.008 7.196 6.272l25.12 59.84 58.38 23.080c2.39 1.364 4.39 4.564 4.39 7.164 0 2.8-2 6-4.4 7.2z" />
<glyph unicode="&#xe94a;" glyph-name="cube" d="M472.2 884.27c25.6 9.708 54 9.708 79.6 0l400-151.73c43.4-16.5 72.2-58.14 72.2-104.74v-487.6c0-46.6-28.8-88.2-72.2-104.8l-400-151.6c-25.6-8-54-8-79.6 0l-399.92 151.6c-43.5 16.6-72.28 58.2-72.28 104.8v487.6c0 46.6 28.78 88.24 72.28 104.74l399.92 151.73zM517.6 794.52c-3.6 1.38-9.4 1.38-11.2 0l-379.16-143.72 384.76-151.2 384.8 151.2-379.2 143.72zM106.32 125.2l357.68-135.6v425.6l-368 144.6v-419.6c0-6.6 4.12-12.6 10.32-15zM560-10.4l357.6 135.6c6.2 2.4 10.4 8.4 10.4 15v419.6l-368-144.6v-425.6z" />
<glyph unicode="&#xe94b;" glyph-name="cupcake" horiz-adv-x="896" d="M863.8 540c21.8-31.4 33-68.8 30.4-107 0.8-38.2-12.2-75-35.4-105.4-23.2-30.2-55.4-52.4-92-63.2l-54-338.8c-2.4-15-10-28.6-21.6-38.4s-26.2-13.4-41.4-15.2h-49.6l48 384h-64.4l-48-384h-175.6l-48 384h-64.4l48-384h-49.6c-15 0-29.8 5.4-41.2 15-11.6 9.8-19.34 23.2-21.9 38.2l-53.88 339.2c-36.62 10.8-68.86 33-92.080 63.2-23.214 30.4-36.209 67.2-37.106 105.4s10.35 75.6 32.126 107c21.76 31.2 52.92 55 89 67.4l40.12 20.8c4.9 38.6 23.74 74.1 52.92 99.86 29.2 25.74 66.8 39.94 105.8 39.94h75c8.6-0.12 16.8 2.36 24 7.1 7 4.74 12.6 11.54 15.6 19.46 3.4 7.82 4.4 16.5 2.6 24.84-1.6 8.36-5.8 16.020-11.8 21.94-4.6 4.48-7.6 10.18-8.8 16.4s-2.4 12.66 1.8 18.514c2.4 5.854 6.6 10.856 11.8 14.372s11.4 5.385 16 5.374c74.8-0.081 145-27.8 198.2-77.54 53.4-49.76 85.8-117.88 90.8-190.66l39.6-20.4c36.2-12.4 67.2-36.2 89-67.4v0zM770.2 372.2c15.4 13 25.6 31 28.8 51 3.2 19.8-0.6 40.2-11.2 57.4-10.4 17.4-26.6 30.2-45.8 36.6-3 1-6.2 2.4-9 3.8l-58.4 30.2c-10.4 5.2-19.2 13.4-25.2 23.4-6.2 10.2-11.2 21.6-9.4 33.4-1.8 36.2-10.2 71.8-29.6 102.4-19.4 30.66-47 55.22-79.6 70.84-1.8-8-4.2-15.84-7.4-23.42-10.4-25.44-28.2-47.18-51.2-62.42-22.8-13.6-49.6-23.4-77.2-23.4h-75c-17 0-33.2-6.8-45.2-18.8s-18.8-28.2-18.8-45.2c0-11.8-3.2-23.2-9.4-33.4-6-10-14.8-18.2-25.2-23.4l-58.32-30.2c-2.96-1.4-5.98-2.8-9.1-3.8-19.14-6.4-35.38-19.2-45.84-36.6-10.44-17.2-14.42-37.6-11.18-57.4 3.22-20 13.44-38 28.8-51 15.38-13.2 34.88-20.2 55.040-20.2h534.4c20.2 0 39.6 7 55 20.2z" />
<glyph unicode="&#xe94c;" glyph-name="database" horiz-adv-x="896" d="M448-128c-247.4 0-448 71.6-448 160v704c0 88.36 200.6 160 448 160s448-71.64 448-160v-704c0-88.4-200.6-160-448-160zM800 723.94l-1.2 0.98c-10.6 9.020-31.8 21.48-66.4 33.8-68.2 24.38-168.8 41.28-284.4 41.28s-216.2-16.9-284.5-41.28c-34.52-12.32-55.68-24.78-66.36-33.8l-1.14-0.98v-177.34c26.56-12.8 63.28-28.4 109.6-39.8 67.8-15 151.4-26.8 242.4-26.8s174.6 11.8 242.4 26.8c46.4 11.4 83 27 109.6 39.8v177.34zM800 440.8c-26.6-10.6-55.8-19.6-86.6-27.2-76.4-18.8-167.8-29.6-265.4-29.6s-189 10.8-265.38 29.6c-30.76 7.6-59.98 16.6-86.62 27.2v-150.2c26.56-12.8 63.28-28.4 109.6-39.8 67.8-15 151.4-26.8 242.4-26.8s174.6 11.8 242.4 26.8c46.4 11.4 83 27 109.6 39.8v150.2zM97.14 43c10.68-7.2 31.82-21.4 66.36-33.8 68.3-24.2 168.9-41.2 282.7-41.2 117.4 0 218 17 286.2 41.2 34.6 12.4 55.8 26.6 66.4 33.8l1.2 2.8v139c-26.6-10.6-55.8-19.6-86.6-27.2-76.4-18.8-167.8-29.6-267.2-29.6-95.8 0-187.2 10.8-263.58 29.6-30.76 7.6-59.98 16.6-88.42 27.2v-139l2.94-2.8zM804 48.2l-0.2-0.4c0.2 2 0.4 0.4 0.4 0.4h-0.2zM92.2 47.8c-0.2 2-0.3 0.4-0.32 0.4l0.32-0.4zM92.2 720.2c-0.24-0.28-0.32-0.42-0.32-0.42l0.32 0.42zM804.2 719.78c0 0-0.2 0.14-0.4 0.42z" />
<glyph unicode="&#xe94e;" glyph-name="download" d="M896 288h-107l-96-96h203c17.644 0 32-14.356 32-32v-160c0-17.644-14.356-32-32-32h-768c-17.644 0-32 14.356-32 32v160c0 17.6 14.36 32 32 32h203l-96 96h-107c-70.7 0-128-57.3-128-128v-160c0-70.7 57.3-128 128-128h768c70.7 0 128 57.3 128 128v160c0 70.6-57.4 128-128 128zM864 80c0 26.52-21.5 48-48 48s-48-21.4-48-48c0-26.5 21.5-48 48-48s48 21.4 48 48zM478 159.8c9.4-11.2 21.6-15.8 34-15.8s24.56 4.688 33.94 14.062l272 272c18.75 18.75 18.75 49.12 0 67.88s-49.12 18.75-67.88 0l-190.060-190.142v540.2c0 26.5-21.4 48-48 48s-48-21.5-48-48v-540.2l-191.8 190.2c-18.75 18.75-49.12 18.75-67.88 0s-18.75-49.12 0-67.88l273.68-270.32z" />
<glyph unicode="&#xe94f;" glyph-name="ellipsis-v" horiz-adv-x="384" d="M192-64c-70.7 0-128 57.4-128 128s57.3 128 128 128c70.6 0 128-57.4 128-128s-57.4-128-128-128zM240 64c0 26.6-21.4 48-48 48-26.5 0-48-21.4-48-48s21.5-48 48-48c26.6 0 48 21.4 48 48zM192 256c-70.7 0-128 57.4-128 128s57.3 128 128 128c70.6 0 128-57.4 128-128s-57.4-128-128-128zM240 384c0 26.6-21.4 48-48 48-26.5 0-48-21.4-48-48s21.5-48 48-48c26.6 0 48 21.4 48 48zM192 832c70.6 0 128-57.3 128-128 0-70.6-57.4-128-128-128-70.7 0-128 57.4-128 128 0 70.7 57.3 128 128 128zM144 704c0-26.6 21.5-48 48-48 26.6 0 48 21.4 48 48 0 26.5-21.4 48-48 48-26.5 0-48-21.5-48-48z" />
<glyph unicode="&#xe951;" glyph-name="envelope-open" d="M987.2 570c-49.76 39.24-91 70.74-328.6 243.2-33.2 24.38-99.2 82.8-145.8 82.8h-1.6c-46.6 0-112.6-58.42-146-82.76-237.44-172.44-278.7-204.040-328.44-243.24-23.26-18-36.76-46-36.76-75.6v-494.4c0-70.6 57.3-128 128-128h768c70.7 0 128 57.34 128 128.020v494.38c0 29.6-13.4 57.6-36.8 75.6zM928 0c0-17.644-14.356-32-32-32h-768c-17.644 0-32 14.356-32 32v342.6l272.2-226.8c40.4-33.4 91.4-51.8 143.8-51.8s103.5 18.422 143.94 52.020l272.060 226.58v-342.6zM928 467.6l-333.6-276.2c-46.38-38.56-118.68-38.54-164.94-0.031l-333.46 276.231 0.211 26.96c46.48 36.66 84.5 65.94 325.8 241.2 6.164 4.508 13.348 10.054 21.26 16.188 15.529 12.072 50.129 38.872 68.729 46.812 18.624-7.946 53.24-34.74 68.82-46.82 7.918-6.132 15.106-11.68 21.52-16.372 240.86-174.968 279.060-204.368 325.66-241.168v-26.8z" />
<glyph unicode="&#xe952;" glyph-name="envelope" d="M0 640c0 70.7 57.3 128 128 128h768c70.6 0 128-57.3 128-128v-512c0-70.6-57.4-128-128-128h-768c-70.7 0-128 57.4-128 128v512zM96 640v-44.2l345-283.2c41.2-34 100.8-34 142 0l345 283.2v46c0 15.8-14.4 32-32 32h-768c-17.68 0-32-16.2-32-32v-1.8zM96 471.6v-343.6c0-17.6 14.32-32 32-32h768c17.6 0 32 14.4 32 32v343.6l-284-233.2c-76.8-63-187.2-63-265.8 0l-282.2 233.2z" />
<glyph unicode="&#xe955;" glyph-name="laugh-beam" d="M261.4 268.2c-8.4 27 14.2 51.8 40.8 51.8h426.8c28.4 0 50.8-24.8 42.6-51.8-35.4-109-135.2-188.2-255.2-188.2s-221.4 79.2-255 188.2v0zM435.2 438.4v0l-0.4 0.6c-0.4 0.4-0.8 1-1.4 1.8-1.4 1.6-3.2 3.8-5.6 6.6-5 5.8-12 13.2-20.4 22.4-17.6 13.8-37.8 26.2-55.4 26.2s-37.8-12.4-55.4-26.2c-8.4-9.2-15.4-16.6-20.4-22.4-2.4-2.8-6-5-5.6-6.6-2.4-0.8-1-1.4-1.4-1.8l-0.4-0.6c-4.2-5.6-11.4-7.8-17.8-5.6-6.6 2.2-11 8.4-11 15.2 0 35.8 13.4 71.2 33.2 97.6 19.6 26 47.8 46.4 78.8 46.4s59.2-20.4 78.8-46.4c19.8-26.4 33.2-61.8 33.2-97.6 0-6.8-4.4-13-11-15.2-6.4-2.2-13.6 0-17.8 5.6v0zM755.2 438.4l-0.4 0.6c-0.4 0.4-0.8 1-1.4 1.8-1.4 1.6-3.2 3.8-5.6 6.6-5 5.8-12 13.2-20.4 22.4-17.6 13.8-37.8 26.2-55.4 26.2s-37.8-12.4-55.4-26.2c-8.4-9.2-15.4-16.6-20.4-22.4-2.4-2.8-6-5-5.6-6.6-2.4-0.8-1-1.4-1.4-1.8l-0.4-0.6c-4.2-5.6-11.4-7.8-17.8-5.6-6.6 2.2-11 8.4-11 15.2 0 35.8 13.4 71.2 33.2 97.6 19.6 26 47.8 46.4 78.8 46.4s59.2-20.4 78.8-46.4c19.8-26.4 33.2-61.8 33.2-97.6 0-6.8-4.4-13-11-15.2-6.4-2.2-13.6 0-17.8 5.6v0zM1024 384c0-282.8-229.2-512-512-512s-512 229.2-512 512c0 282.8 229.2 512 512 512s512-229.2 512-512zM512 800c-229.8 0-416-186.2-416-416s186.2-416 416-416c229.8 0 416 186.2 416 416s-186.2 416-416 416z" />
<glyph unicode="&#xe956;" glyph-name="smile-plus" horiz-adv-x="1280" d="M1088 896c26.6 0 48-21.5 48-48v-96h96c26.6 0 48-21.5 48-48 0-26.6-21.4-48-48-48h-96v-96c0-26.6-21.4-48-48-48s-48 21.4-48 48v96h-96c-26.6 0-48 21.4-48 48 0 26.5 21.4 48 48 48h96v96c0 26.5 21.4 48 48 48zM224.8 416c0 35.4 28.6 64 64 64 35.2 0 64-28.6 64-64s-28.8-64-64-64c-35.4 0-64 28.6-64 64v0zM672.8 416c0-35.4-28.8-64-64-64-35.4 0-64 28.6-64 64s28.6 64 64 64c35.2 0 64-28.6 64-64zM448 160c62.2 0 117.8 27.2 156 70.4 17.6 20 47.8 21.8 67.8 4.2 19.8-17.4 21.8-47.8 2.4-67.6-53.8-63.2-135.4-103-226.2-103s-172.4 39.8-228 103c-17.6 19.8-15.6 50.2 4.2 67.6 20 17.6 50.2 15.8 66-4.2 40-43.2 95.6-70.4 157.8-70.4zM896 320c0-247.4-200.6-448-448-448s-448 200.6-448 448c0 247.4 200.6 448 448 448s448-200.6 448-448zM448 672c-194.4 0-352-157.6-352-352s157.6-352 352-352c194.4 0 352 157.6 352 352s-157.6 352-352 352z" />
<glyph unicode="&#xe957;" glyph-name="file" horiz-adv-x="768" d="M0 768c0 70.7 57.3 128 128 128h331c34 0 66.4-13.486 90.4-37.5l181.2-181.1c24-24 37.4-56.4 37.4-90.4v-587c0-70.6-57.4-128-128-128h-512c-70.7 0-128 57.4-128 128v768zM672 0v576h-160c-35.4 0-64 28.6-64 64v160h-320c-17.68 0-32-14.32-32-32v-768c0-17.6 14.32-32 32-32h512c17.6 0 32 14.4 32 32z" />
<glyph unicode="&#xe958;" glyph-name="filter" d="M0 748.6c0 46.060 37.34 83.4 83.4 83.4h857.2c46 0 83.4-37.34 83.4-83.4 0-19.2-6.6-37.8-18.8-52.6l-333.2-409v-286.4c0-35.6-29-64.6-64.6-64.6-14.6 0-28.8 5-40.2 15.8l-185 145c-19 15.2-30.2 38.2-30.2 62.6v127.6l-333.254 409c-12.124 14.8-18.746 33.4-18.746 52.6v0zM109.92 736l327.28-401.6c7-8.6 10.8-19.4 10.8-30.4v-136.8l128-101.6v238.4c0 11 3.8 21.8 10.8 30.4l327.2 401.6h-804.080z" />
<glyph unicode="&#xe95a;" glyph-name="flag" d="M952.6 896c-12.73 0-26.020-2.7-38.68-8.466-91.38-41.72-159.12-55.88-215.6-55.88-119.92 0-189.62 63.72-327.8 63.74-69.26 0-155.74-16.006-274.4-64.1v16.706c-0.12 26.5-21.62 48-48.12 48s-48-21.5-48-48v-928c0-26.6 21.5-48 48-48s48 21.5 48 48v208c107.18 47.72 192.040 63.62 265.6 63.62 147.26 0 249.8-63.56 397.2-63.56 63.82 0 136.040 11.942 222.2 46.18 27.2 9.96 43 32.96 43 57.56v602.74c0 39.26-33.4 61.46-71.4 61.46zM928 256.4c-60.62-21.64-116.16-32.2-169.2-32.2-61.6 0-116.62 14-174.88 28.82-64.020 16.282-136.58 34.74-222.2 34.74-84.7 0-171.98-18.18-265.6-55.46v495.42l36.060 14.602c94.78 38.4 172.76 57.080 238.4 57.080 56.48-0.008 98.24-13.422 146.62-28.96 50.76-16.296 108.26-34.78 181.16-34.78 70.86 0 144.48 16.992 229.8 53.22v-532.482z" />
<glyph unicode="&#xe95b;" glyph-name="folder" d="M894.2 704h-344.2l-96.6 90.5c-24 24.020-56.4 37.5-90.4 37.5h-236.8c-70.7 0-128-57.32-128-128v-640c0-70.68 57.3-128 128-128h768c70.7 0 128 57.32 128 128v512c0 70.6-55.6 128-128 128zM926.2 64c0-17.648-14.356-32-32-32h-768c-17.644 0-32 14.352-32 32v640c0 17.648 14.356 32 32 32h235c8.546 0 16.586-3.328 22.62-9.376l126.38-118.624h384c17.644 0 32-14.352 32-32v-512z" />
<glyph unicode="&#xe95c;" glyph-name="function" horiz-adv-x="1280" d="M400 896l-80-0.020c-97.2 0-176-79.3-176-177.16v-193.28h-96c-26.5 0-48-21.64-48-48.32 0-26.62 21.5-48.42 48-48.42h96v-322.2c0-44.48-35.82-80.54-80-80.54h-16c-26.5 0-48-21.64-48-48.32s21.5-48.32 48-48.32h16c97.2 0 176 79.32 176 177.18v322.2h96c26.5 0 48 21.64 48 48.32s-21.5 48.32-48 48.32h-96v193.38c0 44.48 35.82 80.54 80 80.54h80c26.5 0 48 21.64 48 48.32s-21.4 48.32-48 48.32zM623 621.2c-22.8 17.4-54.4 12-70-12.4-68-105.8-105-229-105-357 0-126.3 36.96-251.2 105.020-357.2 15.562-24.22 47.12-29.76 69.98-12.378 19.73 14.996 24.56 42.7 11.136 63.6-58.336 90.778-90.136 197.778-90.136 305.978 0 108.040 31.82 215.2 90.16 304.2 13.44 22.6 8.64 50.2-11.16 65.2zM1175 608.8c-15.562 24.22-47.12 29.76-69.98 12.378-19.73-14.996-24.56-42.7-11.136-63.6 58.316-90.778 90.116-197.778 90.116-305.778 0-108.040-31.82-215.2-90.16-304.2-13.426-20.9-8.594-48.6 11.136-63.6 22.88-17.382 54.42-11.844 69.98 12.378 68.044 104.022 105.044 229.022 105.044 355.422 0 128-37 251.2-105 357zM1002.2 392.6c-18.148 18.274-47.86 18.274-64.2 0l-74-74.4-74 74.5c-18.148 18.274-47.86 18.274-66 0-18.148-18.27-18.148-48.18 0-66.44l74-74.5-74-74.5c-18.148-18.27-18.148-48.18 0-66.44 18.148-18.274 47.86-18.274 66 0l74 74.38 74-74.5c18.148-18.274 47.86-18.274 64.2 0 18.148 18.27 18.148 48.18 0 66.44l-72.2 74.66 72.2 74.5c20 18.1 20 48.1 0 66.3z" />
<glyph unicode="&#xe95d;" glyph-name="tachometer" d="M512 736c35.4 0 64-28.66 64-64 0-35.4-28.6-64-64-64s-64 28.6-64 64c0 35.34 28.6 64 64 64zM512 80c-61.8 0-112 50.2-112 112s50.2 112 112 112c20.6 0 39.8-5.6 56.4-15.2l220.4 150.8c22 15 51.8 9.4 66.8-12.4 15-22 9.4-51.8-12.4-66.8l-220.6-150.8c1-5.8 1.4-11.6 1.4-17.6 0-61.8-50.2-112-112-112v0zM704 640c35.4 0 64-28.6 64-64s-28.6-64-64-64c-35.4 0-64 28.6-64 64s28.6 64 64 64zM224 320c-35.34 0-64 28.6-64 64s28.66 64 64 64c35.4 0 64-28.6 64-64s-28.6-64-64-64zM320 640c35.4 0 64-28.6 64-64s-28.6-64-64-64c-35.4 0-64 28.6-64 64s28.6 64 64 64zM512-128c-282.8 0-512 229.2-512 512s229.2 512 512 512c282.8 0 512-229.2 512-512s-229.2-512-512-512zM928 384c0 229.8-186.2 416-416 416s-416-186.2-416-416c0-229.8 186.2-416 416-416s416 186.2 416 416z" />
<glyph unicode="&#xe95f;" glyph-name="cogs" horiz-adv-x="1280" d="M238.2 544c0 44.2 37.6 80 80 80 46 0 80-35.8 80-80s-34-80-80-80c-42.4 0-80 35.8-80 80zM414.6 849.28l13.2-55.6c19-8.28 37-18.68 53.4-30.9l54.2 16.18c11 3.34 23.2 0.44 31.2-8.2 32.4-35.64 57.2-78.36 72-125.56 3.6-11 0-23-8.4-31l-42-38.2c3.2-11 2-22.2 2-33.6 0-8.6 1.2-20.6 0.2-30.6l39.8-38c8.4-8 12-20 8.4-31-14.8-47.2-39.6-90-72-125.6-8-8.6-20.2-11.6-31.2-8.2l-51.2 15.4c-17.6-13.4-36.8-24.6-57.2-33.6l-12.4-52c-4.4-11.4-11.2-20.4-22.6-23-23.2-5-47.2-7.8-73.8-7.8-23 0-47 2.8-72 7.8-9.6 2.6-18.2 11.6-20.8 23l-12.4 52c-20.48 9-39.66 20.2-57.18 33.6l-51.14-15.4c-11.18-3.4-23.38-0.4-31.22 8.2-32.46 35.6-57.35 78.4-72.157 125.6-3.459 11 0.083 23 8.455 31l39.942 38c-1.12 10-1.7 22-1.7 30.6 0 11.4 0.68 22.6 2.020 33.6l-40.262 38.2c-8.371 8-11.912 20-8.454 31 14.808 47.2 39.716 89.92 72.156 125.56 7.84 8.64 20.040 11.54 31.22 8.2l54.080-16.18c16.48 12.22 34.38 22.62 53.44 30.88l13.2 55.62c2.6 11.3 11.2 20.38 20.8 22.9 25 5.12 49 7.82 72 7.82 26.6 0 50.6-2.7 73.8-7.82 11.4-2.5 18.2-11.6 22.6-22.9v0zM126.2 542.4c0-7.4 2.22-14.6 3-21.8l4.38-39.4-45.080-43c6.86-15.2 15.18-29.6 24.76-43l58.66 17.4 32.48-24.6c12.4-9.4 25.8-17.4 40.2-23.6l37-16 14-59.2c8-0.8 16.2-1.2 22.6-1.2 10 0 18.2 0.4 26.2 1.2l14 59.2 37 16c14.4 6.2 27.8 14.2 40.2 23.6l32.4 24.6 58.8-17.4c9.6 13.4 17.8 27.8 24.6 43l-45 43 4.4 39.4c0.8 7.2-0.6 14.4-0.6 21.8 0 8.2 1.4 16.2 0.4 24l-4.8 39.8 45.6 43.6c-6.8 15.2-15 29.6-24.6 43l-61-18.2-32.2 23.92c-13.4 8.64-24.2 15.96-39.4 21.78l-35 15.96-14.8 62.58c-8 0.76-16.2 1.16-26.2 1.16-6.4 0-14.6-0.4-22.6-1.16l-14.8-62.58-36.8-15.96c-13.4-5.82-26-13.14-37.6-21.78l-32.2-23.92-60.94 18.2c-9.58-13.4-17.9-27.8-24.76-43l45.78-43.6-4.84-39.8c-0.94-7.8-3.24-15.8-3.24-24v0zM928 272c44.2 0 80-35.8 80-80s-35.8-80-80-80c-44.2 0-80 35.8-80 80s35.8 80 80 80zM1163 407.4l-16.2-54.2c12.2-16.4 22.6-34.4 30.8-53.4l55.6-13.2c11.4-2.6 20.4-11.2 23-20.8 5-25 7.8-49 7.8-73.8s-2.8-48.8-7.8-72c-2.6-11.4-11.6-18.2-23-22.6l-55.6-13.2c-8.2-19-18.6-37-30.8-53.4l16.2-54.2c3.4-11.2 0.4-23.4-8.2-31.2-35.6-32.4-78.4-57.2-125.6-72.2-11-3.4-23 0.2-31 8.6l-40 42c-9.2-3.2-20.4-3.8-31.8-3.8-10.4 0-20.6 0.6-30.6 1.6l-38-39.8c-8-8.4-20-12-31-8.6-47.2 15-90 39.8-125.6 72.2-8.6 7.8-11.6 20-8.2 31.2l15.4 51.2c-13.4 17.6-24.6 36.8-33.6 57.2l-52 12.4c-11.4 4.4-20.4 11.2-23 22.6-5.2 23.2-9.6 47.2-9.6 72s4.6 48.8 9.6 73.8c2.6 9.6 11.6 18.2 23 20.8l52 12.4c9 20.4 20.2 39.6 33.6 57.2l-15.4 51.2c-3.4 11-0.4 23.2 8.2 31.2 35.6 32.4 78.4 57.2 125.6 72 11 3.6 23 0 31-8.4l38-40c10 1.2 20.2 1.8 30.6 1.8 11.4 0 22.6-0.8 31.8-2l40 40.2c8 8.4 20 12 31 8.4 47.2-14.8 90-39.6 125.6-72 8.6-8 11.6-20.2 8.2-31.2v0zM926.4 384c-7.4 0-14.6-0.4-21.8-1.2l-39.4-4.4-43 45c-15.2-6.8-29.6-15-43-24.6l17.4-57-26.4-34.2c-7.6-12.4-15.6-25.8-21.8-40.2l-16-37-59.2-14c-0.8-8-1.2-16.2-1.2-24.4s0.4-16.4 1.2-24.4l59.2-14 16-37c6.2-14.4 14.2-27.8 21.8-40.2l26.4-32.4-17.4-58.8c13.4-9.6 27.8-17.8 43-24.8l43 45.2 39.4-4.4c7.2-0.8 14.4-1.2 21.8-1.2 8.2 0 16.2 0.4 24 1.4l39.8 4.8 43.6-45.8c15.2 7 29.6 15.2 43 24.8l-18.2 61 24 32.2c8.6 13.4 15.8 24.2 21.8 39.4l15.8 35 62.6 14.8c0.8 8 1.2 16.2 1.2 24.4s-0.4 16.4-1.2 24.4l-62.6 14.8-15.8 36.8c-6 13.2-13.2 26-21.8 37.6l-24 32.2 18.2 61c-13.4 9.6-27.8 17.8-43 24.6l-43.6-45.6-39.8 4.8c-7.8 0.8-15.8 1.4-24 1.4v0z" />
<glyph unicode="&#xe960;" glyph-name="gift" d="M512 725.080l48.2 82.020c32.4 55.080 91.6 88.9 155.4 88.9h4.4c97.2 0 176-78.8 176-176 0-28.8-7-54.2-19.2-80h51.2c53 0 96-43 96-96v-128c0-41.8-26.8-77.4-64-90.6v-325.4c0-70.6-57.4-128-128-128h-640c-70.7 0-128 57.4-128 128v325.4c-37.28 13.2-64 48.8-64 90.6v128c0 53 42.98 96 96 96h51.2c-12.28 25.8-19.2 51.2-19.2 80 0 97.2 78.8 176 176 176h4.4c63.8 0 123-33.82 155.4-88.9l48.2-82.020zM576 544v-128h352v128h-352zM448 544h-352v-128h352v128zM448 320h-288v-320c0-17.6 14.32-32 32-32h256v352zM576-32h256c17.6 0 32 14.4 32 32v320h-288v-352zM720 640c44.2 0 80 35.8 80 80 0 44.18-35.8 80-80 80h-4.4c-29.8 0-57.4-15.82-72.6-41.56l-69.6-118.44h146.6zM450.6 640l-69.6 118.44c-15.2 25.74-42.8 41.56-72.6 41.56h-4.4c-44.2 0-80-35.82-80-80 0-44.2 35.8-80 80-80h146.6z" />
<glyph unicode="&#xe961;" glyph-name="globe" d="M512 896c282.8 0 512-229.2 512-512s-229.2-512-512-512c-282.8 0-512 229.2-512 512s229.2 512 512 512zM512-32c14.8 0 52.2 14.4 95.2 96.8 17.6 35.4 31 78.4 44 127.2h-278.4c11.2-48.8 26.4-91.8 44-127.2 41.2-82.4 80.4-96.8 95.2-96.8zM357 288h310c3.2 30.6 5 62.8 5 96s-1.8 65.4-5 96h-310c-3.2-30.6-5-62.8-5-96s1.8-65.4 5-96v0zM651.2 576c-13 48.8-26.4 91.8-44 127.1-43 82.46-80.4 96.9-95.2 96.9s-54-14.44-95.2-96.9c-17.6-35.3-32.8-78.3-44-127.1h278.4zM763.6 480c2.8-31 4.4-63.2 4.4-96s-1.6-65-4.4-96h153.2c7.4 30.8 11.2 63 11.2 96s-3.8 65.2-11.2 96h-153.2zM684.2 762.78c28.2-51.3 50.6-114.98 65.2-186.78h131.8c-42.8 82.2-112.4 148.24-197 186.78zM339.8 762.78c-84.6-38.54-154.12-104.58-196.94-186.78h131.74c14.6 71.8 37 135.48 65.2 186.78v0zM96 384c0-33 3.86-65.2 11.14-96h153.26c-2.8 31-4.4 63.2-4.4 96s1.6 65 4.4 96h-153.26c-7.28-30.8-11.14-63-11.14-96zM881.2 192h-131.8c-14.6-71.8-37-135.4-65.2-186.8 84.6 38.6 154.2 104.6 197 186.8zM274.6 192h-131.74c42.82-82.2 112.34-148.2 196.94-186.8-28.2 51.4-50.6 115-65.2 186.8v0z" />
<glyph unicode="&#xe962;" glyph-name="hand-horns" horiz-adv-x="896" d="M752 768c-79.38 0-144-63.72-144-142.040v-52.34c-7.6 1.38-15.4 2.38-23.4 2.38-26 0-51-7.4-72.6-21-21.6 13.6-46.6 21-72.4 21-8.2 0-16-1-23.6-2.4v178.4c0 79.4-64.6 144-142.2 144-81.16 0-145.76-64.6-145.76-144v-320.8l-14.226-2.376c-65.934-14.224-113.814-73.424-113.814-139.024v-160c0-44.76 20.24-86.18 55.62-113.68l91.94-71.5c58.68-45.66 131.94-70.82 206.4-70.82l189.64-1.8c194.2 0 352.4 158.2 352.4 352.4v401.6c0 78.28-64.6 142-144 142zM544 439.4c0 22.4 18.2 40.6 40.6 40.6s40.5-18.156 40.5-40.5v-111c-0.1-22.3-18.3-40.5-40.5-40.5s-40.6 18.2-40.6 40.4v111zM480 439.4v-111c0-0.883-0.449-1.621-0.504-2.492-2.496 59.292-37.696 101.292-78.696 122.292 4 18 19.4 31.8 38.8 31.8 22.2 0 40.4-18.2 40.4-40.6zM224 752c0 26.46 21.56 48 46.2 48 26.44 0 48-21.54 48-48v-247.8c-5.4-13.4-10.6-27.8-13-43.4l-81.2-13.6v304.8zM800 224.4c0-141.4-115-256.4-256.4-256.4l-189.62 0.031c-53.12 0-105.44 17.968-147.38 50.6l-91.94 71.5c-11.72 9.069-18.66 23.269-18.66 39.669v160c0 22.46 15.938 42.22 35.76 46.54l194 32.38c3.384 0.726 6.766 1.074 10.1 1.074 23.72 0 48.18-18.878 48.18-48.12 0-22.080-15.026-41.9-34.34-46.18l-116.1-17.494c-24.060-3.266-41.56-23.84-41.56-47.5 0-40.48 37.64-48.16 47.38-48.16 2.322 0 4.678 0.173 7.052 0.529l119.76 16.344c15.332 3.292 29.16 9.48 42.020 16.992 9.948-2.405 20.348-4.205 31.348-4.205 25.8 0 50.8 7.4 72.4 21 21.6-13.6 46.6-21 72.6-21 75.26 0 136.5 61.22 136.5 136.5v111c0 23.5-6.508 45.28-17 64.6v121.9c-0.1 25.4 21.5 46 47.9 46s48-20.66 48-46.040v-401.56z" />
<glyph unicode="&#xe963;" glyph-name="handshake" horiz-adv-x="1280" d="M1012.2 641.8c-35.94 40.34-122.92 123.3-245.4 142.2-45 6.708-90.78-7.212-126.82-36.42-35.98 27.48-81.78 41.58-126.98 34.7-159.4-24.62-259.6-158.68-263.8-164.48-15.688-21.38-11.062-51.44 10.25-67.14 8.562-6.314 18.562-9.314 28.38-9.314 14.812 0 29.38 6.75 38.76 19.564 0.812 1.125 80.38 107.82 201 126.46 14.914 1.922 29.96-1.34 43.12-8.966l-116.31-118.804c-24.8-24.6-40.2-55.8-40.2-92.6 0-35 13.624-67.88 38.32-92.58 26.48-24.82 59.28-36.62 94.28-36.62s67.88 13.626 92.62 38.38l22.7 22.7 248.4-201.8c4.624-3.75 5.312-10.502 1-15.94l-55.38-71.5c-3.688-4.5-10.5-5.188-14.312-2.126l-44.44 37.38-52.38-55.5c-4.688-5.75-10.688-7.126-13.812-7.438-3.312-0.312-9.124-0.25-13.624 3.438l-64.82 55.32-31.352-29.314-5.624-5.876c-11.688-14.314-28.18-23.32-46.56-25.2-18.938-1.625-36.5 3.5-49 13.564l-179.616 162.512h-148.6v383h-192v-511.2l128-0.081c23.48 0 43.14 13.412 54.28 32.28h121.28l154.12-139.32c29.72-24.279 66.12-37.079 103.92-37.079 5.75 0 11.562 0.25 17.312 0.875 27.24 2.812 52.82 12.126 74.94 27l1.812-1.625c24.060-19.752 54.56-28.82 85.38-25.56 26.38 2.75 50.56 14.064 67.82 30.7 42.18-16.376 92.18-4.688 122.5 32.94l55.38 71.5c36.94 45.64 29.94 112.96-15.688 150.020l-240.6 195.52 16.762 16.764c18.75 18.752 18.75 49.14 0 67.88-18.75 18.752-49.12 18.752-67.88 0l-107.738-107.614c-13.2-13.4-36.2-13.4-49.4 0-6.624 6.564-10.25 15.314-10.25 24.62 0 9.376 3.624 18.128 10.562 25.060l171.82 175.28c15.624 15.69 37.060 23.5 57.88 20.060 119.5-18.44 200.4-125.46 201.2-126.58 6.176-8.31 14.528-13.892 23.68-16.752h110.908v-350.2c0-35.34 28.66-64.1 62.2-64.1l129.8-1.788v511.8l-267.8 2zM96 192c-17.5 0-32 14.49-32 31.98 0 17.752 14.5 31.98 32 31.98s32-14.36 32-32.16c0-17.4-14.5-31.8-32-31.8zM1184 192c-17.5 0-32 14.49-32 31.98 0 17.752 14.5 31.98 32 31.98s32-14.234 32-31.98c0-17.58-14.4-31.98-32-31.98z" />
<glyph unicode="&#xe964;" glyph-name="hashtag" horiz-adv-x="896" d="M848 624l-148.020 0.051 27.26 151.52c4.688 26.060-12.624 51.060-38.76 55.76-26 4.376-51-12.688-55.76-38.76l-30.32-168.52h-222.4l27.26 151.52c4.688 26.060-12.624 51.060-38.76 55.76-26.1 4.369-51.1-12.711-55.7-38.771l-30.32-168.52h-170.48c-26.5 0-48-21.56-48-48.060s21.5-47.94 48-47.94h153.14l-51.84-288h-165.3c-26.5 0-48-21.52-48-48.020 0-26.62 21.5-48.020 48-48.020l148.020 0.016-27.26-151.52c-4.688-26.060 12.624-51.060 38.76-55.76 2.88-0.536 5.68-0.736 8.48-0.736 22.76 0 43 16.316 47.18 39.5l30.32 168.52h222.4l-27.26-151.52c-4.688-26.060 12.624-51.060 38.76-55.76 3-0.54 5.8-0.74 8.6-0.74 22.76 0 43 16.316 47.18 39.5l30.32 168.52 170.5-0.020c26.5 0 48 21.5 48 46.2 0 26.5-21.5 48.020-48 48.020h-153.14l51.84 288 165.3 1.78c26.5 0 48 21.5 48 46.2 0 28.2-21.4 49.8-48 49.8zM533.4 241.8h-222.4l51.84 288h222.4l-51.84-288z" />
<glyph unicode="&#xe965;" glyph-name="hat-chef" d="M800 0c0-17.672-14.328-32-32-32h-512c-17.672 0-32 14.328-32 32v128h-96v-128c0-70.4 57.6-128 128-128h512c70.4 0 128 57.6 128 128v128h-96v-128zM832 832c-41.76-0.25-82.26-14-115.5-39.5-46.7 62.5-122.3 103.5-204.5 103.5-85.8 0-157.8-41-204.4-103.5-34.2 26.14-75.2 41.3-116.36 39.52-28.96 0-58.060-6.602-84.98-20.020-65.5-32.26-106.51-99-106.26-172 0-83.5 128-448 128-448h768c0 0 128 364.6 128 448 0 106-86 192-192 192zM830.2 288h-83.76l51.38 282.6c3.188 17.438-8.766 33.74-26.18 36.92-17.376 2.624-33.76-8.796-36.9-26.18l-51.54-293.34h-139.2v288c0 17.688-14.312 32-32 32s-32-14.4-32-32v-288h-139.2l-53.2 293.4c-3.2 17.4-21.4 28.8-37 26.2-17.4-3.2-29.4-17.8-26.2-37l51.4-282.6h-83.7c-49.22 121.6-95.14 317-96.1 352.4-0.12 36.6 20.060 69.42 53.060 85.68 13.24 6.58 27.42 9.94 42.18 9.94 21.060 0 41.060-6.804 57.82-19.676l77.1-59.16 58.24 77.816c30.8 41.3 77.4 65 127.6 65 50.22 0 96.72-23.7 127.62-65l58.2-77.8 77.1 59.12c16.68 12.76 36.48 19.56 57.080 19.68 52.94 0 96-43.060 96-95.8-1-35.2-46.8-230.6-97.8-352.2z" />
<glyph unicode="&#xe967;" glyph-name="home" horiz-adv-x="1152" d="M1135 436.6c20.2-17.2 22.8-47.4 5.6-67.6s-47.4-22.8-67.6-5.6l-49 41.6v-373c0-88.4-71.6-160-160-160h-576c-88.36 0-160 71.6-160 160v373l-48.94-41.6c-20.22-17.2-50.5-14.6-67.66 5.6-17.15 20.2-14.668 50.4 5.546 67.6l528.054 448c17.8 15.2 44.2 15.2 62 0l528-448zM288-32h96v304c0 44.2 35.8 80 80 80h224c44.2 0 80-35.8 80-80v-304h96c35.4 0 64 28.6 64 64v454.4l-352 298.66-352-298.66v-454.4c0-35.4 28.6-64 64-64v0zM480-32h192v288h-192v-288z" />
<glyph unicode="&#xe969;" glyph-name="id-card" horiz-adv-x="1152" d="M736 208h192c26.5 0 48 21.5 48 48s-21.5 48-48 48h-192c-26.5 0-48-21.5-48-48s21.6-48 48-48zM416 256c70.7 0 128 57.3 128 128s-57.3 128-128 128-128-57.3-128-128c0-70.6 57.4-128 128-128zM1024 832h-896c-70.7 0-128-57.3-128-128v-640c0-70.7 57.3-128 128-128h896c70.7 0 128 57.3 128 128v640c0 70.7-57.4 128-128 128zM1056 64c0-17.644-14.356-32-32-32h-384c0 88.36-71.64 160-160 160h-128c-88.4 0-160-71.6-160-160h-64c-17.644 0-32 14.356-32 32v512h960v-512zM736 368h192c26.5 0 48 21.5 48 48s-21.5 48-48 48h-192c-26.5 0-48-21.5-48-48s21.6-48 48-48z" />
<glyph unicode="&#xe96a;" glyph-name="image" d="M304 656c-53.020 0-96-42.98-96-96s42.98-96 96-96 96 42.98 96 96-43 96-96 96zM894.2 832h-768c-68.9 0-126.218-57.3-126.218-128v-640c0-70.7 57.3-128 126.2-128h768c70.7 0 128 57.3 128 128v640c0.018 70.7-55.582 128-127.982 128zM926.2 77.4l-273.6 371.8c-5 9.2-16.4 14.8-28.6 14.8-12.226 0-23.64-5.536-30.42-14.758l-213.2-288.2-74.18 92.2c-6.882 8.558-17.868 13.618-29.54 13.618-11.684 0-22.66-5.058-29.56-13.618l-151.040-187.62c0 0.059 0-0.059 0 0l-0.080 638.378c0 17.644 14.356 32 32 32h768c17.644 0 32-14.356 32-32v-626.6z" />
<glyph unicode="&#xe96b;" glyph-name="infinity" horiz-adv-x="1280" d="M968.8 704c-154.8 0-270.4-136.2-328.8-225-58.4 88.8-174 225-328.8 225-171.7 0-311.2-143.6-311.2-320s139.5-320 311.2-320c155 0 270.4 136.2 328.8 225 58.4-88.8 174-225 328.8-225 171.8 0 311.2 143.6 311.2 320s-139.4 320-311.2 320zM311.2 160c-118.7 0-215.2 100.4-215.2 224s96.5 224 215.2 224c135.5 0 241-164.5 274.2-224-33.4-59.6-138.6-224-274.2-224zM968.8 160c-135.5 0-241 164.5-274.2 224 33.4 59.6 138.6 224 274.2 224 118.8 0 215.2-100.4 215.2-224s-96.4-224-215.2-224z" />
<glyph unicode="&#xe96d;" glyph-name="language" horiz-adv-x="1280" d="M912 568c22 0 40-16.2 40-40v-8h120c22 0 40-16.2 40-40 0-22-18-40-40-40h-4l-3.2-9c-17.8-47.2-45-93.2-79.4-130.8 1.8-1 3.6-0.4 5.4-3.2l37.8-22.6c19-11.4 25-36 13.6-55-11.2-19-35.8-25-54.8-13.6l-37.8 22.6c-8.8 5.4-19.4 11-26.2 17-21-15-43.8-28-67.8-38.8l-7.4-3.2c-20.2-9-43.8 0.2-52.8 20.4s0.2 43.8 20.4 52.8l7.2 3.2c12.8 5.8 25.2 14 37 19.6l-24.2 24.4c-15.8 15.6-15.8 40.8 0 56.4 15.6 15.8 40.8 15.8 56.4 0l29.2-29 1.2 0.6c24.8 24.4 45 54.8 59.6 90h-214.2c-23.8 0-40 16.2-40 40 0 22 16.2 40 40 40h104v8c0 22 16.2 40 40 40v-1.8zM280.2 344l39.8 85.6 38-85.6h-77.8zM1152 768c70.6 0 128-57.3 128-128v-512c0-70.6-57.4-128-128-128h-1024c-70.7 0-128 57.4-128 128v512c0 70.7 57.3 128 128 128h1024zM1152 672h-512v-576h512c17.6 0 32 14.4 32 32v512c0 17.6-14.4 32-32 32zM356.6 544.2c-6.4 14.4-20.8 23.8-36.6 23.8s-30.2-9.4-36.6-23.8l-127.96-288c-8.96-18.4 0.12-43.8 20.32-52.8 20.18-9 43.84 0.2 52.84 20.4l17.8 42h147.2l17.8-42c9-20.2 32.6-29.4 52.8-20.4s29.4 34.4 20.4 52.8l-128 288z" />
<glyph unicode="&#xe970;" glyph-name="link-simple-slash" horiz-adv-x="1280" d="M309.8 703.84c3.4 0.1 6.8 0.16 10.2 0.16h208c26.6 0 48-21.4 48-48s-21.4-48-48-48h-96l224.6-176h191.4c26.6 0 48-21.4 48-48s-21.4-48-48-48h-69l220.2-172.6c105 18.6 184.8 110.2 184.8 220.6 0 123.8-100.2 224-224 224h-208c-26.6 0-48 21.4-48 48s21.4 48 48 48h208c176.8 0 320-143.2 320-320 0-130.2-77.8-242.2-189.4-292.2l171-134c20.8-16.4 24.6-46.6 8.2-67.4s-46.6-24.6-67.4-8.2l-1184.008 928.020c-20.864 16.36-24.522 46.52-8.168 67.388 16.356 20.864 46.516 24.522 67.396 8.168l232.18-181.936zM0.002 384c0 95.8 40.558 178.6 105.158 237.2l76.94-60.6c-52.42-41-86.1-105-86.1-176.6 0-123.8 100.28-224 224-224h208c26.6 0 48-21.4 48-48s-21.4-48-48-48h-208c-176.72 0-319.998 143.2-319.998 320v0z" />
<glyph unicode="&#xe971;" glyph-name="link-simple" horiz-adv-x="1280" d="M0 384c0 176.8 143.26 320 320 320h208c26.6 0 48-21.4 48-48s-21.4-48-48-48h-208c-123.72 0-224-100.2-224-224s100.28-224 224-224h208c26.6 0 48-21.4 48-48s-21.4-48-48-48h-208c-176.74 0-320 143.2-320 320zM960 64h-208c-26.6 0-48 21.4-48 48s21.4 48 48 48h208c123.8 0 224 100.2 224 224s-100.2 224-224 224h-208c-26.6 0-48 21.4-48 48s21.4 48 48 48h208c176.8 0 320-143.2 320-320s-143.2-320-320-320zM848 432c26.6 0 48-21.4 48-48s-21.4-48-48-48h-416c-26.6 0-48 21.4-48 48s21.4 48 48 48h416z" />
<glyph unicode="&#xe974;" glyph-name="medal" d="M684.2 316.8l-104.8 15.2-47 95c-4 8.5-12.25 12.75-20.5 12.75s-16.1-4.35-20.5-12.75l-47-95-104.74-15.25c-18.66-2.75-26.46-25.95-12.66-39.35l75.74-74-17.74-104.4c-2.75-14.75 9.25-26.76 22.5-26.76 3.5 0 7.25 0.75 10.75 2.75l93.74 49.24 93.74-49.24c3.5-2 7.25-2.75 10.75-2.75 13.25 0 25.24 12 22.5 27l-17.75 104.26 75.74 74c13.83 13.3 6.23 36.5-12.77 39.3zM512 608c-203.2 0-366.2-164.76-366.2-368s163-368 366.2-368 366.2 164.76 366.2 368-163 368-366.2 368zM512-32c-149.98 0-270.2 122.020-270.2 272s120.2 272 270.2 272 270.2-122.020 270.2-272-122-272-270.2-272zM271.8 599l-134.12 201h138.44l88.26-154.44c30.98 11.282 63.46 19.344 97.3 23.26l-116.080 203c-8.4 14.93-24.4 24.18-41.6 24.18h-255.98c-17.688 0-34.060-9.984-42.44-25.6-8.38-15.58-7.328-34.28 2.484-49.020l190.076-285.18c22.26 23.6 46.66 44.8 73.66 62.8zM1018.4 870.4c-8.4 15.616-24.8 25.6-44.2 25.6h-254.2c-17.25 0-33.12-9.25-41.68-24.18l-115.98-203c33.82-3.922 66.32-11.984 97.3-23.26l88.16 154.44h138.44l-134.020-201c26.9-18.040 51.4-39.26 73.56-62.72l190.080 285.2c9.94 14.64 10.94 33.34 2.54 48.92z" />
<glyph unicode="&#xe975;" glyph-name="microchip-ai" d="M452.6 529.8c-12.75 29.12-60.56 29.12-73.32 0l-112-256c-8.844-20.24 0.375-43.82 20.62-52.68 20.28-8.812 43.82 0.406 52.68 20.62l10.578 24.18c0.442-1.72 0.642-1.92 0.842-1.92h128c0.27 0 0.496 0.152 0.766 0.156l10.578-24.18c4.856-14.976 21.256-23.976 36.656-23.976 5.344 0 10.782 1.063 16 3.344 20.24 8.876 29.46 32.44 20.62 52.68l-112.020 257.776zM386.2 344l29.8 68.2 29.8-68.2h-59.6zM672 552c-22.1 0-40-17.906-40-40v-256c0-22.1 17.906-40 40-40s40 17.906 40 40v256c0 23.8-18 40-40 40zM976 336c26.6 0 48 21.4 48 48s-21.5 48-48 48h-80v96h80c26.6 0 48 21.4 48 48s-21.5 48-48 48h-80v16c0 70.7-57.3 128-128 128h-16v80c0 26.5-21.4 48-48 48s-48-21.5-48-48v-80h-96v80c0 26.5-21.4 48-48 48s-48-21.5-48-48v-80h-96v80c0 26.5-21.4 48-48 48s-48-21.5-48-48v-80h-16c-70.7 0-128-57.3-128-128v-16h-80c-26.5 0-48-21.6-48-48s21.5-48 48-48h80v-96h-80c-26.5 0-48-21.6-48-48s21.5-48 48-48h80v-96h-80c-26.5 0-48-21.6-48-48s21.5-48 48-48h80v-16c0-70.7 57.3-128 128-128h16v-80c0-26.6 21.6-48 48-48s48 21.5 48 48v80h96v-80c0-26.6 21.6-48 48-48s48 21.5 48 48v80h96v-80c0-26.5 21.5-48 48-48s48 21.5 48 48v80h16c70.7 0 128 57.3 128 128v16h80c26.5 0 48 21.5 48 48s-21.5 48-48 48h-80v96h80zM800 128c0-17.644-14.356-32-32-32h-512c-17.644 0-32 14.356-32 32v512c0 17.644 14.356 32 32 32h512c17.644 0 32-14.356 32-32v-512z" />
<glyph unicode="&#xe976;" glyph-name="microchip" d="M640 576h-256c-35.4 0-64-28.6-64-64v-256c0-35.34 28.66-64 64-64h256c35.34 0 64 28.66 64 64v256c0 35.4-28.6 64-64 64zM608 288h-192v192h192v-192zM976 336c26.6 0 48 21.4 48 48s-21.5 48-48 48h-80v96h80c26.6 0 48 21.4 48 48s-21.5 48-48 48h-80v16c0 70.7-57.3 128-128 128h-16v80c0 26.5-21.4 48-48 48s-48-21.5-48-48v-80h-96v80c0 26.5-21.4 48-48 48s-48-21.5-48-48v-80h-96v80c0 26.5-21.4 48-48 48s-48-21.5-48-48v-80h-16c-70.7 0-128-57.3-128-128v-16h-80c-26.5 0-48-21.6-48-48s21.5-48 48-48h80v-96h-80c-26.5 0-48-21.6-48-48s21.5-48 48-48h80v-96h-80c-26.5 0-48-21.6-48-48s21.5-48 48-48h80v-16c0-70.7 57.3-128 128-128h16v-80c0-26.6 21.6-48 48-48s48 21.5 48 48v80h96v-80c0-26.6 21.6-48 48-48s48 21.5 48 48v80h96v-80c0-26.5 21.5-48 48-48s48 21.5 48 48v80h16c70.7 0 128 57.3 128 128v16h80c26.5 0 48 21.5 48 48s-21.5 48-48 48h-80v96h80zM800 128c0-17.644-14.356-32-32-32h-512c-17.644 0-32 14.356-32 32v512c0 17.644 14.356 32 32 32h512c17.644 0 32-14.356 32-32v-512z" />
<glyph unicode="&#xe978;" glyph-name="note" horiz-adv-x="896" d="M768 832h-639.98c-70.7 0-128.007-57.3-128.007-128l-0.013-640c0-70.68 57.3-128 128-128h490.8c33.94 0 66.5 13.484 90.5 37.5l149.26 149.28c24.040 24.020 37.44 56.62 37.44 90.42v490.8c0 70.4-57.6 128-128 128zM800 256h-158.2c-35.34 0-64-28.66-64-64l0.008-159.76h-449.808c-17.672 0-32 14.328-32 32l0.040 639.76c0 17.672 14.324 32 32 32h638.2c17.672 0 32-14.328 32-32v-448z" />
<glyph unicode="&#xe979;" glyph-name="option" horiz-adv-x="1280" d="M880 672h352c26.6 0 48 21.4 48 48 0 26.52-21.4 48-48 48h-352c-26.6 0-48-21.48-48-48 0-26.6 21.4-48 48-48zM1232 96h-259c-24.24 0-46.94 10.812-62.18 29.62l-467.020 577.2c-33.6 41.42-83.4 65.18-136.8 65.18h-259c-26.5 0-48-21.5-48-48s21.5-48 48-48h259c24.24 0 46.94-10.812 62.18-29.62l467.2-577.2c33.42-41.38 83.22-65.18 136.62-65.18h259c26.5 0 48 21.5 48 48s-21.4 48-48 48z" />
<glyph unicode="&#xe97a;" glyph-name="paint-brush" horiz-adv-x="1152" d="M768 213.4c-38.2-51-97.2-82.2-160.6-85.2 0.4-5.4 0.6-10.8 0.6-16.2 0-132.6-107.4-240-240-240h-304c-35.34 0-64 28.6-64 64s28.66 64 64 64h12.020c36.16 0 60.26 39.6 54.76 75.2-1.82 12-4.58 24.4-4.58 36.8 0 132.6 109.2 240 240 240 7.2 0 12.6-0.2 18-0.6 3 63.4 34.2 122.4 85.2 160.6l477.6 358.38c49.2 38.234 122.2 33.178 167.4-11.86 45-45.020 50-116.34 11.8-167.32l-358.2-477.8zM554.2 457l158.8-155.2 336.4 447c9.6 12.74 8.4 30.58-3 41.82-11.2 11.26-29 12.54-41.8 2.98l-450.4-336.6zM398.2 252.8c-9.8 2.2-19.8 3.2-30.2 3.2-79.6 0-144-64.4-144-144 0-7.6 0.6-15 1.6-22.2 6.6-42.8-4.2-86.2-27.44-120l-1.32-1.8h171.16c79.6 0 144 64.4 144 144 0 10.4-1 20.4-3.2 30.2l-110.6 110.6z" />
<glyph unicode="&#xe97b;" glyph-name="paperclip" horiz-adv-x="896" d="M750 750.060c-51.8 53.74-136.2 53.74-189.8 0l-382.26-382.26c-87.3-89-87.3-230.6 0-317.8 87.26-87.4 228.86-87.4 316.060 0l304 304c18.8 18.6 49.2 18.6 66.2 0 20.4-18.8 20.4-49.2 0-66.2l-304-304c-123-126.6-325.4-126.6-450.14 0-124.788 123-124.788 325.4 0 450.2l383.94 383.94c89.4 89.438 234.4 89.438 322.2 0 91.2-89.44 91.2-234.54 0-322.14l-365.8-369.2c-63.2-63.2-167.2-57.4-223 12.2-47.64 59.6-42.88 145.6 11 199.6l303.6 303.6c18.8 18.6 49.2 18.6 66.2 0 20.4-18.8 20.4-49.2 0-66.2l-301.8-305.2c-19.4-19.4-21.2-50.4-4-71.8 20-25 57.4-27.2 80-4.4l367.6 367.6c52 51.8 52 136.12 0 188.060v0z" />
<glyph unicode="&#xe97c;" glyph-name="pen-to-square" d="M746.2 846.060c56.2 56.234 147.4 56.234 203.6 0l24.2-24.24c56.2-56.24 56.2-147.42 0-203.62l-394.4-394.6c-17.4-17.2-38.8-29.8-62.4-36.6l-200-57.2c-16.8-4.8-34.8 0-47.2 14-12.2 10.6-17 28.6-12.2 45.4l57.2 200c6.8 23.6 19.4 45 36.6 62.4l394.6 394.46zM880.2 778.18c-17 18.74-47.4 18.74-66.2 0l-58.2-58.18 92.2-92.2 58.2 60c18.8 17 18.8 47.4 0 66.14l-26 24.24zM407.4 362.8l-33.6-117 117 33.6c8 2.2 15 6.4 20.8 12.2l268.6 268.4-92.2 92.2-268.4-268.6c-5.8-5.8-10-12.8-12.2-20.8zM400 768c26.6 0 48-21.5 48-48 0-26.6-21.4-48-48-48h-224c-44.18 0-80-35.8-80-80v-544c0-44.2 35.82-80 80-80h544c44.2 0 80 35.8 80 80v224c0 26.6 21.4 48 48 48s48-21.4 48-48v-224c0-97.2-78.8-176-176-176h-544c-97.2 0-176 78.8-176 176v544c0 97.2 78.8 176 176 176h224z" />
<glyph unicode="&#xe97d;" glyph-name="pencil" d="M72.74 174.2c8.32 28.2 23.58 54 44.4 74.8l608.26 608.36c50 49.996 131.2 49.996 181.2 0l78.8-78.86c6.2-6.24 11.6-12.98 16.4-20.080 32.8-49.68 27.4-117.22-16.4-161.020l-608.4-608.2c-2.6-2.6-5.2-3.4-8-7.6-19.2-17-42-27.8-66.8-36.8l-240.66-70.8c-16.84-5-35.060-0.4-47.48 13.8-12.42 10.6-17.064 28.8-12.108 45.8l70.788 240.6zM118.88-9.2l156.32 46c4.6 1.4 9.2 5 13.6 5.4l-72.6 14.6c-15.8 3.2-28.26 15.6-31.42 31.4l-14.52 72.6c-2.22-4.4-4.040-9-5.42-13.6l-45.96-156.4zM361.4 109.4l404.6 404.6-125.8 125.8-402.8-406.4 18.8-103.4 105.2-20.6z" />
<glyph unicode="&#xe97e;" glyph-name="plug" horiz-adv-x="768" d="M192 896c26.6 0 48-21.5 48-48v-176h-96v176c0 26.5 21.5 48 48 48zM576 896c26.6 0 48-21.5 48-48v-176h-96v176c0 26.5 21.4 48 48 48zM720 608c26.6 0 48-21.4 48-48s-21.4-48-48-48h-16v-128c0-160.4-119.8-293.2-272-316.4v-195.6h-96v195.6c-153.96 23.2-272 156-272 316.4v128h-16c-26.5 0-48 21.4-48 48s21.5 48 48 48h672zM384 160c123.8 0 224 100.2 224 224v128h-448v-128c0-123.8 100.2-224 224-224z" />
<glyph unicode="&#xe980;" glyph-name="reply" d="M1024 224v-238.2c0-28.4-21.4-49.8-48-49.8s-48 21.5-48 46.2v238.2c0 114.68-93.32 206.2-208 206.2h-542.98l254.4-219.6c20.060-17.312 22.24-47.62 4.938-67.68-9.558-5.72-22.958-11.32-36.358-11.32-11.124 0-22.32 3.818-31.38 11.694l-352 302.2c-10.562 10.906-16.62 25.906-16.62 38.106 0 14 6.058 27.2 16.62 36.2l352 302.2c18.2 17.436 50.32 15.15 67.7-4.974 17.312-20.060 15.124-50.38-4.938-67.68l-254.362-217.746h542.98c167.6 0 304-136.4 304-304z" />
<glyph unicode="&#xe981;" glyph-name="server" d="M896 832h-768c-70.7 0-128-57.3-128-128v-128c0-70.7 57.3-128 128-128h768c70.7 0 128 57.3 128 128v128c0 70.7-57.4 128-128 128zM928 576c0-17.644-14.356-32-32-32h-768c-17.64 0-32 14.4-32 32v128c0 17.644 14.356 32 32 32h768c17.644 0 32-14.356 32-32v-128zM896 320h-768c-70.7 0-128-57.3-128-128v-128c0-70.7 57.3-128 128-128h768c70.7 0 128 57.3 128 128v128c0 70.6-57.4 128-128 128zM928 64c0-17.644-14.356-32-32-32h-768c-17.644 0-32 14.356-32 32v128c0 17.644 14.356 32 32 32h768c17.644 0 32-14.356 32-32v-128zM704 688c-26.5 0-48-21.48-48-48 0-26.5 21.5-48 48-48s48 21.4 48 48c0 26.6-21.4 48-48 48zM832 688c-26.5 0-48-21.48-48-48 0-26.5 21.5-48 48-48s48 21.4 48 48c0 26.6-21.4 48-48 48zM704 176c-26.5 0-48-21.48-48-48 0-26.5 21.5-48 48-48s48 21.5 48 48c0 26.6-21.4 48-48 48zM832 176c-26.5 0-48-21.48-48-48 0-26.5 21.5-48 48-48s48 21.5 48 48c0 26.6-21.4 48-48 48z" />
<glyph unicode="&#xe982;" glyph-name="share" horiz-adv-x="896" d="M896 640c0-106-86-192-192-192-57.8 0-109.6 25.6-144.8 66l-179.4-89.8c2.8-13 2.4-26.4 2.4-38.4 0-15.6 0.4-29-2.4-42l179.4-88c35.2 38.6 87 66 144.8 66 106 0 192-86 192-193.8 0-106-86-192-192-192-107.8 0-192 86-192 192 0 13.8 1.4 27.2 4.2 40.2l-179.4 89.8c-35.2-40.4-87-66-144.8-66-106.040 0-192 86-192 193.8 0 106 85.96 192 192 192 57.8 0 109.6-27.4 144.8-66l179.4 88c-2.8 13-4.2 26.4-4.2 40.2 0 106.040 84.2 192 192 192 106 0 192-85.96 192-192v0zM190.2 288c54.8 0 96 43 96 96s-41.2 96-96 96c-51.22 0-96-43-96-96s44.78-96 96-96zM704 736c-53 0-96-43-96-96s43-96 96-96c53 0 96 43 96 96s-43 96-96 96zM704 32c53 0 96 43 96 96s-43 96-96 96c-53 0-96-43-96-96s43-96 96-96z" />
<glyph unicode="&#xe983;" glyph-name="shield-check" d="M933 728.58l-384 160c-11.75 5-24.32 7.406-36.88 7.406s-25.12-2.392-36.92-7.392l-383.98-160.014c-35.76-14.74-59.22-49.78-59.22-86.78 0-516.6 378.8-769.8 479.8-769.8 98.6 0 480.2 249.4 480.2 769.8 0 37-23.4 72.040-59 86.78zM512-32c-195 81.2-384 333.4-384 672l384 160 384-160c0-347.6-196.8-594-384-672zM400.2 402c-7.6 9.4-20 15.8-32.2 15.8-27.42 0-48-22.42-48-48 0-14 4.6-26.4 14-34l96-96c9-10.8 21.4-14 34-14 5.19 0 22.92 0.992 36.44 16.75l192 224c7.762 9.056 11.562 20.18 11.562 31.24 0 14.81-11.58 47.98-47.96 47.98-13.512 0-26.96-5.662-36.48-16.724l-158.162-186.446-61.2 59.4z" />
<glyph unicode="&#xe984;" glyph-name="signal-fair" horiz-adv-x="1152" d="M64 128c-26.5 0-48-21.6-48-48v-160c0-26.5 21.5-48 46.2-48s49.8 21.4 49.8 48v160c0 26.4-21.5 48-48 48zM320 320c-26.4 0-48-21.6-48-48v-352c0-26.6 21.6-48 48-48s48 21.5 48 48v352c0 26.4-21.4 48-48 48z" />
<glyph unicode="&#xe985;" glyph-name="signal-good" horiz-adv-x="1152" d="M64 128c-26.5 0-48-21.6-48-48v-160c0-26.5 21.5-48 46.2-48s49.8 21.4 49.8 48v160c0 26.4-21.5 48-48 48zM320 320c-26.4 0-48-21.6-48-48v-352c0-26.6 21.6-48 48-48s48 21.5 48 48v352c0 26.4-21.4 48-48 48zM576 512c-26.4 0-48-21.6-48-48v-544c0-26.6 21.6-48 48-48s48 21.5 48 48v544c0 26.4-21.4 48-48 48z" />
<glyph unicode="&#xe986;" glyph-name="signal-slash" horiz-adv-x="1280" d="M384 321.8c-26.5 0-48-21.5-48-48v-352c0-26.5 21.5-46.2 48-46.2s48 17.8 48 44.4v352c0 26.4-21.4 49.8-48 49.8zM128 129.8c-26.5 0-48-21.5-48-48v-160c0-26.5 21.5-46.2 48-46.2s48 17.8 48 44.4v160c0 26.4-21.5 49.8-48 49.8zM592-80c0-26.6 21.6-48 48-48s48 21.5 48 48v244.2l-96 75.24v-319.44zM848-80c0-26.5 21.5-48 48-48s48 21.5 48 48v43.64l-96 75.24v-118.88zM1261.6-42.2l-61.6 50v840.2c0 26.5-21.5 48-48 48s-48-21.5-48-48v-766.6l-160 125.4v449.2c0 26.4-21.4 48-48 48s-48-21.5-48-48v-374l-160 125.4v56.6c0 26.4-21.4 48-48 48-20.8 0-39.8-13.4-44.8-30.2l-517.58 403.978c-20.92 16.344-50.98 12.72-67.378-8.156-16.344-20.88-12.708-51.060 8.136-67.4l1182.2-926.2c8.812-6.876 19.218-10.234 29.6-10.234 14.25 0 28.32 6.328 37.8 18.39 18.222 19.022 14.422 49.222-6.378 65.622z" />
<glyph unicode="&#xe987;" glyph-name="signal-strong" horiz-adv-x="1152" d="M64 128c-26.5 0-48-21.6-48-48v-160c0-26.5 21.5-48 46.2-48s49.8 21.4 49.8 48v160c0 26.4-21.5 48-48 48zM320 320c-26.4 0-48-21.6-48-48v-352c0-26.6 21.6-48 48-48s48 21.5 48 48v352c0 26.4-21.4 48-48 48zM832 704c-26.5 0-48-21.5-48-48v-736c0-26.5 21.5-48 48-48s48 21.5 48 48v736c0 26.4-21.4 48-48 48zM576 512c-26.4 0-48-21.6-48-48v-544c0-26.6 21.6-48 48-48s48 21.5 48 48v544c0 26.4-21.4 48-48 48z" />
<glyph unicode="&#xe988;" glyph-name="signal-weak" horiz-adv-x="1152" d="M112 80v-160c0-26.5-21.5-48-48-48s-48 21.4-48 48v160c0 26.5 21.5 48 48 48s48-21.6 48-48z" />
<glyph unicode="&#xe989;" glyph-name="sliders-h" d="M0 64c0 26.6 21.5 48 48 48h119.32c20.4 65 81.080 112 152.68 112s132.2-47 152.6-112h503.4c26.6 0 48-21.4 48-48s-21.4-48-48-48h-503.4c-20.4-65-81-112-152.6-112s-132.28 47-152.68 112h-119.32c-26.5 0-48 21.4-48 48zM384 64c0 35.4-28.6 64-64 64s-64-28.6-64-64c0-35.4 28.6-64 64-64s64 28.6 64 64zM704 544c71.6 0 132.2-47 152.6-112h119.4c26.6 0 48-21.4 48-48s-21.4-48-48-48h-119.4c-20.4-65-81-112-152.6-112s-132.2 47-152.6 112h-503.4c-26.5 0-48 21.4-48 48s21.5 48 48 48h503.4c20.4 65 81 112 152.6 112zM768 384c0 35.4-28.6 64-64 64s-64-28.6-64-64c0-35.4 28.6-64 64-64s64 28.6 64 64zM976 752c26.6 0 48-21.5 48-48 0-26.6-21.4-48-48-48h-439.4c-20.4-65-81-112-152.6-112s-132.2 47-152.6 112h-183.4c-26.5 0-48 21.4-48 48 0 26.5 21.5 48 48 48h183.4c20.4 64.92 81 112 152.6 112s132.2-47.080 152.6-112h439.4zM320 704c0-35.4 28.6-64 64-64s64 28.6 64 64c0 35.34-28.6 64-64 64s-64-28.66-64-64z" />
<glyph unicode="&#xe98a;" glyph-name="sort-down" horiz-adv-x="640" d="M542.2 320h-446.040c-85.26 0-128.5-103.54-67.76-163.8l223.8-224c37.26-37.52 98.26-37.52 135.76 0l224 224c58.24 60.2 17.44 163.8-69.76 163.8zM318.2 0l-224 224h448l-224-224z" />
<glyph unicode="&#xe98b;" glyph-name="sort-up" horiz-adv-x="640" d="M96.060 448h447.8c85.26 0 128.5 103.54 67.76 163.8l-223.8 224c-37.26 37.52-98.26 37.52-135.76 0l-224-224c-60-60.2-17.496-163.8 68-163.8zM320 768.040l224-224h-447.94l223.94 224z" />
<glyph unicode="&#xe98c;" glyph-name="sort" horiz-adv-x="640" d="M542.2 320h-445.9c-85.24 0-128.48-103.52-67.74-163.8l223.8-224c37.24-37.5 98.24-37.5 135.72 0l222.2 224c59.92 60.2 19.12 163.8-68.080 163.8zM320 0l-222.2 224h446.2l-224-224zM96.040 449.8h447.6c85.24 0 128.48 103.52 67.74 163.8l-223.58 222.26c-37.24 37.5-98.24 37.5-135.72 0l-222.2-224c-61.8-60.26-19.318-162.060 66.16-162.060zM320 768.060l222.2-224h-446.16l223.96 224z" />
<glyph unicode="&#xe98d;" glyph-name="star" horiz-adv-x="1152" d="M575.8 896c18.4 0 35.2-10.5 43.2-27.040l137.2-282.56 306.6-45.4c18-2.6 32.8-15.2 38.6-32.4 5.6-17.4 1-36.4-11.8-49l-222.4-220.4 52.6-311c3-18-4.4-36.4-19.4-47-14.8-10.6-36.2-12-50.6-3.4l-274 146.4-275.6-146.4c-14.4-8.6-34-7.2-49 3.4-14.8 10.6-22.2 29-21 47l54.2 311-222.18 220.4c-12.92 12.6-17.5 31.6-11.82 49 5.66 17.2 20.6 29.8 38.58 32.4l306.42 45.4 137.2 282.56c8.2 16.542 24.8 27.040 43.2 27.040v0zM575.8 738.1l-105-216.5c-7-14.2-20.6-24.2-36.2-26.6l-236.64-34.8 171.84-170.2c11-11 16-26.8 13.4-42.2l-40.4-239.2 210.4 112.4c14.2 7.6 31.2 7.6 45.2 0l210.4-112.4-40.4 239.2c-2.6 15.4 2.6 31.2 13.6 42.2l171.8 170.2-236.6 34.8c-15.8 2.4-29.4 12.4-36.2 26.6l-105.2 216.5z" />
<glyph unicode="&#xe98f;" glyph-name="store" horiz-adv-x="1152" d="M966.8 448c-39.2 0-75.2 13-104.2 34.4-9.6 7-18.2 14.8-26 23.6-7.8-8.6-16.4-16.4-25.8-23.4-29-21.6-65.2-34.6-104.6-34.6-39.2 0-75 12.8-104 35.8-9.6 5.4-18.4 13.4-26.4 22.2-8-8.8-16.8-16.8-26.4-22.2-29-23-64.8-35.8-104-35.8-39 0-75 12.8-104 35.8-9.6 5.4-18.4 13.4-26.2 22.2-8-8.8-17-16.8-26.6-22.2-28.8-23-66.4-34-103.78-35.8-0.040 0-0.060 0-0.1 0-8.12 0-16.3 0.6-24.24 1.6-110.64 14.8-162.99 145.2-103.82 238.8l114.66 181.34c10.2 16.302 28.42 26.26 47.88 26.26h713.6c19.4 0 37.6-9.956 47.8-26.26l114.6-181.34c59.4-93.8 6.8-224-104.2-238.8-7.8-1-15.8 0.2-24-1.6 0 0 0 0-0.2 0v0zM911.2 800h-670.4l-102.98-163c-11.58-18.2-12.68-40.8-4.52-60.2 7.84-18.4 22.040-29.6 39.82-32 4.020-0.6 7.96-0.8 11.6-0.8 23.68 0 44.48 10.2 59.080 26.4 18.2 20 42.4 31.6 71.4 31.6 27 0 53-11.6 71.2-31.6 14.6-16.2 35.4-26.4 59-26.4 23.8 0 42.8 10.2 59.2 26.4 18.2 20 44 31.6 71.2 31.6s53-11.6 71.2-31.6c14.6-16.2 35.6-26.4 59.2-26.4s44.4 10.2 59 26.4c18.2 20 44 31.6 71.2 31.6 27 0 53-11.4 71.2-31.6 14.8-16.2 35.8-26.4 59.2-26.4 4 0 7.8 0.2 11.8 0.8 18 2.4 32.2 13.6 40 32 8.2 21 7.2 41.8-4.4 60.2l-103 163zM928 224v163.2c12.6-2.2 25.6-3.2 38.8-3.2 11.2 0 22 0.8 32.6 2.2v0c6.8 1 16.6 2.6 24.6 4.6v-390.8c0-70.6-57.4-128-128-128h-640c-70.68 0-128 57.4-128 128v390.8c7.74-2 15.72-3.6 23.94-4.6h0.24c10.52-1.4 21.48-2.2 32.54-2.2 13.4 0 26.48 1.2 39.28 3.2v-163.2h704zM928 128h-704v-128c0-17.6 14.4-32 32-32h640c17.6 0 32 14.4 32 32v128z" />
<glyph unicode="&#xe990;" glyph-name="sun" d="M1010.4 246.4l-95.46 137.56 95.5 137.62c14.718 21.24 17.594 48.24 7.688 72.12-9.938 23.88-31.040 40.88-56.44 45.44l-164.78 29.76-29.78 164.82c-4.562 25.44-21.52 46.5-45.38 56.44-23.94 9.872-50.84 6.996-72.24-7.688l-137.508-95.452-137.6 95.562c-21.4 14.621-48.2 17.496-72.2 7.626-23.84-9.942-40.8-31-45.4-56.38l-29.78-164.88-164.72-29.748c-25.46-4.6-46.592-21.6-56.5-45.6-9.902-23.8-6.999-50.8 7.75-72l95.46-137.56-95.5-137.62c-14.718-21.24-17.59-48.24-7.688-72.12 9.938-23.88 31.040-40.88 56.44-45.44l164.78-29.76 29.78-164.82c4.594-25.44 21.56-46.5 45.4-56.44 23.9-9.812 50.88-7.062 72.18 7.688l137.598 95.472 137.66-95.56c12.94-8.84 27.94-13.44 42.94-13.44 9.812 0 19.718 1.937 29.12 5.812 23.84 9.938 40.8 31 45.4 56.38l29.78 164.88 164.74 29.76c25.46 4.562 46.6 21.56 56.5 45.5 10.060 23.868 7.060 50.868-7.74 72.068zM913.6 217.6l-199.22-36-36-199.26-166.38 115.46-166.4-115.4-36 199.26-199.22 36 115.42 168.14-115.34 164.6 199.22 36 36 199.26 166.32-115.46 166.3 115.5 36.040-199.32 199.22-36-115.36-164.58 115.4-168.2zM512 609.8c-123.7 0-222.2-100.28-222.2-222.2 0-123.7 100.3-222.2 222.2-222.2s222.2 100.28 222.2 222.2c0 120.2-98.6 222.2-222.2 222.2zM512 257.8c-70.56 0-127.98 57.42-127.98 127.98s57.38 126.22 127.98 126.22 127.98-57.42 127.98-126.2-57.38-128-127.98-128z" />
<glyph unicode="&#xe991;" glyph-name="sunglasses" horiz-adv-x="1152" d="M1148.2 335.2l-90.76 363.4c-11.75 47.5-43 86.2-86 111.5-43 23.74-92.2 28.24-140.5 12.75l-30.34-10.13c-16.75-5.5-25.74-23.76-20-40.5l10-30.24c5.498-16.75 23.76-25.74 40.5-20.24l26.24 8.75c21.76 7.25 46.080 7.25 66.34-3.5 20.5-10.5 35.42-29.24 40.92-51.5l76.76-307.8c-52.56 16.51-107.36 24.71-162.36 25.11-80 0-171.5-18.51-266-72.76h-73.8c-94.8 54.16-186.4 72.76-266.2 72.76-55.24-0.25-109.84-8.5-162.34-25l76.76 307.8c5.58 22.12 20.58 40.88 41.18 51.38 20.26 10.75 44.5 10.75 66.26 3.5l26.14-8.76c8-2.75 16.75-2.020 24.5 1.73 7.5 3.75 13.25 10.52 16 18.52l10 30.42c5.7 16.75-5.3 34.83-20.1 40.33l-30.5 10.25c-46.5 15.5-97.42 10.998-140.42-12.75-43-23.5-74.24-62.2-86-111.5l-90.73-363.52c-2.25-10.2-3.5-20.4-3.75-31v-140.5c0-123.9 103.26-227.7 230.6-227.7h74.080c120.76 0 221 92 228.2 210.8l5.75 77.24h71.5l5.75-77.24c10.52-117 110.72-210.8 231.52-210.8h74.080c127.32 0 230.52 103.8 230.52 227.8v140.5c0 10.5-1.2 20.7-3.8 30.9zM96 163.8v97c39.5 16.25 102.5 34.2 177.24 34.2l-177.24-131.2zM713.2 154l-8 105.5c54.8 24.5 113.8 36.9 173.8 37.3l-165.8-142.8z" />
<glyph unicode="&#xe992;" glyph-name="th-list" d="M0 704c0 70.7 57.3 128 128 128h768c70.6 0 128-57.3 128-128v-640c0-70.6-57.4-128-128-128h-768c-70.7 0-128 57.4-128 128v640zM384 560h544v144c0 17.68-14.4 32-32 32h-512v-176zM288 736h-160c-17.68 0-32-14.32-32-32v-144h192v176zM96 464v-160h192v160h-192zM96 208v-144c0-17.6 14.32-32 32-32h160v176h-192zM384 32h512c17.6 0 32 14.4 32 32v144h-544v-176zM928 304v160h-544v-160h544z" />
<glyph unicode="&#xe993;" glyph-name="tags" d="M945.6 559.2c104.6-106 104.6-276.4 0-382.4l-224-226.6c-18.6-18.8-49-19-67.8-0.4-19 18.6-19 49-0.4 68l223.8 226.4c67.8 68.6 67.8 179 0 247.6l-255.4 258.46c-18.8 18.86-18.6 49.24 0.4 67.88 18.8 18.64 49.2 18.46 66-0.4l257.4-258.54zM288 609.8c0-37.2-28.6-64-64-64-35.34 0-64 26.8-64 64 0 33.6 28.66 64 64 64 35.4 0 64-30.4 64-64zM821.4 458.6c50-50 50-131.2 0-181.2l-266.8-266.8c-50-50-131.2-50-181.2 0l-335.9 336c-24.014 24-37.5 56.4-37.5 90.4v299c0 53.020 42.98 96 96 96h299c34 0 66.4-13.48 90.4-37.5l336-335.9zM96 737.8v-300.8c0-8.4 3.38-16.6 9.38-22.6l336.020-336c12.4-12.6 32.8-12.6 45.2 0l267 267c12.6 12.4 12.6 32.8 0 45.2l-336 336.020c-6 6-14.2 11.18-22.6 11.18h-299z" />
<glyph unicode="&#xe994;" glyph-name="terminal" horiz-adv-x="1152" d="M12.676 751.5c-17.95 19.5-16.684 49.88 2.826 67.82 19.518 17.96 49.878 18.48 67.818-2.82l368.080-400.1c16.8-18.2 16.8-46.6 0-64.8l-368.080-400c-17.94-19.6-48.3-20.8-67.818-3-19.51 18-20.774 48.4-2.826 67.8l338.124 367.6-338.124 367.5zM1104 32c26.6 0 48-21.4 48-48s-21.4-48-48-48h-608c-26.6 0-48 21.4-48 48s21.4 48 48 48h608z" />
<glyph unicode="&#xe995;" glyph-name="thumbs-down" d="M256 320v447.94c0 35.34-28.66 62.2-64 62.2h-128c-35.34 0-64-28.66-64-62.2v-446.2c0-35.34 28.66-62.2 64-62.2h128c35.4-3.54 64 25.060 64 60.46zM963 437.8c2.468 10.184 3.75 20.64 3.75 31.28 0 45.4-22.88 86.26-58.56 110.56 0.844 6.030 1.281 12.152 1.281 18.244 0 44.64-22.12 85.2-57.66 109.66-4.876 69.42-62.94 124.4-133.6 124.4h-105.060c-71.88 0-143.1-23.74-200.6-66.82l-73.351-54.984c-12.57-9.42-19.192-23.7-19.192-38.26 0-25.52 20.58-48.080 48.060-48.080 10.026 0 20.14 3.13 28.76 9.622l73.32 55.020c40.96 30.68 91.76 47.62 143 47.62h105.060c20.9 0 37.94-16.994 37.94-37.9 0-7-2.22-9.88-2.22-18.912 0-53.94 59.54-35.82 59.54-81.28 0-18.508-12.784-21.92-12.784-44.5 0-27.94 21.7-43.9 39.16-47.18 17.906-3.342 30.9-18.962 30.9-37.12 0-26.080-22.78-26.74-22.78-57.82 0-25.080 19.404-46.16 44.72-47.88 19.716 0.33 35.316-17.87 35.316-35.67 0-20.86-17.032-37.86-37.94-37.86h-275.26c-24.88 0-48-20.040-48-46.2 0-8.076 2.040-16.156 6.132-23.44 35.868-67.7 51.068-131.9 51.068-146.7 0-16.088-11.968-41.58-44.12-41.58-25.060 0-28.54 1.812-49.88 56.14-49.5 125.82-123.48 199.8-161.96 199.8-27.6 0-48.040-22.54-48.040-47.98 0-14.082 6.166-28.040 18.032-37.52 138.168-110.46 84.768-266.46 241.768-266.46 87.8 0 140.2 70 140.2 137.6 0 25.4-10.656 70.42-29.66 118.66h199.72c72.14-0.060 133.94 59.94 133.94 135.54 0 44.6-24.2 86.2-61 110z" />
</font>
</defs>
</svg>
