<?xml version="1.0" standalone="no"?>
<!DOCTYPE svg PUBLIC "-//W3C//DTD SVG 1.1//EN" "http://www.w3.org/Graphics/SVG/1.1/DTD/svg11.dtd" >
<svg xmlns="http://www.w3.org/2000/svg">
<metadata>Generated by IcoMoon</metadata>
<defs>
<font id="uncanny-automator-icons" horiz-adv-x="1024">
<font-face units-per-em="1024" ascent="896" descent="-128" />
<missing-glyph horiz-adv-x="1024" />
<glyph unicode="&#x20;" horiz-adv-x="0" d="" />
<glyph unicode="&#xe000;" glyph-name="loading" d="M603.2-117.040c-50.227 0.361-90.804 41.161-90.804 91.438 0 44.333 31.549 81.297 73.42 89.665l0.583 0.097c121.431 29.213 215.18 123.229 243.554 242.576l0.446 2.224c8.635 42.109 45.387 73.332 89.433 73.332 50.368 0 91.2-40.832 91.2-91.2 0-7.484-0.901-14.757-2.602-21.717l0.129 0.625h0.16c-44.332-191.147-191.6-339.083-378.931-383.703l-3.469-0.697v0.16c-6.91-1.881-14.843-2.961-23.030-2.961-0.144 0-0.289 0-0.433 0.001h0.022z" />
<glyph unicode="&#xe002;" glyph-name="coffee-pot" d="M856 546c104-80.141 168-203.72 168-339.36-0.039-102.961-37.42-169.541-99.42-235.442-20.787-21.705-50.045-35.199-82.441-35.199h-531.799c-0.133 0-0.26-0.029-0.393-0.029-32.494 0-61.84 13.58-82.668 35.369-62.039 65.881-99.279 132.48-99.279 235.42 0 136.92 65.84 258.8 168.381 338.18l-69.461 191.061h-50.92c-44.152 0-80-35.848-80-80v-176c0-17.662-14.338-32-32-32h-32c-17.662 0-32 14.338-32 32v176c0 97.137 78.863 176 176 176h784zM822.94 736h-493.878l58.18-160h377.52zM228.18 256h695.64c-13.68 91.539-65.18 171.74-139.68 224h-411.72c-75.84-52.18-130.020-131.561-144.24-224z" />
<glyph unicode="&#xe029;" glyph-name="sensor-alert" horiz-adv-x="1280" d="M1266.18 89.26c39.301-68.119-9.879-153.26-88.539-153.26h-563.282c-78.66 0-127.84 85.141-88.539 153.279l281.66 488.282c39.32 68.199 137.74 68.199 177.059 0zM896 32c26.492 0 48 21.508 48 48s-21.508 48-48 48-48-21.508-48-48 21.508-48 48-48zM934.16 197.6l19.199 192c0.080 0.797 0.121 1.582 0.121 2.4 0 13.246-10.754 24-24 24h-66.941c-13.244 0-24-10.73-24-23.977 0-0.816 0.041-1.627 0.121-2.424l19.18-192c1.217-12.109 11.451-21.6 23.879-21.6h28.56c12.428 0 22.664 9.49 23.881 21.6zM352 592c0 26.492 21.508 48 48 48s48-21.508 48-48v-224c0-26.492-21.508-48-48-48s-48 21.508-48 48v224zM448.7 32c0.873-27.826 8.742-54.191 21.74-76.92 4.1-7.080 9.641-12.779 14.58-19.080h-357.020c-70.645 0-128 57.355-128 128v640c0 70.645 57.355 128 128 128h640c70.645 0 128-57.355 128-128v-11.301c-35.68 0-68.4-12.039-96-31.84v43.141c0 17.662-14.338 32-32 32h-640c-17.662 0-32-14.338-32-32v-640c0-17.662 14.338-32 32-32h320.7zM192 592c0 26.492 21.508 48 48 48s48-21.508 48-48v-224c0-26.492-21.508-48-48-48s-48 21.508-48 48v224z" />
<glyph unicode="&#xe030;" glyph-name="sort-circle" d="M701.76 842.12c253.020-104.799 373.16-394.86 268.36-647.878-79.1-190.961-263.718-306.24-458.318-306.24-67.018 0.031-131.266 13.645-189.561 37.881-253.020 104.799-373.16 394.86-268.36 647.878 79.1 190.961 263.718 306.24 458.318 306.24 67.018-0.031 131.266-13.645 189.561-37.881zM881.44 230.98c84.361 203.7-12.699 438.080-216.42 522.458-47.125 19.574-98.885 30.818-153.059 30.818-166.584 0-309.49-102.186-369.4-247.238-84.381-203.7 12.719-438.080 216.42-522.458 47.125-19.574 98.885-30.818 153.059-30.818 166.584 0 309.49 102.186 369.4 247.238zM329.5 448c-32.801 0-49.18 39.699-26 62.82l182.5 182.359c6.637 6.691 15.844 10.838 26.004 10.838s19.359-4.146 25.996-10.838l182.221-182.359c23.18-23.121 6.799-62.82-26-62.82h-364.72zM694.22 320c32.818 0 49.18-39.699 26.139-62.82l-182.359-182.359c-6.637-6.691-15.844-10.838-26.004-10.838s-19.359 4.146-25.996 10.838l-182.5 182.359c-23.18 23.121-6.801 62.82 26 62.82h364.72z" />
<glyph unicode="&#xe06f;" glyph-name="stopwatch" horiz-adv-x="896" d="M550.7 481.6c58.881 0 89.301-36.219 89.301-98.080v-171.219c0-56.301-19.699-101.9-91.68-101.82-69.721 0-87.621 47.219-87.621 101.52v168.439c0 65.16 31.42 101.16 90 101.16zM571.020 204.8v185.479c0 18.021-4.82 30.941-20.82 30.941-15.080 0-21.18-12-21.18-32v-185.461c0-20.959 5.781-32.959 21.18-32.959s20.82 12.818 20.82 34zM435.2 384c0-56.98-19.92-82-54.939-130.080-18.5-24.16-39.379-57-42.26-82h78.561c0.068 0.002 0.133-0.002 0.201-0.002 7.168 0 13-5.76 13.119-12.898v-35.719c-0.119-7.139-5.949-12.902-13.115-12.902-0.068 0-0.137 0-0.205 0.002h-132.561c-0.098-0.002-0.191-0.025-0.291-0.025-14.525 0-26.32 11.793-26.32 26.32 0 0.654 0.023 1.303 0.072 1.945 4.439 56.359 23.52 91.859 61.52 146.199 32.66 46.699 43.359 59.74 43.359 99.74 0 27.080-2.859 38.84-19.561 38.84-15 0-20.279-11.84-20.279-36.279v-8.381c-0.119-7.15-5.957-12.922-13.135-12.922-0.068 0-0.137 0.002-0.205 0.002h-39.84c-0.068 0-0.133 0.002-0.201 0.002-7.174 0-13.012 5.77-13.119 12.918v6.52c0 43.682 13.561 96.381 90.279 96.381 68.781 0 88.92-41.359 88.92-97.66zM787.82 528c47.832-67.52 76.18-150.342 76.18-239.306v-0.693c0-229.82-186.18-416-416-416s-416 186.18-416 416c0 213.6 160.82 389.4 368 413.18v98.82h-56c-13.246 0-24 10.754-24 24v48c0 13.246 10.754 24 24 24h208c13.246 0 24-10.754 24-24v-48c0-13.246-10.754-24-24-24h-56v-98.6c86.59-9.857 165.705-46.611 227.6-101.58l41.4 41.359c4.346 4.361 10.365 7.063 17.004 7.063 6.637 0 12.65-2.701 16.996-7.063l34-34c4.361-4.346 7.063-10.365 7.063-17.002 0-6.639-2.701-12.65-7.063-16.998zM448-32c0.041 0 0.080-0.002 0.119-0.002 176.547 0 319.88 143.332 319.88 319.878v0.123c0 176.613-143.387 320-320 320s-320-143.387-320-320 143.387-320 320-320z" />
<glyph unicode="&#xf002;" glyph-name="search" d="M1017-41.801c9.4-9.398 9.4-24.6 0-34l-45.199-45.199c-9.4-9.4-24.602-9.4-34 0l-242.8 242.8c-4.4 4.6-7 10.6-7 17v26.398c-73-63-168-101.199-272-101.199-229.8 0-416 186.199-416 416s186.199 416 416 416 416-186.199 416-416c0-104-38.199-199-101.199-272h26.398c6.4 0 12.4-2.4 17-7zM416 160c176.801 0 320 143.199 320 320s-143.199 320-320 320-320-143.199-320-320 143.199-320 320-320z" />
<glyph unicode="&#xf004;" glyph-name="heart" d="M916.8 767.4c150.6-126.801 128.199-333.202 21.199-442.6l-350.8-357.4c-20-20.4-46.6-31.6-75.199-31.6-28.4 0-55.199 11.398-75.199 31.799l-350.8 357.4c-107.199 109.4-129.199 315.8 21.199 442.4 115.602 97.4 294.202 82.6 404.8-30 110.6 112.6 289.2 127.199 404.8 30zM869.6 392.4c72.4 73.799 87.6 215.4-14.6 301.6-77.4 65.199-197.4 55.801-273-21.199l-70-71.4-70 71.4c-75.199 76.6-195.199 86.398-273 21-102.4-86.201-87.6-227-14.6-301.4l350.798-357.4c4.801-4.801 8.801-4.801 13.602 0z" />
<glyph unicode="&#xf006;" glyph-name="star" horiz-adv-x="1152" d="M1056.2 553c52.4-7.6 73.4-72.199 35.4-109.199l-211.4-206 50-291c9-52.602-46.398-91.801-92.799-67.4l-261.4 137.4-261.4-137.4c-46.4-24.6-101.799 14.799-92.799 67.4l50 291-211.4 206c-38 37-17 101.6 35.4 109.199l292.2 42.6 130.6 264.8c23.6 47.799 91.4 47.199 114.801 0l130.6-264.8zM777.2 271.4l201.202 196-278 40.4-124.4 252-124.4-252-278-40.4 201.202-196-47.4-276.8 248.6 130.6 248.6-130.6z" />
<glyph unicode="&#xf00b;" glyph-name="th-list" d="M0 736c0 53.020 42.98 96 96 96h832c53.020 0 96-42.98 96-96v-704c0-53.020-42.98-96-96-96h-832c-53.020 0-96 42.98-96 96v704zM944 288v192h-549.334v-192h549.334zM944 208h-549.334v-192h525.334c13.254 0 24 10.746 24 24v168zM80 480v-192h234.666v192h-234.666zM394.666 560h549.334v168c0 13.254-10.746 24-24 24h-525.334v-192zM314.666 752h-210.666c-13.254 0-24-10.746-24-24v-168h234.666v192zM80 208v-168c0-13.254 10.746-24 24-24h210.666v192h-234.666z" />
<glyph unicode="&#xf00c;" glyph-name="check" d="M871.696 729.068c9.373 9.371 24.568 9.371 33.941 0l56.566-56.568c9.373-9.373 9.373-24.57 0-33.941l-599.624-599.626c-9.375-9.371-24.57-9.371-33.941 0l-266.842 266.842c-9.373 9.375-9.373 24.57 0 33.943l56.566 56.566c9.375 9.373 24.57 9.373 33.943 0l193.303-193.303z" />
<glyph unicode="&#xf00d;" glyph-name="times" horiz-adv-x="640" d="M415.2 384l215.46-215.42c12.459-12.48 12.459-32.699 0-45.16l-50.061-50.061c-12.48-12.459-32.699-12.459-45.16 0l-215.44 215.442-215.42-215.46c-12.48-12.459-32.699-12.459-45.16 0l-50.061 50.061c-12.459 12.48-12.459 32.699 0 45.16l215.442 215.44-215.442 215.44c-12.459 12.48-12.459 32.701 0 45.16l50.041 50.041c12.48 12.459 32.699 12.459 45.16 0l215.44-215.442 215.42 215.46c12.48 12.459 32.699 12.459 45.16 0l50.061-50.061c12.459-12.48 12.459-32.699 0-45.16z" />
<glyph unicode="&#xf013;" glyph-name="cog" d="M905.030 422c2.441-25.301 2.441-50.699 0-76l63.688-36.764c18.852-10.883 27.99-33.084 22.354-54.107-22.809-85.062-67.684-161.096-128.117-221.596-15.359-15.375-39.148-18.49-57.969-7.621l-63.57 36.717c-17.139-12.266-46.617-29.307-65.799-38.039v-73.506c0-21.77-14.648-40.816-35.688-46.412-83.625-22.242-172.338-22.211-255.86 0.002-19.695 5.24-35.682 26.031-35.684 46.412v73.506c-19.182 8.732-48.66 25.773-65.799 38.039l-63.57-36.717c-18.82-10.869-42.609-7.754-57.969 7.621-60.434 60.5-105.309 136.533-128.117 221.596-5.637 21.023 3.502 43.225 22.354 54.107l63.688 36.764c-1.012 10.463-1.83 27.486-1.83 38 0 10.512 0.818 27.535 1.83 37.998l-63.688 36.766c-18.852 10.883-27.99 33.084-22.354 54.107 22.809 85.064 67.684 161.096 128.117 221.596 15.359 15.375 39.148 18.492 57.969 7.621l63.57-36.717c17.139 12.266 46.617 29.309 65.799 38.041v73.506c0 21.77 14.648 40.816 35.688 46.412 83.625 22.24 172.338 22.213 255.86-0.002 19.695-5.24 35.682-26.031 35.684-46.412v-73.506c19.182-8.732 48.66-25.775 65.799-38.041l63.57 36.717c18.82 10.869 42.609 7.754 57.969-7.621 60.434-60.5 105.309-136.533 128.117-221.596 5.637-21.023-3.502-43.225-22.354-54.107zM799.672 295.962c15.268 82.637 15.262 93.473 0 176.072l87.639 50.578c-13.148 35.512-43.477 87.953-67.699 117.059l-87.658-50.617c-63.943 54.773-73.326 60.158-152.336 88.057v101.199c-18.527 3.162-48.82 5.729-67.617 5.729s-49.090-2.566-67.617-5.729v-101.197c-79.018-27.9-88.369-33.264-152.336-88.057l-87.658 50.617c-29.078-34.959-51.998-74.6-67.699-117.059l87.639-50.578c-15.268-82.637-15.26-93.477 0-176.074l-87.639-50.578c13.148-35.51 43.479-87.951 67.699-117.057l87.658 50.617c63.943-54.773 73.326-60.158 152.336-88.057v-101.199c18.527-3.162 48.82-5.729 67.617-5.729s49.090 2.566 67.617 5.729v101.199c79.020 27.904 88.369 33.264 152.336 88.057l87.658-50.617c24.223 29.105 54.551 81.547 67.699 117.057zM512 576c105.869 0 192-86.131 192-192s-86.131-192-192-192-192 86.131-192 192 86.131 192 192 192zM512 288c52.936 0 96 43.064 96 96 0 52.934-43.064 96-96 96s-96-43.066-96-96c0-52.936 43.064-96 96-96z" />
<glyph unicode="&#xf015;" glyph-name="home" horiz-adv-x="1152" d="M1140.48 401.18c7.078-5.871 11.561-14.742 11.561-24.648 0-7.813-2.805-14.973-7.461-20.531l-20.461-24.58c-5.871-7.010-14.699-11.443-24.551-11.443-7.801 0-14.953 2.797-20.508 7.443l-55.061 45.24v-373.14c-0.34-35.062-28.875-63.445-64-63.52h-256c-35.277 0.1-63.9 28.723-64 64v208h-128v-208c-0.1-35.277-28.723-63.9-64-64h-256c-35.277 0.1-63.9 28.723-64 64v372.62l-54.939-45.119c-5.557-4.646-12.719-7.471-20.52-7.471-9.852 0-18.67 4.461-24.541 11.471l-20.48 24.6c-4.65 5.557-7.48 12.725-7.48 20.531 0 9.855 4.465 18.678 11.48 24.549l492.74 404.82c19.438 16.184 44.564 25.922 71.809 25.922s52.234-9.738 71.672-25.922l280.36-230.2v112.439c0.131 8.686 7.197 15.707 15.9 15.76h64c8.83 0 16-7.17 16-16v-191.039zM927.7 32l0.301 419.58-352 289.12-352-289.238v-419.46h192v208c0.1 35.277 28.723 63.9 64 64h192c35.277-0.1 63.9-28.723 64-64v-208h191.699z" />
<glyph unicode="&#xf017;" glyph-name="clock" d="M512 880c274 0 496-222 496-496s-222-496-496-496-496 222-496 496 222 496 496 496zM512-16c221 0 400 179 400 400s-179 400-400 400-400-179-400-400 179-400 400-400zM635.6 192.801l-169.799 123.398c-6.201 4.602-9.801 11.801-9.801 19.4v328.4c0 13.199 10.801 24 24 24h64c13.199 0 24-10.801 24-24v-283.4l133.6-97.199c10.801-7.801 13-22.801 5.201-33.6l-37.602-51.801c-7.799-10.6-22.799-13-33.6-5.199z" />
<glyph unicode="&#xf019;" glyph-name="download" horiz-adv-x="1152" d="M1056 320c53 0 96-43 96-96v-256c0-53-43-96-96-96h-960c-53 0-96 43-96 96v256c0 53 43 96 96 96h184.6l-92.199 92.199c-60.6 60.4-17.4 163.801 67.799 163.801h128v224c0 53 43 96 96 96h192c53 0 96-43 96-96v-224h128c85.4 0 128-103.6 67.801-163.801l-92.199-92.199h184.199zM256 480l320-320 320 320h-224v320h-192v-320h-224zM1056-32v256h-280.4l-131.799-131.801c-37.602-37.398-98.201-37.6-135.801 0l-131.801 131.801h-280.2v-256h960zM880 96c0 26.6 21.4 48 48 48s48-21.4 48-48-21.4-48-48-48-48 21.4-48 48z" />
<glyph unicode="&#xf03e;" glyph-name="image" d="M928 768c53.020 0 96-42.98 96-96v-576c0-53.020-42.98-96-96-96h-832c-53.020 0-96 42.98-96 96v576c0 53.020 42.98 96 96 96h832zM916 96c6.623 0 12 5.377 12 12v552c0 6.623-5.377 12-12 12h-808c-6.623 0-12-5.377-12-12v-552c0-6.623 5.377-12 12-12h808zM256 592c44.182 0 80-35.818 80-80s-35.818-80-80-80-80 35.818-80 80 35.818 80 80 80zM192 192v96l79.027 79.029c9.375 9.373 24.57 9.373 33.943 0l79.029-79.029 239.028 239.030c9.375 9.373 24.57 9.373 33.943 0l175.029-175.029v-160h-640z" />
<glyph unicode="&#xf04b;" glyph-name="play" horiz-adv-x="896" d="M848.8 466.6c63-37 62.799-128.199 0-165.199l-704-416c-63.4-37.6-144.801 7.6-144.801 82.6v832.2c0 83.602 87.6 116.4 144.801 82.602z" />
<glyph unicode="&#xf055;" glyph-name="plus-circle" d="M768 416v-64c0-13.199-10.801-24-24-24h-176v-176c0-13.199-10.801-24-24-24h-64c-13.199 0-24 10.801-24 24v176h-176c-13.199 0-24 10.801-24 24v64c0 13.199 10.801 24 24 24h176v176c0 13.199 10.801 24 24 24h64c13.199 0 24-10.801 24-24v-176h176c13.199 0 24-10.801 24-24zM1008 384c0-274-222-496-496-496s-496 222-496 496 222 496 496 496 496-222 496-496zM912 384c0 221-179 400-400 400s-400-179-400-400 179-400 400-400 400 179 400 400z" />
<glyph unicode="&#xf057;" glyph-name="times-circle" d="M512 880c274 0 496-222 496-496s-222-496-496-496-496 222-496 496 222 496 496 496zM512-16c221 0 400 179 400 400s-179 400-400 400-400-179-400-400 179-400 400-400zM715.6 508.4l-124.4-124.4 124.4-124.4c9.4-9.4 9.4-24.6 0-34l-45.199-45.199c-9.4-9.4-24.6-9.4-34 0l-124.4 124.4-124.4-124.4c-9.4-9.4-24.6-9.4-34 0l-45.199 45.199c-9.4 9.4-9.4 24.6 0 34l124.4 124.4-124.4 124.4c-9.4 9.4-9.4 24.6 0 34l45.199 45.199c9.4 9.4 24.6 9.4 34 0l124.4-124.4 124.4 124.4c9.4 9.4 24.6 9.4 34 0l45.199-45.199c9.4-9.4 9.4-24.6 0-34z" />
<glyph unicode="&#xf058;" glyph-name="check-circle" d="M512 880c273.934 0 496-222.066 496-496s-222.066-496-496-496-496 222.066-496 496 222.066 496 496 496zM512 784c-221.098 0-400-178.936-400-400 0-221.098 178.936-400 400-400 221.098 0 400 178.936 400 400 0 221.098-178.936 400-400 400zM792.408 523.466c9.334-9.41 9.273-24.607-0.135-33.943l-345.178-342.408c-9.41-9.336-24.605-9.273-33.939 0.137l-181.562 183.031c-9.336 9.412-9.273 24.609 0.137 33.943l45.438 45.072c9.41 9.334 24.605 9.271 33.939-0.139l119.584-120.555 282.706 280.432c9.41 9.336 24.605 9.275 33.939-0.135z" />
<glyph unicode="&#xf059;" glyph-name="question-circle" d="M512 880c273.914 0 496-222.166 496-496 0-273.994-222.086-496-496-496s-496 222.006-496 496c0 273.834 222.086 496 496 496zM512-16c221.138 0 400 178.939 400 400 0 221.058-179.018 400-400 400-221.056 0-400-179.010-400-400 0-221.138 178.936-400 400-400zM726.488 494.4c0-134.104-144.842-136.168-144.842-185.727v-12.674c0-13.254-10.746-24-24-24h-91.295c-13.254 0-24 10.746-24 24v17.318c0 71.49 54.201 100.068 95.158 123.031 35.123 19.689 56.648 33.082 56.648 59.158 0 34.492-43.998 57.387-79.568 57.387-46.377 0-67.787-21.955-97.885-59.939-8.113-10.238-22.92-12.141-33.332-4.248l-55.646 42.197c-10.215 7.744-12.502 22.131-5.289 32.727 47.254 69.387 107.443 108.369 201.15 108.369 98.143 0 202.9-76.607 202.9-177.6zM596 160c0-46.318-37.682-84-84-84s-84 37.682-84 84 37.682 84 84 84 84-37.682 84-84z" />
<glyph unicode="&#xf05a;" glyph-name="info-circle" d="M512 880c273.914 0 496-222.166 496-496 0-273.994-222.086-496-496-496s-496 222.006-496 496c0 273.834 222.086 496 496 496zM512-16c221.138 0 400 178.939 400 400 0 221.058-179.018 400-400 400-221.056 0-400-179.010-400-400 0-221.138 178.936-400 400-400zM512 660c46.393 0 84-37.607 84-84s-37.607-84-84-84-84 37.607-84 84 37.607 84 84 84zM624 152c0-13.254-10.746-24-24-24h-176c-13.254 0-24 10.746-24 24v48c0 13.254 10.746 24 24 24h24v128h-24c-13.254 0-24 10.746-24 24v48c0 13.254 10.746 24 24 24h128c13.254 0 24-10.746 24-24v-200h24c13.254 0 24-10.746 24-24v-48z" />
<glyph unicode="&#xf067;" glyph-name="plus" horiz-adv-x="768" d="M736 448c17.68 0 32-14.32 32-32v-64c0-17.68-14.32-32-32-32h-288v-288c0-17.68-14.32-32-32-32h-64c-17.68 0-32 14.32-32 32v288h-288c-17.68 0-32 14.32-32 32v64c0 17.68 14.32 32 32 32h288v288c0 17.68 14.32 32 32 32h64c17.68 0 32-14.32 32-32v-288h288z" />
<glyph unicode="&#xf069;" glyph-name="asterisk" d="M958.62 181.568c11.479-6.627 15.412-21.307 8.785-32.785l-24-41.566c-6.629-11.479-21.305-15.412-32.785-8.785l-350.62 202.43v-404.862c0-13.254-10.746-24-24-24h-48c-13.254 0-24 10.746-24 24v404.862l-350.62-202.43c-11.479-6.627-26.156-2.693-32.785 8.785l-24 41.566c-6.627 11.479-2.695 26.156 8.785 32.785l350.62 202.432-350.62 202.432c-11.479 6.627-15.412 21.305-8.785 32.785l24 41.568c6.627 11.479 21.305 15.412 32.785 8.785l350.62-202.432v404.862c0 13.254 10.746 24 24 24h48c13.254 0 24-10.746 24-24v-404.862l350.618 202.43c11.479 6.627 26.156 2.695 32.785-8.785l24-41.568c6.627-11.479 2.695-26.156-8.785-32.785l-350.62-202.43z" />
<glyph unicode="&#xf06a;" glyph-name="exclamation-circle" d="M512 880c273.914 0 496-222.166 496-496 0-273.994-222.086-496-496-496s-496 222.006-496 496c0 273.834 222.086 496 496 496zM512-16c221.138 0 400 178.939 400 400 0 221.058-179.018 400-400 400-221.056 0-400-179.010-400-400 0-221.138 178.936-400 400-400zM596 192c0-46.318-37.682-84-84-84s-84 37.682-84 84 37.682 84 84 84 84-37.682 84-84zM433.26 614.802c-0.686 13.707 10.244 25.197 23.971 25.197h109.539c13.727 0 24.656-11.49 23.971-25.197l-13.6-272c-0.639-12.775-11.184-22.803-23.971-22.803h-82.34c-12.787 0-23.332 10.027-23.971 22.803z" />
<glyph unicode="&#xf06e;" glyph-name="eye" horiz-adv-x="1152" d="M576 608c0.186 0 0.488 0.002 0.674 0.002 123.328 0 223.42-100.094 223.42-223.422 0-123.326-100.092-223.42-223.42-223.42s-223.42 100.094-223.42 223.42c0 17.426 3.918 45.156 8.746 61.9 13.861-7.883 38.055-14.369 54-14.48 61.824 0 112 50.176 112 112-0.111 15.945-6.598 40.139-14.48 54 16.848 5.244 44.838 9.725 62.48 10zM1145.040 413.2c3.842-7.598 6.959-20.676 6.959-29.189s-3.117-21.592-6.959-29.189c-108.398-211.542-323.18-354.82-569.040-354.82s-460.58 143.18-569.040 354.8c-3.842 7.598-6.959 20.676-6.959 29.189s3.117 21.592 6.959 29.189c108.398 211.542 323.18 354.82 569.040 354.82s460.58-143.18 569.040-354.8zM576 96c197.32 0 378.2 110 475.86 288-97.68 178-278.54 288-475.86 288s-378.18-110-475.86-288c97.68-178 278.558-288 475.86-288z" />
<glyph unicode="&#xf070;" glyph-name="eye-slash" horiz-adv-x="1280" d="M1268-46c6.635-5.303 12.020-16.502 12.020-24.996 0-6.209-3.154-15.18-7.039-20.023l-20-24.98c-5.305-6.623-16.494-12-24.98-12-6.199 0-15.16 3.145-20 7.020l-1196 934.98c-6.635 5.303-12.020 16.502-12.020 24.996 0 6.209 3.154 15.18 7.039 20.023l20 24.98c5.305 6.623 16.494 12 24.98 12 6.199 0 15.16-3.145 20-7.020zM593.58 603.060c12.67 2.701 33.465 4.916 46.42 4.939 120.961 0 218.72-95.82 223.16-215.7zM686.42 164.92c-12.67-2.688-33.467-4.893-46.42-4.92-120.939 0-218.7 95.82-223.16 215.68zM640 672c-39.76 0-78.561-5.6-116.439-14.199l-92.82 72.58c65.84 23.619 135.859 37.619 209.26 37.619 245.86 0 460.58-143.18 569.14-354.8 3.84-7.598 6.959-20.676 6.959-29.189s-3.119-21.592-6.959-29.189c-23.439-45.52-70.838-112.818-105.801-150.221l-75.48 59c28.666 30.031 68.090 83.971 88 120.4-97.68 178-278.558 288-475.86 288zM640 96c39.779 0 78.561 5.6 116.439 14.18l92.82-72.561c-65.84-23.52-135.859-37.619-209.26-37.619-245.84 0-460.56 143.18-569.020 354.8-3.842 7.598-6.959 20.676-6.959 29.189s3.117 21.592 6.959 29.189c23.434 45.514 70.822 112.803 105.779 150.201l75.48-59c-28.693-30.021-68.162-83.951-88.1-120.381 97.699-178 278.558-288 475.86-288z" />
<glyph unicode="&#xf071;" glyph-name="exclamation-triangle" horiz-adv-x="1152" d="M497.494 486.59c-0.811 13.787 10.15 25.41 23.955 25.41h109.096c13.807 0 24.768-11.623 23.957-25.41l-13.176-224c-0.734-12.469-11.467-22.59-23.959-22.59h-82.738c-12.707 0-23.213 9.904-23.959 22.59zM660 128c0-46.393-37.607-84-84-84s-84 37.607-84 84 37.607 84 84 84 84-37.607 84-84zM659.154 848.030l479.878-832.054c36.916-63.988-9.424-143.975-83.152-143.975h-959.774c-73.871 0-119.998 80.107-83.154 143.975l479.892 832.054c36.934 64.020 129.441 63.902 166.309 0zM106.383-14.004c-4.615-8 1.16-17.996 10.393-17.994h918.45c9.236 0 15.010 9.996 10.393 17.996l-459.222 795.986c-4.619 8.004-16.17 8.004-20.789 0z" />
<glyph unicode="&#xf073;" glyph-name="calendar" horiz-adv-x="896" d="M296 320h-80c-13.199 0-24 10.801-24 24v80c0 13.199 10.801 24 24 24h80c13.199 0 24-10.801 24-24v-80c0-13.199-10.801-24-24-24zM512 344c0-13.199-10.801-24-24-24h-80c-13.199 0-24 10.801-24 24v80c0 13.199 10.801 24 24 24h80c13.199 0 24-10.801 24-24v-80zM704 344c0-13.199-10.801-24-24-24h-80c-13.199 0-24 10.801-24 24v80c0 13.199 10.801 24 24 24h80c13.199 0 24-10.801 24-24v-80zM512 152c0-13.199-10.801-24-24-24h-80c-13.199 0-24 10.801-24 24v80c0 13.199 10.801 24 24 24h80c13.199 0 24-10.801 24-24v-80zM320 152c0-13.199-10.801-24-24-24h-80c-13.199 0-24 10.801-24 24v80c0 13.199 10.801 24 24 24h80c13.199 0 24-10.801 24-24v-80zM704 152c0-13.199-10.801-24-24-24h-80c-13.199 0-24 10.801-24 24v80c0 13.199 10.801 24 24 24h80c13.199 0 24-10.801 24-24v-80zM896 672v-704c0-53-43-96-96-96h-704c-53 0-96 43-96 96v704c0 53 43 96 96 96h96v104c0 13.199 10.801 24 24 24h80c13.199 0 24-10.801 24-24v-104h256v104c0 13.199 10.801 24 24 24h80c13.199 0 24-10.801 24-24v-104h96c53 0 96-43 96-96zM800-20v596h-704v-596c0-6.6 5.4-12 12-12h680c6.6 0 12 5.4 12 12z" />
<glyph unicode="&#xf085;" glyph-name="cogs" horiz-adv-x="1280" d="M434.2-60.199c-47.6 0-83.199 7-115 15-21.199 5.398-36.199 24.6-36.199 46.6v63.4c-18.801 8.799-36.801 19.199-53.801 31.199l-53.398-30.801c-19.201-11.199-43.801-7.6-59 8.602-70.801 75.199-88.4 117.199-114.4 197-7.201 21.799 2.199 45.398 22 56.799l53.6 30c-1.801 20.6-1.801 41.4 0 62.201l-53.6 30.199c-20 11.199-29.201 35-22 56.801 26.199 80 43.799 121.799 114.4 197 15.199 16.199 39.6 19.799 59 8.6l53.398-30.801c17 12 35 22.4 53.801 31.201v60.398c0 22.201 15.199 41.602 36.801 46.602 88.398 21 140 21 228.6 0 21.6-5.201 36.799-24.4 36.799-46.602v-60.799c18.801-8.801 36.801-19.201 53.801-31.201l53.4 30.801c19.4 11.199 43.799 7.4 59.199-8.801 52.201-55.799 96.801-117 113.6-200.6 4-19.6-4.799-39.6-21.799-50.199l-53.201-33c1.801-20.6 1.801-41.4 0-62.201l53.201-33c16.799-10.398 25.799-30.398 21.799-49.799-16.199-81-59.199-142.6-113.799-201.202-15.201-16.199-39.6-19.799-59-8.6l-53.4 30.801c-17-12-35-22.4-53.801-31.201v-63.398c0-22-14.799-41.201-36.199-46.602-31.6-7.6-67.199-14.398-114.801-14.398zM379 41.199c36.6-5.799 73.801-5.799 110.199 0v89.602l32 11.398c30.4 10.801 58.201 26.801 82.602 47.801l25.799 22 77.6-44.801c23.4 28.801 42 61 55.201 95.4l-77.6 44.801 6.199 33.4c5.801 31.799 5.801 64 0 95.799l-6.199 33.4 77.6 44.801c-13.201 34.398-31.801 66.6-55.201 95.398l-77.6-44.799-25.799 22c-24.602 21-52.4 37.199-82.602 47.799l-32 11.4v89.4c-36.6 5.801-73.799 5.801-110.199 0v-89.6l-32-11.4c-30.4-10.801-58.199-26.801-82.6-47.801l-25.801-22-77.6 44.801c-23.4-28.801-42-61-55.199-95.4l77.6-44.799-6.201-33.4c-5.799-31.801-5.799-64 0-95.801l6.201-33.4-77.6-44.799c13.199-34.4 31.799-66.801 55.199-95.4l77.6 44.801 25.801-22c24.6-21 52.4-37.201 82.6-47.801l32-11.4v-89.4zM433.2 211.4c-45.199 0-90.398 17.199-124.799 51.6-68.801 68.801-68.801 180.801 0 249.6 68.799 68.801 180.799 68.801 249.6 0 68.801-68.799 68.801-180.799 0-249.6-34.6-34.4-79.801-51.6-124.801-51.6zM433.2 468.2c-20.6 0-41.199-7.799-57-23.6-31.398-31.4-31.398-82.4 0-113.799 31.4-31.4 82.4-31.4 113.801 0 31.4 31.398 31.4 82.398 0 113.799-15.6 15.801-36.199 23.6-56.801 23.6zM1277 726c4-23.6 4-48 0.199-72.4-1.799-11.799-12-20.4-23.799-20.4h-32.201c-7-19.799-17.6-38-31-53.6l16-27.799c6-10.201 3.602-23.201-5.398-30.602-18.602-15.398-39.801-27.799-62.801-36.398-11-4-23.4 0.398-29.4 10.6l-16 27.799c-20.4-3.799-41.4-3.799-61.799 0l-16-27.799c-5.801-10.4-18.4-14.801-29.4-10.6-23 8.6-44.201 21-62.801 36.398-9 7.4-11.199 20.4-5.4 30.602l16 27.799c-13.398 15.6-24 33.801-31 53.6h-32.199c-11.801 0-21.801 8.4-23.801 20-3.799 23.4-4 48 0 72.4 1.801 11.801 12 20.4 23.801 20.4h32.199c7 19.801 17.602 38 31 53.6l-16 27.801c-6 10.199-3.6 23.199 5.4 30.6 18.6 15.4 39.801 27.801 62.801 36.4 11 4 23.4-0.4 29.4-10.6l16-27.801c20.398 3.801 41.398 3.801 61.799 0l16 27.801c5.801 10.398 18.4 14.799 29.4 10.6 23-8.6 44-21 62.6-36.4 9-7.4 11.201-20.4 5.4-30.6l-16-27.801c13.4-15.6 24-33.799 31-53.6h32.199c11.801 0 21.801-8.4 23.801-20zM1061.4 625.6c35.4 0 64 28.6 64 64s-28.6 64-64 64-64-28.6-64-64 28.6-64 64-64zM1277 114.801c4-23.602 4-48.201 0-72.4-1.801-11.801-12-20.4-23.801-20.4h-32.199c-7-19.801-17.6-38-31-53.6l16-27.801c6-10.199 3.6-23.199-5.4-30.6-18.6-15.4-39.799-27.801-62.799-36.4-11-4-23.4 0.4-29.4 10.6l-16 27.801c-20.4-3.801-41.4-3.801-61.801 0l-16-27.801c-5.799-10.398-18.4-14.799-29.4-10.6-23 8.6-44.199 21-62.799 36.4-9 7.4-11.201 20.4-5.4 30.6l16 27.801c-13.4 15.6-24 33.799-31 53.6h-32.199c-11.801 0-21.801 8.4-23.801 20-3.801 23.4-4 48 0 72.4 1.801 11.799 12 20.4 23.801 20.4h32.199c7 19.799 17.6 38 31 53.6l-16 27.799c-6 10.201-3.6 23.201 5.4 30.602 18.6 15.398 39.799 27.799 62.799 36.398 11 4 23.4-0.398 29.4-10.6l16-27.799c20.4 3.799 41.4 3.799 61.801 0l16 27.799c5.799 10.4 18.4 14.801 29.4 10.6 23-8.6 44.199-21 62.799-36.398 9-7.4 11.201-20.4 5.4-30.602l-16-27.799c13.4-15.6 24-33.801 31-53.6h32.199c11.801 0 21.801-8.4 23.801-20zM1061.4 14.4c35.4 0 64 28.6 64 64s-28.6 64-64 64-64-28.6-64-64 28.6-64 64-64z" />
<glyph unicode="&#xf0a8;" glyph-name="arrow-circle-left" d="M1008 384c0-274-222-496-496-496s-496 222-496 496 222 496 496 496 496-222 496-496zM112 384c0-221 179-400 400-400s400 179 400 400-179 400-400 400-400-179-400-400zM490.2 124.199l-242.798 242.8c-9.4 9.4-9.4 24.6 0 34l242.798 242.8c9.4 9.398 24.602 9.398 34 0l39.201-39.201c9.6-9.6 9.4-25-0.4-34.4l-140.6-134.199h321.6c13.199 0 24-10.801 24-24v-56c0-13.199-10.801-24-24-24h-321.6l140.6-134.199c9.801-9.4 10-24.801 0.4-34.4l-39.201-39.201c-9.398-9.398-24.6-9.398-34 0z" />
<glyph unicode="&#xf0a9;" glyph-name="arrow-circle-right" d="M16 384c0 274 222 496 496 496s496-222 496-496-222-496-496-496-496 222-496 496zM912 384c0 221-179 400-400 400s-400-179-400-400 179-400 400-400 400 179 400 400zM533.8 643.8l242.798-242.8c9.4-9.4 9.4-24.6 0-34l-242.798-242.8c-9.4-9.398-24.602-9.398-34 0l-39.201 39.201c-9.6 9.6-9.4 25 0.4 34.4l140.6 134.199h-321.6c-13.199 0-24 10.801-24 24v56c0 13.199 10.801 24 24 24h321.6l-140.6 134.199c-9.801 9.4-10 24.801-0.4 34.4l39.201 39.201c9.398 9.398 24.6 9.398 34 0z" />
<glyph unicode="&#xf0aa;" glyph-name="arrow-circle-up" d="M512-112c-274 0-496 222-496 496s222 496 496 496 496-222 496-496-222-496-496-496zM512 784c-221 0-400-179-400-400s179-400 400-400 400 179 400 400-179 400-400 400zM252.2 405.8l242.8 242.798c9.4 9.4 24.6 9.4 34 0l242.8-242.798c9.398-9.4 9.398-24.602 0-34l-39.201-39.201c-9.6-9.6-25-9.4-34.4 0.4l-134.199 140.6v-321.6c0-13.199-10.801-24-24-24h-56c-13.199 0-24 10.801-24 24v321.6l-134.199-140.6c-9.4-9.801-24.801-10-34.4-0.4l-39.201 39.201c-9.398 9.398-9.398 24.6 0 34z" />
<glyph unicode="&#xf0ab;" glyph-name="arrow-circle-down" d="M512 880c274 0 496-222 496-496s-222-496-496-496-496 222-496 496 222 496 496 496zM512-16c221 0 400 179 400 400s-179 400-400 400-400-179-400-400 179-400 400-400zM771.8 396.2c9.398-9.398 9.398-24.6 0-34l-242.8-242.798c-9.4-9.4-24.6-9.4-34 0l-242.8 242.798c-9.398 9.4-9.398 24.602 0 34l39.201 39.201c9.6 9.6 25 9.4 34.4-0.4l134.199-140.6v321.6c0 13.199 10.801 24 24 24h56c13.199 0 24-10.801 24-24v-321.6l134.199 140.6c9.4 9.801 24.801 10 34.4 0.4z" />
<glyph unicode="&#xf0b2;" glyph-name="arrows" d="M552 423.85h231.7v152.301c0 21.381 25.854 32.090 40.971 16.969l192.299-192.297c9.371-9.373 9.371-24.568 0-33.941l-192.299-192.299c-15.119-15.119-40.971-4.412-40.971 16.971v152.297h-231.702v-231.55h152.301c21.381 0 32.090-25.854 16.969-40.971l-192.297-192.301c-9.373-9.371-24.568-9.371-33.943 0l-192.297 192.299c-15.121 15.119-4.412 40.971 16.969 40.971h152.301v231.552h-231.702v-152.297c0-21.383-25.854-32.090-40.971-16.971l-192.299 192.299c-9.371 9.371-9.371 24.566 0 33.941l192.299 192.297c15.119 15.121 40.971 4.412 40.971-16.969v-152.301h231.702v231.85h-152.299c-21.381 0-32.090 25.854-16.969 40.971l192.297 192.299c9.373 9.371 24.568 9.371 33.943 0l192.297-192.299c15.121-15.119 4.412-40.971-16.969-40.971h-152.301v-231.85z" />
<glyph unicode="&#xf0ca;" glyph-name="list-ul" d="M96 160c52.984 0 96-43.016 96-96s-43.016-96-96-96-96 43.016-96 96 43.016 96 96 96zM96 480c52.984 0 96-43.016 96-96s-43.016-96-96-96-96 43.016-96 96 43.016 96 96 96zM96 800c52.984 0 96-43.016 96-96s-43.016-96-96-96-96 43.016-96 96 43.016 96 96 96zM992 752c17.662 0 32-14.338 32-32v-32c0-17.662-14.338-32-32-32h-640c-17.662 0-32 14.338-32 32v32c0 17.662 14.338 32 32 32h640zM992 432c17.662 0 32-14.338 32-32v-32c0-17.662-14.338-32-32-32h-640c-17.662 0-32 14.338-32 32v32c0 17.662 14.338 32 32 32h640zM992 112c17.662 0 32-14.338 32-32v-32c0-17.662-14.338-32-32-32h-640c-17.662 0-32 14.338-32 32v32c0 17.662 14.338 32 32 32h640z" />
<glyph unicode="&#xf0dc;" glyph-name="sort" horiz-adv-x="640" d="M544 320c85.4 0 128-103.6 68-163.801l-224-224c-37.6-37.398-98.4-37.398-135.801 0l-223.798 224c-60.6 60.4-17.4 163.801 67.799 163.801h447.8zM320 0l224 224h-448zM96 448c-85.4 0-128 103.6-68 163.801l224 224c37.6 37.398 98.4 37.398 135.801 0l223.798-224c60.6-60.4 17.4-163.801-67.799-163.801h-447.8zM320 768l-224-224h448z" />
<glyph unicode="&#xf0e7;" glyph-name="bolt" horiz-adv-x="768" d="M755.6 560.2c16.6-28.6 16.6-63-0.199-91.6l-366.4-553.4c-14.6-25.6-45-43.199-77.6-43.199-28.201 0-54.4 12.6-71.801 34.801-17.4 22-23.6 50.398-17.199 77.799l69.799 303.4h-196.199c-27.801 0-54.199 12-72.4 33-18.199 21-26.4 48.801-22.6 76.4l104.801 424.4c5 40 44 74.199 89.6 74.199h261c28.6 0 55.199-13 72.799-35.6 17.4-22.801 23.201-51.801 15.801-79.4l-57.4-175h188.801c33 0 62.799-17.199 79.199-45.801zM320.2-18.801l347.8 528.8h-313l95.6 291.8-255.2-1.801-100.4-416h317.8z" />
<glyph unicode="&#xf0eb;" glyph-name="lightbulb" horiz-adv-x="704" d="M352 736c17.68 0 32-14.32 32-32s-14.32-32-32-32c-70.561 0-128-57.4-128-128 0-17.68-14.32-32-32-32s-32 14.32-32 32c0 105.881 86.119 192 192 192zM192.119-22.34l-0.080 86.359h319.922l-0.102-86.359c-0.020-6.279-1.879-12.439-5.359-17.68l-49.020-73.68c-5.92-8.92-15.92-14.281-26.641-14.281h-157.699c-10.701 0-20.701 5.361-26.641 14.281l-49.020 73.68c-3.5 5.24-5.361 11.379-5.361 17.68zM352 896c194.4 0 352-157.6 352-352 0-88.74-32.9-169.699-87.1-231.58-33.281-37.959-85.48-117.58-104.84-184.32v-0.1h-96v0.199c0.008 8.084 1.998 20.896 4.439 28.602 11.359 35.979 45.98 129.699 124.199 218.92 40.82 46.58 63.301 106.34 63.301 168.279 0 141.16-114.84 256-256 256-136.561 0-256.3-108.721-255.9-256 0.18-61.98 22.141-121.42 63.221-168.279 78.699-89.801 113.16-183.721 124.34-219.34 2.859-9.121 4.279-18.602 4.301-28.141v-0.24h-96v0.119c-19.361 66.721-71.561 146.342-104.842 184.32-54.219 61.861-87.119 142.82-87.119 231.56 0 186.061 147.439 352 352 352z" />
<glyph unicode="&#xf0ec;" glyph-name="exchange" d="M1016.97 559.030l-200.75-200c-9.373-9.371-24.568-9.371-33.941 0l-39.252 39.252c-9.506 9.506-9.35 24.969 0.346 34.281l102.459 95.438h-821.832c-13.254 0-24 10.746-24 24v48c0 13.254 10.746 24 24 24h821.832l-102.455 95.438c-9.699 9.313-9.855 24.775-0.348 34.281l39.252 39.252c9.373 9.371 24.568 9.371 33.941 0l200.75-200c9.369-9.373 9.369-24.568-0.002-33.941zM7.029 175.029c-9.373 9.373-9.373 24.568-0.002 33.941l200.75 200c9.373 9.371 24.568 9.371 33.941 0l39.252-39.252c9.508-9.506 9.352-24.969-0.348-34.281l-102.455-95.438h821.832c13.254 0 24-10.746 24-24v-48c0-13.254-10.746-24-24-24h-821.832l102.459-95.438c9.695-9.313 9.852-24.775 0.346-34.281l-39.252-39.252c-9.373-9.371-24.568-9.371-33.941 0z" />
<glyph unicode="&#xf104;" glyph-name="angle-left" horiz-adv-x="384" d="M8.4 401l293.6 296c9.4 9.4 24.6 9.4 34 0l39.6-39.6c9.4-9.4 9.4-24.6 0-34l-237-239.4 237-239.4c9.4-9.4 9.4-24.6 0-34l-39.6-39.6c-9.4-9.4-24.6-9.4-34 0l-293.6 296c-9.4 9.4-9.4 24.6 0 34z" />
<glyph unicode="&#xf105;" glyph-name="angle-right" horiz-adv-x="384" d="M375.6 367l-293.6-296c-9.4-9.4-24.6-9.4-34 0l-39.6 39.6c-9.4 9.4-9.4 24.6 0 34l237 239.4-237 239.4c-9.4 9.4-9.4 24.6 0 34l39.6 39.6c9.4 9.4 24.6 9.4 34 0l293.6-296c9.4-9.4 9.4-24.6 0-34z" />
<glyph unicode="&#xf106;" glyph-name="angle-up" horiz-adv-x="640" d="M337 567.6l296-293.6c9.4-9.4 9.4-24.6 0-34l-39.6-39.6c-9.4-9.4-24.6-9.4-34 0l-239.4 237-239.4-237c-9.4-9.4-24.6-9.4-34 0l-39.6 39.6c-9.4 9.4-9.4 24.6 0 34l296 293.6c9.4 9.4 24.6 9.4 34 0z" />
<glyph unicode="&#xf107;" glyph-name="angle-down" horiz-adv-x="640" d="M303 200.4l-296 293.6c-9.4 9.4-9.4 24.6 0 34l39.6 39.6c9.4 9.4 24.6 9.4 34 0l239.4-237 239.4 237c9.4 9.4 24.6 9.4 34 0l39.6-39.6c9.4-9.4 9.4-24.6 0-34l-296-293.6c-9.4-9.4-24.6-9.4-34 0z" />
<glyph unicode="&#xf11c;" glyph-name="keyboard" horiz-adv-x="1152" d="M1056 768c53.020 0 96-42.98 96-96v-576c0-53.020-42.98-96-96-96h-960c-53.020 0-96 42.98-96 96v576c0 53.020 42.98 96 96 96h960zM1072 96v576c0 8.822-7.178 16-16 16h-960c-8.822 0-16-7.178-16-16v-576c0-8.822 7.178-16 16-16h960c8.822 0 16 7.178 16 16zM340 356c0-13.254-10.746-24-24-24h-56c-13.254 0-24 10.746-24 24v56c0 13.254 10.746 24 24 24h56c13.254 0 24-10.746 24-24v-56zM532 356c0-13.254-10.746-24-24-24h-56c-13.254 0-24 10.746-24 24v56c0 13.254 10.746 24 24 24h56c13.254 0 24-10.746 24-24v-56zM724 356c0-13.254-10.746-24-24-24h-56c-13.254 0-24 10.746-24 24v56c0 13.254 10.746 24 24 24h56c13.254 0 24-10.746 24-24v-56zM916 356c0-13.254-10.746-24-24-24h-56c-13.254 0-24 10.746-24 24v56c0 13.254 10.746 24 24 24h56c13.254 0 24-10.746 24-24v-56zM244 192c0-13.254-10.746-24-24-24h-56c-13.254 0-24 10.746-24 24v56c0 13.254 10.746 24 24 24h56c13.254 0 24-10.746 24-24v-56zM1012 192c0-13.254-10.746-24-24-24h-56c-13.254 0-24 10.746-24 24v56c0 13.254 10.746 24 24 24h56c13.254 0 24-10.746 24-24v-56zM244 520c0-13.254-10.746-24-24-24h-56c-13.254 0-24 10.746-24 24v56c0 13.254 10.746 24 24 24h56c13.254 0 24-10.746 24-24v-56zM436 520c0-13.254-10.746-24-24-24h-56c-13.254 0-24 10.746-24 24v56c0 13.254 10.746 24 24 24h56c13.254 0 24-10.746 24-24v-56zM628 520c0-13.254-10.746-24-24-24h-56c-13.254 0-24 10.746-24 24v56c0 13.254 10.746 24 24 24h56c13.254 0 24-10.746 24-24v-56zM820 520c0-13.254-10.746-24-24-24h-56c-13.254 0-24 10.746-24 24v56c0 13.254 10.746 24 24 24h56c13.254 0 24-10.746 24-24v-56zM1012 520c0-13.254-10.746-24-24-24h-56c-13.254 0-24 10.746-24 24v56c0 13.254 10.746 24 24 24h56c13.254 0 24-10.746 24-24v-56zM816 204c0-13.254-10.746-24-24-24h-432c-13.254 0-24 10.746-24 24v32c0 13.254 10.746 24 24 24h432c13.254 0 24-10.746 24-24v-32z" />
<glyph unicode="&#xf121;" glyph-name="code" horiz-adv-x="1152" d="M469.6-127.4l-77.6 22.6c-8.4 2.4-13.4 11.4-11 19.801l281.6 969.4c2.4 8.4 11.4 13.4 19.801 11l77.6-22.6c8.4-2.4 13.4-11.4 11-19.801l-281.6-969.4c-2.4-8.6-11.201-13.4-19.801-11zM303.2 114.801c-6.199-6.4-16.199-6.801-22.6-0.801l-275.6 258.2c-6.801 6.4-6.801 17 0 23.4l275.6 258.4c6.4 6 16.6 5.6 22.6-0.801l54.4-58c6.201-6.6 5.801-17-1-23l-212.2-188.199 212.2-188.199c6.6-6 7.201-16.4 1-23zM871.4 114c-6.4-6-16.4-5.6-22.6 0.801l-54.4 58c-6.201 6.6-5.801 17 1 23l212.2 188.199-212.2 188.199c-6.6 6-7.201 16.4-1 23l54.4 58c6 6.602 16.199 6.801 22.6 0.801l275.4-258.4c6.799-6.4 6.799-17 0-23.4z" />
<glyph unicode="&#xf126;" glyph-name="code-branch" horiz-adv-x="768" d="M768 608c0-70.4-45.6-130.199-108.801-151.6-1-56.201-15.199-101-43.199-135.801-56.4-70.199-152-79.199-236.4-87-51.4-4.799-99.799-9.199-132.199-25.6-14.201-7.199-23.6-16.4-29.801-26.801 60-23 102.4-81.199 102.4-149.199 0-88.4-71.6-160-160-160s-160 71.6-160 160c0 71.6 47 132.199 112 152.801v398.6c-65 20.4-112 81-112 152.6 0 88.4 71.6 160 160 160s160-71.6 160-160c0-71.6-47-132.199-112-152.6v-288c47.801 23 106.199 28.6 162.6 33.799 71.801 6.602 139.6 13 170.4 51.4 13.6 16.801 20.801 41.6 22 73.801-66.4 19.4-115 80.799-115 153.6 0 88.4 71.6 160 160 160s160-71.6 160-160zM160 800c-35.199 0-64-28.801-64-64s28.801-64 64-64 64 28.801 64 64-28.801 64-64 64zM160-32c35.199 0 64 28.801 64 64s-28.801 64-64 64-64-28.801-64-64 28.801-64 64-64zM608 544c35.199 0 64 28.801 64 64s-28.801 64-64 64-64-28.801-64-64 28.801-64 64-64z" />
<glyph unicode="&#xf128;" glyph-name="question" horiz-adv-x="768" d="M399.3 896c181.777 0 363.818-142.303 363.818-330.44 0-178.631-135.426-242.714-192-276.42-3.080-27.021-14.619-51.521-31.939-70.76 32.84-36.781 52.82-85.281 52.82-138.381 0-114.699-93.301-208-208-208s-208 93.301-208 208c0 53.1 19.98 101.6 52.82 138.381-20.359 22.619-32.76 52.539-32.76 85.299v22.859c0 47.881 11.959 91.102 35.639 129.102-27.1 0.34-53.859 9.52-75.479 25.92l-73.461 55.699c-54.221 41.121-66.68 117.42-28.34 173.721 84.91 124.646 196.83 185.020 344.88 185.020zM384-32c61.76 0 112 50.24 112 112 0 61.736-50.227 112-112 112-61.764 0-112-50.254-112-112 0-61.76 50.24-112 112-112zM475.94 320.42c0 65.4 191.18 68.119 191.18 245.14 0 133.32-138.279 234.44-267.818 234.44-123.701 0-203.14-51.461-265.522-143.061-9.52-13.979-6.5-32.959 6.98-43.18l73.461-55.699c13.686-10.42 33.27-7.943 44 5.6 39.719 50.141 67.979 79.119 129.199 79.119 46.961 0 105.041-30.219 105.041-75.76 0-34.42-28.422-52.080-74.781-78.080-54.080-30.32-125.619-68.039-125.619-162.4v-22.859c0-17.578 14.264-31.68 31.68-31.68h120.52c17.418 0 31.68 14.104 31.68 31.68v16.74z" />
<glyph unicode="&#xf13e;" glyph-name="unlock" horiz-adv-x="896" d="M800 416c53 0 96-43 96-96v-352c0-53-43-96-96-96h-704c-53 0-96 43-96 96v352c0 53 43 96 96 96h64v192c0 159 129.6 288.4 288.6 288 159.4-0.4 287.4-131.6 287.4-290.8v-45.199c0-26.6-21.4-48-48-48s-48 21.4-48 48v48c0 106.6-87.199 193.199-194 192-105.801-1-190-88.801-190-194.4v-189.6h544zM800-32v352h-704v-352h704zM448 32c-31 0-56 25-56 56v112c0 31 25 56 56 56s56-25 56-56v-112c0-31-25-56-56-56z" />
<glyph unicode="&#xf164;" glyph-name="thumbs-up" d="M932.54 322.62c9.35-45.293 1.729-89.074-17.979-125.979 5.918-47.736-8.043-97.131-34.68-133.98-1.908-111.814-71.646-190.66-225.88-190.66-14 0-30 0.020-44.439 0.020-205.484 0-266.586 77.879-355.606 79.881-7.139-27.553-32.17-47.9-61.955-47.9h-128c-35.346 0-64 28.654-64 64v480c0 35.346 28.654 64 64 64h197.52c38.291 33.906 92.027 121.307 137.52 166.801 27.334 27.334 20.307 217.2 143.521 217.2 115.16 0 190.539-63.871 190.539-209.46 0-36.818-7.859-67.459-17.699-93.078h72.959c97.205 0 171.641-83.131 171.641-171.16 0-38.301-9.92-69.98-27.461-99.682zM809.040 214.96c43.162 40.768 37.398 102.129 10.422 131.238 18.898 0 44.719 37.82 44.539 75.621-0.18 37.82-33.42 75.641-75.641 75.641h-207.978c0 75.639 56.719 110.738 56.719 189.078 0 47.5 0 113.461-94.539 113.461-37.82-37.82-18.92-132.359-75.641-189.080-53.119-53.141-132.359-194.92-189.080-194.92h-21.84v-372.34c107.223 0 200.002-75.641 343.28-75.641h75.641c71.023 0 121.641 34.24 106.24 131.801 30.4 16.32 53 72.879 27.879 115.141zM176 32c0 26.51-21.49 48-48 48s-48-21.49-48-48 21.49-48 48-48 48 21.49 48 48z" />
<glyph unicode="&#xf165;" glyph-name="thumbs-down" d="M932.54 445.38c17.541-29.701 27.461-61.381 27.461-99.682 0-88.029-74.436-171.16-171.641-171.16h-72.959c9.84-25.619 17.699-56.26 17.699-93.078 0-145.59-75.379-209.46-190.539-209.46-123.215 0-116.188 189.865-143.521 217.2-45.492 45.494-99.227 132.895-137.52 166.801h-14.104c-11.066-19.123-31.732-32-55.416-32h-128c-35.346 0-64 28.654-64 64v480c0 35.346 28.654 64 64 64h128c16.227 0 31.029-6.051 42.311-16h21.689c81.994 0 146.391 79.98 353.56 79.98 14.439 0 30.439 0.020 44.439 0.020 154.234 0 223.972-78.846 225.88-190.66 26.637-36.85 40.596-86.244 34.68-133.98 19.707-36.904 27.328-80.686 17.979-125.979zM128 304c26.51 0 48 21.49 48 48s-21.49 48-48 48-48-21.49-48-48 21.49-48 48-48zM788.36 270.54c42.221 0 75.461 37.82 75.641 75.641 0.18 37.801-25.641 75.621-44.539 75.621 26.977 29.109 32.74 90.471-10.422 131.238 25.121 42.262 2.521 98.82-27.879 115.141 15.4 97.561-35.217 131.801-106.24 131.801h-75.641c-143.277 0-236.056-75.641-343.28-75.641v-372.34h21.84c56.721 0 135.961-141.779 189.080-194.92 56.721-56.721 37.82-151.26 75.641-189.080 94.539 0 94.539 65.961 94.539 113.461 0 78.34-56.719 113.439-56.719 189.078h207.978z" />
<glyph unicode="&#xf185;" glyph-name="sun" d="M988.4 452.2c22.4-15.199 35.6-40.199 35.799-67.398 0-26.801-13.398-52-35.6-67l-119.6-81 27.4-142c5-26.4-3.201-53.602-22.201-72.602s-45.799-27.6-72.6-22.199l-141.799 27.4-80.801-119.801c-15-22.199-40.199-35.6-67-35.6s-52 13.4-67 35.801l-80.801 119.799-141.6-27.4c-26.799-5.199-53.6 3.201-72.6 22.201s-27.4 46.199-22.199 72.6l27.398 142-119.6 81c-22.199 15-35.6 40-35.6 67s13.199 52 35.6 67.199l119.6 81-27.398 142c-5.201 26.4 3.199 53.4 22.199 72.602 19 19.199 46 27.398 72.6 22.398l141.6-27.398 80.801 119.799c30.199 44.6 103.801 44.6 134 0l80.801-119.799 141.799 27.398c26 5.201 53.201-3.199 72.4-22.199 19-19.199 27.4-46.4 22.199-72.801l-27.398-142zM762.6 281l153.6 104.199-153.6 104 35.201 182.201-182-35.201-103.801 153.801-103.6-153.6-182 35.199 35.199-182.4-153.6-104 153.6-104-35.199-182.398 181.799 35.199 103.801-154 103.801 153.801 182-35.201zM512 592c114.6 0 208-93.4 208-208s-93.4-208-208-208-208 93.4-208 208 93.4 208 208 208zM512 272c61.801 0 112 50.199 112 112s-50.199 112-112 112-112-50.199-112-112 50.199-112 112-112z" />
<glyph unicode="&#xf188;" glyph-name="bug" horiz-adv-x="1152" d="M1072 368c26.51 0 48-21.49 48-48s-21.49-48-48-48h-128v-48c0-58.551-15.82-113.469-43.389-160.73l109.33-109.33c18.744-18.746 18.744-49.135 0-67.881-18.746-18.746-49.137-18.744-67.881 0l-102.059 102.057c-56.967-52.207-132.824-84.115-216.002-84.115h-96c-83.178 0-159.035 31.908-216.002 84.115l-102.059-102.057c-18.746-18.746-49.139-18.744-67.881 0-18.746 18.746-18.746 49.135 0 67.881l109.33 109.33c-27.568 47.264-43.389 102.18-43.389 160.73v48h-128c-26.51 0-48 21.49-48 48s21.49 48 48 48h128v188.117l-81.939 81.943c-18.746 18.744-18.746 49.135 0 67.881 18.746 18.744 49.135 18.744 67.881 0l81.941-81.941h30.117c0 150.182 121.74 272 272 272 150.182 0 272-121.74 272-272h26.117l81.943 81.941c18.746 18.744 49.135 18.744 67.881 0 18.744-18.744 18.744-49.135 0-67.881l-81.941-81.943v-188.117h128zM578 800c-97.201 0-176-78.799-176-176h352c0 97.201-78.799 176-176 176zM624 0c123.514 0 224 100.486 224 224v304h-544v-304c0-123.514 100.486-224 224-224v376c0 13.254 10.746 24 24 24h48c13.254 0 24-10.746 24-24v-376z" />
<glyph unicode="&#xf1ab;" glyph-name="language" horiz-adv-x="1280" d="M320.6 488.4c0 0 8.6-41.801 15.801-66l21.4-74.6h-75.801l22 74.6c7 24.199 15.6 66 15.6 66h1zM1232 704c26.6 0 48-21.4 48-48v-544c0-26.6-21.4-48-48-48h-1184c-26.6 0-48 21.4-48 48v544c0 26.6 21.4 48 48 48h1184zM466.4 192c16.4 0 28 16.199 22.799 31.801l-114.199 336c-3.4 9.6-12.6 16.199-22.801 16.199h-64.398c-10.4 0-19.4-6.4-22.801-16.199l-114.199-336c-5.201-15.602 6.398-31.801 22.799-31.801h45c10.6 0 20 7.199 23 17.4l18.201 63.199h119.799l18.6-63.4c2.936-9.932 12.125-17.191 23-17.199h45.201zM1200 144v480h-560v-480h560zM744 440c-13.199 0-24 10.801-24 24.199v32c0 13.201 10.801 24 24 24h128v32c0 13.201 10.801 24 24 24h32c13.199 0 24-10.799 24-24v-32h128c13.199 0 24-10.799 24-24v-32c0-13.199-10.801-24-24-24h-27.4c-14.4-40.6-39.4-82.799-73.6-124-2.801-3.398-5.6-6.6-8.6-10 17.6-15.6 36-29.799 54.4-41.799 10.6-7 13.799-21 7.6-32l-16-27.801c-6.801-12-22.4-15.6-34-8.199-24.6 16-47.801 34-69.201 53.199-22.799-19.6-47-37.799-72-53.6-11.6-7.4-26.799-3.4-33.6 8.4l-15.799 27.799c-6.4 11-3 25.201 7.799 32 20.201 12.801 39.4 27 57.4 42.4-18.199 21-34 41.801-47 61.201-7.6 11.398-4.199 27 7.6 34l27.4 16.398c11 6.602 25.199 3.4 32.199-7.199 11-16.4 23.4-32.4 36.602-48 21.6 25.199 39.199 51.4 51.799 77h-221.6z" />
<glyph unicode="&#xf1cd;" glyph-name="life-ring" d="M512-112c-273.934 0-496 222.066-496 496s222.066 496 496 496 496-222.066 496-496-222.066-496-496-496zM305.204 41.439c126.436-76.637 287.158-76.637 413.594 0l-106.822 106.822c-63.693-27.043-136.336-27.012-199.949 0zM672 384c0 88.225-71.775 160-160 160s-160-71.775-160-160 71.775-160 160-160 160 71.775 160 160zM854.56 177.203c76.637 126.436 76.637 287.158 0 413.594l-106.822-106.822c27.043-63.693 27.010-136.336 0-199.949zM718.794 726.56c-126.434 76.637-287.156 76.637-413.592 0l106.822-106.822c63.691 27.043 136.334 27.010 199.947 0zM169.439 590.796c-76.637-126.436-76.637-287.158 0-413.594l106.822 106.822c-27.043 63.693-27.012 136.336 0 199.949z" />
<glyph unicode="&#xf1de;" glyph-name="sliders-h" d="M992 752c17.6 0 32-14.4 32-32v-32c0-17.6-14.4-32-32-32h-416v-48c0-17.6-14.4-32-32-32h-64c-17.6 0-32 14.4-32 32v48h-416c-17.6 0-32 14.4-32 32v32c0 17.6 14.4 32 32 32h416v48c0 17.6 14.4 32 32 32h64c17.6 0 32-14.4 32-32v-48h416zM992 112c17.6 0 32-14.4 32-32v-32c0-17.6-14.4-32-32-32h-672v-48c0-17.6-14.4-32-32-32h-64c-17.6 0-32 14.4-32 32v48h-160c-17.6 0-32 14.4-32 32v32c0 17.6 14.4 32 32 32h160v48c0 17.6 14.4 32 32 32h64c17.6 0 32-14.4 32-32v-48h672zM992 432c17.6 0 32-14.4 32-32v-32c0-17.6-14.4-32-32-32h-160v-48c0-17.6-14.4-32-32-32h-64c-17.6 0-32 14.4-32 32v48h-672c-17.6 0-32 14.4-32 32v32c0 17.6 14.4 32 32 32h672v48c0 17.6 14.4 32 32 32h64c17.6 0 32-14.4 32-32v-48h160z" />
<glyph unicode="&#xf1e0;" glyph-name="share" horiz-adv-x="896" d="M704 256c106 0 192-86 192-192s-86-192-192-192-192 86-192 192c0 19.6 3 39 8.801 57.801l-196.602 123c-34.398-32.801-81-52.801-132.199-52.801-106 0-192 86-192 192s86 192 192 192c51.199 0 97.801-20 132.199-52.801l196.602 123c-5.801 18.602-8.801 38.201-8.801 57.801 0 106 86 192 192 192s192-86 192-192-86-192-192-192c-51.199 0-97.801 20-132.199 52.801l-196.602-123c11.801-37.4 11.801-78 0-115.602l196.602-123c34.398 32.801 81 52.801 132.199 52.801zM704 800c-53 0-96-43-96-96s43-96 96-96 96 43 96 96-43 96-96 96zM192 288c53 0 96 43 96 96s-43 96-96 96-96-43-96-96 43-96 96-96zM704-32c53 0 96 43 96 96s-43 96-96 96-96-43-96-96 43-96 96-96z" />
<glyph unicode="&#xf1e6;" glyph-name="plug" horiz-adv-x="768" d="M624 848v-176h-96v176c0 26.492 21.508 48 48 48s48-21.508 48-48zM240 848v-176h-96v176c0 26.492 21.508 48 48 48s48-21.508 48-48zM736 608c17.662 0 32-14.338 32-32v-32c0-17.662-14.338-32-32-32h-32v-128c0-160.279-118.221-291.84-272-315.16v-196.84h-96v196.84c-153.779 23.32-272 154.881-272 315.16v128h-32c-17.662 0-32 14.338-32 32v32c0 17.662 14.338 32 32 32h704zM608 384v128h-448v-128c0-123.629 100.371-224 224-224s224 100.371 224 224z" />
<glyph unicode="&#xf1fe;" glyph-name="chart-area" d="M1000 96c13.199 0 24-10.801 24-24v-48c0-13.199-10.801-24-24-24h-976c-13.199 0-24 10.801-24 24v720c0 13.199 10.801 24 24 24h48c13.199 0 24-10.801 24-24v-648h904zM744 638.6c12.4 8.4 29.4 3.4 35.4-10.4l180.6-436.2h-768v192l176.199 308.2c8 13.4 26.602 15.602 37.602 4.602l170.199-170.201zM288 357.4v-69.4h526.4l-89.201 222.6c-145-96.799-17.799-11.799-161.398-107.6l-160.801 160.801z" />
<glyph unicode="&#xf200;" glyph-name="chart-pie" horiz-adv-x="1088" d="M1023.92 449.6c1.26-18.24-14.1-33.6-32.381-33.6h-447.54v447.54c0 17.58 14.221 32.461 31.52 32.461 0.68 0 1.381-0.020 2.080-0.080 238.92-16.48 429.84-207.4 446.32-446.32zM640 512h276.98c-34.881 135.119-141.861 242.1-276.98 276.98v-276.98zM448 320l311.72-311.74c13.699-13.699 12.66-36.959-3.141-48.16-76.58-54.32-169.721-86.799-270.52-88.061-1.961-0.020-3.861-0.039-5.82-0.039-253.88 0-471.3 208.94-479.96 463.26-8.479 249.542 173.701 457.76 412.022 491.42 1.42 0.201 2.818 0.301 4.219 0.301 17.121 0 31.48-14.76 31.48-32.42v-474.56zM484.88-31.98c51.359 0.66 101.359 11.461 147.68 31.66l-280.561 280.561v433.48c-155.461-54.461-261.58-204.4-255.76-375.202 6.84-200.84 182.699-370.52 384.020-370.52zM1055.58 320c19.1 0 34.801-16.779 32.119-35.699-15.619-110.5-68.859-208.8-146.26-281.72-5.9-5.561-13.5-8.26-21.139-8.26-8.42 0-16.9 3.279-23.24 9.619l-316.060 316.060h474.58z" />
<glyph unicode="&#xf246;" glyph-name="i-cursor" horiz-adv-x="512" d="M256 812.956c72.314 83.006 169.301 83.816 232.37 82.896 13.115-0.191 23.631-10.881 23.631-23.998v-47.885c0-13.189-10.629-23.918-23.816-23.998-59.582-0.361-184.184-8.943-184.184-111.971v-256h72c13.254 0 24-10.746 24-24v-48c0-13.254-10.746-24-24-24h-72v-256c0-103.463 129.076-112.939 183.932-112.635 13.283 0.074 24.068-10.717 24.068-24v-47.215c0-13.119-10.52-23.811-23.637-23.998-63.162-0.906-160.1-0.055-232.364 82.893-72.316-83.006-169.301-83.816-232.37-82.896-13.115 0.191-23.631 10.881-23.631 23.998v47.885c0 13.189 10.629 23.916 23.816 23.998 59.514 0.369 184.184 8.982 184.184 111.971v256h-72c-13.254 0-24 10.746-24 24v48c0 13.254 10.746 24 24 24h72v256c0 103.486-129.072 112.943-183.932 112.633-13.283-0.074-24.068 10.717-24.068 24v47.217c0 13.119 10.52 23.811 23.637 23.998 63.162 0.906 160.098 0.055 232.364-82.893z" />
<glyph unicode="&#xf277;" glyph-name="map-signs" d="M882.74 512h-322.74v-64h352c26.5 0 48-26.859 48-60v-200c0-33.141-21.5-60-48-60h-352v-224c0-17.68-14.32-32-32-32h-32c-17.68 0-32 14.32-32 32v224h-322.74c-16.98 0-33.26 8.439-45.26 23.439l-86.619 108.26c-12.5 15.641-12.5 40.961 0 56.58l86.619 108.301c12 15 28.279 23.42 45.26 23.42h322.74v64h-352c-26.5 0-48 26.859-48 60v200c0 33.141 21.5 60 48 60h352v32c0 17.68 14.32 32 32 32h32c17.68 0 32-14.32 32-32v-32h322.74c16.98 0 33.26-8.42 45.26-23.42l86.619-108.279c12.5-15.641 12.5-40.961 0-56.58l-86.619-108.281c-12.020-15.020-28.279-23.439-45.26-23.439zM864 224v128h-703.12l-51.201-64 51.201-64h703.12zM160 736v-128h703.12l51.201 64-51.201 64h-703.12z" />
<glyph unicode="&#xf279;" glyph-name="map" horiz-adv-x="1152" d="M1120.040 832c16.9 0 31.961-13.66 31.961-32.039v-692.64c0-26.941-16.648-49.99-40.24-59.42l-303.66-105.621c-12.465-4.057-25.805-6.246-39.615-6.246-14.146 0-27.76 2.301-40.484 6.547l-344 121.42-340.1-125.68c-3.98-1.58-8-2.32-11.92-2.32-16.92 0-31.98 13.66-31.98 32.039v692.64c0.006 26.939 16.652 49.986 40.24 59.42l303.66 105.621c12.879 4.18 26.24 6.279 39.619 6.279 14.133-0.006 27.758-2.332 40.48-6.561l344.020-121.439 340.1 125.68c3.961 1.58 8 2.32 11.92 2.32zM448 715.16v-571.94l256-90.381v571.94zM96 59.9l255.999 94.619v572.4l-256-89.061v-577.958zM1056 130.16v577.94l-255.999-94.619v-572.38z" />
<glyph unicode="&#xf2e7;" glyph-name="utensils" horiz-adv-x="1088" d="M576 581c0-105.6-56.801-189.801-139.6-233.2l20.4-361.602c3.6-62-46.201-114.199-108.801-114.199h-120c-62.6 0-112.4 52.199-108.801 114.199l20.4 361.4c-83.199 43.801-139.6 128-139.6 233.4 0 61.199 25.801 195.801 31.199 223.4 9.801 51.799 57 91.6 123.602 91.6 22.799 0 46.398-4.801 66.6-15.6 20 10.6 43.6 15.6 66.6 15.6s46.6-5 66.6-15.6c20.4 10.799 43.801 15.6 66.6 15.6 67 0 113.801-40.199 123.602-91.6 5.398-27.801 31.199-162.4 31.199-223.4zM336.6 413.8c85.201 16.398 143.4 80 143.201 167.199 0 55.199-29.602 205.4-29.602 205.4-3.199 18.4-56.6 18-59-0.4v-227.4c-1.799-21.199-56.398-21.6-59-0.4l-14.799 228.202c-3.201 18-55.801 18-59 0l-14.801-228.202c-2.6-21.199-57.199-20.799-59 0.4v227.4c-2.4 18.4-55.799 18.801-59 0.4 0 0-29.6-150.201-29.6-205.4 0-87.6 58.6-151 143.4-167.199l-24.4-433c-0.4-7 5.6-12.801 13-12.801h120c7.6 0 13.4 6 13 12.801zM779 274.8c-69 55.398-139 137-139 257.798 0 197.4 192.4 363.4 336 363.4 61.801 0 112-48.4 112-108v-808c0-59.6-50.199-108-112-108h-112c-66.199 0-117.4 54.6-111.6 117.801zM736 532.6c0-94.799 64.4-158.799 143.6-212.798l-31.6-339c-0.6-6.801 6.801-12.801 16-12.801h112c8.6 0 16 5.4 16 12v808c0 6.4-7.4 12-16 12-89.199 0-240-122.199-240-267.4z" />
<glyph unicode="&#xf2e8;" glyph-name="usd-circle" horiz-adv-x="992" d="M582 408c58-17.801 98.4-74.199 98.4-137.199 0-78.602-61.201-142.602-136.4-142.801v-32c0-17.6-14.4-32-32-32h-32c-17.6 0-32 14.4-32 32v32.4c-33 1.199-65.199 11.6-92.801 30.199-17.199 11.6-19.799 36-4.6 50.4l24 22.6c10.801 10 26.6 10.6 39.4 3.201 12.199-7 25.801-10.801 39.801-10.801h90c22.6 0 41 21 41 46.801 0 21.199-12.4 39.799-30.4 45.398l-144 43.801c-58 17.801-98.4 74.199-98.4 137.199 0 78.602 61.199 142.602 136.4 142.801v32c0 17.6 14.4 32 32 32h32c17.6 0 32-14.4 32-32v-32.4c33-1.199 65.199-11.6 92.799-30.199 17.201-11.6 19.801-36 4.602-50.4l-24-22.6c-10.801-10-26.602-10.6-39.4-3.201-12.201 7-25.801 10.801-39.801 10.801h-90c-22.6 0-41-21-41-46.801 0-21.199 12.4-39.799 30.4-45.398zM496 880c274 0 496-222 496-496s-222-496-496-496-496 222-496 496 222 496 496 496zM496-16c220.6 0 400 179.4 400 400s-179.4 400-400 400-400-179.4-400-400 179.4-400 400-400z" />
<glyph unicode="&#xf2eb;" glyph-name="trophy" horiz-adv-x="1152" d="M718.6 618.2c15.6-2.199 21.801-21.398 10.6-32.398l-62.799-61.201 14.799-86.4c2.602-15.6-13.799-27.199-27.6-20l-77.6 40.801-77.6-40.801c-14-7.398-30.201 4.602-27.6 20l14.799 86.4-62.799 61.201c-11.201 11-5 30.199 10.6 32.398l86.799 12.602 38.801 78.6c7 14.199 27 14 34 0l38.801-78.6zM896 768h224c17.6 0 32-14.4 32-32v-121.6c0-120.801-137-250.6-319.2-285.202-54.801-115.799-136.201-176.199-208.8-194.799v-166.4h128c44.199 0 80-35.801 80-80 0-8.801-7.199-16-16-16h-480c-8.801 0-16 7.199-16 16 0 44.199 35.801 80 80 80h128v166.4c-72.6 18.4-154 79-208.8 194.799-182.6 34.801-319.2 164.602-319.2 285.202v121.6c0 17.6 14.4 32 32 32h224v96c0 17.6 14.4 32 32 32h576c17.6 0 32-14.4 32-32v-96zM96 614.4c0-58.201 74.4-138.201 184.6-176-20.4 81.199-24.6 155.199-24.6 233.6h-160v-57.6zM576 224c102.4 0 224 151 224 432v144h-448v-144c0-275.2 118-432 224-432zM1056 614.4v57.6h-160c0-78.199-4.199-152.4-24.6-233.6 110.199 37.799 184.6 117.799 184.6 176z" />
<glyph unicode="&#xf2ed;" glyph-name="trash" horiz-adv-x="896" d="M536 64c-13.246 0-24 10.754-24 24v432c0 13.246 10.754 24 24 24h48c13.246 0 24-10.754 24-24v-432c0-13.246-10.754-24-24-24h-48zM864 736c17.662 0 32-14.338 32-32v-32c0-17.662-14.338-32-32-32h-32v-672c0-52.984-43.016-96-96-96h-576c-52.984 0-96 43.016-96 96v672h-32c-17.662 0-32 14.338-32 32v32c0 17.662 14.338 32 32 32h164.82l68.039 113.4c16.785 27.969 47.355 46.6 82.32 46.6h201.64c0.016 0-0.031 0.104-0.016 0.104 34.965 0 65.59-18.734 82.375-46.703l68-113.4h164.82zM343.68 794.18l-34.9-58.18h278.442l-34.92 58.18c-2.1 3.494-5.918 5.82-10.287 5.82h-188.014c-0.012 0-0.014 0.014-0.025 0.014-4.369 0-8.195-2.34-10.295-5.834zM736-32v672h-576v-672h576zM312 64c-13.246 0-24 10.754-24 24v432c0 13.246 10.754 24 24 24h48c13.246 0 24-10.754 24-24v-432c0-13.246-10.754-24-24-24h-48z" />
<glyph unicode="&#xf2f1;" glyph-name="sync" d="M967.030 839.030c15.119 15.119 40.971 4.41 40.971-16.971v-286.058c0-13.254-10.746-24-24-24h-286.058c-21.381 0-32.090 25.85-16.969 40.971l108.256 108.258c-70.914 70.926-168.902 114.771-277.228 114.771-209.094 0-379.678-163.299-391.362-369.412-0.721-12.684-11.24-22.588-23.947-22.588h-56.090c-13.652 0-24.66 11.379-23.982 25.014 13.029 262.31 229.836 470.986 495.38 470.986 136.971 0 260.95-55.533 350.7-145.301zM983.398 384c13.652 0 24.66-11.379 23.982-25.014-13.029-262.31-229.834-470.986-495.38-470.986-136.969 0-260.95 55.533-350.7 145.301l-104.33-104.328c-15.119-15.121-40.971-4.412-40.971 16.969v286.058c0 13.254 10.746 24 24 24h286.058c21.381 0 32.090-25.85 16.969-40.971l-108.256-108.258c70.914-70.926 168.902-114.771 277.228-114.771 209.094 0 379.678 163.299 391.362 369.412 0.721 12.684 11.24 22.588 23.947 22.588h56.090z" />
<glyph unicode="&#xf2f5;" glyph-name="sign-out" d="M544 672c0 85.4 103.6 128 163.801 68.199l288-288c37.398-37.6 37.398-98.398 0-135.799l-288-287.8c-60.4-60.6-163.801-17.4-163.801 67.801v103.199h-192c-53 0-96 43-96 96v177.201c0 53 43 96 96 96h192v103.199zM928 384l-288 288v-199.4h-288v-177.199h288v-199.4zM192 768h168c13.199 0 24-10.801 24-24v-48c0-13.199-10.801-24-24-24h-168c-53 0-96-43-96-96v-384c0-53 43-96 96-96h168c13.199 0 24-10.801 24-24v-48c0-13.199-10.801-24-24-24h-168c-106 0-192 86-192 192v384c0 106 86 192 192 192z" />
<glyph unicode="&#xf2f6;" glyph-name="sign-in" d="M288 672c0 85.4 103.6 128 163.801 68.199l288-288c37.398-37.6 37.398-98.398 0-135.799l-288-287.8c-60.4-60.6-163.801-17.4-163.801 67.801v103.199h-192c-53 0-96 43-96 96v177.201c0 53 43 96 96 96h192v103.199zM672 384l-288 288v-199.4h-288v-177.199h288v-199.4zM832 0h-168c-13.199 0-24 10.801-24 24v48c0 13.199 10.801 24 24 24h168c53 0 96 43 96 96v384c0 53-43 96-96 96h-168c-13.199 0-24 10.801-24 24v48c0 13.199 10.801 24 24 24h168c106 0 192-86 192-192v-384c0-106-86-192-192-192z" />
<glyph unicode="&#xf2f7;" glyph-name="shield-check" d="M326.4 435l119.6-120.4 282.8 280.4c9.398 9.199 24.6 9.199 34-0.199l45-45.4c9.199-9.4 9.199-24.6-0.201-34l-345.2-342.4c-9.4-9.199-24.6-9.199-34 0.199l-181.6 183c-9.201 9.4-9.201 24.602 0.199 34l45.4 45c9.4 9.201 24.6 9.201 34-0.199zM933 728.6c35.6-14.799 59-49.799 59-88.6 0-442.6-271.8-689.2-443.2-760.6-23.602-9.801-50.201-9.801-73.801 0-214 89.199-443 363.6-443 760.6 0 38.801 23.4 73.801 59.199 88.6l384 160c11.352 4.709 23.92 7.309 36.965 7.309 13.043 0 25.486-2.6 36.836-7.309zM512-32c187.199 78 384 324.4 384 672l-384 160-384-160c0-338.6 189-590.8 384-672z" />
<glyph unicode="&#xf2f9;" glyph-name="redo" d="M967.030 839.030c15.119 15.119 40.971 4.41 40.971-16.971v-286.058c0-13.254-10.746-24-24-24h-286.058c-21.381 0-32.090 25.85-16.969 40.971l108.256 108.258c-70.914 70.926-168.902 114.771-277.228 114.771-216.676 0-392-175.357-392-392 0-216.676 175.357-392 392-392 100.211 0 191.574 37.508 260.842 99.262 9.496 8.467 24.006 7.893 33.002-1.104l39.477-39.477c9.742-9.744 9.262-25.629-0.965-34.865-87.951-79.443-204.504-127.816-332.356-127.816-273.81 0-495.8 221.866-496 495.63-0.199 273.318 222.68 496.37 496.002 496.37 136.969 0 260.948-55.533 350.698-145.301z" />
<glyph unicode="&#xf303;" glyph-name="pencil" d="M983.218 748.75c54.418-54.416 53.916-139.512 1.256-192.174l-630.652-634.756-297.99-49.164c-32.438-5.348-60.523 22.744-55.174 55.174l49.162 297.992 634.756 630.608c52.77 52.764 138.164 52.756 190.92-0.002zM400.886 272.886c-17.182 17.184-17.182 45.043-0.002 62.227l238.058 238.058-57.137 57.139-340.52-338.31h82.713v-96h96v-82.711l338.31 340.52-57.139 57.137-238.058-238.058c-8.592-8.592-19.854-12.887-31.113-12.887s-22.521 4.295-31.113 12.887zM164.264-20.264l147.172 24.281 36.564 36.803v83.18h-96v96h-83.182l-36.801-36.564-24.279-147.174zM922.234 618.802c18.621 18.623 18.5 47.967-1.256 67.721l-107.709 107.709c-18.516 18.516-48.178 18.289-66.471-0.002l-0.102-0.1-0.1-0.102-96.688-96.059 176.061-176.061 96.162 96.789z" />
<glyph unicode="&#xf30d;" glyph-name="lock" horiz-adv-x="896" d="M448 72c-31 0-56 25-56 56v128c0 31 25 56 56 56s56-25 56-56v-128c0-31-25-56-56-56zM896 416v-448c0-53-43-96-96-96h-704c-53 0-96 43-96 96v448c0 53 43 96 96 96h64v96c0 159 129.6 288.4 288.8 288s287.2-131.6 287.2-290.8v-93.199h64c53 0 96-43 96-96zM256 512h384v96c0 105.801-86.199 192-192 192s-192-86.199-192-192v-96zM800 416h-704v-448h704v448z" />
<glyph unicode="&#xf336;" glyph-name="badge-check" d="M665.46 539.26l46.42-46.779c7.68-7.74 7.639-20.26-0.121-27.961l-235.56-233.66c-7.738-7.68-20.26-7.639-27.959 0.121l-136.1 137.199c-7.68 7.74-7.641 20.26 0.119 27.961l46.801 46.42c7.74 7.68 20.279 7.639 27.959-0.121l75.76-76.379 174.721 173.32c7.74 7.68 20.26 7.639 27.961-0.121zM1024 384c0-72.4-37.199-136.4-93.4-173.4 13.6-65.6-5.199-137.4-56.6-188.6-51.199-51.199-122.4-70.199-188.6-56.6-36.801-55.801-100.6-93.4-173.4-93.4-72.4 0-136.4 37.199-173.4 93.4-66.199-13.6-137.4 5.199-188.6 56.6-51.199 51.199-70.199 122.801-56.6 188.6-56 36.801-93.4 100.801-93.4 173.4 0 72.4 37.199 136.4 93.4 173.4-13.6 65.6 5.199 137.4 56.6 188.6 51.199 51.199 122.801 70.199 188.6 56.6 36.801 56 100.801 93.4 173.4 93.4s136.4-37.4 173.4-93.4c65.6 13.6 137.4-5.199 188.6-56.6 51.199-51.199 70.199-122.801 56.6-188.6 55.801-36.6 93.4-100.4 93.4-173.4zM807.4 261.4c34.799 13 120.4 31.799 120.4 122.4 0 87.799-79.201 107-120.4 122.398 15.4 33.801 62.6 107.602-1.4 171.602-62 62-131.801 19.6-171.6 1.398-13 35.201-31.801 120.801-122.4 120.801-87.801 0-107-79.199-122.4-120.4-33.799 15.4-107.6 62.6-171.6-1.4-62-62-19.6-131.799-1.4-171.6-35-13.199-120.6-32-120.6-122.6 0-87.801 79.199-107 120.4-122.4-15.4-33.799-62.6-107.6 1.4-171.6 62-62 129.6-20.801 171.799-1.6 13-34.801 31.801-120.4 122.4-120.4 87.801 0 107 79.199 122.4 120.4 61-27.6 115.6-54.6 171.6 1.4 62 62 19.6 131.799 1.4 171.6z" />
<glyph unicode="&#xf34e;" glyph-name="alarm-clock" d="M512 768c247.4 0 448-200.58 448-448 0-0.031-0.209-0.434-0.209-0.465 0-100.367-33.27-193.023-89.371-267.536l80.279-80.119c5.795-5.793 9.381-13.803 9.381-22.635s-3.586-16.834-9.381-22.627l-45.238-45.238c-5.793-5.795-13.803-9.381-22.635-9.381s-16.834 3.586-22.627 9.381l-80.199 80.18c-74.543-56.109-167.975-89.381-268.372-89.381s-193.086 33.271-267.628 89.381l-80.199-80.24c-5.793-5.789-13.799-9.369-22.625-9.369s-16.824 3.58-22.615 9.369l-45.26 45.24c-5.795 5.793-9.381 13.803-9.381 22.635s3.586 16.832 9.381 22.625l80.199 80.18c-56.053 74.492-89.5 167.473-89.5 267.79v0.211c0 247.42 200.52 448 448 448zM512-32c194.273 0 352 157.727 352 352s-157.727 352-352 352-352-157.727-352-352 157.727-352 352-352zM192 896c50.346-0.004 96.234-19.512 130.4-51.359l-291.8-243.16c-19.148 29.48-30.447 64.814-30.6 102.52 0 105.967 86.033 192 192 192zM560 311.060l117.020-93.521c3.682-2.932 6.025-7.457 6.025-12.525 0-3.789-1.32-7.271-3.525-10.014l-40-50c-2.578-3.221-6.385-5.414-10.699-5.9-0.455-0.035-0.912-0.045-1.377-0.045-3.891 0-7.482 1.297-10.363 3.484l-129.080 103.141c-14.654 11.732-24 29.746-24 49.959v264.361c0 8.83 7.17 16 16 16h64c8.83 0 16-7.17 16-16v-248.94zM832 896c105.967 0 192-86.033 192-192-0.164-37.68-11.451-72.992-30.58-102.461l-291.78 243.14c34.164 31.822 80.037 51.311 130.359 51.32z" />
<glyph unicode="&#xf35d;" glyph-name="external-link" d="M864 320c17.664 0 32-14.336 32-32v-320c0-52.992-43.008-96-96-96h-704c-52.992 0-96 43.008-96 96v704c0 52.992 43.008 96 96 96h320c17.664 0 32-14.336 32-32v-32c0-17.664-14.336-32-32-32h-308c-6.623 0-12-5.377-12-12v-680c0-6.623 5.377-12 12-12h680c6.623 0 12 5.377 12 12v308c0 17.664 14.336 32 32 32h32zM1000 896c13.248 0 24-10.752 24-24v-272c-0.012-13.236-10.764-23.979-24-23.979-5.455 0-13.027 3.117-16.9 6.959l-96.42 96.4-544.4-544.42c-3.883-3.898-11.498-7.061-17-7.061-5.5 0-13.117 3.162-17 7.061l-45.26 45.26c-3.896 3.883-7.059 11.498-7.059 17 0 5.5 3.162 13.117 7.059 17l544.4 544.398-96.381 96.42c-3.873 3.881-7.018 11.479-7.018 16.961 0 13.236 10.742 23.988 23.979 24h272z" />
<glyph unicode="&#xf364;" glyph-name="repeat" d="M962.324 567.348c38.955-51.355 61.994-115.418 61.672-184.775-0.775-167.848-139.273-302.572-307.124-302.572h-364.872v-128c-0.002-21.365-25.898-32.043-40.971-16.971l-176 175.99c-9.371 9.373-9.373 24.568 0 33.943l176 176.010c15.16 15.16 40.971 4.279 40.971-16.971v-128h365.336c114.529-0.002 210.784 93.689 210.664 208.22-0.047 44.744-14.299 86.221-38.475 120.164-6.861 9.633-5.924 22.773 2.447 31.127 16.537 16.51 27.184 27.090 34.273 34.209 10.262 10.303 27.289 9.209 36.078-2.375zM96 383.778c0.049-44.744 14.299-86.221 38.475-120.164 6.859-9.631 5.924-22.771-2.447-31.127-16.539-16.512-27.184-27.092-34.273-34.211-10.262-10.301-27.289-9.207-36.078 2.377-38.955 51.355-61.992 115.418-61.672 184.775 0.773 167.848 139.273 302.572 307.124 302.572h364.872v128c0.002 21.365 25.898 32.043 40.971 16.973l176-175.99c9.371-9.373 9.373-24.57 0-33.943l-176-176.010c-15.16-15.162-40.971-4.279-40.971 16.971v128h-365.336c-114.529 0-210.784-93.691-210.664-208.222z" />
<glyph unicode="&#xf381;" glyph-name="cloud-download" horiz-adv-x="1280" d="M1087.4 495.8c114.199-40.201 192.6-148.201 192.6-271.8 0-159-129-288-288-288h-672c-176.801 0-320 143.199-320 320 0 131.199 79.801 247.8 199.4 296.4 33.6 160.199 175.4 279.6 344.6 279.6 112.199 0 211.4-52.6 275.2-132.6 14.602 3 29.602 4.6 44.801 4.6 118.801 0 215.4-92.199 223.4-208.2zM992 32c106 0 192 86 192 192s-86 192-192 192c-5.801 0-11.801-0.199-17.6-0.801 11.199 19 17.6 41.201 17.6 64.801 0 70.6-57.4 128-128 128-31.801 0-60.801-11.6-83.199-30.801-38.201 93.201-129.801 158.801-236.8 158.801-141.4 0-256-114.6-256-256v-2.199c-108.6-15.602-192-109-192-221.8 0-123.801 100.199-224 224-224h672zM774 384c21.4 0 32.199-25.801 17-41l-198-198c-9.4-9.4-24.6-9.4-34 0l-198 198c-15 15.199-4.4 41 17 41h134v168c0 13.199 10.801 24 24 24h80c13.199 0 24-10.801 24-24v-168h134z" />
<glyph unicode="&#xf382;" glyph-name="cloud-upload" horiz-adv-x="1280" d="M791 361c15.199-15.199 4.4-41-17-41h-134v-168c0-13.199-10.801-24-24-24h-80c-13.199 0-24 10.801-24 24v168h-134c-21.4 0-32.199 25.801-17 41l198 198c9.4 9.4 24.6 9.4 34 0zM1087.4 495.8c114.199-40.201 192.6-148.201 192.6-271.8 0-159-129-288-288-288h-672c-176.801 0-320 143.199-320 320 0 131.199 79.801 247.8 199.4 296.4 33.6 160.199 175.4 279.6 344.6 279.6 112.199 0 211.4-52.6 275.2-132.6 14.602 3 29.602 4.6 44.801 4.6 118.801 0 215.4-92.199 223.4-208.2zM992 32c106 0 192 86 192 192s-86 192-192 192c-5.801 0-11.801-0.199-17.6-0.801 11.199 19 17.6 41.201 17.6 64.801 0 70.6-57.4 128-128 128-31.801 0-60.801-11.6-83.199-30.801-38.201 93.201-129.801 158.801-236.8 158.801-141.4 0-256-114.6-256-256v-2.199c-108.6-15.602-192-109-192-221.8 0-123.801 100.199-224 224-224h672z" />
<glyph unicode="&#xf387;" glyph-name="code-merge" horiz-adv-x="768" d="M608 512c88.4 0 160-71.801 160-160.199 0-88.4-71.6-160-160-160-66.4 0-123.4 40.6-147.6 98.398-61.6 6.4-163.801 28.602-242.4 103.602-3.4 3.199-6.801 6.6-10 10v-219.202c65-20.4 112-81 112-152.6 0-88.4-71.6-160-160-160s-160 71.6-160 160c0 71.6 47 132.199 112 152.801v398.6c-65 20.4-112 81-112 152.6 0 88.4 71.6 160 160 160s160-71.6 160-160c0-68.199-42.801-126.6-103-149.6 11.6-50.201 34.199-91.4 67.4-123.201 51.799-49.398 120-68.199 167.799-75.199 16.201 71 79.801 124 155.801 124zM160 800c-35.199 0-64-28.801-64-64s28.801-64 64-64 64 28.801 64 64-28.801 64-64 64zM160-32c35.199 0 64 28.801 64 64s-28.801 64-64 64-64-28.801-64-64 28.801-64 64-64zM608 288c35.199 0 64 28.801 64 64s-28.801 64-64 64-64-28.801-64-64 28.801-64 64-64z" />
<glyph unicode="&#xf39b;" glyph-name="ellipsis-h" d="M512 528c79.6 0 144-64.4 144-144s-64.4-144-144-144-144 64.4-144 144 64.4 144 144 144zM512 336c26.4 0 48 21.6 48 48s-21.6 48-48 48-48-21.6-48-48 21.6-48 48-48zM864 528c79.6 0 144-64.4 144-144s-64.4-144-144-144-144 64.4-144 144 64.4 144 144 144zM864 336c26.4 0 48 21.6 48 48s-21.6 48-48 48-48-21.6-48-48 21.6-48 48-48zM160 528c79.6 0 144-64.4 144-144s-64.4-144-144-144-144 64.4-144 144 64.4 144 144 144zM160 336c26.4 0 48 21.6 48 48s-21.6 48-48 48-48-21.6-48-48 21.6-48 48-48z" />
<glyph unicode="&#xf3be;" glyph-name="level-down" horiz-adv-x="640" d="M593.28 71.348l-192.318-192.32c-9.373-9.373-24.57-9.371-33.941 0l-192.312 192.312c-15.070 15.072-4.395 40.969 16.971 40.971l136.322 0.004v671.686h-200.002c-5.486 0-13.088 3.15-16.969 7.029l-64 64c-15.119 15.119-4.412 40.971 16.971 40.971h328c26.51 0 48-21.49 48-48v-735.684l136.309 0.002c21.252 0.002 32.131-25.811 16.971-40.971z" />
<glyph unicode="&#xf3c2;" glyph-name="lock-open" horiz-adv-x="1152" d="M864.6 896c159.4-0.4 287.4-131.6 287.4-290.8v-109.199c0-26.6-21.4-48-48-48s-48 21.4-48 48v112c0 106.6-87.199 193.199-194 192-105.801-1-190-88.801-190-194.4v-93.6h128c53 0 96-43 96-96v-448c0-53-43-96-96-96h-704c-53 0-96 43-96 96v448c0 53 43 96 96 96h480v96c0 159 129.6 288.4 288.6 288zM800 416h-704v-448h704v448zM450 72c-31 0-56 25-56 56v128c0 31 25 56 56 56s56-25 56-56v-128c0-31-25-56-56-56z" />
<glyph unicode="&#xf3e5;" glyph-name="reply" horiz-adv-x="1152" d="M28.123 380.12c-37.5 37.48-37.5 98.281 0 135.762l351.996 351.904c60.301 60.301 163.881 17.561 163.881-67.879v-161.406c275.92-8.301 608-61.859 608-402.6 0-147.5-76.039-269.436-195.26-347.898-74.24-48.859-171.68 21.801-144.381 108.92 48.701 155.359 24.82 238.678-268.36 255.758v-156.561c0-85.279-103.461-128.299-163.881-67.879zM96 448l352-352v255.82c329.042-3.58 554.88-67.643 455.96-383.22 72.039 47.4 152.039 133.381 152.039 267.3 0 284.484-321.638 306.78-608 308.040v256.060z" />
<glyph unicode="&#xf46d;" glyph-name="clipboard-list" horiz-adv-x="768" d="M560 416c8.801 0 16-7.199 16-16v-32c0-8.801-7.199-16-16-16h-224c-8.801 0-16 7.199-16 16v32c0 8.801 7.199 16 16 16h224zM560 224c8.801 0 16-7.199 16-16v-32c0-8.801-7.199-16-16-16h-224c-8.801 0-16 7.199-16 16v32c0 8.801 7.199 16 16 16h224zM224 432c26.6 0 48-21.4 48-48s-21.4-48-48-48-48 21.4-48 48 21.4 48 48 48zM224 240c26.6 0 48-21.4 48-48s-21.4-48-48-48-48 21.4-48 48 21.4 48 48 48zM672 768c53 0 96-43 96-96v-704c0-53-43-96-96-96h-576c-53 0-96 43-96 96v704c0 53 43 96 96 96h160c0 70.6 57.4 128 128 128s128-57.4 128-128h160zM384 800c-17.6 0-32-14.4-32-32s14.4-32 32-32 32 14.4 32 32-14.4 32-32 32zM672-16v672c0 8.801-7.199 16-16 16h-80v-64c0-17.6-14.4-32-32-32h-320c-17.6 0-32 14.4-32 32v64h-80c-8.801 0-16-7.199-16-16v-672c0-8.801 7.199-16 16-16h544c8.801 0 16 7.199 16 16z" />
<glyph unicode="&#xf4c6;" glyph-name="handshake" horiz-adv-x="1280" d="M511.4 530.6c-19.201-17.6-21-48.199-2.201-68 17.801-18.799 50.201-17.4 69.201 0l110.4 101.201c13 11.799 33.199 11 45.199-2l21.801-23.602c12-13 11-33.199-2-45.199l-25-22.801 205.398-166.799c5.602-4.6 10.801-9.801 15.4-15.4h298.4c17.6 0 32-14.4 32-32v-32c0-17.6-14.4-32-32-32h-275.6c-3.6-16.4-10.6-32.199-21.801-46l-52.4-64.6c-31.6-38.801-83.799-51-128-33.6-27-33.201-61.199-48-97.6-48-30.199 0-57.199 10.199-82.199 31.799-63.6-43.799-149.4-42.6-211.202 7.6l-169.199 152.801h-178c-17.6 0-32 14.4-32 32v32c0 17.6 14.4 32 32 32h215.4l194.6-176c32.199-26.199 82.801-21 110.6 13.199l31.201 38.4 73.6-63c4.199-3.4 11.199-5.6 18.199-4.799 7 0.799 13.4 4.199 17.801 9.6l60 73 47.799-38.801c7-5.6 17-4.4 22.602 2.4l52.199 64.4c5.6 7 4.4 17-2.4 22.6l-216.4 175.6-16.398-15c-80.602-73.6-173.4-23.6-203 8.801-53.4 58-50 148.799 8.799 202.6l77.4 71h-113.4c-4-1.6-7.4-3-11.4-4.6l-123.398-123.201h-243.8c-17.6 0-32 14.4-32 32v32c0 17.602 14.4 32 32 32h204l95.199 95.201c21 20.799 49.602 32.6 79.201 32.6h453.6c29.801 0 58.199-11.801 79.199-32.4l95.201-95.199h209.6c17.6 0 32-14.4 32-32v-32c0-17.6-14.4-32-32-32h-249.6l-123.4 123.199c-2.801 3-6.801 4.6-11 4.6l-167.4-0.398c-20 0-39.199-7.4-54-21z" />
<glyph unicode="&#xf4c7;" glyph-name="heart-circle" horiz-adv-x="992" d="M723.6 570.4c84.801-72.4 72.201-190.4 12.4-252.6l-197.4-204c-19.799-20.4-58.799-26.801-84.799 0l-197.4 204c-60.201 62.199-72.801 180.199 12 252.6 76.6 65.6 178 35.6 227.6-15.6 49.6 51.199 151 81.199 227.6 15.6zM668.2 385c26.201 27 32.4 79.6-5.398 112-28 24-72.201 18-98.602-9.4l-68.199-70.799-68.199 70.799c-26.4 27.4-70.4 33.4-98.602 9.4-37.799-32.4-31.398-84.801-5.398-111.801l172.199-178.199zM496 880c274 0 496-222 496-496s-222-496-496-496-496 222-496 496 222 496 496 496zM496-16c220.6 0 400 179.4 400 400s-179.4 400-400 400-400-179.4-400-400 179.4-400 400-400z" />
<glyph unicode="&#xf4fb;" glyph-name="user-astronaut" horiz-adv-x="896" d="M717.2 238.4c104-37 178.801-134.6 178.801-251.202v-67.199c0-26.6-21.4-48-48-48s-48 21.4-48 48v67.199c0 95.201-77.6 172.801-172.801 172.801h-26c-47-20.4-98.799-32-153.199-32s-106.199 11.6-153.199 32h-26c-95.201 0-172.801-77.6-172.801-172.801v-67.199c0-26.6-21.4-48-48-48s-48 21.4-48 48v67.199c0 116.602 74.801 214.202 178.801 251.202-41 40.4-72.801 90.199-92.4 145.6h-22.4c-17.6 0-32 14.4-32 32v192c0 17.6 14.4 32 32 32h22.4c52.6 149 194.4 256 361.6 256s309-107 361.6-256h22.4c17.6 0 32-14.4 32-32v-192c0-17.6-14.4-32-32-32h-22.4c-19.6-55.4-51.4-105.199-92.4-145.6zM448 224c158.801 0 288 129.199 288 288s-129.199 288-288 288-288-129.199-288-288 129.199-288 288-288zM608 64c35.4 0 64-28.6 64-64v-128h-288v96c0 17.6-14.4 32-32 32s-32-14.4-32-32v-96h-96v128c0 35.4 28.6 64 64 64h320zM544-64c17.6 0 32 14.4 32 32s-14.4 32-32 32-32-14.4-32-32 14.4-32 32-32zM576 640c53 0 96-43 96-96v-32c0-106-86-192-192-192h-64c-106 0-192 86-192 192v32c0 53 43 96 96 96h256zM408 456l72 24-72 24-24 72-24-72-72-24 72-24 24-72z" />
<glyph unicode="&#xf544;" glyph-name="robot" horiz-adv-x="1280" d="M384 80v96h128v-96h-128zM1152 512c52.992 0 96-43.008 96-96v0-256c0-52.992-43.008-96-96-96v0h-64c0-105.984-86.016-192-192-192v0h-512c-105.984 0-192 86.016-192 192v0h-64c-52.992 0-96 43.008-96 96v0 256c0 52.992 43.008 96 96 96v0h64c0 105.984 86.016 192 192 192v0h208v144c0 26.496 21.504 48 48 48s48-21.504 48-48v-144h208c105.984 0 192-86.016 192-192v0h64zM192 160v256h-64v-256h64zM992 64v448c0 52.992-43.008 96-96 96v0h-512c-52.992 0-96-43.008-96-96v0-448c0.154-52.838 43.162-95.846 96-96h512c52.838 0.154 95.846 43.162 96 96zM1152 160v256h-64v-256h64zM480 480c52.988 0 96-43.004 96-95.992v-0.008c0-52.992-43.008-96-96-96s-96 43.008-96 96 43.008 96 96 96zM800 480c52.988 0 96-43.004 96-95.992v-0.008c0-52.992-43.008-96-96-96s-96 43.008-96 96 43.008 96 96 96zM768 80v96h128v-96h-128zM576 80v96h128v-96h-128z" />
<glyph unicode="&#xf54e;" glyph-name="store" horiz-adv-x="1232" d="M1204 658.8c59.199-94.4 20-221.202-76-261.602v-454.798c0-38.801-28.6-70.4-64-70.4h-896c-35.4 0-64 31.6-64 70.4v454.798c-96 40.4-135.199 167.201-76 261.602l129.801 207.2c11.6 18.6 32.199 30 54.199 30h808c22 0 42.6-11.4 54.199-30zM1032-32v192h-832v-192h832zM1031.6 256.4v129.4c-48 6.6-90 30.398-120.6 64.398-36-40.199-88.4-66.199-147.6-66.199-59 0-111.6 26-147.6 66.199-36-40.199-88.4-66.199-147.602-66.199-59 0-111.6 26-147.6 66.199-30.4-34-72.6-57.799-120.6-64.398v-129.4h831.6zM1127.4 522.4c10.199 21.6 14.199 55.199-4.801 85.4l-120.4 192.199h-772.6l-120.4-192.199c-18.799-30-14.6-63.602-4.6-85.201 6.4-13.799 22-37.199 54-41.6 4.6-0.6 9.4-1 14.4-1 29.199 0 56.4 12.199 76.199 34.4l71.4 79.6 71.6-79.6c19.801-22.201 46.801-34.4 76.201-34.4 29.199 0 56.4 12.199 76.199 34.4l71.4 79.6 71.6-79.6c19.801-22.201 47-34.4 76.201-34.4 29.199 0 56.398 12.199 76.199 34.4l71.4 79.6 71.4-79.801c19.799-22.199 46.799-34.398 76.199-34.398 4.801 0 9.6 0.398 14.4 1 32.199 4.398 47.6 28 54 41.6z" />
<glyph unicode="&#xf577;" glyph-name="fingerprint" d="M512.24 404.080c26.52 0 48-21.5 47.98-48 3.119-198.221-31.9-353.22-58.961-449.042-5.959-21.199-25.221-35.039-46.18-35.039-41.939 0-51.699 41.539-46.24 60.98 39.121 139.299 57.68 278.6 55.4 423.1 0 26.52 21.5 48 48 48zM510.52 567.54c113.941-1.68 208.060-93.84 209.82-205.44 1.58-101.799-5.98-204.16-22.539-304.218-1.541-9.342-15.221-46.201-55.16-39.541-26.141 4.32-43.861 29.041-39.521 55.16 15.602 94.439 22.762 191 21.221 287.1-0.939 60.26-52.619 110-115.24 110.939-69.061 0.301-109.719-52.779-108.9-104.68 1.602-102.879-8.059-205.86-28.738-306.040-5.381-25.961-30.621-42.621-56.721-37.281-25.939 5.342-42.66 30.762-37.279 56.721 19.238 93.279 28.238 189.221 26.738 285.1-1.699 108.041 83.801 202.32 206.32 202.18zM289.14 607.1c20.559-16.74 23.68-46.959 6.979-67.52-37.6-46.18-56.939-102.18-56-161.939 1.281-81.34-5.34-162.98-19.719-242.66-1.641-9.1-15.561-45.721-55.781-38.721-26.1 4.721-43.398 29.68-38.719 55.779 13.279 73.561 19.4 148.941 18.219 224.102-1.279 81.439 26.262 161 77.5 224 16.781 20.559 46.92 23.639 67.521 6.959zM508.080 731.76c202.18-3 369.2-166.16 372.32-363.66 0.123-7.957 0.223-20.875 0.223-28.834 0-58.387-5.377-152.855-12.004-210.866-2.139-18.461-19.719-46.121-53.158-42.221-26.32 3-45.221 26.82-42.221 53.16 8.6 75.041 12.34 151.5 11.16 227.26-2.301 146.16-126.9 266.9-277.76 269.16-23.061 0.16-45.9-2.16-68-7.379-25.781-6-51.66 9.879-57.781 35.658-6.080 25.82 9.881 51.66 35.66 57.781 29.82 7.061 60.74 10.76 91.561 9.939zM1012.22 488.86c12.459-56.459 12.020-100.32 11.66-144.68-0.221-26.379-21.66-47.6-48-47.6h-0.4c-26.5 0.221-47.82 21.859-47.6 48.4 0.42 48.379 0.020 80.379-9.4 123.199-5.721 25.9 10.639 51.5 36.52 57.221 26.199 5.859 51.5-10.701 57.221-36.541zM931.98 670.3c15.24-21.682 10-51.621-11.68-66.861-21.721-15.18-51.621-10-66.84 11.721-79.781 113.66-210.342 182.721-349.24 184.779-112.682 1.621-217.84-40.119-295.362-117.719-74.24-74.281-114.219-173-112.559-278l-0.32-47.281c-0.76-26-22.1-46.6-47.941-46.6-0.479 0-0.979 0-1.439 0.041-26.5 0.76-47.34 22.879-46.561 49.379l0.24 42.939c-2.080 131.221 47.9 254.56 140.641 347.42 96.020 96.061 225.12 147.521 364.7 145.842 169.58-2.541 328.96-86.881 426.362-225.66z" />
<glyph unicode="&#xf59a;" glyph-name="laugh-beam" horiz-adv-x="992" d="M496 880c274 0 496-222 496-496s-222-496-496-496-496 222-496 496 222 496 496 496zM778.8 101.199c75.6 75.602 117.199 176 117.199 282.8s-41.6 207.2-117.199 282.8c-75.602 75.6-176 117.199-282.8 117.199s-207.2-41.6-282.8-117.199c-75.6-75.602-117.199-176-117.199-282.8s41.6-207.2 117.199-282.8c75.602-75.6 176-117.199 282.8-117.199s207.2 41.6 282.8 117.199zM656 592c47.6 0 105.4-58.6 111.6-142.801 1.4-17-21.6-23.799-29.799-9l-19 34c-15.4 27.4-38.4 43.201-63 43.201-24.602 0-47.602-15.801-63-43.201l-19-34c-8.201-14.799-31.201-8.199-29.801 9 6.6 84.201 64.4 142.801 112 142.801zM254 440.2c-8.4-14.799-31.4-8-30.199 9 6.6 84.201 64.398 142.801 112 142.801 47.6 0 105.398-58.6 112-142.801 1.398-17-21.602-23.799-29.801-9l-19 34c-15.4 27.4-38.4 43.201-63 43.201s-47.6-15.801-63-43.201zM724.8 320c16.398 0 29-14 27-30-15-118.4-117.801-210-242.202-210h-27.199c-124.4 0-227.202 91.6-242.202 210-2 16 10.602 30 27 30h457.602z" />
<glyph unicode="&#xf5a9;" glyph-name="paint-brush" d="M978.34 607.9l-404.519-444.919c5.959-56.9-3.4-290.98-285.82-290.98-202.66 0-288 162.84-288 348.16 22.020-15.041 99.32-77.301 124.301-77.301 14.818 0 27.52 8.461 32.818 22.441 46.48 122.5 128.42 156.879 218.682 162.68l331.878 496.32c35.621 50.818 82.58 71.699 129.359 71.699 129.521 0 257.842-160.039 141.301-288.1zM786.3 769.2l-309.5-462.898 55.52-46.262 374.958 412.442c21.26 23.34 25.92 44.559 15.201 68.82-14.301 32.359-52.641 58.699-85.441 58.699-12.52 0-31.379-3.199-50.738-30.801zM288-32c215.5 0 191.699 174.76 187.24 214.62l-61.881 51.58c-129.979-8.379-146.398-50.080-166.459-102.959-18.041-47.621-60.881-79.621-111.020-83.9 28.059-45.6 74.92-79.34 152.119-79.34z" />
<glyph unicode="&#xf5b9;" glyph-name="smile-plus" horiz-adv-x="1280" d="M416 704c229.8 0 416-186.199 416-416s-186.199-416-416-416-416 186.199-416 416 186.199 416 416 416zM416-32c176.4 0 320 143.6 320 320s-143.6 320-320 320-320-143.6-320-320 143.6-320 320-320zM539.6 216.4c17.201 20.199 47.4 22.4 67.4 5.4 20.199-17.201 22.6-47.4 5.4-67.602-48.801-57.199-120.4-90-196.4-90s-147.6 32.801-196.4 90c-17 20-14.799 50.4 5.4 67.602 20 17 50.199 14.799 67.6-5.4 61.201-71.6 185.801-71.6 247 0zM288 320c-35.4 0-64 28.6-64 64s28.6 64 64 64 64-28.6 64-64-28.6-64-64-64zM544 320c-35.4 0-64 28.6-64 64s28.6 64 64 64 64-28.6 64-64-28.6-64-64-64zM1248 720c17.6 0 32-14.4 32-32v-32c0-17.6-14.4-32-32-32h-144v-144c0-17.6-14.4-32-32-32h-32c-17.6 0-32 14.4-32 32v144h-144c-17.6 0-32 14.4-32 32v32c0 17.6 14.4 32 32 32h144v144c0 17.6 14.4 32 32 32h32c17.6 0 32-14.4 32-32v-144h144z" />
<glyph unicode="&#xf5d2;" glyph-name="atom" horiz-adv-x="896" d="M878.44 639.38c37.9-67.961 12.781-161.021-59.459-255.38 72.24-94.359 97.359-187.439 59.459-255.38-61-109.219-229.44-77.979-244.94-75.639-40.5-106.561-102.801-180.98-185.5-180.98s-145 74.4-185.5 180.98c-15.439-2.34-183.939-33.6-244.94 75.639-37.9 67.961-12.781 161.021 59.439 255.38-72.221 94.359-97.34 187.42-59.439 255.38 59.92 107.279 224.478 79.059 245.058 75.939 40.5 106.42 102.762 180.68 185.381 180.68s144.9-74.279 185.4-180.721c20.539 3.121 185.119 31.42 245.040-75.898zM101.52 175.381c20.061-36.061 91.961-34 132.74-29.16-7.561 32.299-13.66 65.979-17.98 100.52-26.818 20.98-51.5 42.459-73.818 64.279-41.801-59.039-55.721-109.18-40.941-135.639zM216.28 521.28c3.516 28.049 11.588 73.154 18.021 100.682-97.74 11.619-125.42-16.080-132.781-29.32-14.779-26.461-0.859-76.602 40.941-135.641 22.318 21.801 47 43.301 73.818 64.279zM448 800c-28.539 0-63.34-38.52-91.619-107.020 29.959-9.16 60.479-20.041 91.658-33.58 31.16 13.52 61.66 24.379 91.602 33.539-28.281 68.521-63.080 107.061-91.641 107.061zM448-32c28.52 0 63.26 38.439 91.52 106.779-29.859 9.141-60.459 20.541-91.52 34.021-31.061-13.48-61.68-24.881-91.52-34.021 28.26-68.34 63-106.779 91.52-106.779zM588.72 298.52c6.139 76.721 2.74 136.801 0 170.961-59.941 42.799-103.281 65.639-140.721 84-37.32-18.301-80.68-41.121-140.721-84-6.139-76.721-2.74-136.801 0-170.961 59.941-42.799 103.58-65.799 140.721-84.020 37.199 18.24 80.82 41.26 140.721 84.020zM794.48 175.381c14.76 26.459 0.859 76.6-40.941 135.639-22.318-21.799-47-43.299-73.818-64.279-4.32-34.541-10.42-68.221-17.98-100.52 40.9-4.84 112.699-6.861 132.74 29.16zM753.52 456.98c41.82 59.039 55.721 109.18 40.941 135.619-7.361 13.24-35.041 40.939-132.781 29.32 6.436-27.52 14.508-72.615 18.020-100.66 26.82-20.98 51.5-42.459 73.82-64.279zM448 448c35.381 0 64.080-28.66 64.080-64s-28.68-64-64.080-64-64.080 28.66-64.080 64 28.699 64 64.080 64z" />
<glyph unicode="&#xf5eb;" glyph-name="directions" d="M1005.22 429.36c25.039-25.059 25.039-65.66 0-90.719l-447.862-447.862c-12.52-12.52-28.939-18.779-45.359-18.779s-32.84 6.26-45.359 18.779l-447.862 447.862c-25.039 25.059-25.039 65.66 0 90.719l447.862 447.862c12.52 12.52 28.939 18.779 45.359 18.779s32.84-6.26 45.359-18.779zM512-18.801l402.8 402.8-402.8 402.8-402.8-402.8zM320 400c0 35.34 28.66 64 64 64h192v107.461c0 9.6 7.859 16.039 16.1 16.039 3.74 0 7.561-1.34 10.76-4.279l168.42-155.461c6.861-6.34 6.861-17.18 0-23.52l-168.42-155.461c-3.199-2.959-7.020-4.279-10.76-4.279-8.24 0-16.1 6.439-16.1 16.039v107.461h-160v-128c0-8.84-7.16-16-16-16h-64c-8.84 0-16 7.16-16 16v160z" />
<glyph unicode="&#xf5f2;" glyph-name="engine-warning" horiz-adv-x="1280" d="M640 832c247.4 0 448-200.6 448-448 0-247.52-200.6-448-448-448s-448 200.48-448 448c0 247.4 200.6 448 448 448zM640 32c194.1 0 352 157.9 352 352s-157.9 352-352 352-352-157.9-352-352 157.9-352 352-352zM640 256c35.34 0 64-28.66 64-64s-28.66-64-64-64-64 28.66-64 64 28.66 64 64 64zM684.64 640c18.939 0 33.719-16.34 31.84-35.18l-25.6-256c-1.641-16.359-15.4-28.82-31.842-28.82h-38.078c-16.441 0-30.201 12.461-31.842 28.82l-25.6 256c-1.879 18.84 12.9 35.18 31.84 35.18h89.281zM96 384c0-119.061 39.1-234.74 110.68-329.040 10.34-13.641 8.939-32.621-4.080-43.721l-24.379-20.801c-13.84-11.779-35.24-10.1-46.301 4.32-85.279 111.32-131.92 248.3-131.92 389.24 0 141 46.641 277.96 131.961 389.26 11.059 14.42 32.479 16.1 46.299 4.301l24.4-20.82c13.020-11.1 14.42-30.1 4.061-43.721-71.621-94.26-110.721-209.958-110.721-329.020zM1145.46 776.58c86.959-111.9 134.539-250.042 134.539-392.58 0-142.619-47.58-280.76-134.52-392.64-11.16-14.359-32.6-15.898-46.34-4l-24.301 21c-12.939 11.201-14.199 30.18-3.76 43.74 73 94.76 112.92 211.44 112.92 331.9 0 120.381-39.92 237.060-112.939 331.82-10.441 13.561-9.18 32.539 3.76 43.74l24.299 21.020c13.762 11.9 35.182 10.359 46.342-4z" />
<glyph unicode="&#xf626;" glyph-name="tachometer" horiz-adv-x="1152" d="M800 416c-35.34 0-64 28.66-64 64s28.66 64 64 64 64-28.66 64-64-28.66-64-64-64zM256 320c35.34 0 64-28.66 64-64s-28.66-64-64-64-64 28.66-64 64 28.66 64 64 64zM576 512c-35.34 0-64 28.66-64 64s28.66 64 64 64 64-28.66 64-64-28.66-64-64-64zM886.56 303.060c25.879 5.559 51.299-11.66 56.5-37.66 5.199-26-11.621-51.281-37.621-56.461l-204.82-40.959c-2.898-14.201-7.279-27.82-14.359-39.98h-220.5c-11 18.9-17.76 40.561-17.76 64 0 70.699 57.301 128 128 128 44.699 0 83.92-22.98 106.82-57.699zM352 544c35.34 0 64-28.66 64-64s-28.66-64-64-64-64 28.66-64 64 28.66 64 64 64zM576 832c318.12 0 576-257.88 576-576 0-105.6-28.5-204.52-78.119-289.6-11.221-19.24-32.602-30.4-54.881-30.4h-886c-22.279 0-43.66 11.16-54.881 30.4-49.619 85.080-78.119 184-78.119 289.6 0 318.12 257.88 576 576 576zM1000.54 32c36.342 68.74 55.461 145.76 55.461 224 0 264.68-215.32 480-480 480s-480-215.32-480-480c0-78.24 19.119-155.26 55.461-224h849.078z" />
<glyph unicode="&#xf643;" glyph-name="analytics" horiz-adv-x="1216" d="M832 256c35.34 0 64-28.66 64-64v-256c0-35.34-28.66-64-64-64h-128c-35.34 0-64 28.66-64 64v256c0 35.34 28.66 64 64 64h128zM800-32v192h-64v-192h64zM1152 512c35.34 0 64-28.66 64-64v-512c0-35.34-28.66-64-64-64h-128c-35.34 0-64 28.66-64 64v512c0 35.34 28.66 64 64 64h128zM1120-32v448h-64v-448h64zM512 512c35.34 0 64-28.66 64-64v-512c0-35.34-28.66-64-64-64h-128c-35.34 0-64 28.66-64 64v512c0 35.34 28.66 64 64 64h128zM480-32v448h-64v-448h64zM192 192c35.34 0 64-28.66 64-64v-192c0-35.34-28.66-64-64-64h-128c-35.34 0-64 28.66-64 64v192c0 35.34 28.66 64 64 64h128zM160-32v128h-64v-128h64zM128 384c-53.020 0-96 42.98-96 96s42.98 96 96 96c8.539 0 16.68-1.48 24.561-3.561l203 203c-2.080 7.881-3.561 16.021-3.561 24.561 0 53.020 42.98 96 96 96s96-42.98 96-96c0-4.859-0.721-9.539-1.42-14.199l190.641-152.521c10.818 4.221 22.459 6.74 34.76 6.74 12.299 0 23.959-2.52 34.76-6.74l190.68 152.541c-0.68 4.66-1.42 9.32-1.42 14.18 0 53.020 42.98 96 96 96s96-42.98 96-96-42.98-96-96-96c-12.301 0-23.939 2.52-34.721 6.721l-190.68-152.541c0.68-4.66 1.42-9.32 1.42-14.18 0-53.020-42.98-96-96-96s-96 42.98-96 96c0 4.859 0.721 9.539 1.42 14.199l-190.68 152.541c-10.82-4.221-22.459-6.74-34.76-6.74-8.539 0-16.68 1.48-24.561 3.561l-203-203c2.080-7.881 3.561-16.021 3.561-24.561 0-53.020-42.98-96-96-96z" />
<glyph unicode="&#xf659;" glyph-name="file-chart-line" horiz-adv-x="768" d="M262.4 256c12.799 0 25.6-12.801 25.6-25.6v-140.801c0-12.799-12.801-25.6-25.6-25.6h-44.801c-12.799 0-25.6 12.801-25.6 25.6v140.801c0 12.799 12.801 25.6 25.6 25.6h44.801zM406.4 384c12.799 0 25.6-12.801 25.6-25.6v-268.8c0-12.799-12.801-25.6-25.6-25.6h-44.801c-12.799 0-25.6 12.801-25.6 25.6v268.8c0 12.799 12.801 25.6 25.6 25.6h44.801zM505.6 64c-12.799 0-25.6 12.801-25.6 25.6v204.8c0 12.799 12.801 25.6 25.6 25.6h44.801c12.799 0 25.6-12.801 25.6-25.6v-204.8c0-12.799-12.801-25.6-25.6-25.6h-44.801zM739.66 700.040c18-18 28.34-42.6 28.34-67.979v-664.080c0-52.98-43.141-95.98-96.141-95.98h-575.878c-52.98 0-95.98 43-95.98 95.98v831.84c0 52.98 43 95.98 95.98 96.18h408.12c25.381 0 49.781-10.199 67.781-28.199zM511.9 792.020v-152.16h152.18zM672-32.020v575.9h-208.080c-26.6 0-48 21.379-48 47.979v207.96h-319.94v-831.84h576.020z" />
<glyph unicode="&#xf6b8;" glyph-name="book-spells" horiz-adv-x="896" d="M896 128c0-15.6-11-28.4-25.801-31.4-8.398-26-8.398-103.199 0-129.199 14.602-2.801 25.801-15.801 25.801-31.4v-32c0-17.6-14.4-32-32-32h-704c-88.4 0-160 71.6-160 160v704c0 88.4 71.6 160 160 160h704c17.6 0 32-14.4 32-32v-736zM788-32c-5.4 34.6-5.4 93.4 0 128h-628c-35.199 0-64-28.801-64-64 0-35.4 28.6-64 64-64h628zM800 192v608h-640c-35.4 0-64-28.6-64-64v-557.4c19.6 8.6 41.199 13.4 64 13.4h640zM490.68 362.66l-106.68 53.34 106.68 53.34 53.32 106.66 53.32-106.66 106.68-53.34-106.68-53.34-53.32-106.66zM320 496l-37.34 74.66-74.66 37.34 74.66 37.34 37.34 74.66 37.32-74.66 74.68-37.34-74.68-37.34z" />
<glyph unicode="&#xf737;" glyph-name="clipboard-list-check" horiz-adv-x="768" d="M252.4 323.2c-4.201-4.199-11-4.199-14.801 0l-74.199 74.801c-4.201 4.199-4.201 11 0 15.199l25.4 25.201c4.199 4.199 11 4.199 15.199 0l41.199-41.801 95.201 94.4c4.199 4.199 11 4.199 15.199 0l25.201-25.4c4.199-4.199 4.199-11 0-15.199zM672 768c53 0 96-43 96-96v-704c0-53-43-96-96-96h-576c-53 0-96 43-96 96v704c0 53 43 96 96 96h160c0 70.6 57.4 128 128 128s128-57.4 128-128h160zM384 800c-17.6 0-32-14.4-32-32s14.4-32 32-32 32 14.4 32 32-14.4 32-32 32zM672-16v672c0 8.801-7.199 16-16 16h-80v-64c0-17.6-14.4-32-32-32h-320c-17.6 0-32 14.4-32 32v64h-80c-8.801 0-16-7.199-16-16v-672c0-8.801 7.199-16 16-16h544c8.801 0 16 7.199 16 16zM224 240c26.6 0 48-21.4 48-48s-21.4-48-48-48-48 21.4-48 48 21.4 48 48 48zM560 416c8.801 0 16-7.199 16-16v-32c0-8.801-7.199-16-16-16h-187.6l53.6 53c3.199 3.199 4.801 7.4 7.4 11h126.6zM560 224c8.801 0 16-7.199 16-16v-32c0-8.801-7.199-16-16-16h-224c-8.801 0-16 7.199-16 16v32c0 8.801 7.199 16 16 16h224z" />
<glyph unicode="&#xf755;" glyph-name="moon-stars" d="M811.6 148.4c13.801 0 25.201-14.801 18.4-29-55.199-115.6-160-203.4-290.6-235-34.6-8.4-69.4-12.4-103.6-12.4-196.4 0-374.602 132.6-423.202 330-57.199 232 86.201 465.8 320 522.4 25.801 6.199 52.4 10 79 11.6h1.201c18.199 0 27.398-22.4 14-35-89.4-83.801-126.602-208.2-97.4-326.6 38.799-157 180.199-258.6 332-258.6 47 0 95.199 9.799 141.6 30.799 3 1.201 5.801 1.801 8.6 1.801zM516.8-22.199c37.398 9 72.199 23.799 103.6 44-184.6 17-339.4 147.6-384.202 329.6-19 77-16 156.4 6.602 230-39.4-26.801-72.801-61.801-98.201-103.6-46.4-76.4-60.199-166.201-38.799-252.8 37.199-151.4 173-257 330-257 27 0 54.398 3.4 81 9.801zM917.4 533.4l106.6-53.4-106.6-53.4-53.4-106.6-53.4 106.6-106.6 53.4 106.6 53.4 53.4 106.6zM608 704l-32 64-64 32 64 32 32 64 32-64 64-32-64-32z" />
<glyph unicode="&#xf7ea;" glyph-name="brackets-curly" horiz-adv-x="1152" d="M416 832c17.664 0 32-14.336 32-32v-32c0-17.664-14.336-32-32-32h-176c-8.832 0-16-7.168-16-16v-154.961c-0.008-40.246-23.105-96.014-51.561-124.479l-56.58-56.561 56.58-56.561c28.455-28.465 51.553-84.232 51.561-124.479v-154.961c0-8.832 7.168-16 16-16h176c17.664 0 32-14.336 32-32v-32c0-17.664-14.336-32-32-32h-176c-61.824 0-112 50.176-112 112v154.961c-0.021 18.301-10.559 43.639-23.52 56.559l-90.48 90.48c-7.793 7.766-14.117 22.998-14.117 34s6.324 26.234 14.117 34l90.561 90.439c12.938 12.936 23.439 38.281 23.439 56.578v154.982c0 61.824 50.176 112 112 112h176zM1138 418c7.793-7.766 14.117-22.998 14.117-34s-6.324-26.234-14.117-34l-90.561-90.439c-12.938-12.936-23.439-38.281-23.439-56.578v-154.982c0-61.824-50.176-112-112-112h-176c-17.664 0-32 14.336-32 32v32c0 17.664 14.336 32 32 32h176c8.832 0 16 7.168 16 16v154.979c0 40.246 23.1 96.006 51.561 124.461l56.559 56.561-56.559 56.561c-28.461 28.455-51.561 84.215-51.561 124.461v154.979c0 8.832-7.168 16-16 16h-176c-17.664 0-32 14.336-32 32v32c0 17.664 14.336 32 32 32h176c61.824 0 112-50.176 112-112v-154.961c0.031-18.291 10.559-43.631 23.5-56.559z" />
<glyph unicode="&#xf808;" glyph-name="head-side-brain" d="M1018.42 346c3.527-7.934 5.518-16.766 5.518-26 0-35.303-28.643-63.967-63.938-64h-64v-128c0-70.645-57.355-128-128-128h-64v-96c0-17.662-14.338-32-32-32h-32c-17.662 0-32 14.338-32 32v192h160c17.662 0 32 14.338 32 32v224h112.52c-12.279 32.42-24.9 69.619-38 108.26-24.639 72.66-58.359 172.18-80.76 204-57.936 82.229-153.43 135.697-261.56 135.74h-134.199c-111.779 0-219.6-57.561-270.28-157.16-61.84-121.561-29.5-260.84 64.279-345l32-28.619v-365.22c0-17.662-14.338-32-32-32h-32c-17.662 0-32 14.338-32 32v322.36c-78.633 70.096-128.016 171.846-128.016 285.37 0 5.080 0.1 10.139 0.295 15.172 7.961 208.94 190.66 369.1 399.72 369.1h132.18c140.613 0 264.794-69.543 340.080-176.5 49.279-70.039 104.279-279.26 146.16-373.5zM627.2 512h-84.26c4.65-9.678 7.344-20.58 7.461-32 0-42.387-34.414-76.801-76.801-76.801-8.982 0.232-17.652 2.061-25.6 5.16v-88.359h-102.4v88.359c-7.947-3.1-16.617-4.928-25.6-5.16-42.387 0-76.801 34.414-76.801 76.801 0 1.76 0.9 3.24 1.021 4.961-30.221 10.359-52.221 38.158-52.221 71.84 0 42.387 34.412 76.799 76.801 76.799 0 42.387 34.412 76.801 76.799 76.801 14.18 0 26.76-4.9 38.18-11.621 13.541 21.861 36.621 37.221 64.221 37.221s50.699-15.359 64.24-37.221c11.4 6.721 23.959 11.621 38.16 11.621 33.143-0.16 61.295-21.51 71.6-51.201h5.199c42.42 0 76.801-32.959 76.801-73.6 0-40.639-34.381-73.6-76.801-73.6z" />
<glyph unicode="&#xf890;" glyph-name="sparkles" d="M648.84 689.68c-5.26 2.623-8.879 8.039-8.879 14.311 0 6.273 3.619 11.707 8.879 14.33l119.16 49.68 49.68 119.16c2.623 5.26 8.039 8.879 14.311 8.879s11.707-3.619 14.33-8.879l49.68-119.16 119.16-49.68c5.26-2.623 8.879-8.039 8.879-14.311s-3.619-11.707-8.879-14.33l-119.16-49.68-49.68-119.16c-2.623-5.26-8.039-8.879-14.311-8.879s-11.707 3.619-14.33 8.879l-49.68 119.16zM1015.16 78.32c5.26-2.623 8.879-8.039 8.879-14.311s-3.619-11.707-8.879-14.33l-119.16-49.68-49.68-119.16c-2.623-5.26-8.039-8.879-14.311-8.879s-11.707 3.619-14.33 8.879l-49.68 119.16-119.16 49.68c-5.26 2.623-8.879 8.039-8.879 14.311s3.619 11.707 8.879 14.33l119.16 49.68 49.68 119.16c2.623 5.26 8.039 8.879 14.311 8.879s11.707-3.619 14.33-8.879l49.68-119.16zM768 384c-0.002-18.805-10.795-35.068-26.561-42.939l-209.7-104.84-104.801-209.702c-7.873-15.76-24.109-26.596-42.912-26.596s-35.094 10.836-42.967 26.596l-104.82 209.702-209.68 104.84c-15.762 7.873-26.596 24.109-26.596 42.912s10.834 35.094 26.596 42.967l209.68 104.84 104.82 209.682c16.26 32.5 69.619 32.5 85.879 0l104.801-209.682 209.7-104.84c15.766-7.871 26.559-24.135 26.561-42.939zM474.56 314.94l138.119 69.061-138.119 69.061c-9.316 4.645-16.84 12.154-21.5 21.459l-69.061 138.141-69.061-138.141c-4.66-9.305-12.184-16.814-21.5-21.459l-138.119-69.061 138.119-69.061c9.318-4.648 16.842-12.166 21.5-21.479l69.061-138.121 69.061 138.121c4.658 9.313 12.182 16.83 21.5 21.479z" />
<glyph unicode="&#xf94b;" glyph-name="user-robot" horiz-adv-x="896" d="M544 480c-35.326 0-64 28.67-64 63.996v0.004c0 35.328 28.672 64 64 64s64-28.672 64-64-28.672-64-64-64zM416 352v64h64v-64h-64zM544 352v64h64v-64h-64zM750.976 281.528c83.195-21.047 145.023-95.789 145.023-185.527v-96c0-70.654-57.346-128-128-128h-640c-70.654 0-128 57.346-128 128v96c0 89.738 61.828 164.48 145.023 185.527-9.273 18.346-16.9 49.918-17.023 70.473v32h-60.041c-19.85 0-35.959 16.109-35.959 35.959v120.084c0 19.848 16.109 35.957 35.957 35.957h60.043v32.002c0 88.318 71.68 159.998 159.998 159.998h112.002v80c0 26.496 21.504 48 48 48s48-21.504 48-48v-80h112.002c88.318 0 159.998-71.68 159.998-159.998v-32.002h60.043c19.848 0 35.957-16.109 35.957-35.957v-120.084c0-19.85-16.109-35.959-35.959-35.959h-60.041v-32c-0.123-20.555-7.75-52.127-17.023-70.473zM224 608v-256c0.041-35.287 28.713-63.959 64-64h320c35.287 0.041 63.959 28.713 64 64v256c-0.041 35.287-28.713 63.959-64 64h-320c-35.287-0.041-63.959-28.713-64-64zM416-32v64c0 17.664-14.336 32-32 32s-32-14.336-32-32v-64h64zM544 0c17.664 0 32 14.336 32 32s-14.336 32-32 32-32-14.336-32-32 14.336-32 32-32zM800 0v96c-0.061 52.932-43.068 95.939-96 96h-512c-52.932-0.061-95.939-43.068-96-96v-96c0.020-17.645 14.355-31.98 32-32h128v96.002c0 35.326 28.672 63.998 63.998 63.998h256.004c35.326 0 63.998-28.672 63.998-63.998v-96.002h128c17.645 0.020 31.98 14.355 32 32zM352 480c-35.326 0-64 28.67-64 63.996v0.004c0 35.328 28.672 64 64 64s64-28.672 64-64-28.672-64-64-64zM352 416v-64h-64v64h64z" />
</font>
</defs>
</svg>
