<svg xmlns="http://www.w3.org/2000/svg" viewBox="0 0 64 59.52"><defs><style>.a{fill:#e34f43;}</style></defs><title>AffiliateWP icon - Uncanny Automator</title><path class="a" d="M51.64,37a14.07,14.07,0,0,0-1.72.13L41.78,22.52a12.36,12.36,0,1,0-19-.13L14.24,37.2A11.73,11.73,0,0,0,12.36,37a12.39,12.39,0,1,0,9.58,4.57L30.43,26.8a12.88,12.88,0,0,0,1.88.16A13.76,13.76,0,0,0,34,26.83l8.15,14.65A12.35,12.35,0,1,0,51.64,37ZM32.31,10.37a4.23,4.23,0,1,1-4.23,4.23A4.24,4.24,0,0,1,32.31,10.37Zm-20,43.26a4.23,4.23,0,1,1,4.23-4.23A4.24,4.24,0,0,1,12.36,53.63Zm39.28,0a4.23,4.23,0,1,1,4.23-4.23A4.24,4.24,0,0,1,51.64,53.63Z" transform="translate(0 -2.24)"/></svg>