<svg xmlns="http://www.w3.org/2000/svg" viewBox="0 0 128 128"><defs><style>.a{fill:#3f3c3c;}</style></defs><title>bbPress icon - Uncanny Automator</title><path class="a" d="M57.49,127.66a65,65,0,0,1-41.55-21.41,64,64,0,0,1,0-84.55A66.09,66.09,0,0,1,36.12,6.39a64,64,0,0,1,63.39,4.39,63.08,63.08,0,0,1,17.81,17.85,64,64,0,0,1-59.83,99Zm16.21-3.25a61,61,0,0,0,41.15-26.54,60.47,60.47,0,0,0,0-67.8,61.28,61.28,0,0,0-42-26.7,89.07,89.07,0,0,0-17.66,0,61.94,61.94,0,0,0-41.91,26.5,60.45,60.45,0,0,0-9.06,47,61.51,61.51,0,0,0,44.26,46.26,66.93,66.93,0,0,0,6.71,1.39L59,125A95.55,95.55,0,0,0,73.7,124.41Zm-15.18-5.75a59.84,59.84,0,0,1-23.44-8l-1.37-.85,2-.23c6.09-.72,13.32-4.31,18.15-9L56,98.41l.94,1.84a19.41,19.41,0,0,0,7.55,7.26,20.93,20.93,0,0,0,10.27,2.23c8.81,0,16.5-3.43,23.21-10.42a28.74,28.74,0,0,0,8-15.38c2.14-11.27-2.71-20.19-12.19-22.42a23.1,23.1,0,0,0-9.69,0,38.49,38.49,0,0,0-9.26,4.27c-.63.48-1.15.71-1.15.51s1.83-8.83,4.06-19.17,4.06-19.32,4.06-20c0-1.55-.51-1.69-3.8-1-1.5.3-5.59.88-9.09,1.29-8,.95-8.8,1.15-9.33,2.41a2.6,2.6,0,0,0,1,3.22,7.54,7.54,0,0,0,2.62.38,4.13,4.13,0,0,1,2.89.76c1,.75,1,.83.82,3.8-.1,2-1.15,7.57-3.1,16.45-1.62,7.38-3,13.47-3,13.53a13.71,13.71,0,0,1-1.89-1.81C54.72,61.74,47.47,59.85,41,61.51a34.55,34.55,0,0,0-8.81,4.05,5.42,5.42,0,0,1-1.6.92c0-.09,1.91-9,4.25-19.81,4.61-21.37,4.6-21.28,2.35-20.89-4.29.74-13.5,2-13.93,1.93-.85-.17,6.13-6.61,9.83-9.09a56.17,56.17,0,0,1,20.56-8.57,63.26,63.26,0,0,1,20.64,0c22.22,4.46,38.76,20.86,43.6,43.24,1.14,5.26,1.14,16.11,0,21.37A55,55,0,0,1,74.5,117.84a78.69,78.69,0,0,1-16,.82ZM30,104.16c-3.19-1.13-5.34-4.51-5.34-8.42,0-2.89,3.34-18.3,4.47-20.61,4-8.28,15.86-11.57,20.91-5.83,2.32,2.63,3.27,7.22,2.55,12.33-1.67,11.87-7,20.11-14.63,22.48a14.19,14.19,0,0,1-8,0Zm43.31.12c-3.58-1.34-5.55-4.32-5.56-8.42a75.6,75.6,0,0,1,1.73-10.67c1.37-6.51,2-8.75,2.87-10.42,3.85-7.22,13.9-10.69,19.4-6.71,2.8,2,4,5.23,4,10.56-.08,10.85-5.57,21.32-13,24.81a11.16,11.16,0,0,1-5.22,1.22A12,12,0,0,1,73.26,104.28ZM13.31,85.16a66.26,66.26,0,0,1-3.26-10.94,62.83,62.83,0,0,1,0-20.57,57.13,57.13,0,0,1,7-18.19c1.22-2,1.23-2,2.94-2a9.44,9.44,0,0,1,2.59.33c1.18.45,1.78,2.36,1.47,4.71-.2,1.56-9.85,46.35-10.21,47.4-.07.19-.32-.13-.56-.71Z" transform="translate(0 0)"/></svg>