<svg xmlns="http://www.w3.org/2000/svg" viewBox="0 0 128 128"><defs><style>.a{fill:#fff;}.b{fill:#d84800;}</style></defs><title>BuddyPress icon - Uncanny Automator</title><path class="a" d="M126.5,64A62.5,62.5,0,1,1,64,1.5,62.5,62.5,0,0,1,126.5,64Z" transform="translate(0 0)"/><path class="b" d="M58.63.08c-16.75,1.73-31.4,9-42,20.75A64,64,0,0,0,.42,55.61a82.84,82.84,0,0,0,0,16.81,64.05,64.05,0,0,0,109.6,36A63.55,63.55,0,0,0,127.58,72.3a81.65,81.65,0,0,0,0-16.69A64.31,64.31,0,0,0,73,.53,113.77,113.77,0,0,0,58.63.08ZM72.9,3.42a61.16,61.16,0,0,1,37.86,100,61.71,61.71,0,0,1-40.15,21.33,88.39,88.39,0,0,1-13.22,0,67.39,67.39,0,0,1-10.93-2.21A61.25,61.25,0,0,1,3.64,53.67,58.55,58.55,0,0,1,9.11,36.94a61,61,0,0,1,35.69-31,63.27,63.27,0,0,1,15-3A89.31,89.31,0,0,1,72.9,3.42Z" transform="translate(0 0)"/><path class="b" d="M60,9.28a55,55,0,0,0-48.1,37.34,56.39,56.39,0,0,0-1.4,29.6,55.06,55.06,0,0,0,39.2,40.68c5.44,1.43,7.87,1.71,14.27,1.71s8.83-.28,14.27-1.71a54.82,54.82,0,0,0,40.18-46.23,75.37,75.37,0,0,0-.23-15.41,55.44,55.44,0,0,0-5-15.52A54.86,54.86,0,0,0,60,9.28ZM79.18,20.74A19.17,19.17,0,0,1,93.39,33.27a13.92,13.92,0,0,1,.81,5.18,14.66,14.66,0,0,1-.39,5.14A18.9,18.9,0,0,1,82.9,56.5a9.13,9.13,0,0,1-3.13,1s.35-.81.79-1.68a23.19,23.19,0,0,0,0-20.61A23.31,23.31,0,0,0,67.39,23.89l-1.64-.54c-.49-.16,1.8-1.3,4.09-2.05A18.94,18.94,0,0,1,79.18,20.74ZM64.93,27.39a19,19,0,0,1,13.9,15,23,23,0,0,1-.46,8.59A18.61,18.61,0,0,1,68,62.73a16.9,16.9,0,0,1-7.83,1.63A18.53,18.53,0,0,1,42.32,51.22a12.69,12.69,0,0,1-.72-5.41,15.22,15.22,0,0,1,.51-5.14A19.18,19.18,0,0,1,57.3,27,26.22,26.22,0,0,1,64.93,27.39Zm29.2,32.07c7,2.22,11.31,7.59,13.2,16.57.49,2.41,1.1,9.06.86,9.67-.14.32-.7.37-4.25.37a31.5,31.5,0,0,1-4.08-.14,48.94,48.94,0,0,0-1.41-7.31C96.14,70.83,91.1,65,85.21,63.2c-.56-.17-1-.4-1-.49a13.68,13.68,0,0,1,1.68-2.1l1.68-1.92,2.47.14A17.43,17.43,0,0,1,94.13,59.46ZM54.35,71.37l6,5.95,2.15-2.1c1.19-1.15,4.27-4.16,6.84-6.68L74,63.94l1.76.21A22.84,22.84,0,0,1,88.57,70c4,3.75,6.24,8.42,7.2,14.75A61,61,0,0,1,96,95.38l-.14.73H60.36c-25.09,0-35.51-.07-35.6-.26-.33-.49-.42-6.93-.14-9.5C26,73.26,33.12,65.44,44.85,64.18,47.11,63.94,46.13,63.22,54.35,71.37Z" transform="translate(0 0)"/></svg>