<svg xmlns="http://www.w3.org/2000/svg" viewBox="0 0 64 64"><defs><style>.a{fill:#e0613c;}.a,.b{fill-rule:evenodd;}.b{fill:#fefefe;}</style></defs><title>BuddyBoss icon - Uncanny Automator</title><path class="a" d="M64,32A32,32,0,1,1,32,0,32,32,0,0,1,64,32"/><path class="b" d="M19.57,35.16a7.82,7.82,0,0,1,6.23-7.6l-.92,5a15.34,15.34,0,0,0-.26,2.64,14.86,14.86,0,0,0,2,7.74,7.57,7.57,0,0,1-7.08-7.74M39.28,20.33a14.28,14.28,0,0,0-5.32,1l.24-1.3s1.61-7-5-7.4a.68.68,0,0,0-.76.64l-1.3,7a14.21,14.21,0,0,0-5.13,1l.24-1.3s1.62-7-5-7.4a.67.67,0,0,0-.76.64L12.93,32.52a15.34,15.34,0,0,0-.27,2.64A14.46,14.46,0,0,0,27,50,14.9,14.9,0,0,0,41.61,35.16c0-2.2-.51-3.69-1.46-4.56a3.22,3.22,0,0,0-4.6.5c-1,1.34-.84,3.38-.85,4.06a7.92,7.92,0,0,1-1.65,4.73,7.84,7.84,0,0,1,6.14-12.48,7.55,7.55,0,0,1,7.46,7.75A7.87,7.87,0,0,1,43,41.75a4,4,0,0,0-.84.67,4.17,4.17,0,0,0-.54.83,17.25,17.25,0,0,1-5.26,5.9c-.12.09-.34.26-.27.43s.42.21.57.23A13,13,0,0,0,38.9,50,14.9,14.9,0,0,0,53.56,35.16,14.44,14.44,0,0,0,39.28,20.33"/></svg>