<svg xmlns="http://www.w3.org/2000/svg" viewBox="0 0 64 62.87"><defs><style>.a{fill:#fff;}.a,.b,.c,.d,.e,.f,.g,.h{fill-rule:evenodd;}.b{fill:#404041;}.c{fill:#00a69c;}.d{fill:#0e4c45;}.e{fill:#a2bd61;}.f{fill:#f1f1f2;}.g{fill:#7e923c;}.h{fill:#e6e7e8;}</style></defs><title>Caldera Forms icon - Uncanny Automator</title><path class="a" d="M31.92,63.07a31.18,31.18,0,1,1,22-9.13,31.18,31.18,0,0,1-22,9.13" transform="translate(0 -0.56)"/><path class="b" d="M31.92.85A31,31,0,1,1,19.84,3.29,31.06,31.06,0,0,1,31.92.85m0-.28A31.33,31.33,0,1,0,63.24,31.9h0A31.33,31.33,0,0,0,31.92.56" transform="translate(0 -0.56)"/><path class="b" d="M50.69,13.11a18.4,18.4,0,0,1-2.22-3.36c-.32-1-4.68,3.71-5.18,3.69s0,.48-.83,1.14-7.85,4-7.85,4l-2.77-1.67-1.91,1.68L18.77,22.2l-.9.17-1.1-1.55h.1a.31.31,0,0,0,.25-.16.28.28,0,0,0,0-.28l-.94-1.33a.27.27,0,0,0,.11-.41l-.85-1.19a.27.27,0,0,0-.38-.07.23.23,0,0,0-.07.07l-.84,1.19a.26.26,0,0,0,0,.29.23.23,0,0,0,.12.12l-.95,1.32a.28.28,0,0,0,.07.39.3.3,0,0,0,.15,0h.11L12.4,22.54a.29.29,0,0,0,.07.39.3.3,0,0,0,.16.05h1.88l-2.2.38v5.77l15.28,9L55,25.46Z" transform="translate(0 -0.56)"/><path class="c" d="M6.54,31.69c.71,4.36,12.64,6.2,26.61,4.1s24.71-7.35,24-11.71S44.5,17.88,30.53,20,5.82,27.33,6.54,31.7" transform="translate(0 -0.56)"/><path class="d" d="M13.34,33.53c-1.75-1.16-.94-2.54.44-3.7S15.25,29,17,28.57c2.24-.52,2.77-1.14,4.42-2.37,2.12-1.55,2.52-2.7,5.49-2.61,2.18.06,2.62,1,4.73.47L33.88,23a3.46,3.46,0,0,1,3.65.05c1.9,0,4.87-.55,7.17-.38.59,2.62,13.71.55,13.14,1.07-4.46,4-32.52,19.37-39,15.58a15.09,15.09,0,0,1-5.51-5.76" transform="translate(0 -0.56)"/><path class="e" d="M64,28.78s-5-16.53-6.35-16.87-1.16-4.67-2.83-4.67S50,15.75,50,15.75s-1.34,6.68-2.67,6-3.51,2.5-2.84,4.51-4,5.52-6.53,3-5.33,1.67-6,1-2.17.66-2.83,2.08-1.84-.08-2.51-.08-2.17.67-5.85-2-3.17-.17-3.67,0-1.51-1-2-.15-2.83-1.86-2.5-3.68-.78-3.92-1.61-7c0-1.74-.45-3.33-1.68-4l.64.1C9.06,12.47,6.82,9.67,5,7c.31,3.78-1.87,6.09-3,9.5a14.55,14.55,0,0,1,1.87.1c-1,.54-.35.8-.61,1.71-.47,1.64-.84,3.21-1.45,4.83-.9.27-1.72,2.87-1.8,4.05A9.48,9.48,0,0,0,.61,31a5.33,5.33,0,0,0-.1,1A31.33,31.33,0,0,0,63,35.2a41,41,0,0,0,1-6.42" transform="translate(0 -0.56)"/><path class="f" d="M23.68,24.53C22,25,19.23,24,18.06,25.59c.76,1.29,7.66.38,9.23.36a17.78,17.78,0,0,0-4.43.82,33.46,33.46,0,0,1-7,.46c-1.52-1.75,2.88-2.59,3.87-2.86,1.9-.52,11.25-3.95,12.05-2.32A26,26,0,0,1,24.3,24a4.26,4.26,0,0,0-1.74.38" transform="translate(0 -0.56)"/><path class="g" d="M53.34,11.3c.06,3.33.45,6.92,2,6.57a1.69,1.69,0,0,1,1.9.76,11.54,11.54,0,0,1,.39,7.3,1.58,1.58,0,0,1-1.27,1.14c.11,1.88.49,3.62-.46,5.48a1.65,1.65,0,0,1-1.45.82H54c-.52,2.85-1.22,5.47-3.91,7.19-4.23,2.72-9.91,4.85-15,4.7a14.16,14.16,0,0,1-7.69-2.14c-.71-.49-2.09-1.84-3-1.73s-1.86.73-2.87.82c-4,.34-5-3.47-7.09-5.88A1.67,1.67,0,0,1,12,34.84c0-2.67.26-6.28-1.11-8.8-.57.23-1.14.41-1.72.66a1.65,1.65,0,0,1-2-.26,13.86,13.86,0,0,1-2.52-5.78A29.24,29.24,0,1,0,53.34,11.3" transform="translate(0 -0.56)"/><path class="h" d="M24.57,5.23S13.62,7.8,11.65,13c-1.07,2.84,5.12-2.64,12.92-7.76" transform="translate(0 -0.56)"/></svg>