<svg xmlns="http://www.w3.org/2000/svg" viewBox="0 0 64 64"><defs><style>.a{fill:none;}.b,.c{fill:#5c8f30;}.c{fill-rule:evenodd;}</style></defs><title>Events Manager icon - Uncanny Automator</title><rect class="a" width="64" height="64"/><path class="b" d="M44.88,1.56c4.24-.37,8.08,3.49,9,8.72l.58.17,1.05.32C54.75,4.59,50.5,0,45.45,0c-.23,0-.47,0-.7,0-3.64.32-6.68,3.05-8,7.1l1.57.13C39.5,4,42,1.82,44.88,1.56Z"/><path class="b" d="M9.82,10.36c.92-5.26,4.78-9.17,9-8.8,2.92.26,5.39,2.45,6.6,5.73L27,7.15C25.68,3.09,22.64.35,19,0c-.23,0-.47,0-.7,0C13.21,0,9,4.63,8.2,10.85l1.06-.32Z"/><path class="b" d="M27.45,8.66C29,8.55,30.54,8.48,32,8.48s2.81.06,4.27.16l0-.16a13.3,13.3,0,0,1,.39-1.35C35.12,7,33.55,7,32,7s-3.29.07-5,.2c.15.44.28.9.39,1.37Z"/><path class="b" d="M62.72,20.22v-.1c0-1.26-.06-2.46-.06-3.63V13.34l-2.94-1.15c-.19-.07-1.73-.67-4.19-1.42,0,.2,0,.41.07.62,0,0,0,.12,0,.2v0c0,.3,0,.59,0,.87,2.07.65,3.35,1.14,3.51,1.21l2,.76v2.1c0,1.19,0,2.39,0,3.66v.1c.14,6.7.3,14.28-3.19,21.66-4,8.51-12.14,15.05-24.84,20L32,62.35l-1.12-.44C18.19,57,10.05,50.4,6,41.89c-3.5-7.39-3.34-15-3.2-21.7v-.14c0-1.24.05-2.41.05-3.56v-2.1l2-.77c.16-.06,1.33-.5,3.26-1.12,0-.26,0-.54,0-.83,0-.12,0-.2,0-.28l.06-.54c-2.32.72-3.75,1.27-3.92,1.34L1.33,13.33v3.16c0,1.14,0,2.3-.05,3.53v.14C1,33.49.63,51.76,30.35,63.35L32,64l1.68-.65C63.39,51.77,63,33.53,62.72,20.22Z"/><path class="b" d="M36.3,8.64l1.55.12a13.76,13.76,0,0,1,.44-1.5l-1.57-.13a13.3,13.3,0,0,0-.39,1.35Z"/><path class="b" d="M8.12,11.67c0,.29,0,.57,0,.83L9.64,12c0-.08,0-.16,0-.24v-.07c0-.06,0-.13,0-.19,0-.39.09-.78.15-1.16l-.56.17-1.06.32-.06.54C8.13,11.47,8.13,11.55,8.12,11.67Z"/><path class="b" d="M25.9,8.79l1.55-.13,0-.14c-.11-.47-.24-.93-.39-1.37l-1.57.14A13.76,13.76,0,0,1,25.9,8.79Z"/><path class="b" d="M53.9,10.28c.07.41.13.82.17,1.24a.71.71,0,0,0,0,.14,2.62,2.62,0,0,0,0,.28q.84.24,1.56.48c0-.28,0-.57,0-.87v0c0-.08,0-.16,0-.2,0-.21,0-.42-.07-.62l-1.05-.32Z"/><path class="b" d="M45,7.59a2.21,2.21,0,0,0-.88-.12,2.93,2.93,0,0,0-2.28,2l1.57.25A3.68,3.68,0,0,1,45,7.59Z"/><path class="b" d="M19.63,7.47a2.19,2.19,0,0,0-.88.12,3.69,3.69,0,0,1,1.61,2.16l1.57-.25A3,3,0,0,0,19.63,7.47Z"/><path class="b" d="M32,57.15C11.46,48.93,8.06,37.76,7.65,27A127.66,127.66,0,0,1,32,24.39,127.61,127.61,0,0,1,56.35,27C56,37.76,52.6,48.93,32,57.15ZM59.86,20.28c0-1.32,0-2.56,0-3.79v-1.2l-1.12-.44c-.2-.07-2.06-.79-5-1.66a12,12,0,0,1-1.32,5.17,9.53,9.53,0,0,1-1.18,1.73c-.57.65-2.42,2.6-4.35,2.6a3.9,3.9,0,0,1-3.68-4.09,3.93,3.93,0,0,1,3.44-4.08,4.69,4.69,0,0,0,.17-.67c0-.14,0-.29.07-.45a6.52,6.52,0,0,0,0-1.25,3.11,3.11,0,0,0,0-.32,2.66,2.66,0,0,0-.07-.39A72.26,72.26,0,0,0,32,9.8a73,73,0,0,0-15,1.71,3.06,3.06,0,0,0-.05.32,3.11,3.11,0,0,0,0,.32,6.42,6.42,0,0,0,0,1.24l.06.46a5.92,5.92,0,0,0,.18.67,4,4,0,0,1,3.37,4.08,3.79,3.79,0,0,1-3.68,4c-2,0-3.76-1.88-4.28-2.48a8.75,8.75,0,0,1-1.23-1.85,11.9,11.9,0,0,1-1.27-5c-2.8.83-4.57,1.51-4.76,1.58l-1.12.44v1.2c0,1.21,0,2.44-.05,3.73-.28,13.19-.61,29.6,27.25,40.46l.64.25.64-.25C60.49,49.83,60.14,33.45,59.86,20.28Z"/><path class="b" d="M52.76,11.79a.76.76,0,0,0,0-.15C52.3,6.46,48.83,2.54,45,2.88c-2.86.25-5.11,2.8-5.88,6.23.92.1,1.82.22,2.71.34a2.93,2.93,0,0,1,2.28-2,2.21,2.21,0,0,1,.88.12,4.25,4.25,0,0,1,2.39,2.87,6.92,6.92,0,0,1,.28,1.25c0,.12,0,.24.05.37a7.45,7.45,0,0,1,0,1.42c0,.17,0,.34-.07.51a5.28,5.28,0,0,1-.56,1.61A3.23,3.23,0,0,1,45.81,17a2.17,2.17,0,0,1-.85.27,2,2,0,0,1-.43,0,3.31,3.31,0,0,0-.29,1.38,2.82,2.82,0,0,0,2.53,3h0a5.5,5.5,0,0,0,3.69-2.07,8.89,8.89,0,0,0,1.06-1.58A11,11,0,0,0,52.8,13C52.81,12.61,52.79,12.2,52.76,11.79Z"/><path class="c" d="M18.74,2.88c-3.83-.34-7.3,3.58-7.75,8.76,0,.08,0,.15,0,.23,0,.39,0,.77,0,1.15a11.1,11.1,0,0,0,1.18,4.82,8.74,8.74,0,0,0,1.11,1.68c.7.8,2.41,2.07,3.62,2.07H17a2.84,2.84,0,0,0,2.49-3,3.43,3.43,0,0,0-.29-1.37,1.53,1.53,0,0,1-.37,0,2.17,2.17,0,0,1-.85-.27,3.28,3.28,0,0,1-1.26-1.36,5.39,5.39,0,0,1-.55-1.6,4.51,4.51,0,0,1-.07-.53,7.23,7.23,0,0,1,0-1.4c0-.13,0-.25,0-.37a6.34,6.34,0,0,1,.26-1.18,4.32,4.32,0,0,1,2.41-2.94,2.19,2.19,0,0,1,.88-.12,3,3,0,0,1,2.3,2q1.32-.2,2.7-.36C23.86,5.7,21.61,3.13,18.74,2.88Z"/><path class="b" d="M18.74,2.88c-3.83-.34-7.3,3.58-7.75,8.76,0,.08,0,.15,0,.23,0,.39,0,.77,0,1.15a11.1,11.1,0,0,0,1.18,4.82,8.74,8.74,0,0,0,1.11,1.68c.7.8,2.41,2.07,3.62,2.07H17a2.84,2.84,0,0,0,2.49-3,3.43,3.43,0,0,0-.29-1.37,1.53,1.53,0,0,1-.37,0,2.17,2.17,0,0,1-.85-.27,3.28,3.28,0,0,1-1.26-1.36,5.39,5.39,0,0,1-.55-1.6,4.51,4.51,0,0,1-.07-.53,7.23,7.23,0,0,1,0-1.4c0-.13,0-.25,0-.37a6.34,6.34,0,0,1,.26-1.18,4.32,4.32,0,0,1,2.41-2.94,2.19,2.19,0,0,1,.88-.12,3,3,0,0,1,2.3,2q1.32-.2,2.7-.36C23.86,5.7,21.61,3.13,18.74,2.88Z"/><path class="b" d="M27,40.69v5.79a24.27,24.27,0,0,1-8.91-8.43,104.46,104.46,0,0,1,12.21-.2V34.2a128.12,128.12,0,0,0-13.85.33,13.72,13.72,0,0,1-.63-2.67c3.46-.71,8-.74,14.48-.74v-3.8a64.41,64.41,0,0,0-18.74,1.76v1.4c0,8.05,8.18,19.43,19,22.21v-12Z"/><path class="b" d="M33.41,27.32V53.09L36.93,51V31.21c.67-.06,2,.1,2.89.1v9.6a15,15,0,0,0,3.52-3.16v-6.3c2.12.14,3.65.36,4.89.55-.38,4.87-3,8.76-8.44,13.3v4.5c7.06-5.4,12-10.79,12-19.25V29.14A92.37,92.37,0,0,0,33.41,27.32Z"/></svg>