<svg xmlns="http://www.w3.org/2000/svg" viewBox="0 0 380 380"><defs><style>.a,.c{fill:#4d4d4d;}.a,.b{fill-rule:evenodd;}.b{fill:#f05923;}.c{opacity:0.98;isolation:isolate;}</style></defs><title>Formidable Forms icon - Uncanny Automator</title><path class="a" d="M166.5,287.79V226.44H333.56v15.79c0,13.27-1,16.79-6.4,22.18-6.39,6.39-6.58,6.41-60,6.41H213.48v78.31h-47Zm0-109.49c0-28.9-4.35-27.56,89.33-27.56h77.73v47H166.5Z" transform="translate(-60 -60)"/><path class="b" d="M242.2,324.34v-24.8h91.36v49.59H242.2Z" transform="translate(-60 -60)"/><path class="c" d="M252.65,440C145.79,441.45,58.55,354.21,60,247.35,61.42,144.87,144.87,61.42,247.35,60,354.21,58.55,441.45,145.79,440,252.65,438.58,355.13,355.13,438.58,252.65,440ZM253.71,85C159.8,83,83,159.8,85,253.71,87,341.58,158.42,413,246.29,415,340.2,417,417,340.2,415,246.29,413,158.42,341.58,87,253.71,85Z" transform="translate(-60 -60)"/></svg>