<svg xmlns="http://www.w3.org/2000/svg" viewBox="0 0 58.13 64"><defs><style>.a{fill:#f15a2b;}.a,.b{fill-rule:evenodd;}.b{fill:#fff;}</style></defs><title>Gravity Forms icon - Uncanny Automator</title><path class="a" d="M61.06,43.46a10.21,10.21,0,0,1-4.6,8L36.6,62.9a10.17,10.17,0,0,1-9.21,0L7.54,51.44a10.21,10.21,0,0,1-4.6-8V20.53a10.21,10.21,0,0,1,4.6-8L27.39,1.1a10.17,10.17,0,0,1,9.21,0L56.46,12.56a10.21,10.21,0,0,1,4.6,8V43.46Z" transform="translate(-2.94)"/><path class="b" d="M26.36,26.69H52.67v-7.4H26.43a12.18,12.18,0,0,0-9.25,3.82c-5.73,6.1-5.89,21.46-5.89,21.46H52.47V30.67h-7.4v6.5H19.19c.16-2.42,1.27-6.75,3.38-9a4.83,4.83,0,0,1,3.79-1.49Z" transform="translate(-2.94)"/></svg>