<svg xmlns="http://www.w3.org/2000/svg" xmlns:xlink="http://www.w3.org/1999/xlink" viewBox="0 0 64 64"><defs><style>.a{fill:none;}.b{fill:url(#a);}.c{fill:#db5100;}.d{fill:#fff;}</style><linearGradient id="a" x1="9.98" y1="11.98" x2="54.01" y2="56.01" gradientTransform="matrix(1, 0, 0, -1, 0, 66)" gradientUnits="userSpaceOnUse"><stop offset="0.28" stop-color="#db851a"/><stop offset="1" stop-color="#db6f1a"/></linearGradient></defs><title>Groundhogg icon - Uncanny Automator</title><rect class="a" width="64" height="64"/><path class="b" d="M6.51,13.77,29,.81a6.15,6.15,0,0,1,6.1,0l22.44,13a6.09,6.09,0,0,1,3,5.28V45a6.09,6.09,0,0,1-3,5.28l-22.44,13a6.15,6.15,0,0,1-6.1,0L6.51,50.25a6.06,6.06,0,0,1-3-5.27V19.05A6.06,6.06,0,0,1,6.51,13.77Z" transform="translate(0 0)"/><path class="c" d="M49.77,34.33v1.32A17.79,17.79,0,1,1,44.52,23l-6.59,6.54a8.46,8.46,0,1,0,1,11H32V34.3H49.77Z" transform="translate(0 0)"/><path class="d" d="M49.77,30.37v1.32a17.77,17.77,0,1,1-5.25-12.62l-6.59,6.54a8.47,8.47,0,1,0,1,11H32V30.35H49.77Z" transform="translate(0 0)"/></svg>