<svg xmlns="http://www.w3.org/2000/svg" viewBox="0 0 64 28.04"><defs><style>.a{fill:#1d1d1d;fill-rule:evenodd;}</style></defs><title>H5P icon - Uncanny Automator</title><path class="a" d="M0,32V18H8.51V30h9.67V18h7l-.11.44c-.4,1.6-3.33,14.75-3.3,14.78s1.71.28,3.74.56l3.69.52.63-.72a3.74,3.74,0,0,1,2.44-1.38,3.93,3.93,0,0,1,4.33,4.56,3.59,3.59,0,0,1-3.78,3.09,3.74,3.74,0,0,1-3.07-1.39l-.49-.63L26,38.26c-4.75.65-4.33.51-4,1.36a9.46,9.46,0,0,0,5.51,6l1.07.44H18.18V35.77H8.51V46H0ZM39.08,45.56a7.68,7.68,0,0,0,3.23-2.33,10.3,10.3,0,0,0,1.53-11.76A10.4,10.4,0,0,0,40,28.05a11.72,11.72,0,0,0-8.39-.33,5.41,5.41,0,0,1-1.43.41A20.18,20.18,0,0,1,31,24.7l.2-.72H43.89V18H50c6.65,0,8.18.17,10,1.09a7.4,7.4,0,0,1,3.8,5.38,10.74,10.74,0,0,1-.74,6.61A6.74,6.74,0,0,1,60,34.37c-2.08,1.1-2.88,1.25-7.25,1.35l-4,.09V46H38l1.09-.45ZM53.93,29.38a2.61,2.61,0,0,0,1.49-2.75,3.9,3.9,0,0,0-.51-1.5c-.7-1-1.4-1.22-3.91-1.31l-2.27-.09V30l2.18-.09c1.86-.07,2.3-.15,3-.55Z" transform="translate(0 -17.98)"/></svg>