<svg xmlns="http://www.w3.org/2000/svg" viewBox="0 0 64 64"><defs><style>.a{fill:none;}.b{fill:#786cff;}</style></defs><title>HappyForms icon - Uncanny Automator</title><rect class="a" width="64" height="64"/><path class="b" d="M31,54.65a42,42,0,0,1-6.31-.39c0-.59,3.55-7,5.3-9.53s2.19-2.9,4-3.48c1.59-.5,2.1-.87,2.2-1.59.13-.89,0-.93-1.61-.65l-1.75.3,1-1.33c1.74-2.56,2.1-2.74,1.42-3.3-.52-.44-1.06,0-1.83.77-1.32,1.41-2.3,1.7-1.94.56.13-.4.4-1.62.6-2.72.29-1.55.25-2-.18-2.21-.91-.35-1.34.18-2.29,2.79-.5,1.37-1.06,2.34-1.24,2.16a6.7,6.7,0,0,1-.45-2.4c0-1.63,0-2.23-1.06-2.2C26,31.31,26,31.44,26,34c0,2.95-.45,3.41-1.45,1.47-.71-1.38-1.11-1.52-1.84-.64-.58.7-.26,2,.89,3.64a5.09,5.09,0,0,1,.35,5.66,42.74,42.74,0,0,1-5.71,8.44l-1.26,1.18L15.4,53a8.4,8.4,0,0,1-4.15-5.67,10.54,10.54,0,0,0-.69-2.51C10.11,44,5.91,42,3.07,41.26A6.25,6.25,0,0,1,.49,40c-.66-.73-.66-.84.05-1.92a54.14,54.14,0,0,1,4.58-4.91L9,29.42l0-4.51c0-3.71.11-4.92.84-6.79a10.66,10.66,0,0,1,5.52-6.27c7.61-3.69,26.37-3.37,39.91.68,2.2.66,4.69,2.58,4.69,3.62,0,.53-11.57,6.45-14,7.14a5.54,5.54,0,0,1-2.79-.43c-1.5-.57-2-.61-2.47-.19-.93.77-.77,1.24.61,1.72.69.24,1.24.55,1.24.7a6.57,6.57,0,0,1-2.17,1.1c-1.19.45-2.28.4-2.06,1.24s1.14.41,2.38.4,2-.6,2.27.1c.15.35-.84.87-1.86,1.82-1.5,1.38-2.45,2.48-1.74,3.18.87.88,3.51-1.38,4.73-2.24s1.21-.06-.13,1.71c-.73,1-1,1.67-.8,2.25.44,1.38,1.36,1,2.79-1.22a7.78,7.78,0,0,1,1.66-2.06c.17,0,.31.63.31,1.41,0,3.36,2,1.89,2.54-1.83a14.56,14.56,0,0,1,.77-3.32c.65-1.21,10.31-5.53,11-4.9S64,31.78,64,35.21c0,8.73-3.11,14.1-10,17.19a30.22,30.22,0,0,1-4.87,1.66c-2.7.57-9.69.8-18.15.59Z" transform="translate(0)"/></svg>