<svg xmlns="http://www.w3.org/2000/svg" viewBox="0 0 300 63.24"><defs><style>.a{fill:#0f1031;}</style></defs><title>integration-tec</title><path class="a" d="M27.85,41.61a13.34,13.34,0,0,1-5.35,1.21c-1.79-.1-2.56-.89-2.56-1.19s.67-.87,2.73-1c.33,0,.67,0,1,0a7.44,7.44,0,0,1,4.16,1m3.85,18.2c-7.55,2.08-15.52.16-20.32-4.9C8,51.33,6.84,46.85,8.25,42.62,11.09,34.11,24.68,29,33.37,29h.28c3.24,0,5.48.82,5.85,2,.21.69-.28,1.88-1.32,3.2a24.84,24.84,0,0,1-7.41,6c-1.78-2-4.65-2.86-8.31-2.59-4.08.29-5.52,2.27-5.51,4,0,1.91,1.87,4,5.39,4.14a16.59,16.59,0,0,0,7.22-1.65,11.76,11.76,0,0,1-.36,5.7,1.49,1.49,0,0,0,2.89.76,13.7,13.7,0,0,0,.19-7.82,28.89,28.89,0,0,0,8.26-6.71c1.73-2.21,2.34-4.2,1.82-5.91a5,5,0,0,0-2.62-2.93c.11-11.22,2.1-19,3.89-19h0a1.37,1.37,0,0,1,1,.49c1.46,1.44,3.19,6.19,3.19,20.6,0,14.22-1.21,26.33-16.18,30.46M17.45,26.65v-.12c0-.05,0-.11,0-.16-.22-3.07.15-5.48,1.09-6.78a2.47,2.47,0,0,1,1.83-1.08,3.15,3.15,0,0,1,2.74.87c1.45,1.39,2.29,4.41,2.21,7.71a40.77,40.77,0,0,0-7.45,2.61c-.19-1.07-.32-2.09-.4-3.05m12.87-5.21a2.74,2.74,0,0,1,2.14-.89,3,3,0,0,1,2.39.82c.81.83,1.26,2.46,1.32,4.82A20.93,20.93,0,0,0,33.69,26h-.3a31.16,31.16,0,0,0-4.36.34c-.06-2.17.39-3.93,1.29-4.91M46.8,6.63a4.44,4.44,0,0,0-3.17-1.36h0c-3.94,0-5.29,5.89-6,10.31-.2,1.29-.36,2.62-.48,3.9-.06-.07-.11-.14-.17-.2a6.08,6.08,0,0,0-4.53-1.72,5.75,5.75,0,0,0-4.34,1.86,6.78,6.78,0,0,0-.84,1.18,9.13,9.13,0,0,0-2.12-3.38A6.17,6.17,0,0,0,20,15.54a5.53,5.53,0,0,0-3.9,2.3v0C14.45,9.7,11.33-.16,5.9.4A4.85,4.85,0,0,0,2.49,2.48C-1.7,8.18.27,25.11,2.09,34.22a1.49,1.49,0,0,0,1.46,1.2l.3,0A1.49,1.49,0,0,0,5,33.63C2,18.38,2.65,7.31,4.9,4.25a1.84,1.84,0,0,1,1.32-.88c3-.31,6.69,10.17,8.25,23.38a35.5,35.5,0,0,0,.61,4.36v0c-4.49,2.59-8.19,6.12-9.66,10.55C3.65,47,5,52.56,9.21,57a22.57,22.57,0,0,0,16.42,6.65,26.19,26.19,0,0,0,6.87-.93c17-4.69,18.37-18.44,18.37-33.34,0-12.74-1.29-20-4.07-22.72" transform="translate(0 -0.38)"/><path class="a" d="M79,23.11H65.64a.29.29,0,0,0-.29.29v2.28a.29.29,0,0,0,.29.29h5.08V40.7A.29.29,0,0,0,71,41H73.6a.29.29,0,0,0,.29-.29V26H79a.29.29,0,0,0,.28-.29V23.4a.29.29,0,0,0-.28-.29" transform="translate(0 -0.38)"/><path class="a" d="M88.16,27.57A6.36,6.36,0,0,0,84,29.22V23.4a.29.29,0,0,0-.28-.29H81.39a.29.29,0,0,0-.29.29V40.7a.29.29,0,0,0,.29.29h2.34A.29.29,0,0,0,84,40.7V31.85a4.24,4.24,0,0,1,3.17-1.63c1.67,0,2.38.72,2.38,2.41V40.7a.29.29,0,0,0,.29.29h2.33a.29.29,0,0,0,.29-.29V31.85c0-2.8-1.49-4.28-4.31-4.28" transform="translate(0 -0.38)"/><path class="a" d="M101.21,30.07a3.39,3.39,0,0,1,3.51,3.16h-7a3.51,3.51,0,0,1,3.51-3.16m0-2.5a6.57,6.57,0,0,0-6.56,6.85,6.53,6.53,0,0,0,6.77,6.88,7.34,7.34,0,0,0,5.24-1.95.29.29,0,0,0,0-.37l-1.09-1.53a.29.29,0,0,0-.44,0,5,5,0,0,1-3.5,1.39,3.79,3.79,0,0,1-3.93-3.31h9.58a.29.29,0,0,0,.29-.29v-.57c0-4.16-2.63-7.06-6.39-7.06" transform="translate(0 -0.38)"/><path class="a" d="M126.15,23.11H114.53a.29.29,0,0,0-.29.29V40.7a.29.29,0,0,0,.29.29h11.62a.29.29,0,0,0,.29-.29V38.42a.29.29,0,0,0-.29-.29h-8.74V33.31H126a.29.29,0,0,0,.29-.29V30.74a.29.29,0,0,0-.29-.29h-8.56V26h8.74a.29.29,0,0,0,.29-.29V23.4a.29.29,0,0,0-.29-.29" transform="translate(0 -0.38)"/><path class="a" d="M140.6,27.88h-2.52a.27.27,0,0,0-.26.18l-3.65,9.16-3.65-9.16a.29.29,0,0,0-.27-.18h-2.49a.28.28,0,0,0-.24.13.32.32,0,0,0,0,.27l5.16,12.53a.29.29,0,0,0,.27.18h2.52a.28.28,0,0,0,.26-.18l5.16-12.53a.29.29,0,0,0,0-.27.29.29,0,0,0-.24-.13" transform="translate(0 -0.38)"/><path class="a" d="M147.79,30.07a3.39,3.39,0,0,1,3.5,3.16h-7a3.52,3.52,0,0,1,3.52-3.16m0-2.5a6.57,6.57,0,0,0-6.56,6.85A6.53,6.53,0,0,0,148,41.3a7.3,7.3,0,0,0,5.23-1.95.28.28,0,0,0,0-.37l-1.09-1.53a.26.26,0,0,0-.21-.12.29.29,0,0,0-.23.08,5,5,0,0,1-3.5,1.39,3.81,3.81,0,0,1-3.93-3.31h9.59a.29.29,0,0,0,.28-.29v-.57c0-4.16-2.62-7.06-6.38-7.06" transform="translate(0 -0.38)"/><path class="a" d="M163.39,27.57a6.23,6.23,0,0,0-4.15,1.65v-1a.29.29,0,0,0-.29-.29h-2.33a.29.29,0,0,0-.29.29V40.7a.29.29,0,0,0,.29.29H159a.29.29,0,0,0,.29-.29V31.85a4.22,4.22,0,0,1,3.16-1.63c1.65,0,2.38.76,2.38,2.46v8a.29.29,0,0,0,.29.29h2.34a.28.28,0,0,0,.28-.29V31.91c0-2.84-1.49-4.34-4.3-4.34" transform="translate(0 -0.38)"/><path class="a" d="M176.94,38.35a.27.27,0,0,0-.21-.19.3.3,0,0,0-.28.09,1.49,1.49,0,0,1-1,.4c-.87,0-.93-.95-.93-1.24v-6.9h2.25a.29.29,0,0,0,.29-.29v-2a.29.29,0,0,0-.29-.29h-2.25V24.75a.29.29,0,0,0-.29-.29h-2.34a.28.28,0,0,0-.28.29v3.13h-1.79a.29.29,0,0,0-.29.29v2a.29.29,0,0,0,.29.29h1.79v7.41c0,2.18,1.16,3.38,3.27,3.38a3.67,3.67,0,0,0,2.63-.88.32.32,0,0,0,.08-.31Z" transform="translate(0 -0.38)"/><path class="a" d="M184.75,32.92c-1.57-.36-2.68-.69-2.68-1.53s.87-1.35,2.28-1.35a4.61,4.61,0,0,1,3.48,1.43.33.33,0,0,0,.23.1h0a.28.28,0,0,0,.23-.13l1-1.64a.29.29,0,0,0-.05-.36,7.06,7.06,0,0,0-5-1.87c-3.48,0-5.06,2.07-5.06,4,0,2.92,2.68,3.54,4.84,4,1.54.35,2.81.72,2.81,1.74s-.9,1.51-2.41,1.51a5.79,5.79,0,0,1-4-1.7.27.27,0,0,0-.21-.09h0a.26.26,0,0,0-.22.13l-1.12,1.71a.29.29,0,0,0,0,.36,7.37,7.37,0,0,0,5.42,2c3.25,0,5.34-1.62,5.34-4.13,0-3.12-2.77-3.74-5-4.25" transform="translate(0 -0.38)"/><path class="a" d="M205.31,25.71a5.22,5.22,0,0,1,4.42,2.38.3.3,0,0,0,.38.1l2.2-1.16a.29.29,0,0,0,.15-.19.31.31,0,0,0,0-.23,8.11,8.11,0,0,0-7.11-3.78,9,9,0,0,0-9.16,9.23,9,9,0,0,0,9.16,9.24,8.16,8.16,0,0,0,7.11-3.79.3.3,0,0,0,0-.23.27.27,0,0,0-.15-.18l-2.2-1.17a.3.3,0,0,0-.38.1,5.22,5.22,0,0,1-4.42,2.38c-3.26,0-5.46-2.55-5.46-6.35s2.14-6.35,5.46-6.35" transform="translate(0 -0.38)"/><path class="a" d="M222.42,35.92v1.93a3.73,3.73,0,0,1-2.93,1.24,2.23,2.23,0,1,1,0-4.41,3.74,3.74,0,0,1,2.93,1.24M220,27.57a7.36,7.36,0,0,0-5.33,2.13.29.29,0,0,0-.05.36l1,1.61a.25.25,0,0,0,.21.13.26.26,0,0,0,.23-.08,4.87,4.87,0,0,1,3.56-1.57c1.68,0,2.77.86,2.77,2.2v1.38a5.75,5.75,0,0,0-3.81-1.26A4.35,4.35,0,0,0,214,36.86a4.46,4.46,0,0,0,4.64,4.44,5.77,5.77,0,0,0,3.81-1.3v.7a.29.29,0,0,0,.29.29h2.34a.29.29,0,0,0,.28-.29V32.24c0-3-1.94-4.67-5.32-4.67" transform="translate(0 -0.38)"/><path class="a" d="M231.37,23.11H229a.29.29,0,0,0-.29.29V40.7A.29.29,0,0,0,229,41h2.33a.29.29,0,0,0,.29-.29V23.4a.29.29,0,0,0-.29-.29" transform="translate(0 -0.38)"/><path class="a" d="M240.84,30.07a3.39,3.39,0,0,1,3.51,3.16h-7a3.51,3.51,0,0,1,3.51-3.16m0-2.5a6.57,6.57,0,0,0-6.56,6.85,6.53,6.53,0,0,0,6.77,6.88,7.3,7.3,0,0,0,5.23-1.95.28.28,0,0,0,0-.37l-1.09-1.53a.27.27,0,0,0-.22-.12.27.27,0,0,0-.22.08,5,5,0,0,1-3.51,1.39,3.79,3.79,0,0,1-3.92-3.31h9.58a.29.29,0,0,0,.29-.29v-.57c0-4.16-2.63-7.06-6.39-7.06" transform="translate(0 -0.38)"/><path class="a" d="M256.44,27.57a6.23,6.23,0,0,0-4.15,1.65v-1a.29.29,0,0,0-.29-.29h-2.33a.29.29,0,0,0-.29.29V40.7a.29.29,0,0,0,.29.29H252a.29.29,0,0,0,.29-.29V31.85a4.22,4.22,0,0,1,3.16-1.63c1.65,0,2.39.76,2.39,2.46v8a.29.29,0,0,0,.28.29h2.34a.29.29,0,0,0,.29-.29V31.91c0-2.84-1.49-4.34-4.31-4.34" transform="translate(0 -0.38)"/><path class="a" d="M272.6,31.86V37a4,4,0,0,1-3.19,1.62c-2.09,0-3.49-1.69-3.49-4.2s1.4-4.23,3.49-4.23a4.12,4.12,0,0,1,3.19,1.64m2.62-8.75h-2.33a.29.29,0,0,0-.29.29v5.81a5.28,5.28,0,0,0-3.81-1.64c-3.52,0-5.89,2.77-5.89,6.88s2.37,6.85,5.89,6.85a5.42,5.42,0,0,0,3.81-1.62v1a.29.29,0,0,0,.29.29h2.33a.29.29,0,0,0,.29-.29V23.4a.29.29,0,0,0-.29-.29" transform="translate(0 -0.38)"/><path class="a" d="M286.66,35.92v1.93a3.73,3.73,0,0,1-2.93,1.24,2.23,2.23,0,1,1,0-4.41,3.76,3.76,0,0,1,2.93,1.24m-2.41-8.35a7.4,7.4,0,0,0-5.34,2.13.3.3,0,0,0,0,.36l1,1.61a.29.29,0,0,0,.22.13.26.26,0,0,0,.23-.08,4.86,4.86,0,0,1,3.56-1.57c1.68,0,2.77.86,2.77,2.2v1.38a5.77,5.77,0,0,0-3.81-1.26,4.34,4.34,0,0,0-4.64,4.39,4.46,4.46,0,0,0,4.64,4.44,5.79,5.79,0,0,0,3.81-1.3v.7A.29.29,0,0,0,287,41h2.33a.29.29,0,0,0,.29-.29V32.24c0-3-1.94-4.67-5.32-4.67" transform="translate(0 -0.38)"/><path class="a" d="M299.71,27.6a5.43,5.43,0,0,0-3.81,1.72V28.17a.29.29,0,0,0-.29-.29h-2.33a.29.29,0,0,0-.29.29V40.7a.29.29,0,0,0,.29.29h2.33a.29.29,0,0,0,.29-.29V32.06a4.15,4.15,0,0,1,3-1.6,3.26,3.26,0,0,1,.74.07.3.3,0,0,0,.24-.06.28.28,0,0,0,.11-.22V27.89a.29.29,0,0,0-.29-.29" transform="translate(0 -0.38)"/></svg>