<svg xmlns="http://www.w3.org/2000/svg" xmlns:xlink="http://www.w3.org/1999/xlink" viewBox="0 0 299.86 81.91"><defs><style>.a{fill:none;}.b{clip-path:url(#a);}.c{fill:#2295ff;}.c,.d,.e{fill-rule:evenodd;}.d{fill:#466dd8;}.e{fill:#f8954f;}</style><clipPath id="a" transform="translate(-0.07 -0.04)"><rect class="a" x="0.07" y="0.04" width="299.86" height="81.91"/></clipPath></defs><title>integration-lifterlms</title><rect class="a" width="299.86" height="81.91"/><g class="b"><path class="c" d="M298.72,30.71l-2,1.1a.5.5,0,0,1-.7-.16c-2.05-3.3-5.35-3.93-9-3.93s-9,1.26-9,5.82a3.51,3.51,0,0,0,.56,2c1.49,2.2,6.21,2.91,8.57,3.38,5.66,1.1,12.66,2.2,12.66,9.44s-6.92,9.2-12.82,9.2c-5.19,0-10.78-2.2-13.21-7a.7.7,0,0,1-.08-.39,1.33,1.33,0,0,1,.23-.32l2.2-1a.39.39,0,0,1,.63.23c1.82,3.46,6.45,5.35,10.23,5.35,3.93,0,9.36-1.1,9.44-6.13a4.34,4.34,0,0,0-.79-2.52c-1.65-2.36-6.37-3.15-9.05-3.62-4.95-.94-11.95-2.12-11.95-8.49-.16-6.77,6.69-9.12,12.35-9.12,5.11,0,8.81,1,11.8,5.5a.65.65,0,0,1,.07.39c-.07.08-.15.24-.23.32m-32.17-.16-11,16.83a.44.44,0,0,1-.39.24h-.79a.65.65,0,0,1-.47-.24L242.8,30.47V56.59a.51.51,0,0,1-.47.47h-2.44a.51.51,0,0,1-.47-.47V25.36a.45.45,0,0,1,.47-.47h2.91a.61.61,0,0,1,.39.16l11.48,17.61,11.41-17.54a.43.43,0,0,1,.39-.23h3a.45.45,0,0,1,.47.47V56.59a.51.51,0,0,1-.47.47H267.1a.53.53,0,0,1-.55-.47v-26ZM96.19,25.36V56.59h21.94V51.16h-16V25.36Zm25.17,3.07c0,4.24,6.37,4.24,6.37,0s-6.37-4.25-6.37,0m5.9,28.16h-5.43v-22h5.43Zm12.11,0V39.67h6.45V35h-6.45v-1.5c0-2.67,1.42-3.93,3.3-3.93A5.68,5.68,0,0,1,146,30.71l2-4.09a11.1,11.1,0,0,0-5.74-1.73c-4.41,0-8.34,2.67-8.34,8.57V35h-4.09v4.71h4.09V56.59Zm13-27.61v5.66h-4.09v4.72h4.09V48.8c0,5.5,3.06,8.18,7.86,8a11.15,11.15,0,0,0,4.48-.94l-1.49-4.64a6.44,6.44,0,0,1-2.6.7c-1.72,0-2.9-1-2.9-3.14V39.36h6.13V34.64h-6.06V28.43l-5.42.55Zm20.21,14.08a6,6,0,0,1,6.14-4.33c3.14,0,5.34,1.42,5.74,4.33Zm17.07,4.48c.86-9-3.7-13.61-11.09-13.61-7.08,0-11.64,4.8-11.64,11.49,0,7.07,4.48,11.71,12,11.71,3.38,0,7.16-1.18,9.44-3.53l-3.46-3.46c-1.26,1.33-3.85,2-5.9,2-3.77,0-6.13-2-6.53-4.64Zm4.17-12.9v22h5.42V45c0-4.09,2.68-5.58,5.51-5.58a5.36,5.36,0,0,1,3.93,1.41l2.44-4.72A8.45,8.45,0,0,0,205.44,34c-2.2,0-4.49.39-6.22,3.15l-.39-2.52Zm24.46,19.19h17.06a.42.42,0,0,1,.48.47v2.29a.46.46,0,0,1-.48.47h-20a.51.51,0,0,1-.47-.47V25.36a.45.45,0,0,1,.47-.47h2.44a.46.46,0,0,1,.47.47V53.83Z" transform="translate(-0.07 -0.04)"/><path class="d" d="M22.41,51.31l-2.75-1.57L12.27,62.48A32,32,0,0,1,9.44,29.92l.07-.08c.32-.7.71-1.33,1-2A31.81,31.81,0,0,1,34.76,12.15,44.07,44.07,0,0,1,40.5,5.78,38.12,38.12,0,0,0,14.78,73.89l7.4-22a3.7,3.7,0,0,0,.23-.63m45-20.37a32,32,0,0,1-1.57,28.87c-.32.63-.71,1.26-1.1,1.89l-.08.08A32,32,0,0,1,35,75.62l7.39-12.74L39.64,61.3l-.47.48L23.91,79.16A38.12,38.12,0,0,0,70,22.84a42,42,0,0,1-2.6,8.1" transform="translate(-0.07 -0.04)"/><path class="c" d="M41.84,50.84a11.72,11.72,0,0,1-8.49,4.25,2.49,2.49,0,0,1-2.44-1.42c-1.42-3.06-1.89-6.44-.55-9.43L14.94,35.35a2.38,2.38,0,0,1-1.18-2.75A2.35,2.35,0,0,1,16,30.71l15.65-.55a42.86,42.86,0,0,1,6-13.61A39.5,39.5,0,0,1,56,1.92,50.08,50.08,0,0,1,61.43.11a2.47,2.47,0,0,1,3,1.73,43.53,43.53,0,0,1,1.26,5.59,40.83,40.83,0,0,1-3.54,23.28,42.76,42.76,0,0,1-8.81,11.95l7.32,13.77a2.45,2.45,0,0,1-3.38,3.3ZM53.48,17.89a4.95,4.95,0,1,1-6.76,1.81,5,5,0,0,1,6.76-1.81" transform="translate(-0.07 -0.04)"/><path class="e" d="M18.8,77.51l16.67-19-1.89.24a6.11,6.11,0,0,1-6-3.54,10.49,10.49,0,0,1-.79-1.73Z" transform="translate(-0.07 -0.04)"/></g></svg>