<svg xmlns="http://www.w3.org/2000/svg" viewBox="0 0 1024 1024"><defs/><defs><clipPath id="a"><rect width="1024" height="1024" fill="none" rx="217.7"/></clipPath><style>.e{fill:#0790e8}.f{mix-blend-mode:multiply}.g{fill:#d9d5cc}.h{fill:#f1eeed}.i{fill:#ffc499}.k{fill:#ffb599}</style></defs><g style="isolation:isolate"><rect width="1024" height="1024" fill="#eaf0f7" rx="140"/><g clip-path="url(#a)"><path d="M369.7 832c18-74.2 48.9-107.5 49.7-108.4 11-11.3 9.8-30.4-2.9-42.6l-1-1c-12.7-11.4-31.3-11.9-42.2-.9-5 5-99.4 104.2-73.6 344.8h61.1c-9-85.1-1.6-148.4 9-191.8z" class="e"/><path d="M433.7 659.5c-25-22.3-61.1-23-82.3-1.6-4.5 4.6-45 47.4-68.5 139-17.3 67.6-21.4 143.6-12.3 227h29.1c-25.8-240.6 68.7-339.8 73.6-344.8 10.9-11 29.4-10.5 42.1.9l1.1 1c12.7 12.2 14 31.3 3 42.6-1 .9-31.8 34.2-49.8 108.5-10.5 43.4-17.9 106.7-8.9 191.8h29c-8.6-81.2-1.6-141.2 8.4-182.4 15.8-65.2 42.3-95.7 43.5-97.1 21.2-22 18.6-59.2-5.9-83l-2-1.9z"/><path d="M694.5 974.6a134.3 134.3 0 01-39.5-5.8c-46.9-14.5-80.5-64.8-102.8-154A794.5 794.5 0 01533 701.5a42.5 42.5 0 0138.8-45.8l3.6-.2a42.7 42.7 0 0142.2 39c0 .4 4.3 49.7 17 100.3 21.3 84.5 45 92.7 45.3 92.8a50.5 50.5 0 0014.8 2.1c37.4 0 80.6-36.8 94.2-51a42.5 42.5 0 0162 58c-2.9 3.2-73.4 78-156.5 78z" class="e"/><path d="M575.5 669.2a28.7 28.7 0 0128.6 26.4c0 .5 4.4 50.7 17.4 102.5 21.7 86.3 47.2 100.3 54.5 102.6a64 64 0 0018.9 2.7c51 0 103.5-54.7 104-55.3a28.8 28.8 0 0142.2 39.2c-3.2 3.5-69.6 73.6-146.6 73.6a119.8 119.8 0 01-35.4-5.2c-42-13-72.6-60.1-93.6-144.3a780.1 780.1 0 01-18.7-111 28.8 28.8 0 0126.3-31.1l2.4-.1m0-27.4c-1.6 0-3.1 0-4.7.2a56.2 56.2 0 00-51.3 60.6 800.3 800.3 0 0019.4 115.5c23.6 94.2 60.2 147.8 112.1 163.8a147.6 147.6 0 0043.5 6.5c87.5 0 158.8-74 166.6-82.4a56.2 56.2 0 00-82.2-76.6c-11.4 12-51.9 46.6-84 46.6a37.6 37.6 0 01-9.9-1.3c-2.6-1.9-20.1-16.5-37-83.3a707.6 707.6 0 01-16.6-98.2 56.5 56.5 0 00-56-51.4z"/><g class="f"><path d="M694.5 961a119.8 119.8 0 01-35.4-5.3c-42-13-72.6-60.1-93.6-144.3a780.1 780.1 0 01-18.7-111 28.8 28.8 0 0157.3-4.8c0 .5 4.4 50.7 17.4 102.5 21.7 86.3 47.2 100.3 54.5 102.6 56 17.2 122.3-51.9 123-52.6a28.8 28.8 0 1142.1 39.2c-3.2 3.5-69.6 73.6-146.6 73.6z" class="g"/></g><path d="M607 720c0-51-43-92.3-96.3-92.3h-14.4c-53.2 0-96.4 41.3-96.4 92.3v301.6a5.3 5.3 0 00.6 2.3h206a5.2 5.2 0 00.6-2.3z" class="e"/><path d="M510.7 601.5h-14.4c-68.3 0-123.8 53.1-123.8 118.5v301.6l.1 2.3h27.9a5.3 5.3 0 01-.6-2.3V720c0-51 43.2-92.3 96.4-92.3h14.4c53.2 0 96.4 41.3 96.4 92.3v301.6a5.2 5.2 0 01-.6 2.3h27.9l.1-2.3V720c0-65.4-55.5-118.5-123.8-118.5z"/><g class="f"><path d="M601.5 689.5a90.3 90.3 0 00-19-30.3l-3.1-3.1q-1.6-1.6-3.3-3v-.1l-3.5-2.9-3.6-2.7h-.1q-1.8-1.4-3.7-2.6h-.1l-3.8-2.4h-.1a76 76 0 00-4-2.2h-.1a100.2 100.2 0 00-46.4-11.3h-14.4a103.4 103.4 0 00-13 .8 99.4 99.4 0 0137 12.5l-8.3.2a196 196 0 01-51.6-7 94.5 94.5 0 00-52.5 48.4 264.5 264.5 0 00156.4 16 86.4 86.4 0 012.4 20.4v298.3a5.6 5.6 0 01-5.8 5.4h40.5a5.6 5.6 0 005.7-5.4V720.2a86.8 86.8 0 00-5.6-30.7z" class="g"/></g><path d="M506.4 744.3l13.9 42.9h45.1l-36.5 26.4 13.9 42.9-36.4-26.5-36.5 26.5 14-42.9-36.5-26.4h45.1l13.9-42.9z" class="h"/><path d="M380.6 504.8a49 49 0 1149-49 49.1 49.1 0 01-49 49z" class="i"/><path d="M380.6 420.4a35.4 35.4 0 11-35.4 35.3 35.4 35.4 0 0135.4-35.3m0-27.4a62.8 62.8 0 1062.8 62.7 62.8 62.8 0 00-62.8-62.7z"/><path d="M643.4 504.8a49 49 0 1149-49 49.1 49.1 0 01-49 49z" class="i"/><path d="M643.4 420.4a35.4 35.4 0 11-35.4 35.3 35.4 35.4 0 0135.4-35.3m0-27.4a62.8 62.8 0 1062.7 62.7 62.8 62.8 0 00-62.7-62.7z"/><path d="M512 644.5c-3.5 0-7-.2-10.6-.4-70.7-5.8-126.1-71-126.1-148.5V344.4a23 23 0 0122.6-23.3h228.2a23 23 0 0122.6 23.3v154c0 80.5-61.3 146-136.7 146z" class="i"/><path d="M626.1 334.8c5 0 9 4.3 9 9.6v154c0 73-55.3 132.4-123 132.4-3.2 0-6.4-.1-9.6-.4-64.5-5.3-113.5-65-113.5-134.8V344.4c0-5.3 4-9.6 9-9.6H626m0-27.5H397.9c-20 0-36.3 16.7-36.3 37v151.3c0 84.6 60.9 155.8 138.7 162.1 3.9.3 7.8.5 11.7.5 83 0 150.4-71.7 150.4-159.9v-154c0-20.3-16.3-37-36.3-37z"/><circle cx="571.8" cy="454.2" r="35.4" class="i"/><g class="f"><rect width="32.6" height="67.8" x="505.1" y="466.7" class="g" rx="16.3"/></g><circle cx="453.6" cy="454.2" r="35.4" fill="#fff"/><path d="M453.6 467.1c16.7 0 16.7-25.9 0-25.9-16.6 0-16.8 25.9 0 25.9z"/><path d="M571.8 467.1c16.7 0 16.7-25.9 0-25.9-16.6 0-16.8 25.9 0 25.9z" class="i"/><rect width="51.3" height="17.1" x="546.3" y="445.2" rx="8.5"/><path d="M486.6 405.4l-67.4 11.4a21.8 21.8 0 0117.8-25.1l24.5-4.1a21.8 21.8 0 0125.1 17.8zM605 415.3l-67.9-8.3a21.8 21.8 0 0124.3-19l24.7 3a21.8 21.8 0 0119 24.3z"/><rect width="32.6" height="67.8" x="496.5" y="460.2" class="k" rx="16.3"/><path d="M512 577.5a38.4 38.4 0 01-38.4-38.4 9.6 9.6 0 0119.2 0 19.2 19.2 0 1038.4 0 9.6 9.6 0 0119.2 0 38.4 38.4 0 01-38.4 38.4z"/><path fill="#967c69" d="M646.6 444a13.5 13.5 0 01-4.1-.7 13.7 13.7 0 01-9.6-12.4l-3.6-74.5H394.8l-3.6 64a13.7 13.7 0 01-11 12.6 14.7 14.7 0 01-2.6.3 13.7 13.7 0 01-12.4-7.9l-36.3-76.9a13.7 13.7 0 01-.5-10.7L369 230a13.7 13.7 0 0110-8.6l158-33a13.2 13.2 0 012.8-.4l100.7 2.2a13.7 13.7 0 0113.4 13.3l2 82.9 54.6 66.8a13.7 13.7 0 01.2 17.1l-53.3 68.4a13.7 13.7 0 01-10.8 5.2z"/><path d="M539.9 201.7l100.3 2.2 2.2 87.5L700 362l-53.4 68.3-4.3-87.5H381.9l-4.2 76.8-36.3-76.8 40.5-107.9 158-33m0-27.5a28 28 0 00-5.6.6l-158 33.1a27.4 27.4 0 00-20 17.2L315.6 333a27.4 27.4 0 00.9 21.4l36.3 76.8a27.4 27.4 0 0024.8 15.8 27 27 0 005.2-.5A27.4 27.4 0 00405 421l2.9-51h208.4l3 61.5a27.4 27.4 0 0049 15.5l53.4-68.3a27.4 27.4 0 00-.4-34.2l-51.7-63.2-1.9-78.2a27.4 27.4 0 00-26.8-26.7l-100.3-2.1z"/><path d="M860.5 924.4c-56.8 0-68.7-28.5-68.6-52.4v-73.5a13.7 13.7 0 0113.7-13.7 13.5 13.5 0 012.4.3l55 10a13.7 13.7 0 0111.3 13.4v102.2a13.7 13.7 0 01-13.8 13.7z" class="i"/><path d="M805.6 798.5l55 10V910.8c-30.4 0-55-8.3-55-38.6v-73.5m0-27.4a27.4 27.4 0 00-27.4 27.4V872c0 19.8 8 66 82.3 66a27.4 27.4 0 0027.4-27.4V808.6a27.4 27.4 0 00-22.5-27l-55-10a27.8 27.8 0 00-4.9-.5z"/><path d="M817.7 799a25.8 25.8 0 01-25.8-25.8v-18.5a25.8 25.8 0 0151.6 0v18.6a25.9 25.9 0 01-25.8 25.8z" class="i"/><path d="M817.7 742.6a12.1 12.1 0 0112.1 12.1v18.6a12.1 12.1 0 01-12.1 12 12.1 12.1 0 01-12.1-12v-18.6a12.1 12.1 0 0112.1-12.1m0-27.4a39.6 39.6 0 00-39.5 39.5v18.5a39.5 39.5 0 0079 0v-18.5a39.5 39.5 0 00-39.5-39.5z"/><path d="M855.5 846.5a25.8 25.8 0 010-51.7h33.6a25.8 25.8 0 010 51.7z" class="i"/><path d="M855.5 808.5h33.6a12.1 12.1 0 010 24.3h-33.6a12.1 12.1 0 010-24.3m0-27.4a39.5 39.5 0 000 79h33.6a39.5 39.5 0 000-79h-33.5z"/><path d="M855.5 892.8a25.8 25.8 0 010-51.7h38.6a25.8 25.8 0 010 51.7z" class="i"/><path d="M855.5 854.8h38.6a12.1 12.1 0 010 24.3h-38.6a12.1 12.1 0 01-12-12.2 12.1 12.1 0 0112-12.1m0-27.4a39.5 39.5 0 000 79h38.6a39.5 39.5 0 000-79h-38.5z"/><path d="M855.5 935.4a25.8 25.8 0 010-51.7H889a25.8 25.8 0 010 51.7z" class="i"/><path d="M855.5 897.4H889a12.1 12.1 0 010 24.3h-33.5a12.1 12.1 0 010-24.3m0-27.4a39.5 39.5 0 000 79.1H889a39.5 39.5 0 10.1-79h-33.5z"/><path d="M512 686.3c-147 0-266.8-119.7-266.8-266.8S365 152.8 512 152.8s266.8 119.7 266.8 266.8S659 686.3 512 686.3zm0-439.9c-95.5 0-173.1 77.7-173.1 173.1S416.5 592.8 512 592.8 685.1 515 685.1 419.5s-77.6-173-173.1-173z" class="h"/><path d="M512 166.5c139.5 0 253 113.5 253 253S651.5 672.6 512 672.6s-253-113.5-253-253 113.5-253 253-253m0 439.9c103 0 186.9-83.8 186.9-186.9S615 232.7 512 232.7s-186.9 83.8-186.9 186.9S409 606.4 512 606.4m0-467.3c-154.6 0-280.5 125.8-280.5 280.4S357.4 700 512 700s280.5-125.8 280.5-280.4S666.6 139 512 139zm0 439.9c-88 0-159.4-71.5-159.4-159.4S424 260 512 260s159.4 71.5 159.4 159.4S600 579 512 579z"/><path fill="#ccc8c0" d="M680.4 230.8A252.3 252.3 0 01698 436.3 187 187 0 01512 606.4a186.8 186.8 0 01-24.5-1.7 255 255 0 01-28.5 1.7A252 252 0 01290.7 542 253.2 253.2 0 00512 672.6c139.5 0 253-113.5 253-253a252.4 252.4 0 00-84.6-188.8z"/><path d="M758.6 510.4a13.7 13.7 0 01-8.2-2.8 107.7 107.7 0 010-171.9 13.7 13.7 0 0116.5 0 107.7 107.7 0 010 172 13.7 13.7 0 01-8.3 2.7z" class="e"/><path d="M758.6 346.7a94 94 0 010 150 94 94 0 010-150m0-27.4a27.3 27.3 0 00-16.5 5.5 121.4 121.4 0 000 193.8 27.4 27.4 0 0033 0 121.4 121.4 0 000-193.8 27.4 27.4 0 00-16.5-5.5z"/><path d="M265.4 510.4a13.7 13.7 0 01-8.3-2.8 107.7 107.7 0 010-171.9 13.7 13.7 0 0116.5 0 107.7 107.7 0 010 172 13.7 13.7 0 01-8.2 2.7z" class="e"/><path d="M265.4 346.7a94 94 0 010 150 94 94 0 010-150m0-27.4a27.3 27.3 0 00-16.6 5.5 121.3 121.3 0 000 193.8 27.4 27.4 0 0033 0 121.4 121.4 0 000-193.8 27.4 27.4 0 00-16.5-5.5z"/><path d="M796 421.7h89.7" class="k"/><path d="M885.7 435.4H796a13.7 13.7 0 010-27.4h89.7a13.7 13.7 0 010 27.4z"/><path d="M887.8 463.1a41.5 41.5 0 1141.5-41.4 41.5 41.5 0 01-41.5 41.4z" class="e"/><path d="M887.8 394a27.8 27.8 0 11-27.7 27.7 27.8 27.8 0 0127.7-27.8m0-27.4a55.2 55.2 0 1055.2 55.2 55.2 55.2 0 00-55.2-55.2z"/><path d="M228 421.7h-89.7" class="k"/><path d="M228 435.4h-89.7a13.7 13.7 0 110-27.4H228a13.7 13.7 0 110 27.4z"/><path d="M136.2 463.1a41.5 41.5 0 1141.4-41.4 41.5 41.5 0 01-41.4 41.4z" class="e"/><path d="M136.2 394a27.8 27.8 0 11-27.8 27.7 27.8 27.8 0 0127.8-27.8m0-27.4a55.2 55.2 0 1055.1 55.2 55.2 55.2 0 00-55.1-55.2z"/></g></g></svg>