<svg xmlns="http://www.w3.org/2000/svg" viewBox="0 0 64 51.2"><defs><style>.a{fill:#563d7c;}</style></defs><title>LearnPress icon - Uncanny Automator</title><path class="a" d="M32,32,8.13,22.46,9.6,57.6H3.2L4.74,21.09,0,19.2,32,6.4,64,19.2Zm0-16c-1.76,0-3.2.7-3.2,1.6s1.44,1.6,3.2,1.6,3.2-.7,3.2-1.6S33.76,16,32,16Zm0,19.2,17.82-7.14a22.36,22.36,0,0,1,4.36,10.56,24,24,0,0,0-3-.22A22.34,22.34,0,0,0,32,49.31,22.34,22.34,0,0,0,12.8,38.4a24,24,0,0,0-3,.22,22.36,22.36,0,0,1,4.36-10.56Z" transform="translate(0 -6.4)"/></svg>