<svg xmlns="http://www.w3.org/2000/svg" viewBox="0 0 64 64"><defs><style>.a{fill:none;}.b{fill:#ffb000;}.c{fill:#235af3;}.d{fill:#0d9dff;}</style></defs><title>LearnDash icon - Uncanny Automator</title><rect class="a" width="64" height="64"/><path class="b" d="M23.55,14.15h0a6.68,6.68,0,0,1,6.67,6.67V44.11A12.08,12.08,0,0,1,18.13,56.17h0a1.25,1.25,0,0,1-1.24-1.24h0V20.84a6.67,6.67,0,0,1,6.64-6.69Z"/><path class="c" d="M40.47.6h0a6.67,6.67,0,0,1,6.66,6.67h0v44A12.08,12.08,0,0,1,35.05,63.4h0a1.25,1.25,0,0,1-1.25-1.25h0V7.27A6.67,6.67,0,0,1,40.45.6Z"/><path class="d" d="M6.66,32.74h0a6.67,6.67,0,0,1,6.67,6.66h0v8.82A12.08,12.08,0,0,1,1.24,60.3h0A1.24,1.24,0,0,1,0,59.06H0V39.4a6.66,6.66,0,0,1,6.66-6.66Z"/><path class="d" d="M57.34,21.38h0A6.66,6.66,0,0,1,64,28v8.84A12.08,12.08,0,0,1,51.92,48.94h0a1.24,1.24,0,0,1-1.25-1.24h0V28.07a6.67,6.67,0,0,1,6.65-6.69Z"/></svg>