<svg xmlns="http://www.w3.org/2000/svg" viewBox="0 0 64 64.11"><defs><style>.a{fill:none;}.b{fill:#fe5301;}</style></defs><title>Mailpoet icon - Uncanny Automator</title><rect class="a" width="64" height="64"/><path class="b" d="M16.33,36.58a3.79,3.79,0,0,0,3-.94,3.27,3.27,0,0,0,.82-2.21V14.73l7,18.45a5.23,5.23,0,0,0,1.52,2.21,4.58,4.58,0,0,0,2.94.82,5.22,5.22,0,0,0,2.42-.57,3.44,3.44,0,0,0,1.59-2l7.41-20.46V33.26a3.51,3.51,0,0,0,.86,2.5,3.88,3.88,0,0,0,2.82.9,3.81,3.81,0,0,0,3-.94,3.27,3.27,0,0,0,.82-2.21V3.68A3.09,3.09,0,0,0,49,1,6.34,6.34,0,0,0,45.51.12a8,8,0,0,0-3.85.82,4.79,4.79,0,0,0-2.09,2.78l-8,23.86-8.39-24A5.11,5.11,0,0,0,21.33,1a6.12,6.12,0,0,0-3.6-.9A6.84,6.84,0,0,0,14.08,1a3.28,3.28,0,0,0-1.43,3V33.18a3.57,3.57,0,0,0,.82,2.54A4,4,0,0,0,16.33,36.58Z"/><path class="b" d="M61.87,47.83l-1-.78a3,3,0,0,0-3.85.12,8,8,0,0,1-5.11,1.89H43.17a15.14,15.14,0,0,0-10.76,4.46L32,54l-.45-.45A15.22,15.22,0,0,0,20.75,49.1H12a8,8,0,0,1-5.07-1.88A3,3,0,0,0,3,47.09l-1,.78A3,3,0,0,0,.91,50.12a2.86,2.86,0,0,0,1,2.33A15.27,15.27,0,0,0,12,56.34h8.84a8,8,0,0,1,7.73,5.89v.08c0,.29.49,1.8,3.48,1.8s3.44-1.51,3.48-1.8v-.08a8,8,0,0,1,7.73-5.89h8.84a15.23,15.23,0,0,0,10.06-3.89,3,3,0,0,0,1-2.33A3.24,3.24,0,0,0,61.87,47.83Z"/></svg>