<svg xmlns="http://www.w3.org/2000/svg" viewBox="0 0 64 51.25"><defs><style>.a{fill:#9ab927;}.a,.b{fill-rule:evenodd;}</style></defs><title>Popup maker icon - Uncanny Automator</title><path class="a" d="M36.2,54.21C20,62.89,5.28,53.64,1.12,41.73a29.73,29.73,0,0,1-1.06-10c.47-6.78,3.2-14.85,10.63-18.62,3.4-2.07,6.89-2.48,10.49-3.21s8-1.08,12.39-1.7c4.89-.68,9.35-1.83,13.7-1.77a17.78,17.78,0,0,1,14.45,8.29c2,3.88,3.17,7.62,1.42,13.53-2,8-7.56,10.85-14,16-4,3.18-7.21,6.93-13,10Z" transform="translate(0 -6.38)"/><path class="b" d="M39.27,31.38l-3.52.44a14.11,14.11,0,0,0-1.69-4.72,12.69,12.69,0,0,0-8.12-6.33l-.14,0,.61-3.66a14.75,14.75,0,0,0-7.15-.19c-2.91.54-7,3.63-7,3.63l2.25,3c-4,3.36-5.66,9.51-4.12,14.76L7,39.49a16.27,16.27,0,0,0,3.62,6.76A16.89,16.89,0,0,0,17,50.63l1.35-3.43a12.06,12.06,0,0,0,11-1,13,13,0,0,0,3-2.51L35,46.05a17.15,17.15,0,0,0,3.74-6.61C39.89,36.08,39.27,31.38,39.27,31.38Zm-6.39-3.6A12.86,12.86,0,0,1,28.67,45c-6,3.63-12.49,1.45-16-4.67-3.16-5.56-1.2-13.82,4.06-16.76a12.4,12.4,0,0,1,8.88-1.47A11.24,11.24,0,0,1,32.88,27.78Z" transform="translate(0 -6.38)"/><path class="b" d="M56.36,18.5l-3.17.16a7.7,7.7,0,0,0-2.44-2.35l.19-3.48L48.11,12,46.72,15.2a7.4,7.4,0,0,0-3.17.74L40.9,14.08,38.83,16.3l1.6,2.55a7.65,7.65,0,0,0-1,3.82L36.87,24,37.58,27l3-.13a7.53,7.53,0,0,0,2.51,2.42l-.2,3.41,2.84.79,1.37-3.11a7.28,7.28,0,0,0,3.31-.83l2.6,1.86,2.13-2.21-1.7-2.61a7.68,7.68,0,0,0,1-3.66l2.65-1.39ZM49,21.59a2.39,2.39,0,1,1-3.31-1A2.42,2.42,0,0,1,49,21.59Z" transform="translate(0 -6.38)"/><path class="b" d="M60.2,16a15.23,15.23,0,0,0-6.43-6.16l0,0,0,0C49.84,8,46.46,8.11,40.56,8.91h0c-5.83.72-11.51,1.81-17.8,2.62h0c-7.92,1.05-11,2.39-14.67,5.76-4.33,3.94-6.29,10.23-6.2,16.32A21.64,21.64,0,0,0,14,53.61h0c6.6,3.23,14.18,3.27,23.34-2.18,3.16-1.89,6.6-5.1,11.13-9.13,3.06-2.73,6.61-4.66,9.48-8a18.82,18.82,0,0,0,3.8-7.62l0-.07v-.07A16.33,16.33,0,0,0,60.2,16ZM58.07,17.2a13.69,13.69,0,0,1,1.15,8.9A16.09,16.09,0,0,1,56,32.66c-2.49,2.86-5.92,4.76-9.25,7.72-4.55,4.06-8,7.21-10.74,8.85-8.65,5.14-15,5-20.91,2.08h0A19.1,19.1,0,0,1,4.44,33.65v-.06c-.08-5.5,1.77-11.13,5.37-14.41s5.52-4.08,13.27-5.11h0c6.38-.82,12.07-1.91,17.79-2.62h0c5.78-.79,8.37-.84,11.7.65a12.91,12.91,0,0,1,5.47,5.1Z" transform="translate(0 -6.38)"/></svg>