<?xml version="1.0" encoding="utf-8"?><svg xmlns="http://www.w3.org/2000/svg" viewBox="0 0 55.38 64"><defs><style>.cls-1{fill:#3a30e5;}.cls-2{fill:#3058e5;}.cls-3{fill:#4067ee;}.cls-4{fill:#476ef9;}.cls-5{fill:#624af6;}.cls-6{fill:#7c3aed;}.cls-7{fill:#4f46e5;}.cls-8{fill:#814af7;}</style></defs><title>Presto Player icon - Uncanny Automator</title><g id="Layer_2" data-name="Layer 2"><path class="cls-1" d="M41.21,32,59.68,21.35V42.68Z" transform="translate(-4.31)"/><path class="cls-2" d="M41.21,10.68,59.69,21.35,41.21,32Z" transform="translate(-4.31)"/><path class="cls-3" d="M41.21,10.68V32L22.74,21.35Z" transform="translate(-4.31)"/><path class="cls-4" d="M41.26,10.67,22.79,21.33V0Z" transform="translate(-4.31)"/><path class="cls-5" d="M22.79,21.36V42.69L4.32,32Z" transform="translate(-4.31)"/><path class="cls-3" d="M22.79.07V21.41L4.32,10.74Z" transform="translate(-4.31)"/><path class="cls-6" d="M22.79,42.67V64L4.32,53.33Z" transform="translate(-4.31)"/><path class="cls-7" d="M41.21,32,59.69,42.68,41.21,53.35Z" transform="translate(-4.31)"/><path class="cls-8" d="M4.32,32,22.8,42.68,4.32,53.35Z" transform="translate(-4.31)"/><path class="cls-2" d="M4.32,10.7,22.8,21.37,4.32,32Z" transform="translate(-4.31)"/><path class="cls-5" d="M41.21,32V53.35L22.74,42.68Z" transform="translate(-4.31)"/><path class="cls-1" d="M41.21,32,59.68,21.35V42.68Z" transform="translate(-4.31)"/><path class="cls-2" d="M41.21,10.68,59.68,21.35,41.21,32Z" transform="translate(-4.31)"/><path class="cls-3" d="M41.21,10.68V32L22.73,21.35Z" transform="translate(-4.31)"/><path class="cls-4" d="M41.26,10.67,22.78,21.33V0Z" transform="translate(-4.31)"/><path class="cls-5" d="M22.79,21.36V42.69L4.32,32Z" transform="translate(-4.31)"/><path class="cls-3" d="M22.79.07V21.41L4.32,10.74Z" transform="translate(-4.31)"/><path class="cls-6" d="M22.79,42.67V64L4.32,53.33Z" transform="translate(-4.31)"/><path class="cls-7" d="M41.21,32,59.68,42.68,41.21,53.35Z" transform="translate(-4.31)"/><path class="cls-8" d="M4.32,32,22.79,42.68,4.32,53.35Z" transform="translate(-4.31)"/><path class="cls-2" d="M4.32,10.7,22.79,21.37,4.32,32Z" transform="translate(-4.31)"/><path class="cls-5" d="M41.21,32V53.35L22.73,42.68Z" transform="translate(-4.31)"/><path class="cls-1" d="M41.2,32,59.68,21.35V42.68Z" transform="translate(-4.31)"/><path class="cls-2" d="M41.21,10.68,59.68,21.35,41.21,32Z" transform="translate(-4.31)"/><path class="cls-3" d="M41.21,10.68V32L22.73,21.35Z" transform="translate(-4.31)"/><path class="cls-4" d="M41.25,10.67,22.78,21.33V0Z" transform="translate(-4.31)"/><path class="cls-5" d="M22.79,21.36V42.69L4.31,32Z" transform="translate(-4.31)"/><path class="cls-3" d="M22.79.07V21.41L4.31,10.74Z" transform="translate(-4.31)"/><path class="cls-6" d="M22.79,42.67V64L4.31,53.33Z" transform="translate(-4.31)"/><path class="cls-7" d="M41.21,32,59.68,42.68,41.21,53.35Z" transform="translate(-4.31)"/><path class="cls-8" d="M4.31,32,22.79,42.68,4.31,53.35Z" transform="translate(-4.31)"/><path class="cls-2" d="M4.31,10.7,22.79,21.37,4.31,32Z" transform="translate(-4.31)"/><path class="cls-5" d="M41.21,32V53.35L22.73,42.68Z" transform="translate(-4.31)"/></g></svg>