<svg xmlns="http://www.w3.org/2000/svg" viewBox="0 0 64 64"><defs><style>.a{fill:none;}.b{fill:#2b2b2b;}.c{fill:#f9ba0f;}.d{fill:#fef4d8;}.e{fill:#d6d6d6;}</style></defs><title>Uncanny Owl icon - Uncanny Automator</title><rect class="a" width="64" height="64"/><path class="b" d="M58.4,0c.06.56.11,1.13.14,1.69.06,1.15.13,2.31.09,3.46S58.53,7.72,58.4,9a39.68,39.68,0,0,1-1.85,8.82,27.76,27.76,0,0,1-3.34,6.75,22.15,22.15,0,0,1-4.9,5.14,23.1,23.1,0,0,1-6.39,3.35A31.58,31.58,0,0,1,33.2,34.6,15.15,15.15,0,0,1,28.45,64h-.69a15.71,15.71,0,0,1-3.67-.53,15.15,15.15,0,0,1-9.68-21.15A33.6,33.6,0,0,0,7.8,52.11,35.38,35.38,0,0,0,5.47,59a38.42,38.42,0,0,1-.07-4.8,40.58,40.58,0,0,1,1.36-8.83A30.6,30.6,0,0,1,9.53,38.5a23,23,0,0,1,4.55-5.74,21.9,21.9,0,0,1,6.61-4.11,28.93,28.93,0,0,1,8.61-1.93c1.49-.12,3-.09,4.48-.25a26.65,26.65,0,0,0,8-2,24.08,24.08,0,0,0,6.43-4.17A27.77,27.77,0,0,0,53,14.56a36.51,36.51,0,0,0,3.54-7.24A38.36,38.36,0,0,0,58.4,0ZM27.12,36.89a10.84,10.84,0,0,0-5.7,2.29,12.09,12.09,0,0,0-4.05,5.92,12.77,12.77,0,0,0,.2,8.17,11.91,11.91,0,0,0,4.11,5.55A10.7,10.7,0,0,0,27.1,60.9a10.53,10.53,0,0,0,5.71-1,11.36,11.36,0,0,0,3.9-3.15,12.41,12.41,0,0,0,2.4-5.11,12.8,12.8,0,0,0-.65-7.49A11.87,11.87,0,0,0,34,38.59,10.71,10.71,0,0,0,27.12,36.89Z"/><path class="c" d="M27.12,36.89a10.68,10.68,0,0,1,6.82,1.7,11.81,11.81,0,0,1,4.52,5.52,12.76,12.76,0,0,1,.65,7.48,12.41,12.41,0,0,1-2.4,5.11,11.36,11.36,0,0,1-3.9,3.15,10.58,10.58,0,0,1-5.7,1,10.7,10.7,0,0,1-5.42-2.08,12,12,0,0,1-4.12-5.54,12.87,12.87,0,0,1-.19-8.18,12,12,0,0,1,4.05-5.92A10.81,10.81,0,0,1,27.12,36.89Zm1.63,4.19h0a7.86,7.86,0,1,0,2.57,15.08l.68-.32a7.81,7.81,0,0,0,2.69-11.53v0a3.45,3.45,0,0,0-.85-3.1,3.53,3.53,0,0,0-5-.19A.6.6,0,0,0,28.75,41.08Z"/><path class="d" d="M28.75,41.08a3.53,3.53,0,0,1,5,0l.08.09a3.45,3.45,0,0,1,.85,3.1,8.44,8.44,0,0,0-1.85-1.78A8,8,0,0,0,28.75,41.08Z"/><path d="M26.62,41.26a7.93,7.93,0,0,1,2.12-.17,3.49,3.49,0,0,0-.21,4.71,3.54,3.54,0,0,0,6.15-1.48A7.83,7.83,0,0,1,32,55.85a7.92,7.92,0,0,1-10.7-3.3c-.12-.22-.22-.45-.32-.68a7.83,7.83,0,0,1,5.65-10.61Z"/><path class="e" d="M28.74,41.09h0a8.08,8.08,0,0,1,4.08,1.42,9,9,0,0,1,1.85,1.79v0a3.52,3.52,0,1,1-6.88-1.49A3.47,3.47,0,0,1,28.74,41.09Z"/></svg>