<svg xmlns="http://www.w3.org/2000/svg" xmlns:xlink="http://www.w3.org/1999/xlink" viewBox="0 0 64 64"><defs><style>.a{fill:url(#a);}.b{fill:#e6f5ff;}</style><linearGradient id="a" x1="4.7" y1="4.7" x2="59.3" y2="59.3" gradientUnits="userSpaceOnUse"><stop offset="0" stop-color="#00d7ff"/><stop offset="1" stop-color="#006bff"/></linearGradient></defs><title>WP Fluent Forms icon - Uncanny Automator</title><rect class="a" width="64" height="64" rx="16"/><path class="b" d="M17.91,16.4H53.58a0,0,0,0,1,0,0v0a7.49,7.49,0,0,1-7.49,7.49H10.42a0,0,0,0,1,0,0v0A7.49,7.49,0,0,1,17.91,16.4Z"/><path class="b" d="M17.91,28.11H53.58a0,0,0,0,1,0,0v0a7.49,7.49,0,0,1-7.49,7.49H10.42a0,0,0,0,1,0,0v0A7.49,7.49,0,0,1,17.91,28.11Z"/><path class="b" d="M26.88,40.1H43.53a0,0,0,0,1,0,0v2.14a5.35,5.35,0,0,1-5.35,5.35H21.53a0,0,0,0,1,0,0V45.45A5.35,5.35,0,0,1,26.88,40.1Z"/></svg>