<svg xmlns="http://www.w3.org/2000/svg" viewBox="0 0 64 64.05"><defs><style>.a{fill:none;}.b{fill:#d75676;}</style></defs><title>WP Job Manager icon - Uncanny Automator</title><rect class="a" width="64" height="64"/><path class="b" d="M32.67,45.33l2.88-4.84H27.72l2.87,4.84-4,13.24,5.08,5.48,5.06-5.48-4-13.24Zm14.12-5.41h-1.4L31.64,63.54,17.89,39.92H16.5a7.66,7.66,0,0,0-7.65,7.64V64.05H54.43V47.56A7.67,7.67,0,0,0,46.79,39.92ZM38.05,19.24a3.28,3.28,0,0,0-3.27,3.26h6.55A3.28,3.28,0,0,0,38.05,19.24Zm-12.83,0A3.28,3.28,0,0,0,22,22.5h6.5A3.3,3.3,0,0,0,25.22,19.24Zm17.54-7.83H39.83L38.45,8H32.71V5.65A2.89,2.89,0,0,0,34.54,3a2.92,2.92,0,1,0-4,2.69V8H24.8l-1.38,3.46H20.51A8.76,8.76,0,0,0,11.58,20a9.22,9.22,0,0,0,.14,1.74l3,15.54H48.5l3-15.54a8.74,8.74,0,0,0-7-10.17,9.6,9.6,0,0,0-1.77-.14Zm4.67,9.92c0,11.76-31.58,11.76-31.58,0h0A5.39,5.39,0,0,1,20.77,16H42.49A5.38,5.38,0,0,1,47.43,21.33Z"/></svg>