<svg xmlns="http://www.w3.org/2000/svg" viewBox="0 0 64 63.76"><defs><style>.a{fill:#42a5de;}</style></defs><title>WPForo icon - Uncanny Automator</title><path class="a" d="M32.12.12a31.86,31.86,0,0,0-27,48.81L0,60.42l12.52-3.29a31.88,31.88,0,1,0,19.6-57ZM45.19,27.27h-.56a2.83,2.83,0,0,0-.27-1.08.63.63,0,0,0-.55-.29H28.62V31H38.83a.63.63,0,0,0,.56-.26,2.54,2.54,0,0,0,.27-1h.56v9.59h-.56A3.37,3.37,0,0,0,39.39,38a.63.63,0,0,0-.56-.28H28.62v9.53a1,1,0,0,0,.2.65,1.77,1.77,0,0,0,1.09.37V49H20.24v-.69a1.77,1.77,0,0,0,1.08-.37,1,1,0,0,0,.21-.65V20.65a1,1,0,0,0-.21-.66,1.83,1.83,0,0,0-1.08-.37v-.68H43.81a.61.61,0,0,0,.55-.32,3.57,3.57,0,0,0,.27-1.28h.56Z" transform="translate(0 -0.12)"/></svg>