<svg xmlns="http://www.w3.org/2000/svg" viewBox="0 0 64 30.79"><defs><style>.a{fill:#5534ff;}</style></defs><title>WPLMS icon - Uncanny Automator</title><path class="a" d="M18.1,47c-.73-.59-.59-2.2.67-7.3.59-2.39,1-4.39,1-4.43a2.93,2.93,0,0,0-1,.59,4.76,4.76,0,0,1-1.5.79,1.35,1.35,0,0,0-1,.69,20.39,20.39,0,0,1-4,4.06C10.17,43,8.57,43.51,7.65,43a2.8,2.8,0,0,1-.92-2.17v-.68l-1.15.93a9.38,9.38,0,0,1-4.06,2.12,1.41,1.41,0,0,1-1.07-.49C0,42.28,0,42.09,0,40.4s.13-2.26,1.39-6.83c.76-2.75,1.7-6.51,2.1-8.36l.72-3.35.69-.06c1-.08,1.64.6,1.64,1.73,0,.92,0,.9-2.45,10.1-1.73,6.46-2,8-1.45,8.44s2.14-.86,3.21-2.68c1.23-2.1,2.77-6.91,3.92-12.31.8-3.69.68-3.41,1.45-3.41a1.53,1.53,0,0,1,1.15.49c.46.46.48.57.38,1.75-.07.7-.89,4.09-1.83,7.53-1.85,6.76-2.05,8-1.33,8.52s1.11.17,2.28-1a11,11,0,0,0,2-2.88l.92-1.81-.55-1.13A6,6,0,0,1,13.6,32c-.16-4.49,1.29-8.87,3.3-10,1.28-.73,2.29-.53,2.87.57.44.82.43,3.66,0,5.83a36,36,0,0,1-2.17,6.69c-.61,1.25-.47,1.35.75.54,1.62-1.08,1.81-1.39,2.53-4.36.37-1.5.73-3.14.8-3.65l.12-.93h.83c1,0,1.4.49,1.45,1.69,0,.43.08.78.14.78a1.54,1.54,0,0,0,.44-.57c1-1.67,3-1.44,3.84.44a4.71,4.71,0,0,1,.46,1.41c0,.61.32.54,1.22-.28.43-.4,1-.9,1.31-1.13s.64-.8,1-2c1.35-4.65,3.83-8.52,6.34-9.89,1.67-.91,3.63-.63,3.93.56.34,1.35-.6,3.18-2.77,5.38A47.59,47.59,0,0,1,35,27.21c-.11.08-2,8-2.6,10.63-.39,1.87-.45,2.48-.29,2.84s.33.45.47.45c.39,0,1.31-1.51,2.31-3.8.84-1.93,1.23-2.6,1.23-2.12a21.75,21.75,0,0,1-1.85,4.45c-1.26,2.39-2.46,3.34-3.57,2.83-.86-.39-1.13-1.09-1.11-2.87a24.17,24.17,0,0,1,1.07-5.75c.58-2.27,1-4.13,1-4.13a12.64,12.64,0,0,0-1.31,1.07c-1.07.94-1.22,1.15-1.22,1.76,0,3.1-1.73,7.64-3.62,9.53-1.36,1.36-3.12,1.32-3.58-.07s.64-3.93,3.44-7.18c1.09-1.27,1.13-1.36,1.24-2.63.18-2.13-.49-4-1.26-3.62-.47.25-1.42,2.14-2,3.89-.26.84-1.23,4.53-2.15,8.21-1.69,6.68-1.69,6.7-2.19,6.7A1.76,1.76,0,0,1,18.1,47Zm6.27-6.43A25.4,25.4,0,0,0,26,35.82l.12-.67-.59.67c-1.5,1.68-3,4.37-3,5.35,0,.61.5,1,1,.7a3.9,3.9,0,0,0,.89-1.27Zm-8.34-8c.42-1.26,1-3.14,1.25-4.17.58-2.21.83-5.23.47-5.67C16.46,21.27,14.42,26,14.2,31c-.09,2-.06,2.39.32,3.39.3.8.47,1,.59.85s.51-1.3.92-2.57Zm22.45-9.54c1.59-1.73,2.46-3.21,2.57-4.37.08-.84,0-.95-.42-1.25s-.55-.32-1.16,0c-.8.38-1.72,1.78-2.62,3.95a28.64,28.64,0,0,0-1.45,4.38c0,.29,1.74-1.23,3.08-2.68ZM36.12,42.82c-.75-.28-1-1.18-.74-2.81.12-.72.77-3.63,1.45-6.45s1.29-5.53,1.35-6c.13-1,.55-1.22,1.44-.88s1,.85.87,2.52c-.05.82-.08,1.49-.06,1.49s.36-.47.75-1c1-1.38,2-2.19,3-2.19a1.68,1.68,0,0,1,1,.29,4.43,4.43,0,0,1,.68,2.65v.93l.59-.93c1.2-1.92,2.46-2.94,3.65-2.94.83,0,1.22.45,1.45,1.68s0,3.06-1,7.1c-.86,3.36-1,4-.75,4.59.37,1,1.35-.31,2.76-3.54,1.17-2.66,1.57-2.54.46.13-.91,2.19-2.19,4.28-2.95,4.8-1.3.9-2.49.31-2.74-1.36-.19-1.24,0-2.29,1-6.26,1.21-4.84,1.29-6.55.29-6a12,12,0,0,0-2.69,4,82.77,82.77,0,0,0-2.47,9.38L43.16,43h-.72c-.93,0-1.38-.49-1.48-1.66-.07-.68.2-2,1.09-5.46,1.19-4.65,1.58-7.13,1.14-7.4s-2.4,2.15-3.27,4.4c-.3.76-1,3.33-1.65,5.71C37.52,41.55,37.08,43,36.9,43a2.23,2.23,0,0,1-.78-.15Zm19.14,0c-1.8-.57-2.25-2.66-1-4.58a8.66,8.66,0,0,1,3.28-2.37c.52-.14.52-.13.08-1.42-.52-1.5-1.36-3.09-1.54-2.9A27.31,27.31,0,0,0,55,34.25a18,18,0,0,1-1.16,2.62c-.37.23-.13-.72.86-3.39l1-2.78-.47-.81c-1-1.84-.37-3.84,1.38-4.08,1.4-.18,1.44-.1.81,1.76l-.56,1.65L58,30.65a19.2,19.2,0,0,1,1.84,2.84c.67,1.36.71,1.4,1.27,1.29,1.34-.28,3-.35,2.86-.13a.67.67,0,0,1-.53.22,14.79,14.79,0,0,0-1.59.2l-1.19.21.1,1.65a5.63,5.63,0,0,1-.94,4.13,4.44,4.44,0,0,1-4.58,1.78Zm1.4-1.07A4.12,4.12,0,0,0,58.19,39c.22-1.18.06-2.63-.29-2.63A8.13,8.13,0,0,0,55,38.57,2.57,2.57,0,0,0,54.47,41a1.37,1.37,0,0,0,2.19.73Z" transform="translate(0 -16.6)"/></svg>