<?xml version="1.0" encoding="UTF-8"?><svg xmlns="http://www.w3.org/2000/svg" viewBox="0 0 64 64"><defs><style>.cls-1{fill:none;}.cls-2{fill:#0096ff;fill-rule:evenodd;}.cls-3{fill:#fff;}</style></defs><title>WP Event Manager icon - Uncanny Automator</title><g id="Layer_2"><rect class="cls-1" width="64" height="64"/></g><g id="Layer_1"><rect class="cls-3" x="5.78" y="22.5" width="53.84" height="28.41"/><path class="cls-2" d="M5.78,62.39h52.44v1.61H5.78v-1.61ZM2.89,59.15h58.21v1.61H2.89s0-1.61,0-1.61ZM46.07,0h0c2.26,0,4.12,1.85,4.12,4.12v9.35c0,2.26-1.85,4.12-4.12,4.12h0c-2.26,0-4.12-1.85-4.12-4.12V4.12c0-2.26,1.85-4.12,4.12-4.12ZM18.11,0h0c2.26,0,4.12,1.85,4.12,4.12v9.35c0,2.26-1.85,4.12-4.12,4.12h0c-2.26,0-4.12-1.85-4.12-4.12V4.12c0-2.26,1.85-4.12,4.12-4.12ZM.51,11.48h11.13v2.37c0,3.53,2.88,6.41,6.41,6.41h0c3.53,0,6.41-2.88,6.41-6.41v-2.37h15.08v2.37c0,3.53,2.88,6.41,6.41,6.41h0c3.53,0,6.41-2.88,6.41-6.41v-2.37h11.13v46.03H.51V11.48h0ZM33.68,48.94h-7.43l-2.23-10.13c-.1-.42-.27-1.26-.5-2.53-.23-1.26-.4-2.31-.5-3.16-.09.69-.22,1.55-.41,2.57-.2,1.02-.38,1.96-.56,2.82-.18.86-.96,4.34-2.31,10.43h-7.43l-5.75-23.25h6.06l2.53,11.66c.57,2.58.97,4.63,1.18,6.16.14-1.08.38-2.55.74-4.41.35-1.86.68-3.39.99-4.61l2.05-8.79h5.82l1.99,8.79c.34,1.41.68,3.04,1.03,4.89.35,1.85.59,3.22.7,4.14.14-1.18.52-3.22,1.13-6.12l2.58-11.69h6.06l-5.73,23.25ZM57.44,33.08c0,2.6-.77,4.6-2.3,6.02-1.54,1.42-3.71,2.12-6.53,2.12h-1.77v7.72h-6.28v-23.25h8.05c2.94,0,5.14.64,6.62,1.92,1.47,1.29,2.21,3.11,2.21,5.47h0ZM46.84,36.11h1.15c.94,0,1.7-.27,2.25-.79.56-.53.84-1.26.84-2.2,0-1.57-.87-2.35-2.61-2.35h-1.62v5.34h0Z"/></g></svg>