<?xml version="1.0" encoding="UTF-8"?><svg xmlns="http://www.w3.org/2000/svg" viewBox="0 0 64 64"><title>Drip icon - Uncanny Automator</title><g id="a"><rect width="64" height="64" style="fill:none;"/></g><g id="b"><g id="c"><path d="m56.26,38.76c.01.25.01.5.01.74,0,14.7-12.14,24.5-24.28,24.5S7.72,54.2,7.72,39.5c0-.25.01-.5.01-.74h7.3c-.02.26-.02.5-.02.74,0,10.68,8.82,17.29,16.99,17.29s16.99-6.61,16.99-17.29c0-.24,0-.49-.02-.74h7.28Zm-24.26-29.61l-5.2,6.95h-9.18c4.3-5.78,9.12-11.17,14.38-16.1,5.26,4.94,10.08,10.33,14.38,16.1h-9.18l-5.2-6.95Zm0,23.24c-2.68,0-4.86-2.15-4.86-4.81s2.17-4.81,4.86-4.81,4.86,2.15,4.86,4.81-2.17,4.81-4.86,4.81Zm14.57,0c-2.68,0-4.86-2.15-4.86-4.81s2.17-4.81,4.86-4.81,4.86,2.15,4.86,4.81-2.17,4.81-4.86,4.81Zm-29.13,0c-2.68,0-4.86-2.15-4.86-4.81s2.17-4.81,4.86-4.81,4.86,2.15,4.86,4.81-2.17,4.81-4.86,4.81Z" style="fill:#f225f2;"/></g></g></svg>