<svg xmlns="http://www.w3.org/2000/svg" viewBox="0 0 48.26 64"><defs><style>.a{fill:#163bd7;fill-rule:evenodd;}</style></defs><title>TutorLMS icon - Uncanny Automator</title><path class="a" d="M56,35.79c0-.57.09-1.24.09-1.9a24.18,24.18,0,0,0-12.28-21V6.19h7.81V0H12.53V6.28h7.9v6.48A24.11,24.11,0,0,0,7.87,34a23.82,23.82,0,0,0,3.81,13.14h0C22.43,65.49,56,64,56,64V34a12.15,12.15,0,0,1,0,1.81M26.62,6.28H37.47v4.19a26.68,26.68,0,0,0-5.61-.67,24.73,24.73,0,0,0-5.33.58V6.28Zm-12.18,19a7.6,7.6,0,0,1,6.85-4.57,7.87,7.87,0,0,1,7.62,8.09V43.31a3,3,0,0,0,5.9,0V28.75a7.87,7.87,0,0,1,7.61-8.09,7.26,7.26,0,0,1,6.67,4.19,20,20,0,0,1,2.19,8.85,19.38,19.38,0,1,1-36.84-8.47Zm-1.91,23Zm-.38-.57Z" transform="translate(-7.87)"/><path class="a" d="M21.77,40.74h-2.1a2.11,2.11,0,0,1-2.09-2.09v-9a2.11,2.11,0,0,1,2.09-2.09h2.1a2.11,2.11,0,0,1,2.09,2.09v9A2.11,2.11,0,0,1,21.77,40.74Z" transform="translate(-7.87)"/><path class="a" d="M44,40.74H42a2.12,2.12,0,0,1-2.1-2.09v-9A2.12,2.12,0,0,1,42,27.51H44a2.12,2.12,0,0,1,2.1,2.09v9A2.12,2.12,0,0,1,44,40.74Z" transform="translate(-7.87)"/></svg>