<svg xmlns="http://www.w3.org/2000/svg" viewBox="0 0 64 64"><defs><style>.a{fill:none;}.b{fill:#163bd7;fill-rule:evenodd;}</style></defs><title>TutorLMS icon - Uncanny Automator</title><rect class="a" width="64" height="64"/><path class="b" d="M20.75,40.76a3.23,3.23,0,0,1-3.09-3.09v-7a3.09,3.09,0,0,1,6.17,0v7.05a3,3,0,0,1-3.08,3.09" transform="translate(0 0)"/><path class="b" d="M43,40.76a3.1,3.1,0,0,1-3.12-3.09v-7a3.09,3.09,0,0,1,6.17,0v7.05A3.1,3.1,0,0,1,43,40.76" transform="translate(0 0)"/><path class="b" d="M56,35.91A24.16,24.16,0,0,0,43.78,13V6.4h4.64a3.2,3.2,0,0,0,0-6.4H15.68a3.39,3.39,0,0,0-3.2,3.31,3.22,3.22,0,0,0,3.2,3.2h4.74V13C8.32,19.37,4.14,35.77,11.71,47.15,20.68,62.35,45,63.89,53.25,64a3.22,3.22,0,0,0,2-.77,2.67,2.67,0,0,0,.77-2ZM26.7,6.4H37.49v4.17a24.73,24.73,0,0,0-10.83-.11ZM14.58,25.33a7.85,7.85,0,0,1,6.83-4.51,7.91,7.91,0,0,1,7.6,8V43.3a2.9,2.9,0,0,0,5.73,0V28.86C34.52,20.94,45.38,17.54,49,25,55.46,37.55,46.16,52.89,32,52.93,17.91,53.16,8.31,38,14.58,25.33Z" transform="translate(0 0)"/></svg>