<svg xmlns="http://www.w3.org/2000/svg" viewBox="0 0 64 64"><defs><style>.a{fill:none;}.b{fill:#34d367;fill-rule:evenodd;}</style></defs><title>WhatsApp icon - Uncanny Automator</title><rect class="a" width="64" height="64"/><path class="b" d="M54.57,9.3A31.73,31.73,0,0,0,4.65,47.57L.15,64,17,59.59a31.59,31.59,0,0,0,15.15,3.86h0A31.73,31.73,0,0,0,54.57,9.3ZM32.13,58.09h0a26.27,26.27,0,0,1-13.41-3.67l-1-.57-10,2.62,2.66-9.73-.63-1a26.36,26.36,0,0,1,41-32.65,26.37,26.37,0,0,1-18.65,45ZM46.59,38.35C45.8,38,41.9,36,41.18,35.77s-1.26-.39-1.79.4-2,2.58-2.5,3.11-.93.59-1.72.2a21.75,21.75,0,0,1-6.37-3.94,23.55,23.55,0,0,1-4.41-5.49c-.46-.79-.05-1.22.35-1.61s.79-.93,1.18-1.39a5.61,5.61,0,0,0,.8-1.32,1.47,1.47,0,0,0-.07-1.39c-.2-.4-1.78-4.3-2.44-5.89s-1.3-1.33-1.79-1.36-1,0-1.51,0a2.9,2.9,0,0,0-2.12,1A8.9,8.9,0,0,0,16,24.67c0,3.9,2.84,7.67,3.23,8.2s5.59,8.53,13.54,12a45.94,45.94,0,0,0,4.52,1.67,10.81,10.81,0,0,0,5,.31c1.52-.22,4.69-1.91,5.35-3.76a6.61,6.61,0,0,0,.46-3.77C47.91,39,47.38,38.75,46.59,38.35Z"/></svg>