<svg xmlns="http://www.w3.org/2000/svg" viewBox="0 0 64 64"><defs><style>.cls-1{fill:none;}.cls-2{fill:#fcb400;}.cls-3{fill:#18bfff;}.cls-4{fill:#f82b60;}.cls-5{fill:#ba2048;}</style></defs><title>Airtable icon - Uncanny Automator</title><g id="Layer_2" data-name="Layer 2"><rect class="cls-1" width="64" height="64"/></g><g id="Layer_1" data-name="Layer 1"><path class="cls-2" d="M28.58,5.91,4.72,15.78a1.59,1.59,0,0,0,0,3l24,9.5a8.83,8.83,0,0,0,6.55,0l24-9.5a1.6,1.6,0,0,0,0-3L35.38,5.91a8.81,8.81,0,0,0-6.8,0"/><path class="cls-3" d="M34.1,33.43V57.17a1.6,1.6,0,0,0,2.19,1.49L63,48.29a1.59,1.59,0,0,0,1-1.48V23.07a1.6,1.6,0,0,0-2.19-1.49L35.11,32a1.59,1.59,0,0,0-1,1.48"/><path class="cls-4" d="M27.87,34.66l-7.93,3.82-.8.39-16.73,8A1.69,1.69,0,0,1,0,45.45V23.17A1.5,1.5,0,0,1,.51,22.1a2.1,2.1,0,0,1,.41-.31,1.7,1.7,0,0,1,1.45-.11L27.74,31.73a1.6,1.6,0,0,1,.13,2.93"/><path class="cls-5" d="M27.87,34.66l-7.93,3.82L.51,22.1a2.1,2.1,0,0,1,.41-.31,1.7,1.7,0,0,1,1.45-.11L27.74,31.73a1.6,1.6,0,0,1,.13,2.93"/></g></svg>