<?xml version="1.0" encoding="UTF-8"?><svg xmlns="http://www.w3.org/2000/svg" viewBox="0 0 64 64"><title>Advanced icon - Uncanny Automator</title><g id="a"><rect width="64" height="64" style="fill:none; stroke-width:0px;"/></g><g id="b"><g id="c"><rect width="64" height="64" rx="8" ry="8" style="fill:#0790e8; stroke-width:0px;"/></g></g><g id="d"><path d="m15.5,12.75c-3.03,0-5.5,2.47-5.5,5.5v5.5c0,3.03,2.47,5.5,5.5,5.5h33c3.03,0,5.5-2.47,5.5-5.5v-5.5c0-3.03-2.47-5.5-5.5-5.5H15.5Zm24.06,6.19c1.14,0,2.06.92,2.06,2.06s-.92,2.06-2.06,2.06-2.06-.92-2.06-2.06.92-2.06,2.06-2.06Zm4.12,2.06c0-1.14.92-2.06,2.06-2.06s2.06.92,2.06,2.06-.92,2.06-2.06,2.06-2.06-.92-2.06-2.06Zm-28.19,13.75c-3.03,0-5.5,2.47-5.5,5.5v5.5c0,3.03,2.47,5.5,5.5,5.5h33c3.03,0,5.5-2.47,5.5-5.5v-5.5c0-3.03-2.47-5.5-5.5-5.5H15.5Zm24.06,6.19c1.14,0,2.06.92,2.06,2.06s-.92,2.06-2.06,2.06-2.06-.92-2.06-2.06.92-2.06,2.06-2.06Zm4.81,2.06c0-1.14.92-2.06,2.06-2.06s2.06.92,2.06,2.06-.92,2.06-2.06,2.06-2.06-.92-2.06-2.06Z" style="fill:#fff; stroke-width:0px;"/></g></svg>